<?xml version="1.0" encoding="iso-8859-1"?>
<!-- Generator: Adobe Illustrator 19.0.0, SVG Export Plug-In . SVG Version: 6.00 Build 0)  -->
<svg version="1.1" id="Layer_1" xmlns="http://www.w3.org/2000/svg" xmlns:xlink="http://www.w3.org/1999/xlink" x="0px" y="0px"
	 viewBox="0 0 512 512" style="enable-background:new 0 0 512 512;" xml:space="preserve">
<path style="fill:#21D0C3;" d="M256,0c141.385,0,256,114.615,256,256S397.385,512,256,512S0,397.385,0,256S114.615,0,256,0z"/>
<path style="fill:#15BDB2;" d="M256,407.27c100.67,0,182.284,6.434,182.284,14.369c0,7.935-81.609,14.369-182.284,14.369
	c-100.67,0-182.284-6.434-182.284-14.369C73.716,413.703,155.325,407.27,256,407.27z"/>
<path style="fill:#666666;" d="M65.984,67.222h380.037c12.485,0,22.702,10.217,22.702,22.702V324.03H43.287V89.922
	c0-12.485,10.217-22.702,22.702-22.702L65.984,67.222L65.984,67.222z"/>
<path style="fill:#DCE3DB;" d="M58.695,308.617h394.609V89.927c0-3.977-3.308-7.289-7.284-7.289H65.984
	c-3.977,0-7.284,3.307-7.284,7.289v218.69H58.695z"/>
<g>
	<path style="fill:#FFFFFF;" d="M468.718,324.03v24.826c0,12.49-11.261,22.702-25.024,22.702H68.307
		c-13.764,0-25.024-10.212-25.024-22.702V324.03H468.718z"/>
	<path style="fill:#FFFFFF;" d="M149.561,108.342H362.44h31.689c3.839,0,6.983,3.146,6.983,6.983v41.546v151.746H110.896v-0.005
		V156.872v-41.546c0-3.839,3.141-6.983,6.983-6.983h31.689C149.569,108.342,149.561,108.342,149.561,108.342z"/>
</g>
<path style="fill:#828282;" d="M117.871,108.342h276.253c3.839,0,6.983,3.141,6.983,6.983v13.963h-290.22v-13.963
	C110.887,111.488,114.028,108.342,117.871,108.342z"/>
<path style="fill:#FFFFFF;" d="M240.093,115.575h140.189c1.035,0,1.875,0.84,1.875,1.875v3.478c0,1.035-0.84,1.875-1.875,1.875
	H240.093c-1.035,0-1.875-0.84-1.875-1.875v-3.478C238.218,116.417,239.058,115.575,240.093,115.575z"/>
<path style="fill:#21D0C3;" d="M124.817,114.333c2.217,0,4.018,1.796,4.018,4.018c0,2.222-1.801,4.018-4.018,4.018
	c-2.222,0-4.023-1.796-4.023-4.018C120.795,116.13,122.596,114.333,124.817,114.333z"/>
<path style="fill:#FAD24D;" d="M140.683,114.333c2.222,0,4.018,1.796,4.018,4.018c0,2.222-1.796,4.018-4.018,4.018
	c-2.222,0-4.018-1.796-4.018-4.018C136.665,116.13,138.467,114.333,140.683,114.333z"/>
<path style="fill:#FF5B62;" d="M156.553,114.333c2.217,0,4.018,1.796,4.018,4.018c0,2.222-1.801,4.018-4.018,4.018
	c-2.222,0-4.023-1.796-4.023-4.018C152.53,116.13,154.332,114.333,156.553,114.333z"/>
<g>
	<path style="fill:#21D0C3;" d="M126.596,156.627h258.804v65.716H126.596V156.627z"/>
	<path style="fill:#21D0C3;" d="M164.997,239.844c6.72,0,12.166,5.445,12.166,12.166c0,6.716-5.445,12.166-12.166,12.166
		c-6.716,0-12.166-5.445-12.166-12.166C152.831,245.289,158.276,239.844,164.997,239.844z"/>
</g>
<path style="fill:#FF5B62;" d="M256,239.844c6.716,0,12.166,5.445,12.166,12.166c0,6.716-5.445,12.166-12.166,12.166
	c-6.716,0-12.166-5.445-12.166-12.166C243.834,245.289,249.28,239.844,256,239.844z"/>
<path style="fill:#FAD24D;" d="M347.003,239.844c6.716,0,12.166,5.445,12.166,12.166c0,6.716-5.445,12.166-12.166,12.166
	s-12.166-5.445-12.166-12.166C334.837,245.289,340.283,239.844,347.003,239.844z"/>
<g>
	<path style="fill:#DCE3DB;" d="M140.309,274.951h49.37v2.679h-49.37V274.951z M140.309,291.782h33.163v2.679h-33.163V291.782z
		 M140.309,283.367h49.37v2.675h-49.37V283.367z"/>
	<path style="fill:#DCE3DB;" d="M231.317,274.951h49.37v2.679h-49.37L231.317,274.951L231.317,274.951z M231.317,291.782h33.163
		v2.679h-33.163L231.317,291.782L231.317,291.782z M231.317,283.367h49.37v2.675h-49.37L231.317,283.367L231.317,283.367z"/>
	<path style="fill:#DCE3DB;" d="M322.32,274.951h49.366v2.679H322.32V274.951z M322.32,291.782h33.158v2.679H322.32V291.782z
		 M322.32,283.367h49.366v2.675H322.32V283.367z"/>
</g>
<path style="fill:#ECF0F1;" d="M125.312,227.788h260.092v1.072H125.312C125.312,228.86,125.312,227.788,125.312,227.788z"/>
<path style="fill:#B6B6B8;" d="M256,338.986c4.319,0,7.815,3.496,7.815,7.815c0,4.319-3.496,7.815-7.815,7.815
	c-4.319,0-7.815-3.496-7.815-7.815C248.185,342.482,251.681,338.986,256,338.986z"/>
<path style="fill:#C2C2C4;" d="M305.065,407.27l36.096,11.565H170.839l29.121-11.565v-35.712h105.105V407.27z"/>
<path style="fill:#B0B0B0;" d="M305.065,407.27L199.96,371.557h105.105V407.27z"/>
<path style="fill:#ECF0F1;" d="M199.96,407.27h105.105l36.096,11.565v4.983H256h-85.166v-4.983l29.121-11.565H199.96z"/>
<g>
	<path style="fill:#DCE3DB;" d="M364.2,152.124h17.713v-4.162H364.2V152.124z"/>
	<path style="fill:#DCE3DB;" d="M335.378,152.124h17.713v-4.162h-17.713V152.124z"/>
	<path style="fill:#DCE3DB;" d="M306.561,152.124h17.713v-4.162h-17.713V152.124z"/>
	<path style="fill:#DCE3DB;" d="M277.746,152.124h17.713v-4.162h-17.713V152.124z"/>
</g>
<path style="fill:#FEFEFE;" d="M354.297,163.19l3.058,4.213l-1.963,1.422l-1.644-2.259c-1.612,1.113-10.623,8.083-0.388,18.318
	c8.965,8.965,17.113,1.76,20.05-1.538l-2.171-1.746l1.52-1.889l4.055,3.261l-0.466,0.582l-0.009,0.009l-0.009,0.009l-0.009,0.009
	c-0.153,0.199-0.392,0.503-0.716,0.887l-0.014,0.019l-0.3,0.369l-0.014-0.009c-3.118,3.533-11.764,11.376-21.658,3.496
	c-3.081,1.912-7.612,1.33-12.221,0.735c-5.57-0.721-11.279-1.455-13.33,2.651c-0.956,1.917,0.083,3.067,1.87,3.963l0.005-0.005
	c1.252,0.624,2.803,1.146,4.378,1.677c5.496,1.847,11.307,3.802,8.933,10.18c-3.728,10.013-21.907,3.533-26.175,1.847
	c-0.554,0.919-1.22,1.769-1.972,2.522c-2.378,2.378-5.667,3.852-9.302,3.852c-3.63,0-6.915-1.473-9.293-3.852l-0.005-0.005
	c-2.378-2.378-3.852-5.667-3.852-9.293c0-3.63,1.473-6.923,3.852-9.302c2.378-2.378,5.667-3.852,9.298-3.852
	c3.626,0,6.914,1.473,9.293,3.852l0.005,0.005l0.005,0.005c2.378,2.378,3.852,5.667,3.852,9.293c0,1.621-0.295,3.178-0.831,4.614
	c4.18,1.644,19.985,7.252,22.881-0.522c1.51-4.055-3.09-5.603-7.445-7.062c-1.686-0.564-3.343-1.123-4.688-1.796v-0.005
	c-3.039-1.52-4.758-3.561-2.947-7.182c2.817-5.63,9.372-4.785,15.778-3.963c3.82,0.494,7.579,0.979,10.008-0.065l-0.06-0.056
	c-12.068-12.068-1.445-20.475,0.684-21.962l-0.005-0.005l1.963-1.427v0.005H354.297z M305.809,196.039
	c1.819,0,3.464,0.739,4.651,1.93c1.192,1.192,1.93,2.835,1.93,4.651c0,1.815-0.739,3.464-1.93,4.651
	c-1.192,1.192-2.835,1.926-4.651,1.926c-1.815,0-3.464-0.739-4.651-1.926c-1.192-1.192-1.926-2.835-1.926-4.651
	c0-1.819,0.739-3.464,1.926-4.651C302.349,196.778,303.993,196.039,305.809,196.039z M308.76,199.669
	c-0.753-0.753-1.796-1.224-2.951-1.224c-1.15,0-2.194,0.471-2.951,1.224c-0.753,0.753-1.22,1.797-1.22,2.951
	c0,1.15,0.466,2.194,1.22,2.951c0.753,0.753,1.801,1.22,2.951,1.22c1.15,0,2.194-0.466,2.951-1.22
	c0.753-0.753,1.224-1.801,1.224-2.951C309.985,201.471,309.513,200.427,308.76,199.669z M313.407,195.018
	c-1.94-1.94-4.628-3.141-7.598-3.141c-2.965,0-5.653,1.201-7.598,3.146c-1.94,1.944-3.146,4.628-3.146,7.598
	c0,2.97,1.206,5.653,3.146,7.598c1.944,1.94,4.633,3.146,7.598,3.146c2.965,0,5.653-1.206,7.598-3.146
	c1.944-1.944,3.146-4.628,3.146-7.598s-1.201-5.658-3.141-7.598L313.407,195.018z"/>
<circle style="fill:#FF5B62;" cx="131.573" cy="156.624" r="16.212"/>
<path style="fill:#FFFFFF;" d="M128.522,145.39h6.101v8.184h8.184v6.101h-8.184v8.184h-6.101v-8.184h-8.184v-6.101h8.184V145.39z"/>
<g>
</g>
<g>
</g>
<g>
</g>
<g>
</g>
<g>
</g>
<g>
</g>
<g>
</g>
<g>
</g>
<g>
</g>
<g>
</g>
<g>
</g>
<g>
</g>
<g>
</g>
<g>
</g>
<g>
</g>
</svg>
