<?xml version="1.0" encoding="iso-8859-1"?>
<!-- Generator: Adobe Illustrator 19.0.0, SVG Export Plug-In . SVG Version: 6.00 Build 0)  -->
<svg version="1.1" id="Layer_1" xmlns="http://www.w3.org/2000/svg" xmlns:xlink="http://www.w3.org/1999/xlink" x="0px" y="0px"
	 viewBox="0 0 512 512" style="enable-background:new 0 0 512 512;" xml:space="preserve">
<circle style="fill:#FAD24D;" cx="256" cy="255.999" r="255.999"/>
<path style="fill:#EBECEC;" d="M44.759,400.631h422.481C421.109,467.878,343.712,512,256.001,512
	C168.288,512,90.891,467.879,44.759,400.631z"/>
<path style="fill:#666666;" d="M262.397,244.107c-13.875-35-43.017-66.676-6.348-130.485c15.103-26.278,38.174-43.61,62.007-37.74
	c23.834-5.87,46.903,11.463,62.009,37.74c36.666,63.808,7.525,95.483-6.348,130.485l-55.659,0.137l-55.659-0.137H262.397z"/>
<path style="fill:#FED298;" d="M224.311,298.825c-1.574,2.54-5.281,22.344-9.527,39.511c29.17,20.578,64.754,32.671,103.165,32.671
	c38.417,0,73.999-12.095,103.173-32.671c-4.249-17.167-7.957-36.973-9.529-39.511c-26.73-43.16-67.925-24.319-70.738-73.702
	c0,0-13.253,9.891-23.369,9.979c-10.122,0.093-22.456-9.358-22.456-9.358c-2.803,49.342-44.009,29.95-70.721,73.077L224.311,298.825
	z"/>
<path style="fill:#F0BA7D;" d="M341.574,232.098c-0.33-2.165-0.571-4.476-0.719-6.971c0,0-13.253,9.891-23.369,9.979
	c-10.122,0.093-22.456-9.358-22.456-9.358c-0.144,2.54-0.394,4.888-0.735,7.082c0.26,0.208,0.518,0.412,0.778,0.618v0.038
	c0.778,0.675,12.622,10.864,22.41,10.762c9.785,0.104,21.63-10.085,22.408-10.762l-0.002-0.038c0.576-0.443,1.134-0.893,1.68-1.349
	L341.574,232.098L341.574,232.098z"/>
<path style="fill:#FED298;" d="M295.076,225.78c0.778,0.589,12.622,9.411,22.41,9.322c9.785,0.088,21.63-8.736,22.408-9.322
	c14.79-8.621,26.923-34.045,24.183-61.594c-2.241-22.569-26.652,10.521-43.656-36.04c-24.066,50.411-46.926,20.589-49.53,39.696
	C268.017,188.891,279.835,215.375,295.076,225.78z"/>
<path style="fill:#21D0C3;" d="M275.658,261.078c-14.565,7.783-41.213,13.886-51.346,30.18
	c-1.305,2.101-23.656,70.203-31.15,109.371h43.874l12.133-37.592c-0.002,17.213,0.35,33.366,12.316,37.592h172.457
	c-7.622-39.118-21.44-107.071-22.35-109.371c-6.727-16.975-37.893-23.554-52.471-31.384c-22.668,82.238-56.453,87.848-83.463,1.211
	l-0.002-0.007L275.658,261.078L275.658,261.078z"/>
<g>
	<path style="fill:#FFFFFF;" d="M285.368,252.904c-0.946,25.585,3.404,61.835,32.111,71.098
		c-27.027,1.129-44.567-37.815-64.545-48.017L285.368,252.904z"/>
	<path style="fill:#FFFFFF;" d="M351.204,252.904c0.992,25.585-3.574,61.835-33.725,71.098
		c28.383,1.129,46.802-37.815,67.781-48.017L351.204,252.904z"/>
	<path style="fill:#FFFFFF;" d="M273.442,51.543h90.469c5.591,0,10.598,4.183,10.166,9.252l-3.517,41.103
		c-11.474-11.273-92.332-12.226-103.769,0l-3.517-41.103C262.843,55.723,267.85,51.543,273.442,51.543z"/>
</g>
<path style="fill:#FF5B62;" d="M318.676,55.803c9.491,0,17.184,7.697,17.184,17.186c0,9.494-7.693,17.186-17.184,17.186
	c-9.489,0-17.186-7.693-17.186-17.186C301.489,63.5,309.186,55.803,318.676,55.803z"/>
<path style="fill:#FFFFFF;" d="M315.404,60.942h6.544v8.771h8.775v6.548h-8.775v8.775h-6.544v-8.775h-8.778v-6.548h8.778V60.942z"/>
<rect x="419.58" y="352.011" style="fill:#D9DADA;" width="3.83" height="4.956"/>
<path style="fill:#FFFFFF;" d="M44.759,400.629h422.481c-3.826,5.578-7.869,10.995-12.115,16.243H56.873
	c-4.247-5.248-8.288-10.665-12.115-16.243H44.759z"/>
<path style="fill:#D9DADA;" d="M56.875,416.874h398.253c-7.602,9.4-15.855,18.245-24.692,26.478L56.877,416.874H56.875z"/>
<path style="fill:#FFFFFF;" d="M421.494,355.418c16.984,0,30.753,13.767,30.753,30.753H390.74
	C390.741,369.188,404.508,355.418,421.494,355.418z"/>
<path style="fill:#EBECEC;" d="M421.494,355.418c16.984,0,30.753,13.769,30.753,30.753h-3.826
	C446.235,359.023,421.494,355.418,421.494,355.418z"/>
<rect x="418.392" y="386.174" style="fill:#D9DADA;" width="6.218" height="4.99"/>
<path style="fill:#FF5B62;" d="M390.001,391.163h62.988c2.604,0,4.732,2.13,4.732,4.73v4.736h-72.453v-4.736
	c0-2.602,2.128-4.73,4.732-4.73H390.001z"/>
<circle style="fill:#EBECEC;" cx="421.496" cy="348.757" r="4.914"/>
<path style="fill:#FFFFFF;" d="M420.573,353.582c-2.276-0.432-3.993-2.429-3.993-4.829c0-2.648,2.092-4.807,4.714-4.91
	c2.274,0.432,3.993,2.429,3.993,4.829C425.287,351.319,423.195,353.478,420.573,353.582z"/>
<rect x="148.81" y="394.039" style="fill:#FF5B62;" width="224.341" height="6.59"/>
<g>
	<path style="fill:#FEFEFE;" d="M260.979,394.041H152.724c36.084-7.029,65.978-40.869,108.256-21.092L260.979,394.041
		L260.979,394.041z"/>
	<path style="fill:#FEFEFE;" d="M260.979,394.041h108.256c-36.084-7.029-65.978-40.869-108.256-21.092V394.041z"/>
</g>
<g>
	<path style="fill:#EBECEC;" d="M260.979,394.039h101.782c-31.17-8.866-63.21-15.35-101.782-3.915V394.039z"/>
	<path style="fill:#EBECEC;" d="M260.979,394.039H159.195c31.17-8.866,63.21-15.35,101.785-3.915L260.979,394.039L260.979,394.039z"
		/>
</g>
<path style="fill:#FEFEFE;" d="M388.217,354.417l1.962-0.293c-0.228-1.528-0.344-3.091-0.344-4.681
	c0-8.742,3.545-16.657,9.274-22.388c5.728-5.728,13.645-9.274,22.388-9.274c8.74,0,16.657,3.545,22.386,9.274
	c5.728,5.731,9.274,13.645,9.274,22.388c0,1.59-0.117,3.153-0.344,4.681l1.962,0.293c0.241-1.623,0.366-3.283,0.366-4.974
	c0-9.289-3.768-17.7-9.854-23.79c-6.087-6.087-14.502-9.854-23.79-9.854c-9.291,0-17.702,3.768-23.79,9.854
	c-6.088,6.087-9.856,14.502-9.856,23.79C387.851,351.135,387.977,352.795,388.217,354.417z M397.576,353.018l1.962-0.293
	c-0.159-1.072-0.241-2.168-0.241-3.281c0-6.129,2.483-11.681,6.497-15.698c4.017-4.015,9.567-6.5,15.698-6.5
	c6.129,0,11.681,2.485,15.698,6.5c4.015,4.015,6.5,9.569,6.5,15.698c0,1.116-0.082,2.21-0.243,3.281l1.962,0.293
	c0.175-1.167,0.262-2.361,0.262-3.576c0-6.674-2.708-12.72-7.082-17.097l-0.004-0.004c-4.376-4.374-10.423-7.082-17.095-7.082
	c-6.674,0-12.72,2.708-17.097,7.082l-0.004,0.004c-4.376,4.376-7.084,10.423-7.084,17.097c0,1.215,0.091,2.407,0.262,3.576H397.576z
	 M406.016,351.757l1.962-0.293c-0.097-0.66-0.148-1.334-0.148-2.02c0-3.775,1.528-7.192,3.997-9.662h0.004
	c2.471-2.471,5.889-4.004,9.662-4.004s7.19,1.53,9.662,4.004c2.471,2.471,4.002,5.889,4.002,9.662c0,0.688-0.051,1.36-0.148,2.02
	l1.962,0.293c0.113-0.757,0.172-1.528,0.172-2.312c0-4.322-1.755-8.235-4.584-11.064c-2.831-2.831-6.745-4.584-11.064-4.584
	c-4.322,0-8.235,1.753-11.066,4.584l0.002,0.002c-2.833,2.835-4.586,6.747-4.586,11.064c0,0.787,0.06,1.559,0.172,2.312
	L406.016,351.757z"/>
<rect x="418.392" y="386.174" style="fill:#FFFFFF;" width="4.719" height="4.99"/>
<rect x="418.392" y="386.174" style="fill:#D9DADA;" width="4.719" height="1.316"/>
<path style="fill:#FFFFFF;" d="M26.199,143.094h158.76c9.227,0,16.776,5.804,16.776,12.872v182.912
	c0,7.069-7.56,12.872-16.776,12.872H18.526l-0.007-0.02c-0.52-1.292-1.032-2.589-1.532-3.891l-0.688-1.805
	c-0.481-1.281-0.952-2.566-1.415-3.856l-0.748-2.121c-0.428-1.228-0.844-2.46-1.253-3.698c-0.282-0.853-0.558-1.707-0.831-2.562
	c-0.339-1.065-0.673-2.132-0.997-3.2c-0.317-1.045-0.629-2.09-0.935-3.142c-0.26-0.897-0.516-1.796-0.767-2.697
	c-0.317-1.138-0.624-2.28-0.926-3.424c-0.228-0.864-0.452-1.729-0.671-2.597c-0.315-1.248-0.62-2.498-0.915-3.753l-0.518-2.236
	c-0.317-1.398-0.62-2.798-0.915-4.203l-0.381-1.856c-0.308-1.532-0.602-3.071-0.884-4.615l-0.264-1.475
	c-0.288-1.641-0.56-3.288-0.818-4.939l-0.197-1.279c-0.269-1.791-0.523-3.585-0.755-5.388l-0.099-0.793
	c-0.241-1.911-0.461-3.829-0.66-5.753l-0.062-0.631c-0.197-1.947-0.368-3.898-0.52-5.859l-0.042-0.538
	c-0.155-2.031-0.28-4.066-0.386-6.11l-0.013-0.251c-0.108-2.123-0.19-4.253-0.243-6.392l-0.002-0.102
	c-0.054-2.181-0.081-4.371-0.081-6.564c0-2.159,0.029-4.313,0.082-6.458l0.009-0.286c0.055-2.137,0.135-4.271,0.243-6.394
	l0.002-0.035l0.002-0.042c0.108-2.095,0.241-4.183,0.397-6.266l0.035-0.452c0.155-2.006,0.33-4.008,0.534-6.004l0.044-0.445
	c0.203-1.984,0.43-3.962,0.679-5.933l0.08-0.618c0.243-1.88,0.505-3.757,0.787-5.627l0.124-0.804
	c0.28-1.816,0.582-3.629,0.899-5.432l0.199-1.111c0.302-1.663,0.62-3.322,0.955-4.974l0.286-1.4
	c0.333-1.599,0.677-3.193,1.041-4.778l0.35-1.517c0.346-1.473,0.704-2.939,1.076-4.403l0.518-2.011
	c0.355-1.351,0.719-2.701,1.096-4.044c0.19-0.679,0.381-1.356,0.576-2.033c0.379-1.314,0.769-2.624,1.169-3.929
	c0.252-0.818,0.505-1.634,0.763-2.447c0.346-1.092,0.702-2.181,1.061-3.266c0.322-0.968,0.648-1.933,0.981-2.895
	c0.341-0.99,0.69-1.98,1.045-2.965c0.368-1.023,0.741-2.042,1.12-3.058c0.315-0.844,0.637-1.689,0.963-2.531
	c0.459-1.189,0.926-2.372,1.402-3.55c0.284-0.708,0.573-1.413,0.866-2.119c0.492-1.189,0.992-2.372,1.501-3.552l0.921-2.104
	c0.582-1.314,1.173-2.617,1.775-3.92l0.673-1.442c0.629-1.338,1.27-2.672,1.922-3.997l0.031-0.064L26.199,143.094z"/>
<path style="fill:#EBECEC;" d="M102.176,392.637H39.49c1.707,2.699,3.464,5.365,5.27,7.994h63.026v-3.997
	C107.785,394.436,105.26,392.637,102.176,392.637z"/>
<g>
	<path style="fill:#D9DADA;" d="M107.785,397.245H42.48l0.035,0.053l0.035,0.053c0.693,1.047,1.393,2.088,2.101,3.122l0.038,0.053
		l0.035,0.053l0.038,0.053h63.026v-3.386L107.785,397.245L107.785,397.245z"/>
	<path style="fill:#D9DADA;" d="M84.903,333.042H21.357v25.437c6.427,14.642,14.354,28.96,23.402,42.15h40.143V333.042z"/>
</g>
<path style="fill:#EBECEC;" d="M28.009,139.456h153.312c9.227,0,16.776,5.808,16.776,12.872v183.818
	c0,8.134-5.75,11.966-14.96,11.966H17.091C6.062,319.528,0.003,288.472,0.003,256c0-41.974,10.102-81.588,28.008-116.544
	L28.009,139.456L28.009,139.456z"/>
<g>
</g>
<g>
</g>
<g>
</g>
<g>
</g>
<g>
</g>
<g>
</g>
<g>
</g>
<g>
</g>
<g>
</g>
<g>
</g>
<g>
</g>
<g>
</g>
<g>
</g>
<g>
</g>
<g>
</g>
</svg>
