<?xml version="1.0" encoding="utf-8"?>
<!-- Generator: Adobe Illustrator 16.0.0, SVG Export Plug-In . SVG Version: 6.00 Build 0)  -->
<!DOCTYPE svg PUBLIC "-//W3C//DTD SVG 1.1//EN" "http://www.w3.org/Graphics/SVG/1.1/DTD/svg11.dtd">
<svg version="1.1" id="a2889d33-42cc-41f0-88ec-ec050668376c"
	 xmlns="http://www.w3.org/2000/svg" xmlns:xlink="http://www.w3.org/1999/xlink" x="0px" y="0px" width="1006.799px"
	 height="607.79px" viewBox="0 0 1006.799 607.79" enable-background="new 0 0 1006.799 607.79" xml:space="preserve">
<title>multitasking</title>
<path fill="#6DA539" d="M857.177,407.016c11.927,0.566,22.054-8.645,22.618-20.57c0.565-11.928-8.645-22.055-20.571-22.619
	c-4.048-0.191-8.068,0.758-11.603,2.741l3.818,10.466l-7.857-7.545c-4.213,3.852-6.726,9.219-6.983,14.922
	c-0.1,2.001,0.085,4.006,0.548,5.954C839.354,399.766,847.529,406.563,857.177,407.016z"/>
<path fill="none" stroke="#3F3D56" stroke-miterlimit="10" d="M920.354,522.53c-4.583-8.484,0.617-18.887,6.595-26.455
	s13.263-15.443,13.108-25.086c-0.223-13.859-14.933-22.041-26.686-29.389c-8.721-5.453-16.764-11.92-23.962-19.266
	c-2.885-2.945-5.675-6.096-7.362-9.859c-2.431-5.418-2.363-11.582-2.21-17.518c0.511-19.777,1.488-39.533,2.932-59.271"/>
<path fill="none" stroke="#3F3D56" stroke-miterlimit="10" d="M857.177,404.016c11.927,0.566,22.053-8.645,22.618-20.571
	s-8.645-22.054-20.571-22.618c-4.048-0.191-8.068,0.758-11.603,2.741l3.818,10.466l-7.857-7.545
	c-4.213,3.852-6.726,9.219-6.983,14.922c-0.1,2.001,0.085,4.006,0.548,5.954C839.354,396.766,847.529,403.563,857.177,404.016z"/>
<path fill="#6DA539" d="M860.428,338.606c0.341-7.357,4.409-14.032,10.791-17.709l4.839,9.574l-0.146-11.59
	c11.451-3.373,23.47,3.176,26.844,14.627s-3.175,23.471-14.627,26.844c-11.452,3.374-23.471-3.175-26.844-14.627
	C860.604,343.417,860.314,341.01,860.428,338.606L860.428,338.606z"/>
<path fill="none" stroke="#3F3D56" stroke-miterlimit="10" d="M860.428,334.606c0.341-7.357,4.409-14.032,10.791-17.709l4.839,9.574
	l-0.146-11.59c11.451-3.373,23.47,3.176,26.844,14.627s-3.175,23.471-14.627,26.844c-11.452,3.374-23.471-3.175-26.844-14.627
	C860.604,339.417,860.314,337.01,860.428,334.606L860.428,334.606z"/>
<path fill="#6DA539" d="M909.812,442.93c11.926,0.557,22.044-8.658,22.602-20.584c0.469-10.051-6.058-19.096-15.744-21.818
	l0.112,8.906l-4.894-9.688c-0.02-0.004-0.039-0.004-0.059-0.004c-11.927-0.557-22.046,8.66-22.604,20.586
	C888.669,432.254,897.886,442.374,909.812,442.93L909.812,442.93z"/>
<path fill="none" stroke="#3F3D56" stroke-miterlimit="10" d="M909.646,438.93c11.926,0.557,22.044-8.658,22.602-20.584
	c0.469-10.051-6.058-19.096-15.744-21.818l0.112,8.906l-4.894-9.688c-0.02-0.004-0.039-0.004-0.059-0.004
	c-11.926-0.557-22.046,8.66-22.603,20.586C888.503,428.254,897.72,438.374,909.646,438.93L909.646,438.93z"/>
<path fill="#6DA539" d="M898.974,483.895c5.461,10.611,18.489,14.785,29.101,9.326c10.61-5.461,14.785-18.49,9.325-29.102
	c-5.461-10.609-18.489-14.785-29.101-9.324c-4.796,2.467-8.495,6.641-10.371,11.697l13.501,10.986l-14.852-3.443
	C896.574,477.467,897.396,480.848,898.974,483.895z"/>
<path fill="none" stroke="#3F3D56" stroke-miterlimit="10" d="M898.974,480.895c5.461,10.611,18.489,14.785,29.101,9.326
	c10.61-5.461,14.785-18.49,9.325-29.102c-5.461-10.609-18.489-14.785-29.101-9.324c-4.796,2.467-8.495,6.641-10.371,11.697
	l13.501,10.986l-14.852-3.443C896.574,474.467,897.396,477.848,898.974,480.895z"/>
<path fill="#47465A" d="M734.074,152.714c2.605,10.26,0.621,21.294-3.789,30.918s-11.11,18.011-18.2,25.872
	c-3.567,3.955-7.428,8.159-8.185,13.431c-1.009,7.029,3.73,13.391,6.914,19.739c2.783,5.56,4.473,11.603,4.974,17.799
	c0.428,5.322-0.237,11.187-3.965,15.009c-3.594,3.685-9.113,4.577-14.238,5.053c-14.116,1.311-28.336,0.967-42.372-1.024
	c3.934-5.231,2.455-8.477,2.086-15.011c-0.726-12.818-10.055-24.424-11.866-37.135c-1.439-10.105,5.25-19.382,11.572-27.396
	l28.992-36.744c4.805-6.088,9.589-12.36,13.039-19.34c2.465-4.989,2.928-14.354,9.129-16.017
	C719.851,124.734,731.801,143.765,734.074,152.714z"/>
<path fill="#FBBEBE" d="M591.799,183c0,0-20,59-30,63s60,76,60,76l51-25l2-48l-20-1c0,0-3-20,7-30S591.799,183,591.799,183z"/>
<path opacity="0.1" enable-background="new    " d="M591.799,183c0,0-20,59-30,63s60,76,60,76l51-25l2-48l-20-1c0,0-3-20,7-30
	S591.799,183,591.799,183z"/>
<path fill="#2BB1E4" d="M614.799,283c0,0-43-29-45-53c0,0-32,21-42,20s-37,5-37,9s25,117,25,117s-18,48-9,63s14,85,14,85h208
	c0,0-28-49-13-84s21-182,21-182s-11-8-22-6s-24-6-32-7s-26.13,3.094-26.13,3.094L614.799,283z"/>
<path fill="#474759" d="M1006.799,522.928v44c0,16.113-12.957,29.232-29.07,29.432L51.912,607.79
	c-9.335,0.115-16.997-7.359-17.112-16.695c-0.001-0.07-0.001-0.139-0.001-0.209v-48.639c0-9.053,7.191-16.469,16.239-16.748
	l928.846-28.668c14.413-0.445,26.458,10.879,26.902,25.293C1006.795,522.391,1006.799,522.659,1006.799,522.928z"/>
<path opacity="0.1" fill="#040407" enable-background="new    " d="M1006.799,555v11.928c0,16.113-12.957,29.232-29.07,29.432
	L51.912,607.79c-9.335,0.115-16.997-7.359-17.112-16.695c-0.001-0.07-0.001-0.139-0.001-0.209v-1.564L1006.799,555z"/>
<polygon fill="#F2F2F2" points="824.799,524 707.659,508.801 499.362,516.401 574.799,540 "/>
<polygon fill="#9493B6" points="513.799,517 513.799,529 399.799,555 388.659,552.43 386.799,552 304.799,508 "/>
<polygon opacity="0.1" enable-background="new    " points="513.799,517 513.799,529 399.799,555 388.659,552.43 386.799,540 "/>
<path fill="#47465A" d="M382.799,536c2-1,44-9,44-9l-76-7L382.799,536z"/>
<circle fill="#FBBEBE" cx="645.799" cy="169" r="65"/>
<path fill="#FBBEBE" d="M456.799,463c0,0-58,25-72,18s-56-25-69,12c-10.484,29.838,50.716,31.711,74.801,31.318
	c5.894-0.096,11.449-2.771,15.199-7.318l0,0l83.5-28.5C489.299,488.5,470.799,457,456.799,463z"/>
<path fill="#47465A" d="M620.799,417l7,6l-65,92c0,0-10,1-7-4L620.799,417z"/>
<polygon fill="#47465A" points="624.799,423 631.799,414 628.799,412 621.799,420 "/>
<path fill="#2BB1E4" d="M506.299,252.5c0,0-34,6-33,32c1,26-7.5,55.5-15.5,69.5s-2,25,0,44s-10,39-4,49s-65,17-65,27s45,29,37,42
	c-5.756,9.352,34.813-6.398,58.03-15.973c12.271-4.947,21.353-15.574,24.329-28.465c0.703-3.188,0.891-6.063,0.141-8.063
	c-3-8,32.5-18.5,33.5-38.5s-5-40-10-60S506.299,252.5,506.299,252.5z"/>
<path fill="#B8B8D1" d="M10.777,357.161l293.239,2.775c4.139,0.039,7.881,2.47,9.6,6.234l79.027,173.15
	c2.445,5.357,0.084,11.682-5.273,14.127c-1.503,0.686-3.145,1.014-4.795,0.957l-294.269-10.18c-3.995-0.139-7.577-2.5-9.279-6.115
	L1.028,372.363c-2.508-5.328-0.221-11.681,5.107-14.188C7.586,357.493,9.173,357.145,10.777,357.161z"/>
<path fill="#FBBEBE" d="M702.799,463c0,0-58,25-72,18s-56-25-69,12c-10.484,29.838,50.716,31.711,74.801,31.318
	c5.894-0.096,11.449-2.771,15.199-7.318l0,0l85-9C736.799,508,716.799,457,702.799,463z"/>
<path opacity="0.1" enable-background="new    " d="M737.299,273.5c0,0,14.5-19.5,21.5-1.5s6,88,6,88s12,35,8,58s4,26,4,26
	s2,10-4,15s-10,27-8,30s-3,22-7,22s-12.5-1.5-12.5-1.5s-20.5-37.5-63.5-40.5c0,0,7-10,3-30S737.299,273.5,737.299,273.5z"/>
<path fill="#2BB1E4" d="M734.799,259c0,0,16.5-6.5,23.5,11.5s13.5,89.5,13.5,89.5s12,35,8,58s4,26,4,26s2,10-4,15s-10,27-8,30
	s-3,22-7,22s-41,6-41,6s8-45-35-48c0,0,7-10,3-30S734.799,259,734.799,259z"/>
<path fill="#47465A" d="M667.573,77.272c-20.217-12.646-45.199-15.059-67.462-6.519c-11.772,4.631-22.172,12.17-31.897,20.26
	c-7.802,6.49-15.409,13.57-20.203,22.515c-7.268,13.563-7.246,29.707-7.049,45.093c0.171,13.395,0.346,26.831,2.171,40.103
	c2.504,18.203,8.113,36.224,6.825,54.553c-1.288,18.329-12.06,37.884-30.066,41.54c16.751,1.268,33.588,0.783,50.238-1.447
	c10.493-1.406,21.51-3.809,29.182-11.105c5.604-5.329,8.771-12.675,11.526-19.9c2.77-7.262,5.305-14.808,5.208-22.578
	c-0.203-16.17-11.431-29.733-18.759-44.148c-2.057-4.046-3.861-8.396-3.791-12.935c0.072-4.538,2.441-9.303,6.659-10.979
	c5.205-2.068,11.231,1.017,16.643-0.428c8.693-2.322,10.95-14.396,18.932-18.55c5.906-3.074,13.443-0.769,18.409,3.666
	c2.221,1.983,4.123,4.381,6.699,5.875c3.491,2.025,7.733,2.124,11.771,2.168c7.536,0.083,33.259-11.729,38.69-16.955
	c5.298,27.253,44.698,3.535,22.087-36.673c-7.873-14-18.315-27.002-32.206-35.065c-13.892-8.063-31.615-10.564-46.197-3.832"/>
<ellipse fill="#FBBEBE" cx="600.299" cy="184.5" rx="9" ry="16"/>
<path fill="#2BB1E4" d="M688.799,246.519c0,0,55.5,7.981,58.5,11.981s-3,28-3,28l-40,7l-30.779-6.638L688.799,246.519z"/>
<path opacity="0.1" enable-background="new    " d="M518.68,285.677c-8.358-1.441-16.511,6.124-20.839,16.098
	c-4.328,9.974-5.503,21.925-5.929,33.537c-0.423,11.54-0.173,23.325,2.455,34.296c5.396,22.529,19.883,38.458,28.267,59.173
	c6.439,16.436,9.043,34.125,7.614,51.721"/>
<path fill="#2BB1E4" d="M524.68,285.677c-8.358-1.441-16.511,6.124-20.839,16.098c-4.328,9.974-5.503,21.925-5.929,33.537
	c-0.423,11.54-0.173,23.325,2.455,34.296c5.396,22.529,19.883,38.458,28.267,59.173c6.439,16.436,9.043,34.125,7.614,51.721"/>
<polygon fill="#4285F4" points="846.099,509.12 942.837,547.815 1003.299,536.93 998.026,493.653 997.252,487.352 895.678,455.913 
	888.422,463.168 "/>
<polygon opacity="0.1" enable-background="new    " points="901.724,463.616 901.724,505.491 1003.299,536.93 998.026,493.653 "/>
<path fill="#7A799C" d="M808.219,518.163l6.847,2.535l81.646,30.236l6.345,2.35c0.405,0.152,0.859,0.1,1.218-0.143l7.477-5.014
	l77.778-52.182l7.348-4.928c0.619-0.416,0.785-1.254,0.369-1.873c-0.173-0.26-0.43-0.449-0.728-0.541l-11.717-3.588l-82.36-25.23
	l-7.19-2.205c-0.391-0.121-0.815-0.059-1.153,0.172l-5.665,3.816l-73.38,49.416l-7.112,4.793c-0.619,0.414-0.784,1.252-0.369,1.871
	C807.728,517.883,807.954,518.063,808.219,518.163z"/>
<path fill="#F2F2F2" d="M976.677,495.518l-72.878,49.566c-0.714,0.484-1.618,0.598-2.43,0.301l-77.37-28.246
	c-1.402-0.516-2.121-2.072-1.604-3.475c0.2-0.545,0.571-1.012,1.058-1.33l70.54-46.031c0.669-0.438,1.497-0.553,2.261-0.316
	l79.709,24.713c1.426,0.447,2.22,1.965,1.773,3.391C977.554,494.672,977.181,495.176,976.677,495.518z"/>
<path fill="#4285F4" d="M984.801,485.016v10.93h4.727l7.349-4.928c0.619-0.416,0.784-1.254,0.369-1.873
	c-0.173-0.258-0.43-0.449-0.728-0.539L984.801,485.016z"/>
<path fill="#4285F4" d="M896.711,547.51v3.424l6.345,2.35c0.405,0.152,0.859,0.1,1.218-0.143l7.477-5.014v-0.617H896.711z"/>
<path fill="#4285F4" d="M808.219,518.163l6.847,2.535v-9.713h-0.015l-7.111,4.793c-0.619,0.414-0.784,1.252-0.369,1.871
	C807.728,517.883,807.954,518.063,808.219,518.163z"/>
<path fill="#4285F4" d="M888.432,461.569h14.008v-1.783l-7.19-2.205c-0.39-0.121-0.814-0.059-1.152,0.172L888.432,461.569z"/>
<circle fill="#F2F2F2" cx="857.799" cy="485" r="1"/>
<rect x="34.669" y="26" fill="#F2F2F2" width="398" height="202"/>
<polyline fill="#2BB1E4" points="104.527,209.5 194.669,59 288.169,209.5 "/>
<polygon fill="#2BB1E4" points="241.169,132.5 259.169,85.5 361.169,209.5 240.669,209.5 "/>
<path fill="#2BB1E4" d="M222.218,113.826c11.778-7.207,15.484-22.596,8.277-34.374c-7.206-11.778-22.596-15.484-34.374-8.277
	c-0.013,0.008-0.026,0.016-0.039,0.024"/>
<rect x="58.169" y="0.5" display="none" fill="none" stroke="#3F3D56" stroke-miterlimit="10" width="398" height="202"/>
<polyline display="none" fill="none" stroke="#3F3D56" stroke-miterlimit="10" points="109.527,202.5 199.669,52 293.169,202.5 "/>
<polyline display="none" fill="none" stroke="#3F3D56" stroke-miterlimit="10" points="244.169,123.5 262.169,76.5 364.169,202.5 
	"/>
<path display="none" fill="none" stroke="#3F3D56" stroke-miterlimit="10" d="M229.218,99.826
	c11.778-7.206,15.484-22.596,8.277-34.374c-7.206-11.778-22.596-15.484-34.374-8.277c-0.013,0.008-0.026,0.016-0.039,0.024"/>
</svg>
