<?xml version="1.0" encoding="iso-8859-1"?>
<!-- Generator: Adobe Illustrator 19.0.0, SVG Export Plug-In . SVG Version: 6.00 Build 0)  -->
<svg version="1.1" id="Capa_1" xmlns="http://www.w3.org/2000/svg" xmlns:xlink="http://www.w3.org/1999/xlink" x="0px" y="0px"
	 viewBox="0 0 468.293 468.293" style="enable-background:new 0 0 468.293 468.293;" xml:space="preserve">
<path style="fill:#64798A;" d="M457.427,126.311l-120.631,34.466l31.132,35.536l92.545-31.629c2.061-0.704,3.446-2.641,3.446-4.819
	v-28.657C463.919,127.824,460.68,125.382,457.427,126.311z"/>
<g>
	<path style="fill:#E1E6E9;" d="M104.219,451.567H4.374V105.529c0-6.897,5.591-12.488,12.488-12.488h87.357V451.567z"/>
	<path style="fill:#E1E6E9;" d="M371.858,451.567h-99.845V93.041h87.357c6.897,0,12.488,5.591,12.488,12.488V451.567z"/>
</g>
<rect x="104.211" y="93.04" style="fill:#D5D6DB;" width="167.792" height="358.525"/>
<g>
	<path style="fill:#3A556A;" d="M33.029,451.567h41.602v10.482c0,3.448-2.795,6.244-6.244,6.244H39.273
		c-3.448,0-6.244-2.796-6.244-6.244V451.567z"/>
	<path style="fill:#3A556A;" d="M301.601,451.567h41.602v10.482c0,3.448-2.796,6.244-6.244,6.244h-29.114
		c-3.448,0-6.244-2.796-6.244-6.244V451.567z"/>
</g>
<path style="fill:#EBF0F3;" d="M371.858,150.901H4.374v-45.372c0-6.897,5.591-12.488,12.488-12.488H359.37
	c6.897,0,12.488,5.591,12.488,12.488L371.858,150.901L371.858,150.901z"/>
<path style="fill:#D5D6DB;" d="M221.463,137.249h-66.694c-6.897,0-12.488-5.591-12.488-12.488v-5.581
	c0-6.897,5.591-12.488,12.488-12.488h66.694c6.897,0,12.488,5.591,12.488,12.488v5.581
	C233.951,131.658,228.36,137.249,221.463,137.249z"/>
<path style="fill:#64798A;" d="M147.374,132.156v-10.186c0-5.625,4.561-10.186,10.186-10.186h71.299
	c1.493,0,2.899,0.339,4.177,0.916c-1.597-3.537-5.137-6.009-9.27-6.009h-71.299c-5.625,0-10.186,4.56-10.186,10.186v10.186
	c0,4.133,2.472,7.673,6.008,9.27C147.713,135.056,147.374,133.649,147.374,132.156z"/>
<path style="fill:#D5D6DB;" d="M346.553,93.041H29.679V35.649c0-8.438,6.84-15.278,15.278-15.278h48.096L115.687,0h144.859
	l22.633,20.371h48.096c8.438,0,15.278,6.84,15.278,15.278V93.041z"/>
<g>
</g>
<g>
</g>
<g>
</g>
<g>
</g>
<g>
</g>
<g>
</g>
<g>
</g>
<g>
</g>
<g>
</g>
<g>
</g>
<g>
</g>
<g>
</g>
<g>
</g>
<g>
</g>
<g>
</g>
</svg>
