<?xml version="1.0" encoding="iso-8859-1"?>
<!-- Generator: Adobe Illustrator 19.0.0, SVG Export Plug-In . SVG Version: 6.00 Build 0)  -->
<svg version="1.1" id="Capa_1" xmlns="http://www.w3.org/2000/svg" xmlns:xlink="http://www.w3.org/1999/xlink" x="0px" y="0px"
	 viewBox="0 0 468.293 468.293" style="enable-background:new 0 0 468.293 468.293;" xml:space="preserve">
<path style="fill:#27A2DB;" d="M455.776,182.76H12.517V73.643c0-6.943,5.628-12.571,12.571-12.571h74.121
	c4.257,0,8.224,2.154,10.543,5.724l15.596,24.013c2.319,3.57,6.286,5.724,10.543,5.724h307.315c6.943,0,12.571,5.628,12.571,12.571
	V182.76z"/>
<path style="fill:#2D93BA;" d="M428.726,407.221H39.566c-6.374,0-11.74-4.771-12.485-11.101L0.088,166.87
	c-0.88-7.474,4.959-14.041,12.485-14.041H455.72c7.526,0,13.365,6.567,12.485,14.041l-26.993,229.25
	C440.466,402.45,435.101,407.221,428.726,407.221z"/>
<path style="fill:#FCD462;" d="M223.474,208.308l-81.015,130.146c-5.213,8.374,0.809,19.215,10.672,19.215h162.03
	c9.864,0,15.885-10.841,10.672-19.215l-81.015-130.146C239.899,200.404,228.394,200.404,223.474,208.308z"/>
<path style="fill:#DC8744;" d="M234.151,338.407c-2.575,0-4.789-0.932-6.643-2.786c-1.864-1.854-2.791-4.068-2.791-6.643
	c0-2.575,0.927-4.789,2.791-6.648c1.854-1.854,4.068-2.781,6.643-2.781c2.575,0,4.789,0.927,6.643,2.781
	c1.854,1.859,2.781,4.073,2.781,6.648c0,2.575-0.927,4.789-2.781,6.643C238.94,337.475,236.726,338.407,234.151,338.407z
	 M225.223,246.785h17.724v16.323l-3.8,45.685h-10.124l-3.8-45.685V246.785z"/>
<g>
</g>
<g>
</g>
<g>
</g>
<g>
</g>
<g>
</g>
<g>
</g>
<g>
</g>
<g>
</g>
<g>
</g>
<g>
</g>
<g>
</g>
<g>
</g>
<g>
</g>
<g>
</g>
<g>
</g>
</svg>
