<?xml version="1.0" encoding="iso-8859-1"?>
<!-- Generator: Adobe Illustrator 19.0.0, SVG Export Plug-In . SVG Version: 6.00 Build 0)  -->
<svg version="1.1" id="Capa_1" xmlns="http://www.w3.org/2000/svg" xmlns:xlink="http://www.w3.org/1999/xlink" x="0px" y="0px"
	 viewBox="0 0 468.293 468.293" style="enable-background:new 0 0 468.293 468.293;" xml:space="preserve">
<path style="fill:#3EA69B;" d="M395.79,125.894H7.348V57.619c0-5.721,4.638-10.358,10.358-10.358h67.132
	c2.44,0,4.801,0.861,6.668,2.432l18.845,15.853c1.867,1.571,4.229,2.432,6.668,2.432h268.412c5.721,0,10.358,4.638,10.358,10.358
	V125.894z"/>
<path style="fill:#44C4A1;" d="M10.359,120.715h115.128l18.198-23.109h251.248c6.045,0,10.805,5.154,10.326,11.18l-18.31,230.148
	c-0.857,10.77-9.847,19.074-20.652,19.074H38.761c-10.743,0-19.704-8.212-20.638-18.915L0.04,131.974
	C-0.488,125.921,4.283,120.715,10.359,120.715z"/>
<circle style="fill:#D15241;" cx="380.066" cy="332.806" r="88.226"/>
<path style="fill:#FFFFFF;" d="M418.274,307.54l-31.495-31.495c-0.877-0.879-1.93-1.578-3.097-2.058
	c-0.047-0.019-0.095-0.026-0.142-0.044c-1.07-0.421-2.228-0.671-3.448-0.671c-1.22,0-2.377,0.25-3.448,0.671
	c-0.047,0.018-0.095,0.025-0.142,0.044c-1.166,0.48-2.219,1.18-3.097,2.058l-31.495,31.495c-3.691,3.688-3.691,9.675,0,13.363
	c3.691,3.691,9.672,3.691,13.363,0l15.369-15.369v77.36c0,5.22,4.233,9.45,9.45,9.45c5.217,0,9.45-4.23,9.45-9.45v-77.36
	l15.369,15.369c1.846,1.846,4.264,2.769,6.681,2.769s4.836-0.923,6.681-2.769C421.965,317.214,421.965,311.228,418.274,307.54z"/>
<g>
</g>
<g>
</g>
<g>
</g>
<g>
</g>
<g>
</g>
<g>
</g>
<g>
</g>
<g>
</g>
<g>
</g>
<g>
</g>
<g>
</g>
<g>
</g>
<g>
</g>
<g>
</g>
<g>
</g>
</svg>
