<?xml version="1.0" encoding="iso-8859-1"?>
<!-- Generator: Adobe Illustrator 19.0.0, SVG Export Plug-In . SVG Version: 6.00 Build 0)  -->
<svg version="1.1" id="Capa_1" xmlns="http://www.w3.org/2000/svg" xmlns:xlink="http://www.w3.org/1999/xlink" x="0px" y="0px"
	 viewBox="0 0 468.293 468.293" style="enable-background:new 0 0 468.293 468.293;" xml:space="preserve">
<path style="fill:#D5D6DB;" d="M468.293,169.428v132.246c0,56.632-101.152,102.65-227.279,104.273
	c-2.247,0.063-4.558,0.063-6.867,0.063c-3.622,0-7.244-0.063-10.803-0.125C99.027,403.387,0,357.682,0,301.674V169.428H468.293z"/>
<path style="fill:#64798A;" d="M231.835,368.296c-1.436,1.436-1.436,3.747,0,5.183l9.366,9.366c6.306,6.306,6.306,16.609,0,22.915
	l-0.188,0.188c-2.247,0.063-4.558,0.063-6.867,0.063c-3.622,0-7.244-0.063-10.803-0.125l9.054-8.991
	c1.436-1.436,1.436-3.746-0.063-5.245l-9.303-9.303c-6.306-6.306-6.369-16.609-0.063-22.915l9.428-9.366
	c1.436-1.436,1.436-3.746-0.063-5.245l-9.303-9.303c-6.306-6.306-6.369-16.609-0.063-22.915l9.428-9.366
	c1.436-1.436,1.436-3.746-0.063-5.245l-9.303-9.303c-4.87-4.87-5.995-12.051-3.309-17.982c4.745,0.125,9.553,0.188,14.424,0.188
	h1.373l-3.684,3.684c-1.436,1.499-1.436,3.809,0,5.245l9.366,9.366c6.306,6.306,6.306,16.609,0,22.915l-9.366,9.366
	c-1.436,1.436-1.436,3.747,0,5.183l9.366,9.366c6.306,6.306,6.306,16.609,0,22.915L231.835,368.296z"/>
<path style="fill:#E1E6E9;" d="M468.293,166.619c0,57.381-104.087,103.961-232.773,104.273h-1.373c-4.87,0-9.678-0.063-14.424-0.188
	C97.155,267.395,0,222.002,0,166.619C0,108.987,104.835,62.283,234.146,62.283C363.457,62.283,468.293,108.987,468.293,166.619z"/>
<ellipse style="fill:#D5D6DB;" cx="234.146" cy="166.587" rx="150.166" ry="43.895"/>
<path style="fill:#64798A;" d="M234.154,193.153c-63.409,0-104.478-11.669-122.589-20.982c-4.567-2.348-4.567-8.804,0-11.153
	c18.111-9.313,59.18-20.982,122.589-20.982c63.409,0,104.482,11.669,122.594,20.982c4.567,2.348,4.567,8.805,0,11.153
	C338.636,181.483,297.563,193.153,234.154,193.153z"/>
<g>
</g>
<g>
</g>
<g>
</g>
<g>
</g>
<g>
</g>
<g>
</g>
<g>
</g>
<g>
</g>
<g>
</g>
<g>
</g>
<g>
</g>
<g>
</g>
<g>
</g>
<g>
</g>
<g>
</g>
</svg>
