<?xml version="1.0" encoding="iso-8859-1"?>
<!-- Generator: Adobe Illustrator 19.0.0, SVG Export Plug-In . SVG Version: 6.00 Build 0)  -->
<svg version="1.1" id="Capa_1" xmlns="http://www.w3.org/2000/svg" xmlns:xlink="http://www.w3.org/1999/xlink" x="0px" y="0px"
	 viewBox="0 0 468.293 468.293" style="enable-background:new 0 0 468.293 468.293;" xml:space="preserve">
<g>
	<path style="fill:#64798A;" d="M180.75,441.139h-44.316c-6.941,0-12.569-5.627-12.569-12.569V266.716h56.558v148.538l7.945,10.909
		C192.907,432.392,188.457,441.139,180.75,441.139z"/>
	<path style="fill:#64798A;" d="M397.424,385.358h-0.162c-6.897,0-12.488-5.591-12.488-12.488V39.642
		c0-6.897,5.591-12.488,12.488-12.488h0.162c6.897,0,12.488,5.591,12.488,12.488V372.87
		C409.911,379.767,404.321,385.358,397.424,385.358z"/>
</g>
<path style="fill:#27A2DB;" d="M155.524,121.921v168.733c-11.872-2.576-23.888-4.776-35.977-6.661
	c-29.32-4.638-59.087-7.238-89.006-7.802c-6.877-0.129-12.409-5.646-12.409-12.524V148.904c0-6.877,5.531-12.391,12.406-12.521
	C72.747,135.588,114.646,130.736,155.524,121.921z"/>
<g>
	<path style="fill:#E1E6E9;" d="M209.569,105.142c-17.721,6.598-35.758,12.254-54.045,16.779v168.733
		c18.287,4.525,36.323,10.118,54.045,16.716l175.206,65.419V39.723L209.569,105.142z"/>
	<path style="fill:#E1E6E9;" d="M468.293,182.351v47.81c0,2.87-1.944,5.375-4.725,6.088l-10.484,2.686l-43.173,17.345V156.233
		l43.173,17.344l10.484,2.686C466.348,176.976,468.293,179.481,468.293,182.351z"/>
</g>
<path style="fill:#D5D6DB;" d="M468.293,182.351v47.81c0,2.87-1.944,5.375-4.725,6.088l-10.484,2.686v-65.357l10.484,2.686
	C466.348,176.976,468.293,179.481,468.293,182.351z"/>
<path style="fill:#1C75A1;" d="M18.132,256.239h-5.644C5.591,256.239,0,250.648,0,243.751v-74.927
	c0-6.897,5.591-12.488,12.488-12.488h5.644V256.239z"/>
<g>
	<path style="fill:#2F4859;" d="M180.424,366.645h3.525c3.448,0,6.244-2.796,6.244-6.244v-14.305c0-3.448-2.795-6.244-6.244-6.244
		h-3.525V366.645z"/>
	<path style="fill:#2F4859;" d="M180.424,403.24h3.525c3.448,0,6.244-2.796,6.244-6.244v-14.305c0-3.448-2.795-6.244-6.244-6.244
		h-3.525V403.24z"/>
</g>
<g>
</g>
<g>
</g>
<g>
</g>
<g>
</g>
<g>
</g>
<g>
</g>
<g>
</g>
<g>
</g>
<g>
</g>
<g>
</g>
<g>
</g>
<g>
</g>
<g>
</g>
<g>
</g>
<g>
</g>
</svg>
