<?xml version="1.0" encoding="iso-8859-1"?>
<!-- Generator: Adobe Illustrator 19.0.0, SVG Export Plug-In . SVG Version: 6.00 Build 0)  -->
<svg version="1.1" id="Capa_1" xmlns="http://www.w3.org/2000/svg" xmlns:xlink="http://www.w3.org/1999/xlink" x="0px" y="0px"
	 viewBox="0 0 468.293 468.293" style="enable-background:new 0 0 468.293 468.293;" xml:space="preserve">
<path style="fill:#FCD462;" d="M226.393,163.259H16.56V47.245c0-5.6,4.54-10.139,10.139-10.139h22.613
	c2.018,0,3.989,0.602,5.663,1.729l24.984,16.821c1.674,1.127,3.645,1.729,5.663,1.729h130.632c5.6,0,10.139,4.54,10.139,10.139
	V163.259z"/>
<path style="fill:#F6C358;" d="M216.387,205.847H26.566c-4.931,0-9.148-3.548-9.99-8.407L0.152,97.671
	c-1.075-6.2,3.698-11.872,9.99-11.872h222.668c6.293,0,11.066,5.672,9.99,11.872l-16.424,99.768
	C225.535,202.299,221.318,205.847,216.387,205.847z"/>
<path style="fill:#FCD462;" d="M451.733,388.599H241.899V272.585c0-5.6,4.54-10.139,10.139-10.139h22.613
	c2.018,0,3.989,0.602,5.663,1.729l24.984,16.821c1.674,1.127,3.645,1.729,5.663,1.729h130.632c5.6,0,10.139,4.54,10.139,10.139
	V388.599z"/>
<path style="fill:#F6C358;" d="M441.727,431.187H251.906c-4.931,0-9.148-3.548-9.99-8.407l-16.424-99.768
	c-1.075-6.2,3.698-11.872,9.99-11.872H458.15c6.293,0,11.066,5.672,9.99,11.872l-16.424,99.768
	C450.875,427.639,446.658,431.187,441.727,431.187z"/>
<g>
	<path style="fill:#FFFFFF;" d="M381.458,148.242c-3.774-3.024-9.274-2.421-12.29,1.348l-6.296,7.843V79.394
		c0-4.829-3.912-8.744-8.741-8.744c-4.829,0-8.741,3.915-8.741,8.744v78.038l-6.296-7.843c-3.018-3.768-8.518-4.372-12.29-1.348
		c-3.765,3.018-4.366,8.524-1.345,12.287l21.854,27.232c0.079,0.098,0.181,0.168,0.263,0.261c0.266,0.305,0.551,0.586,0.857,0.851
		c0.165,0.143,0.326,0.285,0.501,0.415c0.333,0.248,0.689,0.46,1.056,0.66c0.173,0.093,0.336,0.197,0.514,0.279
		c0.417,0.191,0.856,0.332,1.305,0.457c0.151,0.042,0.293,0.104,0.447,0.139c0.605,0.133,1.229,0.213,1.875,0.213
		s1.269-0.08,1.875-0.213c0.154-0.034,0.296-0.097,0.447-0.139c0.449-0.124,0.888-0.266,1.305-0.457
		c0.178-0.082,0.341-0.186,0.514-0.279c0.368-0.2,0.723-0.412,1.056-0.66c0.175-0.13,0.336-0.271,0.501-0.415
		c0.306-0.265,0.591-0.546,0.857-0.851c0.082-0.094,0.184-0.164,0.263-0.261l21.854-27.232
		C385.823,156.766,385.223,151.26,381.458,148.242z"/>
	<path style="fill:#FFFFFF;" d="M148.803,320.051c-3.774,3.024-9.274,2.421-12.29-1.348l-6.296-7.843v78.038
		c0,4.829-3.912,8.744-8.741,8.744s-8.741-3.915-8.741-8.744V310.86l-6.296,7.843c-3.018,3.768-8.518,4.372-12.29,1.348
		c-3.765-3.018-4.366-8.524-1.345-12.287l21.854-27.232c0.079-0.098,0.181-0.168,0.263-0.261c0.266-0.305,0.551-0.586,0.857-0.851
		c0.165-0.143,0.326-0.285,0.501-0.415c0.333-0.248,0.689-0.46,1.056-0.66c0.173-0.093,0.336-0.197,0.514-0.279
		c0.417-0.191,0.856-0.332,1.304-0.457c0.151-0.042,0.293-0.104,0.447-0.139c0.605-0.133,1.229-0.213,1.875-0.213
		s1.269,0.08,1.875,0.213c0.154,0.034,0.296,0.097,0.447,0.139c0.449,0.124,0.888,0.266,1.304,0.457
		c0.178,0.082,0.341,0.186,0.514,0.279c0.368,0.2,0.723,0.412,1.056,0.66c0.175,0.13,0.336,0.271,0.501,0.415
		c0.306,0.265,0.591,0.547,0.857,0.851c0.082,0.094,0.184,0.164,0.263,0.261l21.854,27.232
		C153.168,311.527,152.568,317.033,148.803,320.051z"/>
</g>
<g>
</g>
<g>
</g>
<g>
</g>
<g>
</g>
<g>
</g>
<g>
</g>
<g>
</g>
<g>
</g>
<g>
</g>
<g>
</g>
<g>
</g>
<g>
</g>
<g>
</g>
<g>
</g>
<g>
</g>
</svg>
