<?xml version="1.0" encoding="iso-8859-1"?>
<!-- Generator: Adobe Illustrator 19.0.0, SVG Export Plug-In . SVG Version: 6.00 Build 0)  -->
<svg version="1.1" id="Capa_1" xmlns="http://www.w3.org/2000/svg" xmlns:xlink="http://www.w3.org/1999/xlink" x="0px" y="0px"
	 viewBox="0 0 468.299 468.299" style="enable-background:new 0 0 468.299 468.299;" xml:space="preserve">
<g>
	<path style="fill:#D15241;" d="M166.046,468.299h-54.332c-6.56,0-11.517-5.945-10.337-12.398l13.495-63.298h75.697l-14.187,67.078
		C175.47,464.673,171.121,468.299,166.046,468.299z"/>
	<path style="fill:#D15241;" d="M302.253,468.299h54.332c6.56,0,11.517-5.945,10.337-12.398l-13.495-63.298h-75.697l14.187,67.078
		C292.828,464.673,297.178,468.299,302.253,468.299z"/>
	<path style="fill:#D15241;" d="M123.873,131.688c-8.113-29.476-49.262-28.922-70.399-26.58c-5.13,0.568-7.346,6.704-3.826,10.48
		c12.669,13.591,29.144,42.073,29.144,76.226L123.873,131.688z"/>
	<path style="fill:#D15241;" d="M344.426,131.688c8.113-29.476,49.262-28.922,70.399-26.58c5.131,0.568,7.346,6.704,3.826,10.48
		c-12.669,13.591-29.144,42.073-29.144,76.226L344.426,131.688z"/>
</g>
<ellipse style="fill:#E56353;" cx="234.149" cy="265.809" rx="183.895" ry="172.969"/>
<circle style="fill:#E1E6E9;" cx="181.607" cy="201.822" r="28.828"/>
<circle style="fill:#64798A;" cx="181.607" cy="201.822" r="18.388"/>
<circle style="fill:#E1E6E9;" cx="286.661" cy="201.822" r="28.828"/>
<circle style="fill:#64798A;" cx="286.661" cy="201.822" r="18.388"/>
<g>
	<circle style="fill:#EBF0F3;" cx="280.729" cy="196.077" r="8.423"/>
	<circle style="fill:#EBF0F3;" cx="295.596" cy="210.551" r="5.451"/>
	<circle style="fill:#EBF0F3;" cx="175.675" cy="196.077" r="8.423"/>
	<circle style="fill:#EBF0F3;" cx="190.505" cy="210.551" r="5.451"/>
</g>
<path style="fill:#E1E6E9;" d="M277.138,287.47h-85.977c-19.785,0-35.824,16.039-35.824,35.824
	c0,27.699,22.455,50.153,50.153,50.153h57.318c27.699,0,50.153-22.455,50.153-50.153C312.962,303.509,296.923,287.47,277.138,287.47
	z"/>
<path style="fill:#D5D6DB;" d="M262.808,363.435H205.49c-25.84,0-47.098-19.547-49.838-44.657c-0.187,1.482-0.315,2.983-0.315,4.515
	c0,27.699,22.455,50.154,50.153,50.154h57.318c27.699,0,50.154-22.455,50.154-50.154c0-1.533-0.128-3.033-0.315-4.515
	C309.906,343.888,288.648,363.435,262.808,363.435z"/>
<g>
	<circle style="fill:#3A556A;" cx="201.719" cy="330.434" r="18.994"/>
	<circle style="fill:#3A556A;" cx="266.555" cy="330.434" r="18.994"/>
</g>
<circle style="fill:#FCD462;" cx="234.149" cy="60.073" r="60.073"/>
<circle style="fill:#F6C358;" cx="234.149" cy="60.073" r="50.582"/>
<path style="fill:#3A556A;" d="M274.366,127.659h-80.434c-4.147,0-7.509-3.362-7.509-7.509v0c0-4.147,3.362-7.509,7.509-7.509
	h80.434c4.147,0,7.509,3.362,7.509,7.509v0C281.875,124.297,278.514,127.659,274.366,127.659z"/>
<path style="fill:#FCD462;" d="M232.175,92.851v-6.56c-8.213-0.837-15.585-4.103-22.109-9.793l6.56-7.818
	c5.032,4.374,10.21,6.977,15.549,7.818V59.062c-6.772-1.616-11.731-3.745-14.876-6.381c-3.145-2.637-4.717-6.546-4.717-11.727
	s1.806-9.42,5.434-12.718c3.628-3.295,8.345-5.09,14.159-5.39v-4.494h5.748v4.582c6.59,0.483,12.821,2.728,18.693,6.743
	l-5.844,8.268c-3.957-2.816-8.235-4.553-12.85-5.215v16.894h0.271c6.889,1.62,11.95,3.807,15.183,6.56
	c3.24,2.757,4.856,6.758,4.856,11.998c0,5.244-1.858,9.515-5.573,12.806c-3.715,3.298-8.623,5.094-14.737,5.394v6.469H232.175z
	 M225.834,34.843c-1.529,1.346-2.289,3.024-2.289,5.032s0.6,3.595,1.799,4.761c1.192,1.17,3.474,2.293,6.831,3.372V32.459
	C229.476,32.7,227.362,33.494,225.834,34.843z M244.754,74.249c1.675-1.375,2.516-3.112,2.516-5.211
	c0-2.095-0.658-3.759-1.975-4.988c-1.324-1.229-3.781-2.381-7.372-3.459v16.174C240.797,76.468,243.072,75.627,244.754,74.249z"/>
<g>
</g>
<g>
</g>
<g>
</g>
<g>
</g>
<g>
</g>
<g>
</g>
<g>
</g>
<g>
</g>
<g>
</g>
<g>
</g>
<g>
</g>
<g>
</g>
<g>
</g>
<g>
</g>
<g>
</g>
</svg>
