<?xml version="1.0" encoding="iso-8859-1"?>
<!-- Generator: Adobe Illustrator 19.0.0, SVG Export Plug-In . SVG Version: 6.00 Build 0)  -->
<svg version="1.1" id="Capa_1" xmlns="http://www.w3.org/2000/svg" xmlns:xlink="http://www.w3.org/1999/xlink" x="0px" y="0px"
	 viewBox="0 0 468.297 468.297" style="enable-background:new 0 0 468.297 468.297;" xml:space="preserve">
<path style="fill:#64798A;" d="M114.881,177.27L27.288,89.677c0,0-28.769,18.413-27.228,64.217
	c0.616,18.298,6.513,35.97,15.668,51.825c15.718,27.219,50.794,81.802,107.921,138.928s111.71,92.202,138.929,107.919
	c15.855,9.155,33.527,15.052,51.825,15.668c45.805,1.541,64.218-27.228,64.218-27.228l-87.594-87.593
	c0,0-51.221,28.085-127.725-48.419S114.881,177.27,114.881,177.27z"/>
<g>
	<path style="fill:#3A556A;" d="M131.281,176.008l24.948-24.948c4.877-4.877,4.877-12.784,0-17.66l-84.76-84.759
		c-4.877-4.877-12.784-4.877-17.66,0L28.86,73.589c-4.877,4.877-4.877,12.784,0,17.66l84.76,84.759
		C118.497,180.885,126.404,180.885,131.281,176.008z"/>
	<path style="fill:#3A556A;" d="M394.709,439.434l24.948-24.948c4.877-4.877,4.877-12.784,0-17.66l-84.76-84.759
		c-4.877-4.877-12.784-4.877-17.66,0l-24.948,24.948c-4.877,4.877-4.877,12.784,0,17.66l84.76,84.759
		C381.926,444.311,389.832,444.311,394.709,439.434z"/>
</g>
<g>
	<path style="fill:#64798A;" d="M274.217,0.002c-8.257,0-14.952,6.695-14.952,14.952s6.695,14.951,14.952,14.951
		c90.527-0.001,164.176,73.648,164.176,164.174c0,8.257,6.695,14.951,14.952,14.951s14.952-6.695,14.952-14.952
		C468.296,87.064,381.229,0,274.217,0.002z"/>
	<path style="fill:#64798A;" d="M274.217,59.807c-8.257,0-14.952,6.695-14.952,14.952s6.695,14.951,14.952,14.951
		c57.551-0.001,104.369,46.82,104.37,104.369c0,8.257,6.695,14.951,14.952,14.951c8.257,0,14.952-6.695,14.952-14.952
		C408.49,120.041,348.253,59.806,274.217,59.807z"/>
	<path style="fill:#64798A;" d="M274.218,119.613c-8.257,0-14.952,6.695-14.952,14.952c0,8.257,6.695,14.951,14.952,14.951
		c24.574,0,44.563,19.992,44.563,44.565c0,8.257,6.695,14.951,14.952,14.951c8.257,0,14.952-6.695,14.952-14.952
		C348.684,153.018,315.276,119.612,274.218,119.613z"/>
</g>
<g>
</g>
<g>
</g>
<g>
</g>
<g>
</g>
<g>
</g>
<g>
</g>
<g>
</g>
<g>
</g>
<g>
</g>
<g>
</g>
<g>
</g>
<g>
</g>
<g>
</g>
<g>
</g>
<g>
</g>
</svg>
