<?xml version="1.0" encoding="iso-8859-1"?>
<!-- Generator: Adobe Illustrator 19.0.0, SVG Export Plug-In . SVG Version: 6.00 Build 0)  -->
<svg version="1.1" id="Capa_1" xmlns="http://www.w3.org/2000/svg" xmlns:xlink="http://www.w3.org/1999/xlink" x="0px" y="0px"
	 viewBox="0 0 468.301 468.301" style="enable-background:new 0 0 468.301 468.301;" xml:space="preserve">
<path style="fill:#44C4A1;" d="M234.153,16.422c-55.72,0-111.44,21.256-153.953,63.769s-63.769,98.233-63.769,153.953l217.722,0
	L234.153,16.422z"/>
<path style="fill:#E56353;" d="M468.297,217.722c0-55.72-21.256-111.44-63.769-153.953S306.295,0,250.575,0l0,217.722
	L468.297,217.722z"/>
<path style="fill:#FCD462;" d="M388.106,388.096c42.513-42.513,63.769-98.233,63.769-153.952l-217.722,0l0,217.721
	C289.873,451.865,345.593,430.609,388.106,388.096z"/>
<path style="fill:#27A2DB;" d="M217.755,468.301c-1.067,0-2.176-0.041-3.202-0.082c-9.278-0.082-18.515-0.78-27.629-2.094
	c-5.912-0.821-11.782-1.929-17.571-3.284c-38.714-8.744-75.457-28.245-105.55-58.338c-30.134-30.133-49.593-66.836-58.338-105.55
	c-1.355-5.788-2.463-11.659-3.285-17.571c-1.314-9.114-2.012-18.351-2.094-27.629c-0.041-1.026-0.082-2.135-0.082-3.202l11.167,0
	l25.536,0h14.287l25.536,0l39.822,0l14.287,0l87.117,0l0,61.581l0,25.536l0,14.287l0,65.358l0,14.287l0,25.536V468.301z"/>
<g>
	<polygon style="fill:#64798A;" points="217.755,312.131 156.174,250.55 170.543,250.55 217.755,297.762 	"/>
	<polygon style="fill:#64798A;" points="217.755,351.954 116.351,250.551 130.638,250.55 217.755,337.667 	"/>
	<polygon style="fill:#64798A;" points="217.755,391.776 76.529,250.551 90.816,250.551 217.755,377.49 	"/>
	<polygon style="fill:#64798A;" points="217.755,431.599 36.707,250.551 50.993,250.551 217.755,417.312 	"/>
	<path style="fill:#64798A;" d="M217.755,468.301c-1.067,0-2.176-0.041-3.202-0.082L0.086,253.753
		c-0.041-1.026-0.082-2.135-0.082-3.202l11.167,0l206.584,206.584V468.301z"/>
	<path style="fill:#64798A;" d="M186.923,466.125c-5.912-0.821-11.782-1.929-17.571-3.284L5.464,298.953
		c-1.355-5.788-2.463-11.659-3.285-17.571L186.923,466.125z"/>
</g>
<g>
</g>
<g>
</g>
<g>
</g>
<g>
</g>
<g>
</g>
<g>
</g>
<g>
</g>
<g>
</g>
<g>
</g>
<g>
</g>
<g>
</g>
<g>
</g>
<g>
</g>
<g>
</g>
<g>
</g>
</svg>
