<?xml version="1.0" encoding="iso-8859-1"?>
<!-- Generator: Adobe Illustrator 19.0.0, SVG Export Plug-In . SVG Version: 6.00 Build 0)  -->
<svg version="1.1" id="Capa_1" xmlns="http://www.w3.org/2000/svg" xmlns:xlink="http://www.w3.org/1999/xlink" x="0px" y="0px"
	 viewBox="0 0 468.293 468.293" style="enable-background:new 0 0 468.293 468.293;" xml:space="preserve">
<path style="fill:#F6C358;" d="M270.453,187.479c0,0,0.082-0.315,0.307-0.885c-1.386,3.499-15.442,34.101-75.583,32.224
	c-24.018-0.764-46.852,6.847-64.146,21.429c-15.946,13.434-41.274,44.551-31.783,101.987c2.729,16.486,16.998,28.183,33.18,28.183
	c1.819,0,3.671-0.148,5.529-0.455c18.346-3.033,30.758-20.363,27.728-38.709c-4.669-28.221,5.42-36.723,8.74-39.518
	c4.504-3.8,11.228-5.817,18.62-5.614c113.421,3.518,140.31-74.372,141.401-77.693L270.453,187.479z"/>
<path style="fill:#FCD462;" d="M452.683,362.016H15.61v-18.707c0-6.897,5.591-12.488,12.488-12.488h412.098
	c6.897,0,12.488,5.591,12.488,12.488V362.016z"/>
<g>
	<path style="fill:#DC8744;" d="M468.293,405.699H0v-31.195c0-6.897,5.591-12.488,12.488-12.488h443.317
		c6.897,0,12.488,5.591,12.488,12.488V405.699z"/>
	<path style="fill:#DC8744;" d="M427.061,134.989c-22.43-17.911-63.626-38.127-138.172-45.419c0,0-36.523,1.304-122.627-21.016
		c-26.922-6.979-55.275-8.147-82.354-1.804c-20.592,4.823-39.765,13.803-42.882,30.488c-3.049,16.319,10.101,29.728,26.698,29.327
		c40.786-0.985,137.749,1.447,162.147,45.008c4.667,8.333,9.803,16.369,16.745,22.928c19.389,18.318,60.757,50.013,124.366,61.926
		c42.431,7.947,81.7-24.603,81.7-67.772C452.683,167.798,443.359,148.003,427.061,134.989z"/>
</g>
<circle style="fill:#FCD462;" cx="358.469" cy="179.387" r="41.21"/>
<circle style="fill:#3A556A;" cx="358.469" cy="179.387" r="19.269"/>
<g>
</g>
<g>
</g>
<g>
</g>
<g>
</g>
<g>
</g>
<g>
</g>
<g>
</g>
<g>
</g>
<g>
</g>
<g>
</g>
<g>
</g>
<g>
</g>
<g>
</g>
<g>
</g>
<g>
</g>
</svg>
