<?xml version="1.0" encoding="iso-8859-1"?>
<!-- Generator: Adobe Illustrator 19.0.0, SVG Export Plug-In . SVG Version: 6.00 Build 0)  -->
<svg version="1.1" id="Capa_1" xmlns="http://www.w3.org/2000/svg" xmlns:xlink="http://www.w3.org/1999/xlink" x="0px" y="0px"
	 viewBox="0 0 468.293 468.293" style="enable-background:new 0 0 468.293 468.293;" xml:space="preserve">
<path style="fill:#E56353;" d="M129.194,468.293H75.126c-6.897,0-12.488-5.591-12.488-12.488V12.488C62.639,5.591,68.23,0,75.126,0
	h54.067V468.293z"/>
<path style="fill:#D5D6DB;" d="M129.194,468.293h263.972c6.897,0,12.488-5.591,12.488-12.488V12.488
	C405.654,5.591,400.063,0,393.166,0H129.194V468.293z"/>
<g>
	<path style="fill:#E1E6E9;" d="M393.166,0h-12.488c6.897,0,12.488,5.591,12.488,12.488v443.317c0,6.896-5.591,12.488-12.488,12.488
		h12.488c6.897,0,12.488-5.591,12.488-12.488V12.488C405.654,5.591,400.063,0,393.166,0z"/>
	<path style="fill:#E1E6E9;" d="M347.141,163.205H184.8c-6.897,0-12.488-5.591-12.488-12.488V75.791
		c0-6.897,5.591-12.488,12.488-12.488h162.341c6.897,0,12.488,5.591,12.488,12.488v74.927
		C359.629,157.614,354.038,163.205,347.141,163.205z"/>
	<path style="fill:#E1E6E9;" d="M353.385,194.425H178.556c-3.448,0-6.244-2.795-6.244-6.244l0,0c0-3.448,2.795-6.244,6.244-6.244
		h174.829c3.448,0,6.244,2.795,6.244,6.244l0,0C359.629,191.629,356.834,194.425,353.385,194.425z"/>
	<path style="fill:#E1E6E9;" d="M353.385,225.644H178.556c-3.448,0-6.244-2.795-6.244-6.244l0,0c0-3.448,2.795-6.244,6.244-6.244
		h174.829c3.448,0,6.244,2.796,6.244,6.244l0,0C359.629,222.849,356.834,225.644,353.385,225.644z"/>
</g>
<g>
	<path style="fill:#D5D6DB;" d="M341.221,119.175h-150.5c-3.27,0-5.921-2.651-5.921-5.921v0c0-3.27,2.651-5.921,5.921-5.921h150.5
		c3.27,0,5.921,2.651,5.921,5.921v0C347.141,116.524,344.491,119.175,341.221,119.175z"/>
	<path style="fill:#D5D6DB;" d="M316.245,94.199H215.696c-3.27,0-5.921-2.651-5.921-5.921v0c0-3.27,2.651-5.921,5.921-5.921h100.549
		c3.27,0,5.921,2.651,5.921,5.921v0C322.166,91.548,319.515,94.199,316.245,94.199z"/>
	<path style="fill:#D5D6DB;" d="M316.245,143.503H215.696c-3.27,0-5.921-2.651-5.921-5.921v0c0-3.27,2.651-5.921,5.921-5.921
		h100.549c3.27,0,5.921,2.651,5.921,5.921v0C322.166,140.853,319.515,143.503,316.245,143.503z"/>
</g>
<g>
</g>
<g>
</g>
<g>
</g>
<g>
</g>
<g>
</g>
<g>
</g>
<g>
</g>
<g>
</g>
<g>
</g>
<g>
</g>
<g>
</g>
<g>
</g>
<g>
</g>
<g>
</g>
<g>
</g>
</svg>
