<?xml version="1.0" encoding="iso-8859-1"?>
<!-- Generator: Adobe Illustrator 19.0.0, SVG Export Plug-In . SVG Version: 6.00 Build 0)  -->
<svg version="1.1" id="Capa_1" xmlns="http://www.w3.org/2000/svg" xmlns:xlink="http://www.w3.org/1999/xlink" x="0px" y="0px"
	 viewBox="0 0 468.293 468.293" style="enable-background:new 0 0 468.293 468.293;" xml:space="preserve">
<path style="fill:#27A2DB;" d="M149.479,468.293H74.552c-6.897,0-12.488-5.591-12.488-12.488V12.488C62.064,5.591,67.655,0,74.552,0
	h74.927V468.293z"/>
<path style="fill:#FCD462;" d="M149.479,468.293h275.45c10.345,0,18.732-8.386,18.732-18.732V18.732
	C443.66,8.386,435.274,0,424.929,0h-275.45V468.293z"/>
<circle style="fill:#3A556A;" cx="105.77" cy="82.057" r="20.386"/>
<path style="fill:#D5D6DB;" d="M62.064,108.482c-14.231-2.902-24.973-15.514-24.973-30.588c0-17.213,14.006-31.22,31.22-31.22
	s31.22,14.006,31.22,31.22c0,3.448,2.793,6.244,6.244,6.244s6.244-2.796,6.244-6.244c0-24.101-19.61-43.707-43.707-43.707
	S24.603,53.793,24.603,77.893c0,21.974,16.319,40.161,37.461,43.208V108.482z"/>
<circle style="fill:#3A556A;" cx="105.77" cy="160.281" r="20.386"/>
<path style="fill:#D5D6DB;" d="M62.064,186.733c-14.231-2.902-24.973-15.514-24.973-30.588c0-17.213,14.006-31.22,31.22-31.22
	s31.22,14.006,31.22,31.22c0,3.448,2.793,6.244,6.244,6.244s6.244-2.796,6.244-6.244c0-24.101-19.61-43.707-43.707-43.707
	s-43.707,19.607-43.707,43.707c0,21.974,16.319,40.161,37.461,43.208V186.733z"/>
<circle style="fill:#3A556A;" cx="105.77" cy="238.561" r="20.386"/>
<path style="fill:#D5D6DB;" d="M62.064,264.984c-14.231-2.902-24.973-15.514-24.973-30.588c0-17.213,14.006-31.22,31.22-31.22
	s31.22,14.006,31.22,31.22c0,3.448,2.793,6.244,6.244,6.244s6.244-2.796,6.244-6.244c0-24.101-19.61-43.707-43.707-43.707
	s-43.707,19.607-43.707,43.707c0,21.974,16.319,40.161,37.461,43.208V264.984z"/>
<circle style="fill:#3A556A;" cx="105.77" cy="316.816" r="20.386"/>
<path style="fill:#D5D6DB;" d="M62.064,343.236c-14.231-2.902-24.973-15.514-24.973-30.588c0-17.213,14.006-31.22,31.22-31.22
	s31.22,14.006,31.22,31.22c0,3.448,2.793,6.244,6.244,6.244s6.244-2.796,6.244-6.244c0-24.101-19.61-43.707-43.707-43.707
	s-43.707,19.607-43.707,43.707c0,21.974,16.319,40.161,37.461,43.208V343.236z"/>
<circle style="fill:#3A556A;" cx="105.77" cy="395.064" r="20.386"/>
<path style="fill:#D5D6DB;" d="M62.064,421.487c-14.231-2.902-24.973-15.514-24.973-30.588c0-17.213,14.006-31.219,31.22-31.219
	s31.22,14.006,31.22,31.219c0,3.448,2.793,6.244,6.244,6.244s6.244-2.796,6.244-6.244c0-24.101-19.61-43.707-43.707-43.707
	s-43.707,19.607-43.707,43.707c0,21.974,16.319,40.161,37.461,43.208V421.487z"/>
<path style="fill:#E56353;" d="M239.836,136.355l-18.559-13.693c-1.102-0.813-2.605-0.813-3.707,0l-18.559,13.693
	c-2.061,1.521-4.975,0.049-4.975-2.512V0h50.776v133.843C244.812,136.404,241.897,137.876,239.836,136.355z"/>
<g>
	<rect x="149.477" y="356.402" style="fill:#44C4A1;" width="294.213" height="24.976"/>
	<rect x="149.477" y="400.109" style="fill:#44C4A1;" width="294.213" height="24.976"/>
</g>
<g>
</g>
<g>
</g>
<g>
</g>
<g>
</g>
<g>
</g>
<g>
</g>
<g>
</g>
<g>
</g>
<g>
</g>
<g>
</g>
<g>
</g>
<g>
</g>
<g>
</g>
<g>
</g>
<g>
</g>
</svg>
