<?xml version="1.0" encoding="iso-8859-1"?>
<!-- Generator: Adobe Illustrator 19.0.0, SVG Export Plug-In . SVG Version: 6.00 Build 0)  -->
<svg version="1.1" id="Capa_1" xmlns="http://www.w3.org/2000/svg" xmlns:xlink="http://www.w3.org/1999/xlink" x="0px" y="0px"
	 viewBox="0 0 468.293 468.293" style="enable-background:new 0 0 468.293 468.293;" xml:space="preserve">
<path style="fill:#64798A;" d="M443.988,358.625H24.302V91.322c0-6.897,5.591-12.488,12.488-12.488H431.5
	c6.897,0,12.488,5.591,12.488,12.488V358.625z"/>
<path style="fill:#EBF0F3;" d="M41.089,341.837V108.109c0-6.897,5.591-12.488,12.488-12.488h361.136
	c6.897,0,12.488,5.591,12.488,12.488v233.728H41.089z"/>
<path style="fill:#D5D6DB;" d="M452.875,358.623H15.418C6.903,358.623,0,365.526,0,374.041v0c0,8.515,6.903,15.418,15.418,15.418
	h437.457c8.515,0,15.418-6.903,15.418-15.418v0C468.293,365.526,461.39,358.623,452.875,358.623z"/>
<rect x="66.897" y="117.011" style="fill:#E56353;" width="156.66" height="90.53"/>
<g>
	<rect x="66.897" y="222.907" style="fill:#27A2DB;" width="41.572" height="41.572"/>
	<rect x="124.453" y="222.907" style="fill:#27A2DB;" width="41.572" height="41.572"/>
	<rect x="182.01" y="222.907" style="fill:#27A2DB;" width="41.572" height="41.572"/>
	<rect x="66.897" y="278.853" style="fill:#27A2DB;" width="41.572" height="41.572"/>
	<rect x="124.453" y="278.853" style="fill:#27A2DB;" width="41.572" height="41.572"/>
	<rect x="182.01" y="278.853" style="fill:#27A2DB;" width="41.572" height="41.572"/>
</g>
<g>
	<path style="fill:#D5D6DB;" d="M395.796,128.202H250.305c-3.09,0-5.596-2.505-5.596-5.596v0c0-3.09,2.505-5.596,5.596-5.596
		h145.491c3.09,0,5.596,2.505,5.596,5.596v0C401.392,125.697,398.887,128.202,395.796,128.202z"/>
	<path style="fill:#D5D6DB;" d="M395.796,160.243H283.88c-3.09,0-5.596-2.505-5.596-5.596v0c0-3.09,2.505-5.596,5.596-5.596h111.916
		c3.09,0,5.596,2.505,5.596,5.596v0C401.392,157.738,398.887,160.243,395.796,160.243z"/>
	<path style="fill:#D5D6DB;" d="M395.796,192.284H250.305c-3.09,0-5.596-2.505-5.596-5.596l0,0c0-3.09,2.505-5.596,5.596-5.596
		h145.491c3.09,0,5.596,2.505,5.596,5.596l0,0C401.392,189.779,398.887,192.284,395.796,192.284z"/>
	<path style="fill:#D5D6DB;" d="M395.796,224.325H283.88c-3.09,0-5.596-2.505-5.596-5.596v0c0-3.09,2.505-5.596,5.596-5.596h111.916
		c3.09,0,5.596,2.505,5.596,5.596v0C401.392,221.82,398.887,224.325,395.796,224.325z"/>
	<path style="fill:#D5D6DB;" d="M395.796,256.366H250.305c-3.09,0-5.596-2.505-5.596-5.596v0c0-3.09,2.505-5.596,5.596-5.596
		h145.491c3.09,0,5.596,2.505,5.596,5.596v0C401.392,253.861,398.887,256.366,395.796,256.366z"/>
	<path style="fill:#D5D6DB;" d="M395.796,288.407H283.88c-3.09,0-5.596-2.505-5.596-5.596l0,0c0-3.091,2.505-5.596,5.596-5.596
		h111.916c3.09,0,5.596,2.505,5.596,5.596v0C401.392,285.902,398.887,288.407,395.796,288.407z"/>
	<path style="fill:#D5D6DB;" d="M395.796,320.448H250.305c-3.09,0-5.596-2.505-5.596-5.596l0,0c0-3.09,2.505-5.596,5.596-5.596
		h145.491c3.09,0,5.596,2.505,5.596,5.596l0,0C401.392,317.943,398.887,320.448,395.796,320.448z"/>
</g>
<g>
</g>
<g>
</g>
<g>
</g>
<g>
</g>
<g>
</g>
<g>
</g>
<g>
</g>
<g>
</g>
<g>
</g>
<g>
</g>
<g>
</g>
<g>
</g>
<g>
</g>
<g>
</g>
<g>
</g>
</svg>
