<?xml version="1.0" encoding="iso-8859-1"?>
<!-- Generator: Adobe Illustrator 19.0.0, SVG Export Plug-In . SVG Version: 6.00 Build 0)  -->
<svg version="1.1" id="Capa_1" xmlns="http://www.w3.org/2000/svg" xmlns:xlink="http://www.w3.org/1999/xlink" x="0px" y="0px"
	 viewBox="0 0 468.32 468.32" style="enable-background:new 0 0 468.32 468.32;" xml:space="preserve">
<g>
	<path style="fill:#31978C;" d="M468.293,109.321v291.029c0,12.8-10.364,23.165-23.165,23.165h-16.672V154.276
		c0-6.93-5.307-12.737-12.363-14.049c-0.999-0.187-2.06-0.312-3.122-0.312H23.04c-12.737,0-23.04-10.303-23.04-23.04v-0.187
		c0.062-6.244,2.623-11.926,6.744-16.046c4.183-4.184,9.928-6.744,16.296-6.744H452.87
		C461.362,93.898,468.293,100.829,468.293,109.321z"/>
	<path style="fill:#31978C;" d="M428.457,154.276v1.063c0-7.431-5.307-13.675-12.363-15.111
		C423.149,141.539,428.457,147.346,428.457,154.276z"/>
</g>
<path style="fill:#D5D6DB;" d="M403.232,193.65L117.225,330.073L38.773,165.601L319.145,31.866c3.112-1.485,6.839-0.165,8.324,2.947
	L403.232,193.65z"/>
<path style="fill:#EBF0F3;" d="M63.741,174.444L310.306,56.839c3.112-1.485,6.839-0.165,8.324,2.948l59.635,125.023l-252.201,120.29
	L63.741,174.444z"/>
<path style="fill:#D5D6DB;" d="M290.103,164.76L76.783,266.512L18.269,143.839l207.685-99.064c3.112-1.485,6.839-0.165,8.324,2.947
	L290.103,164.76z"/>
<path style="fill:#EBF0F3;" d="M36.891,150.435l182.47-87.033c3.112-1.485,6.839-0.165,8.324,2.948l43.796,91.817L83.375,247.885
	L36.891,150.435z"/>
<path style="fill:#44C4A1;" d="M428.457,154.276V422.64c0,7.992-6.931,14.423-15.485,14.423H18.732
	C8.43,437.063,0,428.634,0,418.331V116.875c0,12.738,10.303,23.04,23.04,23.04h389.932c1.062,0,2.123,0.125,3.122,0.312
	C423.149,141.539,428.457,147.346,428.457,154.276z"/>
<path style="fill:#3EA69B;" d="M323.782,234.835H468.32v85.093H323.782c-12.817,0-23.207-10.39-23.207-23.207v-38.678
	C300.575,245.225,310.965,234.835,323.782,234.835z"/>
<circle style="fill:#E1E6E9;" cx="342.242" cy="277.38" r="19.337"/>
<g>
</g>
<g>
</g>
<g>
</g>
<g>
</g>
<g>
</g>
<g>
</g>
<g>
</g>
<g>
</g>
<g>
</g>
<g>
</g>
<g>
</g>
<g>
</g>
<g>
</g>
<g>
</g>
<g>
</g>
</svg>
