<?xml version="1.0" encoding="iso-8859-1"?>
<!-- Generator: Adobe Illustrator 19.0.0, SVG Export Plug-In . SVG Version: 6.00 Build 0)  -->
<svg version="1.1" id="Capa_1" xmlns="http://www.w3.org/2000/svg" xmlns:xlink="http://www.w3.org/1999/xlink" x="0px" y="0px"
	 viewBox="0 0 468.293 468.293" style="enable-background:new 0 0 468.293 468.293;" xml:space="preserve">
<polygon style="fill:#D5D6DB;" points="180.113,158.264 29.628,294.683 53.323,302.667 192.209,170.522 "/>
<circle style="fill:#E1E6E9;" cx="314.48" cy="233.149" r="153.812"/>
<circle style="fill:#EBF0F3;" cx="314.48" cy="233.149" r="124.94"/>
<path style="fill:#E56353;" d="M353.435,170.522H244.981c-19.825,0-35.896,16.071-35.896,35.896v2.591
	c0,12.75,7.422,24.627,19.261,29.358c22.127,8.841,36.749,32.465,31.659,58.666c-3.933,20.249-20.251,36.567-40.501,40.502
	c-5.215,1.013-13.962,0.309-23.654-1.174c-26.307-4.026-51.582-12.992-74.992-25.648c-20.249-10.947-48.852-24.099-69.4-24.099
	C23.039,286.612,0,309.65,0,338.07v37.505c0,7.39,5.991,13.381,13.381,13.381h166.864H375.95c7.39,0,13.381-5.991,13.381-13.381
	V206.418C389.331,186.593,373.259,170.522,353.435,170.522z"/>
<circle style="fill:#E1E6E9;" cx="314.48" cy="233.149" r="38.188"/>
<circle style="fill:#64798A;" cx="314.48" cy="233.149" r="16.727"/>
<g>
</g>
<g>
</g>
<g>
</g>
<g>
</g>
<g>
</g>
<g>
</g>
<g>
</g>
<g>
</g>
<g>
</g>
<g>
</g>
<g>
</g>
<g>
</g>
<g>
</g>
<g>
</g>
<g>
</g>
</svg>
