<?xml version="1.0" encoding="iso-8859-1"?>
<!-- Generator: Adobe Illustrator 19.0.0, SVG Export Plug-In . SVG Version: 6.00 Build 0)  -->
<svg version="1.1" id="Capa_1" xmlns="http://www.w3.org/2000/svg" xmlns:xlink="http://www.w3.org/1999/xlink" x="0px" y="0px"
	 viewBox="0 0 468.293 468.293" style="enable-background:new 0 0 468.293 468.293;" xml:space="preserve">
<rect x="24.539" y="108.786" style="fill:#E1E6E9;" width="419.216" height="348.098"/>
<path style="fill:#3A556A;" d="M459.361,456.882H8.932v-24.99c0-6.897,5.591-12.488,12.488-12.488h425.453
	c6.897,0,12.488,5.591,12.488,12.488V456.882z"/>
<polygon style="fill:#44C4A1;" points="126.697,11.409 55.064,11.409 0,71.353 93.659,71.353 "/>
<path style="fill:#3EA69B;" d="M0,71.353v49.324c0,25.864,20.966,46.829,46.829,46.829s46.829-20.966,46.829-46.829V71.353H0z"/>
<path style="fill:#D15241;" d="M93.659,71.353v49.324c0,25.864,20.966,46.829,46.829,46.829s46.829-20.966,46.829-46.829V71.353
	H93.659z"/>
<polygon style="fill:#E56353;" points="187.317,71.353 198.33,11.409 126.697,11.409 93.659,71.353 "/>
<path style="fill:#2D93BA;" d="M187.317,71.353v49.324c0,25.864,20.966,46.829,46.829,46.829s46.829-20.966,46.829-46.829V71.353
	H187.317z"/>
<polygon style="fill:#27A2DB;" points="280.976,71.353 269.963,11.409 198.33,11.409 187.317,71.353 "/>
<path style="fill:#F6C358;" d="M280.976,71.353v49.324c0,25.864,20.966,46.829,46.829,46.829c25.863,0,46.829-20.966,46.829-46.829
	V71.353H280.976z"/>
<polygon style="fill:#FCD462;" points="374.634,71.353 341.596,11.409 269.963,11.409 280.976,71.353 "/>
<polygon style="fill:#64798A;" points="468.293,71.353 413.228,11.409 341.596,11.409 374.634,71.353 "/>
<path style="fill:#3A556A;" d="M374.634,71.353v49.324c0,25.864,20.966,46.829,46.829,46.829c25.863,0,46.829-20.966,46.829-46.829
	V71.353H374.634z"/>
<g>
	<rect x="46.829" y="208.245" style="fill:#64798A;" width="139.014" height="211.163"/>
	<rect x="204.55" y="208.245" style="fill:#64798A;" width="216.888" height="186.187"/>
</g>
<rect x="223.307" y="226.977" style="fill:#27A2DB;" width="179.425" height="148.717"/>
<polygon style="fill:#2D93BA;" points="223.306,375.695 402.733,226.975 402.733,375.695 "/>
<rect x="65.561" y="226.977" style="fill:#27A2DB;" width="101.551" height="173.693"/>
<g>
	<circle style="fill:#2D93BA;" cx="143.029" cy="295.485" r="9.26"/>
	<circle style="fill:#2D93BA;" cx="143.029" cy="345.436" r="9.26"/>
</g>
<path style="fill:#1C75A1;" d="M143.03,295.483c-3.451,0-6.244,2.796-6.244,6.244v37.463c0,3.448,2.793,6.244,6.244,6.244
	s6.244-2.796,6.244-6.244v-37.463C149.274,298.279,146.481,295.483,143.03,295.483z"/>
<g>
</g>
<g>
</g>
<g>
</g>
<g>
</g>
<g>
</g>
<g>
</g>
<g>
</g>
<g>
</g>
<g>
</g>
<g>
</g>
<g>
</g>
<g>
</g>
<g>
</g>
<g>
</g>
<g>
</g>
</svg>
