<?xml version="1.0" encoding="iso-8859-1"?>
<!-- Generator: Adobe Illustrator 19.0.0, SVG Export Plug-In . SVG Version: 6.00 Build 0)  -->
<svg version="1.1" id="Capa_1" xmlns="http://www.w3.org/2000/svg" xmlns:xlink="http://www.w3.org/1999/xlink" x="0px" y="0px"
	 viewBox="0 0 468.293 468.293" style="enable-background:new 0 0 468.293 468.293;" xml:space="preserve">
<path style="fill:#3A556A;" d="M456.365,236.654v186.056c0,28.566-17.018,45.583-37.986,45.583H49.914
	c-20.968,0-37.986-17.018-37.986-45.583V236.654c0-9.041,7.977-24.615,21.196-34.795c37.834-29.325,64.197-70.654,75.137-116.693
	h251.772c10.94,46.039,37.302,87.368,75.137,116.693C448.388,212.039,456.365,227.613,456.365,236.654z"/>
<path style="fill:#E1E6E9;" d="M387.382,15.194v54.776c0,8.357-6.761,15.194-15.194,15.194H96.105
	c-8.433,0-15.194-6.838-15.194-15.194V15.194C80.911,6.838,87.672,0,96.105,0h276.083C380.621,0,387.382,6.838,387.382,15.194z"/>
<g>
	<rect x="343.165" style="fill:#1C75A1;" width="22.79" height="85.167"/>
	<rect x="294.999" style="fill:#1C75A1;" width="22.79" height="85.167"/>
	<rect x="246.821" style="fill:#1C75A1;" width="22.79" height="85.167"/>
	<rect x="198.681" style="fill:#1C75A1;" width="22.79" height="85.167"/>
	<rect x="150.503" style="fill:#1C75A1;" width="22.79" height="85.167"/>
	<rect x="102.338" style="fill:#1C75A1;" width="22.79" height="85.167"/>
</g>
<rect x="11.926" y="247.259" style="fill:#44C4A1;" width="444.441" height="167.137"/>
<g>
	<path style="fill:#1C75A1;" d="M112.439,281.965h16.508v97.788h-16.508V281.965z"/>
	<path style="fill:#1C75A1;" d="M229.393,281.965h16.508v97.788h-17.908l-55.398-71.347v71.347h-16.508v-97.788h16.508
		l56.798,73.027V281.965z"/>
	<path style="fill:#1C75A1;" d="M273.036,281.965h16.508v47.707l44.764-47.707h20.988l-39.311,42.812l39.869,54.976h-19.587
		l-32.452-42.806l-14.271,15.386v27.42h-16.508V281.965z"/>
</g>
<g>
</g>
<g>
</g>
<g>
</g>
<g>
</g>
<g>
</g>
<g>
</g>
<g>
</g>
<g>
</g>
<g>
</g>
<g>
</g>
<g>
</g>
<g>
</g>
<g>
</g>
<g>
</g>
<g>
</g>
</svg>
