<?xml version="1.0" encoding="iso-8859-1"?>
<!-- Generator: Adobe Illustrator 19.0.0, SVG Export Plug-In . SVG Version: 6.00 Build 0)  -->
<svg version="1.1" id="Capa_1" xmlns="http://www.w3.org/2000/svg" xmlns:xlink="http://www.w3.org/1999/xlink" x="0px" y="0px"
	 viewBox="0 0 468.293 468.293" style="enable-background:new 0 0 468.293 468.293;" xml:space="preserve">
<polygon style="fill:#E1E6E9;" points="258.701,110.711 210.469,110.711 272.908,38.095 321.14,38.095 "/>
<path style="fill:#64798A;" d="M175.253,98.154v60.07H293.04v-60.07c0-3.448-2.795-6.244-6.244-6.244H181.497
	C178.049,91.91,175.253,94.705,175.253,98.154z M274.308,139.492h-80.323v-22.607c0-3.448,2.795-6.244,6.244-6.244h67.835
	c3.448,0,6.244,2.795,6.244,6.244V139.492z"/>
<polygon style="fill:#D5D6DB;" points="195.387,38.095 147.155,38.095 209.594,110.711 257.826,110.711 "/>
<path style="fill:#44C4A1;" d="M24.976,139.442h418.341c13.794,0,24.976,11.182,24.976,24.976v240.805
	c0,13.794-11.182,24.976-24.976,24.976H24.976C11.182,430.198,0,419.016,0,405.223V164.418C0,150.624,11.182,139.442,24.976,139.442
	z"/>
<path style="fill:#EBF0F3;" d="M151.896,327.656H51.993c-6.897,0-12.488-5.591-12.488-12.488v-112.39
	c0-6.897,5.591-12.488,12.488-12.488h99.902c6.897,0,12.488,5.591,12.488,12.488v112.39
	C164.384,322.065,158.793,327.656,151.896,327.656z"/>
<g>
	<circle style="fill:#E56353;" cx="101.944" cy="230.15" r="22.59"/>
	<path style="fill:#E56353;" d="M101.943,258.993c-22.806,0-42.142,14.858-48.857,35.423c-2.58,7.903,3.692,15.962,12.006,15.962
		h73.704c8.314,0,14.586-8.059,12.006-15.962C144.088,273.851,124.751,258.993,101.943,258.993z"/>
</g>
<g>
	<path style="fill:#E1E6E9;" d="M425.134,202.778H212.841c-3.448,0-6.244-2.795-6.244-6.244v0c0-3.448,2.795-6.244,6.244-6.244
		h212.293c3.448,0,6.244,2.795,6.244,6.244v0C431.378,199.982,428.582,202.778,425.134,202.778z"/>
	<path style="fill:#E1E6E9;" d="M425.134,378.787H42.627c-3.448,0-6.244-2.795-6.244-6.244v0c0-3.448,2.795-6.244,6.244-6.244
		h382.507c3.448,0,6.244,2.795,6.244,6.244v0C431.378,375.992,428.582,378.787,425.134,378.787z"/>
	<path style="fill:#E1E6E9;" d="M425.134,244.404H287.768c-3.448,0-6.244-2.796-6.244-6.244l0,0c0-3.448,2.796-6.244,6.244-6.244
		h137.366c3.448,0,6.244,2.795,6.244,6.244l0,0C431.378,241.608,428.582,244.404,425.134,244.404z"/>
	<path style="fill:#E1E6E9;" d="M425.134,286.03H212.841c-3.448,0-6.244-2.795-6.244-6.244l0,0c0-3.448,2.795-6.244,6.244-6.244
		h212.293c3.448,0,6.244,2.796,6.244,6.244l0,0C431.378,283.234,428.582,286.03,425.134,286.03z"/>
	<path style="fill:#E1E6E9;" d="M425.134,327.656H287.768c-3.448,0-6.244-2.795-6.244-6.244v0c0-3.448,2.796-6.244,6.244-6.244
		h137.366c3.448,0,6.244,2.795,6.244,6.244v0C431.378,324.861,428.582,327.656,425.134,327.656z"/>
</g>
<g>
</g>
<g>
</g>
<g>
</g>
<g>
</g>
<g>
</g>
<g>
</g>
<g>
</g>
<g>
</g>
<g>
</g>
<g>
</g>
<g>
</g>
<g>
</g>
<g>
</g>
<g>
</g>
<g>
</g>
</svg>
