<?xml version="1.0" encoding="iso-8859-1"?>
<!-- Generator: Adobe Illustrator 19.0.0, SVG Export Plug-In . SVG Version: 6.00 Build 0)  -->
<svg version="1.1" id="Capa_1" xmlns="http://www.w3.org/2000/svg" xmlns:xlink="http://www.w3.org/1999/xlink" x="0px" y="0px"
	 viewBox="0 0 468.311 468.311" style="enable-background:new 0 0 468.311 468.311;" xml:space="preserve">
<polygon style="fill:#3A556A;" points="265.421,102.74 6.77,214.152 47.332,211.824 261.616,119.608 "/>
<circle style="fill:#E1E6E9;" cx="356.589" cy="167.34" r="111.722"/>
<circle style="fill:#D5D6DB;" cx="356.589" cy="167.34" r="57.513"/>
<g>
	<path style="fill:#64798A;" d="M356.566,109.816c-2.89,0-5.229,2.341-5.229,5.229v23.842c0,2.887,2.339,5.229,5.229,5.229
		c2.89,0,5.229-2.341,5.229-5.229v-23.842C361.795,112.157,359.456,109.816,356.566,109.816z"/>
	<path style="fill:#64798A;" d="M356.566,190.544c-2.89,0-5.229,2.341-5.229,5.229v23.842c0,2.887,2.339,5.229,5.229,5.229
		c2.89,0,5.229-2.341,5.229-5.229v-23.842C361.795,192.885,359.456,190.544,356.566,190.544z"/>
	<path style="fill:#64798A;" d="M356.566,109.816c-2.89,0-5.229,2.341-5.229,5.229v23.842c0,2.887,2.339,5.229,5.229,5.229
		c2.89,0,5.229-2.341,5.229-5.229v-23.842C361.795,112.157,359.456,109.816,356.566,109.816z"/>
	<path style="fill:#64798A;" d="M356.566,190.544c-2.89,0-5.229,2.341-5.229,5.229v23.842c0,2.887,2.339,5.229,5.229,5.229
		c2.89,0,5.229-2.341,5.229-5.229v-23.842C361.795,192.885,359.456,190.544,356.566,190.544z"/>
	<path style="fill:#64798A;" d="M397.234,126.661c-2.043-2.044-5.353-2.042-7.394,0l-16.86,16.859c-2.042,2.042-2.044,5.351,0,7.394
		s5.353,2.042,7.394,0l16.86-16.859C399.276,132.014,399.278,128.705,397.234,126.661z"/>
	<path style="fill:#64798A;" d="M340.15,183.745c-2.043-2.044-5.352-2.042-7.394,0l-16.86,16.859c-2.042,2.042-2.044,5.351,0,7.394
		c2.043,2.044,5.352,2.042,7.394,0l16.86-16.859C342.191,189.098,342.193,185.789,340.15,183.745z"/>
	<path style="fill:#64798A;" d="M414.079,167.33c0-2.89-2.341-5.229-5.228-5.229l-23.843,0c-2.887,0-5.229,2.339-5.229,5.229
		c0,2.89,2.341,5.229,5.228,5.229l23.843,0C411.737,172.558,414.079,170.22,414.079,167.33z"/>
	<path style="fill:#64798A;" d="M333.349,167.329c0-2.89-2.341-5.229-5.228-5.229l-23.843,0c-2.887,0-5.229,2.339-5.229,5.229
		c0,2.89,2.341,5.229,5.228,5.229l23.843,0C331.008,172.558,333.349,170.219,333.349,167.329z"/>
	<path style="fill:#64798A;" d="M397.231,207.998c2.044-2.043,2.042-5.353,0-7.394l-16.859-16.86c-2.042-2.042-5.351-2.044-7.395,0
		c-2.044,2.044-2.042,5.353,0,7.394l16.859,16.86C391.879,210.04,395.188,210.042,397.231,207.998z"/>
	<path style="fill:#64798A;" d="M340.149,150.913c2.044-2.044,2.042-5.353,0-7.394l-16.859-16.86c-2.042-2.042-5.351-2.044-7.395,0
		c-2.044,2.043-2.042,5.353,0,7.394l16.859,16.86C334.796,152.955,338.105,152.956,340.149,150.913z"/>
</g>
<circle style="fill:#3A556A;" cx="356.589" cy="167.34" r="28.535"/>
<path style="fill:#E56353;" d="M465.518,224.245v108.869c0,10.738-2.731,20.855-7.573,29.669c-2.421,4.469-5.462,8.69-8.938,12.414
	c-11.297,12.29-27.497,19.986-45.559,19.986H62.069c-18,0-34.262-7.697-45.559-19.986c-3.476-3.724-6.517-7.945-8.938-12.414
	C2.731,353.97,0,343.852,0,333.114V224.245c0-6.89,5.586-12.414,12.414-12.414h43.324c6.083,0,11.234,4.345,12.228,10.304
	c1.613,9.807,4.221,19.241,7.759,28.179c1.676,4.221,3.538,8.38,5.586,12.414c23.028,44.938,69.828,75.724,123.828,75.724
	s100.738-30.786,123.704-75.724c2.111-4.034,3.973-8.193,5.586-12.414c3.6-8.938,6.207-18.372,7.82-28.179
	c0.993-5.959,6.145-10.304,12.228-10.304h98.628C459.994,211.831,465.518,217.356,465.518,224.245z"/>
<g>
	<path style="fill:#3A556A;" d="M62.264,395.16h47.762v11.29c0,3.448-2.795,6.244-6.244,6.244H68.508
		c-3.448,0-6.244-2.795-6.244-6.244V395.16z"/>
	<path style="fill:#3A556A;" d="M355.541,395.16h47.762v11.29c0,3.448-2.796,6.244-6.244,6.244h-35.274
		c-3.448,0-6.244-2.795-6.244-6.244V395.16z"/>
</g>
<g>
	<path style="fill:#E1E6E9;" d="M75.724,250.314c1.676,4.221,3.538,8.38,5.586,12.414H0v-12.414H75.724z"/>
	<path style="fill:#E1E6E9;" d="M465.518,250.314v12.414H328.842c2.111-4.034,3.973-8.193,5.586-12.414H465.518z"/>
</g>
<g>
</g>
<g>
</g>
<g>
</g>
<g>
</g>
<g>
</g>
<g>
</g>
<g>
</g>
<g>
</g>
<g>
</g>
<g>
</g>
<g>
</g>
<g>
</g>
<g>
</g>
<g>
</g>
<g>
</g>
</svg>
