<?xml version="1.0" encoding="iso-8859-1"?>
<!-- Generator: Adobe Illustrator 19.0.0, SVG Export Plug-In . SVG Version: 6.00 Build 0)  -->
<svg version="1.1" id="Capa_1" xmlns="http://www.w3.org/2000/svg" xmlns:xlink="http://www.w3.org/1999/xlink" x="0px" y="0px"
	 viewBox="0 0 468.311 468.311" style="enable-background:new 0 0 468.311 468.311;" xml:space="preserve">
<path style="fill:#2D93BA;" d="M462.845,170.458v242.607H5.442V170.458c0-13.473,10.922-24.395,24.395-24.395H438.45
	C451.923,146.064,462.845,156.986,462.845,170.458z"/>
<g>
	<path style="fill:#3A556A;" d="M398.442,146.064v69.586c0,13.418-10.917,24.395-24.395,24.395H94.3
		c-13.478,0-24.395-10.976-24.395-24.395v-69.586H398.442z"/>
	<path style="fill:#3A556A;" d="M390.169,413.064H78.118v-47.563c0-13.794,11.182-24.976,24.976-24.976h262.1
		c13.794,0,24.976,11.182,24.976,24.976V413.064z"/>
</g>
<g>
	<rect x="86.968" y="102.15" style="fill:#2F4859;" width="294.4" height="43.895"/>
	<rect x="101.029" y="79.11" style="fill:#2F4859;" width="266.29" height="23.021"/>
</g>
<g>
	<rect x="118.269" style="fill:#E1E6E9;" width="231.774" height="146.064"/>
	<rect x="118.3" y="340.542" style="fill:#E1E6E9;" width="231.774" height="127.769"/>
</g>
<g>
	<path style="fill:#D5D6DB;" d="M313.426,33.704H154.859c-3.368,0-6.099,2.728-6.099,6.099c0,3.371,2.731,6.099,6.099,6.099h158.566
		c3.368,0,6.099-2.728,6.099-6.099C319.524,36.431,316.794,33.704,313.426,33.704z"/>
	<path style="fill:#D5D6DB;" d="M313.426,66.933H154.859c-3.368,0-6.099,2.728-6.099,6.099s2.731,6.099,6.099,6.099h158.566
		c3.368,0,6.099-2.728,6.099-6.099S316.794,66.933,313.426,66.933z"/>
	<path style="fill:#D5D6DB;" d="M313.426,100.163H154.859c-3.368,0-6.099,2.728-6.099,6.099s2.731,6.099,6.099,6.099h158.566
		c3.368,0,6.099-2.728,6.099-6.099S316.794,100.163,313.426,100.163z"/>
</g>
<circle style="fill:#3EA69B;" cx="118.269" cy="193.055" r="21.348"/>
<circle style="fill:#44C4A1;" cx="118.269" cy="193.049" r="11.857"/>
<circle style="fill:#F6C358;" cx="173.14" cy="193.055" r="15.248"/>
<circle style="fill:#E56353;" cx="221.968" cy="193.055" r="15.248"/>
<rect x="5.442" y="280.788" style="fill:#27A2DB;" width="457.428" height="21.966"/>
<g>
</g>
<g>
</g>
<g>
</g>
<g>
</g>
<g>
</g>
<g>
</g>
<g>
</g>
<g>
</g>
<g>
</g>
<g>
</g>
<g>
</g>
<g>
</g>
<g>
</g>
<g>
</g>
<g>
</g>
</svg>
