<?xml version="1.0" encoding="iso-8859-1"?>
<!-- Generator: Adobe Illustrator 19.0.0, SVG Export Plug-In . SVG Version: 6.00 Build 0)  -->
<svg version="1.1" id="Capa_1" xmlns="http://www.w3.org/2000/svg" xmlns:xlink="http://www.w3.org/1999/xlink" x="0px" y="0px"
	 viewBox="0 0 468.293 468.293" style="enable-background:new 0 0 468.293 468.293;" xml:space="preserve">
<path style="fill:#64798A;" d="M435.919,468.293H223.626c-13.794,0-24.976-11.182-24.976-24.976V24.976
	C198.651,11.182,209.833,0,223.626,0h212.293c13.794,0,24.976,11.182,24.976,24.976v418.341
	C460.895,457.111,449.713,468.293,435.919,468.293z"/>
<g>
	<rect x="198.672" y="55.252" style="fill:#EBF0F3;" width="262.244" height="315.317"/>
	<circle style="fill:#EBF0F3;" cx="337.848" cy="419.465" r="28.098"/>
</g>
<circle style="fill:#64798A;" cx="337.848" cy="419.465" r="18.732"/>
<g>
	<path style="fill:#3A556A;" d="M336.316,33.869h-63.373c-3.448,0-6.244-2.795-6.244-6.244v0c0-3.448,2.795-6.244,6.244-6.244
		h63.373c3.448,0,6.244,2.795,6.244,6.244v0C342.56,31.073,339.765,33.869,336.316,33.869z"/>
	<path style="fill:#3A556A;" d="M386.602,33.869h-25.909c-3.448,0-6.244-2.795-6.244-6.244v0c0-3.448,2.795-6.244,6.244-6.244
		h25.909c3.448,0,6.244,2.795,6.244,6.244v0C392.845,31.073,390.05,33.869,386.602,33.869z"/>
</g>
<rect x="7.377" y="125.509" style="fill:#FCD462;" width="297.253" height="174.829"/>
<polygon style="fill:#F6C358;" points="156.005,194.191 7.379,300.338 304.63,300.338 "/>
<path style="fill:#DC8744;" d="M139.682,242.23L7.379,125.509h297.25L172.327,242.23
	C163.001,250.458,149.008,250.458,139.682,242.23z"/>
<g>
</g>
<g>
</g>
<g>
</g>
<g>
</g>
<g>
</g>
<g>
</g>
<g>
</g>
<g>
</g>
<g>
</g>
<g>
</g>
<g>
</g>
<g>
</g>
<g>
</g>
<g>
</g>
<g>
</g>
</svg>
