<?xml version="1.0" encoding="iso-8859-1"?>
<!-- Generator: Adobe Illustrator 19.0.0, SVG Export Plug-In . SVG Version: 6.00 Build 0)  -->
<svg version="1.1" id="Capa_1" xmlns="http://www.w3.org/2000/svg" xmlns:xlink="http://www.w3.org/1999/xlink" x="0px" y="0px"
	 viewBox="0 0 468.293 468.293" style="enable-background:new 0 0 468.293 468.293;" xml:space="preserve">
<path style="fill:#31978C;" d="M375.445,256.923v46.574c0,10.207-7.518,19.803-20.842,28.238c-1.895,1.162-3.912,2.384-6.112,3.484
	c0,0-0.061,0-0.061,0.061c-1.895,1.039-3.912,2.017-6.051,3.056c-7.151,3.362-15.402,6.479-24.448,9.229
	c-2.017,0.612-4.034,1.222-6.112,1.834h-0.061c-1.956,0.55-3.973,1.1-6.051,1.65c-7.701,1.956-15.83,3.728-24.448,5.195
	c-2.017,0.366-4.034,0.733-6.112,1.039h-0.061c-2.017,0.305-3.973,0.671-6.051,0.916c-7.884,1.161-16.014,2.079-24.448,2.811
	c-2.017,0.184-4.034,0.367-6.112,0.489h-0.061c-2.017,0.184-3.973,0.306-6.051,0.428c-7.946,0.488-16.136,0.794-24.448,0.855
	c-2.017,0.061-4.034,0.061-6.112,0.061h-0.061c-2.078,0-4.034,0-6.051-0.061c-8.312-0.061-16.503-0.367-24.448-0.855
	c-2.078-0.122-4.095-0.245-6.112-0.428h-0.061c-2.078-0.122-4.034-0.306-6.051-0.489c-8.435-0.733-16.564-1.65-24.448-2.811
	c-2.078-0.245-4.095-0.611-6.112-0.916h-0.061c-2.078-0.306-4.034-0.673-6.051-1.039c-8.618-1.468-16.747-3.24-24.448-5.195
	c-2.078-0.551-4.156-1.1-6.112-1.65h-0.061c-2.078-0.612-4.034-1.222-6.051-1.834c-9.046-2.75-17.297-5.867-24.448-9.229
	c-2.139-0.977-4.156-2.017-6.112-3.117c0,0-0.061,0-0.061-0.061c-2.139-1.039-4.156-2.199-6.051-3.422
	c-13.324-8.373-20.903-18.031-20.903-28.238v-46.574H375.445z"/>
<path style="fill:#3EA69B;" d="M375.445,256.923c0,10.207-7.518,19.803-20.842,28.115c-1.956,1.283-3.973,2.505-6.173,3.607
	c-1.895,1.1-3.912,2.077-6.051,3.116c-7.151,3.362-15.402,6.418-24.448,9.229c-2.017,0.611-4.034,1.223-6.112,1.833h-0.061
	c-1.956,0.551-3.973,1.101-6.051,1.65c-7.701,1.956-15.83,3.729-24.448,5.196c-2.017,0.367-4.034,0.733-6.112,1.039h-0.061
	c-2.017,0.306-3.973,0.673-6.051,0.917c-7.884,1.162-16.014,2.078-24.448,2.812c-2.017,0.184-4.034,0.366-6.112,0.489h-0.061
	c-2.017,0.183-3.973,0.305-6.051,0.427c-7.946,0.489-16.136,0.795-24.448,0.856c-2.017,0.061-4.034,0.061-6.112,0.061h-0.061
	c-2.078,0-4.034,0-6.051-0.061c-8.312-0.06-16.503-0.366-24.448-0.856c-2.078-0.122-4.095-0.245-6.112-0.427h-0.061
	c-2.078-0.122-4.034-0.305-6.051-0.489c-8.435-0.734-16.564-1.65-24.448-2.812c-2.078-0.244-4.095-0.611-6.112-0.917h-0.061
	c-2.078-0.305-4.034-0.672-6.051-1.039c-8.618-1.467-16.747-3.24-24.448-5.196c-2.078-0.549-4.156-1.1-6.112-1.65h-0.061
	c-2.078-0.61-4.034-1.222-6.051-1.833c-9.046-2.751-17.297-5.867-24.448-9.229c-2.139-0.978-4.156-2.017-6.112-3.116
	c0,0-0.061,0-0.061-0.061c-2.139-1.04-4.156-2.201-6.051-3.423c-13.324-8.373-20.903-18.03-20.903-28.238
	c0-32.76,77.806-59.348,173.704-59.348S375.445,224.163,375.445,256.923z"/>
<path style="fill:#44C4A1;" d="M201.258,299.688c-1.725,0-3.369-0.003-5.058-0.054c-8.044-0.065-15.966-0.343-23.94-0.831
	c-1.946-0.116-3.787-0.227-5.625-0.394l-0.75-0.068h-0.308c-1.571-0.1-3.072-0.24-4.605-0.378
	c-9.013-0.788-16.69-1.671-23.986-2.742c-1.647-0.202-2.799-0.394-3.946-0.578l-3.371-0.518c-1.22-0.197-4.357-0.772-4.357-0.772
	c-7.885-1.342-15.456-2.95-23.33-4.953c-1.844-0.486-3.83-1.012-5.698-1.539l-5.814-1.744c-6.862-2.087-13.183-4.386-18.833-6.845
	v-0.068l-9.248-4.494l-2.931-1.649h-0.119c-0.445-0.265-0.891-0.543-1.333-0.829c-9.879-6.208-13.321-11.569-13.321-14.309
	c0-15.076,59.652-42.765,157.12-42.765c97.428,0,157.058,27.689,157.058,42.765c0,2.726-3.415,8.041-13.035,14.047
	c-2.038,1.328-3.471,2.17-4.818,2.845l-0.896,0.483c-1.539,0.893-3.188,1.676-4.923,2.521c-5.963,2.802-13.472,5.628-22.18,8.335
	l-5.741,1.706c-1.873,0.526-3.801,1.053-5.787,1.576c-7.731,1.965-15.302,3.574-23.001,4.883c-1.692,0.308-3.231,0.588-4.772,0.831
	l-3.331,0.513c-1.082,0.178-2.162,0.359-3.288,0.491c-7.769,1.139-15.448,2.019-23.94,2.759c-1.763,0.162-3.452,0.316-5.18,0.426
	l-1.058,0.068c-1.838,0.167-3.622,0.278-5.515,0.389c-8.022,0.494-15.945,0.772-23.605,0.829c-2.065,0.059-3.801,0.062-5.555,0.062
	C202.092,299.688,201.417,299.688,201.258,299.688z"/>
<g>
	<path style="fill:#3EA69B;" d="M61.225,291.762v46.574c-2.139-0.977-4.156-2.017-6.112-3.117c0,0-0.061,0-0.061-0.061
		c-2.139-1.039-4.156-2.199-6.051-3.422v-46.574c1.895,1.222,3.912,2.383,6.051,3.423c0,0.061,0.061,0.061,0.061,0.061
		C57.069,289.745,59.085,290.784,61.225,291.762z"/>
	<path style="fill:#3EA69B;" d="M97.897,304.474v46.574c-2.078-0.551-4.156-1.1-6.112-1.65h-0.061
		c-2.078-0.612-4.034-1.222-6.051-1.834v-46.574c2.017,0.611,3.973,1.223,6.051,1.833h0.061
		C93.741,303.375,95.819,303.925,97.897,304.474z"/>
	<path style="fill:#3EA69B;" d="M134.569,311.626V358.2c-2.078-0.245-4.095-0.611-6.112-0.916h-0.061
		c-2.078-0.306-4.034-0.673-6.051-1.039V309.67c2.017,0.367,3.973,0.733,6.051,1.039h0.061
		C130.474,311.015,132.491,311.382,134.569,311.626z"/>
	<path style="fill:#3EA69B;" d="M171.242,315.354v46.575c-2.078-0.122-4.095-0.245-6.112-0.428h-0.061
		c-2.078-0.122-4.034-0.306-6.051-0.489v-46.573c2.017,0.184,3.973,0.366,6.051,0.489h0.061
		C167.147,315.109,169.163,315.232,171.242,315.354z"/>
	<path style="fill:#3EA69B;" d="M207.914,316.21v46.574c-2.017,0.061-4.034,0.061-6.112,0.061h-0.061c-2.078,0-4.034,0-6.051-0.061
		V316.21c2.017,0.061,3.973,0.061,6.051,0.061h0.061C203.88,316.271,205.897,316.271,207.914,316.21z"/>
	<path style="fill:#3EA69B;" d="M244.586,314.438v46.573c-2.017,0.184-4.034,0.367-6.112,0.489h-0.061
		c-2.017,0.184-3.973,0.306-6.051,0.428v-46.575c2.078-0.122,4.034-0.245,6.051-0.427h0.061
		C240.552,314.804,242.569,314.621,244.586,314.438z"/>
	<path style="fill:#3EA69B;" d="M281.258,309.67v46.574c-2.017,0.366-4.034,0.733-6.112,1.039h-0.061
		c-2.017,0.305-3.973,0.671-6.051,0.916v-46.574c2.078-0.244,4.034-0.611,6.051-0.917h0.061
		C277.224,310.404,279.241,310.037,281.258,309.67z"/>
	<path style="fill:#3EA69B;" d="M317.931,300.991v46.574c-2.017,0.612-4.034,1.222-6.112,1.834h-0.061
		c-1.956,0.55-3.973,1.1-6.051,1.65v-46.574c2.078-0.549,4.095-1.1,6.051-1.65h0.061
		C313.897,302.214,315.914,301.602,317.931,300.991z"/>
	<path style="fill:#3EA69B;" d="M354.603,285.039v46.696c-1.895,1.162-3.912,2.384-6.112,3.484c0,0-0.061,0-0.061,0.061
		c-1.895,1.039-3.912,2.017-6.051,3.056v-46.574c2.139-1.039,4.156-2.017,6.051-3.116
		C350.63,287.544,352.647,286.322,354.603,285.039z"/>
</g>
<path style="fill:#31978C;" d="M440.195,169.866v46.574c0,10.207-7.518,19.803-20.842,28.238c-1.895,1.162-3.912,2.384-6.112,3.484
	c0,0-0.061,0-0.061,0.061c-1.895,1.039-3.912,2.017-6.051,3.056c-7.151,3.362-15.402,6.479-24.448,9.229
	c-2.017,0.612-4.034,1.222-6.112,1.834h-0.061c-1.956,0.55-3.973,1.1-6.051,1.65c-7.701,1.956-15.83,3.728-24.448,5.195
	c-2.017,0.366-4.034,0.733-6.112,1.039h-0.061c-2.017,0.305-3.973,0.671-6.051,0.916c-7.884,1.161-16.014,2.079-24.448,2.811
	c-2.017,0.184-4.034,0.367-6.112,0.489h-0.061c-2.017,0.184-3.973,0.306-6.051,0.428c-7.946,0.488-16.136,0.794-24.448,0.855
	c-2.017,0.061-4.034,0.061-6.112,0.061h-0.061c-2.078,0-4.034,0-6.051-0.061c-8.312-0.061-16.503-0.367-24.448-0.855
	c-2.078-0.122-4.095-0.245-6.112-0.428h-0.061c-2.078-0.122-4.034-0.306-6.051-0.489c-8.435-0.733-16.564-1.65-24.448-2.811
	c-2.078-0.245-4.095-0.611-6.112-0.916h-0.061c-2.078-0.306-4.034-0.673-6.051-1.039c-8.618-1.468-16.747-3.24-24.448-5.195
	c-2.078-0.551-4.156-1.1-6.112-1.65h-0.061c-2.078-0.612-4.034-1.222-6.051-1.834c-9.046-2.75-17.297-5.867-24.448-9.229
	c-2.139-0.977-4.156-2.017-6.112-3.117c0,0-0.061,0-0.061-0.061c-2.139-1.039-4.156-2.2-6.051-3.422
	c-13.324-8.373-20.903-18.031-20.903-28.238v-46.574H440.195z"/>
<path style="fill:#3EA69B;" d="M440.195,169.866c0,10.207-7.518,19.803-20.842,28.115c-1.956,1.283-3.973,2.505-6.173,3.607
	c-1.895,1.1-3.912,2.077-6.051,3.116c-7.151,3.362-15.402,6.418-24.448,9.229c-2.017,0.611-4.034,1.223-6.112,1.833h-0.061
	c-1.956,0.551-3.973,1.101-6.051,1.65c-7.701,1.956-15.83,3.729-24.448,5.196c-2.017,0.367-4.034,0.733-6.112,1.039h-0.061
	c-2.017,0.306-3.973,0.673-6.051,0.917c-7.884,1.162-16.014,2.078-24.448,2.812c-2.017,0.184-4.034,0.366-6.112,0.489h-0.061
	c-2.017,0.183-3.973,0.305-6.051,0.428c-7.946,0.489-16.136,0.795-24.448,0.856c-2.017,0.061-4.034,0.061-6.112,0.061h-0.061
	c-2.078,0-4.034,0-6.051-0.061c-8.312-0.06-16.503-0.366-24.448-0.856c-2.078-0.122-4.095-0.245-6.112-0.428h-0.061
	c-2.078-0.122-4.034-0.305-6.051-0.489c-8.435-0.734-16.564-1.65-24.448-2.812c-2.078-0.244-4.095-0.611-6.112-0.917h-0.061
	c-2.078-0.305-4.034-0.671-6.051-1.039c-8.618-1.467-16.747-3.24-24.448-5.196c-2.078-0.549-4.156-1.1-6.112-1.65h-0.061
	c-2.078-0.61-4.034-1.222-6.051-1.833c-9.046-2.751-17.297-5.867-24.448-9.229c-2.139-0.978-4.156-2.017-6.112-3.116
	c0,0-0.061,0-0.061-0.061c-2.139-1.04-4.156-2.201-6.051-3.423c-13.324-8.373-20.903-18.03-20.903-28.238
	c0-32.76,77.806-59.348,173.704-59.348S440.195,137.105,440.195,169.866z"/>
<path style="fill:#44C4A1;" d="M266.008,212.63c-1.725,0-3.369-0.003-5.058-0.054c-8.044-0.065-15.966-0.343-23.94-0.831
	c-1.946-0.116-3.787-0.227-5.625-0.394l-0.75-0.067h-0.308c-1.571-0.1-3.072-0.24-4.605-0.378
	c-9.013-0.788-16.69-1.671-23.986-2.742c-1.647-0.202-2.799-0.394-3.946-0.578l-3.371-0.518c-1.22-0.197-4.357-0.772-4.357-0.772
	c-7.885-1.342-15.456-2.95-23.33-4.953c-1.844-0.486-3.83-1.012-5.698-1.539l-5.814-1.744c-6.862-2.087-13.183-4.386-18.833-6.845
	v-0.067l-9.248-4.494l-2.931-1.649h-0.119c-0.445-0.265-0.891-0.543-1.333-0.829c-9.879-6.208-13.321-11.569-13.321-14.309
	c0-15.076,59.652-42.765,157.12-42.765c97.428,0,157.058,27.689,157.058,42.765c0,2.726-3.415,8.041-13.035,14.047
	c-2.038,1.328-3.471,2.17-4.818,2.845l-0.896,0.483c-1.539,0.893-3.188,1.676-4.923,2.521c-5.963,2.802-13.472,5.628-22.18,8.335
	l-5.741,1.706c-1.873,0.526-3.801,1.053-5.787,1.576c-7.731,1.965-15.302,3.574-23.001,4.883c-1.692,0.308-3.231,0.588-4.772,0.831
	l-3.331,0.513c-1.082,0.178-2.162,0.359-3.288,0.491c-7.769,1.139-15.448,2.019-23.94,2.759c-1.763,0.162-3.452,0.316-5.18,0.426
	l-1.058,0.067c-1.838,0.167-3.622,0.278-5.515,0.389c-8.022,0.494-15.945,0.772-23.605,0.829c-2.065,0.059-3.801,0.062-5.555,0.062
	C266.842,212.63,266.167,212.63,266.008,212.63z"/>
<g>
	<path style="fill:#3EA69B;" d="M125.975,204.704v46.574c-2.139-0.977-4.156-2.017-6.112-3.117c0,0-0.061,0-0.061-0.061
		c-2.139-1.039-4.156-2.2-6.051-3.422v-46.574c1.895,1.222,3.912,2.383,6.051,3.423c0,0.061,0.061,0.061,0.061,0.061
		C121.819,202.687,123.836,203.726,125.975,204.704z"/>
	<path style="fill:#3EA69B;" d="M162.647,217.417v46.574c-2.078-0.551-4.156-1.1-6.112-1.65h-0.061
		c-2.078-0.612-4.034-1.222-6.051-1.834v-46.574c2.017,0.611,3.973,1.223,6.051,1.833h0.061
		C158.491,216.317,160.569,216.868,162.647,217.417z"/>
	<path style="fill:#3EA69B;" d="M199.32,224.568v46.574c-2.078-0.245-4.095-0.611-6.112-0.916h-0.061
		c-2.078-0.306-4.034-0.673-6.051-1.039v-46.574c2.017,0.367,3.973,0.733,6.051,1.039h0.061
		C195.225,223.957,197.241,224.324,199.32,224.568z"/>
	<path style="fill:#3EA69B;" d="M235.992,228.297v46.574c-2.078-0.122-4.095-0.245-6.112-0.428h-0.061
		c-2.078-0.122-4.034-0.306-6.051-0.489V227.38c2.017,0.184,3.973,0.366,6.051,0.489h0.061
		C231.897,228.052,233.914,228.174,235.992,228.297z"/>
	<path style="fill:#3EA69B;" d="M272.664,229.152v46.574c-2.017,0.061-4.034,0.061-6.112,0.061h-0.061c-2.078,0-4.034,0-6.051-0.061
		v-46.574c2.017,0.061,3.973,0.061,6.051,0.061h0.061C268.63,229.214,270.647,229.214,272.664,229.152z"/>
	<path style="fill:#3EA69B;" d="M309.336,227.38v46.573c-2.017,0.184-4.034,0.367-6.112,0.489h-0.061
		c-2.017,0.184-3.973,0.306-6.051,0.428v-46.574c2.078-0.122,4.034-0.245,6.051-0.428h0.061
		C305.302,227.747,307.319,227.564,309.336,227.38z"/>
	<path style="fill:#3EA69B;" d="M346.009,222.613v46.574c-2.017,0.366-4.034,0.733-6.112,1.039h-0.061
		c-2.017,0.305-3.973,0.671-6.051,0.916v-46.574c2.078-0.244,4.034-0.611,6.051-0.917h0.061
		C341.974,223.346,343.992,222.98,346.009,222.613z"/>
	<path style="fill:#3EA69B;" d="M382.681,213.933v46.574c-2.017,0.612-4.034,1.222-6.112,1.834h-0.061
		c-1.956,0.55-3.973,1.1-6.051,1.65v-46.574c2.078-0.549,4.095-1.1,6.051-1.65h0.061
		C378.647,215.156,380.664,214.544,382.681,213.933z"/>
	<path style="fill:#3EA69B;" d="M419.353,197.981v46.696c-1.895,1.162-3.912,2.384-6.112,3.484c0,0-0.061,0-0.061,0.061
		c-1.895,1.039-3.912,2.017-6.051,3.056v-46.574c2.139-1.039,4.156-2.017,6.051-3.116
		C415.38,200.486,417.397,199.264,419.353,197.981z"/>
	<path style="fill:#3EA69B;" d="M331.369,185.935c-30.794-3.91-38.389-9.661-38.389-9.661l-1.976-8.679
		c5.104-1.56,8.305-3.579,10.239-5.62c0.395,0.076,0.791,0.152,1.17,0.178c3.344,0.229,4.745-1.795,5.264-4.368
		c0.424-2.439-0.008-4.482-2.981-4.671c-0.345-0.021-0.681-0.021-1.007,0c-0.43-1.381-0.987-2.265-0.987-2.265
		c5.152-2.095-0.807-9.318-0.807-9.318c1.712-4.111-21.848-4.716-21.848-4.716s-39.445-3.27-48.834,7.558
		c0,0-2.024,5.494,1.212,6.776c0,0-0.631,0.747-1.058,1.965h-0.268c-2.971,0.189-3.383,2.232-2.934,4.671
		c0.547,2.573,1.969,4.598,5.311,4.368c0.526-0.025,1.095-0.178,1.588-0.329c2.4,1.824,6.046,3.692,11.604,5.348l-1.833,9.102
		c0,0-18.494,6.452-43.162,9.638c-2.281,0.295-3.267,2.447-1.517,3.432c2.483,1.397,7.259,3.229,13.186,5.233
		c35.86,12.129,76.434,11.836,111.478-1.588c3.611-1.383,6.467-2.636,8.139-3.656C334.621,188.32,333.605,186.219,331.369,185.935z"
		/>
</g>
<g>
	<path style="fill:#64798A;" d="M110.88,86.48c0.023-0.236,0.071-0.464,0.071-0.706c0-0.005-0.002-0.009-0.002-0.009
		c0.005-2.389-1.137-4.733-3.262-6.169L83.663,63.373c-3.394-2.294-7.998-1.397-10.288,1.995c-2.289,3.391-1.397,7.996,1.995,10.288
		l7.587,5.124C42.295,90.157,0,126.581,0,170.05c0,4.093,3.317,7.41,7.41,7.41s7.41-3.317,7.41-7.41
		c0-37.26,38.51-68.39,73.748-75.378l-7.389,10.944c-2.289,3.391-1.397,7.998,1.995,10.288c1.271,0.859,2.714,1.269,4.139,1.269
		c2.381,0,4.716-1.143,6.148-3.264l16.082-23.818c0.616-0.854,1.06-1.836,1.267-2.909C110.856,86.949,110.857,86.714,110.88,86.48z"
		/>
	<path style="fill:#64798A;" d="M357.413,381.813c-0.023,0.236-0.071,0.464-0.071,0.706c0,0.005,0.002,0.009,0.002,0.009
		c-0.005,2.389,1.137,4.733,3.262,6.169l24.024,16.224c3.394,2.294,7.998,1.397,10.288-1.995c2.289-3.391,1.397-7.996-1.995-10.288
		l-7.587-5.124c40.662-9.378,82.957-45.802,82.957-89.271c0-4.093-3.317-7.41-7.41-7.41s-7.41,3.317-7.41,7.41
		c0,37.26-38.51,68.39-73.748,75.378l7.389-10.944c2.289-3.391,1.397-7.998-1.995-10.288c-1.271-0.859-2.714-1.269-4.139-1.269
		c-2.381,0-4.716,1.143-6.148,3.264l-16.082,23.818c-0.616,0.854-1.06,1.836-1.267,2.909
		C357.437,381.343,357.436,381.578,357.413,381.813z"/>
</g>
<g>
</g>
<g>
</g>
<g>
</g>
<g>
</g>
<g>
</g>
<g>
</g>
<g>
</g>
<g>
</g>
<g>
</g>
<g>
</g>
<g>
</g>
<g>
</g>
<g>
</g>
<g>
</g>
<g>
</g>
</svg>
