<?xml version="1.0" encoding="iso-8859-1"?>
<!-- Generator: Adobe Illustrator 19.0.0, SVG Export Plug-In . SVG Version: 6.00 Build 0)  -->
<svg version="1.1" id="Capa_1" xmlns="http://www.w3.org/2000/svg" xmlns:xlink="http://www.w3.org/1999/xlink" x="0px" y="0px"
	 viewBox="0 0 468.293 468.293" style="enable-background:new 0 0 468.293 468.293;" xml:space="preserve">
<g>
	<path style="fill:#DC8744;" d="M117.936,147.882c-9.47-4.201-20.524,0.037-24.738,9.482L3.704,358.108
		c-4.213,9.451,0.037,20.524,9.482,24.738c2.482,1.104,5.067,1.628,7.616,1.628c7.171,0,14.012-4.14,17.122-11.11l89.494-200.744
		C131.631,163.169,127.381,152.096,117.936,147.882z"/>
	<path style="fill:#DC8744;" d="M350.357,147.882c9.47-4.201,20.524,0.037,24.738,9.482l89.494,200.744
		c4.213,9.451-0.037,20.524-9.482,24.738c-2.482,1.104-5.067,1.628-7.616,1.628c-7.171,0-14.012-4.14-17.122-11.11L340.875,172.62
		C336.662,163.169,340.912,152.096,350.357,147.882z"/>
	<path style="fill:#DC8744;" d="M455.805,146.258H12.488C5.591,146.258,0,140.667,0,133.77V96.307
		c0-6.897,5.591-12.488,12.488-12.488h443.317c6.897,0,12.488,5.591,12.488,12.488v37.463
		C468.293,140.667,462.702,146.258,455.805,146.258z"/>
</g>
<path style="fill:#F6C358;" d="M427.707,183.721H40.585c-6.897,0-12.488-5.591-12.488-12.488v-12.488
	c0-6.897,5.591-12.488,12.488-12.488h387.122c6.897,0,12.488,5.591,12.488,12.488v12.488
	C440.195,178.13,434.604,183.721,427.707,183.721z"/>
<g>
</g>
<g>
</g>
<g>
</g>
<g>
</g>
<g>
</g>
<g>
</g>
<g>
</g>
<g>
</g>
<g>
</g>
<g>
</g>
<g>
</g>
<g>
</g>
<g>
</g>
<g>
</g>
<g>
</g>
</svg>
