<?xml version="1.0" encoding="iso-8859-1"?>
<!-- Generator: Adobe Illustrator 19.0.0, SVG Export Plug-In . SVG Version: 6.00 Build 0)  -->
<svg version="1.1" id="Capa_1" xmlns="http://www.w3.org/2000/svg" xmlns:xlink="http://www.w3.org/1999/xlink" x="0px" y="0px"
	 viewBox="0 0 468.293 468.293" style="enable-background:new 0 0 468.293 468.293;" xml:space="preserve">
<path style="fill:#E56353;" d="M468.293,109.268v249.756c0,10.303-8.367,18.732-18.732,18.732H18.732
	C8.366,377.756,0,369.327,0,359.024V109.268c0-10.365,8.366-18.732,18.732-18.732h430.829
	C459.925,90.537,468.293,98.903,468.293,109.268z"/>
<rect y="135.992" style="fill:#3A556A;" width="468.293" height="56.195"/>
<circle style="fill:#FCD462;" cx="382.345" cy="303.516" r="37.463"/>
<path style="fill:#27A2DB;" d="M344.801,266.059c-9.486,0-18.122,3.554-24.723,9.366h24.723v6.244h-30.387
	c-1.405,1.951-2.623,4.038-3.637,6.244h34.024v6.244h-36.235c-0.523,2.024-0.893,4.104-1.07,6.244h37.305v6.244h-37.305
	c0.177,2.141,0.549,4.221,1.07,6.244h36.235v6.244h-34.024c1.015,2.207,2.232,4.293,3.637,6.244h30.387v6.244h-24.723
	c6.601,5.813,15.236,9.366,24.723,9.366c20.691,0,37.463-16.773,37.463-37.463S365.492,266.059,344.801,266.059z"/>
<g>
	<path style="fill:#E1E6E9;" d="M79.705,309.766H54.729c-3.448,0-6.244-2.795-6.244-6.244v0c0-3.448,2.795-6.244,6.244-6.244h24.976
		c3.448,0,6.244,2.796,6.244,6.244v0C85.949,306.971,83.153,309.766,79.705,309.766z"/>
	<path style="fill:#E1E6E9;" d="M134.137,309.766h-24.976c-3.448,0-6.244-2.795-6.244-6.244v0c0-3.448,2.795-6.244,6.244-6.244
		h24.976c3.448,0,6.244,2.796,6.244,6.244v0C140.381,306.971,137.585,309.766,134.137,309.766z"/>
	<path style="fill:#E1E6E9;" d="M188.569,309.766h-24.976c-3.448,0-6.244-2.795-6.244-6.244v0c0-3.448,2.795-6.244,6.244-6.244
		h24.976c3.448,0,6.244,2.796,6.244,6.244v0C194.813,306.971,192.017,309.766,188.569,309.766z"/>
</g>
<g>
</g>
<g>
</g>
<g>
</g>
<g>
</g>
<g>
</g>
<g>
</g>
<g>
</g>
<g>
</g>
<g>
</g>
<g>
</g>
<g>
</g>
<g>
</g>
<g>
</g>
<g>
</g>
<g>
</g>
</svg>
