<?xml version="1.0" encoding="iso-8859-1"?>
<!-- Generator: Adobe Illustrator 19.0.0, SVG Export Plug-In . SVG Version: 6.00 Build 0)  -->
<svg version="1.1" id="Capa_1" xmlns="http://www.w3.org/2000/svg" xmlns:xlink="http://www.w3.org/1999/xlink" x="0px" y="0px"
	 viewBox="0 0 468.311 468.311" style="enable-background:new 0 0 468.311 468.311;" xml:space="preserve">
<path style="fill:#E1E6E9;" d="M444.643,201.796c0,28.627-23.183,51.81-51.81,51.81H75.46c-7.017,0-13.696-1.403-19.759-3.873
	c-18.805-7.802-32.051-26.326-32.051-47.937c0-26.719,20.208-48.667,46.197-51.474c-0.842-4.434-1.291-8.981-1.291-13.64
	c0-35.981,26.438-65.787,61.015-71.063C138.497,28.01,172.232,0,212.591,0c20.937,0,40.079,7.522,54.898,20.095
	c11.17,9.318,19.871,21.498,25.091,35.42c8.476-2.807,17.514-4.378,26.944-4.378c47.207,0,85.433,38.226,85.433,85.434
	c0,4.996-0.505,9.823-1.347,14.538C427.073,156.104,444.643,176.873,444.643,201.796z"/>
<g>
	<path style="fill:#EBF0F3;" d="M206.978,11.226c20.937,0,40.079,7.522,54.898,20.095c11.17,9.318,19.871,21.498,25.091,35.42
		c8.476-2.807,17.514-4.378,26.944-4.378c47.207,0,85.433,38.226,85.433,85.434c0,4.996-0.504,9.823-1.347,14.538
		c23.463,4.996,41.033,25.765,41.033,50.688c0,6.169-1.132,12.058-3.108,17.543c5.504-8.229,8.721-18.12,8.721-28.77
		c0-24.923-17.57-45.692-41.033-50.688c0.843-4.715,1.347-9.543,1.347-14.538c0-47.208-38.227-85.434-85.433-85.434
		c-9.43,0-18.468,1.572-26.944,4.378c-5.22-13.921-13.921-26.102-25.091-35.42C252.67,7.522,233.528,0,212.591,0
		c-35.743,0-66.253,21.988-78.973,53.139C148.477,28.076,175.711,11.226,206.978,11.226z"/>
	<path style="fill:#EBF0F3;" d="M123.958,76.845c0.88-3.706,2.066-7.286,3.41-10.787c-24.624,4.553-44.822,21.557-53.788,44.267
		C84.42,92.709,102.627,80.1,123.958,76.845z"/>
</g>
<rect x="224.793" y="253.627" style="fill:#64798A;" width="18.707" height="166.119"/>
<circle style="fill:#E56353;" cx="234.146" cy="434.014" r="34.298"/>
<path style="fill:#64798A;" d="M443.196,399.357h-18.707v-72.569c0-1.72-1.401-3.118-3.118-3.118H293.789
	c-12.033,0-21.825-9.792-21.825-21.825v-48.238h18.707v48.238c0,1.72,1.401,3.118,3.118,3.118h127.582
	c12.033,0,21.825,9.792,21.825,21.825V399.357z"/>
<circle style="fill:#44C4A1;" cx="361.647" cy="314.318" r="34.298"/>
<circle style="fill:#DC8744;" cx="433.845" cy="399.36" r="34.298"/>
<path style="fill:#64798A;" d="M25.097,399.357h18.707v-72.569c0-1.72,1.401-3.118,3.118-3.118h127.582
	c12.033,0,21.825-9.792,21.825-21.825v-48.238h-18.707v48.238c0,1.72-1.401,3.118-3.118,3.118H46.922
	c-12.033,0-21.825,9.792-21.825,21.825V399.357z"/>
<circle style="fill:#44C4A1;" cx="106.665" cy="314.318" r="34.298"/>
<circle style="fill:#DC8744;" cx="34.466" cy="399.36" r="34.298"/>
<g>
</g>
<g>
</g>
<g>
</g>
<g>
</g>
<g>
</g>
<g>
</g>
<g>
</g>
<g>
</g>
<g>
</g>
<g>
</g>
<g>
</g>
<g>
</g>
<g>
</g>
<g>
</g>
<g>
</g>
</svg>
