<?xml version="1.0" encoding="iso-8859-1"?>
<!-- Generator: Adobe Illustrator 19.0.0, SVG Export Plug-In . SVG Version: 6.00 Build 0)  -->
<svg version="1.1" id="Capa_1" xmlns="http://www.w3.org/2000/svg" xmlns:xlink="http://www.w3.org/1999/xlink" x="0px" y="0px"
	 viewBox="0 0 468.293 468.293" style="enable-background:new 0 0 468.293 468.293;" xml:space="preserve">
<path id="SVGCleanerId_0" style="fill:#DC8744;" d="M389.834,60.625H186.009c-29.348,0-57.624,11.032-79.217,30.908l-75.563,69.552
	c-11.534,10.616-18.096,25.576-18.096,41.252v62.763c0,18.133,14.699,32.832,32.832,32.832h0c18.133,0,32.832-14.699,32.832-32.832
	V221.79l32.832-34.56h59.323c6.285,0,9.504,7.533,5.16,12.075l-35.659,37.286c-15.064,15.752-14.794,40.65,0.608,56.071l0,0
	c15.357,15.375,40.165,15.726,55.95,0.79l56.312-53.283c0,0,74.304-11.466,96.768-39.114h39.744V67.999"/>
<g>
	<path id="SVGCleanerId_0_1_" style="fill:#DC8744;" d="M389.834,60.625H186.009c-29.348,0-57.624,11.032-79.217,30.908
		l-75.563,69.552c-11.534,10.616-18.096,25.576-18.096,41.252v62.763c0,18.133,14.699,32.832,32.832,32.832h0
		c18.133,0,32.832-14.699,32.832-32.832V221.79l32.832-34.56h59.323c6.285,0,9.504,7.533,5.16,12.075l-35.659,37.286
		c-15.064,15.752-14.794,40.65,0.608,56.071l0,0c15.357,15.375,40.165,15.726,55.95,0.79l56.312-53.283
		c0,0,74.304-11.466,96.768-39.114h39.744V67.999"/>
</g>
<path style="fill:#FCD462;" d="M141.061,292.662c-13.819-13.834-15.353-35.246-4.666-50.887
	c-11.785-5.018-24.749-7.805-38.366-7.805C43.889,233.97,0,277.859,0,331.999s43.889,98.029,98.029,98.029
	c54.141,0,98.029-43.888,98.029-98.029c0-11.735-2.168-22.936-5.949-33.366C174.643,307.96,154.333,305.95,141.061,292.662z"/>
<path style="fill:#E56353;" d="M402.322,230.108h53.483c6.897,0,12.488-5.591,12.488-12.488V50.752
	c0-6.897-5.591-12.488-12.488-12.488h-53.483c-6.897,0-12.488,5.591-12.488,12.488v166.868
	C389.834,224.517,395.425,230.108,402.322,230.108z"/>
<circle style="fill:#E1E6E9;" cx="429.081" cy="199.056" r="16.503"/>
<path style="fill:#D5D6DB;" d="M429.064,182.527c9.115,0,16.504,7.389,16.504,16.504s-7.389,16.504-16.504,16.504"/>
<path style="fill:#F6C358;" d="M141.061,292.662c-10.847-10.859-14.024-26.381-9.791-40.137c-10.23-4.284-21.456-6.664-33.241-6.664
	c-47.573,0-86.139,38.566-86.139,86.139s38.566,86.139,86.139,86.139s86.139-38.566,86.139-86.139
	c0-10.16-1.851-19.865-5.081-28.916C165.863,306.359,151.356,302.969,141.061,292.662z"/>
<path style="fill:#DC8744;" d="M94.913,390.789v-10.354c-12.962-1.322-24.597-6.475-34.894-15.456l10.354-12.339
	c7.941,6.903,16.114,11.012,24.54,12.339v-27.518c-10.689-2.551-18.514-5.91-23.478-10.071s-7.445-10.331-7.445-18.509
	s2.851-14.867,8.576-20.073c5.725-5.2,13.17-8.034,22.347-8.507v-7.093h9.073v7.231c10.4,0.762,20.234,4.305,29.503,10.642
	l-9.223,13.049c-6.245-4.444-12.997-7.185-20.28-8.23v26.664h0.427c10.873,2.557,18.861,6.008,23.963,10.354
	c5.113,4.352,7.664,10.665,7.664,18.936c0,8.276-2.932,15.017-8.796,20.211c-5.864,5.206-13.609,8.039-23.259,8.513v10.209H94.913z
	 M84.905,299.238c-2.412,2.124-3.613,4.773-3.613,7.941s0.946,5.673,2.84,7.514c1.881,1.847,5.483,3.619,10.781,5.321v-24.54
	C90.653,295.856,87.317,297.109,84.905,299.238z M114.766,361.43c2.643-2.17,3.971-4.911,3.971-8.224
	c0-3.307-1.039-5.933-3.117-7.872c-2.089-1.939-5.968-3.757-11.635-5.46v25.527C108.521,364.933,112.111,363.606,114.766,361.43z"/>
<g>
</g>
<g>
</g>
<g>
</g>
<g>
</g>
<g>
</g>
<g>
</g>
<g>
</g>
<g>
</g>
<g>
</g>
<g>
</g>
<g>
</g>
<g>
</g>
<g>
</g>
<g>
</g>
<g>
</g>
</svg>
