<?xml version="1.0" encoding="iso-8859-1"?>
<!-- Generator: Adobe Illustrator 19.0.0, SVG Export Plug-In . SVG Version: 6.00 Build 0)  -->
<svg version="1.1" id="Capa_1" xmlns="http://www.w3.org/2000/svg" xmlns:xlink="http://www.w3.org/1999/xlink" x="0px" y="0px"
	 viewBox="0 0 468.293 468.293" style="enable-background:new 0 0 468.293 468.293;" xml:space="preserve">
<path style="fill:#FCD462;" d="M468.293,92.098v296.585c0,17.233-13.924,31.22-31.22,31.22H31.22
	c-17.233,0-31.22-13.986-31.22-31.22V67.122c0-10.364,8.429-18.732,18.732-18.732h90.037c3.933,0,7.805,1.249,10.989,3.559
	l24.538,17.795c3.184,2.373,7.056,3.621,10.989,3.621h294.276C459.926,73.366,468.293,81.734,468.293,92.098z"/>
<rect x="0" y="162.592" style="fill:#F6C358;" width="468.293" height="24.976"/>
<g>
	<rect x="219.317" y="186.131" style="fill:#1C75A1;" width="29.652" height="29.652"/>
	<rect x="248.945" y="215.79" style="fill:#1C75A1;" width="29.652" height="29.652"/>
	<rect x="219.317" y="245.429" style="fill:#1C75A1;" width="29.652" height="29.652"/>
	<rect x="248.945" y="275.082" style="fill:#1C75A1;" width="29.652" height="29.652"/>
	<rect x="219.317" y="304.765" style="fill:#1C75A1;" width="29.652" height="29.652"/>
</g>
<path style="fill:#64798A;" d="M248.974,403.082L248.974,403.082c-16.377,0-29.654-13.276-29.654-29.654v-22.874h59.307v22.874
	C278.627,389.806,265.351,403.082,248.974,403.082z"/>
<rect x="232.348" y="363.146" style="fill:#E1E6E9;" width="33.249" height="17.783"/>
<g>
</g>
<g>
</g>
<g>
</g>
<g>
</g>
<g>
</g>
<g>
</g>
<g>
</g>
<g>
</g>
<g>
</g>
<g>
</g>
<g>
</g>
<g>
</g>
<g>
</g>
<g>
</g>
<g>
</g>
</svg>
