<?xml version="1.0" encoding="iso-8859-1"?>
<!-- Generator: Adobe Illustrator 19.0.0, SVG Export Plug-In . SVG Version: 6.00 Build 0)  -->
<svg version="1.1" id="Capa_1" xmlns="http://www.w3.org/2000/svg" xmlns:xlink="http://www.w3.org/1999/xlink" x="0px" y="0px"
	 viewBox="0 0 468.293 468.293" style="enable-background:new 0 0 468.293 468.293;" xml:space="preserve">
<g>
	<path style="fill:#E1E6E9;" d="M140.488,23.415v426.146c0,10.345-8.386,18.732-18.732,18.732H18.732
		C8.386,468.293,0,459.906,0,449.561V23.415C0,10.483,10.483,0,23.415,0h93.659C130.005,0,140.488,10.483,140.488,23.415z"/>
	<path style="fill:#E1E6E9;" d="M304.39,23.415v426.146c0,10.345-8.386,18.732-18.732,18.732H182.634
		c-10.345,0-18.732-8.386-18.732-18.732V23.415C163.902,10.483,174.386,0,187.317,0h93.659C293.907,0,304.39,10.483,304.39,23.415z"
		/>
	<path style="fill:#E1E6E9;" d="M468.293,23.415v426.146c0,10.345-8.386,18.732-18.732,18.732H346.537
		c-10.345,0-18.732-8.386-18.732-18.732V23.415C327.805,10.483,338.288,0,351.22,0h93.659C457.81,0,468.293,10.483,468.293,23.415z"
		/>
</g>
<g>
	<path style="fill:#3A556A;" d="M57.756,397.628h-31.22V108.667c0-3.448,2.795-6.244,6.244-6.244h18.732
		c3.448,0,6.244,2.795,6.244,6.244V397.628z"/>
	<path style="fill:#3A556A;" d="M113.951,397.628h-31.22V52.472c0-3.448,2.795-6.244,6.244-6.244h18.732
		c3.448,0,6.244,2.795,6.244,6.244V397.628z"/>
	<path style="fill:#3A556A;" d="M221.659,397.628h-31.22V108.667c0-3.448,2.796-6.244,6.244-6.244h18.732
		c3.448,0,6.244,2.795,6.244,6.244V397.628z"/>
	<path style="fill:#3A556A;" d="M277.854,397.628h-31.219V52.472c0-3.448,2.795-6.244,6.244-6.244h18.732
		c3.448,0,6.244,2.795,6.244,6.244V397.628z"/>
	<path style="fill:#3A556A;" d="M385.561,397.628h-31.22V108.667c0-3.448,2.795-6.244,6.244-6.244h18.732
		c3.448,0,6.244,2.795,6.244,6.244V397.628z"/>
	<path style="fill:#3A556A;" d="M441.756,397.628h-31.22V52.472c0-3.448,2.796-6.244,6.244-6.244h18.732
		c3.448,0,6.244,2.795,6.244,6.244V397.628z"/>
</g>
<path style="fill:#44C4A1;" d="M140.488,268.02v181.541c0,10.345-8.386,18.732-18.732,18.732H18.732
	C8.386,468.293,0,459.906,0,449.561V316.429c7.2,2.751,15.395,2.868,23.122-0.234c10.749-4.426,17.737-14.188,19.125-24.963
	c0.458-3.554,4.566-5.416,7.373-3.188c8.558,6.79,20.431,8.894,31.278,4.444c10.748-4.386,17.735-14.134,19.124-24.922
	c0.458-3.557,4.571-5.418,7.378-3.185c8.558,6.806,20.428,8.908,31.273,4.459C139.317,268.606,139.903,268.313,140.488,268.02z"/>
<path style="fill:#FCD462;" d="M304.39,268.02v181.541c0,10.345-8.386,18.732-18.732,18.732H182.634
	c-10.345,0-18.732-8.386-18.732-18.732V316.429c7.2,2.751,15.395,2.868,23.122-0.234c10.749-4.426,17.737-14.188,19.125-24.963
	c0.458-3.554,4.566-5.416,7.373-3.188c8.558,6.79,20.431,8.894,31.278,4.444c10.748-4.386,17.735-14.134,19.124-24.922
	c0.458-3.557,4.571-5.418,7.378-3.185c8.558,6.806,20.428,8.908,31.273,4.459C303.22,268.606,303.805,268.313,304.39,268.02z"/>
<path style="fill:#E56353;" d="M468.293,268.02v181.541c0,10.345-8.386,18.732-18.732,18.732H346.537
	c-10.345,0-18.732-8.386-18.732-18.732V316.429c7.2,2.751,15.395,2.868,23.122-0.234c10.749-4.426,17.737-14.188,19.125-24.963
	c0.458-3.554,4.566-5.416,7.373-3.188c8.558,6.79,20.431,8.894,31.278,4.444c10.748-4.386,17.735-14.134,19.124-24.922
	c0.458-3.557,4.571-5.418,7.378-3.185c8.558,6.806,20.428,8.908,31.273,4.459C467.122,268.606,467.707,268.313,468.293,268.02z"/>
<circle style="fill:#E1E6E9;" cx="70.244" cy="397.612" r="37.463"/>
<circle style="fill:#1C75A1;" cx="70.244" cy="397.612" r="25.925"/>
<circle style="fill:#E1E6E9;" cx="234.146" cy="397.612" r="37.463"/>
<circle style="fill:#1C75A1;" cx="234.146" cy="397.612" r="25.925"/>
<circle style="fill:#E1E6E9;" cx="398.049" cy="397.612" r="37.463"/>
<circle style="fill:#1C75A1;" cx="398.049" cy="397.612" r="25.925"/>
<g>
</g>
<g>
</g>
<g>
</g>
<g>
</g>
<g>
</g>
<g>
</g>
<g>
</g>
<g>
</g>
<g>
</g>
<g>
</g>
<g>
</g>
<g>
</g>
<g>
</g>
<g>
</g>
<g>
</g>
</svg>
