<?xml version="1.0" encoding="iso-8859-1"?>
<!-- Generator: Adobe Illustrator 19.0.0, SVG Export Plug-In . SVG Version: 6.00 Build 0)  -->
<svg version="1.1" id="Capa_1" xmlns="http://www.w3.org/2000/svg" xmlns:xlink="http://www.w3.org/1999/xlink" x="0px" y="0px"
	 viewBox="0 0 468.293 468.293" style="enable-background:new 0 0 468.293 468.293;" xml:space="preserve">
<path style="fill:#D5D6DB;" d="M446.822,413.668H21.469V244.197c0-13.794,11.182-24.976,24.976-24.976h375.402
	c13.794,0,24.976,11.182,24.976,24.976V413.668z"/>
<path style="fill:#64798A;" d="M449.861,413.668h-89.607l-69.369-191.259c-10.622-29.273-10.574-60.486,0.059-87.729l9.299-15.529
	c11.524-19.247,14.527-42.63,8.242-64.153c-6.047-20.692-19.772-37.272-38.643-46.686c-22.217-11.079-49.176-11.085-71.393,0
	c-18.876,9.414-32.602,25.997-38.649,46.689c-6.284,21.523-3.282,44.903,8.248,64.15l9.269,15.485
	c10.658,27.374,10.687,58.539,0.083,87.777l-69.363,191.256H18.432c-6.712,0-12.153,5.441-12.153,12.153v30.319
	c0,6.712,5.441,12.153,12.153,12.153h73.133l21.268-21.269l21.268,21.269v0h200.092l21.268-21.269l21.268,21.269v0h73.134
	c6.711,0,12.153-5.441,12.153-12.153v-30.319C462.014,419.109,456.573,413.668,449.861,413.668z M127.429,413.668l67.11-185.04
	c12.129-33.435,12.028-69.212-0.255-100.674l-10.592-18.17c-8.931-14.903-11.257-33.008-6.391-49.671
	c4.605-15.764,15.007-28.365,29.29-35.489c17.12-8.542,38.002-8.536,55.11,0c14.277,7.121,24.68,19.725,29.285,35.486
	c4.866,16.666,2.54,34.771-6.385,49.674l-9.667,16.135l-0.908,1.976c-12.307,31.522-12.408,67.298-0.279,100.731l67.116,185.043
	H127.429z"/>
<g>
</g>
<g>
</g>
<g>
</g>
<g>
</g>
<g>
</g>
<g>
</g>
<g>
</g>
<g>
</g>
<g>
</g>
<g>
</g>
<g>
</g>
<g>
</g>
<g>
</g>
<g>
</g>
<g>
</g>
</svg>
