<?xml version="1.0" encoding="iso-8859-1"?>
<!-- Generator: Adobe Illustrator 19.0.0, SVG Export Plug-In . SVG Version: 6.00 Build 0)  -->
<svg version="1.1" id="Capa_1" xmlns="http://www.w3.org/2000/svg" xmlns:xlink="http://www.w3.org/1999/xlink" x="0px" y="0px"
	 viewBox="0 0 439.754 439.754" style="enable-background:new 0 0 439.754 439.754;" xml:space="preserve">
<g>
	<path style="fill:#E1E6E9;" d="M431.616,334.33H8.895c-4.306,0-6.94-4.725-4.678-8.388l4.03-6.524c1.094-1.771,1.094-4.008,0-5.779
		l-7.427-12.022c-1.094-1.771-1.094-4.008,0-5.779l7.427-12.022c1.094-1.771,1.094-4.008,0-5.779l-7.427-12.022
		c-1.094-1.771-1.094-4.008,0-5.779l7.427-12.022c1.094-1.771,1.094-4.008,0-5.779l-7.427-12.022c-1.094-1.771-1.094-4.008,0-5.779
		l7.427-12.022c1.094-1.771,1.094-4.008,0-5.779l-7.427-12.022c-1.094-1.771-1.094-4.008,0-5.779l7.427-12.022
		c1.094-1.771,1.094-4.008,0-5.779l-7.427-12.022c-1.094-1.771-1.094-4.008,0-5.779l7.427-12.022c1.094-1.771,1.094-4.008,0-5.779
		l-4.03-6.524c-2.263-3.663,0.372-8.388,4.678-8.388h422.721V334.33z"/>
	<path style="fill:#E1E6E9;" d="M431.616,34.041v322.843l-26.775,41.384l-17.986,27.791l-17.985-27.791l-26.775-41.384V34.041
		c0-11.231,9.115-20.346,20.346-20.346h48.829C422.501,13.695,431.616,22.81,431.616,34.041z"/>
</g>
<path style="fill:#FCD462;" d="M342.095,356.884l14.92-14.92l14.92,14.92l14.92-14.92l14.92,14.92l14.92-14.92l14.92,14.92V34.041
	c0-11.231-9.115-20.346-20.346-20.346h-48.829c-11.231,0-20.346,9.115-20.346,20.346V356.884z"/>
<path style="fill:#E56353;" d="M431.616,34.041v46.632h-89.521V34.041c0-11.231,9.115-20.346,20.346-20.346h48.829
	C422.501,13.695,431.616,22.81,431.616,34.041z"/>
<path style="fill:#E1E6E9;" d="M439.754,76.481v36.093c0,4.476-3.662,8.138-8.138,8.138h-89.521c-4.517,0-8.138-3.662-8.138-8.138
	V76.481c0-4.517,3.622-8.138,8.138-8.138h89.521C436.092,68.343,439.754,71.965,439.754,76.481z"/>
<g>
	<rect x="333.955" y="100.206" style="fill:#D5D6DB;" width="105.797" height="8.136"/>
	<rect x="333.955" y="80.675" style="fill:#D5D6DB;" width="105.797" height="8.136"/>
</g>
<polygon style="fill:#3A556A;" points="404.841,398.267 386.855,426.059 368.87,398.267 "/>
<g>
	<path style="fill:#D5D6DB;" d="M311.336,163.676H146.476c-3.036,0-5.498-2.462-5.498-5.498s2.462-5.498,5.498-5.498h164.859
		c3.036,0,5.498,2.462,5.498,5.498S314.372,163.676,311.336,163.676z"/>
	<path style="fill:#D5D6DB;" d="M311.336,198.348H168.469c-3.036,0-5.498-2.462-5.498-5.498s2.462-5.498,5.498-5.498h142.867
		c3.036,0,5.498,2.462,5.498,5.498S314.372,198.348,311.336,198.348z"/>
	<path style="fill:#D5D6DB;" d="M311.336,233.019H168.469c-3.036,0-5.498-2.462-5.498-5.498s2.462-5.498,5.498-5.498h142.867
		c3.036,0,5.498,2.462,5.498,5.498S314.372,233.019,311.336,233.019z"/>
	<path style="fill:#D5D6DB;" d="M311.336,267.691H168.469c-3.036,0-5.498-2.462-5.498-5.498s2.462-5.498,5.498-5.498h142.867
		c3.036,0,5.498,2.462,5.498,5.498S314.372,267.691,311.336,267.691z"/>
	<path style="fill:#D5D6DB;" d="M311.336,302.363H146.476c-3.036,0-5.498-2.462-5.498-5.498s2.462-5.498,5.498-5.498h164.859
		c3.036,0,5.498,2.462,5.498,5.498S314.372,302.363,311.336,302.363z"/>
</g>
<circle style="fill:#27A2DB;" cx="86.559" cy="227.495" r="56.195"/>
<path style="fill:#E1E6E9;" d="M84.1,273.921v-8.172c-10.226-1.043-19.404-5.111-27.54-12.198l8.172-9.739
	c6.272,5.448,12.727,8.691,19.368,9.739v-21.718c-8.436-2.013-14.608-4.664-18.525-7.948c-3.917-3.284-5.88-8.153-5.88-14.608
	c0-6.454,2.259-11.734,6.773-15.842c4.514-4.104,10.394-6.341,17.632-6.714v-5.598h7.165v5.707
	c8.208,0.601,15.97,3.398,23.285,8.399l-7.279,10.299c-4.924-3.507-10.262-5.671-16.006-6.495v21.044h0.337
	c8.582,2.018,14.886,4.742,18.917,8.172c4.031,3.434,6.044,8.418,6.044,14.945c0,6.532-2.314,11.852-6.942,15.952
	c-4.628,4.109-10.745,6.345-18.357,6.719v8.058H84.1z M76.206,201.665c-1.899,1.676-2.851,3.767-2.851,6.268
	c0,2.501,0.742,4.478,2.237,5.931c1.494,1.458,4.327,2.856,8.509,4.2v-19.368C80.743,198.996,78.11,199.984,76.206,201.665z
	 M99.774,250.749c2.086-1.713,3.134-3.876,3.134-6.491c0-2.61-0.824-4.683-2.464-6.213c-1.64-1.53-4.701-2.965-9.178-4.309v20.147
	C94.845,253.514,97.683,252.467,99.774,250.749z"/>
<g>
</g>
<g>
</g>
<g>
</g>
<g>
</g>
<g>
</g>
<g>
</g>
<g>
</g>
<g>
</g>
<g>
</g>
<g>
</g>
<g>
</g>
<g>
</g>
<g>
</g>
<g>
</g>
<g>
</g>
</svg>
