<?xml version="1.0" encoding="iso-8859-1"?>
<!-- Generator: Adobe Illustrator 19.0.0, SVG Export Plug-In . SVG Version: 6.00 Build 0)  -->
<svg version="1.1" id="Capa_1" xmlns="http://www.w3.org/2000/svg" xmlns:xlink="http://www.w3.org/1999/xlink" x="0px" y="0px"
	 viewBox="0 0 468.293 468.293" style="enable-background:new 0 0 468.293 468.293;" xml:space="preserve">
<path style="fill:#44C4A1;" d="M426.234,252.86L43.687,311.122c-6.818,1.038-13.187-3.647-14.226-10.465L0.144,108.155
	c-1.038-6.818,3.647-13.187,10.465-14.226l382.547-58.262c6.818-1.038,13.187,3.647,14.226,10.465l29.317,192.502
	C437.737,245.453,433.052,251.822,426.234,252.86z"/>
<path style="fill:#E1E6E9;" d="M47.787,238.578l-11.668-76.613c23.826-3.629,40.199-25.885,36.57-49.711l266.658-40.612
	c3.629,23.826,25.885,40.199,49.711,36.57l11.668,76.613c-23.826,3.629-40.199,25.885-36.571,49.711L97.498,275.149
	C93.869,251.323,71.613,234.949,47.787,238.578z"/>
<ellipse style="fill:#64798A;" cx="218.425" cy="173.393" rx="65.911" ry="65.911"/>
<ellipse style="fill:#F6C358;" cx="218.425" cy="173.393" rx="54.922" ry="54.922"/>
<path style="fill:#DC8744;" d="M222.934,219.202l-1.219-8.003c-10.174,0.504-19.774-2.109-28.789-7.838l6.55-10.756
	c6.951,4.4,13.751,6.614,20.42,6.648l-3.239-21.269c-8.562-0.713-15.006-2.388-19.332-5.02c-4.326-2.632-6.97-7.108-7.933-13.429
	c-0.963-6.321,0.454-11.827,4.266-16.524c3.813-4.693,9.234-7.76,16.271-9.206l-0.835-5.482l7.012-1.068l0.851,5.589
	c8.128-0.635,16.146,0.946,24.056,4.753l-5.592,11.171c-5.35-2.7-10.891-4.024-16.644-3.974l3.139,20.609l0.33-0.05
	c8.705,0.696,15.285,2.423,19.74,5.182c4.464,2.762,7.179,7.341,8.153,13.734c0.974,6.397-0.498,11.952-4.419,16.657
	c-3.919,4.714-9.572,7.816-16.975,9.317l1.202,7.891L222.934,219.202z M204.422,149.619c-1.615,1.926-2.231,4.114-1.858,6.563
	c0.373,2.449,1.399,4.273,3.079,5.474c1.672,1.206,4.664,2.151,8.959,2.844l-2.889-18.967
	C208.467,146.328,206.036,147.689,204.422,149.619z M234.823,194.173c1.788-1.988,2.491-4.264,2.101-6.824
	c-0.389-2.556-1.501-4.463-3.335-5.718c-1.843-1.253-5.055-2.201-9.636-2.85l3.005,19.73
	C230.409,197.616,233.027,196.167,234.823,194.173z"/>
<path style="fill:#44C4A1;" d="M455.805,432.769H12.488C5.591,432.769,0,427.178,0,420.281v-224.78
	c0-6.897,5.591-12.488,12.488-12.488h443.317c6.897,0,12.488,5.591,12.488,12.488v224.78
	C468.293,427.178,462.702,432.769,455.805,432.769z"/>
<path style="fill:#E1E6E9;" d="M31.22,357.912V257.872c24.101,0,43.638-19.537,43.638-43.638h318.577
	c0,24.101,19.537,43.638,43.638,43.638v100.041c-24.101,0-43.638,19.537-43.638,43.638H74.858
	C74.858,377.45,55.321,357.912,31.22,357.912z"/>
<circle style="fill:#64798A;" cx="234.146" cy="307.893" r="74.927"/>
<circle style="fill:#F6C358;" cx="234.146" cy="307.893" r="62.439"/>
<path style="fill:#DC8744;" d="M231.377,360.144v-9.202c-11.521-1.175-21.862-5.755-31.013-13.737l9.202-10.967
	c7.058,6.135,14.322,9.787,21.811,10.967v-24.458c-9.5-2.267-16.456-5.253-20.867-8.951c-4.411-3.698-6.617-9.182-6.617-16.451
	c0-7.269,2.534-13.214,7.623-17.841c5.089-4.622,11.706-7.14,19.862-7.561v-6.304h8.064v6.427
	c9.243,0.677,17.984,3.827,26.222,9.459l-8.197,11.598c-5.55-3.95-11.552-6.386-18.025-7.315v23.699h0.38
	c9.664,2.272,16.763,5.34,21.298,9.202c4.545,3.868,6.812,9.479,6.812,16.83c0,7.356-2.606,13.347-7.817,17.964
	c-5.212,4.627-12.095,7.145-20.672,7.566v9.074H231.377z M222.482,278.774c-2.144,1.888-3.211,4.242-3.211,7.058
	c0,2.816,0.841,5.042,2.524,6.679c1.672,1.641,4.873,3.216,9.582,4.729V275.43C227.591,275.768,224.627,276.881,222.482,278.774z
	 M249.023,334.05c2.349-1.929,3.529-4.365,3.529-7.31c0-2.939-0.923-5.273-2.77-6.997c-1.857-1.724-5.304-3.339-10.341-4.853v22.688
	C243.473,337.164,246.663,335.984,249.023,334.05z"/>
<g>
</g>
<g>
</g>
<g>
</g>
<g>
</g>
<g>
</g>
<g>
</g>
<g>
</g>
<g>
</g>
<g>
</g>
<g>
</g>
<g>
</g>
<g>
</g>
<g>
</g>
<g>
</g>
<g>
</g>
</svg>
