<?xml version="1.0" encoding="iso-8859-1"?>
<!-- Generator: Adobe Illustrator 19.0.0, SVG Export Plug-In . SVG Version: 6.00 Build 0)  -->
<svg version="1.1" id="Capa_1" xmlns="http://www.w3.org/2000/svg" xmlns:xlink="http://www.w3.org/1999/xlink" x="0px" y="0px"
	 viewBox="0 0 468.293 468.293" style="enable-background:new 0 0 468.293 468.293;" xml:space="preserve">
<path style="fill:#2D93BA;" d="M466.021,151.621H0V88.953c0-10.345,8.386-18.732,18.732-18.732h428.558
	c10.345,0,18.732,8.386,18.732,18.732V151.621z"/>
<path style="fill:#D5D6DB;" d="M447.289,444.59H18.732C8.386,444.59,0,436.204,0,425.859V151.592h466.021v274.266
	C466.021,436.204,457.635,444.59,447.289,444.59z"/>
<path style="fill:#64798A;" d="M52.13,94.993c0,18.841,15.331,34.175,34.175,34.175s34.175-15.334,34.175-34.175H52.13z"/>
<path style="fill:#D5D6DB;" d="M86.305,116.74L86.305,116.74c-12.011,0-21.748-9.737-21.748-21.748V45.45
	c0-12.011,9.737-21.748,21.748-21.748h0c12.011,0,21.748,9.737,21.748,21.748v49.543C108.053,107.003,98.316,116.74,86.305,116.74z"
	/>
<path style="fill:#64798A;" d="M198.836,94.993c0,18.841,15.331,34.175,34.175,34.175c18.844,0,34.175-15.334,34.175-34.175H198.836
	z"/>
<path style="fill:#D5D6DB;" d="M233.011,116.74L233.011,116.74c-12.011,0-21.748-9.737-21.748-21.748V45.45
	c0-12.011,9.737-21.748,21.748-21.748h0c12.011,0,21.748,9.737,21.748,21.748v49.543C254.759,107.003,245.022,116.74,233.011,116.74
	z"/>
<path style="fill:#64798A;" d="M345.541,94.993c0,18.841,15.331,34.175,34.175,34.175c18.844,0,34.175-15.334,34.175-34.175H345.541
	z"/>
<path style="fill:#D5D6DB;" d="M379.716,116.74L379.716,116.74c-12.011,0-21.748-9.737-21.748-21.748V45.45
	c0-12.011,9.737-21.748,21.748-21.748h0c12.011,0,21.748,9.737,21.748,21.748v49.543C401.464,107.003,391.727,116.74,379.716,116.74
	z"/>
<path style="fill:#E1E6E9;" d="M468.293,151.592H2.272V425.95c0,10.295,8.346,18.641,18.641,18.641h387.973l59.407-59.407V151.592z"
	/>
<polygon style="fill:#EBF0F3;" points="406.614,444.591 466.021,385.184 406.614,385.184 "/>
<g>
	<rect x="46.604" y="197.744" style="fill:#64798A;" width="53.26" height="53.26"/>
	<rect x="126.489" y="197.744" style="fill:#64798A;" width="53.26" height="53.26"/>
	<rect x="206.38" y="197.744" style="fill:#64798A;" width="53.26" height="53.26"/>
	<rect x="286.283" y="197.744" style="fill:#64798A;" width="53.26" height="53.26"/>
	<rect x="366.142" y="197.744" style="fill:#64798A;" width="53.26" height="53.26"/>
</g>
<g>
	<rect x="46.604" y="241.264" style="fill:#D5D6DB;" width="53.26" height="9.734"/>
	<rect x="126.489" y="241.264" style="fill:#D5D6DB;" width="53.26" height="9.734"/>
	<rect x="206.38" y="241.264" style="fill:#D5D6DB;" width="53.26" height="9.734"/>
	<rect x="286.283" y="241.264" style="fill:#D5D6DB;" width="53.26" height="9.734"/>
	<rect x="366.142" y="241.264" style="fill:#D5D6DB;" width="53.26" height="9.734"/>
</g>
<g>
	<rect x="46.604" y="271.46" style="fill:#64798A;" width="53.26" height="53.26"/>
	<rect x="126.489" y="271.46" style="fill:#64798A;" width="53.26" height="53.26"/>
	<rect x="206.38" y="271.46" style="fill:#64798A;" width="53.26" height="53.26"/>
	<rect x="286.283" y="271.46" style="fill:#64798A;" width="53.26" height="53.26"/>
	<rect x="366.142" y="271.46" style="fill:#64798A;" width="53.26" height="53.26"/>
	<rect x="46.604" y="345.182" style="fill:#64798A;" width="53.26" height="53.261"/>
	<rect x="126.489" y="345.182" style="fill:#64798A;" width="53.26" height="53.261"/>
	<rect x="206.38" y="345.182" style="fill:#64798A;" width="53.26" height="53.261"/>
	<rect x="286.283" y="345.182" style="fill:#64798A;" width="53.26" height="53.261"/>
</g>
<g>
	<rect x="46.604" y="314.986" style="fill:#D5D6DB;" width="53.26" height="9.734"/>
	<rect x="126.489" y="314.986" style="fill:#D5D6DB;" width="53.26" height="9.734"/>
	<rect x="206.38" y="314.986" style="fill:#D5D6DB;" width="53.26" height="9.734"/>
	<rect x="286.283" y="314.986" style="fill:#D5D6DB;" width="53.26" height="9.734"/>
	<rect x="366.142" y="314.986" style="fill:#D5D6DB;" width="53.26" height="9.734"/>
	<rect x="46.604" y="388.708" style="fill:#D5D6DB;" width="53.26" height="9.734"/>
	<rect x="126.489" y="388.708" style="fill:#D5D6DB;" width="53.26" height="9.734"/>
	<rect x="206.38" y="388.708" style="fill:#D5D6DB;" width="53.26" height="9.734"/>
	<rect x="286.283" y="388.708" style="fill:#D5D6DB;" width="53.26" height="9.734"/>
</g>
<g>
</g>
<g>
</g>
<g>
</g>
<g>
</g>
<g>
</g>
<g>
</g>
<g>
</g>
<g>
</g>
<g>
</g>
<g>
</g>
<g>
</g>
<g>
</g>
<g>
</g>
<g>
</g>
<g>
</g>
</svg>
