<?xml version="1.0" encoding="iso-8859-1"?>
<!-- Generator: Adobe Illustrator 19.0.0, SVG Export Plug-In . SVG Version: 6.00 Build 0)  -->
<svg version="1.1" id="Capa_1" xmlns="http://www.w3.org/2000/svg" xmlns:xlink="http://www.w3.org/1999/xlink" x="0px" y="0px"
	 viewBox="0 0 468.293 468.293" style="enable-background:new 0 0 468.293 468.293;" xml:space="preserve">
<polyline style="fill:#E56353;" points="201.828,433.691 201.828,384.655 266.465,384.655 266.465,433.691 "/>
<polygon style="fill:#EBF0F3;" points="201.828,433.691 220.68,453.859 234.146,468.293 247.612,453.859 266.465,433.691 "/>
<polygon style="fill:#64798A;" points="247.612,453.859 234.146,468.293 220.68,453.859 "/>
<path style="fill:#FCD462;" d="M137.95,261.113c21.275,18.144,35.894,42.38,43.123,68.956c1.156,4.249,5.078,7.148,9.481,7.148
	h87.261c4.354,0,8.26-2.831,9.447-7.02c7.695-27.148,23.467-51.701,45.123-70.86c30.697-27.157,50.054-66.832,50.054-111.044
	c0-87.145-75.17-156.734-164.206-147.463C146.325,8.318,91.208,65.62,86.218,137.745C82.8,187.154,103.61,231.826,137.95,261.113z"
	/>
<path style="fill:#DC8744;" d="M252.878,349.883h-37.463c-3.451,0-6.244-2.796-6.244-6.244v-75.61
	c0-27.899-9.884-54.241-27.835-74.177c-0.512-0.57-0.982-1.073-1.415-1.512c-8.207-8.405-10.762-20.436-6.506-30.655
	c3.927-9.427,12.604-15.104,23.219-15.192c6.823,0,13.396,2.268,18.78,6.36c10.768-8.183,26.695-8.183,37.463,0
	c5.384-4.091,11.945-6.36,18.732-6.36c0.018,0,0.037,0,0.049,0c10.616,0.088,19.293,5.765,23.213,15.189
	c4.256,10.22,1.707,22.25-6.488,30.646c-0.445,0.451-0.915,0.954-1.415,1.509c-17.963,19.951-27.848,46.293-27.848,74.192v75.61
	C259.122,347.087,256.329,349.883,252.878,349.883z M221.659,337.395h24.976v-69.366c0-30.991,11.024-60.302,31.043-82.53
	c0.622-0.698,1.226-1.341,1.78-1.909c4.683-4.796,6.213-11.518,3.89-17.11c-1.963-4.713-6.25-7.448-11.768-7.5
	c-5.378,0.009-10.354,2.308-14,6.482c-2.378,2.713-7.024,2.713-9.402,0c-7.305-8.36-20.756-8.36-28.061,0
	c-2.378,2.713-7.024,2.713-9.402,0c-3.652-4.18-8.634-6.482-14.03-6.482c-5.476,0.046-9.774,2.78-11.738,7.503
	c-2.329,5.591-0.799,12.311,3.902,17.119c0.543,0.555,1.146,1.198,1.78,1.912c20.006,22.213,31.03,51.524,31.03,82.515V337.395z"/>
<g>
	<path style="fill:#D5D6DB;" d="M276.476,360.942h-84.659c-6.551,0-11.862-5.311-11.862-11.862v0
		c0-6.551,5.311-11.862,11.862-11.862h84.659c6.551,0,11.862,5.311,11.862,11.862v0
		C288.338,355.631,283.027,360.942,276.476,360.942z"/>
	<path style="fill:#D5D6DB;" d="M276.476,408.391h-84.659c-6.551,0-11.862-5.311-11.862-11.862v0
		c0-6.551,5.311-11.862,11.862-11.862h84.659c6.551,0,11.862,5.311,11.862,11.862v0C288.338,403.08,283.027,408.391,276.476,408.391
		z"/>
</g>
<path style="fill:#E1E6E9;" d="M276.476,384.667h-84.659c-6.551,0-11.862-5.311-11.862-11.862v0c0-6.551,5.311-11.862,11.862-11.862
	h84.659c6.551,0,11.862,5.311,11.862,11.862v0C288.338,379.356,283.027,384.667,276.476,384.667z"/>
<g>
</g>
<g>
</g>
<g>
</g>
<g>
</g>
<g>
</g>
<g>
</g>
<g>
</g>
<g>
</g>
<g>
</g>
<g>
</g>
<g>
</g>
<g>
</g>
<g>
</g>
<g>
</g>
<g>
</g>
</svg>
