<?xml version="1.0" encoding="iso-8859-1"?>
<!-- Generator: Adobe Illustrator 19.0.0, SVG Export Plug-In . SVG Version: 6.00 Build 0)  -->
<svg version="1.1" id="Capa_1" xmlns="http://www.w3.org/2000/svg" xmlns:xlink="http://www.w3.org/1999/xlink" x="0px" y="0px"
	 viewBox="0 0 468.305 468.305" style="enable-background:new 0 0 468.305 468.305;" xml:space="preserve">
<rect x="121.094" y="24.976" style="fill:#3A556A;" width="226.092" height="443.317"/>
<g>
	<rect x="0.006" y="89.1" style="fill:#64798A;" width="121.088" height="379.205"/>
	<rect x="347.211" y="89.1" style="fill:#64798A;" width="121.088" height="379.205"/>
</g>
<g>
	<rect x="386.004" y="132.202" style="fill:#E1E6E9;" width="43.464" height="43.464"/>
	<rect x="386.004" y="194.398" style="fill:#E1E6E9;" width="43.464" height="43.464"/>
	<rect x="386.004" y="256.837" style="fill:#E1E6E9;" width="43.464" height="43.464"/>
	<rect x="386.004" y="319.276" style="fill:#E1E6E9;" width="43.464" height="43.464"/>
	<rect x="386.004" y="381.69" style="fill:#E1E6E9;" width="43.464" height="43.464"/>
	<rect x="38.818" y="381.69" style="fill:#E1E6E9;" width="43.464" height="43.464"/>
	<rect x="38.818" y="132.202" style="fill:#E1E6E9;" width="43.464" height="43.464"/>
	<rect x="38.818" y="194.398" style="fill:#E1E6E9;" width="43.464" height="43.464"/>
	<rect x="38.818" y="256.837" style="fill:#E1E6E9;" width="43.464" height="43.464"/>
	<rect x="38.818" y="319.276" style="fill:#E1E6E9;" width="43.464" height="43.464"/>
	<rect x="149.979" y="65.299" style="fill:#E1E6E9;" width="43.464" height="43.464"/>
	<rect x="212.418" y="65.299" style="fill:#E1E6E9;" width="43.464" height="43.464"/>
	<rect x="274.857" y="65.299" style="fill:#E1E6E9;" width="43.464" height="43.464"/>
	<rect x="149.979" y="127.738" style="fill:#E1E6E9;" width="43.464" height="43.464"/>
	<rect x="212.418" y="127.738" style="fill:#E1E6E9;" width="43.464" height="43.464"/>
	<rect x="274.857" y="127.738" style="fill:#E1E6E9;" width="43.464" height="43.464"/>
	<rect x="149.979" y="190.177" style="fill:#E1E6E9;" width="43.464" height="43.464"/>
	<rect x="212.418" y="190.177" style="fill:#E1E6E9;" width="43.464" height="43.464"/>
	<rect x="274.857" y="190.177" style="fill:#E1E6E9;" width="43.464" height="43.464"/>
	<rect x="149.979" y="252.616" style="fill:#E1E6E9;" width="43.464" height="43.464"/>
	<rect x="212.418" y="252.616" style="fill:#E1E6E9;" width="43.464" height="43.464"/>
	<rect x="274.857" y="252.616" style="fill:#E1E6E9;" width="43.464" height="43.464"/>
</g>
<path style="fill:#EBF0F3;" d="M287.105,468.293H181.2V352.131c0-10.345,8.386-18.732,18.732-18.732h68.441
	c10.345,0,18.732,8.386,18.732,18.732V468.293z"/>
<path style="fill:#D5D6DB;" d="M268.373,333.399h-68.441c-3.306,0-6.366,0.93-9.062,2.433c0.926-0.141,1.853-0.284,2.818-0.284
	h68.441c10.345,0,18.732,8.386,18.732,18.732v114.013h6.244V352.131C287.105,341.785,278.718,333.399,268.373,333.399z"/>
<path style="fill:#2F4859;" d="M346.543,24.976H121.762c-6.897,0-12.488-5.591-12.488-12.488v0C109.275,5.591,114.866,0,121.762,0
	h224.781c6.897,0,12.488,5.591,12.488,12.488v0C359.031,19.385,353.44,24.976,346.543,24.976z"/>
<g>
</g>
<g>
</g>
<g>
</g>
<g>
</g>
<g>
</g>
<g>
</g>
<g>
</g>
<g>
</g>
<g>
</g>
<g>
</g>
<g>
</g>
<g>
</g>
<g>
</g>
<g>
</g>
<g>
</g>
</svg>
