<?xml version="1.0" encoding="iso-8859-1"?>
<!-- Generator: Adobe Illustrator 19.0.0, SVG Export Plug-In . SVG Version: 6.00 Build 0)  -->
<svg version="1.1" id="Capa_1" xmlns="http://www.w3.org/2000/svg" xmlns:xlink="http://www.w3.org/1999/xlink" x="0px" y="0px"
	 viewBox="0 0 468.293 468.293" style="enable-background:new 0 0 468.293 468.293;" xml:space="preserve">
<path style="fill:#44C4A1;" d="M468.293,140.636v248.507c0,10.365-8.367,18.732-18.732,18.732H18.732
	C8.367,407.874,0,399.508,0,389.143V140.636c0-1.312,0.124-2.623,0.374-3.934c1.436-6.681,6.369-11.988,12.863-13.924
	c1.748-0.563,3.559-0.874,5.495-0.874h430.829c1.935,0,3.746,0.312,5.495,0.874c6.494,1.936,11.426,7.242,12.863,13.924
	C468.168,138.013,468.293,139.324,468.293,140.636z"/>
<path style="fill:#31978C;" d="M155.648,72.906v48.987H177.5V94.758c0-6.897,5.591-12.488,12.488-12.488h88.317
	c6.897,0,12.488,5.591,12.488,12.488v27.135h21.851V72.906c0-6.897-5.591-12.488-12.488-12.488H168.136
	C161.239,60.418,155.648,66.009,155.648,72.906z"/>
<path style="fill:#FCD462;" d="M467.918,136.702l-228.59,152.039c-1.561,1.062-3.372,1.561-5.182,1.561
	c-1.811,0-3.621-0.499-5.182-1.561L0.374,136.702c1.436-6.681,6.369-11.988,12.863-13.924l220.909,146.919l220.909-146.919
	C461.55,124.714,466.482,130.021,467.918,136.702z"/>
<g>
	<path style="fill:#E56353;" d="M264.304,245.908v49.951c0,6.868-5.556,12.488-12.488,12.488h-35.34
		c-6.931,0-12.488-5.62-12.488-12.488v-49.951c0-6.931,5.556-12.488,12.488-12.488h35.34
		C258.748,233.42,264.304,238.977,264.304,245.908z"/>
	<path style="fill:#E56353;" d="M251.816,233.42h-35.34c-6.931,0-12.488,5.557-12.488,12.488v24.976v24.976
		c0,6.931,5.556,12.488,12.488,12.488h35.34c6.931,0,12.488-5.557,12.488-12.488v-24.976v-24.976
		C264.304,238.977,258.748,233.42,251.816,233.42z"/>
</g>
<g>
	<path style="fill:#D5D6DB;" d="M252.878,251.307v15.513h-37.463v-15.513c0-4.305,3.451-7.756,7.756-7.756h21.95
		C249.427,243.55,252.878,247.002,252.878,251.307z"/>
	<path style="fill:#D5D6DB;" d="M252.878,290.46v-15.513h-37.463v15.513c0,4.305,3.451,7.756,7.756,7.756h21.95
		C249.427,298.216,252.878,294.765,252.878,290.46z"/>
</g>
<g>
</g>
<g>
</g>
<g>
</g>
<g>
</g>
<g>
</g>
<g>
</g>
<g>
</g>
<g>
</g>
<g>
</g>
<g>
</g>
<g>
</g>
<g>
</g>
<g>
</g>
<g>
</g>
<g>
</g>
</svg>
