<?xml version="1.0" encoding="iso-8859-1"?>
<!-- Generator: Adobe Illustrator 19.0.0, SVG Export Plug-In . SVG Version: 6.00 Build 0)  -->
<svg version="1.1" id="Capa_1" xmlns="http://www.w3.org/2000/svg" xmlns:xlink="http://www.w3.org/1999/xlink" x="0px" y="0px"
	 viewBox="0 0 468.293 468.293" style="enable-background:new 0 0 468.293 468.293;" xml:space="preserve">
<path style="fill:#3A556A;" d="M449.561,110.412H18.732C8.386,110.412,0,102.026,0,91.681V54.217
	c0-10.345,8.386-18.732,18.732-18.732h430.829c10.345,0,18.732,8.386,18.732,18.732v37.463
	C468.293,102.026,459.906,110.412,449.561,110.412z"/>
<path style="fill:#E1E6E9;" d="M406.94,430.313l-25.9-8.931c-1.319-0.455-2.752-0.455-4.071,0l-32.144,11.084
	c-1.319,0.455-2.752,0.455-4.071,0l-32.144-11.084c-1.319-0.455-2.752-0.455-4.071,0l-32.144,11.084
	c-1.319,0.455-2.752,0.455-4.071,0l-32.144-11.084c-1.319-0.455-2.752-0.455-4.071,0l-32.144,11.084
	c-1.319,0.455-2.752,0.455-4.071,0l-32.144-11.084c-1.319-0.455-2.752-0.455-4.071,0l-32.144,11.084
	c-1.319,0.455-2.752,0.455-4.071,0l-32.144-11.084c-1.319-0.455-2.752-0.455-4.071,0l-25.9,8.931
	c-4.055,1.398-8.279-1.614-8.279-5.903V72.949h362.146V424.41C415.219,428.699,410.995,431.711,406.94,430.313z"/>
<circle style="fill:#D5D6DB;" cx="143.735" cy="207.166" r="65.686"/>
<path style="fill:#1C75A1;" d="M141.273,253.544v-8.167c-10.225-1.043-19.403-5.108-27.525-12.192l8.167-9.734
	c6.264,5.445,12.711,8.686,19.358,9.734v-21.707c-8.432-2.012-14.605-4.662-18.52-7.944c-3.915-3.282-5.873-8.149-5.873-14.6
	c0-6.451,2.249-11.728,6.765-15.834c4.516-4.102,10.389-6.337,17.628-6.711v-5.595h7.157v5.704
	c8.204,0.601,15.962,3.396,23.273,8.395l-7.275,10.294c-4.926-3.506-10.253-5.668-15.998-6.492v21.033h0.337
	c8.577,2.017,14.878,4.739,18.903,8.167c4.034,3.433,6.046,8.413,6.046,14.937c0,6.529-2.313,11.846-6.938,15.943
	c-4.626,4.106-10.735,6.342-18.347,6.715v8.054H141.273z M133.379,181.325c-1.903,1.675-2.85,3.765-2.85,6.264
	s0.747,4.475,2.24,5.928c1.484,1.457,4.325,2.855,8.504,4.198v-19.358C137.913,178.657,135.282,179.645,133.379,181.325z
	 M156.934,230.384c2.085-1.712,3.132-3.874,3.132-6.488c0-2.609-0.819-4.68-2.458-6.21c-1.648-1.53-4.707-2.964-9.178-4.307v20.136
	C152.008,233.148,154.84,232.101,156.934,230.384z"/>
<g>
	<path style="fill:#D5D6DB;" d="M389.644,204.075H234.928c-0.331,0-0.6-0.268-0.6-0.6v-10.794c0-0.331,0.268-0.6,0.6-0.6h154.716
		c0.331,0,0.6,0.268,0.6,0.6v10.794C390.244,203.807,389.975,204.075,389.644,204.075z"/>
	<path style="fill:#D5D6DB;" d="M389.644,247.118H234.928c-0.331,0-0.6-0.268-0.6-0.6v-10.794c0-0.331,0.268-0.6,0.6-0.6h154.716
		c0.331,0,0.6,0.268,0.6,0.6v10.794C390.244,246.85,389.975,247.118,389.644,247.118z"/>
	<path style="fill:#D5D6DB;" d="M389.644,290.161H210.941c-0.331,0-0.6-0.268-0.6-0.6v-10.794c0-0.331,0.268-0.6,0.6-0.6h178.703
		c0.331,0,0.6,0.268,0.6,0.6v10.794C390.244,289.893,389.975,290.161,389.644,290.161z"/>
	<path style="fill:#D5D6DB;" d="M389.644,333.205H174.96c-0.331,0-0.6-0.268-0.6-0.6v-10.794c0-0.331,0.268-0.6,0.6-0.6l214.684,0
		c0.331,0,0.6,0.268,0.6,0.6v10.794C390.244,332.936,389.975,333.205,389.644,333.205z"/>
	<path style="fill:#D5D6DB;" d="M389.644,376.248H78.648c-0.331,0-0.6-0.268-0.6-0.6v-10.794c0-0.331,0.268-0.6,0.6-0.6h310.996
		c0.331,0,0.6,0.268,0.6,0.6v10.794C390.244,375.979,389.975,376.248,389.644,376.248z"/>
</g>
<g>
</g>
<g>
</g>
<g>
</g>
<g>
</g>
<g>
</g>
<g>
</g>
<g>
</g>
<g>
</g>
<g>
</g>
<g>
</g>
<g>
</g>
<g>
</g>
<g>
</g>
<g>
</g>
<g>
</g>
</svg>
