<?xml version="1.0" encoding="iso-8859-1"?>
<!-- Generator: Adobe Illustrator 19.0.0, SVG Export Plug-In . SVG Version: 6.00 Build 0)  -->
<svg version="1.1" id="Capa_1" xmlns="http://www.w3.org/2000/svg" xmlns:xlink="http://www.w3.org/1999/xlink" x="0px" y="0px"
	 viewBox="0 0 468.293 468.293" style="enable-background:new 0 0 468.293 468.293;" xml:space="preserve">
<path style="fill:#F6C358;" d="M449.561,389.756H49.951c-10.345,0-18.732-8.386-18.732-18.732V66.049
	c0-6.897,5.591-12.488,12.488-12.488h89.641c6.914,0,12.513,5.619,12.488,12.533l-0.068,18.687h303.793
	c10.345,0,18.732,8.386,18.732,18.732v267.511C468.293,381.369,459.906,389.756,449.561,389.756z"/>
<path style="fill:#FCD462;" d="M418.341,414.731H18.732C8.386,414.731,0,406.345,0,396V91.025c0-6.897,5.591-12.488,12.488-12.488
	h89.641c6.914,0,12.513,5.619,12.488,12.533l-0.068,18.687h303.793c10.345,0,18.732,8.386,18.732,18.732V396
	C437.073,406.345,428.687,414.731,418.341,414.731z"/>
<path style="fill:#D5D6DB;" d="M337.171,259.102c0,25.151-7.823,48.502-21.201,67.668c-21.395,30.822-57.067,51.005-97.434,51.005
	s-76.038-20.183-97.434-51.005c-13.378-19.166-21.201-42.517-21.201-67.668c0-65.517,53.118-118.634,118.634-118.634
	S337.171,193.586,337.171,259.102z"/>
<g>
	<circle style="fill:#E56353;" cx="218.537" cy="219.473" r="50.076"/>
	<path style="fill:#E56353;" d="M315.97,326.77c-21.395,30.822-57.067,51.005-97.434,51.005s-76.038-20.183-97.434-51.005
		c19.087-34.147,55.581-57.185,97.434-57.185S296.883,292.623,315.97,326.77z"/>
</g>
<g>
</g>
<g>
</g>
<g>
</g>
<g>
</g>
<g>
</g>
<g>
</g>
<g>
</g>
<g>
</g>
<g>
</g>
<g>
</g>
<g>
</g>
<g>
</g>
<g>
</g>
<g>
</g>
<g>
</g>
</svg>
