<?xml version="1.0" encoding="iso-8859-1"?>
<!-- Generator: Adobe Illustrator 19.0.0, SVG Export Plug-In . SVG Version: 6.00 Build 0)  -->
<svg version="1.1" id="Capa_1" xmlns="http://www.w3.org/2000/svg" xmlns:xlink="http://www.w3.org/1999/xlink" x="0px" y="0px"
	 viewBox="0 0 468.293 468.293" style="enable-background:new 0 0 468.293 468.293;" xml:space="preserve">
<path style="fill:#DC8744;" d="M220.536,53.889L53.889,220.536c-3.856,3.856-9.658,5.002-14.691,2.902L8.273,210.531
	c-8.832-3.686-11.097-15.156-4.33-21.923L188.608,3.943c6.767-6.767,18.237-4.501,21.923,4.33l12.907,30.925
	C225.538,44.231,224.392,50.033,220.536,53.889z"/>
<path style="fill:#FCD462;" d="M351.38,160.957L160.957,351.38c-3.856,3.856-5.002,9.658-2.902,14.691l12.907,30.925
	c3.686,8.832,15.156,11.097,21.923,4.33l208.441-208.441c6.767-6.767,4.501-18.237-4.33-21.923l-30.925-12.907
	C361.038,155.955,355.236,157.101,351.38,160.957z"/>
<rect x="75.646" y="112.568" transform="matrix(-0.7071 0.7071 -0.7071 -0.7071 474.854 196.6749)" style="fill:#F6C358;" width="242.096" height="168.23"/>
<polygon style="fill:#E1E6E9;" points="454.027,425.496 468.293,468.292 425.496,454.027 282.839,311.371 311.371,282.839 "/>
<g>
</g>
<g>
</g>
<g>
</g>
<g>
</g>
<g>
</g>
<g>
</g>
<g>
</g>
<g>
</g>
<g>
</g>
<g>
</g>
<g>
</g>
<g>
</g>
<g>
</g>
<g>
</g>
<g>
</g>
</svg>
