<?xml version="1.0" encoding="iso-8859-1"?>
<!-- Generator: Adobe Illustrator 19.0.0, SVG Export Plug-In . SVG Version: 6.00 Build 0)  -->
<svg version="1.1" id="Capa_1" xmlns="http://www.w3.org/2000/svg" xmlns:xlink="http://www.w3.org/1999/xlink" x="0px" y="0px"
	 viewBox="0 0 469.166 469.166" style="enable-background:new 0 0 469.166 469.166;" xml:space="preserve">
<path style="fill:#3A556A;" d="M312.372,204.316l-47.523-47.523L417.984,3.658c4.877-4.877,12.784-4.877,17.661,0l29.863,29.863
	c4.877,4.877,4.877,12.784,0,17.66L312.372,204.316z"/>
<rect x="261.23" y="165.521" transform="matrix(-0.7071 -0.7071 0.7071 -0.7071 380.0461 506.0803)" style="fill:#D5D6DB;" width="67.209" height="17.62"/>
<g>
	
		<rect x="127.608" y="218.943" transform="matrix(-0.7071 0.7071 -0.7071 -0.7071 553.684 265.175)" style="fill:#3A556A;" width="188.629" height="56.632"/>
	
		<rect x="75.885" y="322.057" transform="matrix(-0.7071 0.7071 -0.7071 -0.7071 454.1397 505.5621)" style="fill:#3A556A;" width="92.96" height="49.558"/>
</g>
<g>
	
		<rect x="153.165" y="280.688" transform="matrix(-0.7071 0.7071 -0.7071 -0.7071 491.992 414.2188)" style="fill:#D5D6DB;" width="14.086" height="56.632"/>
	
		<rect x="87.435" y="349.916" transform="matrix(-0.7071 0.7071 -0.7071 -0.7071 426.2328 572.838)" style="fill:#D5D6DB;" width="14.086" height="49.558"/>
</g>
<path style="fill:#E1E6E9;" d="M77.877,368.078c0,0-41.15,30.435-59.993,36.78L0.001,469.166l89.482-89.482L77.877,368.078z"/>
<path style="fill:#D5D6DB;" d="M101.09,391.291l-11.607-11.607L0.001,469.166l64.309-17.882
	C70.655,432.441,101.09,391.291,101.09,391.291z"/>
<path style="fill:#E1E6E9;" d="M350.884,93.896c0,0-8.996,23.854-22.131,43.5l3.015,3.015
	c19.647-13.135,43.499-22.132,43.499-22.132c-16.318-16.318-0.195-13.898-0.195-13.898c43.864-3.231,57.848-47.152,61.275-61.597
	c0.664-2.8-0.193-5.706-2.228-7.74v0c-2.035-2.035-4.941-2.892-7.741-2.228c-14.445,3.427-58.365,17.413-61.596,61.276
	C364.784,94.092,367.204,110.215,350.884,93.896z"/>
<circle style="fill:#3A556A;" cx="34.304" cy="434.888" r="8.723"/>
<g>
</g>
<g>
</g>
<g>
</g>
<g>
</g>
<g>
</g>
<g>
</g>
<g>
</g>
<g>
</g>
<g>
</g>
<g>
</g>
<g>
</g>
<g>
</g>
<g>
</g>
<g>
</g>
<g>
</g>
</svg>
