<?xml version="1.0" encoding="iso-8859-1"?>
<!-- Generator: Adobe Illustrator 19.0.0, SVG Export Plug-In . SVG Version: 6.00 Build 0)  -->
<svg version="1.1" id="Capa_1" xmlns="http://www.w3.org/2000/svg" xmlns:xlink="http://www.w3.org/1999/xlink" x="0px" y="0px"
	 viewBox="0 0 468.293 468.293" style="enable-background:new 0 0 468.293 468.293;" xml:space="preserve">
<path style="fill:#FCD462;" d="M449.807,173.921H18.485V32.016c0-3.403,2.759-6.162,6.162-6.162h86.051
	c1.693,0,3.311,0.696,4.475,1.926l43.021,45.443c1.164,1.229,2.782,1.926,4.475,1.926h280.978c3.403,0,6.162,2.759,6.162,6.162
	V173.921z"/>
<path style="fill:#F6C358;" d="M449.561,442.439H18.732C8.386,442.439,0,434.052,0,423.707v-289.37h468.293v289.37
	C468.293,434.052,459.906,442.439,449.561,442.439z"/>
<path style="fill:#3A556A;" d="M231.944,308.339l-42.391-42.209c-1.973-1.965-0.582-5.334,2.203-5.334h14.294
	c1.724,0,3.122-1.398,3.122-3.122v-47.51h6.269h18.707h18.708h6.268v47.51c0,1.724,1.398,3.122,3.122,3.122h14.294
	c2.785,0,4.176,3.37,2.203,5.334l-42.391,42.209C235.131,309.551,233.162,309.551,231.944,308.339z"/>
<path style="fill:#1C75A1;" d="M346.537,294.636c-5.171,0-9.366,4.192-9.366,9.366v40.756c0,1.723-1.402,3.122-3.122,3.122H134.244
	c-1.72,0-3.122-1.399-3.122-3.122v-40.756c0-5.174-4.195-9.366-9.366-9.366s-9.366,4.192-9.366,9.366v40.756
	c0,12.049,9.805,21.854,21.854,21.854h199.805c12.049,0,21.854-9.805,21.854-21.854v-40.756
	C355.902,298.828,351.707,294.636,346.537,294.636z"/>
<g>
</g>
<g>
</g>
<g>
</g>
<g>
</g>
<g>
</g>
<g>
</g>
<g>
</g>
<g>
</g>
<g>
</g>
<g>
</g>
<g>
</g>
<g>
</g>
<g>
</g>
<g>
</g>
<g>
</g>
</svg>
