<?xml version="1.0" encoding="iso-8859-1"?>
<!-- Generator: Adobe Illustrator 19.0.0, SVG Export Plug-In . SVG Version: 6.00 Build 0)  -->
<svg version="1.1" id="Capa_1" xmlns="http://www.w3.org/2000/svg" xmlns:xlink="http://www.w3.org/1999/xlink" x="0px" y="0px"
	 viewBox="0 0 468.293 468.293" style="enable-background:new 0 0 468.293 468.293;" xml:space="preserve">
<path style="fill:#FCD462;" d="M444.612,422.842H23.681V105.94c0-6.369,5.163-11.532,11.532-11.532h73.703
	c4.101,0,7.894,2.178,9.961,5.721l13.509,23.155c2.067,3.543,5.86,5.721,9.961,5.721H433.08c6.369,0,11.532,5.163,11.532,11.532
	V422.842z"/>
<rect x="118.634" y="30.203" style="fill:#E1E6E9;" width="287.22" height="232.898"/>
<rect x="99.902" y="48.935" style="fill:#EBF0F3;" width="287.22" height="232.898"/>
<rect x="81.171" y="67.666" style="fill:#E1E6E9;" width="287.22" height="232.898"/>
<rect x="62.439" y="86.398" style="fill:#EBF0F3;" width="287.22" height="232.898"/>
<path style="fill:#F6C358;" d="M431.163,438.09H37.13c-5.81,0-10.713-4.323-11.441-10.087L0.093,225.36
	c-0.87-6.888,4.499-12.978,11.441-12.978h445.224c6.943,0,12.312,6.09,11.441,12.978l-25.596,202.642
	C441.876,433.767,436.973,438.09,431.163,438.09z"/>
<g>
</g>
<g>
</g>
<g>
</g>
<g>
</g>
<g>
</g>
<g>
</g>
<g>
</g>
<g>
</g>
<g>
</g>
<g>
</g>
<g>
</g>
<g>
</g>
<g>
</g>
<g>
</g>
<g>
</g>
</svg>
