<?xml version="1.0" encoding="iso-8859-1"?>
<!-- Generator: Adobe Illustrator 19.0.0, SVG Export Plug-In . SVG Version: 6.00 Build 0)  -->
<svg version="1.1" id="Capa_1" xmlns="http://www.w3.org/2000/svg" xmlns:xlink="http://www.w3.org/1999/xlink" x="0px" y="0px"
	 viewBox="0 0 468.293 468.293" style="enable-background:new 0 0 468.293 468.293;" xml:space="preserve">
<rect x="18.963" style="fill:#E1E6E9;" width="430.361" height="323.178"/>
<path style="fill:#64798A;" d="M452.21,34.538H16.083c-6.897,0-12.488-5.591-12.488-12.488v-9.563C3.595,5.591,9.186,0,16.083,0
	H452.21c6.897,0,12.488,5.591,12.488,12.488v9.563C464.698,28.947,459.107,34.538,452.21,34.538z"/>
<polygon style="fill:#3A556A;" points="184.569,453.194 233.848,391.944 283.131,453.194 314.702,453.194 246.144,367.995 
	246.144,323.178 221.552,323.178 221.552,367.997 153,453.194 "/>
<g>
	<path style="fill:#2F4859;" d="M147.336,453.194h38.329c4.169,0,7.55,3.38,7.55,7.55l0,0c0,4.169-3.38,7.55-7.55,7.55h-38.329
		c-4.169,0-7.55-3.38-7.55-7.55l0,0C139.786,456.574,143.166,453.194,147.336,453.194z"/>
	<path style="fill:#2F4859;" d="M282.037,453.194h38.329c4.169,0,7.55,3.38,7.55,7.55l0,0c0,4.169-3.38,7.55-7.55,7.55h-38.329
		c-4.169,0-7.55-3.38-7.55-7.55l0,0C274.488,456.574,277.868,453.194,282.037,453.194z"/>
</g>
<path style="fill:#27A2DB;" d="M358.819,128.404c0.056-0.281,0.113-0.556,0.146-0.839c0.059-0.496,0.065-0.993,0.055-1.496
	c-0.006-0.26,0.009-0.518-0.015-0.777c-0.05-0.554-0.168-1.1-0.305-1.648c-0.05-0.202-0.071-0.408-0.133-0.607
	c-0.23-0.735-0.529-1.459-0.926-2.156s-0.866-1.324-1.38-1.898c-0.14-0.155-0.306-0.278-0.454-0.425
	c-0.4-0.398-0.81-0.778-1.26-1.105c-0.21-0.154-0.439-0.273-0.66-0.411c-0.427-0.265-0.857-0.514-1.314-0.717
	c-0.26-0.117-0.526-0.208-0.796-0.303c-0.462-0.164-0.927-0.299-1.406-0.4c-0.148-0.032-0.285-0.099-0.434-0.124l-51.286-8.627
	c-5.969-1.006-11.605,3.015-12.617,8.98c-1.003,5.967,3.021,11.614,8.986,12.613l20.938,3.524l-76.311,43.397L204.581,151.9
	c-3.446-2.309-7.9-2.47-11.507-0.419l-78.266,44.509c-5.255,2.989-7.096,9.674-4.106,14.932c2.99,5.258,9.677,7.094,14.933,4.106
	l72.385-41.165l35.066,23.486c3.446,2.309,7.9,2.47,11.507,0.419l82.192-46.742l-7.676,19.796
	c-2.191,5.638,0.606,11.982,6.246,14.171c3.197,1.237,6.616,0.875,9.38-0.697c2.113-1.202,3.841-3.111,4.788-5.556l18.806-48.487
	c0.055-0.142,0.067-0.293,0.116-0.437C358.602,129.353,358.724,128.885,358.819,128.404z"/>
<g>
</g>
<g>
</g>
<g>
</g>
<g>
</g>
<g>
</g>
<g>
</g>
<g>
</g>
<g>
</g>
<g>
</g>
<g>
</g>
<g>
</g>
<g>
</g>
<g>
</g>
<g>
</g>
<g>
</g>
</svg>
