<?xml version="1.0" encoding="iso-8859-1"?>
<!-- Generator: Adobe Illustrator 19.0.0, SVG Export Plug-In . SVG Version: 6.00 Build 0)  -->
<svg version="1.1" id="Capa_1" xmlns="http://www.w3.org/2000/svg" xmlns:xlink="http://www.w3.org/1999/xlink" x="0px" y="0px"
	 viewBox="0 0 468.312 468.312" style="enable-background:new 0 0 468.312 468.312;" xml:space="preserve">
<path style="fill:#64798A;" d="M74.396,462.825L14.1,402.53c-7.315-7.315-7.315-19.175,0-26.491l132.577-132.577
	c4.877-4.877,12.784-4.877,17.66,0l69.125,69.125c4.877,4.877,4.877,12.784,0,17.66L100.886,462.825
	C93.571,470.14,81.711,470.14,74.396,462.825z"/>
<path style="fill:#1C75A1;" d="M237.316,288.307l-48.697-48.697c-4.877-4.877-12.784-4.877-17.66,0l-5.236,5.236l66.357,66.357
	l5.236-5.236C242.192,301.091,242.192,293.184,237.316,288.307z"/>
<polygon style="fill:#D5D6DB;" points="224.802,275.793 201.133,252.124 346.55,106.707 348.732,96.635 392.418,68.729 
	408.197,84.508 380.291,128.193 370.218,130.376 "/>
<path style="fill:#EBF0F3;" d="M174.336,294.7L60.923,408.113c-2.179,2.178-2.18,5.709,0,7.89L182.226,294.7
	C180.045,292.52,176.515,292.521,174.336,294.7z"/>
<path style="fill:#E1E6E9;" d="M182.226,294.7L60.923,416.003c2.18,2.18,5.711,2.178,7.89,0L182.226,302.59
	C184.404,300.411,184.406,296.88,182.226,294.7z"/>
<path style="fill:#EBF0F3;" d="M196.362,316.725L82.949,430.139c-2.178,2.178-2.18,5.709,0,7.89l121.303-121.303
	C202.071,314.545,198.54,314.547,196.362,316.725z"/>
<path style="fill:#E1E6E9;" d="M204.251,316.725L82.949,438.028c2.18,2.18,5.711,2.178,7.89,0l113.413-113.413
	C206.43,322.437,206.432,318.906,204.251,316.725z"/>
<path style="fill:#EBF0F3;" d="M152.311,272.674L38.898,386.088c-2.179,2.179-2.18,5.709,0,7.89L160.2,272.674
	C158.02,270.494,154.489,270.496,152.311,272.674z"/>
<path style="fill:#E1E6E9;" d="M160.2,272.674L38.898,393.977c2.18,2.18,5.711,2.178,7.89,0L160.2,280.564
	C162.379,278.386,162.381,274.855,160.2,272.674z"/>
<path style="fill:#D5D6DB;" d="M216.831,26.973C193.732,3.874,161.452-4.348,131.745,2.15l50.648,50.648
	c2.106,2.106,3.239,4.993,3.127,7.969l-2.099,55.729c-0.218,5.777-4.984,10.337-10.765,10.298l-52.877-0.357
	c-2.813-0.019-5.505-1.145-7.494-3.134L61.438,72.456c-7.326,33.492,4.057,70.254,34.377,93.444
	c21.546,16.48,49.039,21.942,74.612,16.653l203.066,203.069c19.72,19.721,51.694,19.721,71.414,0.001l0,0
	c19.721-19.72,19.721-51.694,0-71.414L241.813,111.112C247.933,81.666,239.686,49.829,216.831,26.973z"/>
<path style="fill:#64798A;" d="M419.632,360.291l-0.055,0.055c-6.253,6.253-16.391,6.253-22.644,0l-26.714-26.715
	c-6.253-6.253-6.253-16.391,0-22.644l0.055-0.055c6.253-6.253,16.391-6.253,22.644,0l26.714,26.715
	C425.885,343.9,425.885,354.038,419.632,360.291z"/>
<path style="fill:#E1E6E9;" d="M131.745,2.15l6.827,6.827c24.984-1.132,50.326,7.767,69.407,26.848
	c22.855,22.856,31.102,54.693,24.983,84.139L436.055,323.06c18.219,18.219,19.566,46.874,4.123,66.686
	c1.633-1.273,3.226-2.621,4.728-4.123l0,0c19.72-19.72,19.721-51.693,0-71.414L241.813,111.112
	c6.12-29.446-2.127-61.283-24.983-84.139C193.731,3.873,161.452-4.348,131.745,2.15z"/>
<g>
</g>
<g>
</g>
<g>
</g>
<g>
</g>
<g>
</g>
<g>
</g>
<g>
</g>
<g>
</g>
<g>
</g>
<g>
</g>
<g>
</g>
<g>
</g>
<g>
</g>
<g>
</g>
<g>
</g>
</svg>
