<?xml version="1.0" encoding="iso-8859-1"?>
<!-- Generator: Adobe Illustrator 19.0.0, SVG Export Plug-In . SVG Version: 6.00 Build 0)  -->
<svg version="1.1" id="Capa_1" xmlns="http://www.w3.org/2000/svg" xmlns:xlink="http://www.w3.org/1999/xlink" x="0px" y="0px"
	 viewBox="0 0 468.293 468.293" style="enable-background:new 0 0 468.293 468.293;" xml:space="preserve">
<path style="fill:#3B566A;" d="M116.6,468.293c-2.214,0-4.463-0.507-6.575-1.577c-7.179-3.638-10.053-12.407-6.416-19.586
	l66.474-111.688c3.638-7.181,12.404-10.059,19.589-6.413c7.179,3.638,10.053,12.407,6.416,19.586l-66.474,111.688
	C127.046,465.372,121.917,468.293,116.6,468.293z"/>
<path style="fill:#3B566A;" d="M351.834,468.293c2.214,0,4.463-0.507,6.575-1.577c7.179-3.638,10.053-12.407,6.416-19.586
	l-66.474-111.688c-3.638-7.181-12.404-10.059-19.589-6.413c-7.179,3.638-10.053,12.407-6.416,19.586l66.474,111.688
	C341.388,465.372,346.517,468.293,351.834,468.293z"/>
<g>
	<path style="fill:#64798A;" d="M452.818,40.805H15.616v-15.83C15.616,11.182,26.798,0,40.592,0h387.25
		c13.794,0,24.976,11.182,24.976,24.976V40.805z"/>
	<path style="fill:#64798A;" d="M427.701,364.155H40.451c-13.794,0-24.976-11.182-24.976-24.976v-15.83h437.202v15.83
		C452.677,352.973,441.495,364.155,427.701,364.155z"/>
</g>
<rect x="38.057" y="40.835" style="fill:#E1E6E9;" width="392.317" height="282.537"/>
<path style="fill:#44C4A1;" d="M315.388,288.224H153.046c-13.794,0-24.976-11.182-24.976-24.976V100.907
	c0-13.794,11.182-24.976,24.976-24.976h162.341c13.794,0,24.976,11.182,24.976,24.976v162.341
	C340.363,277.042,329.181,288.224,315.388,288.224z"/>
<path style="fill:#E1E6E9;" d="M187.928,128.098v107.959c0,10.003,11.173,15.946,19.467,10.355l80.089-53.98
	c7.345-4.95,7.344-15.761,0-20.711l-80.089-53.979C199.101,112.152,187.928,118.095,187.928,128.098z"/>
<g>
</g>
<g>
</g>
<g>
</g>
<g>
</g>
<g>
</g>
<g>
</g>
<g>
</g>
<g>
</g>
<g>
</g>
<g>
</g>
<g>
</g>
<g>
</g>
<g>
</g>
<g>
</g>
<g>
</g>
</svg>
