<?xml version="1.0" encoding="iso-8859-1"?>
<!-- Generator: Adobe Illustrator 19.0.0, SVG Export Plug-In . SVG Version: 6.00 Build 0)  -->
<svg version="1.1" id="Capa_1" xmlns="http://www.w3.org/2000/svg" xmlns:xlink="http://www.w3.org/1999/xlink" x="0px" y="0px"
	 viewBox="0 0 468.293 468.293" style="enable-background:new 0 0 468.293 468.293;" xml:space="preserve">
<g>
	<path style="fill:#64798A;" d="M88.014,64.22h-31.22V51.732h31.22c3.448,0,6.244,2.795,6.244,6.244v0
		C94.258,61.424,91.462,64.22,88.014,64.22z"/>
	<path style="fill:#64798A;" d="M81.77,96.956H56.794V84.469H81.77c3.448,0,6.244,2.795,6.244,6.244v0
		C88.014,94.161,85.218,96.956,81.77,96.956z"/>
	<path style="fill:#64798A;" d="M88.014,129.693h-31.22v-12.488h31.22c3.448,0,6.244,2.795,6.244,6.244v0
		C94.258,126.897,91.462,129.693,88.014,129.693z"/>
	<path style="fill:#64798A;" d="M81.77,162.429H56.794v-12.488H81.77c3.448,0,6.244,2.795,6.244,6.244l0,0
		C88.014,159.634,85.218,162.429,81.77,162.429z"/>
	<path style="fill:#64798A;" d="M88.014,195.166h-31.22v-12.488h31.22c3.448,0,6.244,2.795,6.244,6.244v0
		C94.258,192.37,91.462,195.166,88.014,195.166z"/>
	<path style="fill:#64798A;" d="M81.77,227.902H56.794v-12.488H81.77c3.448,0,6.244,2.796,6.244,6.244l0,0
		C88.014,225.107,85.218,227.902,81.77,227.902z"/>
	<path style="fill:#64798A;" d="M88.014,260.639h-31.22v-12.488h31.22c3.448,0,6.244,2.796,6.244,6.244v0
		C94.258,257.843,91.462,260.639,88.014,260.639z"/>
	<path style="fill:#64798A;" d="M81.77,293.375H56.794v-12.488H81.77c3.448,0,6.244,2.795,6.244,6.244v0
		C88.014,290.58,85.218,293.375,81.77,293.375z"/>
	<path style="fill:#64798A;" d="M88.014,326.112h-31.22v-12.488h31.22c3.448,0,6.244,2.795,6.244,6.244l0,0
		C94.258,323.316,91.462,326.112,88.014,326.112z"/>
	<path style="fill:#64798A;" d="M81.77,358.848H56.794v-12.488H81.77c3.448,0,6.244,2.796,6.244,6.244l0,0
		C88.014,356.053,85.218,358.848,81.77,358.848z"/>
	<path style="fill:#64798A;" d="M88.014,391.585h-31.22v-12.488h31.22c3.448,0,6.244,2.795,6.244,6.244l0,0
		C94.258,388.789,91.462,391.585,88.014,391.585z"/>
</g>
<path style="fill:#D5D6DB;" d="M49.951,468.293L49.951,468.293c-10.345,0-18.732-8.386-18.732-18.732V18.732
	C31.219,8.386,39.606,0,49.951,0h0c10.345,0,18.732,8.386,18.732,18.732v430.829C68.683,459.906,60.296,468.293,49.951,468.293z"/>
<path style="fill:#64798A;" d="M0,455.805l0-12.488c0-6.897,5.591-12.488,12.488-12.488l443.317,0
	c6.897,0,12.488,5.591,12.488,12.488v12.488c0,6.897-5.591,12.488-12.488,12.488l-443.317,0C5.591,468.293,0,462.702,0,455.805z"/>
<rect x="133.638" y="359.087" style="fill:#FCD462;" width="40.866" height="72.186"/>
<rect x="199.655" y="222.658" style="fill:#64798A;" width="40.866" height="208.59"/>
<rect x="264.841" y="286.658" style="fill:#27A2DB;" width="40.866" height="144.609"/>
<rect x="330.864" y="229.9" style="fill:#E56353;" width="40.866" height="201.366"/>
<rect x="396.862" y="99.522" style="fill:#44C4A1;" width="40.866" height="331.739"/>
<g>
</g>
<g>
</g>
<g>
</g>
<g>
</g>
<g>
</g>
<g>
</g>
<g>
</g>
<g>
</g>
<g>
</g>
<g>
</g>
<g>
</g>
<g>
</g>
<g>
</g>
<g>
</g>
<g>
</g>
</svg>
