<?xml version="1.0" encoding="iso-8859-1"?>
<!-- Generator: Adobe Illustrator 19.0.0, SVG Export Plug-In . SVG Version: 6.00 Build 0)  -->
<svg version="1.1" id="Capa_1" xmlns="http://www.w3.org/2000/svg" xmlns:xlink="http://www.w3.org/1999/xlink" x="0px" y="0px"
	 viewBox="0 0 468.293 468.293" style="enable-background:new 0 0 468.293 468.293;" xml:space="preserve">
<path style="fill:#64798A;" d="M408.976,468.293H59.317c-6.897,0-12.488-5.591-12.488-12.488V12.488C46.829,5.591,52.42,0,59.317,0
	h349.659c6.897,0,12.488,5.591,12.488,12.488v443.317C421.463,462.702,415.872,468.293,408.976,468.293z"/>
<path style="fill:#3A556A;" d="M421.463,166.794H46.829V12.488C46.829,5.591,52.42,0,59.317,0h349.659
	c6.897,0,12.488,5.591,12.488,12.488V166.794z"/>
<rect x="74.933" y="33.861" style="fill:#3EA69B;" width="318.439" height="99.091"/>
<polygon style="fill:#44C4A1;" points="393.373,33.861 393.373,132.952 74.934,132.952 "/>
<g>
	<path style="fill:#E1E6E9;" d="M131.621,257.085H81.171c-3.448,0-6.244-2.795-6.244-6.244v-50.451c0-3.448,2.795-6.244,6.244-6.244
		h50.451c3.448,0,6.244,2.795,6.244,6.244v50.451C137.865,254.29,135.07,257.085,131.621,257.085z"/>
	<path style="fill:#E1E6E9;" d="M216.788,257.085h-50.451c-3.448,0-6.244-2.795-6.244-6.244v-50.451
		c0-3.448,2.796-6.244,6.244-6.244h50.451c3.448,0,6.244,2.795,6.244,6.244v50.451C223.032,254.29,220.237,257.085,216.788,257.085z
		"/>
	<path style="fill:#E1E6E9;" d="M301.955,257.085h-50.451c-3.448,0-6.244-2.795-6.244-6.244v-50.451
		c0-3.448,2.795-6.244,6.244-6.244h50.451c3.448,0,6.244,2.795,6.244,6.244v50.451C308.199,254.29,305.403,257.085,301.955,257.085z
		"/>
</g>
<path style="fill:#27A2DB;" d="M387.122,257.085h-50.451c-3.448,0-6.244-2.795-6.244-6.244v-50.451c0-3.448,2.795-6.244,6.244-6.244
	h50.451c3.448,0,6.244,2.795,6.244,6.244v50.451C393.366,254.29,390.57,257.085,387.122,257.085z"/>
<g>
	<path style="fill:#E1E6E9;" d="M131.621,344.346H81.171c-3.448,0-6.244-2.796-6.244-6.244v-50.451c0-3.448,2.795-6.244,6.244-6.244
		h50.451c3.448,0,6.244,2.795,6.244,6.244v50.451C137.865,341.551,135.07,344.346,131.621,344.346z"/>
	<path style="fill:#E1E6E9;" d="M216.788,344.346h-50.451c-3.448,0-6.244-2.796-6.244-6.244v-50.451
		c0-3.448,2.796-6.244,6.244-6.244h50.451c3.448,0,6.244,2.795,6.244,6.244v50.451C223.032,341.551,220.237,344.346,216.788,344.346
		z"/>
	<path style="fill:#E1E6E9;" d="M301.955,344.346h-50.451c-3.448,0-6.244-2.796-6.244-6.244v-50.451
		c0-3.448,2.795-6.244,6.244-6.244h50.451c3.448,0,6.244,2.795,6.244,6.244v50.451C308.199,341.551,305.403,344.346,301.955,344.346
		z"/>
	<path style="fill:#E1E6E9;" d="M137.873,374.903v50.45c0,3.434-2.809,6.244-6.244,6.244H81.178c-3.434,0-6.244-2.809-6.244-6.244
		v-50.45c0-3.434,2.81-6.244,6.244-6.244h50.451C135.064,368.659,137.873,371.469,137.873,374.903z"/>
	<path style="fill:#E1E6E9;" d="M223.04,374.903v50.45c0,3.434-2.81,6.244-6.244,6.244h-50.45c-3.434,0-6.244-2.809-6.244-6.244
		v-50.45c0-3.434,2.809-6.244,6.244-6.244h50.45C220.23,368.659,223.04,371.469,223.04,374.903z"/>
	<path style="fill:#E1E6E9;" d="M308.207,374.903v50.45c0,3.434-2.809,6.244-6.244,6.244h-50.451c-3.434,0-6.244-2.809-6.244-6.244
		v-50.45c0-3.434,2.81-6.244,6.244-6.244h50.451C305.398,368.659,308.207,371.469,308.207,374.903z"/>
</g>
<path style="fill:#E56353;" d="M393.373,287.675v137.678c0,3.434-2.809,6.244-6.244,6.244h-50.45c-3.434,0-6.244-2.809-6.244-6.244
	V287.675c0-3.496,2.809-6.244,6.244-6.244h50.45C390.564,281.432,393.373,284.179,393.373,287.675z"/>
<g>
	<path style="fill:#D5D6DB;" d="M74.934,420.795h62.939v4.558c0,3.434-2.809,6.244-6.244,6.244H81.178
		c-3.434,0-6.244-2.809-6.244-6.244V420.795z"/>
	<path style="fill:#D5D6DB;" d="M160.102,420.795h62.938v4.558c0,3.434-2.81,6.244-6.244,6.244h-50.45
		c-3.434,0-6.244-2.809-6.244-6.244V420.795z"/>
	<path style="fill:#D5D6DB;" d="M308.207,420.795v4.558c0,3.434-2.809,6.244-6.244,6.244h-50.451c-3.434,0-6.244-2.809-6.244-6.244
		v-4.558H308.207z"/>
	<path style="fill:#D5D6DB;" d="M74.934,333.545h62.939v4.558c0,3.434-2.809,6.244-6.244,6.244H81.178
		c-3.434,0-6.244-2.809-6.244-6.244V333.545z"/>
	<path style="fill:#D5D6DB;" d="M160.102,333.545h62.938v4.558c0,3.434-2.81,6.244-6.244,6.244h-50.45
		c-3.434,0-6.244-2.809-6.244-6.244V333.545z"/>
	<path style="fill:#D5D6DB;" d="M308.207,333.545v4.558c0,3.434-2.809,6.244-6.244,6.244h-50.451c-3.434,0-6.244-2.809-6.244-6.244
		v-4.558H308.207z"/>
	<path style="fill:#D5D6DB;" d="M74.934,246.283h62.939v4.558c0,3.434-2.809,6.244-6.244,6.244H81.178
		c-3.434,0-6.244-2.809-6.244-6.244V246.283z"/>
	<path style="fill:#D5D6DB;" d="M160.102,246.283h62.938v4.558c0,3.434-2.81,6.244-6.244,6.244h-50.45
		c-3.434,0-6.244-2.809-6.244-6.244V246.283z"/>
	<path style="fill:#D5D6DB;" d="M308.207,246.283v4.558c0,3.434-2.809,6.244-6.244,6.244h-50.451c-3.434,0-6.244-2.809-6.244-6.244
		v-4.558H308.207z"/>
</g>
<path style="fill:#2D93BA;" d="M393.366,245.638v4.558c0,3.434-2.809,6.244-6.244,6.244h-50.451c-3.434,0-6.244-2.809-6.244-6.244
	v-4.558H393.366z"/>
<path style="fill:#D15241;" d="M393.373,420.795v4.558c0,3.434-2.809,6.244-6.244,6.244h-50.45c-3.434,0-6.244-2.809-6.244-6.244
	v-4.558H393.373z"/>
<g>
</g>
<g>
</g>
<g>
</g>
<g>
</g>
<g>
</g>
<g>
</g>
<g>
</g>
<g>
</g>
<g>
</g>
<g>
</g>
<g>
</g>
<g>
</g>
<g>
</g>
<g>
</g>
<g>
</g>
</svg>
