<?xml version="1.0" encoding="iso-8859-1"?>
<!-- Generator: Adobe Illustrator 19.0.0, SVG Export Plug-In . SVG Version: 6.00 Build 0)  -->
<svg version="1.1" id="Capa_1" xmlns="http://www.w3.org/2000/svg" xmlns:xlink="http://www.w3.org/1999/xlink" x="0px" y="0px"
	 viewBox="0 0 490.459 490.459" style="enable-background:new 0 0 490.459 490.459;" xml:space="preserve">
<path style="fill:#3B566A;" d="M475.898,103.187c-2.668-3.046-6.52-4.795-10.571-4.795H112.741l-12.323-86.33
	C99.43,5.141,93.503,0,86.509,0H25.132c-7.758,0-14.049,6.29-14.049,14.049s6.29,14.049,14.049,14.049h49.191l43.381,303.869
	l-15.006,23.241c-8.379,12.972-8.997,29.456-1.612,43.021c7.388,13.562,21.57,21.989,37.015,21.989H406.79
	c7.758,0,14.049-6.29,14.049-14.049s-6.29-14.049-14.049-14.049H138.101c-7.532,0-11.137-5.124-12.337-7.33
	c-1.2-2.202-3.55-8.012,0.538-14.34l14.21-22.008l300.414-29.145c6.496-0.631,11.703-5.652,12.567-12.125l16.479-123.391
	c0.462-1.393,0.773-2.854,0.773-4.402c0-0.271-0.065-0.523-0.08-0.791l8.586-64.288
	C479.788,110.287,478.567,106.237,475.898,103.187z M269.081,165.33h-46.104v-38.84h46.104V165.33z M297.178,126.49h46.104v38.84
	h-46.104V126.49z M269.081,193.427v42.146h-46.104v-42.146H269.081z M194.879,235.573h-62.552l-6.017-42.146h68.569V235.573z
	 M136.339,263.671h58.54v51.266l-50.522,4.901L136.339,263.671z M222.977,263.671h46.104v44.067l-46.104,4.473V263.671z
	 M297.178,263.671h46.104v36.869l-46.104,4.473V263.671z M297.178,235.573v-42.146h46.104v42.146H297.178z M371.38,193.427h68.959
	l-5.629,42.146H371.38V193.427z M444.091,165.33H371.38v-38.84h77.899L444.091,165.33z M194.879,126.49v38.84h-72.581l-5.545-38.84
	H194.879z M371.38,297.813v-34.143h59.577l-3.838,28.735L371.38,297.813z"/>
<circle style="fill:#1C75A1;" cx="154.649" cy="455.337" r="35.122"/>
<circle style="fill:#E1E6E9;" cx="154.649" cy="455.337" r="21.073"/>
<circle style="fill:#1C75A1;" cx="353.187" cy="455.337" r="35.122"/>
<circle style="fill:#E1E6E9;" cx="353.187" cy="455.337" r="21.073"/>
<g>
</g>
<g>
</g>
<g>
</g>
<g>
</g>
<g>
</g>
<g>
</g>
<g>
</g>
<g>
</g>
<g>
</g>
<g>
</g>
<g>
</g>
<g>
</g>
<g>
</g>
<g>
</g>
<g>
</g>
</svg>
