<?xml version="1.0" encoding="iso-8859-1"?>
<!-- Generator: Adobe Illustrator 19.0.0, SVG Export Plug-In . SVG Version: 6.00 Build 0)  -->
<svg version="1.1" id="Capa_1" xmlns="http://www.w3.org/2000/svg" xmlns:xlink="http://www.w3.org/1999/xlink" x="0px" y="0px"
	 viewBox="0 0 468.293 468.293" style="enable-background:new 0 0 468.293 468.293;" xml:space="preserve">
<path style="fill:#3EA69B;" d="M400.187,334.049H68.107V84.293c0-6.897,5.591-12.488,12.488-12.488h307.104
	c6.897,0,12.488,5.591,12.488,12.488V334.049z"/>
<path style="fill:#44C4A1;" d="M422.04,359.024H46.253V109.268c0-6.897,5.591-12.488,12.488-12.488h350.811
	c6.897,0,12.488,5.591,12.488,12.488V359.024z"/>
<path style="fill:#3EA69B;" d="M447.165,377.756H21.127V134.244c0-6.897,5.591-12.488,12.488-12.488h401.063
	c6.897,0,12.488,5.591,12.488,12.488V377.756z"/>
<path style="fill:#44C4A1;" d="M455.805,396.488H12.488C5.591,396.488,0,390.897,0,384V159.22c0-6.897,5.591-12.488,12.488-12.488
	h443.317c6.897,0,12.488,5.591,12.488,12.488V384C468.293,390.897,462.702,396.488,455.805,396.488z"/>
<path style="fill:#FFFFFF;" d="M31.22,321.631V221.59c24.101,0,43.638-19.537,43.638-43.638h318.577
	c0,24.101,19.537,43.638,43.638,43.638v100.041c-24.101,0-43.638,19.537-43.638,43.638H74.858
	C74.858,341.169,55.321,321.631,31.22,321.631z"/>
<circle style="fill:#3EA69B;" cx="234.146" cy="271.61" r="74.927"/>
<circle style="fill:#E1E6E9;" cx="234.146" cy="271.61" r="62.439"/>
<path style="fill:#31978C;" d="M231.377,323.863v-9.202c-11.521-1.175-21.862-5.755-31.013-13.737l9.202-10.967
	c7.058,6.135,14.322,9.787,21.811,10.967v-24.458c-9.5-2.267-16.456-5.253-20.867-8.951c-4.411-3.698-6.617-9.182-6.617-16.45
	c0-7.269,2.534-13.214,7.623-17.841c5.089-4.622,11.706-7.14,19.862-7.561v-6.304h8.064v6.427
	c9.243,0.677,17.984,3.827,26.222,9.459l-8.197,11.598c-5.55-3.95-11.552-6.386-18.025-7.315v23.699h0.38
	c9.664,2.272,16.763,5.34,21.298,9.202c4.545,3.868,6.812,9.479,6.812,16.83c0,7.356-2.606,13.347-7.817,17.964
	c-5.212,4.627-12.095,7.145-20.672,7.566v9.074H231.377z M222.482,242.493c-2.144,1.888-3.211,4.242-3.211,7.058
	s0.841,5.042,2.524,6.679c1.672,1.641,4.873,3.216,9.582,4.729v-21.811C227.591,239.487,224.627,240.6,222.482,242.493z
	 M249.023,297.769c2.349-1.929,3.529-4.365,3.529-7.31c0-2.939-0.923-5.273-2.77-6.997c-1.857-1.724-5.304-3.339-10.341-4.853
	v22.688C243.473,300.883,246.663,299.703,249.023,297.769z"/>
<g>
</g>
<g>
</g>
<g>
</g>
<g>
</g>
<g>
</g>
<g>
</g>
<g>
</g>
<g>
</g>
<g>
</g>
<g>
</g>
<g>
</g>
<g>
</g>
<g>
</g>
<g>
</g>
<g>
</g>
</svg>
