<?xml version="1.0" encoding="iso-8859-1"?>
<!-- Generator: Adobe Illustrator 19.0.0, SVG Export Plug-In . SVG Version: 6.00 Build 0)  -->
<svg version="1.1" id="Capa_1" xmlns="http://www.w3.org/2000/svg" xmlns:xlink="http://www.w3.org/1999/xlink" x="0px" y="0px"
	 viewBox="0 0 468.293 468.293" style="enable-background:new 0 0 468.293 468.293;" xml:space="preserve">
<rect y="107.926" style="fill:#27A2DB;" width="468.293" height="357.588"/>
<g>
	<polygon style="fill:#2D93BA;" points="365.443,2.771 102.849,2.771 0,107.928 468.293,107.928 	"/>
	<polygon style="fill:#2D93BA;" points="365.443,2.771 102.849,2.771 0,107.928 468.293,107.928 	"/>
</g>
<polygon style="fill:#E1E6E9;" points="269.78,2.771 213.212,2.771 196.814,107.928 286.178,107.928 "/>
<g>
	<polygon style="fill:#D5D6DB;" points="286.043,210.449 274.906,197.961 263.77,210.449 252.633,197.961 241.496,210.449 
		230.359,197.961 219.223,210.449 208.086,197.961 196.949,210.449 196.949,107.881 286.043,107.881 	"/>
	<polygon style="fill:#D5D6DB;" points="286.043,465.522 196.949,465.522 196.949,364.103 208.086,376.591 219.223,364.103 
		230.359,376.591 241.496,364.103 252.633,376.591 263.77,364.103 274.906,376.591 286.043,364.103 	"/>
</g>
<g>
</g>
<g>
</g>
<g>
</g>
<g>
</g>
<g>
</g>
<g>
</g>
<g>
</g>
<g>
</g>
<g>
</g>
<g>
</g>
<g>
</g>
<g>
</g>
<g>
</g>
<g>
</g>
<g>
</g>
</svg>
