<?xml version="1.0" encoding="iso-8859-1"?>
<!-- Generator: Adobe Illustrator 19.0.0, SVG Export Plug-In . SVG Version: 6.00 Build 0)  -->
<svg version="1.1" id="Capa_1" xmlns="http://www.w3.org/2000/svg" xmlns:xlink="http://www.w3.org/1999/xlink" x="0px" y="0px"
	 viewBox="0 0 468.293 468.293" style="enable-background:new 0 0 468.293 468.293;" xml:space="preserve">
<path style="fill:#E1E6E9;" d="M126.391,15.412L44.115,97.687v275.731h380.064V35.772c0-11.245-9.116-20.361-20.361-20.361H126.391z
	"/>
<polygon style="fill:#EBF0F3;" points="126.391,97.686 126.391,15.407 44.115,97.688 "/>
<path style="fill:#DC8744;" d="M328.623,272.137c-9.418,0-17.874,6.4-19.793,15.62c-7.208,34.638-37.907,60.664-74.683,60.664
	s-67.476-26.026-74.683-60.664c-1.919-9.22-10.375-15.62-19.793-15.62H20.361C9.116,272.137,0,281.253,0,292.498v119.666
	c0,22.49,18.231,40.721,40.721,40.721h386.85c22.49,0,40.721-18.231,40.721-40.721V292.498c0-11.245-9.116-20.361-20.361-20.361
	H328.623z"/>
<path style="fill:#F6C358;" d="M151.983,308.118c7.93,34.637,41.703,60.664,82.163,60.664c40.461,0,74.234-26.027,82.163-60.664
	c2.111-9.219,11.414-15.62,21.775-15.62h130.208c0-11.246-9.116-20.361-20.361-20.361H328.623c-9.418,0-17.874,6.401-19.793,15.62
	c-7.208,34.637-37.906,60.664-74.684,60.664c-36.777,0-67.475-26.027-74.683-60.664c-1.919-9.219-10.375-15.62-19.793-15.62H20.361
	C9.116,272.137,0,281.252,0,292.498h130.208C140.569,292.498,149.872,298.899,151.983,308.118z"/>
<g>
	<path style="fill:#D5D6DB;" d="M378.417,90.902H190.072c-3.748,0-6.787,3.036-6.787,6.787c0,3.751,3.039,6.787,6.787,6.787h188.345
		c3.748,0,6.787-3.036,6.787-6.787C385.204,93.938,382.165,90.902,378.417,90.902z"/>
	<path style="fill:#D5D6DB;" d="M375.827,150.753H92.466c-3.748,0-6.787,3.036-6.787,6.787s3.039,6.787,6.787,6.787h283.361
		c3.748,0,6.787-3.036,6.787-6.787S379.575,150.753,375.827,150.753z"/>
	<path style="fill:#D5D6DB;" d="M375.827,210.604H92.466c-3.748,0-6.787,3.036-6.787,6.787s3.039,6.787,6.787,6.787h283.361
		c3.748,0,6.787-3.036,6.787-6.787S379.575,210.604,375.827,210.604z"/>
</g>
<g>
</g>
<g>
</g>
<g>
</g>
<g>
</g>
<g>
</g>
<g>
</g>
<g>
</g>
<g>
</g>
<g>
</g>
<g>
</g>
<g>
</g>
<g>
</g>
<g>
</g>
<g>
</g>
<g>
</g>
</svg>
