<?xml version="1.0" encoding="iso-8859-1"?>
<!-- Generator: Adobe Illustrator 19.0.0, SVG Export Plug-In . SVG Version: 6.00 Build 0)  -->
<svg version="1.1" id="Capa_1" xmlns="http://www.w3.org/2000/svg" xmlns:xlink="http://www.w3.org/1999/xlink" x="0px" y="0px"
	 viewBox="0 0 468.293 468.293" style="enable-background:new 0 0 468.293 468.293;" xml:space="preserve">
<path style="fill:#DC8744;" d="M455.805,125.853H12.488C5.591,125.853,0,120.262,0,113.365v-12.488
	c0-6.897,5.591-12.488,12.488-12.488h443.317c6.897,0,12.488,5.591,12.488,12.488v12.488
	C468.293,120.262,462.702,125.853,455.805,125.853z"/>
<g>
	<rect x="28.597" y="125.465" style="fill:#F6C358;" width="28.098" height="254.439"/>
	<rect x="411.598" y="125.465" style="fill:#F6C358;" width="28.098" height="254.439"/>
</g>
<rect x="270.373" y="123.129" style="fill:#DC8744;" width="141.231" height="209.489"/>
<g>
	<rect x="288.955" y="125.465" style="fill:#44C4A1;" width="104.067" height="49.951"/>
	<rect x="288.955" y="194.216" style="fill:#44C4A1;" width="104.067" height="49.951"/>
	<rect x="288.955" y="262.899" style="fill:#44C4A1;" width="104.067" height="49.951"/>
</g>
<g>
	<circle style="fill:#E1E6E9;" cx="340.979" cy="150.44" r="9.366"/>
	<circle style="fill:#E1E6E9;" cx="340.979" cy="219.192" r="9.366"/>
	<circle style="fill:#E1E6E9;" cx="340.979" cy="287.875" r="9.366"/>
</g>
<rect x="56.688" y="278.54" style="fill:#FCD462;" width="213.666" height="18.732"/>
<g>
</g>
<g>
</g>
<g>
</g>
<g>
</g>
<g>
</g>
<g>
</g>
<g>
</g>
<g>
</g>
<g>
</g>
<g>
</g>
<g>
</g>
<g>
</g>
<g>
</g>
<g>
</g>
<g>
</g>
</svg>
