<?xml version="1.0" encoding="iso-8859-1"?>
<!-- Generator: Adobe Illustrator 19.0.0, SVG Export Plug-In . SVG Version: 6.00 Build 0)  -->
<svg version="1.1" id="Capa_1" xmlns="http://www.w3.org/2000/svg" xmlns:xlink="http://www.w3.org/1999/xlink" x="0px" y="0px"
	 viewBox="0 0 468.3 468.3" style="enable-background:new 0 0 468.3 468.3;" xml:space="preserve">
<g>
	<rect x="211.05" y="202" style="fill:#2D93BA;" width="46.3" height="103.3"/>
	<rect x="224.85" y="305.4" style="fill:#2D93BA;" width="18.5" height="134.2"/>
</g>
<g>
	<path style="fill:#64798A;" d="M234.15,225.2L234.15,225.2c-63.5,0-114.9-51.4-114.9-114.9V71.2c0-39.3,31.9-71.2,71.2-71.2h87.4
		c39.3,0,71.2,31.9,71.2,71.2v39.1C349.05,173.7,297.65,225.2,234.15,225.2z"/>
	<path style="fill:#64798A;" d="M365.35,290.7c0,17.5-58.7,50.1-131.2,50.1s-131.2-32.7-131.2-50.1s58.7-13.1,131.2-13.1
		S365.35,273.3,365.35,290.7z"/>
</g>
<circle style="fill:#3A556A;" cx="234.15" cy="440.5" r="27.8"/>
<circle style="fill:#D5D6DB;" cx="234.15" cy="440.5" r="14.4"/>
<path style="fill:#2D93BA;" d="M364.45,432.7h-25V390c0-0.8-0.6-1.4-1.4-1.4h-207.8c-0.8,0-1.4,0.6-1.4,1.4v42.7h-25V390
	c0-14.5,11.8-26.4,26.4-26.4h207.9c14.5,0,26.4,11.8,26.4,26.4v42.7H364.45z"/>
<circle style="fill:#3A556A;" cx="351.95" cy="440.5" r="27.8"/>
<circle style="fill:#D5D6DB;" cx="351.95" cy="440.5" r="14.4"/>
<circle style="fill:#3A556A;" cx="116.35" cy="440.5" r="27.8"/>
<circle style="fill:#D5D6DB;" cx="116.35" cy="440.5" r="14.4"/>
<g>
</g>
<g>
</g>
<g>
</g>
<g>
</g>
<g>
</g>
<g>
</g>
<g>
</g>
<g>
</g>
<g>
</g>
<g>
</g>
<g>
</g>
<g>
</g>
<g>
</g>
<g>
</g>
<g>
</g>
</svg>
