<?xml version="1.0" encoding="iso-8859-1"?>
<!-- Generator: Adobe Illustrator 19.0.0, SVG Export Plug-In . SVG Version: 6.00 Build 0)  -->
<svg version="1.1" id="Capa_1" xmlns="http://www.w3.org/2000/svg" xmlns:xlink="http://www.w3.org/1999/xlink" x="0px" y="0px"
	 viewBox="0 0 468.293 468.293" style="enable-background:new 0 0 468.293 468.293;" xml:space="preserve">
<g>
	<polygon style="fill:#D5D6DB;" points="454.765,185.394 468.293,173.448 320.656,173.448 320.656,316.813 468.293,316.813 
		454.765,304.865 468.293,292.919 454.765,280.971 468.293,269.025 454.765,257.078 468.293,245.131 454.765,233.184 
		468.293,221.236 454.765,209.29 468.293,197.342 	"/>
	<ellipse style="fill:#D5D6DB;" cx="165.588" cy="156.359" rx="165.576" ry="68.664"/>
</g>
<path style="fill:#E1E6E9;" d="M0,311.933c0,37.923,74.131,68.665,165.577,68.665s165.577-30.742,165.577-68.665V156.359
	c0,37.923-74.131,68.665-165.577,68.665S0,194.282,0,156.359V311.933z"/>
<ellipse style="fill:#2F4859;" cx="165.588" cy="156.359" rx="104.048" ry="35.453"/>
<g>
</g>
<g>
</g>
<g>
</g>
<g>
</g>
<g>
</g>
<g>
</g>
<g>
</g>
<g>
</g>
<g>
</g>
<g>
</g>
<g>
</g>
<g>
</g>
<g>
</g>
<g>
</g>
<g>
</g>
</svg>
