<?xml version="1.0" encoding="iso-8859-1"?>
<!-- Generator: Adobe Illustrator 19.0.0, SVG Export Plug-In . SVG Version: 6.00 Build 0)  -->
<svg version="1.1" id="Capa_1" xmlns="http://www.w3.org/2000/svg" xmlns:xlink="http://www.w3.org/1999/xlink" x="0px" y="0px"
	 viewBox="0 0 468.293 468.293" style="enable-background:new 0 0 468.293 468.293;" xml:space="preserve">
<rect x="109.268" y="68.608" style="fill:#E1E6E9;" width="249.756" height="139.764"/>
<rect x="65.561" y="117.535" style="fill:#EBF0F3;" width="337.171" height="139.764"/>
<rect x="34.341" y="169.172" style="fill:#E1E6E9;" width="399.61" height="139.764"/>
<path style="fill:#DC8744;" d="M330.355,239.228l-13.052,39.303c-1.696,5.106-6.471,8.552-11.851,8.552H162.841
	c-5.38,0-10.156-3.446-11.851-8.552l-13.052-39.303c-1.696-5.106-6.471-8.552-11.851-8.552H12.488
	C5.591,230.676,0,236.267,0,243.163v131.546c0,13.794,11.182,24.976,24.976,24.976h418.341c13.794,0,24.976-11.182,24.976-24.976
	V243.163c0-6.897-5.591-12.488-12.488-12.488H342.207C336.826,230.676,332.051,234.122,330.355,239.228z"/>
<path style="fill:#FCD462;" d="M279.564,342.85h-90.835c-5.171,0-9.366,4.195-9.366,9.366c0,5.171,4.195,9.366,9.366,9.366h90.835
	c5.171,0,9.366-4.195,9.366-9.366C288.93,347.045,284.735,342.85,279.564,342.85z"/>
<g>
</g>
<g>
</g>
<g>
</g>
<g>
</g>
<g>
</g>
<g>
</g>
<g>
</g>
<g>
</g>
<g>
</g>
<g>
</g>
<g>
</g>
<g>
</g>
<g>
</g>
<g>
</g>
<g>
</g>
</svg>
