<?xml version="1.0" encoding="iso-8859-1"?>
<!-- Generator: Adobe Illustrator 19.0.0, SVG Export Plug-In . SVG Version: 6.00 Build 0)  -->
<svg version="1.1" id="Capa_1" xmlns="http://www.w3.org/2000/svg" xmlns:xlink="http://www.w3.org/1999/xlink" x="0px" y="0px"
	 viewBox="0 0 468.293 468.293" style="enable-background:new 0 0 468.293 468.293;" xml:space="preserve">
<rect x="0" y="120.551" style="fill:#DC8744;" width="468.293" height="56.195"/>
<g>
	<rect x="28.098" y="176.746" style="fill:#F6C358;" width="412.098" height="28.247"/>
	<polygon style="fill:#F6C358;" points="376.798,61.98 91.495,61.98 0,120.551 468.293,120.551 	"/>
</g>
<g>
	<path style="fill:#DC8744;" d="M57.624,406.313H34.341c-3.448,0-6.244-2.795-6.244-6.244V204.993h35.771v195.076
		C63.868,403.517,61.073,406.313,57.624,406.313z"/>
	<path style="fill:#DC8744;" d="M433.951,406.313h-23.283c-3.448,0-6.244-2.795-6.244-6.244V204.993h35.771v195.076
		C440.195,403.517,437.4,406.313,433.951,406.313z"/>
	<path style="fill:#DC8744;" d="M122.236,288.983h-18.732c-3.448,0-6.244-2.796-6.244-6.244v-77.747h31.22v77.747
		C128.479,286.187,125.684,288.983,122.236,288.983z"/>
	<path style="fill:#DC8744;" d="M364.789,288.983h-18.732c-3.448,0-6.244-2.796-6.244-6.244v-77.747h31.22v77.747
		C371.033,286.187,368.237,288.983,364.789,288.983z"/>
</g>
<g>
</g>
<g>
</g>
<g>
</g>
<g>
</g>
<g>
</g>
<g>
</g>
<g>
</g>
<g>
</g>
<g>
</g>
<g>
</g>
<g>
</g>
<g>
</g>
<g>
</g>
<g>
</g>
<g>
</g>
</svg>
