<?xml version="1.0" encoding="iso-8859-1"?>
<!-- Generator: Adobe Illustrator 19.0.0, SVG Export Plug-In . SVG Version: 6.00 Build 0)  -->
<svg version="1.1" id="Capa_1" xmlns="http://www.w3.org/2000/svg" xmlns:xlink="http://www.w3.org/1999/xlink" x="0px" y="0px"
	 viewBox="0 0 468.293 468.293" style="enable-background:new 0 0 468.293 468.293;" xml:space="preserve">
<path style="fill:#FCD462;" d="M455.805,434.674H12.488C5.591,434.674,0,429.083,0,422.187V46.106
	c0-6.897,5.591-12.488,12.488-12.488h119.342c3.449,0,6.745,1.427,9.106,3.942l33.621,35.823c2.361,2.515,5.656,3.942,9.106,3.942
	h272.143c6.897,0,12.488,5.591,12.488,12.488v332.373C468.293,429.083,462.702,434.674,455.805,434.674z"/>
<circle style="fill:#EBF0F3;" cx="234.146" cy="265.366" r="131.122"/>
<path style="fill:#64798A;" d="M299.481,291.525c0,0-35.405-6.509-40.872-9.633h-22.665h-3.595h-22.665
	c-5.467,3.124-40.872,9.633-40.872,9.633c-19.846,2.947-22.34,28.734-22.369,41.204c-0.009,3.712,3.037,6.697,6.748,6.697h79.158
	h3.595h79.158c3.712,0,6.757-2.985,6.748-6.697C321.821,320.259,319.327,294.472,299.481,291.525z"/>
<path style="fill:#E1E6E9;" d="M256.842,269.833h-22.696h-22.696l-6.407,14.624c0,0,8.505,16.979,29.103,16.979
	c20.598,0,29.103-16.979,29.103-16.979L256.842,269.833z"/>
<ellipse style="fill:#F6C358;" cx="234.146" cy="229.588" rx="41.316" ry="48.19"/>
<path style="fill:#DC8744;" d="M192.828,229.563c0,0-15.666-38.304,15.274-56.319c0,0,46.213-25.065,68.928,19.974
	c0,0,7.049,22.562-1.567,36.346c0,0,0.392-26.555-14.099-24.205c0,0-23.309,6.266-37.699-20.365
	C223.667,184.992,198.703,189.147,192.828,229.563z"/>
<g>
</g>
<g>
</g>
<g>
</g>
<g>
</g>
<g>
</g>
<g>
</g>
<g>
</g>
<g>
</g>
<g>
</g>
<g>
</g>
<g>
</g>
<g>
</g>
<g>
</g>
<g>
</g>
<g>
</g>
</svg>
