<?xml version="1.0" encoding="iso-8859-1"?>
<!-- Generator: Adobe Illustrator 19.0.0, SVG Export Plug-In . SVG Version: 6.00 Build 0)  -->
<svg version="1.1" id="Capa_1" xmlns="http://www.w3.org/2000/svg" xmlns:xlink="http://www.w3.org/1999/xlink" x="0px" y="0px"
	 viewBox="0 0 468.293 468.293" style="enable-background:new 0 0 468.293 468.293;" xml:space="preserve">
<path style="fill:#64798A;" d="M455.805,414.964H12.488C5.591,414.964,0,409.373,0,402.476V36.413
	c0-6.897,5.591-12.488,12.488-12.488h443.317c6.897,0,12.488,5.591,12.488,12.488v366.063
	C468.293,409.373,462.702,414.964,455.805,414.964z"/>
<rect x="26.018" y="48.403" style="fill:#DC8744;" width="416.281" height="156.098"/>
<g>
	<path style="fill:#2F4859;" d="M27.505,414.964h42.152v23.16c0,3.448-2.795,6.244-6.244,6.244H33.749
		c-3.448,0-6.244-2.796-6.244-6.244V414.964z"/>
	<path style="fill:#2F4859;" d="M398.636,414.964h42.152v23.16c0,3.448-2.795,6.244-6.244,6.244H404.88
		c-3.448,0-6.244-2.796-6.244-6.244V414.964z"/>
</g>
<g>
	<polygon style="fill:#E1E6E9;" points="40.647,263.647 98.855,183.183 155.351,263.647 	"/>
	<polygon style="fill:#E1E6E9;" points="104.912,241.378 173.828,169.072 240.717,241.378 	"/>
</g>
<rect x="26.018" y="230.525" style="fill:#DC8744;" width="416.281" height="156.098"/>
<path style="fill:#FCD462;" d="M286.181,116.692H182.116c-5.386,0-9.756,4.37-9.756,9.756c0,5.386,4.37,9.756,9.756,9.756h104.065
	c5.386,0,9.756-4.37,9.756-9.756C295.937,121.062,291.567,116.692,286.181,116.692z"/>
<g>
	<path style="fill:#F6C358;" d="M172.36,116.692l0,19.512c0,5.386,4.37,9.756,9.756,9.756c5.386,0,9.756-4.37,9.756-9.756v-19.512
		c0-5.386-4.37-9.756-9.756-9.756C176.73,106.936,172.36,111.306,172.36,116.692z"/>
	<path style="fill:#F6C358;" d="M276.425,116.692v19.512c0,5.386,4.37,9.756,9.756,9.756c5.386,0,9.756-4.37,9.756-9.756v-19.512
		c0-5.386-4.37-9.756-9.756-9.756S276.425,111.306,276.425,116.692z"/>
</g>
<path style="fill:#FCD462;" d="M286.181,298.808H182.116c-5.386,0-9.756,4.37-9.756,9.756s4.37,9.756,9.756,9.756h104.065
	c5.386,0,9.756-4.37,9.756-9.756S291.567,298.808,286.181,298.808z"/>
<g>
	<path style="fill:#F6C358;" d="M172.36,298.808l0,19.512c0,5.386,4.37,9.756,9.756,9.756c5.386,0,9.756-4.37,9.756-9.756v-19.512
		c0-5.386-4.37-9.756-9.756-9.756C176.73,289.051,172.36,293.421,172.36,298.808z"/>
	<path style="fill:#F6C358;" d="M276.425,298.808v19.512c0,5.386,4.37,9.756,9.756,9.756c5.386,0,9.756-4.37,9.756-9.756v-19.512
		c0-5.386-4.37-9.756-9.756-9.756S276.425,293.421,276.425,298.808z"/>
</g>
<g>
</g>
<g>
</g>
<g>
</g>
<g>
</g>
<g>
</g>
<g>
</g>
<g>
</g>
<g>
</g>
<g>
</g>
<g>
</g>
<g>
</g>
<g>
</g>
<g>
</g>
<g>
</g>
<g>
</g>
</svg>
