<?xml version="1.0" encoding="iso-8859-1"?>
<!-- Generator: Adobe Illustrator 19.0.0, SVG Export Plug-In . SVG Version: 6.00 Build 0)  -->
<svg version="1.1" id="Capa_1" xmlns="http://www.w3.org/2000/svg" xmlns:xlink="http://www.w3.org/1999/xlink" x="0px" y="0px"
	 viewBox="0 0 468.293 468.293" style="enable-background:new 0 0 468.293 468.293;" xml:space="preserve">
<path style="fill:#FCD462;" d="M17.909,42.287h86.873c2.267,0,4.489,0.628,6.421,1.813l22.849,14.021
	c1.932,1.186,4.154,1.813,6.421,1.813h239.163c6.78,0,12.277,5.497,12.277,12.277v48.764H5.632V54.564
	C5.632,47.783,11.129,42.287,17.909,42.287z"/>
<path style="fill:#F6C358;" d="M387.17,100.458H139.948l-22.109,19.9H12.278c-7.266,0-12.942,6.275-12.216,13.505l19.072,189.74
	c1.261,12.547,11.821,22.098,24.431,22.098h310.406c12.614,0,23.176-9.558,24.432-22.109l20.983-209.635
	C400.109,106.73,394.434,100.458,387.17,100.458z"/>
<path style="fill:#44C4A1;" d="M455.805,426.006H321.178c-6.897,0-12.488-5.591-12.488-12.488v-112.19
	c0-6.897,5.591-12.488,12.488-12.488h134.626c6.897,0,12.488,5.591,12.488,12.488v112.19
	C468.293,420.415,462.702,426.006,455.805,426.006z"/>
<path style="fill:#D5D6DB;" d="M388.492,191.888c-33.735,0-61.082,27.348-61.082,61.083v35.87h22.439v-35.868
	c0-21.312,17.339-38.65,38.643-38.65s38.643,17.339,38.643,38.65v35.868h22.439v-35.87
	C449.574,219.236,422.227,191.888,388.492,191.888z"/>
<path style="fill:#3A556A;" d="M405.363,364.902c0-10.788-10.127-19.21-21.393-16.282c-5.799,1.507-10.48,6.343-11.861,12.174
	c-1.976,8.338,2.258,15.875,8.952,19.184v20.138c0,4.089,3.315,7.404,7.404,7.404h0.055c4.089,0,7.404-3.315,7.404-7.404v-20.138
	C401.496,377.223,405.363,371.539,405.363,364.902z"/>
<g>
</g>
<g>
</g>
<g>
</g>
<g>
</g>
<g>
</g>
<g>
</g>
<g>
</g>
<g>
</g>
<g>
</g>
<g>
</g>
<g>
</g>
<g>
</g>
<g>
</g>
<g>
</g>
<g>
</g>
</svg>
