<?xml version="1.0" encoding="iso-8859-1"?>
<!-- Generator: Adobe Illustrator 19.0.0, SVG Export Plug-In . SVG Version: 6.00 Build 0)  -->
<svg version="1.1" id="Capa_1" xmlns="http://www.w3.org/2000/svg" xmlns:xlink="http://www.w3.org/1999/xlink" x="0px" y="0px"
	 viewBox="0 0 468.293 468.293" style="enable-background:new 0 0 468.293 468.293;" xml:space="preserve">
<polygon style="fill:#EBF0F3;" points="321.547,0 99.498,0 99.498,396.803 394.153,396.803 394.153,72.605 "/>
<polygon style="fill:#E1E6E9;" points="321.547,72.607 394.153,72.607 321.547,0.002 "/>
<g>
	<path style="fill:#D5D6DB;" d="M339.117,121.468H136.52c-3.451,0-6.244-2.793-6.244-6.244s2.793-6.244,6.244-6.244h202.598
		c3.451,0,6.244,2.793,6.244,6.244S342.569,121.468,339.117,121.468z"/>
	<path style="fill:#D5D6DB;" d="M314.142,167.182H136.52c-3.451,0-6.244-2.793-6.244-6.244c0-3.451,2.793-6.244,6.244-6.244h177.622
		c3.451,0,6.244,2.793,6.244,6.244C320.386,164.389,317.593,167.182,314.142,167.182z"/>
	<path style="fill:#D5D6DB;" d="M339.117,212.896H136.52c-3.451,0-6.244-2.793-6.244-6.244s2.793-6.244,6.244-6.244h202.598
		c3.451,0,6.244,2.793,6.244,6.244S342.569,212.896,339.117,212.896z"/>
	<path style="fill:#D5D6DB;" d="M314.142,258.611H136.52c-3.451,0-6.244-2.793-6.244-6.244s2.793-6.244,6.244-6.244h177.622
		c3.451,0,6.244,2.793,6.244,6.244S317.593,258.611,314.142,258.611z"/>
</g>
<path style="fill:#F6C358;" d="M374.764,326.917l-122.336-84.61c-15.117-10.456-24.139-27.665-24.139-46.047V94.575
	c0-30.92-25.066-55.986-55.986-55.986H69.389v381.716c0,26.503,21.486,47.988,47.988,47.988h281.526v-95.33
	C398.903,354.582,389.881,337.371,374.764,326.917z"/>
<path style="fill:#FCD462;" d="M129.655,456.015c-26.503,0-47.988-21.485-47.988-47.988V38.588H69.389v381.716
	c0,26.503,21.486,47.988,47.988,47.988h281.526v-12.277H129.655z"/>
<g>
</g>
<g>
</g>
<g>
</g>
<g>
</g>
<g>
</g>
<g>
</g>
<g>
</g>
<g>
</g>
<g>
</g>
<g>
</g>
<g>
</g>
<g>
</g>
<g>
</g>
<g>
</g>
<g>
</g>
</svg>
