<?xml version="1.0" encoding="iso-8859-1"?>
<!-- Generator: Adobe Illustrator 19.0.0, SVG Export Plug-In . SVG Version: 6.00 Build 0)  -->
<svg version="1.1" id="Capa_1" xmlns="http://www.w3.org/2000/svg" xmlns:xlink="http://www.w3.org/1999/xlink" x="0px" y="0px"
	 viewBox="0 0 468.293 468.293" style="enable-background:new 0 0 468.293 468.293;" xml:space="preserve">
<rect x="83.724" y="28.222" style="fill:#E1E6E9;" width="300.831" height="417.842"/>
<g>
	<rect x="293.526" y="55.621" style="fill:#1C75A1;" width="55.714" height="55.714"/>
	<rect x="206.292" y="55.621" style="fill:#1C75A1;" width="55.714" height="55.714"/>
</g>
<path style="fill:#64798A;" d="M388.796,0H79.497C72.6,0,67.009,5.591,67.009,12.488v3.24c0,6.897,5.591,12.488,12.488,12.488
	h309.298c6.897,0,12.488-5.591,12.488-12.488v-3.24C401.283,5.591,395.692,0,388.796,0z"/>
<rect x="119.052" y="55.621" style="fill:#1C75A1;" width="55.714" height="55.714"/>
<g>
	<polygon style="fill:#2D93BA;" points="174.763,111.332 119.051,111.332 174.763,55.62 	"/>
	<polygon style="fill:#2D93BA;" points="262.002,111.332 206.29,111.332 262.002,55.62 	"/>
	<polygon style="fill:#2D93BA;" points="349.242,111.332 293.529,111.332 349.242,55.62 	"/>
</g>
<g>
	<rect x="119.052" y="135.555" style="fill:#1C75A1;" width="55.714" height="55.714"/>
	<rect x="206.292" y="135.555" style="fill:#1C75A1;" width="55.714" height="55.714"/>
	<rect x="293.526" y="135.555" style="fill:#1C75A1;" width="55.714" height="55.714"/>
	<rect x="119.052" y="213.541" style="fill:#1C75A1;" width="55.714" height="55.714"/>
	<rect x="206.292" y="213.541" style="fill:#1C75A1;" width="55.714" height="55.714"/>
	<rect x="293.526" y="213.541" style="fill:#1C75A1;" width="55.714" height="55.714"/>
	<rect x="119.052" y="291.528" style="fill:#1C75A1;" width="55.714" height="55.714"/>
	<rect x="206.292" y="291.528" style="fill:#1C75A1;" width="55.714" height="55.714"/>
	<rect x="293.526" y="291.528" style="fill:#1C75A1;" width="55.714" height="55.714"/>
	<rect x="168.879" y="373.448" style="fill:#1C75A1;" width="130.535" height="72.592"/>
</g>
<rect x="168.879" y="373.448" style="fill:#27A2DB;" width="130.535" height="11.233"/>
<g>
	<polygon style="fill:#2D93BA;" points="174.763,191.257 119.051,191.257 174.763,135.545 	"/>
	<polygon style="fill:#2D93BA;" points="262.002,191.257 206.29,191.257 262.002,135.545 	"/>
	<polygon style="fill:#2D93BA;" points="349.242,191.257 293.529,191.257 349.242,135.545 	"/>
	<polygon style="fill:#2D93BA;" points="174.763,269.254 119.051,269.254 174.763,213.542 	"/>
	<polygon style="fill:#2D93BA;" points="262.002,269.254 206.29,269.254 262.002,213.542 	"/>
	<polygon style="fill:#2D93BA;" points="349.242,269.254 293.529,269.254 349.242,213.542 	"/>
	<polygon style="fill:#2D93BA;" points="174.763,347.251 119.051,347.251 174.763,291.539 	"/>
	<polygon style="fill:#2D93BA;" points="262.002,347.251 206.29,347.251 262.002,291.539 	"/>
	<polygon style="fill:#2D93BA;" points="349.242,347.251 293.529,347.251 349.242,291.539 	"/>
</g>
<path style="fill:#D5D6DB;" d="M76.803,446.058h314.686c3.448,0,6.244,2.796,6.244,6.244v9.747c0,3.448-2.796,6.244-6.244,6.244
	H76.803c-3.448,0-6.244-2.796-6.244-6.244v-9.747C70.56,448.853,73.355,446.058,76.803,446.058z"/>
<g>
</g>
<g>
</g>
<g>
</g>
<g>
</g>
<g>
</g>
<g>
</g>
<g>
</g>
<g>
</g>
<g>
</g>
<g>
</g>
<g>
</g>
<g>
</g>
<g>
</g>
<g>
</g>
<g>
</g>
</svg>
