<?xml version="1.0" encoding="iso-8859-1"?>
<!-- Generator: Adobe Illustrator 19.0.0, SVG Export Plug-In . SVG Version: 6.00 Build 0)  -->
<svg version="1.1" id="Capa_1" xmlns="http://www.w3.org/2000/svg" xmlns:xlink="http://www.w3.org/1999/xlink" x="0px" y="0px"
	 viewBox="0 0 468.47 468.47" style="enable-background:new 0 0 468.47 468.47;" xml:space="preserve">
<path style="fill:#E1E6E9;" d="M426.36,385.206H19.632C8.79,385.206,0,376.417,0,365.574v-86.216c0-6.012,7.426-8.843,11.428-4.356
	l26.205,29.384h270.198c-0.113-0.879-0.23-1.757-0.23-2.654c0-19.253,26.585-34.861,59.379-34.861s59.379,15.608,59.379,34.861
	c0,0.896-0.115,1.775-0.228,2.654h0.228V385.206z"/>
<path style="fill:#44C4A1;" d="M432.13,347.73H48.7v48.03c0,13.23,10.725,23.955,23.955,23.955H432.13
	c6.897,0,12.488-5.591,12.488-12.488v-47.009C444.618,353.321,439.027,347.73,432.13,347.73z"/>
<path style="fill:#E1E6E9;" d="M442.556,211.881L63.996,63.15c-10.092-3.965-21.487,1.002-25.452,11.094L7.017,154.489
	c-2.198,5.596,3.679,10.946,9.044,8.233l35.135-17.766l251.486,98.805c-0.427,0.776-0.857,1.552-1.185,2.386
	c-7.04,17.919,11.997,42.168,42.52,54.16s60.974,7.187,68.015-10.733c0.328-0.834,0.542-1.694,0.758-2.553l0.213,0.084
	L442.556,211.881z"/>
<path style="fill:#44C4A1;" d="M434.223,248.872L77.347,108.661L94.91,63.958c4.838-12.314,18.742-18.374,31.056-13.536
	l334.58,131.451c6.419,2.522,9.578,9.77,7.056,16.189l-17.19,43.754C447.89,248.235,440.642,251.394,434.223,248.872z"/>
<circle style="fill:#64798A;" cx="362.485" cy="280.815" r="31.838"/>
<circle style="fill:#FFFFFF;" cx="362.485" cy="280.815" r="16.99"/>
<g>
</g>
<g>
</g>
<g>
</g>
<g>
</g>
<g>
</g>
<g>
</g>
<g>
</g>
<g>
</g>
<g>
</g>
<g>
</g>
<g>
</g>
<g>
</g>
<g>
</g>
<g>
</g>
<g>
</g>
</svg>
