<?xml version="1.0" encoding="iso-8859-1"?>
<!-- Generator: Adobe Illustrator 19.0.0, SVG Export Plug-In . SVG Version: 6.00 Build 0)  -->
<svg version="1.1" id="Capa_1" xmlns="http://www.w3.org/2000/svg" xmlns:xlink="http://www.w3.org/1999/xlink" x="0px" y="0px"
	 viewBox="0 0 468.318 468.318" style="enable-background:new 0 0 468.318 468.318;" xml:space="preserve">
<path style="fill:#64798A;" d="M326.675,411.956H85.329c-6.897,0-12.488-5.591-12.488-12.488V40.326
	c0-6.897,5.591-12.488,12.488-12.488h241.346c6.897,0,12.488,5.591,12.488,12.488v359.142
	C339.163,406.365,333.572,411.956,326.675,411.956z"/>
<rect x="93.359" y="48.322" style="fill:#EBF0F3;" width="225.342" height="343.146"/>
<path style="fill:#44C4A1;" d="M261.037,24.21l-8.888-20.583C251.199,1.426,249.03,0,246.631,0h-77.652
	c-2.398,0-4.567,1.426-5.518,3.628l-8.888,20.583c-0.951,2.202-3.12,3.628-5.518,3.628h-1.82c-3.32,0-6.01,2.691-6.01,6.01v21.828
	c0,2.829,2.293,5.122,5.122,5.122h122.918c2.829,0,5.122-2.293,5.122-5.122V33.849c0-3.32-2.691-6.01-6.01-6.01h-1.82
	C264.157,27.838,261.988,26.412,261.037,24.21z"/>
<path style="fill:#3EA69B;" d="M269.264,50.555H146.346c-2.828,0-5.122-2.293-5.122-5.122v10.243c0,2.828,2.293,5.122,5.122,5.122
	h122.918c2.829,0,5.122-2.293,5.122-5.122V45.434C274.386,48.262,272.093,50.555,269.264,50.555z"/>
<g>
	<path style="fill:#1C75A1;" d="M141.463,120.939h-18.732c-3.448,0-6.244-2.795-6.244-6.244V95.964c0-3.448,2.795-6.244,6.244-6.244
		h18.732c3.448,0,6.244,2.795,6.244,6.244v18.732C147.707,118.144,144.912,120.939,141.463,120.939z"/>
	<path style="fill:#1C75A1;" d="M141.463,181.341h-18.732c-3.448,0-6.244-2.795-6.244-6.244v-18.732
		c0-3.448,2.795-6.244,6.244-6.244h18.732c3.448,0,6.244,2.796,6.244,6.244v18.732C147.707,178.546,144.912,181.341,141.463,181.341
		z"/>
	<path style="fill:#1C75A1;" d="M141.463,241.744h-18.732c-3.448,0-6.244-2.795-6.244-6.244v-18.732
		c0-3.448,2.795-6.244,6.244-6.244h18.732c3.448,0,6.244,2.796,6.244,6.244V235.5C147.707,238.948,144.912,241.744,141.463,241.744z
		"/>
	<path style="fill:#1C75A1;" d="M141.463,302.146h-18.732c-3.448,0-6.244-2.796-6.244-6.244V277.17c0-3.448,2.795-6.244,6.244-6.244
		h18.732c3.448,0,6.244,2.795,6.244,6.244v18.732C147.707,299.35,144.912,302.146,141.463,302.146z"/>
	<path style="fill:#1C75A1;" d="M141.463,362.548h-18.732c-3.448,0-6.244-2.795-6.244-6.244v-18.732
		c0-3.448,2.795-6.244,6.244-6.244h18.732c3.448,0,6.244,2.795,6.244,6.244v18.732C147.707,359.753,144.912,362.548,141.463,362.548
		z"/>
	<path style="fill:#1C75A1;" d="M289.275,111.573h-112.39c-3.448,0-6.244-2.795-6.244-6.244v0c0-3.448,2.795-6.244,6.244-6.244
		h112.39c3.448,0,6.244,2.795,6.244,6.244v0C295.518,108.778,292.723,111.573,289.275,111.573z"/>
	<path style="fill:#1C75A1;" d="M289.275,171.976h-112.39c-3.448,0-6.244-2.795-6.244-6.244v0c0-3.448,2.795-6.244,6.244-6.244
		h112.39c3.448,0,6.244,2.795,6.244,6.244v0C295.518,169.18,292.723,171.976,289.275,171.976z"/>
	<path style="fill:#1C75A1;" d="M289.275,232.378h-112.39c-3.448,0-6.244-2.795-6.244-6.244v0c0-3.448,2.795-6.244,6.244-6.244
		h112.39c3.448,0,6.244,2.795,6.244,6.244v0C295.518,229.582,292.723,232.378,289.275,232.378z"/>
	<path style="fill:#1C75A1;" d="M289.275,292.78h-112.39c-3.448,0-6.244-2.795-6.244-6.244v0c0-3.448,2.795-6.244,6.244-6.244
		h112.39c3.448,0,6.244,2.796,6.244,6.244v0C295.518,289.984,292.723,292.78,289.275,292.78z"/>
	<path style="fill:#1C75A1;" d="M289.275,353.182h-112.39c-3.448,0-6.244-2.795-6.244-6.244v0c0-3.448,2.795-6.244,6.244-6.244
		h112.39c3.448,0,6.244,2.796,6.244,6.244v0C295.518,350.387,292.723,353.182,289.275,353.182z"/>
</g>
<circle style="fill:#44C4A1;" cx="318.651" cy="391.493" r="76.825"/>
<path style="fill:#FFFFFF;" d="M362.915,358.144c-3.381-3.543-8.992-3.672-12.537-0.288l-50.543,48.282L287.26,392.99
	c-3.386-3.533-8.997-3.661-12.537-0.277s-3.663,8.999-0.279,12.539l18.701,19.55c1.742,1.819,4.073,2.736,6.41,2.736
	c2.201,0,4.406-0.814,6.124-2.456l56.951-54.402C366.17,367.299,366.298,361.684,362.915,358.144z"/>
<g>
</g>
<g>
</g>
<g>
</g>
<g>
</g>
<g>
</g>
<g>
</g>
<g>
</g>
<g>
</g>
<g>
</g>
<g>
</g>
<g>
</g>
<g>
</g>
<g>
</g>
<g>
</g>
<g>
</g>
</svg>
