<?xml version="1.0" encoding="iso-8859-1"?>
<!-- Generator: Adobe Illustrator 19.0.0, SVG Export Plug-In . SVG Version: 6.00 Build 0)  -->
<svg version="1.1" id="Capa_1" xmlns="http://www.w3.org/2000/svg" xmlns:xlink="http://www.w3.org/1999/xlink" x="0px" y="0px"
	 viewBox="0 0 468.293 468.293" style="enable-background:new 0 0 468.293 468.293;" xml:space="preserve">
<g>
	<rect x="57.744" y="40.835" style="fill:#FCD462;" width="176.39" height="408.539"/>
	<rect x="234.146" y="40.835" style="fill:#FCD462;" width="176.39" height="408.539"/>
</g>
<path style="fill:#DC8744;" d="M414.846,40.851h-361.4c-6.897,0-12.488-5.591-12.488-12.488V12.488C40.958,5.591,46.549,0,53.446,0
	h361.4c6.897,0,12.488,5.591,12.488,12.488v15.875C427.334,35.26,421.743,40.851,414.846,40.851z"/>
<g>
	<path style="fill:#64798A;" d="M86.677,449.36h37.047v12.689c0,3.448-2.795,6.244-6.244,6.244H92.921
		c-3.448,0-6.244-2.796-6.244-6.244V449.36z"/>
	<path style="fill:#64798A;" d="M344.569,449.36h37.047v12.689c0,3.448-2.796,6.244-6.244,6.244h-24.559
		c-3.448,0-6.244-2.796-6.244-6.244V449.36z"/>
</g>
<rect x="221.659" y="40.835" style="fill:#DC8744;" width="24.976" height="408.539"/>
<path style="fill:#64798A;" d="M316.544,245.105c0,3.247-0.75,6.306-2.061,8.991c-3.372,7.119-10.615,12.052-18.982,12.052
	c-8.367,0-15.61-4.933-18.981-12.052c-1.311-2.684-2.061-5.744-2.061-8.991c0-11.613,9.428-21.041,21.042-21.041
	C307.116,224.064,316.544,233.492,316.544,245.105z"/>
<path style="fill:#27A2DB;" d="M295.5,235.042c3.247,0,6.306,0.359,8.991,0.986c7.119,1.613,12.052,5.077,12.052,9.079
	c0,4.002-4.933,7.466-12.052,9.079c-2.684,0.627-5.744,0.986-8.991,0.986c-11.613,0-21.041-4.51-21.041-10.065
	C274.459,239.552,283.888,235.042,295.5,235.042z"/>
<path style="fill:#64798A;" d="M193.833,245.105c0,3.247-0.75,6.306-2.061,8.991c-3.372,7.119-10.615,12.052-18.982,12.052
	c-8.367,0-15.61-4.933-18.981-12.052c-1.311-2.684-2.061-5.744-2.061-8.991c0-11.613,9.428-21.041,21.042-21.041
	C184.405,224.064,193.833,233.492,193.833,245.105z"/>
<path style="fill:#27A2DB;" d="M172.79,235.042c3.247,0,6.306,0.359,8.991,0.986c7.119,1.613,12.052,5.077,12.052,9.079
	c0,4.002-4.933,7.466-12.052,9.079c-2.684,0.627-5.744,0.986-8.991,0.986c-11.613,0-21.041-4.51-21.041-10.065
	C151.749,239.552,161.177,235.042,172.79,235.042z"/>
<g>
</g>
<g>
</g>
<g>
</g>
<g>
</g>
<g>
</g>
<g>
</g>
<g>
</g>
<g>
</g>
<g>
</g>
<g>
</g>
<g>
</g>
<g>
</g>
<g>
</g>
<g>
</g>
<g>
</g>
</svg>
