<?xml version="1.0" encoding="iso-8859-1"?>
<!-- Generator: Adobe Illustrator 19.0.0, SVG Export Plug-In . SVG Version: 6.00 Build 0)  -->
<svg version="1.1" id="Capa_1" xmlns="http://www.w3.org/2000/svg" xmlns:xlink="http://www.w3.org/1999/xlink" x="0px" y="0px"
	 viewBox="0 0 468.281 468.281" style="enable-background:new 0 0 468.281 468.281;" xml:space="preserve">
<rect x="139.826" y="-2.67" transform="matrix(-0.7071 0.7071 -0.7071 -0.7071 565.2657 234.1407)" style="fill:#FCD462;" width="188.629" height="473.621"/>
<g>
	<path style="fill:#F6C358;" d="M73.339,98.052l-29.744,29.744c-2.277,2.277-2.277,5.963,0,8.241c2.277,2.277,5.963,2.277,8.241,0
		l29.744-29.744c2.277-2.277,2.277-5.963,0-8.241C79.302,95.775,75.617,95.775,73.339,98.052z"/>
	<path style="fill:#F6C358;" d="M97.171,138.365l-21.503,21.503c-2.277,2.277-2.277,5.963,0,8.241c2.277,2.277,5.963,2.277,8.241,0
		l21.503-21.503c2.277-2.277,2.277-5.963,0-8.241C103.134,136.088,99.449,136.088,97.171,138.365z"/>
	<path style="fill:#F6C358;" d="M137.484,162.197l-29.744,29.744c-2.277,2.277-2.277,5.963,0,8.241c2.277,2.277,5.963,2.277,8.241,0
		l29.744-29.743c2.277-2.277,2.277-5.963,0-8.241C143.448,159.92,139.762,159.92,137.484,162.197z"/>
	<path style="fill:#F6C358;" d="M161.316,202.511l-21.503,21.503c-2.277,2.277-2.277,5.963,0,8.241c2.277,2.277,5.963,2.277,8.241,0
		l21.503-21.503c2.277-2.277,2.277-5.963,0-8.241C167.28,200.233,163.594,200.233,161.316,202.511z"/>
	<path style="fill:#F6C358;" d="M201.63,226.343l-29.744,29.743c-2.277,2.277-2.277,5.963,0,8.241s5.963,2.277,8.241,0
		l29.744-29.744c2.277-2.277,2.277-5.963,0-8.241C207.593,224.065,203.907,224.065,201.63,226.343z"/>
	<path style="fill:#F6C358;" d="M225.462,266.656l-21.503,21.503c-2.277,2.277-2.277,5.963,0,8.241c2.277,2.277,5.963,2.277,8.241,0
		l21.503-21.503c2.277-2.277,2.277-5.963,0-8.241C231.425,264.379,227.739,264.379,225.462,266.656z"/>
	<path style="fill:#F6C358;" d="M265.775,290.488l-29.744,29.743c-2.277,2.277-2.277,5.963,0,8.241c2.277,2.277,5.963,2.277,8.241,0
		l29.744-29.743c2.277-2.277,2.277-5.963,0-8.241S268.052,288.211,265.775,290.488z"/>
	<path style="fill:#F6C358;" d="M289.607,330.801l-21.503,21.503c-2.277,2.277-2.277,5.963,0,8.241s5.963,2.277,8.241,0
		l21.503-21.503c2.277-2.277,2.277-5.963,0-8.241C295.57,328.524,291.884,328.524,289.607,330.801z"/>
	<path style="fill:#F6C358;" d="M329.92,354.633l-29.744,29.744c-2.277,2.277-2.277,5.963,0,8.241c2.277,2.277,5.963,2.277,8.241,0
		l29.744-29.744c2.277-2.277,2.277-5.963,0-8.241C335.884,352.356,332.198,352.356,329.92,354.633z"/>
	<path style="fill:#F6C358;" d="M353.752,394.947l-21.503,21.503c-2.277,2.277-2.277,5.963,0,8.241s5.963,2.277,8.241,0
		l21.503-21.503c2.277-2.277,2.277-5.963,0-8.241C359.716,392.669,356.03,392.669,353.752,394.947z"/>
	
		<rect x="162.364" y="51.721" transform="matrix(-0.7071 0.7071 -0.7071 -0.7071 510.8759 365.4514)" style="fill:#F6C358;" width="34.772" height="473.621"/>
</g>
<g>
	<circle style="fill:#D5D6DB;" cx="129.624" cy="54.121" r="17.483"/>
	<circle style="fill:#D5D6DB;" cx="414.165" cy="338.655" r="17.483"/>
</g>
<g>
	<path style="fill:#64798A;" d="M117.272,41.759c-4.472,4.472-5.956,10.752-4.568,16.482c0.731-3.015,2.215-5.887,4.568-8.241
		c6.827-6.827,17.896-6.826,24.722,0c2.354,2.354,3.838,5.226,4.569,8.241c1.388-5.728-0.096-12.008-4.569-16.481
		C135.167,34.933,124.098,34.932,117.272,41.759z"/>
	<path style="fill:#64798A;" d="M400.887,327.21c-4.472,4.472-5.956,10.752-4.569,16.482c0.731-3.015,2.215-5.887,4.569-8.241
		c6.827-6.827,17.896-6.826,24.722,0c2.354,2.354,3.838,5.226,4.569,8.241c1.388-5.728-0.096-12.008-4.569-16.481
		C418.783,320.384,407.714,320.384,400.887,327.21z"/>
</g>
<polygon style="fill:#FCD462;" points="165.343,352.383 132.339,385.386 90.517,401.167 52.857,415.423 67.114,377.763 
	82.896,335.943 115.9,302.94 "/>
<path style="fill:#44C4A1;" d="M322.764,96.084L82.883,335.956l6.75-1.688c3.299-0.824,5.651,1.527,4.826,4.826l-0.079,0.316
	c-0.825,3.299,1.527,5.651,4.826,4.826l0.315-0.079c3.299-0.824,5.651,1.528,4.826,4.826l-0.079,0.316
	c-0.824,3.299,1.527,5.65,4.826,4.826l0.315-0.079c1.649-0.412,3.062-0.031,3.96,0.866l234.115-234.106L322.764,96.084z"/>
<path style="fill:#3EA69B;" d="M347.485,120.805L113.37,354.912c0.897,0.897,1.279,2.311,0.866,3.96l-0.079,0.315
	c-0.824,3.299,1.527,5.65,4.826,4.826l0.316-0.079c3.299-0.825,5.651,1.527,4.826,4.826l-0.079,0.315
	c-0.824,3.299,1.528,5.651,4.826,4.826l0.316-0.079c3.299-0.824,5.651,1.527,4.826,4.826l-1.688,6.75l239.881-239.872
	L347.485,120.805z"/>
<polygon style="fill:#3A556A;" points="90.517,401.167 52.857,415.423 67.114,377.763 "/>
<path style="fill:#DC8744;" d="M372.207,145.527l-49.443-49.443l39.228-39.227c4.877-4.877,12.784-4.877,17.66,0l31.782,31.783
	c4.877,4.877,4.877,12.784,0,17.661L372.207,145.527z"/>
<rect x="305.648" y="117.923" transform="matrix(-0.7071 -0.7071 0.7071 -0.7071 491.2165 458.7148)" style="fill:#E1E6E9;" width="69.926" height="19.4"/>
<g>
</g>
<g>
</g>
<g>
</g>
<g>
</g>
<g>
</g>
<g>
</g>
<g>
</g>
<g>
</g>
<g>
</g>
<g>
</g>
<g>
</g>
<g>
</g>
<g>
</g>
<g>
</g>
<g>
</g>
</svg>
