<?xml version="1.0" encoding="iso-8859-1"?>
<!-- Generator: Adobe Illustrator 19.0.0, SVG Export Plug-In . SVG Version: 6.00 Build 0)  -->
<svg version="1.1" id="Capa_1" xmlns="http://www.w3.org/2000/svg" xmlns:xlink="http://www.w3.org/1999/xlink" x="0px" y="0px"
	 viewBox="0 0 468.293 468.293" style="enable-background:new 0 0 468.293 468.293;" xml:space="preserve">
<path style="fill:#64798A;" d="M370.7,468.293H97.592c-6.897,0-12.488-5.591-12.488-12.488V59.21
	c0-6.897,5.591-12.488,12.488-12.488H370.7c6.897,0,12.488,5.591,12.488,12.488v396.595
	C383.188,462.702,377.597,468.293,370.7,468.293z"/>
<rect x="113.202" y="74.821" style="fill:#E1E6E9;" width="241.876" height="365.331"/>
<path style="fill:#1C75A1;" d="M307.919,38.6h-25.353l-10.652-26.661C268.718,4.683,261.537,0,253.609,0h-40.006
	c-7.928,0-15.109,4.683-18.305,11.938L184.646,38.6h-25.353c-5.524,0-10.001,4.478-10.001,10.001v27.167
	c0,2.762,2.239,5.001,5,5.001H312.92c2.762,0,5.001-2.239,5.001-5.001V48.601C317.92,43.078,313.443,38.6,307.919,38.6z
	 M233.606,45.986c-9.313,0-16.863-7.549-16.863-16.863c0-9.312,7.55-16.863,16.863-16.863c9.313,0,16.863,7.55,16.863,16.863
	C250.469,38.436,242.919,45.986,233.606,45.986z"/>
<g>
	<path style="fill:#D5D6DB;" d="M322.434,148.092c-3.31-3.315-7.718-5.138-12.4-5.138c-0.005,0-0.005,0-0.011,0
		c-4.682,0-9.085,1.822-12.395,5.132l-8.448,8.442c-2.371,2.382-6.51,2.388-8.904-0.005l-8.431-8.431
		c-6.84-6.84-17.966-6.845-24.806-0.005l-8.448,8.442c-2.371,2.382-6.51,2.388-8.903-0.005l-8.431-8.431
		c-6.84-6.84-17.966-6.845-24.806-0.005l-8.448,8.442c-2.371,2.382-6.51,2.388-8.903-0.005l-8.431-8.431
		c-6.84-6.84-17.972-6.84-24.811,0c-2.196,2.196-2.196,5.753,0,7.948c2.196,2.196,5.753,2.196,7.948,0
		c2.459-2.459,6.455-2.459,8.914,0l8.426,8.431c6.631,6.631,18.197,6.631,24.806,0.011l8.448-8.448
		c2.448-2.448,6.45-2.454,8.909,0.005l8.426,8.431c6.631,6.631,18.197,6.631,24.806,0.011l8.448-8.448
		c1.191-1.186,2.767-1.839,4.446-1.839c0.005,0,0.005,0,0.005,0c1.685,0,3.266,0.653,4.457,1.844l8.426,8.431
		c3.315,3.315,7.723,5.143,12.411,5.143s9.09-1.822,12.395-5.132l8.448-8.448c2.448-2.448,6.45-2.454,8.909,0.005
		c2.196,2.196,5.753,2.196,7.948,0S324.629,150.288,322.434,148.092z"/>
	<path style="fill:#D5D6DB;" d="M322.434,198.702c-3.31-3.315-7.718-5.138-12.4-5.138c-0.005,0-0.005,0-0.011,0
		c-4.682,0-9.085,1.822-12.395,5.132l-8.448,8.442c-2.371,2.382-6.51,2.388-8.904-0.005l-8.431-8.431
		c-6.84-6.84-17.966-6.845-24.806-0.005l-8.448,8.442c-2.371,2.382-6.51,2.388-8.903-0.005l-8.431-8.431
		c-6.84-6.84-17.966-6.845-24.806-0.005l-8.448,8.442c-2.371,2.382-6.51,2.388-8.903-0.005l-8.431-8.431
		c-6.84-6.84-17.972-6.84-24.811,0c-2.196,2.196-2.196,5.753,0,7.948c2.196,2.196,5.753,2.196,7.948,0
		c2.459-2.459,6.455-2.459,8.914,0l8.426,8.431c6.631,6.631,18.197,6.631,24.806,0.011l8.448-8.448
		c2.448-2.448,6.45-2.454,8.909,0.005l8.426,8.431c6.631,6.631,18.197,6.631,24.806,0.011l8.448-8.448
		c1.191-1.186,2.767-1.839,4.446-1.839c0.005,0,0.005,0,0.005,0c1.685,0,3.266,0.653,4.457,1.844l8.426,8.431
		c3.315,3.315,7.723,5.143,12.411,5.143s9.09-1.822,12.395-5.132l8.448-8.448c2.448-2.448,6.45-2.454,8.909,0.005
		c2.196,2.196,5.753,2.196,7.948,0C324.629,204.455,324.629,200.898,322.434,198.702z"/>
	<path style="fill:#D5D6DB;" d="M322.434,249.312c-3.31-3.315-7.718-5.138-12.4-5.138c-0.005,0-0.005,0-0.011,0
		c-4.682,0-9.085,1.822-12.395,5.132l-8.448,8.442c-2.371,2.382-6.51,2.388-8.904-0.005l-8.431-8.431
		c-6.84-6.84-17.966-6.845-24.806-0.006l-8.448,8.442c-2.371,2.382-6.51,2.388-8.903-0.005l-8.431-8.431
		c-6.84-6.84-17.966-6.845-24.806-0.006l-8.448,8.442c-2.371,2.382-6.51,2.388-8.903-0.005l-8.431-8.431
		c-6.84-6.84-17.972-6.84-24.811,0c-2.196,2.196-2.196,5.753,0,7.948c2.196,2.196,5.753,2.196,7.948,0
		c2.459-2.459,6.455-2.459,8.914,0l8.426,8.431c6.631,6.631,18.197,6.631,24.806,0.011l8.448-8.448
		c2.448-2.448,6.45-2.454,8.909,0.005l8.426,8.431c6.631,6.631,18.197,6.631,24.806,0.011l8.448-8.448
		c1.191-1.186,2.767-1.839,4.446-1.839c0.005,0,0.005,0,0.005,0c1.685,0,3.266,0.653,4.457,1.844l8.426,8.431
		c3.315,3.315,7.723,5.143,12.411,5.143s9.09-1.822,12.395-5.132l8.448-8.448c2.448-2.448,6.45-2.454,8.909,0.005
		c2.196,2.196,5.753,2.196,7.948,0C324.629,255.065,324.629,251.508,322.434,249.312z"/>
	<path style="fill:#D5D6DB;" d="M322.434,299.922c-3.31-3.315-7.718-5.138-12.4-5.138c-0.005,0-0.005,0-0.011,0
		c-4.682,0-9.085,1.822-12.395,5.132l-8.448,8.442c-2.371,2.382-6.51,2.388-8.904-0.006l-8.431-8.431
		c-6.84-6.84-17.966-6.845-24.806-0.005l-8.448,8.442c-2.371,2.382-6.51,2.388-8.903-0.006l-8.431-8.431
		c-6.84-6.84-17.966-6.845-24.806-0.005l-8.448,8.442c-2.371,2.382-6.51,2.388-8.903-0.006l-8.431-8.431
		c-6.84-6.84-17.972-6.84-24.811,0c-2.196,2.196-2.196,5.753,0,7.948c2.196,2.196,5.753,2.196,7.948,0
		c2.459-2.459,6.455-2.459,8.914,0l8.426,8.431c6.631,6.631,18.197,6.631,24.806,0.011l8.448-8.448
		c2.448-2.448,6.45-2.454,8.909,0.005l8.426,8.431c6.631,6.631,18.197,6.631,24.806,0.011l8.448-8.448
		c1.191-1.186,2.767-1.839,4.446-1.839c0.005,0,0.005,0,0.005,0c1.685,0,3.266,0.653,4.457,1.844l8.426,8.431
		c3.315,3.315,7.723,5.143,12.411,5.143s9.09-1.822,12.395-5.132l8.448-8.448c2.448-2.448,6.45-2.454,8.909,0.005
		c2.196,2.196,5.753,2.196,7.948,0S324.629,302.118,322.434,299.922z"/>
	<path style="fill:#D5D6DB;" d="M322.434,350.532c-3.31-3.315-7.718-5.138-12.4-5.138c-0.005,0-0.005,0-0.011,0
		c-4.682,0-9.085,1.822-12.395,5.132l-8.448,8.442c-2.371,2.382-6.51,2.388-8.904-0.005l-8.431-8.431
		c-6.84-6.84-17.966-6.845-24.806-0.005l-8.448,8.442c-2.371,2.382-6.51,2.388-8.903-0.005l-8.431-8.431
		c-6.84-6.84-17.966-6.845-24.806-0.005l-8.448,8.442c-2.371,2.382-6.51,2.388-8.903-0.005l-8.431-8.431
		c-6.84-6.84-17.972-6.84-24.811,0c-2.196,2.196-2.196,5.753,0,7.948c2.196,2.196,5.753,2.196,7.948,0
		c2.459-2.459,6.455-2.459,8.914,0l8.426,8.431c6.631,6.631,18.197,6.631,24.806,0.011l8.448-8.448
		c2.448-2.448,6.45-2.454,8.909,0.005l8.426,8.431c6.631,6.631,18.197,6.631,24.806,0.011l8.448-8.448
		c1.191-1.186,2.767-1.839,4.446-1.839c0.005,0,0.005,0,0.005,0c1.685,0,3.266,0.653,4.457,1.844l8.426,8.431
		c3.315,3.315,7.723,5.143,12.411,5.143s9.09-1.822,12.395-5.132l8.448-8.448c2.448-2.448,6.45-2.454,8.909,0.005
		c2.196,2.196,5.753,2.196,7.948,0S324.629,352.728,322.434,350.532z"/>
</g>
<g>
</g>
<g>
</g>
<g>
</g>
<g>
</g>
<g>
</g>
<g>
</g>
<g>
</g>
<g>
</g>
<g>
</g>
<g>
</g>
<g>
</g>
<g>
</g>
<g>
</g>
<g>
</g>
<g>
</g>
</svg>
