<?xml version="1.0" encoding="iso-8859-1"?>
<!-- Generator: Adobe Illustrator 19.0.0, SVG Export Plug-In . SVG Version: 6.00 Build 0)  -->
<svg version="1.1" id="Capa_1" xmlns="http://www.w3.org/2000/svg" xmlns:xlink="http://www.w3.org/1999/xlink" x="0px" y="0px"
	 viewBox="0 0 468.318 468.318" style="enable-background:new 0 0 468.318 468.318;" xml:space="preserve">
<rect x="101.121" y="362.521" style="fill:#3A556A;" width="266.059" height="105.797"/>
<path style="fill:#1C75A1;" d="M426.075,362.495H42.232c-13.794,0-24.976-11.182-24.976-24.976V203.058
	c0-13.794,11.182-24.976,24.976-24.976h383.843c13.794,0,24.976,11.182,24.976,24.976v134.461
	C451.051,351.313,439.869,362.495,426.075,362.495z"/>
<rect x="68.403" y="103.024" style="fill:#3A556A;" width="331.489" height="75.052"/>
<g>
	<polygon style="fill:#E1E6E9;" points="298.114,0 112.187,0 112.187,178.082 356.12,178.082 356.12,58.007 	"/>
	<rect x="112.185" y="362.521" style="fill:#E1E6E9;" width="243.949" height="88.101"/>
</g>
<polygon style="fill:#EBF0F3;" points="298.114,58.007 356.12,58.007 298.114,0.001 "/>
<circle style="fill:#FCD462;" cx="67.766" cy="225.442" r="17.352"/>
<circle style="fill:#F6C358;" cx="67.766" cy="225.442" r="8.673"/>
<circle style="fill:#44C4A1;" cx="125.61" cy="225.442" r="17.352"/>
<circle style="fill:#3EA69B;" cx="125.61" cy="225.442" r="8.673"/>
<g>
	<rect x="166.657" y="218.081" style="fill:#D5D6DB;" width="284.404" height="14.717"/>
	<path style="fill:#D5D6DB;" d="M318.707,131.702H149.601c-3.592,0-6.504,2.909-6.504,6.504c0,3.595,2.912,6.504,6.504,6.504
		h169.106c3.592,0,6.504-2.909,6.504-6.504C325.211,134.611,322.298,131.702,318.707,131.702z"/>
	<path style="fill:#D5D6DB;" d="M318.707,91.58H149.601c-3.592,0-6.504,2.909-6.504,6.504s2.912,6.504,6.504,6.504h169.106
		c3.592,0,6.504-2.909,6.504-6.504S322.298,91.58,318.707,91.58z"/>
	<path style="fill:#D5D6DB;" d="M253.666,51.457H149.601c-3.592,0-6.504,2.909-6.504,6.504c0,3.595,2.912,6.504,6.504,6.504h104.065
		c3.592,0,6.504-2.909,6.504-6.504C260.17,54.366,257.258,51.457,253.666,51.457z"/>
</g>
<g>
</g>
<g>
</g>
<g>
</g>
<g>
</g>
<g>
</g>
<g>
</g>
<g>
</g>
<g>
</g>
<g>
</g>
<g>
</g>
<g>
</g>
<g>
</g>
<g>
</g>
<g>
</g>
<g>
</g>
</svg>
