<?xml version="1.0" encoding="iso-8859-1"?>
<!-- Generator: Adobe Illustrator 19.0.0, SVG Export Plug-In . SVG Version: 6.00 Build 0)  -->
<svg version="1.1" id="Capa_1" xmlns="http://www.w3.org/2000/svg" xmlns:xlink="http://www.w3.org/1999/xlink" x="0px" y="0px"
	 viewBox="0 0 468.293 468.293" style="enable-background:new 0 0 468.293 468.293;" xml:space="preserve">
<path style="fill:#27A2DB;" d="M141.579,92.572v33.787c0,20.535,6.879,40.479,19.538,56.648l26.404,33.723
	c5.966,7.619,9.207,17.018,9.207,26.695v68.016h74.845v-68.016c0-9.677,3.242-19.075,9.207-26.695l26.404-33.723
	c12.66-16.169,19.538-36.112,19.538-56.648V92.572C326.723,41.446,285.277,0,234.151,0h0C183.025,0,141.579,41.446,141.579,92.572z"
	/>
<path style="fill:#E1E6E9;" d="M296.791,70.604c15.294,32.381-1.509,73.062-7.985,76.121c-6.476,3.059,7.132-32.95-8.162-65.331
	c-15.294-32.381-53.7-48.871-47.224-51.93C239.896,26.405,281.497,38.224,296.791,70.604z"/>
<path style="fill:#E56353;" d="M415.532,336.414v84.23c0,6.931-5.619,12.488-12.488,12.488H65.249
	c-6.869,0-12.488-5.557-12.488-12.488v-84.23c0-13.799,11.176-24.976,24.976-24.976h312.819
	C404.355,311.438,415.532,322.615,415.532,336.414z"/>
<path style="fill:#3A556A;" d="M84.125,468.293h300.051c3.448,0,6.244-2.796,6.244-6.244v-28.897H77.882v28.897
	C77.882,465.497,80.677,468.293,84.125,468.293z"/>
<rect x="52.761" y="353.592" style="fill:#D15241;" width="362.771" height="37.463"/>
<g>
</g>
<g>
</g>
<g>
</g>
<g>
</g>
<g>
</g>
<g>
</g>
<g>
</g>
<g>
</g>
<g>
</g>
<g>
</g>
<g>
</g>
<g>
</g>
<g>
</g>
<g>
</g>
<g>
</g>
</svg>
