<?xml version="1.0" encoding="iso-8859-1"?>
<!-- Generator: Adobe Illustrator 19.0.0, SVG Export Plug-In . SVG Version: 6.00 Build 0)  -->
<svg version="1.1" id="Capa_1" xmlns="http://www.w3.org/2000/svg" xmlns:xlink="http://www.w3.org/1999/xlink" x="0px" y="0px"
	 viewBox="0 0 468.293 468.293" style="enable-background:new 0 0 468.293 468.293;" xml:space="preserve">
<path style="fill:#FCD462;" d="M451.806,54.122v280.291c0,13.29-10.764,24.054-24.054,24.054H40.541
	c-13.29,0-24.054-10.764-24.054-24.054V12.027C16.487,5.352,21.838,0,28.514,0h90.122c3.368,0,6.615,1.443,8.9,3.969l30.849,34.156
	c2.285,2.526,5.533,3.969,8.961,3.969h272.433C446.394,42.095,451.806,47.447,451.806,54.122z"/>
<g>
	<path style="fill:#F6C358;" d="M16.487,319.319v15.094c0,13.29,10.764,24.054,24.054,24.054h387.211
		c13.29,0,24.054-10.764,24.054-24.054v-15.094H16.487z"/>
	<rect x="16.484" y="110.018" style="fill:#F6C358;" width="435.325" height="24.713"/>
</g>
<path style="fill:#DC8744;" d="M340.901,330.35l99.917,96.591c9.555,9.237,9.813,24.458,0.576,34.013
	c-9.237,9.555-24.457,9.813-34.013,0.576l-99.917-96.591L340.901,330.35z"/>
<ellipse style="fill:#E56353;" cx="255.02" cy="280.792" rx="115.531" ry="115.531"/>
<ellipse style="fill:#E1E6E9;" cx="255.02" cy="280.792" rx="96.219" ry="96.219"/>
<path style="fill:#EBF0F3;" d="M261.737,207.403c29.956,3.716,52.215,27.799,51.678,32.127s-18.899-13.855-48.855-17.572
	s-60.162,8.44-59.625,4.113C205.473,221.744,231.781,203.687,261.737,207.403z"/>
<g>
	
		<rect x="385.682" y="424.347" transform="matrix(-0.695 0.719 -0.719 -0.695 1003.9363 434.8896)" style="fill:#E1E6E9;" width="48.109" height="12.026"/>
	
		<rect x="364.052" y="403.399" transform="matrix(-0.695 0.719 -0.719 -0.695 952.2123 414.9319)" style="fill:#E1E6E9;" width="48.109" height="12.026"/>
</g>
<g>
</g>
<g>
</g>
<g>
</g>
<g>
</g>
<g>
</g>
<g>
</g>
<g>
</g>
<g>
</g>
<g>
</g>
<g>
</g>
<g>
</g>
<g>
</g>
<g>
</g>
<g>
</g>
<g>
</g>
</svg>
