<?xml version="1.0" encoding="iso-8859-1"?>
<!-- Generator: Adobe Illustrator 19.0.0, SVG Export Plug-In . SVG Version: 6.00 Build 0)  -->
<svg version="1.1" id="Capa_1" xmlns="http://www.w3.org/2000/svg" xmlns:xlink="http://www.w3.org/1999/xlink" x="0px" y="0px"
	 viewBox="0 0 468.293 468.293" style="enable-background:new 0 0 468.293 468.293;" xml:space="preserve">
<path style="fill:#FCD462;" d="M119.405,46.897v374.499c0,8.993-7.29,16.283-16.283,16.283h-86.84C7.29,437.679,0,430.389,0,421.396
	V46.897c0-8.993,7.29-16.283,16.283-16.283h86.84C112.115,30.615,119.405,37.905,119.405,46.897z"/>
<rect y="57.75" style="fill:#E56353;" width="119.383" height="69.907"/>
<circle style="fill:#E1E6E9;" cx="59.692" cy="376.576" r="43.42"/>
<circle style="fill:#64798A;" cx="59.692" cy="376.576" r="32.568"/>
<g>
	<path style="fill:#E1E6E9;" d="M26.953,85.261h65.499c2.997,0,5.428-2.428,5.428-5.428c0-3-2.43-5.428-5.428-5.428H26.953
		c-2.997,0-5.428,2.428-5.428,5.428C21.526,82.834,23.956,85.261,26.953,85.261z"/>
	<path style="fill:#E1E6E9;" d="M92.452,100.15H26.953c-2.997,0-5.428,2.428-5.428,5.428s2.43,5.428,5.428,5.428h65.499
		c2.997,0,5.428-2.428,5.428-5.428S95.449,100.15,92.452,100.15z"/>
</g>
<path style="fill:#27A2DB;" d="M82.586,301.945H36.82c-6.897,0-12.488-5.591-12.488-12.488V181.346
	c0-6.897,5.591-12.488,12.488-12.488h45.766c6.897,0,12.488,5.591,12.488,12.488v108.111
	C95.074,296.354,89.483,301.945,82.586,301.945z"/>
<path style="fill:#FCD462;" d="M468.293,46.897v374.499c0,8.993-7.29,16.283-16.283,16.283h-86.84
	c-8.993,0-16.283-7.29-16.283-16.283V46.897c0-8.993,7.29-16.283,16.283-16.283h86.84C461.003,30.615,468.293,37.905,468.293,46.897
	z"/>
<rect x="348.909" y="57.75" style="fill:#E56353;" width="119.383" height="69.907"/>
<circle style="fill:#E1E6E9;" cx="408.589" cy="376.576" r="43.42"/>
<circle style="fill:#64798A;" cx="408.589" cy="376.576" r="32.568"/>
<g>
	<path style="fill:#E1E6E9;" d="M375.841,85.261h65.499c2.997,0,5.427-2.428,5.427-5.428c0-3-2.43-5.428-5.427-5.428h-65.499
		c-2.997,0-5.428,2.428-5.428,5.428C370.413,82.834,372.843,85.261,375.841,85.261z"/>
	<path style="fill:#E1E6E9;" d="M441.339,100.15h-65.499c-2.997,0-5.428,2.428-5.428,5.428s2.43,5.428,5.428,5.428h65.499
		c2.997,0,5.427-2.428,5.427-5.428S444.337,100.15,441.339,100.15z"/>
</g>
<path style="fill:#27A2DB;" d="M431.473,301.945h-45.766c-6.897,0-12.488-5.591-12.488-12.488V181.346
	c0-6.897,5.591-12.488,12.488-12.488h45.766c6.897,0,12.488,5.591,12.488,12.488v108.111
	C443.961,296.354,438.37,301.945,431.473,301.945z"/>
<path style="fill:#FCD462;" d="M326.148,61.432l-70.297,367.841c-1.688,8.833-10.217,14.625-19.05,12.937l-85.297-16.301
	c-8.833-1.688-14.625-10.217-12.937-19.049l70.297-367.841c1.688-8.833,10.217-14.625,19.05-12.937l85.297,16.301
	C322.044,44.071,327.836,52.6,326.148,61.432z"/>
<rect x="223.954" y="35.533" transform="matrix(-0.1877 0.9822 -0.9822 -0.1877 401.0382 -141.2063)" style="fill:#E56353;" width="69.906" height="119.383"/>
<ellipse style="fill:#E1E6E9;" cx="205.657" cy="374.049" rx="43.42" ry="43.42"/>
<ellipse transform="matrix(-0.9993 -0.038 0.038 -0.9993 396.9359 755.6512)" style="fill:#64798A;" cx="205.657" cy="374.049" rx="32.568" ry="32.562"/>
<g>
	<path style="fill:#E1E6E9;" d="M228.138,81.76l64.334,12.295c2.944,0.563,5.787-1.366,6.35-4.312
		c0.563-2.947-1.368-5.787-4.312-6.35l-64.334-12.295c-2.944-0.563-5.787,1.366-6.35,4.312
		C223.263,78.357,225.194,81.198,228.138,81.76z"/>
	<path style="fill:#E1E6E9;" d="M289.678,108.679l-64.334-12.295c-2.944-0.563-5.787,1.366-6.35,4.312
		c-0.563,2.947,1.368,5.787,4.312,6.35l64.334,12.295c2.944,0.563,5.787-1.366,6.35-4.312
		C294.553,112.082,292.622,109.242,289.678,108.679z"/>
</g>
<path style="fill:#27A2DB;" d="M242.108,305.035l-44.953-8.591c-6.774-1.295-11.216-7.836-9.922-14.61l20.293-106.189
	c1.295-6.774,7.836-11.216,14.61-9.922l44.953,8.591c6.774,1.295,11.216,7.836,9.922,14.61l-20.293,106.189
	C255.424,301.887,248.883,306.329,242.108,305.035z"/>
<g>
</g>
<g>
</g>
<g>
</g>
<g>
</g>
<g>
</g>
<g>
</g>
<g>
</g>
<g>
</g>
<g>
</g>
<g>
</g>
<g>
</g>
<g>
</g>
<g>
</g>
<g>
</g>
<g>
</g>
</svg>
