<?xml version="1.0" encoding="iso-8859-1"?>
<!-- Generator: Adobe Illustrator 19.0.0, SVG Export Plug-In . SVG Version: 6.00 Build 0)  -->
<svg version="1.1" id="Capa_1" xmlns="http://www.w3.org/2000/svg" xmlns:xlink="http://www.w3.org/1999/xlink" x="0px" y="0px"
	 viewBox="0 0 468.293 468.293" style="enable-background:new 0 0 468.293 468.293;" xml:space="preserve">
<polygon style="fill:#E1E6E9;" points="87.396,0 250.36,220.164 235.666,247.925 203.69,233.406 "/>
<polygon style="fill:#27A2DB;" points="203.69,233.406 235.666,247.925 262.317,367.107 237.153,374.258 "/>
<path style="fill:#3A556A;" d="M237.347,438.551c17.499,27.868,51.779,37.956,76.413,22.488s30.437-50.727,12.938-78.595
	c-17.499-27.868-51.779-37.956-76.413-22.488S219.848,410.683,237.347,438.551z M250.621,430.215
	c-12.924-20.582-9.343-46.094,7.999-56.984c17.342-10.89,41.878-3.033,54.802,17.549c12.924,20.582,9.343,46.095-7.999,56.984
	C288.081,458.654,263.546,450.797,250.621,430.215z"/>
<polygon style="fill:#E1E6E9;" points="4.407,83.806 217.522,255.883 245.876,242.37 232.715,209.812 "/>
<polygon style="fill:#27A2DB;" points="232.715,209.812 245.876,242.37 363.832,274.009 372.035,249.168 "/>
<g>
	<path style="fill:#3A556A;" d="M357.194,261.687c-16.49,23.961-7.852,58.635,19.255,77.29
		c27.107,18.656,62.579,14.339,79.069-9.622s7.852-58.635-19.255-77.29C409.156,233.41,373.684,237.726,357.194,261.687z
		 M442.606,320.469c-11.609,16.869-37.25,19.374-57.27,5.596c-20.02-13.778-26.838-38.622-15.229-55.491
		c11.609-16.869,37.25-19.374,57.27-5.596C447.396,278.756,454.215,303.6,442.606,320.469z"/>
	<circle style="fill:#3A556A;" cx="212.748" cy="225.505" r="11.495"/>
</g>
<g>
</g>
<g>
</g>
<g>
</g>
<g>
</g>
<g>
</g>
<g>
</g>
<g>
</g>
<g>
</g>
<g>
</g>
<g>
</g>
<g>
</g>
<g>
</g>
<g>
</g>
<g>
</g>
<g>
</g>
</svg>
