<?xml version="1.0" encoding="iso-8859-1"?>
<!-- Generator: Adobe Illustrator 19.0.0, SVG Export Plug-In . SVG Version: 6.00 Build 0)  -->
<svg version="1.1" id="Capa_1" xmlns="http://www.w3.org/2000/svg" xmlns:xlink="http://www.w3.org/1999/xlink" x="0px" y="0px"
	 viewBox="0 0 468.293 468.293" style="enable-background:new 0 0 468.293 468.293;" xml:space="preserve">
<path style="fill:#E56353;" d="M468.293,260.037v-51.784c0-6.04-4.323-11.215-10.267-12.289l-38.015-6.87
	c-4.713-19.514-12.381-37.873-22.567-54.539l22.008-31.718c3.443-4.963,2.841-11.678-1.43-15.949l-36.617-36.617
	c-4.271-4.271-10.987-4.873-15.949-1.43l-31.718,22.008c-16.666-10.186-35.024-17.855-54.54-22.57l-6.87-38.012
	C271.254,4.323,266.08,0,260.039,0h-51.784c-6.04,0-11.215,4.323-12.289,10.267l-6.869,38.012
	c-19.514,4.714-37.871,12.383-54.537,22.569l-31.719-22.01c-4.963-3.443-11.678-2.841-15.949,1.43L50.274,86.884
	c-4.271,4.271-4.873,10.987-1.43,15.949l22.009,31.719c-10.186,16.666-17.855,35.024-22.569,54.539l-38.017,6.87
	C4.323,197.036,0,202.211,0,208.251v51.784c0,6.04,4.323,11.215,10.267,12.289l38.017,6.87
	c4.713,19.514,12.383,37.872,22.569,54.537l-22.011,31.722c-3.443,4.963-2.841,11.678,1.43,15.949l36.617,36.617
	c4.271,4.271,10.987,4.873,15.949,1.43l31.722-22.011c16.665,10.186,35.023,17.854,54.536,22.569l6.871,38.019
	c1.074,5.944,6.249,10.267,12.289,10.267h51.785c6.04,0,11.214-4.323,12.289-10.267l6.872-38.019
	c19.513-4.714,37.87-12.383,54.537-22.569l31.718,22.009c4.963,3.444,11.678,2.842,15.949-1.429l36.617-36.617
	c4.271-4.271,4.873-10.987,1.43-15.949l-22.009-31.719c10.186-16.665,17.855-35.023,22.57-54.537l38.015-6.87
	C463.97,271.251,468.293,266.077,468.293,260.037z"/>
<circle style="fill:#E1E6E9;" cx="234.146" cy="234.146" r="147.643"/>
<g>
</g>
<g>
</g>
<g>
</g>
<g>
</g>
<g>
</g>
<g>
</g>
<g>
</g>
<g>
</g>
<g>
</g>
<g>
</g>
<g>
</g>
<g>
</g>
<g>
</g>
<g>
</g>
<g>
</g>
</svg>
