<?xml version="1.0" encoding="iso-8859-1"?>
<!-- Generator: Adobe Illustrator 19.0.0, SVG Export Plug-In . SVG Version: 6.00 Build 0)  -->
<svg version="1.1" id="Capa_1" xmlns="http://www.w3.org/2000/svg" xmlns:xlink="http://www.w3.org/1999/xlink" x="0px" y="0px"
	 viewBox="0 0 468.293 468.293" style="enable-background:new 0 0 468.293 468.293;" xml:space="preserve">
<rect x="88.342" style="fill:#DC8744;" width="291.609" height="468.293"/>
<path style="fill:#FCD462;" d="M361.949,152.278H106.337V21.612h255.613V152.278z M128.709,129.906h210.868V43.984H128.709V129.906z
	"/>
<g>
	<path style="fill:#E1E6E9;" d="M128.709,129.906h210.868V43.984H128.709V129.906z"/>
	<path style="fill:#E1E6E9;" d="M128.709,277.11h210.868v-85.921H128.709V277.11z"/>
	<path style="fill:#E1E6E9;" d="M128.709,424.311h210.868V338.39H128.709V424.311z"/>
</g>
<g>
	<path style="fill:#FCD462;" d="M361.949,299.482H106.337V168.816h255.613V299.482z M128.709,277.11h210.868v-85.921H128.709V277.11
		z"/>
	<path style="fill:#FCD462;" d="M361.949,446.681H106.337v-130.66h255.613V446.681z M128.709,424.309h210.868v-85.916H128.709
		V424.309z"/>
</g>
<g>
	<circle style="fill:#DC8744;" cx="234.143" cy="98.129" r="16.777"/>
	<circle style="fill:#DC8744;" cx="234.143" cy="245.335" r="16.777"/>
	<circle style="fill:#DC8744;" cx="234.143" cy="392.554" r="16.777"/>
</g>
<g>
</g>
<g>
</g>
<g>
</g>
<g>
</g>
<g>
</g>
<g>
</g>
<g>
</g>
<g>
</g>
<g>
</g>
<g>
</g>
<g>
</g>
<g>
</g>
<g>
</g>
<g>
</g>
<g>
</g>
</svg>
