<?xml version="1.0" encoding="iso-8859-1"?>
<!-- Generator: Adobe Illustrator 19.0.0, SVG Export Plug-In . SVG Version: 6.00 Build 0)  -->
<svg version="1.1" id="Capa_1" xmlns="http://www.w3.org/2000/svg" xmlns:xlink="http://www.w3.org/1999/xlink" x="0px" y="0px"
	 viewBox="0 0 468.293 468.293" style="enable-background:new 0 0 468.293 468.293;" xml:space="preserve">
<g>
	<path style="fill:#3A556A;" d="M319.845,139.716H148.448V78.741c0-13.771,11.201-24.976,24.976-24.976h121.445
		c13.774,0,24.976,11.204,24.976,24.976V139.716z M173.424,114.741h121.445V84.985c0-3.448-2.796-6.244-6.244-6.244H179.668
		c-3.448,0-6.244,2.795-6.244,6.244V114.741z"/>
	<path style="fill:#3A556A;" d="M433.951,414.527H34.341c-10.345,0-18.732-8.386-18.732-18.732V114.82h437.073v280.976
		C452.683,406.141,444.296,414.527,433.951,414.527z"/>
</g>
<path style="fill:#DC8744;" d="M0,114.82v154.271c0,5.658,3.804,10.608,9.27,12.066l63.996,17.066
	c105.412,28.11,216.351,28.11,321.763,0l63.994-17.065c5.467-1.458,9.27-6.409,9.27-12.066V114.82H0z"/>
<rect x="221.659" y="114.819" style="fill:#EBF0F3;" width="24.976" height="170.021"/>
<path style="fill:#E1E6E9;" d="M249.756,356.768h-31.22c-6.897,0-12.488-5.591-12.488-12.488v-49.951
	c0-6.897,5.591-12.488,12.488-12.488h31.22c6.897,0,12.488,5.591,12.488,12.488v49.951
	C262.244,351.177,256.653,356.768,249.756,356.768z"/>
<path style="fill:#D5D6DB;" d="M252.503,281.842h-9.741c5.38,0,9.741,5.591,9.741,12.488v49.951c0,6.897-4.361,12.488-9.741,12.488
	h9.741c5.38,0,9.741-5.591,9.741-12.488v-49.951C262.244,287.432,257.883,281.842,252.503,281.842z"/>
<g>
</g>
<g>
</g>
<g>
</g>
<g>
</g>
<g>
</g>
<g>
</g>
<g>
</g>
<g>
</g>
<g>
</g>
<g>
</g>
<g>
</g>
<g>
</g>
<g>
</g>
<g>
</g>
<g>
</g>
</svg>
