<?xml version="1.0" encoding="iso-8859-1"?>
<!-- Generator: Adobe Illustrator 19.0.0, SVG Export Plug-In . SVG Version: 6.00 Build 0)  -->
<svg version="1.1" id="Capa_1" xmlns="http://www.w3.org/2000/svg" xmlns:xlink="http://www.w3.org/1999/xlink" x="0px" y="0px"
	 viewBox="0 0 468.293 468.293" style="enable-background:new 0 0 468.293 468.293;" xml:space="preserve">
<path style="fill:#E1E6E9;" d="M127.508,0L71.805,55.703v393.858c0,10.345,8.386,18.732,18.732,18.732h287.219
	c10.345,0,18.732-8.386,18.732-18.732V18.732C396.488,8.386,388.101,0,377.756,0C377.756,0,127.508,0,127.508,0z"/>
<polygon style="fill:#EBF0F3;" points="127.508,55.703 127.508,0 71.805,55.703 "/>
<g>
	<path style="fill:#64798A;" d="M164.971,163.945h-37.463v-31.22c0-3.448,2.795-6.244,6.244-6.244h24.976
		c3.448,0,6.244,2.795,6.244,6.244V163.945z"/>
	<path style="fill:#64798A;" d="M164.971,241.801h-37.463v-31.22c0-3.448,2.795-6.244,6.244-6.244h24.976
		c3.448,0,6.244,2.795,6.244,6.244V241.801z"/>
	<path style="fill:#64798A;" d="M164.971,319.657h-37.463v-31.22c0-3.448,2.795-6.244,6.244-6.244h24.976
		c3.448,0,6.244,2.796,6.244,6.244V319.657z"/>
	<path style="fill:#64798A;" d="M164.971,397.514h-37.463v-31.22c0-3.448,2.795-6.244,6.244-6.244h24.976
		c3.448,0,6.244,2.796,6.244,6.244V397.514z"/>
</g>
<g>
	<rect x="127.507" y="157.702" style="fill:#D5D6DB;" width="37.463" height="6.244"/>
	<rect x="127.507" y="235.582" style="fill:#D5D6DB;" width="37.463" height="6.244"/>
	<rect x="127.507" y="313.413" style="fill:#D5D6DB;" width="37.463" height="6.244"/>
	<rect x="127.507" y="391.243" style="fill:#D5D6DB;" width="37.463" height="6.244"/>
	<rect x="199.561" y="151.458" style="fill:#D5D6DB;" width="162.341" height="12.488"/>
	<rect x="199.561" y="229.339" style="fill:#D5D6DB;" width="162.341" height="12.488"/>
	<rect x="199.561" y="307.169" style="fill:#D5D6DB;" width="162.341" height="12.488"/>
	<rect x="199.561" y="384.999" style="fill:#D5D6DB;" width="162.341" height="12.488"/>
</g>
<g>
</g>
<g>
</g>
<g>
</g>
<g>
</g>
<g>
</g>
<g>
</g>
<g>
</g>
<g>
</g>
<g>
</g>
<g>
</g>
<g>
</g>
<g>
</g>
<g>
</g>
<g>
</g>
<g>
</g>
</svg>
