<?xml version="1.0" encoding="iso-8859-1"?>
<!-- Generator: Adobe Illustrator 19.0.0, SVG Export Plug-In . SVG Version: 6.00 Build 0)  -->
<svg version="1.1" id="Capa_1" xmlns="http://www.w3.org/2000/svg" xmlns:xlink="http://www.w3.org/1999/xlink" x="0px" y="0px"
	 viewBox="0 0 468.455 468.455" style="enable-background:new 0 0 468.455 468.455;" xml:space="preserve">
<g>
	<path style="fill:#E1E6E9;" d="M89.632,323.278L44.01,338.486l-25.771,8.56c-5.054,1.685-9.835-3.096-8.196-8.105l8.515-25.907
		l15.025-45.804l9.106-9.197l18.304,18.212l19.806,19.624l18.121,18.03L89.632,323.278z"/>
	<path style="fill:#E1E6E9;" d="M41.602,457.462L447.747,51.318c4.056-4.056,10.992-1.183,10.992,4.553v406.144
		c0,3.556-2.883,6.439-6.439,6.439H46.156C40.419,468.454,37.546,461.519,41.602,457.462z"/>
</g>
<path style="fill:#FFFFFF;" d="M179.218,407.754h212.864c3.287,0,5.952-2.665,5.952-5.952V188.938c0-5.303-6.411-7.959-10.161-4.209
	L175.009,397.593C171.26,401.343,173.915,407.754,179.218,407.754z"/>
<g>
	<rect x="400.815" y="439.845" style="fill:#64798A;" width="6.437" height="28.61"/>
	<rect x="371.905" y="452.72" style="fill:#64798A;" width="6.437" height="15.735"/>
	<rect x="342.996" y="439.845" style="fill:#64798A;" width="6.437" height="28.61"/>
	<rect x="314.068" y="452.72" style="fill:#64798A;" width="6.437" height="15.735"/>
	<rect x="285.178" y="439.845" style="fill:#64798A;" width="6.437" height="28.61"/>
	<rect x="256.256" y="452.72" style="fill:#64798A;" width="6.437" height="15.735"/>
	<rect x="227.353" y="439.845" style="fill:#64798A;" width="6.437" height="28.61"/>
	<rect x="198.45" y="452.72" style="fill:#64798A;" width="6.437" height="15.735"/>
	<rect x="169.541" y="439.845" style="fill:#64798A;" width="6.437" height="28.61"/>
	<rect x="140.631" y="452.72" style="fill:#64798A;" width="6.437" height="15.735"/>
	<rect x="111.728" y="439.845" style="fill:#64798A;" width="6.437" height="28.61"/>
</g>
<path style="fill:#3EA69B;" d="M303.537,109.373L89.632,323.278c5.191-5.191,5.145-13.523,0-18.668
	c-3.779-3.779-9.288-4.826-14.023-3.005c-0.228,0.137-0.455,0.091-0.638,0.091c-0.774-0.137-1.32-0.956-1.002-1.73
	c1.821-4.735,0.774-10.245-3.005-14.023c-3.825-3.825-9.289-4.827-14.024-3.006c-0.82,0.273-1.548-0.182-1.73-0.91
	c-0.045-0.228-0.046-0.501,0.091-0.729c1.821-4.735,0.774-10.244-3.005-14.023c-5.191-5.191-13.523-5.236-18.713-0.046
	L247.488,53.324L303.537,109.373z"/>
<path style="fill:#3A556A;" d="M44.01,338.486l-25.795,8.577c-5.019,1.669-9.798-3.09-8.151-8.116l8.493-25.914L44.01,338.486z"/>
<path style="fill:#44C4A1;" d="M285.416,91.251L74.971,301.697c-0.774-0.137-1.32-0.956-1.002-1.73
	c1.821-4.735,0.774-10.245-3.005-14.023c-3.825-3.825-9.289-4.827-14.024-3.006c-0.82,0.273-1.548-0.182-1.73-0.91l210.49-210.491
	L285.416,91.251z"/>
<rect x="243.618" y="62.658" transform="matrix(-0.7071 -0.7071 0.7071 -0.7071 431.4952 325.9392)" style="fill:#D5D6DB;" width="79.267" height="21.891"/>
<path style="fill:#27A2DB;" d="M319.016,93.894l-56.049-56.049l34.187-34.187c4.877-4.877,12.784-4.877,17.66,0l38.388,38.388
	c4.877,4.877,4.877,12.784,0,17.66L319.016,93.894z"/>
<g>
</g>
<g>
</g>
<g>
</g>
<g>
</g>
<g>
</g>
<g>
</g>
<g>
</g>
<g>
</g>
<g>
</g>
<g>
</g>
<g>
</g>
<g>
</g>
<g>
</g>
<g>
</g>
<g>
</g>
</svg>
