<?xml version="1.0" encoding="iso-8859-1"?>
<!-- Generator: Adobe Illustrator 19.0.0, SVG Export Plug-In . SVG Version: 6.00 Build 0)  -->
<svg version="1.1" id="Capa_1" xmlns="http://www.w3.org/2000/svg" xmlns:xlink="http://www.w3.org/1999/xlink" x="0px" y="0px"
	 viewBox="0 0 468.293 468.293" style="enable-background:new 0 0 468.293 468.293;" xml:space="preserve">
<path style="fill:#3A556A;" d="M252.384,430.194l-18.436-4.067c-13.631-3.007-29.581-15.087-29.581-29.046v-90.633h-30.548v90.633
	c0,13.959-15.95,26.039-29.581,29.046l-18.436,4.067c-8.834,1.948-15.123,9.777-15.123,18.823c0,10.646,8.63,19.275,19.276,19.275
	h118.276c10.646,0,19.276-8.63,19.276-19.275C267.507,439.972,261.217,432.143,252.384,430.194z"/>
<path style="fill:#2F4859;" d="M164.077,248.162h-25.084V172.91c0-20.748,16.878-37.626,37.626-37.626h119.844v25.084H176.619
	c-6.916,0-12.542,5.626-12.542,12.542V248.162z"/>
<path style="fill:#1C75A1;" d="M288.836,246.228l-140.937-20.666c-32.63-4.785-63.093,9.853-80.582,34.576
	c-14.324,20.249,0.204,48.26,25.006,48.26h193.031c18.789,0,33.696-16.622,30.816-35.963
	C314.123,258.684,302.591,248.245,288.836,246.228z"/>
<path style="fill:#2D93BA;" d="M404.822,48.313l-70.227,219.869c-5.14,16.091-24.923,21.878-37.924,11.094l-2.616-2.17
	c-12.855-10.663-20.586-26.259-21.152-42.951c-1.773-52.304,3.563-167.771,77.999-228.534c0,0,0.812-0.541,2.279-1.322
	C381.984-11.033,414.749,17.231,404.822,48.313z"/>
<g>
</g>
<g>
</g>
<g>
</g>
<g>
</g>
<g>
</g>
<g>
</g>
<g>
</g>
<g>
</g>
<g>
</g>
<g>
</g>
<g>
</g>
<g>
</g>
<g>
</g>
<g>
</g>
<g>
</g>
</svg>
