<?xml version="1.0" encoding="iso-8859-1"?>
<!-- Generator: Adobe Illustrator 19.0.0, SVG Export Plug-In . SVG Version: 6.00 Build 0)  -->
<svg version="1.1" id="Capa_1" xmlns="http://www.w3.org/2000/svg" xmlns:xlink="http://www.w3.org/1999/xlink" x="0px" y="0px"
	 viewBox="0 0 468.293 468.293" style="enable-background:new 0 0 468.293 468.293;" xml:space="preserve">
<path style="fill:#64798A;" d="M416.488,81.299H276.44c-3.448,0-6.244-2.795-6.244-6.244v-3.457c0-3.448,2.795-6.244,6.244-6.244
	h140.048c3.448,0,6.244,2.795,6.244,6.244v3.457C422.732,78.503,419.937,81.299,416.488,81.299z"/>
<rect x="65.998" y="15.922" style="fill:#E1E6E9;" width="219.036" height="420.402"/>
<rect x="284.997" y="81.327" style="fill:#D5D6DB;" width="122.917" height="355.06"/>
<g>
	<path style="fill:#64798A;" d="M53.243,436.36h361.806c6.897,0,12.488,5.591,12.488,12.488v6.957
		c0,6.897-5.591,12.488-12.488,12.488H53.243c-6.897,0-12.488-5.591-12.488-12.488v-6.957
		C40.755,441.951,46.346,436.36,53.243,436.36z"/>
	<rect x="103.961" y="50.257" style="fill:#64798A;" width="33.636" height="33.636"/>
	<rect x="158.676" y="50.257" style="fill:#64798A;" width="33.636" height="33.636"/>
	<rect x="213.373" y="50.257" style="fill:#64798A;" width="33.636" height="33.636"/>
	<rect x="302.299" y="125.203" style="fill:#64798A;" width="33.636" height="33.636"/>
	<rect x="356.995" y="125.203" style="fill:#64798A;" width="33.636" height="33.636"/>
	<rect x="302.299" y="183.608" style="fill:#64798A;" width="33.636" height="33.636"/>
	<rect x="356.995" y="183.608" style="fill:#64798A;" width="33.636" height="33.636"/>
	<rect x="302.299" y="242.014" style="fill:#64798A;" width="33.636" height="33.636"/>
	<rect x="356.995" y="242.014" style="fill:#64798A;" width="33.636" height="33.636"/>
	<rect x="302.299" y="300.419" style="fill:#64798A;" width="33.636" height="33.636"/>
	<rect x="356.995" y="300.419" style="fill:#64798A;" width="33.636" height="33.636"/>
	<rect x="302.299" y="358.818" style="fill:#64798A;" width="33.636" height="33.636"/>
	<rect x="356.995" y="358.818" style="fill:#64798A;" width="33.636" height="33.636"/>
	<rect x="103.961" y="108.656" style="fill:#64798A;" width="33.636" height="33.636"/>
	<rect x="158.676" y="108.656" style="fill:#64798A;" width="33.636" height="33.636"/>
	<rect x="213.373" y="108.656" style="fill:#64798A;" width="33.636" height="33.636"/>
	<rect x="103.961" y="167.087" style="fill:#64798A;" width="33.636" height="33.636"/>
	<rect x="158.676" y="167.087" style="fill:#64798A;" width="33.636" height="33.636"/>
	<rect x="213.373" y="167.087" style="fill:#64798A;" width="33.636" height="33.636"/>
	<rect x="103.961" y="225.467" style="fill:#64798A;" width="33.636" height="33.636"/>
	<rect x="158.676" y="225.467" style="fill:#64798A;" width="33.636" height="33.636"/>
	<rect x="213.373" y="225.467" style="fill:#64798A;" width="33.636" height="33.636"/>
	<rect x="103.961" y="283.873" style="fill:#64798A;" width="33.636" height="33.636"/>
	<rect x="158.676" y="283.873" style="fill:#64798A;" width="33.636" height="33.636"/>
	<rect x="213.373" y="283.873" style="fill:#64798A;" width="33.636" height="33.636"/>
</g>
<path style="fill:#D5D6DB;" d="M219.656,436.36h-88.328v-85.898c0-6.897,5.591-12.488,12.488-12.488h63.352
	c6.897,0,12.488,5.591,12.488,12.488V436.36z"/>
<path style="fill:#64798A;" d="M287.558,15.945H63.426c-3.448,0-6.244-2.795-6.244-6.244V6.244C57.182,2.795,59.978,0,63.426,0
	h224.131c3.448,0,6.244,2.795,6.244,6.244v3.457C293.801,13.149,291.006,15.945,287.558,15.945z"/>
<g>
</g>
<g>
</g>
<g>
</g>
<g>
</g>
<g>
</g>
<g>
</g>
<g>
</g>
<g>
</g>
<g>
</g>
<g>
</g>
<g>
</g>
<g>
</g>
<g>
</g>
<g>
</g>
<g>
</g>
</svg>
