<?xml version="1.0" encoding="iso-8859-1"?>
<!-- Generator: Adobe Illustrator 19.0.0, SVG Export Plug-In . SVG Version: 6.00 Build 0)  -->
<svg version="1.1" id="Capa_1" xmlns="http://www.w3.org/2000/svg" xmlns:xlink="http://www.w3.org/1999/xlink" x="0px" y="0px"
	 viewBox="0 0 468.293 468.293" style="enable-background:new 0 0 468.293 468.293;" xml:space="preserve">
<path style="fill:#3EA69B;" d="M375.45,468.293H92.843c-10.345,0-18.732-8.386-18.732-18.732V58.36
	c0-10.345,8.386-18.732,18.732-18.732H375.45c10.345,0,18.732,8.386,18.732,18.732v391.201
	C394.181,459.906,385.795,468.293,375.45,468.293z"/>
<rect x="102.65" y="68.208" style="fill:#EBF0F3;" width="262.931" height="371.512"/>
<path style="fill:#DC8744;" d="M300.058,35.986c-15.956,0-29.486-10.385-34.2-24.765C263.669,4.551,257.513,0,250.492,0h-32.691
	c-7.021,0-13.178,4.551-15.366,11.221c-4.714,14.379-18.244,24.765-34.2,24.765c-1.294,0-4.261-0.915-5.176,0
	c-7.233,7.233,0,40.914,0,40.914c0,5.957,4.83,10.786,10.786,10.786h120.602c5.957,0,10.786-4.829,10.786-10.786
	c0,0,7.233-33.681,0-40.914C304.319,35.071,301.352,35.986,300.058,35.986z"/>
<circle style="fill:#F6C358;" cx="234.146" cy="32.137" r="18.857"/>
<path style="fill:#E56353;" d="M227.421,137.246h-96.154c-3.159,0-5.716-2.556-5.716-5.716c0-3.159,2.556-5.716,5.716-5.716h96.154
	c3.159,0,5.716,2.556,5.716,5.716C233.136,134.69,230.58,137.246,227.421,137.246z"/>
<path style="fill:#27A2DB;" d="M198.843,166.538h-67.576c-3.159,0-5.716-2.556-5.716-5.716c0-3.159,2.556-5.716,5.716-5.716h67.576
	c3.159,0,5.716,2.556,5.716,5.716C204.558,163.981,202.002,166.538,198.843,166.538z"/>
<g>
	<path style="fill:#E56353;" d="M227.421,195.829h-96.154c-3.159,0-5.716-2.556-5.716-5.716c0-3.159,2.556-5.716,5.716-5.716h96.154
		c3.159,0,5.716,2.556,5.716,5.716C233.136,193.272,230.58,195.829,227.421,195.829z"/>
	<path style="fill:#E56353;" d="M227.421,343.005h-96.154c-3.159,0-5.716-2.556-5.716-5.716c0-3.159,2.556-5.716,5.716-5.716h96.154
		c3.159,0,5.716,2.556,5.716,5.716C233.136,340.449,230.58,343.005,227.421,343.005z"/>
</g>
<path style="fill:#27A2DB;" d="M198.843,372.297h-67.576c-3.159,0-5.716-2.556-5.716-5.716c0-3.159,2.556-5.716,5.716-5.716h67.576
	c3.159,0,5.716,2.556,5.716,5.716C204.558,369.74,202.002,372.297,198.843,372.297z"/>
<g>
	<path style="fill:#E56353;" d="M227.421,401.588h-96.154c-3.159,0-5.716-2.556-5.716-5.716c0-3.159,2.556-5.716,5.716-5.716h96.154
		c3.159,0,5.716,2.556,5.716,5.716C233.136,399.032,230.58,401.588,227.421,401.588z"/>
	<path style="fill:#E56353;" d="M240.872,240.126h96.154c3.159,0,5.716-2.556,5.716-5.716c0-3.159-2.556-5.716-5.716-5.716h-96.154
		c-3.159,0-5.716,2.556-5.716,5.716C235.157,237.57,237.713,240.126,240.872,240.126z"/>
</g>
<g>
	<path style="fill:#27A2DB;" d="M269.45,269.417h67.576c3.159,0,5.716-2.556,5.716-5.716s-2.556-5.716-5.716-5.716H269.45
		c-3.159,0-5.716,2.556-5.716,5.716S266.291,269.417,269.45,269.417z"/>
</g>
<g>
	<path style="fill:#E56353;" d="M240.872,298.708h96.154c3.159,0,5.716-2.556,5.716-5.716s-2.556-5.716-5.716-5.716h-96.154
		c-3.159,0-5.716,2.556-5.716,5.716S237.713,298.708,240.872,298.708z"/>
</g>
<g>
</g>
<g>
</g>
<g>
</g>
<g>
</g>
<g>
</g>
<g>
</g>
<g>
</g>
<g>
</g>
<g>
</g>
<g>
</g>
<g>
</g>
<g>
</g>
<g>
</g>
<g>
</g>
<g>
</g>
</svg>
