<?xml version="1.0" encoding="iso-8859-1"?>
<!-- Generator: Adobe Illustrator 19.0.0, SVG Export Plug-In . SVG Version: 6.00 Build 0)  -->
<svg version="1.1" id="Capa_1" xmlns="http://www.w3.org/2000/svg" xmlns:xlink="http://www.w3.org/1999/xlink" x="0px" y="0px"
	 viewBox="0 0 468.293 468.293" style="enable-background:new 0 0 468.293 468.293;" xml:space="preserve">
<path style="fill:#E1E6E9;" d="M325.81,0H104.342C93.714,0,85.098,8.616,85.098,19.245v225.877h298.079V57.367L325.81,0z"/>
<polygon style="fill:#EBF0F3;" points="325.808,57.366 383.177,57.367 325.81,0 "/>
<path style="fill:#FCD462;" d="M433.769,231.329v211.305c0,14.177-11.483,25.659-25.659,25.659H60.17
	c-14.177,0-25.659-11.483-25.659-25.659V188.734c0-7.12,5.774-12.83,12.83-12.83h84.868c3.593,0,6.993,1.475,9.43,4.17
	l31.497,34.255c2.438,2.63,5.838,4.17,9.43,4.17H420.94C427.997,218.499,433.769,224.208,433.769,231.329z"/>
<rect x="34.522" y="282.711" style="fill:#F6C358;" width="399.26" height="25.662"/>
<g>
	<path style="fill:#D5D6DB;" d="M262.533,50.95H124.514c-3.546,0-6.415,2.869-6.415,6.415c0,3.546,2.869,6.415,6.415,6.415h138.019
		c3.546,0,6.415-2.869,6.415-6.415C268.948,53.819,266.079,50.95,262.533,50.95z"/>
	<path style="fill:#D5D6DB;" d="M344.843,93.028H123.431c-3.546,0-6.415,2.869-6.415,6.415c0,3.546,2.869,6.415,6.415,6.415h221.412
		c3.546,0,6.415-2.869,6.415-6.415C351.258,95.897,348.389,93.028,344.843,93.028z"/>
	<path style="fill:#D5D6DB;" d="M344.843,135.107H123.431c-3.546,0-6.415,2.869-6.415,6.415s2.869,6.415,6.415,6.415h221.412
		c3.546,0,6.415-2.869,6.415-6.415S348.389,135.107,344.843,135.107z"/>
</g>
<g>
</g>
<g>
</g>
<g>
</g>
<g>
</g>
<g>
</g>
<g>
</g>
<g>
</g>
<g>
</g>
<g>
</g>
<g>
</g>
<g>
</g>
<g>
</g>
<g>
</g>
<g>
</g>
<g>
</g>
</svg>
