<?xml version="1.0" encoding="iso-8859-1"?>
<!-- Generator: Adobe Illustrator 19.0.0, SVG Export Plug-In . SVG Version: 6.00 Build 0)  -->
<svg version="1.1" id="Capa_1" xmlns="http://www.w3.org/2000/svg" xmlns:xlink="http://www.w3.org/1999/xlink" x="0px" y="0px"
	 viewBox="0 0 468.318 468.318" style="enable-background:new 0 0 468.318 468.318;" xml:space="preserve">
<g>
	<rect x="59.604" y="171.982" style="fill:#DC8744;" width="22.366" height="296.336"/>
	<rect x="400.521" y="171.982" style="fill:#DC8744;" width="22.366" height="296.336"/>
	<rect x="278.865" y="205.524" style="fill:#DC8744;" width="144.047" height="218.087"/>
</g>
<g>
	<rect x="294.962" y="223.657" style="fill:#FCD462;" width="111.816" height="49.439"/>
	<rect x="294.962" y="289.848" style="fill:#FCD462;" width="111.816" height="49.439"/>
	<rect x="294.962" y="356.027" style="fill:#FCD462;" width="111.816" height="49.439"/>
</g>
<g>
	<rect x="81.964" y="373.947" style="fill:#DC8744;" width="196.889" height="16.771"/>
	<path style="fill:#DC8744;" d="M364.846,259.537h-27.954c-3.088,0-5.591-2.503-5.591-5.591l0,0c0-3.088,2.503-5.591,5.591-5.591
		h27.954c3.088,0,5.591,2.503,5.591,5.591l0,0C370.437,257.033,367.934,259.537,364.846,259.537z"/>
	<path style="fill:#DC8744;" d="M364.846,325.748h-27.954c-3.088,0-5.591-2.503-5.591-5.591l0,0c0-3.088,2.503-5.591,5.591-5.591
		h27.954c3.088,0,5.591,2.503,5.591,5.591l0,0C370.437,323.245,367.934,325.748,364.846,325.748z"/>
	<path style="fill:#DC8744;" d="M364.846,391.959h-27.954c-3.088,0-5.591-2.503-5.591-5.591l0,0c0-3.088,2.503-5.591,5.591-5.591
		h27.954c3.088,0,5.591,2.503,5.591,5.591l0,0C370.437,389.456,367.934,391.959,364.846,391.959z"/>
</g>
<path style="fill:#E56353;" d="M437.572,205.523H30.746c-3.448,0-6.244-2.795-6.244-6.244v-21.057c0-3.448,2.795-6.244,6.244-6.244
	h406.825c3.448,0,6.244,2.796,6.244,6.244v21.057C443.815,202.728,441.02,205.523,437.572,205.523z"/>
<path style="fill:#64798A;" d="M329.946,142.457H138.372c-6.897,0-12.488-5.591-12.488-12.488V12.488
	C125.884,5.591,131.475,0,138.372,0h191.574c6.897,0,12.488,5.591,12.488,12.488v117.481
	C342.434,136.866,336.843,142.457,329.946,142.457z"/>
<rect x="137.047" y="11.195" style="fill:#E1E6E9;" width="194.185" height="97.049"/>
<g>
	<circle style="fill:#3A556A;" cx="234.159" cy="125.346" r="11.183"/>
	<rect x="202.939" y="142.455" style="fill:#3A556A;" width="62.439" height="18.338"/>
</g>
<path style="fill:#64798A;" d="M195.054,171.978h78.21c3.089,0,5.593-2.504,5.593-5.593v0c0-3.089-2.504-5.593-5.593-5.593h-78.21
	c-3.089,0-5.593,2.504-5.593,5.593v0C189.461,169.474,191.965,171.978,195.054,171.978z"/>
<g>
</g>
<g>
</g>
<g>
</g>
<g>
</g>
<g>
</g>
<g>
</g>
<g>
</g>
<g>
</g>
<g>
</g>
<g>
</g>
<g>
</g>
<g>
</g>
<g>
</g>
<g>
</g>
<g>
</g>
</svg>
