<?xml version="1.0" encoding="iso-8859-1"?>
<!-- Generator: Adobe Illustrator 19.0.0, SVG Export Plug-In . SVG Version: 6.00 Build 0)  -->
<svg version="1.1" id="Capa_1" xmlns="http://www.w3.org/2000/svg" xmlns:xlink="http://www.w3.org/1999/xlink" x="0px" y="0px"
	 viewBox="0 0 468.293 468.293" style="enable-background:new 0 0 468.293 468.293;" xml:space="preserve">
<polygon style="fill:#EBF0F3;" points="70.232,370.01 11.943,402.248 1.428,460.45 0,468.283 0.053,468.273 84.274,384.052 "/>
<polygon style="fill:#E1E6E9;" points="66.078,456.382 98.316,398.094 84.274,384.052 0.053,468.273 8.006,466.854 "/>
<path style="fill:#1C75A1;" d="M327.448,259.922c-3.586-3.586-3.584-9.398,0-12.982l111.47-111.47
	c5.967-5.967,5.965-15.672,0-21.637l-6.628-6.628c-3.586-3.586-3.584-9.398,0-12.982c3.584-3.584,9.396-3.586,12.982,0l6.628,6.628
	c13.123,13.124,13.121,34.479,0,47.6l-111.47,111.47C336.846,263.506,331.034,263.508,327.448,259.922z"/>
<polygon style="fill:#FCD462;" points="350.641,184.109 154.874,367.586 141.2,379.876 109.091,408.869 59.414,359.191 
	88.407,327.083 100.739,313.452 284.217,117.685 "/>
<path style="fill:#E56353;" d="M333.809,197.032l-62.539-62.539c-2.39-2.39-2.39-6.265,0-8.655L382.355,14.755
	c19.659-19.66,51.534-19.66,71.193,0l0,0c19.66,19.66,19.66,51.534,0,71.194L342.464,197.032
	C340.074,199.422,336.199,199.422,333.809,197.032z"/>
<polygon style="fill:#64798A;" points="154.874,367.586 141.2,379.876 88.407,327.083 100.739,313.452 "/>
<path style="fill:#D5D6DB;" d="M41.109,433.751L8.006,466.854L0,468.283l1.428-7.832l33.19-33.19c1.774-1.774,4.674-1.817,6.491,0
	C42.883,429.034,42.884,431.976,41.109,433.751z"/>
<circle style="fill:#1C75A1;" cx="39.53" cy="428.769" r="9.703"/>
<g>
</g>
<g>
</g>
<g>
</g>
<g>
</g>
<g>
</g>
<g>
</g>
<g>
</g>
<g>
</g>
<g>
</g>
<g>
</g>
<g>
</g>
<g>
</g>
<g>
</g>
<g>
</g>
<g>
</g>
</svg>
