<?xml version="1.0" encoding="iso-8859-1"?>
<!-- Generator: Adobe Illustrator 19.0.0, SVG Export Plug-In . SVG Version: 6.00 Build 0)  -->
<svg version="1.1" id="Capa_1" xmlns="http://www.w3.org/2000/svg" xmlns:xlink="http://www.w3.org/1999/xlink" x="0px" y="0px"
	 viewBox="0 0 470.987 470.987" style="enable-background:new 0 0 470.987 470.987;" xml:space="preserve">
<path style="fill:#FCD462;" d="M392.962,277.451l54.203,54.203l15.916,87.483l7.755,42.566c0.986,5.411-3.742,10.139-9.153,9.153
	l-42.566-7.755l-87.427-15.972l-54.203-54.204L392.962,277.451z"/>
<polygon style="fill:#44C4A1;" points="179.488,63.976 446.999,331.488 416.614,339.613 416.558,339.78 408.489,369.998 
	378.104,378.123 370.034,408.452 339.927,416.522 339.649,416.577 331.524,446.962 64.013,179.45 "/>
<polygon style="fill:#3EA69B;" points="196.35,119.571 416.558,339.78 408.489,369.998 400.753,372.057 378.104,378.123 
	372.093,400.605 370.034,408.452 339.927,416.522 119.663,196.257 "/>
<polygon style="fill:#44C4A1;" points="172.309,143.612 400.753,372.057 378.104,378.123 372.093,400.605 143.704,172.216 "/>
<path style="fill:#E56353;" d="M179.451,63.995L64.014,179.431l-56.68-56.68c-9.754-9.754-9.754-25.567,0-35.321L87.451,7.315
	c9.754-9.754,25.567-9.754,35.321,0L179.451,63.995z"/>
<path style="fill:#E1E6E9;" d="M192.065,47.392l36.173,36.173c6.121,6.121,6.177,16.083,0,22.26L105.806,228.256
	c-6.121,6.121-16.139,6.121-22.26,0l-36.173-36.173c-6.122-6.122-6.121-16.139,0-22.26L169.804,47.392
	C175.982,41.215,185.943,41.27,192.065,47.392z"/>
<g>
	
		<rect x="24.365" y="120.793" transform="matrix(-0.7071 0.7071 -0.7071 -0.7071 305.8405 126.7098)" style="fill:#64798A;" width="204.626" height="11.807"/>
	
		<rect x="46.6" y="143.043" transform="matrix(-0.7071 0.7071 -0.7071 -0.7071 359.532 148.9699)" style="fill:#64798A;" width="204.626" height="11.807"/>
</g>
<path style="fill:#3A556A;" d="M463.082,419.137l7.755,42.566c0.986,5.411-3.742,10.139-9.153,9.153l-42.566-7.755L463.082,419.137z
	"/>
<g>
</g>
<g>
</g>
<g>
</g>
<g>
</g>
<g>
</g>
<g>
</g>
<g>
</g>
<g>
</g>
<g>
</g>
<g>
</g>
<g>
</g>
<g>
</g>
<g>
</g>
<g>
</g>
<g>
</g>
</svg>
