<?xml version="1.0" encoding="iso-8859-1"?>
<!-- Generator: Adobe Illustrator 19.0.0, SVG Export Plug-In . SVG Version: 6.00 Build 0)  -->
<svg version="1.1" id="Capa_1" xmlns="http://www.w3.org/2000/svg" xmlns:xlink="http://www.w3.org/1999/xlink" x="0px" y="0px"
	 viewBox="0 0 468.293 468.293" style="enable-background:new 0 0 468.293 468.293;" xml:space="preserve">
<path style="fill:#E56353;" d="M372.077,468.293H96.215c-10.345,0-18.732-8.386-18.732-18.732V67.393
	c0-10.345,8.386-18.732,18.732-18.732h275.862c10.345,0,18.732,8.386,18.732,18.732v382.168
	C390.809,459.906,382.422,468.293,372.077,468.293z"/>
<rect x="99.896" y="71.043" style="fill:#E1E6E9;" width="268.55" height="374.884"/>
<path style="fill:#27A2DB;" d="M312.487,35.193v38.998c0,5.539-4.476,10.015-10.015,10.015H165.84
	c-5.539,0-10.015-4.476-10.015-10.015V35.193c0-2.742,2.238-4.979,4.979-4.979h21.206c0.392,0,0.784-0.056,1.175-0.168
	c2.239-0.503,3.861-2.462,3.861-4.868v-6.154c0-2.798,2.238-5.036,4.98-5.036h14.324c2.742,0,4.979-2.238,4.979-4.98V4.98
	c0-2.742,2.239-4.98,5.036-4.98h35.584c2.742,0,4.98,2.238,4.98,4.98v4.028c0,2.742,2.293,4.98,5.035,4.98h14.268
	c2.798,0,5.035,2.238,5.035,5.036v6.154c0,2.406,1.623,4.364,3.861,4.868c0.391,0.112,0.783,0.168,1.175,0.168h21.149
	C310.249,30.214,312.487,32.451,312.487,35.193z"/>
<ellipse style="fill:#D5D6DB;" cx="148.519" cy="162.641" rx="19.581" ry="19.581"/>
<path style="fill:#64798A;" d="M162.359,148.824l-27.695,27.694c7.648,7.648,20.047,7.648,27.695,0S170.007,156.471,162.359,148.824
	z"/>
<ellipse style="fill:#D5D6DB;" cx="148.51" cy="230.905" rx="19.581" ry="19.581"/>
<path style="fill:#64798A;" d="M162.359,217.089l-27.695,27.694c7.648,7.648,20.047,7.648,27.695,0
	C170.007,237.136,170.007,224.737,162.359,217.089z"/>
<ellipse style="fill:#D5D6DB;" cx="148.519" cy="299.182" rx="19.581" ry="19.581"/>
<path style="fill:#64798A;" d="M162.359,285.355l-27.695,27.694c7.648,7.648,20.047,7.648,27.695,0
	C170.007,305.402,170.007,293.003,162.359,285.355z"/>
<ellipse style="fill:#D5D6DB;" cx="148.504" cy="367.43" rx="19.581" ry="19.581"/>
<path style="fill:#64798A;" d="M162.359,353.62l-27.695,27.694c7.648,7.648,20.047,7.648,27.695,0
	C170.007,373.667,170.007,361.268,162.359,353.62z"/>
<g>
	<path style="fill:#D5D6DB;" d="M333.773,157.078H203.911c-3.093,0-5.595,2.502-5.595,5.595c0,3.093,2.502,5.595,5.595,5.595
		h129.862c3.093,0,5.595-2.503,5.595-5.595C339.368,159.581,336.865,157.078,333.773,157.078z"/>
	<path style="fill:#D5D6DB;" d="M333.773,225.341H203.911c-3.093,0-5.595,2.502-5.595,5.595s2.502,5.595,5.595,5.595h129.862
		c3.093,0,5.595-2.502,5.595-5.595S336.865,225.341,333.773,225.341z"/>
	<path style="fill:#D5D6DB;" d="M333.773,293.605H203.911c-3.093,0-5.595,2.503-5.595,5.595s2.502,5.595,5.595,5.595h129.862
		c3.093,0,5.595-2.503,5.595-5.595S336.865,293.605,333.773,293.605z"/>
	<path style="fill:#D5D6DB;" d="M333.773,361.868H203.911c-3.093,0-5.595,2.503-5.595,5.595c0,3.093,2.502,5.595,5.595,5.595
		h129.862c3.093,0,5.595-2.502,5.595-5.595C339.368,364.37,336.865,361.868,333.773,361.868z"/>
</g>
<path style="fill:#2D93BA;" d="M285.127,30.046H183.184c2.239-0.503,3.861-2.462,3.861-4.868v-6.154c0-2.798,2.238-5.036,4.98-5.036
	h14.324c2.742,0,4.979-2.238,4.979-4.98V4.98c0-2.742,2.239-4.98,5.036-4.98h35.584c2.742,0,4.98,2.238,4.98,4.98v4.028
	c0,2.742,2.293,4.98,5.035,4.98h14.268c2.798,0,5.035,2.238,5.035,5.036v6.154C281.266,27.584,282.889,29.542,285.127,30.046z"/>
<g>
</g>
<g>
</g>
<g>
</g>
<g>
</g>
<g>
</g>
<g>
</g>
<g>
</g>
<g>
</g>
<g>
</g>
<g>
</g>
<g>
</g>
<g>
</g>
<g>
</g>
<g>
</g>
<g>
</g>
</svg>
