<?xml version="1.0" encoding="iso-8859-1"?>
<!-- Generator: Adobe Illustrator 19.0.0, SVG Export Plug-In . SVG Version: 6.00 Build 0)  -->
<svg version="1.1" id="Capa_1" xmlns="http://www.w3.org/2000/svg" xmlns:xlink="http://www.w3.org/1999/xlink" x="0px" y="0px"
	 viewBox="0 0 468.293 468.293" style="enable-background:new 0 0 468.293 468.293;" xml:space="preserve">
<path style="fill:#3A556A;" d="M277.351,66.207h-0.049c-2.54-6.362-8.731-10.87-15.999-10.87c-5.543,0-10.421,2.66-13.577,6.724
	c-3.156-4.064-8.034-6.724-13.577-6.724c-5.543,0-10.421,2.66-13.577,6.724c-3.156-4.064-8.034-6.724-13.577-6.724
	c-7.268,0-13.458,4.508-15.999,10.87h-0.049c-16.208,0-29.387,13.18-29.387,29.387v27.156h145.179V95.594
	C306.738,79.387,293.558,66.207,277.351,66.207z M292.045,108.056H176.253V95.594c0-8.1,6.593-14.694,14.694-14.694h1.021
	c2.943,5.305,8.532,8.937,15.027,8.937c5.543,0,10.421-2.66,13.577-6.724c3.156,4.064,8.034,6.724,13.577,6.724
	c5.543,0,10.421-2.66,13.577-6.724c3.156,4.064,8.034,6.724,13.577,6.724c6.496,0,12.085-3.633,15.027-8.937h1.021
	c8.1,0,14.694,6.593,14.694,14.694V108.056z"/>
<path style="fill:#1C75A1;" d="M443.317,398.217H24.976C11.182,398.217,0,387.035,0,373.241V135.238
	c0-6.897,5.591-12.488,12.488-12.488h443.317c6.897,0,12.488,5.591,12.488,12.488v238.003
	C468.293,387.035,457.111,398.217,443.317,398.217z"/>
<g>
	<path style="fill:#3A556A;" d="M47.23,398.217h46.029v8.495c0,3.448-2.795,6.244-6.244,6.244H53.474
		c-3.448,0-6.244-2.795-6.244-6.244V398.217z"/>
	<path style="fill:#3A556A;" d="M375.035,398.217h46.029v8.495c0,3.448-2.796,6.244-6.244,6.244h-33.541
		c-3.448,0-6.244-2.795-6.244-6.244V398.217z"/>
</g>
<path style="fill:#2D93BA;" d="M437.842,114.317v197.807c0,13.799-11.176,24.976-24.976,24.976H55.403
	c-13.799,0-24.976-11.176-24.976-24.976V114.317c0-3.434,2.81-6.244,6.244-6.244h394.927
	C435.033,108.073,437.842,110.882,437.842,114.317z"/>
<g>
	<rect x="75.632" y="108.076" style="fill:#27A2DB;" width="44.269" height="229.026"/>
	<rect x="166.525" y="108.076" style="fill:#27A2DB;" width="44.269" height="229.026"/>
	<rect x="257.455" y="108.076" style="fill:#27A2DB;" width="44.269" height="229.026"/>
	<rect x="348.347" y="108.076" style="fill:#27A2DB;" width="44.269" height="229.026"/>
</g>
<path style="fill:#D5D6DB;" d="M273.261,365.226h-78.229c-6.897,0-12.488-5.591-12.488-12.488v-37.463
	c0-3.448,2.796-6.244,6.244-6.244h90.717c3.448,0,6.244,2.796,6.244,6.244v37.463C285.749,359.635,280.158,365.226,273.261,365.226z
	"/>
<path style="fill:#64798A;" d="M252.024,346.606h-35.756c-6.897,0-12.488-5.591-12.488-12.488v-25.087h60.732v25.087
	C264.512,341.015,258.921,346.606,252.024,346.606z"/>
<g>
</g>
<g>
</g>
<g>
</g>
<g>
</g>
<g>
</g>
<g>
</g>
<g>
</g>
<g>
</g>
<g>
</g>
<g>
</g>
<g>
</g>
<g>
</g>
<g>
</g>
<g>
</g>
<g>
</g>
</svg>
