<?xml version="1.0" encoding="iso-8859-1"?>
<!-- Generator: Adobe Illustrator 19.0.0, SVG Export Plug-In . SVG Version: 6.00 Build 0)  -->
<svg version="1.1" id="Capa_1" xmlns="http://www.w3.org/2000/svg" xmlns:xlink="http://www.w3.org/1999/xlink" x="0px" y="0px"
	 viewBox="0 0 468.293 468.293" style="enable-background:new 0 0 468.293 468.293;" xml:space="preserve">
<path style="fill:#EBF0F3;" d="M462.067,308.812H299.676V159.456h162.391c3.061,0,5.01,3.271,3.553,5.962l-3.814,7.051
	c-0.649,1.199-0.649,2.645,0,3.845l6,11.091c0.649,1.199,0.649,2.645,0,3.845l-6,11.091c-0.649,1.199-0.649,2.645,0,3.845l6,11.091
	c0.649,1.199,0.649,2.645,0,3.845l-6,11.091c-0.649,1.199-0.649,2.645,0,3.845l6,11.091c0.649,1.199,0.649,2.645,0,3.845l-6,11.091
	c-0.649,1.199-0.649,2.645,0,3.845l6,11.091c0.649,1.199,0.649,2.645,0,3.845l-6,11.091c-0.649,1.199-0.649,2.645,0,3.845
	l3.814,7.051C467.077,305.542,465.127,308.812,462.067,308.812z"/>
<ellipse style="fill:#D5D6DB;" cx="183.109" cy="353.58" rx="183.109" ry="58.037"/>
<path style="fill:#E1E6E9;" d="M48.698,149.072v182.152h-0.004c0,23.528,60.179,42.601,134.415,42.601
	c74.232,0,134.411-19.073,134.411-42.601V149.072H48.698z"/>
<ellipse style="fill:#D5D6DB;" cx="183.109" cy="114.713" rx="183.109" ry="58.037"/>
<ellipse style="fill:#64798A;" cx="183.109" cy="114.713" rx="47.354" ry="15.01"/>
<g>
</g>
<g>
</g>
<g>
</g>
<g>
</g>
<g>
</g>
<g>
</g>
<g>
</g>
<g>
</g>
<g>
</g>
<g>
</g>
<g>
</g>
<g>
</g>
<g>
</g>
<g>
</g>
<g>
</g>
</svg>
