<?xml version="1.0" encoding="iso-8859-1"?>
<!-- Generator: Adobe Illustrator 19.0.0, SVG Export Plug-In . SVG Version: 6.00 Build 0)  -->
<svg version="1.1" id="Capa_1" xmlns="http://www.w3.org/2000/svg" xmlns:xlink="http://www.w3.org/1999/xlink" x="0px" y="0px"
	 viewBox="0 0 468.293 468.293" style="enable-background:new 0 0 468.293 468.293;" xml:space="preserve">
<path style="fill:#3A556A;" d="M374.928,468.293H93.365c-3.448,0-6.244-2.796-6.244-6.244V429.88h294.051v32.169
	C381.172,465.497,378.377,468.293,374.928,468.293z"/>
<path style="fill:#64798A;" d="M320.611,86.465c0-51.056-44.251-91.776-96.492-85.9c-38.967,4.383-70.7,35.566-75.701,74.458
	c-2.095,16.29,0.359,31.814,6.26,45.506c22.74,52.763,38.192,108.369,41.921,165.702l1.62,24.903h71.854l1.617-24.869
	c3.642-56.002,15.663-111.654,40.254-162.099C317.495,112.781,320.611,99.993,320.611,86.465z"/>
<path style="fill:#1C75A1;" d="M393.687,343.733H74.606c-13.794,0-24.976,11.182-24.976,24.976v68.779
	c0,3.448,2.795,6.244,6.244,6.244h356.544c3.448,0,6.244-2.795,6.244-6.244v-68.779C418.662,354.915,407.48,343.733,393.687,343.733
	z"/>
<path style="fill:#3A556A;" d="M194.414,311.135h79.464c6.897,0,12.488,5.591,12.488,12.488v7.623
	c0,6.897-5.591,12.488-12.488,12.488h-79.464c-6.897,0-12.488-5.591-12.488-12.488v-7.623
	C181.926,316.726,187.517,311.135,194.414,311.135z"/>
<circle style="fill:#27A2DB;" cx="234.146" cy="85.292" r="52.218"/>
<g>
</g>
<g>
</g>
<g>
</g>
<g>
</g>
<g>
</g>
<g>
</g>
<g>
</g>
<g>
</g>
<g>
</g>
<g>
</g>
<g>
</g>
<g>
</g>
<g>
</g>
<g>
</g>
<g>
</g>
</svg>
