<?xml version="1.0" encoding="iso-8859-1"?>
<!-- Generator: Adobe Illustrator 19.0.0, SVG Export Plug-In . SVG Version: 6.00 Build 0)  -->
<svg version="1.1" id="Capa_1" xmlns="http://www.w3.org/2000/svg" xmlns:xlink="http://www.w3.org/1999/xlink" x="0px" y="0px"
	 viewBox="0 0 468.293 468.293" style="enable-background:new 0 0 468.293 468.293;" xml:space="preserve">
<path style="fill:#3A556A;" d="M468.293,232.934v179.2c0,10.345-8.386,18.732-18.732,18.732H18.732
	C8.386,430.865,0,422.479,0,412.134v-179.2c0-10.345,8.386-18.732,18.732-18.732h430.829
	C459.906,214.202,468.293,222.588,468.293,232.934z"/>
<rect x="70.587" y="344.651" style="fill:#2F4859;" width="327.118" height="86.191"/>
<rect x="70.587" y="128" style="fill:#64798A;" width="327.118" height="86.191"/>
<rect x="97.967" y="100.608" style="fill:#3A556A;" width="272.39" height="113.577"/>
<polygon style="fill:#E1E6E9;" points="320.36,37.427 115.511,37.427 115.511,214.217 352.779,214.217 352.779,69.846 "/>
<polygon style="fill:#EBF0F3;" points="320.359,69.846 352.779,69.846 320.36,37.427 "/>
<g>
	<path style="fill:#D5D6DB;" d="M326.586,96.458c-7.848-7.851-21.532-7.837-29.37-0.003l-2.423,2.423
		c-4.711,4.716-12.922,4.708-17.622-0.003l-2.423-2.418c-7.843-7.843-21.527-7.84-29.37-0.003l-2.423,2.423
		c-4.706,4.711-12.916,4.714-17.622-0.003l-2.423-2.418c-7.843-7.84-21.527-7.848-29.37-0.003l-2.423,2.423
		c-4.706,4.703-12.916,4.714-17.622,0l-2.418-2.42c-8.102-8.097-21.273-8.102-29.375,0c-1.623,1.62-1.623,4.251,0,5.874
		c1.617,1.62,4.246,1.625,5.874,0c4.852-4.852,12.765-4.862,17.627,0l2.418,2.42c7.848,7.851,21.532,7.843,29.37,0.003l2.423-2.423
		c4.706-4.708,12.922-4.706,17.622,0.003l2.423,2.418c7.843,7.848,21.527,7.845,29.37,0.003l2.423-2.423
		c4.706-4.706,12.916-4.708,17.622,0.003l2.423,2.418c3.921,3.924,9.135,6.085,14.685,6.085c5.544,0,10.763-2.161,14.685-6.082
		l2.423-2.423c4.7-4.706,12.911-4.711,17.622,0c1.623,1.623,4.251,1.623,5.874,0C328.209,100.709,328.209,98.078,326.586,96.458z"/>
	<path style="fill:#D5D6DB;" d="M326.586,131.164c-7.848-7.851-21.532-7.837-29.37-0.003l-2.423,2.423
		c-4.711,4.716-12.922,4.708-17.622-0.003l-2.423-2.418c-7.843-7.843-21.527-7.84-29.37-0.003l-2.423,2.423
		c-4.706,4.711-12.916,4.714-17.622-0.003l-2.423-2.418c-7.843-7.84-21.527-7.848-29.37-0.003l-2.423,2.423
		c-4.706,4.703-12.916,4.714-17.622,0l-2.418-2.42c-8.102-8.097-21.273-8.102-29.375,0c-1.623,1.62-1.623,4.251,0,5.874
		c1.617,1.62,4.246,1.625,5.874,0c4.852-4.852,12.765-4.863,17.627,0l2.418,2.42c7.848,7.851,21.532,7.843,29.37,0.003l2.423-2.423
		c4.706-4.708,12.922-4.706,17.622,0.003l2.423,2.418c7.843,7.848,21.527,7.845,29.37,0.003l2.423-2.423
		c4.706-4.706,12.916-4.708,17.622,0.003l2.423,2.418c3.921,3.924,9.135,6.085,14.685,6.085c5.544,0,10.763-2.161,14.685-6.082
		l2.423-2.423c4.7-4.706,12.911-4.711,17.622,0c1.623,1.623,4.251,1.623,5.874,0S328.209,132.784,326.586,131.164z"/>
	<path style="fill:#D5D6DB;" d="M326.586,165.87c-7.848-7.851-21.532-7.837-29.37-0.003l-2.423,2.423
		c-4.711,4.716-12.922,4.708-17.622-0.003l-2.423-2.418c-7.843-7.843-21.527-7.84-29.37-0.003l-2.423,2.423
		c-4.706,4.711-12.916,4.714-17.622-0.003l-2.423-2.418c-7.843-7.84-21.527-7.848-29.37-0.003l-2.423,2.423
		c-4.706,4.703-12.916,4.714-17.622,0l-2.418-2.42c-8.102-8.097-21.273-8.102-29.375,0c-1.623,1.62-1.623,4.251,0,5.874
		c1.617,1.62,4.246,1.625,5.874,0c4.852-4.852,12.765-4.862,17.627,0l2.418,2.42c7.848,7.851,21.532,7.843,29.37,0.003l2.423-2.423
		c4.706-4.708,12.922-4.706,17.622,0.003l2.423,2.418c7.843,7.848,21.527,7.845,29.37,0.003l2.423-2.423
		c4.706-4.706,12.916-4.708,17.622,0.003l2.423,2.418c3.921,3.924,9.135,6.085,14.685,6.085c5.544,0,10.763-2.161,14.685-6.082
		l2.423-2.423c4.7-4.706,12.911-4.711,17.622,0c1.623,1.623,4.251,1.623,5.874,0C328.209,170.121,328.209,167.49,326.586,165.87z"/>
</g>
<rect x="27.411" y="243.387" style="fill:#FCD462;" width="37.463" height="13.637"/>
<rect x="83.606" y="243.387" style="fill:#44C4A1;" width="37.463" height="13.637"/>
<rect y="290.129" style="fill:#D5D6DB;" width="468.293" height="18.732"/>
<g>
</g>
<g>
</g>
<g>
</g>
<g>
</g>
<g>
</g>
<g>
</g>
<g>
</g>
<g>
</g>
<g>
</g>
<g>
</g>
<g>
</g>
<g>
</g>
<g>
</g>
<g>
</g>
<g>
</g>
</svg>
