<?xml version="1.0" encoding="iso-8859-1"?>
<!-- Generator: Adobe Illustrator 19.0.0, SVG Export Plug-In . SVG Version: 6.00 Build 0)  -->
<svg version="1.1" id="Capa_1" xmlns="http://www.w3.org/2000/svg" xmlns:xlink="http://www.w3.org/1999/xlink" x="0px" y="0px"
	 viewBox="0 0 468.293 468.293" style="enable-background:new 0 0 468.293 468.293;" xml:space="preserve">
<path style="fill:#64798A;" d="M315.055,117.548H153.238V71.683c0-15.494,12.604-28.098,28.098-28.098h105.622
	c15.494,0,28.098,12.604,28.098,28.098V117.548z M171.97,98.817h124.354V71.683c0-5.165-4.201-9.366-9.366-9.366H181.335
	c-5.165,0-9.366,4.201-9.366,9.366V98.817z"/>
<path style="fill:#DC8744;" d="M429.24,424.708H39.038c-17.242,0-31.22-13.977-31.22-31.22V216.795h452.64v176.693
	C460.459,410.73,446.482,424.708,429.24,424.708z"/>
<path style="fill:#FCD462;" d="M468.293,130.005v117.385l-53.385,19.918l-24.976,9.366l-155.786,58.131L78.299,276.612
	l-24.976-9.303L0,247.391V130.005c0-17.233,13.986-31.22,31.22-31.22h405.854C454.306,98.786,468.293,112.772,468.293,130.005z"/>
<g>
	<polygon style="fill:#E1E6E9;" points="78.299,98.786 78.299,276.612 53.323,267.309 53.323,98.786 	"/>
	<polygon style="fill:#E1E6E9;" points="414.908,98.786 414.908,267.309 389.932,276.674 389.932,98.786 	"/>
	<path style="fill:#E1E6E9;" d="M225.316,365.512l-21.877-21.877c-4.877-4.877-4.877-12.784,0-17.66l21.877-21.877
		c4.877-4.877,12.784-4.877,17.66,0l21.877,21.877c4.877,4.877,4.877,12.784,0,17.66l-21.877,21.877
		C238.1,370.389,230.193,370.389,225.316,365.512z"/>
</g>
<path style="fill:#DC8744;" d="M218.859,332.597l13.078-13.075c1.219-1.219,3.195-1.219,4.415,0l13.078,13.075
	c1.22,1.219,1.22,3.196,0,4.416l-13.078,13.075c-1.219,1.219-3.195,1.219-4.415,0l-13.078-13.075
	C217.64,335.793,217.64,333.816,218.859,332.597z"/>
<g>
</g>
<g>
</g>
<g>
</g>
<g>
</g>
<g>
</g>
<g>
</g>
<g>
</g>
<g>
</g>
<g>
</g>
<g>
</g>
<g>
</g>
<g>
</g>
<g>
</g>
<g>
</g>
<g>
</g>
</svg>
