<?xml version="1.0" encoding="iso-8859-1"?>
<!-- Generator: Adobe Illustrator 19.0.0, SVG Export Plug-In . SVG Version: 6.00 Build 0)  -->
<svg version="1.1" id="Capa_1" xmlns="http://www.w3.org/2000/svg" xmlns:xlink="http://www.w3.org/1999/xlink" x="0px" y="0px"
	 viewBox="0 0 468.293 468.293" style="enable-background:new 0 0 468.293 468.293;" xml:space="preserve">
<path style="fill:#3EA69B;" d="M27.286,42.543h98.516c2.469,0,4.889,0.694,6.983,2.003l34.647,21.655
	c2.094,1.309,4.514,2.003,6.983,2.003h266.59c7.277,0,13.176,5.899,13.176,13.176v170.294H14.11V55.72
	C14.11,48.443,20.009,42.543,27.286,42.543z"/>
<path style="fill:#44C4A1;" d="M13.177,155.034h126.61l30.792-24.377h284.536c7.74,0,13.812,6.639,13.124,14.348l-22.927,256.735
	c-1.214,13.592-12.602,24.008-26.248,24.008H48.921c-13.565,0-24.914-10.298-26.229-23.799L0.063,169.487
	C-0.691,161.742,5.396,155.034,13.177,155.034z"/>
<circle style="fill:#FCD462;" cx="234.146" cy="205.3" r="37.463"/>
<path style="fill:#F6C358;" d="M234.146,167.808v74.927c20.691,0,37.463-16.773,37.463-37.463
	C271.61,184.581,254.837,167.808,234.146,167.808z"/>
<circle style="fill:#E56353;" cx="233.609" cy="351.132" r="37.463"/>
<circle style="fill:#1C75A1;" cx="124.878" cy="351.132" r="37.463"/>
<circle style="fill:#27A2DB;" cx="342.353" cy="351.132" r="37.463"/>
<polygon style="fill:#64798A;" points="240.389,271.98 240.389,242.736 227.901,242.736 227.901,271.98 118.633,271.98 
	118.633,313.669 131.12,313.669 131.12,284.468 227.901,284.468 227.901,313.669 240.389,313.669 240.389,284.468 336.096,284.468 
	336.096,313.913 348.584,313.913 348.584,271.98 "/>
<path style="fill:#D15241;" d="M234.146,313.671v74.927c20.691,0,37.463-16.773,37.463-37.463
	C271.61,330.445,254.837,313.671,234.146,313.671z"/>
<path style="fill:#2D93BA;" d="M342.343,313.671v74.927c20.691,0,37.463-16.773,37.463-37.463
	C379.806,330.445,363.033,313.671,342.343,313.671z"/>
<path style="fill:#64798A;" d="M124.878,313.671v74.927c20.691,0,37.463-16.773,37.463-37.463
	C162.341,330.445,145.569,313.671,124.878,313.671z"/>
<g>
</g>
<g>
</g>
<g>
</g>
<g>
</g>
<g>
</g>
<g>
</g>
<g>
</g>
<g>
</g>
<g>
</g>
<g>
</g>
<g>
</g>
<g>
</g>
<g>
</g>
<g>
</g>
<g>
</g>
</svg>
