<?xml version="1.0" encoding="iso-8859-1"?>
<!-- Generator: Adobe Illustrator 19.0.0, SVG Export Plug-In . SVG Version: 6.00 Build 0)  -->
<svg version="1.1" id="Capa_1" xmlns="http://www.w3.org/2000/svg" xmlns:xlink="http://www.w3.org/1999/xlink" x="0px" y="0px"
	 viewBox="0 0 468.293 468.293" style="enable-background:new 0 0 468.293 468.293;" xml:space="preserve">
<g>
	<rect x="97.904" y="289.686" style="fill:#F6C358;" width="29.484" height="178.607"/>
	<rect x="340.855" y="289.686" style="fill:#F6C358;" width="29.484" height="178.607"/>
	<rect x="221.203" y="52.686" style="fill:#F6C358;" width="25.881" height="198.575"/>
	<polygon style="fill:#F6C358;" points="290.228,251.261 264.344,251.261 281.6,52.688 307.483,52.688 	"/>
	<polygon style="fill:#F6C358;" points="203.949,251.261 178.065,251.261 160.809,52.688 186.693,52.688 	"/>
	<polygon style="fill:#F6C358;" points="337.223,251.261 311.34,251.261 337.223,52.688 363.107,52.688 	"/>
	<polygon style="fill:#F6C358;" points="156.953,251.261 131.069,251.261 105.186,52.688 131.069,52.688 	"/>
</g>
<g>
	<path style="fill:#DC8744;" d="M406.148,257.623c0-28.16-77.008-50.989-172.002-50.989S62.144,229.463,62.144,257.623v38.263h6.071
		h337.933v-7.07V257.623z"/>
	<path style="fill:#DC8744;" d="M380.403,81.636H87.889c-6.897,0-12.488-5.591-12.488-12.488v-56.66C75.401,5.591,80.992,0,87.889,0
		h292.514c6.897,0,12.488,5.591,12.488,12.488v56.66C392.891,76.045,387.3,81.636,380.403,81.636z"/>
</g>
<g>
	<rect x="127.419" y="389.607" style="fill:#F6C358;" width="213.479" height="19.656"/>
	<rect x="127.419" y="424.023" style="fill:#F6C358;" width="213.479" height="19.656"/>
</g>
<g>
</g>
<g>
</g>
<g>
</g>
<g>
</g>
<g>
</g>
<g>
</g>
<g>
</g>
<g>
</g>
<g>
</g>
<g>
</g>
<g>
</g>
<g>
</g>
<g>
</g>
<g>
</g>
<g>
</g>
</svg>
