<?xml version="1.0" encoding="iso-8859-1"?>
<!-- Generator: Adobe Illustrator 19.0.0, SVG Export Plug-In . SVG Version: 6.00 Build 0)  -->
<svg version="1.1" id="Capa_1" xmlns="http://www.w3.org/2000/svg" xmlns:xlink="http://www.w3.org/1999/xlink" x="0px" y="0px"
	 viewBox="0 0 468.293 468.293" style="enable-background:new 0 0 468.293 468.293;" xml:space="preserve">
<polygon style="fill:#E1E6E9;" points="216.446,294.66 216.446,417.72 234.147,468.284 234.147,294.66 "/>
<polygon style="fill:#D5D6DB;" points="234.147,294.66 234.147,468.284 234.149,468.293 251.847,417.72 251.847,294.66 "/>
<path style="fill:#D15241;" d="M364.138,260.433c-2.074-62.248-78.017-85.902-78.017-85.902H182.172
	c0,0-75.943,23.654-78.017,85.902c0,0-6.023,49.383,129.992,53.118C370.161,309.816,364.138,260.433,364.138,260.433z"/>
<path style="fill:#E56353;" d="M288.249,205.983c0,22.157-24.223,30.004-54.103,30.004c-29.88,0-54.103-7.847-54.104-30.004V104.228
	H288.25L288.249,205.983z"/>
<path style="fill:#D15241;" d="M127.837,48.585c0,43.537,47.596,78.83,106.309,78.83s106.309-35.294,106.309-78.83H127.837z"/>
<ellipse style="fill:#CE412D;" cx="234.146" cy="44.519" rx="106.334" ry="44.519"/>
<g>
</g>
<g>
</g>
<g>
</g>
<g>
</g>
<g>
</g>
<g>
</g>
<g>
</g>
<g>
</g>
<g>
</g>
<g>
</g>
<g>
</g>
<g>
</g>
<g>
</g>
<g>
</g>
<g>
</g>
</svg>
