<?xml version="1.0" encoding="iso-8859-1"?>
<!-- Generator: Adobe Illustrator 19.0.0, SVG Export Plug-In . SVG Version: 6.00 Build 0)  -->
<svg version="1.1" id="Capa_1" xmlns="http://www.w3.org/2000/svg" xmlns:xlink="http://www.w3.org/1999/xlink" x="0px" y="0px"
	 viewBox="0 0 468.293 468.293" style="enable-background:new 0 0 468.293 468.293;" xml:space="preserve">
<path style="fill:#3A556A;" d="M309.123,118.682H159.169V70.206c0-12.049,9.805-21.854,21.854-21.854H287.27
	c12.049,0,21.854,9.805,21.854,21.854V118.682z M177.901,99.95h112.491V70.206c0-1.723-1.399-3.122-3.122-3.122H181.023
	c-1.723,0-3.122,1.399-3.122,3.122V99.95z"/>
<path style="fill:#DC8744;" d="M468.293,206.322H0v-74.977c0-17.242,13.977-31.22,31.22-31.22h405.854
	c17.242,0,31.22,13.977,31.22,31.22V206.322z"/>
<path style="fill:#F6C358;" d="M427.707,419.94H40.585c-17.242,0-31.22-13.977-31.22-31.22V206.322h449.561v182.399
	C458.927,405.963,444.949,419.94,427.707,419.94z"/>
<g>
	<path style="fill:#1C75A1;" d="M104.623,251.047H66.028c-6.897,0-12.488-5.591-12.488-12.488v-64.474
		c0-6.897,5.591-12.488,12.488-12.488h38.596c6.897,0,12.488,5.591,12.488,12.488v64.474
		C117.111,245.456,111.52,251.047,104.623,251.047z"/>
	<path style="fill:#1C75A1;" d="M402.265,251.047h-38.596c-6.897,0-12.488-5.591-12.488-12.488v-64.474
		c0-6.897,5.591-12.488,12.488-12.488h38.596c6.897,0,12.488,5.591,12.488,12.488v64.474
		C414.753,245.456,409.162,251.047,402.265,251.047z"/>
</g>
<g>
	<rect x="351.182" y="200.08" style="fill:#E1E6E9;" width="63.569" height="12.488"/>
	<rect x="53.51" y="204.3" style="fill:#E1E6E9;" width="63.569" height="12.488"/>
</g>
<g>
</g>
<g>
</g>
<g>
</g>
<g>
</g>
<g>
</g>
<g>
</g>
<g>
</g>
<g>
</g>
<g>
</g>
<g>
</g>
<g>
</g>
<g>
</g>
<g>
</g>
<g>
</g>
<g>
</g>
</svg>
