<?xml version="1.0" encoding="iso-8859-1"?>
<!-- Generator: Adobe Illustrator 19.0.0, SVG Export Plug-In . SVG Version: 6.00 Build 0)  -->
<svg version="1.1" id="Capa_1" xmlns="http://www.w3.org/2000/svg" xmlns:xlink="http://www.w3.org/1999/xlink" x="0px" y="0px"
	 viewBox="0 0 468.293 468.293" style="enable-background:new 0 0 468.293 468.293;" xml:space="preserve">
<rect x="351.251" y="213.96" style="fill:#1C75A1;" width="22.11" height="56.826"/>
<g>
	<path style="fill:#64798A;" d="M370.275,188.402l-85.179-75.893l-0.067,0.075v-0.075H164.792v0.24l-84.911,75.653
		c-8.52,7.591-10.473,20.775-3.338,29.68c7.609,9.497,21.513,10.573,30.483,2.581l46.069-41.046
		c4.528-4.034,11.697-0.82,11.697,5.245l0,261.166c0,11.41,8.545,21.638,19.939,22.235c12.153,0.636,22.206-9.029,22.206-21.043
		v-92.984c0-7.758,6.29-14.048,14.048-14.048h7.024c7.759,0,14.048,6.29,14.048,14.048v91.792c0,11.41,8.544,21.638,19.939,22.235
		c12.152,0.636,22.205-9.029,22.205-21.043l0.78-262.719c0.018-6.055,7.176-9.252,11.697-5.224l46.451,41.387
		c8.97,7.992,22.873,6.915,30.482-2.581C380.748,209.177,378.795,195.993,370.275,188.402z"/>
	<circle style="fill:#64798A;" cx="225.08" cy="49.171" r="49.171"/>
</g>
<path style="fill:#1C75A1;" d="M383.63,408.132h-42.656c-6.897,0-12.488-5.591-12.488-12.488V289.513
	c0-10.345,8.386-18.732,18.732-18.732h30.168c10.345,0,18.732,8.387,18.732,18.732v106.131
	C396.117,402.541,390.526,408.132,383.63,408.132z"/>
<polygon style="fill:#E1E6E9;" points="234.676,151.855 252.554,131.542 235.803,112.51 214.353,112.51 197.602,131.542 
	215.479,151.855 "/>
<polygon style="fill:#EBF0F3;" points="241.312,236.877 225.078,261.853 208.844,236.877 215.659,151.855 234.497,151.855 "/>
<g>
</g>
<g>
</g>
<g>
</g>
<g>
</g>
<g>
</g>
<g>
</g>
<g>
</g>
<g>
</g>
<g>
</g>
<g>
</g>
<g>
</g>
<g>
</g>
<g>
</g>
<g>
</g>
<g>
</g>
</svg>
