<?xml version="1.0" encoding="iso-8859-1"?>
<!-- Generator: Adobe Illustrator 19.0.0, SVG Export Plug-In . SVG Version: 6.00 Build 0)  -->
<svg version="1.1" id="Capa_1" xmlns="http://www.w3.org/2000/svg" xmlns:xlink="http://www.w3.org/1999/xlink" x="0px" y="0px"
	 viewBox="0 0 467.395 467.395" style="enable-background:new 0 0 467.395 467.395;" xml:space="preserve">
<g>
	<path style="fill:#64798A;" d="M2.268,465.127c-3.023-3.023-3.023-7.922,0-10.946l14.357-14.357c3.023-3.023,7.922-3.023,10.946,0
		s3.023,7.922,0,10.946l-14.357,14.357C10.191,468.15,5.292,468.15,2.268,465.127z"/>
</g>
<path style="fill:#E56353;" d="M434.612,68.197l-35.416-35.416L428.32,3.658c4.877-4.877,12.784-4.877,17.66,0l17.755,17.755
	c4.877,4.877,4.877,12.784,0,17.66L434.612,68.197z"/>
<path style="fill:#27A2DB;" d="M296.216,225.906l-54.728-54.728L380.711,31.955c4.877-4.877,12.784-4.877,17.66,0l37.067,37.067
	c4.877,4.877,4.877,12.784,0,17.66L296.216,225.906z"/>
<path style="fill:#44C4A1;" d="M27.989,451.189l-11.784-11.784c-3.863-3.863-4.046-10.066-0.418-14.15L241.296,171.37l54.728,54.728
	L42.139,451.607C38.055,455.235,31.852,455.051,27.989,451.189z"/>
<path style="fill:#FCD462;" d="M287.095,231.378l-51.079-51.079c-4.03-4.03-4.03-10.564,0-14.594l0,0
	c4.03-4.03,10.564-4.03,14.594,0l51.079,51.079c4.03,4.03,4.03,10.564,0,14.594h0C297.659,235.408,291.125,235.408,287.095,231.378z
	"/>
<path style="fill:#2F4859;" d="M430.757,109.467c0.742-3.456-0.31-7.021-2.809-9.521l-1.345-1.345l-1.541-1.541l-9.718,9.718
	l3.192,3.192c2.6,2.6,3.312,6.59,1.682,9.887c-21.502,43.501-59.171,67.389-69.81,77.659l-4.142-4.142l-8.001,8.001
	c-3.116,3.116-3.116,8.169,0,11.285l5.879,5.879c1.736,1.736,4.602,1.707,6.323-0.046C404.14,163.803,426.52,129.2,430.757,109.467z
	"/>
<g>
</g>
<g>
</g>
<g>
</g>
<g>
</g>
<g>
</g>
<g>
</g>
<g>
</g>
<g>
</g>
<g>
</g>
<g>
</g>
<g>
</g>
<g>
</g>
<g>
</g>
<g>
</g>
<g>
</g>
</svg>
