<?xml version="1.0" encoding="iso-8859-1"?>
<!-- Generator: Adobe Illustrator 19.0.0, SVG Export Plug-In . SVG Version: 6.00 Build 0)  -->
<svg version="1.1" id="Capa_1" xmlns="http://www.w3.org/2000/svg" xmlns:xlink="http://www.w3.org/1999/xlink" x="0px" y="0px"
	 viewBox="0 0 468.293 468.293" style="enable-background:new 0 0 468.293 468.293;" xml:space="preserve">
<path style="fill:#D5D6DB;" d="M443.317,460.198H24.976C11.182,460.198,0,449.016,0,435.223V185.466
	c0-13.794,11.182-24.976,24.976-24.976h418.341c13.794,0,24.976,11.182,24.976,24.976v249.756
	C468.293,449.016,457.111,460.198,443.317,460.198z"/>
<path style="fill:#E1E6E9;" d="M443.317,160.491h-12.488c13.794,0,24.976,11.182,24.976,24.976v249.756
	c0,13.793-11.182,24.976-24.976,24.976h12.488c13.794,0,24.976-11.182,24.976-24.976V185.466
	C468.293,171.673,457.111,160.491,443.317,160.491z"/>
<path style="fill:#2D93BA;" d="M137.849,239.612l7.169-31.859c2.571-11.426-6.118-22.287-17.829-22.287h-57.87
	c-11.711,0-20.4,10.861-17.829,22.287l7.169,31.859v141.465l-7.169,31.859c-2.571,11.425,6.118,22.287,17.829,22.287h57.87
	c11.711,0,20.4-10.861,17.829-22.287l-7.169-31.859V239.612z"/>
<g>
	<path style="fill:#1C75A1;" d="M249.341,321.697h-27.246c-3.448,0-6.244-2.795-6.244-6.244v-27.246
		c0-3.448,2.795-6.244,6.244-6.244h27.246c3.448,0,6.244,2.796,6.244,6.244v27.246C255.585,318.902,252.79,321.697,249.341,321.697z
		"/>
	<path style="fill:#1C75A1;" d="M328.706,321.697H301.46c-3.448,0-6.244-2.795-6.244-6.244v-27.246c0-3.448,2.795-6.244,6.244-6.244
		h27.246c3.448,0,6.244,2.796,6.244,6.244v27.246C334.95,318.902,332.155,321.697,328.706,321.697z"/>
	<path style="fill:#1C75A1;" d="M408.072,321.697h-27.246c-3.448,0-6.244-2.795-6.244-6.244v-27.246
		c0-3.448,2.796-6.244,6.244-6.244h27.246c3.448,0,6.244,2.796,6.244,6.244v27.246C414.315,318.902,411.52,321.697,408.072,321.697z
		"/>
	<path style="fill:#1C75A1;" d="M249.341,378.46h-27.246c-3.448,0-6.244-2.796-6.244-6.244V344.97c0-3.448,2.795-6.244,6.244-6.244
		h27.246c3.448,0,6.244,2.795,6.244,6.244v27.246C255.585,375.664,252.79,378.46,249.341,378.46z"/>
	<path style="fill:#1C75A1;" d="M328.706,378.46H301.46c-3.448,0-6.244-2.796-6.244-6.244V344.97c0-3.448,2.795-6.244,6.244-6.244
		h27.246c3.448,0,6.244,2.795,6.244,6.244v27.246C334.95,375.664,332.155,378.46,328.706,378.46z"/>
	<path style="fill:#1C75A1;" d="M408.072,378.46h-27.246c-3.448,0-6.244-2.796-6.244-6.244V344.97c0-3.448,2.796-6.244,6.244-6.244
		h27.246c3.448,0,6.244,2.795,6.244,6.244v27.246C414.315,375.664,411.52,378.46,408.072,378.46z"/>
	<path style="fill:#1C75A1;" d="M249.341,435.223h-27.246c-3.448,0-6.244-2.796-6.244-6.244v-27.246
		c0-3.448,2.795-6.244,6.244-6.244h27.246c3.448,0,6.244,2.796,6.244,6.244v27.246C255.585,432.427,252.79,435.223,249.341,435.223z
		"/>
	<path style="fill:#1C75A1;" d="M328.706,435.223H301.46c-3.448,0-6.244-2.796-6.244-6.244v-27.246c0-3.448,2.795-6.244,6.244-6.244
		h27.246c3.448,0,6.244,2.796,6.244,6.244v27.246C334.95,432.427,332.155,435.223,328.706,435.223z"/>
	<path style="fill:#1C75A1;" d="M408.072,435.223h-27.246c-3.448,0-6.244-2.796-6.244-6.244v-27.246
		c0-3.448,2.796-6.244,6.244-6.244h27.246c3.448,0,6.244,2.796,6.244,6.244v27.246C414.315,432.427,411.52,435.223,408.072,435.223z
		"/>
</g>
<path style="fill:#3EA69B;" d="M404.768,185.466H341.27l-113.423,71.943h176.921c6.897,0,12.488-5.591,12.488-12.488v-46.967
	C417.256,191.057,411.665,185.466,404.768,185.466z"/>
<path style="fill:#44C4A1;" d="M225.398,185.466c-6.897,0-12.488,5.591-12.488,12.488v46.967c0,6.897,5.591,12.488,12.488,12.488
	h2.449l113.423-71.943H225.398z"/>
<path style="fill:#E1E6E9;" d="M346.537,160.491h-224.78V20.582c0-6.897,5.591-12.488,12.488-12.488h199.805
	c6.897,0,12.488,5.591,12.488,12.488V160.491z"/>
<g>
	<path style="fill:#D5D6DB;" d="M152.976,58.177h162.341c3.451,0,6.244-2.796,6.244-6.244c0-3.448-2.793-6.244-6.244-6.244H152.976
		c-3.451,0-6.244,2.796-6.244,6.244C146.732,55.381,149.524,58.177,152.976,58.177z"/>
	<path style="fill:#D5D6DB;" d="M315.317,78.049H152.976c-3.451,0-6.244,2.796-6.244,6.244c0,3.448,2.793,6.244,6.244,6.244h162.341
		c3.451,0,6.244-2.796,6.244-6.244C321.561,80.844,318.768,78.049,315.317,78.049z"/>
	<path style="fill:#D5D6DB;" d="M315.317,110.409H152.976c-3.451,0-6.244,2.796-6.244,6.244c0,3.448,2.793,6.244,6.244,6.244
		h162.341c3.451,0,6.244-2.796,6.244-6.244C321.561,113.204,318.768,110.409,315.317,110.409z"/>
</g>
<g>
</g>
<g>
</g>
<g>
</g>
<g>
</g>
<g>
</g>
<g>
</g>
<g>
</g>
<g>
</g>
<g>
</g>
<g>
</g>
<g>
</g>
<g>
</g>
<g>
</g>
<g>
</g>
<g>
</g>
</svg>
