<?xml version="1.0" encoding="iso-8859-1"?>
<!-- Generator: Adobe Illustrator 19.0.0, SVG Export Plug-In . SVG Version: 6.00 Build 0)  -->
<svg version="1.1" id="Capa_1" xmlns="http://www.w3.org/2000/svg" xmlns:xlink="http://www.w3.org/1999/xlink" x="0px" y="0px"
	 viewBox="0 0 468.293 468.293" style="enable-background:new 0 0 468.293 468.293;" xml:space="preserve">
<path style="fill:#E1E6E9;" d="M324.092,0H84.292C73.947,0,65.561,8.386,65.561,18.732v430.829c0,10.345,8.386,18.732,18.732,18.732
	H384c10.345,0,18.732-8.386,18.732-18.732V78.64L324.092,0z"/>
<polygon style="fill:#EBF0F3;" points="324.092,78.64 402.732,78.64 324.092,0 "/>
<g>
	<path style="fill:#D5D6DB;" d="M142.398,86.011h-24.976c-3.448,0-6.244-2.795-6.244-6.244V54.791c0-3.448,2.795-6.244,6.244-6.244
		h24.976c3.448,0,6.244,2.795,6.244,6.244v24.976C148.642,83.215,145.847,86.011,142.398,86.011z"/>
	<path style="fill:#D5D6DB;" d="M142.398,152.758h-24.976c-3.448,0-6.244-2.796-6.244-6.244v-24.976
		c0-3.448,2.795-6.244,6.244-6.244h24.976c3.448,0,6.244,2.795,6.244,6.244v24.976C148.642,149.962,145.847,152.758,142.398,152.758
		z"/>
	<path style="fill:#D5D6DB;" d="M142.398,219.505h-24.976c-3.448,0-6.244-2.796-6.244-6.244v-24.976
		c0-3.448,2.795-6.244,6.244-6.244h24.976c3.448,0,6.244,2.796,6.244,6.244v24.976C148.642,216.709,145.847,219.505,142.398,219.505
		z"/>
	<path style="fill:#D5D6DB;" d="M142.398,286.252h-24.976c-3.448,0-6.244-2.795-6.244-6.244v-24.976
		c0-3.448,2.795-6.244,6.244-6.244h24.976c3.448,0,6.244,2.795,6.244,6.244v24.976C148.642,283.456,145.847,286.252,142.398,286.252
		z"/>
	<path style="fill:#D5D6DB;" d="M142.398,352.999h-24.976c-3.448,0-6.244-2.796-6.244-6.244v-24.976
		c0-3.448,2.795-6.244,6.244-6.244h24.976c3.448,0,6.244,2.795,6.244,6.244v24.976C148.642,350.203,145.847,352.999,142.398,352.999
		z"/>
	<path style="fill:#D5D6DB;" d="M142.398,419.746h-24.976c-3.448,0-6.244-2.795-6.244-6.244v-24.976
		c0-3.448,2.795-6.244,6.244-6.244h24.976c3.448,0,6.244,2.796,6.244,6.244v24.976C148.642,416.95,145.847,419.746,142.398,419.746z
		"/>
	<path style="fill:#D5D6DB;" d="M360.179,394.769H185.35c-3.451,0-6.244,2.796-6.244,6.244s2.793,6.244,6.244,6.244h174.829
		c3.451,0,6.244-2.796,6.244-6.244S363.631,394.769,360.179,394.769z"/>
	<path style="fill:#D5D6DB;" d="M360.179,328.023H185.35c-3.451,0-6.244,2.796-6.244,6.244c0,3.448,2.793,6.244,6.244,6.244h174.829
		c3.451,0,6.244-2.796,6.244-6.244C366.423,330.819,363.631,328.023,360.179,328.023z"/>
	<path style="fill:#D5D6DB;" d="M360.179,261.277H185.35c-3.451,0-6.244,2.796-6.244,6.244c0,3.448,2.793,6.244,6.244,6.244h174.829
		c3.451,0,6.244-2.796,6.244-6.244C366.423,264.073,363.631,261.277,360.179,261.277z"/>
	<path style="fill:#D5D6DB;" d="M360.179,194.531H185.35c-3.451,0-6.244,2.796-6.244,6.244s2.793,6.244,6.244,6.244h174.829
		c3.451,0,6.244-2.796,6.244-6.244S363.631,194.531,360.179,194.531z"/>
	<path style="fill:#D5D6DB;" d="M360.179,127.785H185.35c-3.451,0-6.244,2.796-6.244,6.244c0,3.448,2.793,6.244,6.244,6.244h174.829
		c3.451,0,6.244-2.796,6.244-6.244C366.423,130.58,363.631,127.785,360.179,127.785z"/>
	<path style="fill:#D5D6DB;" d="M279.009,61.039H185.35c-3.451,0-6.244,2.796-6.244,6.244c0,3.448,2.793,6.244,6.244,6.244h93.659
		c3.451,0,6.244-2.796,6.244-6.244C285.252,63.834,282.46,61.039,279.009,61.039z"/>
</g>
<g>
	<path style="fill:#EBF0F3;" d="M117.423,86.011h2.421V48.547h-2.421c-3.449,0-6.244,2.795-6.244,6.244v24.976
		C111.179,83.215,113.974,86.011,117.423,86.011z"/>
	<path style="fill:#EBF0F3;" d="M117.423,152.758h2.421v-37.463h-2.421c-3.449,0-6.244,2.795-6.244,6.244v24.976
		C111.179,149.962,113.974,152.758,117.423,152.758z"/>
	<path style="fill:#EBF0F3;" d="M117.423,219.505h2.421v-37.463h-2.421c-3.449,0-6.244,2.795-6.244,6.244v24.976
		C111.179,216.709,113.974,219.505,117.423,219.505z"/>
	<path style="fill:#EBF0F3;" d="M117.423,286.252h2.421v-37.463h-2.421c-3.449,0-6.244,2.795-6.244,6.244v24.976
		C111.179,283.456,113.974,286.252,117.423,286.252z"/>
	<path style="fill:#EBF0F3;" d="M117.423,352.999h2.421v-37.463h-2.421c-3.449,0-6.244,2.795-6.244,6.244v24.976
		C111.179,350.203,113.974,352.999,117.423,352.999z"/>
	<path style="fill:#EBF0F3;" d="M117.423,419.746h2.421v-37.463h-2.421c-3.449,0-6.244,2.795-6.244,6.244v24.976
		C111.179,416.95,113.974,419.746,117.423,419.746z"/>
</g>
<g>
</g>
<g>
</g>
<g>
</g>
<g>
</g>
<g>
</g>
<g>
</g>
<g>
</g>
<g>
</g>
<g>
</g>
<g>
</g>
<g>
</g>
<g>
</g>
<g>
</g>
<g>
</g>
<g>
</g>
</svg>
