<?xml version="1.0" encoding="iso-8859-1"?>
<!-- Generator: Adobe Illustrator 19.0.0, SVG Export Plug-In . SVG Version: 6.00 Build 0)  -->
<svg version="1.1" id="Capa_1" xmlns="http://www.w3.org/2000/svg" xmlns:xlink="http://www.w3.org/1999/xlink" x="0px" y="0px"
	 viewBox="0 0 468.305 468.305" style="enable-background:new 0 0 468.305 468.305;" xml:space="preserve">
<rect x="213.335" y="271.004" style="fill:#64798A;" width="41.628" height="30.695"/>
<path style="fill:#E56353;" d="M318.427,76.503c0-43.497-39.987-78.515-88.41-76.413c-41.692,1.809-78.909,36.295-80.103,74.171
	c-0.699,22.187,9.018,42.306,25.035,56.651c19.206,17.202,30.29,40.529,33.332,64.865l0.143,1.142
	c2.544,20.35-6.892,40.072-24.539,52.444c-4.329,3.035-6.786,6.507-6.786,10.2c0,11.916,25.544,21.575,57.054,21.575
	s57.054-9.66,57.054-21.575c0-3.693-2.457-7.165-6.786-10.2c-17.647-12.372-27.082-32.097-24.568-52.209l0.196-1.569
	c3.032-24.255,14.093-47.495,33.252-64.623C308.809,117.098,318.427,97.827,318.427,76.503z"/>
<path style="fill:#44C4A1;" d="M102.042,296.941h264.221c20.69,0,37.463,16.773,37.463,37.463v44.82
	c0,3.448-2.796,6.244-6.244,6.244H70.822c-3.448,0-6.244-2.795-6.244-6.244v-44.82C64.579,313.714,81.352,296.941,102.042,296.941z"
	/>
<path style="fill:#27A2DB;" d="M90.963,385.468h286.378v17.076c0,3.448-2.796,6.244-6.244,6.244H97.207
	c-3.448,0-6.244-2.796-6.244-6.244V385.468z"/>
<ellipse style="fill:#64798A;" cx="234.153" cy="449.873" rx="112.515" ry="18.432"/>
<path style="fill:#D15241;" d="M179.493,76.543c0,27.476,20.768,47.681,15.75,47.681s-29.094-22.274-29.094-49.749
	s24.076-49.749,29.094-49.749S179.493,49.067,179.493,76.543z"/>
<g>
</g>
<g>
</g>
<g>
</g>
<g>
</g>
<g>
</g>
<g>
</g>
<g>
</g>
<g>
</g>
<g>
</g>
<g>
</g>
<g>
</g>
<g>
</g>
<g>
</g>
<g>
</g>
<g>
</g>
</svg>
