<?xml version="1.0" encoding="iso-8859-1"?>
<!-- Generator: Adobe Illustrator 19.0.0, SVG Export Plug-In . SVG Version: 6.00 Build 0)  -->
<svg version="1.1" id="Capa_1" xmlns="http://www.w3.org/2000/svg" xmlns:xlink="http://www.w3.org/1999/xlink" x="0px" y="0px"
	 viewBox="0 0 468.293 468.293" style="enable-background:new 0 0 468.293 468.293;" xml:space="preserve">
<polygon style="fill:#FCD462;" points="188.704,270.648 143.262,270.648 109.074,53.58 171.61,53.58 "/>
<polygon style="fill:#E56353;" points="234.146,270.648 188.704,270.648 171.61,53.58 234.146,53.58 "/>
<polygon style="fill:#27A2DB;" points="279.588,270.648 234.146,270.648 234.146,53.58 296.682,53.58 "/>
<polygon style="fill:#44C4A1;" points="325.03,270.648 279.588,270.648 296.682,53.58 359.218,53.58 "/>
<g>
	<path style="fill:#DC8744;" d="M370.451,292.212H97.841c-6.897,0-12.488-5.591-12.488-12.488v-22.466
		c0-6.897,5.591-12.488,12.488-12.488h272.61c6.897,0,12.488,5.591,12.488,12.488v22.466
		C382.939,286.621,377.348,292.212,370.451,292.212z"/>
	<path style="fill:#DC8744;" d="M358.829,36.583C321.427,11.26,277.637-0.355,234.314,0.008h-0.336
		c-43.323-0.363-87.113,11.251-124.515,36.575c-5.661,3.833-11.079,7.947-16.26,12.292c-4.857,4.073-7.682,10.075-7.682,16.414
		v9.265c0,17.645,20.104,27.755,34.269,17.234l0.387-0.288c34.184-25.323,74.205-36.964,113.8-36.601h0.336
		c39.596-0.363,79.617,11.278,113.8,36.601c0.129,0.096,0.258,0.192,0.387,0.288c14.168,10.552,34.269,0.803,34.269-16.863v-9.636
		c0-6.338-2.825-12.341-7.682-16.414C369.908,44.53,364.491,40.416,358.829,36.583z"/>
	<path style="fill:#DC8744;" d="M137.018,468.293h-22.015c-3.448,0-6.244-2.796-6.244-6.244V292.212h34.503v169.836
		C143.262,465.497,140.467,468.293,137.018,468.293z"/>
	<path style="fill:#DC8744;" d="M353.289,468.293h-22.015c-3.448,0-6.244-2.796-6.244-6.244V292.212h34.503v169.836
		C359.533,465.497,356.737,468.293,353.289,468.293z"/>
	<rect x="143.26" y="413.159" style="fill:#DC8744;" width="181.76" height="21.566"/>
</g>
<g>
</g>
<g>
</g>
<g>
</g>
<g>
</g>
<g>
</g>
<g>
</g>
<g>
</g>
<g>
</g>
<g>
</g>
<g>
</g>
<g>
</g>
<g>
</g>
<g>
</g>
<g>
</g>
<g>
</g>
</svg>
