<?xml version="1.0" encoding="iso-8859-1"?>
<!-- Generator: Adobe Illustrator 19.0.0, SVG Export Plug-In . SVG Version: 6.00 Build 0)  -->
<svg version="1.1" id="Capa_1" xmlns="http://www.w3.org/2000/svg" xmlns:xlink="http://www.w3.org/1999/xlink" x="0px" y="0px"
	 viewBox="0 0 468.293 468.293" style="enable-background:new 0 0 468.293 468.293;" xml:space="preserve">
<path style="fill:#3A556A;" d="M458.745,143.62c12.731-12.731,12.731-33.442-0.003-46.175l-15.611-15.611
	c-2.939-2.939-7.699-2.937-10.636,0c-2.937,2.937-2.939,7.696,0,10.636l15.611,15.611c6.865,6.865,6.868,18.039,0.003,24.904
	c-2.776,2.776-6.258,4.534-9.805,4.954c-16.53,1.958-52.116,14.476-104.765,76.265c-2.56,3.007-2.345,7.444,0.402,10.192
	c0.14,0.14,0.291,0.28,0.447,0.415c3.16,2.688,7.909,2.311,10.602-0.849c51.166-60.047,83.543-69.719,95.08-71.087
	C446.956,152.064,453.588,148.777,458.745,143.62z"/>
<path style="fill:#2F4859;" d="M25.739,439.394c-2.939-2.939-7.699-2.937-10.636,0l-12.9,12.9c-2.937,2.937-2.939,7.696,0,10.636
	s7.699,2.937,10.636,0l12.9-12.9C28.676,447.093,28.679,442.333,25.739,439.394z"/>
<polygon style="fill:#DC8744;" points="26.395,450.476 86.509,427.027 38.106,378.623 14.795,438.876 "/>
<path style="fill:#F6C358;" d="M310.109,213.108l-58.085-58.085L400.23,6.817c4.877-4.877,12.784-4.877,17.66,0l40.425,40.425
	c4.877,4.877,4.877,12.784,0,17.66L310.109,213.108z"/>
<rect x="16.986" y="259.239" transform="matrix(-0.7071 0.7071 -0.7071 -0.7071 500.5928 379.565)" style="fill:#FCD462;" width="309.399" height="68.44"/>
<g>
	
		<rect x="93.908" y="329.514" transform="matrix(-0.7071 0.7071 -0.7071 -0.7071 430.3492 549.2115)" style="fill:#27A2DB;" width="15.042" height="68.44"/>
	
		<rect x="120.49" y="302.891" transform="matrix(-0.7071 0.7071 -0.7071 -0.7071 456.9023 484.9665)" style="fill:#27A2DB;" width="15.042" height="68.44"/>
</g>
<g>
</g>
<g>
</g>
<g>
</g>
<g>
</g>
<g>
</g>
<g>
</g>
<g>
</g>
<g>
</g>
<g>
</g>
<g>
</g>
<g>
</g>
<g>
</g>
<g>
</g>
<g>
</g>
<g>
</g>
</svg>
