<?xml version="1.0" encoding="iso-8859-1"?>
<!-- Generator: Adobe Illustrator 19.0.0, SVG Export Plug-In . SVG Version: 6.00 Build 0)  -->
<svg version="1.1" id="Capa_1" xmlns="http://www.w3.org/2000/svg" xmlns:xlink="http://www.w3.org/1999/xlink" x="0px" y="0px"
	 viewBox="0 0 468.293 468.293" style="enable-background:new 0 0 468.293 468.293;" xml:space="preserve">
<path style="fill:#2F4859;" d="M351.832,219.657H240.393v-29.07h-12.488v29.07H116.46c-13.774,0-24.976,11.204-24.976,24.976v39.317
	h12.488v-39.317c0-6.887,5.604-12.488,12.488-12.488h117.683h6.25h111.439c6.884,0,12.488,5.601,12.488,12.488v39.317h12.488
	v-39.317C376.808,230.861,365.607,219.657,351.832,219.657z"/>
<path style="fill:#64798A;" d="M319.388,158.995H148.905c-6.897,0-12.488-5.591-12.488-12.488V32.633
	c0-6.897,5.591-12.488,12.488-12.488h170.484c6.897,0,12.488,5.591,12.488,12.488v113.874
	C331.876,153.404,326.285,158.995,319.388,158.995z"/>
<rect x="148.218" y="31.981" style="fill:#E1E6E9;" width="171.851" height="115.237"/>
<polygon style="fill:#EBF0F3;" points="148.221,147.189 320.07,31.95 320.07,147.189 "/>
<rect x="208.946" y="158.995" style="fill:#D5D6DB;" width="50.388" height="19.731"/>
<g>
	<path style="fill:#64798A;" d="M208.946,178.725h50.401l16.826,4.879c2.863,2.341,1.208,6.981-2.491,6.981H194.61
		c-3.699,0-5.354-4.64-2.491-6.981L208.946,178.725z"/>
	<path style="fill:#64798A;" d="M182.973,416.556H12.488C5.591,416.556,0,410.965,0,404.068V290.193
		c0-6.897,5.591-12.488,12.488-12.488h170.486c6.897,0,12.488,5.591,12.488,12.488v113.875
		C195.461,410.965,189.87,416.556,182.973,416.556z"/>
</g>
<rect x="11.845" y="289.511" style="fill:#E1E6E9;" width="171.851" height="115.237"/>
<polygon style="fill:#EBF0F3;" points="11.805,404.751 183.655,289.51 183.655,404.751 "/>
<rect x="72.554" y="416.531" style="fill:#D5D6DB;" width="50.388" height="19.731"/>
<g>
	<path style="fill:#64798A;" d="M72.53,436.287h50.402l16.827,4.879c2.863,2.341,1.208,6.981-2.491,6.981H58.194
		c-3.699,0-5.354-4.64-2.491-6.981L72.53,436.287z"/>
	<path style="fill:#64798A;" d="M455.805,416.556H285.319c-6.897,0-12.488-5.591-12.488-12.488V290.193
		c0-6.897,5.591-12.488,12.488-12.488h170.486c6.897,0,12.488,5.591,12.488,12.488v113.875
		C468.293,410.965,462.702,416.556,455.805,416.556z"/>
</g>
<rect x="284.641" y="289.511" style="fill:#E1E6E9;" width="171.851" height="115.237"/>
<polygon style="fill:#EBF0F3;" points="284.636,404.751 456.487,289.51 456.487,404.751 "/>
<rect x="345.363" y="416.531" style="fill:#D5D6DB;" width="50.388" height="19.731"/>
<path style="fill:#64798A;" d="M345.361,436.287h50.402l16.827,4.879c2.863,2.341,1.208,6.981-2.491,6.981h-79.074
	c-3.699,0-5.354-4.64-2.491-6.981L345.361,436.287z"/>
<g>
</g>
<g>
</g>
<g>
</g>
<g>
</g>
<g>
</g>
<g>
</g>
<g>
</g>
<g>
</g>
<g>
</g>
<g>
</g>
<g>
</g>
<g>
</g>
<g>
</g>
<g>
</g>
<g>
</g>
</svg>
