<?xml version="1.0" encoding="iso-8859-1"?>
<!-- Generator: Adobe Illustrator 19.0.0, SVG Export Plug-In . SVG Version: 6.00 Build 0)  -->
<svg version="1.1" id="Capa_1" xmlns="http://www.w3.org/2000/svg" xmlns:xlink="http://www.w3.org/1999/xlink" x="0px" y="0px"
	 viewBox="0 0 468.293 468.293" style="enable-background:new 0 0 468.293 468.293;" xml:space="preserve">
<g>
	<path style="fill:#F6C358;" d="M455.132,152.857H13.161V99.333c0-6.897,5.591-12.488,12.488-12.488h416.996
		c6.897,0,12.488,5.591,12.488,12.488V152.857z"/>
	<path style="fill:#F6C358;" d="M141.282,58.79H59.374c-6.897,0-12.488,5.591-12.488,12.488v15.567H153.77V71.278
		C153.77,64.381,148.179,58.79,141.282,58.79z"/>
</g>
<path style="fill:#FCD462;" d="M406.156,409.502H62.137c-12.413,0-23.009-8.969-25.059-21.212l-36.9-245.02
	c-1.297-7.746,4.675-14.802,12.53-14.802h442.878c7.854,0,13.827,7.056,12.53,14.802l-36.9,245.02
	C429.165,400.533,418.569,409.502,406.156,409.502z"/>
<path style="fill:#DC8744;" d="M345.058,268.993c0-25.27-8.749-49.978-24.604-69.529c-0.044-0.055-0.091-0.1-0.135-0.155
	l0.173-0.186l-5.34-5.758c-20.238-21.835-48.804-34.5-78.653-35.136c-0.77-0.084-1.545-0.143-2.336-0.143
	c-0.832,0-1.65,0.058-2.458,0.151c-3,0.067-5.998,0.157-8.965,0.466c-26.488,2.765-51.371,15.048-69.566,34.623l-0.003,0.004
	c-0.01,0.01-0.018,0.015-0.025,0.023l-5.362,5.769l0.179,0.192c-0.029,0.036-0.062,0.069-0.091,0.104
	c-15.888,19.589-24.637,44.297-24.637,69.573c0,25.543,8.805,49.965,24.801,69.687l-0.252,0.271l5.378,5.752
	c20.606,22.032,49.603,34.742,79.713,35.101c0.429,0.026,0.851,0.078,1.287,0.078c0.389,0,0.764-0.049,1.149-0.07
	c3.752-0.039,7.482-0.258,11.182-0.675c26.161-2.944,50.682-15.127,68.625-34.478c0.011-0.012,0.021-0.026,0.033-0.038l0,0
	l5.34-5.758l-0.221-0.238C336.262,318.956,345.058,294.556,345.058,268.993z M296.331,339.385c-0.841,0.748-1.738,1.424-2.604,2.139
	c-1.488,1.225-2.983,2.44-4.54,3.569c-0.998,0.722-2.032,1.387-3.056,2.068c-1.51,1.005-3.032,1.988-4.595,2.902
	c-1.099,0.642-2.219,1.244-3.342,1.842c-1.567,0.832-3.154,1.625-4.765,2.367c-1.163,0.536-2.335,1.053-3.52,1.541
	c-1.648,0.679-3.322,1.298-5.009,1.882c-1.192,0.414-2.381,0.832-3.591,1.198c-0.216,0.066-0.44,0.11-0.657,0.173
	c5.123-9.632,9.114-22.02,11.946-35.886c8.802,3.954,17.034,9.173,24.28,15.673C296.689,339.025,296.52,339.217,296.331,339.385z
	 M203.501,357.705c-1.688-0.586-3.366-1.204-5.018-1.884c-1.185-0.488-2.356-1.004-3.521-1.538
	c-1.613-0.741-3.202-1.534-4.772-2.365c-1.129-0.598-2.255-1.202-3.359-1.845c-1.56-0.91-3.081-1.888-4.589-2.887
	c-1.034-0.685-2.079-1.353-3.087-2.08c-1.558-1.123-3.055-2.333-4.545-3.554c-0.876-0.716-1.779-1.395-2.629-2.145
	c-0.191-0.168-0.36-0.36-0.55-0.531c7.241-6.509,15.479-11.737,24.292-15.695c2.831,13.858,6.821,26.239,11.939,35.868
	c-0.191-0.056-0.389-0.095-0.58-0.153C205.877,358.533,204.69,358.116,203.501,357.705z M190.712,277.44
	c0.271,9.712,1.004,19.35,2.194,28.613c-12.068,4.85-23.257,11.763-32.98,20.559c-11.084-14.235-17.789-31.239-19.399-49.173
	H190.712z M171.984,198.597c0.828-0.733,1.708-1.397,2.559-2.097c1.508-1.243,3.025-2.473,4.604-3.616
	c0.984-0.712,2.007-1.367,3.018-2.04c1.526-1.015,3.065-2.009,4.646-2.931c1.088-0.635,2.197-1.232,3.308-1.822
	c1.584-0.841,3.186-1.642,4.813-2.391c1.152-0.531,2.311-1.041,3.484-1.523c1.665-0.687,3.356-1.312,5.061-1.903
	c1.177-0.407,2.351-0.819,3.544-1.181c0.212-0.065,0.429-0.106,0.641-0.169c-5.117,9.629-9.106,22.008-11.936,35.864
	c-8.8-3.95-17.037-9.165-24.293-15.657C171.623,198.96,171.793,198.766,171.984,198.597z M264.863,180.272
	c1.712,0.594,3.41,1.221,5.081,1.911c1.159,0.478,2.304,0.983,3.441,1.507c1.648,0.759,3.271,1.57,4.872,2.423
	c1.087,0.58,2.171,1.163,3.235,1.785c1.614,0.943,3.187,1.958,4.743,2.997c0.976,0.652,1.962,1.284,2.915,1.973
	c1.622,1.175,3.181,2.44,4.729,3.722c0.808,0.668,1.644,1.299,2.431,1.996c0.195,0.173,0.371,0.373,0.564,0.549
	c-7.244,6.496-15.475,11.715-24.276,15.666c-2.831-13.864-6.821-26.25-11.94-35.883c0.221,0.066,0.45,0.11,0.671,0.177
	C262.519,179.454,263.69,179.865,264.863,180.272z M234.021,175.011c0.051,0,0.102-0.008,0.153-0.008
	c0.041,0,0.081,0.007,0.122,0.007c7.134,0.203,16.641,17.184,22.128,45.352c-7.24,1.776-14.693,2.788-22.25,2.788
	c-7.562,0-15.026-1.015-22.277-2.796C217.383,192.2,226.886,175.226,234.021,175.011z M234.174,240.044
	c8.422,0,16.735-1.06,24.834-2.934c0.858,7.311,1.444,15.134,1.684,23.436h-53.063c0.241-8.305,0.826-16.131,1.686-23.445
	C217.423,238.98,225.746,240.044,234.174,240.044z M260.692,277.44c-0.242,8.299-0.828,16.12-1.686,23.43
	c-8.098-1.874-16.41-2.934-24.832-2.934c-8.435,0-16.757,1.06-24.86,2.934c-0.859-7.309-1.444-15.132-1.686-23.43H260.692z
	 M234.227,362.975c-0.018,0-0.036,0.003-0.054,0.003c-0.027,0-0.055-0.004-0.084-0.004c-7.144-0.111-16.689-17.113-22.193-45.353
	c7.245-1.776,14.707-2.79,22.277-2.79c7.556,0,15.011,1.012,22.25,2.788C250.919,345.869,241.37,362.874,234.227,362.975z
	 M275.415,306.053c1.189-9.264,1.922-18.901,2.193-28.613h50.158c-1.607,17.938-8.308,34.925-19.4,49.14
	C298.643,317.8,287.466,310.896,275.415,306.053z M327.78,260.546h-50.172c-0.269-9.713-1.001-19.352-2.191-28.617
	c12.033-4.835,23.196-11.723,32.911-20.482C319.538,225.79,326.2,242.58,327.78,260.546z M159.971,211.435
	c9.731,8.756,20.903,15.644,32.936,20.481c-1.191,9.269-1.925,18.912-2.194,28.63h-50.2
	C142.091,242.582,148.752,225.797,159.971,211.435z"/>
<g>
</g>
<g>
</g>
<g>
</g>
<g>
</g>
<g>
</g>
<g>
</g>
<g>
</g>
<g>
</g>
<g>
</g>
<g>
</g>
<g>
</g>
<g>
</g>
<g>
</g>
<g>
</g>
<g>
</g>
</svg>
