<?xml version="1.0" encoding="iso-8859-1"?>
<!-- Generator: Adobe Illustrator 19.0.0, SVG Export Plug-In . SVG Version: 6.00 Build 0)  -->
<svg version="1.1" id="Capa_1" xmlns="http://www.w3.org/2000/svg" xmlns:xlink="http://www.w3.org/1999/xlink" x="0px" y="0px"
	 viewBox="0 0 466.557 466.557" style="enable-background:new 0 0 466.557 466.557;" xml:space="preserve">
<rect x="64.458" y="144.855" transform="matrix(-0.7071 0.7071 -0.7071 -0.7071 556.4071 243.2294)" style="fill:#FCD462;" width="326.743" height="183.989"/>
<rect x="311.092" y="36.568" transform="matrix(-0.7071 -0.7071 0.7071 -0.7071 588.9025 418.5695)" style="fill:#E1E6E9;" width="140.095" height="101.501"/>
<g>
	
		<rect x="348.294" y="41.651" transform="matrix(-0.7071 -0.7071 0.7071 -0.7071 587.8101 349.7589)" style="fill:#64798A;" width="36.096" height="22.978"/>
	
		<rect x="397.302" y="90.677" transform="matrix(-0.7071 -0.7071 0.7071 -0.7071 636.805 468.1044)" style="fill:#64798A;" width="36.096" height="22.978"/>
</g>
<rect x="330.386" y="84.648" transform="matrix(-0.7071 0.7071 -0.7071 -0.7071 712.4111 -120.3778)" style="fill:#D5D6DB;" width="101.501" height="5.413"/>
<path style="fill:#3EA69B;" d="M230.499,180.587L93.252,317.834c-14.793,14.793-14.793,38.777,0,53.57l190.817-190.816
	C269.276,165.794,245.293,165.793,230.499,180.587z"/>
<path style="fill:#44C4A1;" d="M284.069,180.587L93.252,371.403c14.793,14.793,38.777,14.793,53.57,0l137.248-137.247
	C298.863,219.363,298.862,195.38,284.069,180.587z"/>
<g>
	<path style="fill:#F6C358;" d="M177.357,417.397L47.259,287.298L9.144,325.413c-12.192,12.192-12.192,31.959,0,44.151
		l85.947,85.947c12.192,12.192,31.959,12.192,44.151,0L177.357,417.397z"/>
	
		<rect x="319.217" y="39.341" transform="matrix(-0.7071 0.7071 -0.7071 -0.7071 661.9335 -11.5095)" style="fill:#F6C358;" width="28.266" height="183.989"/>
</g>
<g>
</g>
<g>
</g>
<g>
</g>
<g>
</g>
<g>
</g>
<g>
</g>
<g>
</g>
<g>
</g>
<g>
</g>
<g>
</g>
<g>
</g>
<g>
</g>
<g>
</g>
<g>
</g>
<g>
</g>
</svg>
