<?xml version="1.0" encoding="iso-8859-1"?>
<!-- Generator: Adobe Illustrator 19.0.0, SVG Export Plug-In . SVG Version: 6.00 Build 0)  -->
<svg version="1.1" id="Capa_1" xmlns="http://www.w3.org/2000/svg" xmlns:xlink="http://www.w3.org/1999/xlink" x="0px" y="0px"
	 viewBox="0 0 468.265 468.265" style="enable-background:new 0 0 468.265 468.265;" xml:space="preserve">
<path style="fill:#D5D6DB;" d="M255.109,362.938L104.144,211.974L312.459,3.658c4.877-4.877,12.784-4.877,17.66,0l133.304,133.304
	c4.877,4.877,4.877,12.784,0,17.66L255.109,362.938z"/>
<g>
	<path style="fill:#E1E6E9;" d="M143.755,251.584l-39.611-39.611L312.459,3.658c4.877-4.877,12.784-4.877,17.66,0l30.78,30.78
		L143.755,251.584z"/>
	<path style="fill:#E1E6E9;" d="M255.109,362.938l-39.611-39.611l217.145-217.146l30.78,30.78c4.877,4.877,4.877,12.784,0,17.66
		L255.109,362.938z"/>
	
		<rect x="260.186" y="25.329" transform="matrix(-0.7071 -0.7071 0.7071 -0.7071 365.5043 509.1307)" style="fill:#E1E6E9;" width="56.021" height="307.077"/>
</g>
<path style="fill:#64798A;" d="M254.439,362.269L104.814,212.644c-4.877-4.877-12.784-4.877-17.66,0l-17.729,17.729
	c-4.877,4.877-4.877,12.784,0,17.66L219.05,397.658c4.877,4.877,12.784,4.877,17.66,0l17.729-17.729
	C259.316,375.052,259.316,367.145,254.439,362.269z"/>
<g>
	<path style="fill:#D5D6DB;" d="M219.72,398.328L68.756,247.363L6.254,309.865c-6.76,6.76-6.76,17.721,0,24.481l108.586,108.587
		l60.275,0L219.72,398.328z"/>
	<path style="fill:#D5D6DB;" d="M433.36,468.265H127.61c-6.897,0-12.488-5.591-12.488-12.488v-12.845H433.36V468.265z"/>
</g>
<g>
</g>
<g>
</g>
<g>
</g>
<g>
</g>
<g>
</g>
<g>
</g>
<g>
</g>
<g>
</g>
<g>
</g>
<g>
</g>
<g>
</g>
<g>
</g>
<g>
</g>
<g>
</g>
<g>
</g>
</svg>
