<?xml version="1.0" encoding="iso-8859-1"?>
<!-- Generator: Adobe Illustrator 19.0.0, SVG Export Plug-In . SVG Version: 6.00 Build 0)  -->
<svg version="1.1" id="Capa_1" xmlns="http://www.w3.org/2000/svg" xmlns:xlink="http://www.w3.org/1999/xlink" x="0px" y="0px"
	 viewBox="0 0 468.293 468.293" style="enable-background:new 0 0 468.293 468.293;" xml:space="preserve">
<path style="fill:#E56353;" d="M384.311,468.293H83.982c-2.962,0-5.363-2.401-5.363-5.363V45.464c0-2.962,2.401-5.363,5.363-5.363
	h300.329c2.962,0,5.363,2.401,5.363,5.363V462.93C389.674,465.892,387.273,468.293,384.311,468.293z"/>
<rect x="105.435" y="66.916" style="fill:#EBF0F3;" width="257.436" height="374.559"/>
<path style="fill:#64798A;" d="M262.669,25.474L262.669,25.474C262.669,11.428,249.874,0,234.146,0s-28.522,11.428-28.522,25.474
	l0,0H165.16c-5.924,0-10.726,4.802-10.726,10.726v33.275c0,5.924,4.802,10.726,10.726,10.726h143.335
	c2.962,0,5.363-2.401,5.363-5.363V36.2c0-5.924-4.802-10.726-10.726-10.726H262.669z M234.146,10.726
	c9.815,0,17.796,6.615,17.796,14.748c0,1.813-0.45,3.53-1.176,5.137l-7.114,5.59h-19.014l-7.114-5.59
	c-0.725-1.605-1.176-3.323-1.176-5.137C216.35,17.341,224.332,10.726,234.146,10.726z"/>
<polygon style="fill:#27A2DB;" points="317.751,276.594 330.682,254.195 317.75,231.796 317.75,205.93 295.348,192.995 
	282.415,170.594 256.548,170.594 234.148,157.661 211.748,170.594 185.88,170.594 172.946,192.997 150.547,205.93 150.547,231.792 
	137.613,254.195 150.548,276.599 150.548,302.464 172.948,315.397 185.88,337.797 211.746,337.797 234.148,350.731 256.552,337.797 
	282.415,337.797 295.346,315.399 317.751,302.464 "/>
<path style="fill:#E1E6E9;" d="M213.295,294.788c-2.979,0-5.954-1.069-8.309-3.202l-25.759-23.307
	c-5.069-4.585-5.46-12.415-0.871-17.489c4.58-5.069,12.415-5.475,17.489-0.871l17.769,16.076l59.203-49.511
	c5.243-4.377,13.044-3.695,17.44,1.557c4.387,5.243,3.69,13.054-1.557,17.44l-67.464,56.422
	C218.934,293.83,216.114,294.788,213.295,294.788z"/>
<g>
</g>
<g>
</g>
<g>
</g>
<g>
</g>
<g>
</g>
<g>
</g>
<g>
</g>
<g>
</g>
<g>
</g>
<g>
</g>
<g>
</g>
<g>
</g>
<g>
</g>
<g>
</g>
<g>
</g>
</svg>
