<?xml version="1.0" encoding="iso-8859-1"?>
<!-- Generator: Adobe Illustrator 19.0.0, SVG Export Plug-In . SVG Version: 6.00 Build 0)  -->
<svg version="1.1" id="Capa_1" xmlns="http://www.w3.org/2000/svg" xmlns:xlink="http://www.w3.org/1999/xlink" x="0px" y="0px"
	 viewBox="0 0 468.293 468.293" style="enable-background:new 0 0 468.293 468.293;" xml:space="preserve">
<path style="fill:#D5D6DB;" d="M0.586,167.016l27.099-64.025c2.978-7.036,11.096-10.325,18.132-7.347L408.895,249.32l-17.974,42.465
	c-1.489,3.518-5.548,5.163-9.066,3.674L73.681,165.022c-18.115-7.667-38.928-6.007-55.322,4.865
	c-2.285,1.515-4.627,3.221-7.016,5.141C5.715,179.549-2.229,173.665,0.586,167.016z"/>
<path style="fill:#27A2DB;" d="M51.076,66.565c-8.062-3.412-17.431,2.005-17.896,10.747c-1.079,20.258,10.437,39.934,30.198,48.298
	l357.069,151.132c3.518,1.489,7.577-0.156,9.066-3.674l13.933-32.919c1.489-3.518-0.156-7.577-3.674-9.066L51.076,66.565z"/>
<path style="fill:#D5D6DB;" d="M7.656,290.575l0,69.523c0,7.64,6.194,13.834,13.834,13.834h394.261v-46.112
	c0-3.82-3.097-6.917-6.917-6.917H74.192c-19.671,0-38.191-9.642-49.05-26.043c-1.513-2.286-3.005-4.77-4.457-7.469
	C17.265,281.032,7.656,283.354,7.656,290.575z"/>
<path style="fill:#27A2DB;" d="M14.999,402.761c-8.754,0-15.27-8.64-12.292-16.872c6.903-19.076,25.177-32.707,46.635-32.707
	h387.736c3.82,0,6.917,3.097,6.917,6.917v35.746c0,3.82-3.097,6.917-6.917,6.917L14.999,402.761z"/>
<circle style="fill:#44C4A1;" cx="408.894" cy="306.326" r="59.398"/>
<circle style="fill:#E1E6E9;" cx="408.894" cy="306.326" r="35.547"/>
<circle style="fill:#3A556A;" cx="408.894" cy="306.326" r="17.289"/>
<g>
</g>
<g>
</g>
<g>
</g>
<g>
</g>
<g>
</g>
<g>
</g>
<g>
</g>
<g>
</g>
<g>
</g>
<g>
</g>
<g>
</g>
<g>
</g>
<g>
</g>
<g>
</g>
<g>
</g>
</svg>
