<?xml version="1.0" encoding="iso-8859-1"?>
<!-- Generator: Adobe Illustrator 19.0.0, SVG Export Plug-In . SVG Version: 6.00 Build 0)  -->
<svg version="1.1" id="Capa_1" xmlns="http://www.w3.org/2000/svg" xmlns:xlink="http://www.w3.org/1999/xlink" x="0px" y="0px"
	 viewBox="0 0 468.293 468.293" style="enable-background:new 0 0 468.293 468.293;" xml:space="preserve">
<path style="fill:#E56353;" d="M266.316,0h-64.339c-39.459,0-68.504,36.944-59.19,75.288l18.413,75.807
	c3.694,15.204,10.096,29.62,18.899,42.555c14.712,21.618,22.58,47.162,22.58,73.311v18.611h62.936v-18.611
	c0-26.149,7.867-51.693,22.58-73.311c8.803-12.935,15.204-27.35,18.898-42.555l18.413-75.807C334.82,36.944,305.775,0,266.316,0z"/>
<path style="fill:#64798A;" d="M186.743,285.572h94.807c6.897,0,12.488,5.591,12.488,12.488v36.225H174.255V298.06
	C174.255,291.163,179.846,285.572,186.743,285.572z"/>
<path style="fill:#DC8744;" d="M59.78,334.285h348.733c6.897,0,12.488,5.591,12.488,12.488v88.759c0,3.448-2.796,6.244-6.244,6.244
	H53.536c-3.448,0-6.244-2.796-6.244-6.244v-88.759C47.292,339.876,52.883,334.285,59.78,334.285z"/>
<path style="fill:#3A556A;" d="M77.506,441.776h313.28v14.029c0,6.897-5.591,12.488-12.488,12.488H89.994
	c-6.897,0-12.488-5.591-12.488-12.488V441.776z"/>
<g>
</g>
<g>
</g>
<g>
</g>
<g>
</g>
<g>
</g>
<g>
</g>
<g>
</g>
<g>
</g>
<g>
</g>
<g>
</g>
<g>
</g>
<g>
</g>
<g>
</g>
<g>
</g>
<g>
</g>
</svg>
