<?xml version="1.0" encoding="iso-8859-1"?>
<!-- Generator: Adobe Illustrator 19.0.0, SVG Export Plug-In . SVG Version: 6.00 Build 0)  -->
<svg version="1.1" id="Capa_1" xmlns="http://www.w3.org/2000/svg" xmlns:xlink="http://www.w3.org/1999/xlink" x="0px" y="0px"
	 viewBox="0 0 468.293 468.293" style="enable-background:new 0 0 468.293 468.293;" xml:space="preserve">
<path style="fill:#27A2DB;" d="M392.322,468.293H75.97V121.289c0-6.897,5.591-12.488,12.488-12.488h291.377
	c6.897,0,12.488,5.591,12.488,12.488V468.293z"/>
<path style="fill:#2D93BA;" d="M392.322,468.293H75.97l151.061-86.017c4.411-2.512,9.82-2.512,14.231,0L392.322,468.293z"/>
<circle style="fill:#64798A;" cx="149.96" cy="162.273" r="19.175"/>
<path style="fill:#E1E6E9;" d="M149.959,176.651c-9.768,0-17.74-7.331-18.931-16.776c-0.1,0.794-0.242,1.576-0.242,2.397
	c0,10.589,8.584,19.173,19.173,19.173c10.589,0,19.173-8.584,19.173-19.173c0-0.82-0.142-1.603-0.242-2.397
	C167.699,169.32,159.727,176.651,149.959,176.651z"/>
<circle style="fill:#64798A;" cx="317.939" cy="162.273" r="19.175"/>
<path style="fill:#E1E6E9;" d="M317.923,176.651c-9.768,0-17.74-7.331-18.931-16.776c-0.1,0.794-0.242,1.576-0.242,2.397
	c0,10.589,8.584,19.173,19.173,19.173c10.589,0,19.173-8.584,19.173-19.173c0-0.82-0.142-1.603-0.242-2.397
	C335.662,169.32,327.691,176.651,317.923,176.651z"/>
<path style="fill:#3A556A;" d="M234.148,0c-50.6,0-91.769,41.166-91.769,91.766v67.725c0,3.972,3.22,7.19,7.19,7.19
	c3.969,0,7.19-3.218,7.19-7.19V91.766c0-42.671,34.718-77.387,77.389-77.387s77.384,34.716,77.384,77.387v67.725
	c0,3.972,3.22,7.19,7.19,7.19s7.19-3.218,7.19-7.19V91.766C325.912,41.166,284.748,0,234.148,0z"/>
<g>
</g>
<g>
</g>
<g>
</g>
<g>
</g>
<g>
</g>
<g>
</g>
<g>
</g>
<g>
</g>
<g>
</g>
<g>
</g>
<g>
</g>
<g>
</g>
<g>
</g>
<g>
</g>
<g>
</g>
</svg>
