<?xml version="1.0" encoding="iso-8859-1"?>
<!-- Generator: Adobe Illustrator 19.0.0, SVG Export Plug-In . SVG Version: 6.00 Build 0)  -->
<svg version="1.1" id="Capa_1" xmlns="http://www.w3.org/2000/svg" xmlns:xlink="http://www.w3.org/1999/xlink" x="0px" y="0px"
	 viewBox="0 0 468.293 468.293" style="enable-background:new 0 0 468.293 468.293;" xml:space="preserve">
<path style="fill:#D5D6DB;" d="M455.805,318.41H12.488C5.591,318.41,0,312.819,0,305.922v-62.439
	c0-6.897,5.591-12.488,12.488-12.488h443.317c6.897,0,12.488,5.591,12.488,12.488v62.439
	C468.293,312.819,462.702,318.41,455.805,318.41z"/>
<path style="fill:#E1E6E9;" d="M448.163,318.41H20.129v26.322c0,10.345,8.386,18.732,18.732,18.732h390.571
	c10.345,0,18.732-8.386,18.732-18.732V318.41z"/>
<circle style="fill:#E56353;" cx="53.76" cy="274.732" r="18.732"/>
<circle style="fill:#27A2DB;" cx="116.199" cy="274.732" r="18.732"/>
<g>
	<path style="fill:#64798A;" d="M62.064,105.613L62.064,105.613l-6.628,26.518l391.716,97.913
		c6.691,1.673,13.471-2.396,15.143-9.087l2.658-10.636c0.557-2.229-0.421-4.577-2.403-5.741
		C341.496,133.481,202.358,99.083,62.064,105.613z"/>
	<path style="fill:#64798A;" d="M194.432,299.678c-3.451,0-6.244-2.796-6.244-6.244v-37.463c0-3.448,2.793-6.244,6.244-6.244
		s6.244,2.796,6.244,6.244v37.463C200.676,296.882,197.883,299.678,194.432,299.678z"/>
	<path style="fill:#64798A;" d="M224.946,299.678c-3.451,0-6.244-2.796-6.244-6.244v-37.463c0-3.448,2.793-6.244,6.244-6.244
		s6.244,2.796,6.244,6.244v37.463C231.19,296.882,228.397,299.678,224.946,299.678z"/>
	<path style="fill:#64798A;" d="M255.46,299.678c-3.451,0-6.244-2.796-6.244-6.244v-37.463c0-3.448,2.793-6.244,6.244-6.244
		s6.244,2.796,6.244,6.244v37.463C261.704,296.882,258.912,299.678,255.46,299.678z"/>
	<path style="fill:#64798A;" d="M285.975,299.678c-3.451,0-6.244-2.796-6.244-6.244v-37.463c0-3.448,2.793-6.244,6.244-6.244
		c3.451,0,6.244,2.796,6.244,6.244v37.463C292.219,296.882,289.426,299.678,285.975,299.678z"/>
	<path style="fill:#64798A;" d="M316.489,299.678c-3.451,0-6.244-2.796-6.244-6.244v-37.463c0-3.448,2.793-6.244,6.244-6.244
		c3.451,0,6.244,2.796,6.244,6.244v37.463C322.733,296.882,319.94,299.678,316.489,299.678z"/>
	<path style="fill:#64798A;" d="M347.003,299.678c-3.451,0-6.244-2.796-6.244-6.244v-37.463c0-3.448,2.793-6.244,6.244-6.244
		c3.451,0,6.244,2.796,6.244,6.244v37.463C353.247,296.882,350.454,299.678,347.003,299.678z"/>
	<path style="fill:#64798A;" d="M377.518,299.678c-3.451,0-6.244-2.796-6.244-6.244v-37.463c0-3.448,2.793-6.244,6.244-6.244
		c3.451,0,6.244,2.796,6.244,6.244v37.463C383.762,296.882,380.969,299.678,377.518,299.678z"/>
	<path style="fill:#64798A;" d="M408.032,299.678c-3.451,0-6.244-2.796-6.244-6.244v-37.463c0-3.448,2.793-6.244,6.244-6.244
		c3.451,0,6.244,2.796,6.244,6.244v37.463C414.276,296.882,411.483,299.678,408.032,299.678z"/>
	<path style="fill:#64798A;" d="M438.546,299.678c-3.451,0-6.244-2.796-6.244-6.244v-37.463c0-3.448,2.793-6.244,6.244-6.244
		c3.451,0,6.244,2.796,6.244,6.244v37.463C444.79,296.882,441.997,299.678,438.546,299.678z"/>
</g>
<g>
</g>
<g>
</g>
<g>
</g>
<g>
</g>
<g>
</g>
<g>
</g>
<g>
</g>
<g>
</g>
<g>
</g>
<g>
</g>
<g>
</g>
<g>
</g>
<g>
</g>
<g>
</g>
<g>
</g>
</svg>
