<?xml version="1.0" encoding="iso-8859-1"?>
<!-- Generator: Adobe Illustrator 19.0.0, SVG Export Plug-In . SVG Version: 6.00 Build 0)  -->
<svg version="1.1" id="Capa_1" xmlns="http://www.w3.org/2000/svg" xmlns:xlink="http://www.w3.org/1999/xlink" x="0px" y="0px"
	 viewBox="0 0 468.293 468.293" style="enable-background:new 0 0 468.293 468.293;" xml:space="preserve">
<path style="fill:#E1E6E9;" d="M466.415,137.197L137.18,466.433c-2.48,2.48-6.54,2.48-9.02,0L1.878,340.15
	c-2.526-2.526-2.48-6.54,0-9.02L331.113,1.894c2.526-2.526,6.494-2.526,9.02,0l126.282,126.282
	C468.896,130.657,468.941,134.671,466.415,137.197z"/>
<g>
	
		<rect x="317.748" y="19.332" transform="matrix(-0.7071 0.7071 -0.7071 -0.7071 584.9061 -152.9293)" style="fill:#64798A;" width="12.756" height="50.682"/>
	
		<rect x="276.031" y="57.087" transform="matrix(-0.7071 0.7071 -0.7071 -0.7071 533.6175 -75.3248)" style="fill:#64798A;" width="12.756" height="31.532"/>
	
		<rect x="247.884" y="89.202" transform="matrix(-0.7071 0.7071 -0.7071 -0.7071 515.0462 15.7461)" style="fill:#64798A;" width="12.756" height="50.682"/>
	
		<rect x="206.191" y="126.952" transform="matrix(-0.7071 0.7071 -0.7071 -0.7071 463.7947 93.3249)" style="fill:#64798A;" width="12.756" height="31.532"/>
	
		<rect x="178.016" y="159.042" transform="matrix(-0.7071 0.7071 -0.7071 -0.7071 445.158 184.3745)" style="fill:#64798A;" width="12.756" height="50.682"/>
	
		<rect x="136.358" y="196.8" transform="matrix(-0.7071 0.7071 -0.7071 -0.7071 393.973 261.9434)" style="fill:#64798A;" width="12.756" height="31.532"/>
	
		<rect x="108.185" y="228.903" transform="matrix(-0.7071 0.7071 -0.7071 -0.7071 375.3485 353.0136)" style="fill:#64798A;" width="12.756" height="50.682"/>
	
		<rect x="66.5" y="266.621" transform="matrix(-0.7071 0.7071 -0.7071 -0.7071 324.0882 430.532)" style="fill:#64798A;" width="12.756" height="31.532"/>
	
		<rect x="38.383" y="298.762" transform="matrix(-0.7071 0.7071 -0.7071 -0.7071 305.5871 521.6269)" style="fill:#64798A;" width="12.756" height="50.682"/>
</g>
<path style="fill:#EBF0F3;" d="M466.415,137.197L137.18,466.433c-2.48,2.48-6.54,2.48-9.02,0l-21.603-21.603l338.256-338.256
	l21.603,21.603C468.896,130.657,468.941,134.671,466.415,137.197z"/>
<circle style="fill:#64798A;" cx="415.407" cy="135.98" r="22.322"/>
<g>
</g>
<g>
</g>
<g>
</g>
<g>
</g>
<g>
</g>
<g>
</g>
<g>
</g>
<g>
</g>
<g>
</g>
<g>
</g>
<g>
</g>
<g>
</g>
<g>
</g>
<g>
</g>
<g>
</g>
</svg>
