<?xml version="1.0" encoding="iso-8859-1"?>
<!-- Generator: Adobe Illustrator 19.0.0, SVG Export Plug-In . SVG Version: 6.00 Build 0)  -->
<svg version="1.1" id="Capa_1" xmlns="http://www.w3.org/2000/svg" xmlns:xlink="http://www.w3.org/1999/xlink" x="0px" y="0px"
	 viewBox="0 0 468.293 468.293" style="enable-background:new 0 0 468.293 468.293;" xml:space="preserve">
<path style="fill:#2F4859;" d="M242.678,395.389v-42.384h-17.062v42.384c-16.278,3.867-28.437,18.492-28.437,35.935
	c0,20.384,16.585,36.968,36.968,36.968s36.968-16.585,36.968-36.968C271.115,413.881,258.955,399.256,242.678,395.389z
	 M234.146,451.23c-10.975,0-19.906-8.931-19.906-19.906c0-10.975,8.931-19.906,19.906-19.906s19.906,8.931,19.906,19.906
	C254.052,442.299,245.121,451.23,234.146,451.23z"/>
<path style="fill:#64798A;" d="M465.199,49.291H3.094V24.976C3.094,11.182,14.276,0,28.07,0h412.154
	c13.794,0,24.976,11.182,24.976,24.976V49.291z"/>
<rect x="24.657" y="49.289" style="fill:#E1E6E9;" width="418.966" height="286.589"/>
<path style="fill:#64798A;" d="M452.876,360.526H15.417c-6.806,0-12.323-5.517-12.323-12.323v0c0-6.806,5.517-12.323,12.323-12.323
	h437.459c6.806,0,12.323,5.517,12.323,12.323v0C465.199,355.009,459.682,360.526,452.876,360.526z"/>
<path style="fill:#E56353;" d="M268.062,174.335c0-22.077-8.422-44.152-25.265-60.995c-16.843-16.843-38.919-25.265-60.994-25.264
	l0,86.259L268.062,174.335z"/>
<g>
	<path style="fill:#27A2DB;" d="M164.338,95.256c-24.708-0.001-49.416,9.425-68.268,28.276s-28.277,43.56-28.276,68.268
		l96.543-0.001L164.338,95.256z"/>
	<path style="fill:#27A2DB;" d="M232.604,260.066c18.851-18.851,28.278-43.559,28.277-68.266l-96.544-0.001l0.001,96.544
		C189.045,288.344,213.752,278.918,232.604,260.066z"/>
</g>
<path style="fill:#44C4A1;" d="M67.794,191.8c-0.001,24.708,9.425,49.415,28.276,68.266s43.559,28.277,68.268,28.277l-0.001-96.544
	L67.794,191.8z"/>
<rect x="382.002" y="173.868" style="fill:#FCD462;" width="18.482" height="123.23"/>
<rect x="345.044" y="204.675" style="fill:#44C4A1;" width="18.482" height="92.422"/>
<rect x="308.08" y="235.458" style="fill:#E56353;" width="18.482" height="61.615"/>
<g>
</g>
<g>
</g>
<g>
</g>
<g>
</g>
<g>
</g>
<g>
</g>
<g>
</g>
<g>
</g>
<g>
</g>
<g>
</g>
<g>
</g>
<g>
</g>
<g>
</g>
<g>
</g>
<g>
</g>
</svg>
