<?xml version="1.0" encoding="iso-8859-1"?>
<!-- Generator: Adobe Illustrator 19.0.0, SVG Export Plug-In . SVG Version: 6.00 Build 0)  -->
<svg version="1.1" id="Capa_1" xmlns="http://www.w3.org/2000/svg" xmlns:xlink="http://www.w3.org/1999/xlink" x="0px" y="0px"
	 viewBox="0 0 468.36 468.36" style="enable-background:new 0 0 468.36 468.36;" xml:space="preserve">
<rect x="297.755" y="292.974" transform="matrix(-0.7071 0.7071 -0.7071 -0.7071 762.3965 315.7717)" style="fill:#44C4A1;" width="36.09" height="45.618"/>
<path style="fill:#64798A;" d="M360.247,312.048l104.595,104.594c4.679,4.679,4.679,12.335,0,17.014l-31.178,31.178
	c-4.721,4.721-12.335,4.679-17.014,0L312.055,360.241c-2.339-2.339-2.382-6.125,0-8.507l39.686-39.686
	C354.08,309.709,357.908,309.709,360.247,312.048z"/>
<ellipse style="fill:#1C75A1;" cx="180.519" cy="180.51" rx="180.461" ry="180.461"/>
<g>
	<ellipse style="fill:#E1E6E9;" cx="180.519" cy="180.51" rx="156.41" ry="156.41"/>
	
		<rect x="325.892" y="356.215" transform="matrix(-0.7071 0.7071 -0.7071 -0.7071 869.0443 359.9783)" style="fill:#E1E6E9;" width="68.153" height="7.518"/>
	
		<rect x="320.559" y="350.886" transform="matrix(-0.7071 0.7071 -0.7071 -0.7071 856.1725 354.6511)" style="fill:#E1E6E9;" width="68.153" height="7.518"/>
	
		<rect x="341.843" y="372.116" transform="matrix(-0.7071 0.7071 -0.7071 -0.7071 907.5176 375.844)" style="fill:#E1E6E9;" width="68.152" height="7.518"/>
	
		<rect x="347.159" y="377.414" transform="matrix(-0.7071 0.7071 -0.7071 -0.7071 920.3397 381.1278)" style="fill:#E1E6E9;" width="68.152" height="7.518"/>
</g>
<path style="fill:#E56353;" d="M180.521,158.895c-36.978,0-75.407,22.732-97.874,61.939c-7.191,12.549,1.737,28.21,16.2,28.21
	h163.348c14.463,0,23.391-15.661,16.2-28.21C255.928,181.627,217.499,158.895,180.521,158.895z"/>
<circle style="fill:#FCD462;" cx="180.52" cy="124.476" r="37.463"/>
<g>
</g>
<g>
</g>
<g>
</g>
<g>
</g>
<g>
</g>
<g>
</g>
<g>
</g>
<g>
</g>
<g>
</g>
<g>
</g>
<g>
</g>
<g>
</g>
<g>
</g>
<g>
</g>
<g>
</g>
</svg>
