<?xml version="1.0" encoding="iso-8859-1"?>
<!-- Generator: Adobe Illustrator 19.0.0, SVG Export Plug-In . SVG Version: 6.00 Build 0)  -->
<svg version="1.1" id="Capa_1" xmlns="http://www.w3.org/2000/svg" xmlns:xlink="http://www.w3.org/1999/xlink" x="0px" y="0px"
	 viewBox="0 0 468.293 468.293" style="enable-background:new 0 0 468.293 468.293;" xml:space="preserve">
<path style="fill:#E1E6E9;" d="M468.293,209.489V434.27c0,13.799-11.177,24.976-24.976,24.976H24.976
	C11.239,459.245,0,448.069,0,434.27V209.489c0-13.799,11.239-24.976,24.976-24.976h418.341
	C457.116,184.514,468.293,195.69,468.293,209.489z"/>
<g>
	<path style="fill:#64798A;" d="M400.484,431.647v27.598H69.744v-27.598c0-13.799,11.176-24.976,24.976-24.976h280.788
		C389.307,406.672,400.484,417.849,400.484,431.647z"/>
	<rect x="45.268" y="132.177" style="fill:#64798A;" width="377.756" height="89.637"/>
</g>
<rect x="90.537" y="9.047" style="fill:#E1E6E9;" width="287.22" height="230.762"/>
<path style="fill:#DC8744;" d="M377.756,184.514v24.976H90.537v-24.976H45.206V290.66c0,17.233,13.986,31.22,31.22,31.22h315.38
	c17.233,0,31.22-13.986,31.22-31.22V184.514H377.756z"/>
<g>
	<path style="fill:#F6C358;" d="M109.268,228.221h249.756c10.345,0,18.732-8.386,18.732-18.732v0H90.537v0
		C90.537,219.834,98.923,228.221,109.268,228.221z"/>
	<rect x="45.206" y="184.507" style="fill:#F6C358;" width="45.331" height="18.732"/>
	<rect x="377.756" y="184.507" style="fill:#F6C358;" width="45.268" height="18.732"/>
</g>
<circle style="fill:#3EA69B;" cx="63.938" cy="363.913" r="18.732"/>
<circle style="fill:#44C4A1;" cx="63.938" cy="363.913" r="9.366"/>
<circle style="fill:#2D93BA;" cx="126.377" cy="363.913" r="18.732"/>
<circle style="fill:#27A2DB;" cx="126.377" cy="363.913" r="9.366"/>
<g>
	<path style="fill:#D5D6DB;" d="M327.805,159.654H140.488c-3.451,0-6.244,2.796-6.244,6.244c0,3.448,2.793,6.244,6.244,6.244
		h187.317c3.451,0,6.244-2.796,6.244-6.244C334.049,162.449,331.256,159.654,327.805,159.654z"/>
	<path style="fill:#D5D6DB;" d="M327.805,123.683H140.488c-3.451,0-6.244,2.796-6.244,6.244c0,3.448,2.793,6.244,6.244,6.244
		h187.317c3.451,0,6.244-2.796,6.244-6.244C334.049,126.479,331.256,123.683,327.805,123.683z"/>
	<path style="fill:#D5D6DB;" d="M327.805,87.713H140.488c-3.451,0-6.244,2.796-6.244,6.244s2.793,6.244,6.244,6.244h187.317
		c3.451,0,6.244-2.796,6.244-6.244S331.256,87.713,327.805,87.713z"/>
	<path style="fill:#D5D6DB;" d="M327.805,51.742H140.488c-3.451,0-6.244,2.796-6.244,6.244s2.793,6.244,6.244,6.244h187.317
		c3.451,0,6.244-2.796,6.244-6.244S331.256,51.742,327.805,51.742z"/>
</g>
<g>
</g>
<g>
</g>
<g>
</g>
<g>
</g>
<g>
</g>
<g>
</g>
<g>
</g>
<g>
</g>
<g>
</g>
<g>
</g>
<g>
</g>
<g>
</g>
<g>
</g>
<g>
</g>
<g>
</g>
</svg>
