<?xml version="1.0" encoding="iso-8859-1"?>
<!-- Generator: Adobe Illustrator 19.0.0, SVG Export Plug-In . SVG Version: 6.00 Build 0)  -->
<svg version="1.1" id="Capa_1" xmlns="http://www.w3.org/2000/svg" xmlns:xlink="http://www.w3.org/1999/xlink" x="0px" y="0px"
	 viewBox="0 0 468.293 468.293" style="enable-background:new 0 0 468.293 468.293;" xml:space="preserve">
<path style="fill:#64798A;" d="M369.866,418.784H118.903c-10.345,0-18.732-8.386-18.732-18.732V87.858
	c0-10.345,8.386-18.732,18.732-18.732h250.964c13.794,0,24.976,11.182,24.976,24.976v299.707
	C394.842,407.602,383.66,418.784,369.866,418.784z"/>
<g>
	<path style="fill:#2D93BA;" d="M195.52,429.191c3.481-2.854,4.873-7.541,3.515-11.833l-22.36-70.657
		c-1.679-5.306-7.054-8.524-12.523-7.498l-12.811,2.402l33.062,96.703L195.52,429.191z"/>
	<path style="fill:#2D93BA;" d="M176.675,121.592l22.36-70.657c1.358-4.292-0.034-8.979-3.515-11.833l-11.118-9.117l-33.062,96.703
		l12.811,2.402C169.621,130.116,174.996,126.898,176.675,121.592z"/>
</g>
<path style="fill:#27A2DB;" d="M150.906,2.519c-3.309-2.713-7.879-3.304-11.726-1.432c-18.397,8.952-65.729,49.895-65.729,233.059
	s47.332,224.107,65.729,233.059c3.848,1.872,8.418,1.282,11.726-1.431l33.496-27.467l-33.062-96.703l-5.553,1.041
	c-4.596,0.862-9.206-1.272-11.563-5.312c-8.785-15.058-18.897-53.437-18.897-103.187c0-49.75,10.112-88.13,18.897-103.188
	c2.356-4.04,6.966-6.174,11.563-5.312l5.553,1.041l33.062-96.703L150.906,2.519z"/>
<path style="fill:#3EA69B;" d="M342.441,176.047H217.563c-6.897,0-12.488-5.591-12.488-12.488v-37.463
	c0-6.897,5.591-12.488,12.488-12.488h124.878c6.897,0,12.488,5.591,12.488,12.488v37.463
	C354.929,170.456,349.338,176.047,342.441,176.047z"/>
<path style="fill:#44C4A1;" d="M266.322,113.607l-58.128,58.128c2.289,2.621,5.616,4.311,9.37,4.311l124.878,0
	c6.897,0,12.488-5.591,12.488-12.488l0-37.463c0-6.897-5.591-12.488-12.488-12.488L266.322,113.607z"/>
<g>
	<path style="fill:#E1E6E9;" d="M242.508,218.224V243.2c0,3.434-2.747,6.244-6.244,6.244h-24.976c-3.434,0-6.244-2.81-6.244-6.244
		v-24.976c0-3.497,2.81-6.244,6.244-6.244h24.976C239.76,211.98,242.508,214.728,242.508,218.224z"/>
	<path style="fill:#E1E6E9;" d="M298.703,218.224V243.2c0,3.434-2.747,6.244-6.244,6.244h-24.976c-3.434,0-6.244-2.81-6.244-6.244
		v-24.976c0-3.497,2.81-6.244,6.244-6.244h24.976C295.955,211.98,298.703,214.728,298.703,218.224z"/>
	<path style="fill:#E1E6E9;" d="M354.898,218.224V243.2c0,3.434-2.747,6.244-6.244,6.244h-24.976c-3.434,0-6.244-2.81-6.244-6.244
		v-24.976c0-3.497,2.81-6.244,6.244-6.244h24.976C352.151,211.98,354.898,214.728,354.898,218.224z"/>
	<path style="fill:#E1E6E9;" d="M236.295,305.62h-24.976c-3.448,0-6.244-2.796-6.244-6.244V274.4c0-3.448,2.796-6.244,6.244-6.244
		h24.976c3.448,0,6.244,2.795,6.244,6.244v24.976C242.538,302.824,239.743,305.62,236.295,305.62z"/>
	<path style="fill:#E1E6E9;" d="M292.49,305.62h-24.976c-3.448,0-6.244-2.796-6.244-6.244V274.4c0-3.448,2.796-6.244,6.244-6.244
		h24.976c3.448,0,6.244,2.795,6.244,6.244v24.976C298.734,302.824,295.938,305.62,292.49,305.62z"/>
	<path style="fill:#E1E6E9;" d="M348.685,305.62h-24.976c-3.448,0-6.244-2.796-6.244-6.244V274.4c0-3.448,2.796-6.244,6.244-6.244
		h24.976c3.448,0,6.244,2.795,6.244,6.244v24.976C354.929,302.824,352.133,305.62,348.685,305.62z"/>
	<path style="fill:#E1E6E9;" d="M236.295,361.815h-24.976c-3.448,0-6.244-2.795-6.244-6.244v-24.976
		c0-3.448,2.796-6.244,6.244-6.244h24.976c3.448,0,6.244,2.796,6.244,6.244v24.976C242.538,359.02,239.743,361.815,236.295,361.815z
		"/>
	<path style="fill:#E1E6E9;" d="M292.49,361.815h-24.976c-3.448,0-6.244-2.795-6.244-6.244v-24.976c0-3.448,2.796-6.244,6.244-6.244
		h24.976c3.448,0,6.244,2.796,6.244,6.244v24.976C298.734,359.02,295.938,361.815,292.49,361.815z"/>
	<path style="fill:#E1E6E9;" d="M348.685,361.815h-24.976c-3.448,0-6.244-2.795-6.244-6.244v-24.976
		c0-3.448,2.796-6.244,6.244-6.244h24.976c3.448,0,6.244,2.796,6.244,6.244v24.976C354.929,359.02,352.133,361.815,348.685,361.815z
		"/>
</g>
<g>
	<path style="fill:#D5D6DB;" d="M205.044,243.2h37.463c0,3.434-2.747,6.244-6.244,6.244h-24.976
		C207.854,249.444,205.044,246.634,205.044,243.2z"/>
	<path style="fill:#D5D6DB;" d="M261.239,243.2h37.463c0,3.434-2.747,6.244-6.244,6.244h-24.976
		C264.049,249.444,261.239,246.634,261.239,243.2z"/>
	<path style="fill:#D5D6DB;" d="M354.898,243.2c0,3.434-2.747,6.244-6.244,6.244h-24.976c-3.434,0-6.244-2.81-6.244-6.244H354.898z"
		/>
	<path style="fill:#D5D6DB;" d="M205.044,299.376h37.463c0,3.434-2.747,6.244-6.244,6.244h-24.976
		C207.854,305.62,205.044,302.81,205.044,299.376z"/>
	<path style="fill:#D5D6DB;" d="M261.239,299.376h37.463c0,3.434-2.747,6.244-6.244,6.244h-24.976
		C264.049,305.62,261.239,302.81,261.239,299.376z"/>
	<path style="fill:#D5D6DB;" d="M354.898,299.376c0,3.434-2.747,6.244-6.244,6.244h-24.976c-3.434,0-6.244-2.81-6.244-6.244H354.898
		z"/>
	<path style="fill:#D5D6DB;" d="M205.044,355.571h37.463c0,3.434-2.747,6.244-6.244,6.244h-24.976
		C207.854,361.815,205.044,359.005,205.044,355.571z"/>
	<path style="fill:#D5D6DB;" d="M261.239,355.571h37.463c0,3.434-2.747,6.244-6.244,6.244h-24.976
		C264.049,361.815,261.239,359.005,261.239,355.571z"/>
	<path style="fill:#D5D6DB;" d="M354.898,355.571c0,3.434-2.747,6.244-6.244,6.244h-24.976c-3.434,0-6.244-2.81-6.244-6.244H354.898
		z"/>
</g>
<g>
</g>
<g>
</g>
<g>
</g>
<g>
</g>
<g>
</g>
<g>
</g>
<g>
</g>
<g>
</g>
<g>
</g>
<g>
</g>
<g>
</g>
<g>
</g>
<g>
</g>
<g>
</g>
<g>
</g>
</svg>
