<?xml version="1.0" encoding="iso-8859-1"?>
<!-- Generator: Adobe Illustrator 19.0.0, SVG Export Plug-In . SVG Version: 6.00 Build 0)  -->
<svg version="1.1" id="Capa_1" xmlns="http://www.w3.org/2000/svg" xmlns:xlink="http://www.w3.org/1999/xlink" x="0px" y="0px"
	 viewBox="0 0 468.293 468.293" style="enable-background:new 0 0 468.293 468.293;" xml:space="preserve">
<path style="fill:#3A556A;" d="M418.191,449.577v14.594c0,2.276,1.91,4.122,4.265,4.122c2.355,0,4.265-1.846,4.265-4.122v-14.594
	H418.191z"/>
<g>
	<polygon style="fill:#E1E6E9;" points="426.724,451.855 460.927,383.45 460.927,75.68 383.985,75.68 383.985,383.45 
		418.188,451.855 	"/>
	<rect x="383.988" y="53.698" style="fill:#E1E6E9;" width="76.944" height="21.985"/>
</g>
<path style="fill:#E56353;" d="M448.439,0h-51.967c-6.897,0-12.488,5.591-12.488,12.488v41.209h76.942V12.488
	C460.927,5.591,455.336,0,448.439,0z"/>
<path style="fill:#DC8744;" d="M460.936,75.673v307.385c0,1.044-1.319,1.594-1.923,0.77c-1.759-2.419-4.562-3.958-7.694-3.958
	c-3.792,0-7.035,2.199-8.629,5.496c-0.439,0.88-1.594,0.88-1.978,0c-0.715-1.538-1.813-2.802-3.187-3.737
	c-1.539-1.099-3.408-1.759-5.441-1.759c-3.792,0-7.035,2.199-8.629,5.496c-0.439,0.88-1.594,0.88-1.978,0
	c-1.594-3.297-4.891-5.496-8.629-5.496c-2.033,0-3.902,0.605-5.441,1.704c-1.319,0.935-2.418,2.253-3.188,3.792
	c-0.439,0.88-1.594,0.88-1.978,0c-1.594-3.297-4.891-5.496-8.629-5.496c-3.133,0-5.935,1.539-7.694,3.958
	c-0.604,0.825-1.924,0.274-1.924-0.77V75.673H460.936z"/>
<path style="fill:#F6C358;" d="M437.524,75.673v305.956c-1.539-1.099-3.408-1.759-5.441-1.759c-3.792,0-7.035,2.199-8.629,5.496
	c-0.439,0.88-1.594,0.88-1.978,0c-1.594-3.297-4.891-5.496-8.629-5.496c-2.033,0-3.902,0.605-5.441,1.704V75.673H437.524z"/>
<path style="fill:#2D93BA;" d="M27.426,0C16.342,0,7.356,8.986,7.356,20.07v401.394c0,11.083,8.985,20.07,20.07,20.07h47.736V0
	H27.426z"/>
<path style="fill:#64798A;" d="M308.402,0H75.162v441.533h233.239c11.084,0,20.07-8.985,20.07-20.07V20.07
	C328.471,8.986,319.486,0,308.402,0z"/>
<path style="fill:#2D93BA;" d="M328.471,122.567h-46.376V99.152c0-7.389-5.99-13.38-13.38-13.38H134.918
	c-7.39,0-13.38,5.991-13.38,13.38v23.415H75.162v20.07h46.376v23.415c0,7.39,5.99,13.38,13.38,13.38h133.798
	c7.389,0,13.38-5.99,13.38-13.38v-23.415h46.376V122.567z"/>
<path style="fill:#E1E6E9;" d="M134.918,153.563V111.64c0-6.897,5.591-12.488,12.488-12.488h108.822
	c6.897,0,12.488,5.591,12.488,12.488v41.923c0,6.897-5.591,12.488-12.488,12.488H147.406
	C140.509,166.051,134.918,160.46,134.918,153.563z"/>
<path style="fill:#D5D6DB;" d="M248.646,125.912h-93.659c-3.694,0-6.69,2.995-6.69,6.69c0,3.694,2.995,6.69,6.69,6.69h93.659
	c3.694,0,6.69-2.995,6.69-6.69C255.336,128.907,252.341,125.912,248.646,125.912z"/>
<g>
</g>
<g>
</g>
<g>
</g>
<g>
</g>
<g>
</g>
<g>
</g>
<g>
</g>
<g>
</g>
<g>
</g>
<g>
</g>
<g>
</g>
<g>
</g>
<g>
</g>
<g>
</g>
<g>
</g>
</svg>
