<?xml version="1.0" encoding="iso-8859-1"?>
<!-- Generator: Adobe Illustrator 19.0.0, SVG Export Plug-In . SVG Version: 6.00 Build 0)  -->
<svg version="1.1" id="Capa_1" xmlns="http://www.w3.org/2000/svg" xmlns:xlink="http://www.w3.org/1999/xlink" x="0px" y="0px"
	 viewBox="0 0 468.293 468.293" style="enable-background:new 0 0 468.293 468.293;" xml:space="preserve">
<path style="fill:#64798A;" d="M234.148,403.097c-80.71,0-146.374-88.078-146.374-196.34s65.664-196.34,146.374-196.34
	s146.374,88.078,146.374,196.34S314.858,403.097,234.148,403.097z M234.148,27.408c-71.339,0-129.382,80.455-129.382,179.349
	s58.044,179.349,129.382,179.349S363.53,305.65,363.53,206.757S305.487,27.408,234.148,27.408z"/>
<path style="fill:#E56353;" d="M434.298,186.009H33.995c-21.512,0-37.612,19.736-33.29,40.81l41.812,203.9
	c3.241,15.808,17.153,27.157,33.29,27.157h316.679c16.137,0,30.048-11.349,33.29-27.157l41.812-203.9
	C471.91,205.745,455.81,186.009,434.298,186.009z"/>
<path style="fill:#E1E6E9;" d="M76.9,395.37L49.023,259.437c-3.457-16.859,9.422-32.648,26.632-32.648H392.64
	c17.21,0,30.09,15.789,26.632,32.648L391.396,395.37c-2.594,12.646-13.723,21.725-26.632,21.725H103.533
	C90.623,417.095,79.494,408.016,76.9,395.37z"/>
<circle style="fill:#3A556A;" cx="234.146" cy="37.638" r="27.186"/>
<circle style="fill:#E1E6E9;" cx="234.146" cy="37.638" r="13.593"/>
<g>
	<path style="fill:#3A556A;" d="M157.994,346.422c-6.703,6.549-14.989,9.823-24.858,9.823c-9.869,0-18.155-3.274-24.858-9.823
		c-6.711-6.545-10.062-14.707-10.062-24.48c0-9.777,3.352-17.935,10.062-24.484c6.703-6.549,14.989-9.819,24.858-9.819
		c9.869,0,18.155,3.27,24.858,9.819c6.711,6.549,10.062,14.707,10.062,24.484C168.056,331.714,164.704,339.877,157.994,346.422z
		 M149.792,304.906c-4.525-4.68-10.078-7.02-16.657-7.02c-6.579,0-12.132,2.34-16.657,7.02c-4.518,4.684-6.78,10.36-6.78,17.036
		c0,6.676,2.263,12.352,6.78,17.032c4.525,4.684,10.078,7.023,16.657,7.023c6.579,0,12.132-2.34,16.657-7.023
		c4.518-4.68,6.78-10.356,6.78-17.032C156.573,315.266,154.31,309.59,149.792,304.906z"/>
	<path style="fill:#3A556A;" d="M226.985,295.041c4.618,3.857,6.927,9.804,6.927,17.839s-2.355,13.916-7.074,17.65
		c-4.711,3.734-11.939,5.599-21.677,5.599h-11.769v19.453h-11.197v-66.331h22.773C215.031,289.249,222.367,291.179,226.985,295.041z
		 M219.062,322.417c2.247-2.375,3.367-5.854,3.367-10.441c0-4.583-1.421-7.827-4.27-9.726c-2.85-1.896-7.305-2.846-13.383-2.846
		h-11.383v26.569h12.997C212.591,325.973,216.815,324.787,219.062,322.417z"/>
	<path style="fill:#3A556A;" d="M293.692,289.249v10.533H258.3v17.557h31.785v9.962H258.3v17.746h36.535v10.533h-47.732v-66.331
		H293.692z"/>
	<path style="fill:#3A556A;" d="M358.884,289.249h11.197v66.331h-12.147l-37.577-48.396v48.396h-11.197v-66.331h11.197
		l38.527,49.535V289.249z"/>
</g>
<g>
</g>
<g>
</g>
<g>
</g>
<g>
</g>
<g>
</g>
<g>
</g>
<g>
</g>
<g>
</g>
<g>
</g>
<g>
</g>
<g>
</g>
<g>
</g>
<g>
</g>
<g>
</g>
<g>
</g>
</svg>
