<?xml version="1.0" encoding="iso-8859-1"?>
<!-- Generator: Adobe Illustrator 19.0.0, SVG Export Plug-In . SVG Version: 6.00 Build 0)  -->
<svg version="1.1" id="Capa_1" xmlns="http://www.w3.org/2000/svg" xmlns:xlink="http://www.w3.org/1999/xlink" x="0px" y="0px"
	 viewBox="0 0 468.293 468.293" style="enable-background:new 0 0 468.293 468.293;" xml:space="preserve">
<path style="fill:#D5D6DB;" d="M249.301,167.5c-49.542,2.244-169.437,76.583-162.463,146.141h36.881
	c9.174-5.773,19.261-10.58,27.536-14.084c9.49-4.02,19.766-6.124,30.189-7.21c55.598-5.796,154.981-41.899,154.981-93.359
	C314.804,178.403,283.694,165.941,249.301,167.5z"/>
<path style="fill:#E56353;" d="M440.743,124.344L245.342,94.231L87.608,69.923c-30.969-4.773-61.372,14.565-74.119,44.855
	c-3.377,8.025,1.243,16.848,9.109,18.061l91.474,14.097c40.95,6.311,77.152,28.877,101.717,63.102
	c4.054,5.648,10.094,9.25,16.813,10.285l184.349,28.409c15.303,2.358,30.28-9.173,33.452-25.757l12.306-64.334
	C465.881,142.057,456.047,126.702,440.743,124.344z"/>
<ellipse style="fill:#27A2DB;" cx="382.417" cy="182.804" rx="38.656" ry="38.656"/>
<ellipse style="fill:#EBF0F3;" cx="382.417" cy="182.804" rx="19.344" ry="19.344"/>
<path style="fill:#64798A;" d="M468.293,363.812H0v-6.05c0-26.586,21.552-48.138,48.138-48.138h372.016
	c26.586,0,48.138,21.552,48.138,48.138V363.812z"/>
<rect y="363.813" style="fill:#D5D6DB;" width="468.293" height="35.278"/>
<g>
</g>
<g>
</g>
<g>
</g>
<g>
</g>
<g>
</g>
<g>
</g>
<g>
</g>
<g>
</g>
<g>
</g>
<g>
</g>
<g>
</g>
<g>
</g>
<g>
</g>
<g>
</g>
<g>
</g>
</svg>
