<?xml version="1.0" encoding="iso-8859-1"?>
<!-- Generator: Adobe Illustrator 19.0.0, SVG Export Plug-In . SVG Version: 6.00 Build 0)  -->
<svg version="1.1" id="Capa_1" xmlns="http://www.w3.org/2000/svg" xmlns:xlink="http://www.w3.org/1999/xlink" x="0px" y="0px"
	 viewBox="0 0 468.293 468.293" style="enable-background:new 0 0 468.293 468.293;" xml:space="preserve">
<path style="fill:#64798A;" d="M352.78,468.293H115.512c-13.794,0-24.976-11.182-24.976-24.976V24.976
	C90.537,11.182,101.719,0,115.512,0H352.78c13.794,0,24.976,11.182,24.976,24.976v418.341
	C377.756,457.111,366.574,468.293,352.78,468.293z"/>
<rect x="90.537" y="67.428" style="fill:#E1E6E9;" width="287.22" height="322.822"/>
<path style="fill:#2F4859;" d="M258.23,444.299h-48.167c-7.389,0-13.38-5.99-13.38-13.38v0c0-7.389,5.99-13.38,13.38-13.38h48.167
	c7.389,0,13.38,5.99,13.38,13.38v0C271.61,438.309,265.619,444.299,258.23,444.299z"/>
<g>
	<path style="fill:#3A556A;" d="M258.23,417.54l-61.547,13.38c0,7.389,5.99,13.38,13.38,13.38h48.167
		c7.39,0,13.38-5.991,13.38-13.38C271.61,423.53,265.62,417.54,258.23,417.54z"/>
	<path style="fill:#3A556A;" d="M265.366,33.311h-62.439c-3.448,0-6.244-2.795-6.244-6.244v0c0-3.448,2.795-6.244,6.244-6.244
		h62.439c3.448,0,6.244,2.795,6.244,6.244v0C271.61,30.516,268.814,33.311,265.366,33.311z"/>
	<path style="fill:#3A556A;" d="M302.22,33.311h-12.488c-3.448,0-6.244-2.795-6.244-6.244v0c0-3.448,2.796-6.244,6.244-6.244h12.488
		c3.448,0,6.244,2.795,6.244,6.244v0C308.464,30.516,305.668,33.311,302.22,33.311z"/>
	<path style="fill:#3A556A;" d="M178.561,33.311h-12.488c-3.448,0-6.244-2.795-6.244-6.244v0c0-3.448,2.795-6.244,6.244-6.244
		h12.488c3.448,0,6.244,2.795,6.244,6.244v0C184.805,30.516,182.009,33.311,178.561,33.311z"/>
</g>
<g>
	<path style="fill:#E56353;" d="M189.825,129.955l1.517-2.628c0.813-1.408,0.813-3.142,0-4.55l-1.517-2.628
		c-0.399-0.692-0.61-1.476-0.61-2.275v-3.036c0-1.625-0.867-3.127-2.275-3.94l-2.629-1.518c-0.692-0.399-1.266-0.974-1.665-1.665
		l-1.517-2.628c-0.813-1.408-2.315-2.275-3.94-2.275h-3.035c-0.799,0-1.583-0.21-2.275-0.61l-2.629-1.518
		c-1.408-0.813-3.142-0.813-4.55,0l-2.629,1.518c-0.692,0.399-1.476,0.61-2.275,0.61h-3.035c-1.625,0-3.128,0.867-3.94,2.275
		l-1.517,2.628c-0.399,0.692-0.974,1.266-1.666,1.665l-2.628,1.517c-1.408,0.813-2.275,2.315-2.275,3.94v3.035
		c0,0.799-0.21,1.583-0.609,2.275l-1.518,2.629c-0.813,1.408-0.812,3.142,0,4.549l1.518,2.63c0.399,0.692,0.609,1.476,0.609,2.275
		v3.034c0,1.625,0.867,3.127,2.275,3.94l2.627,1.517c0.692,0.399,1.266,0.974,1.665,1.665l1.518,2.63
		c0.813,1.408,2.315,2.275,3.94,2.275h3.037c0.799,0,1.583,0.21,2.275,0.609l2.628,1.517c1.408,0.813,3.142,0.813,4.55,0
		l2.627-1.517c0.692-0.399,1.476-0.61,2.275-0.61h3.036c1.626,0,3.128-0.867,3.94-2.275l1.517-2.628
		c0.399-0.692,0.974-1.266,1.666-1.666l2.628-1.517c1.408-0.813,2.275-2.315,2.275-3.94v-3.035
		C189.215,131.431,189.425,130.646,189.825,129.955z"/>
	<path style="fill:#E56353;" d="M189.825,199.146l1.517-2.628c0.813-1.408,0.813-3.142,0-4.55l-1.517-2.628
		c-0.399-0.692-0.61-1.476-0.61-2.275v-3.036c0-1.625-0.867-3.127-2.275-3.94l-2.629-1.518c-0.692-0.399-1.266-0.974-1.665-1.665
		l-1.517-2.628c-0.813-1.408-2.315-2.275-3.94-2.275h-3.035c-0.799,0-1.583-0.21-2.275-0.61l-2.629-1.518
		c-1.408-0.813-3.142-0.813-4.55,0l-2.629,1.518c-0.692,0.399-1.476,0.61-2.275,0.61h-3.035c-1.625,0-3.128,0.867-3.94,2.275
		l-1.517,2.628c-0.399,0.692-0.974,1.266-1.666,1.665l-2.628,1.517c-1.408,0.813-2.275,2.315-2.275,3.94v3.035
		c0,0.799-0.21,1.583-0.609,2.275l-1.518,2.629c-0.813,1.408-0.812,3.142,0,4.549l1.518,2.63c0.399,0.692,0.609,1.476,0.609,2.275
		v3.034c0,1.625,0.867,3.127,2.275,3.94l2.627,1.517c0.692,0.399,1.266,0.974,1.665,1.665l1.518,2.63
		c0.813,1.408,2.315,2.275,3.94,2.275h3.037c0.799,0,1.583,0.21,2.275,0.609l2.628,1.517c1.408,0.813,3.142,0.813,4.55,0
		l2.627-1.517c0.692-0.399,1.476-0.61,2.275-0.61h3.036c1.626,0,3.128-0.867,3.94-2.275l1.517-2.628
		c0.399-0.692,0.974-1.266,1.666-1.666l2.628-1.517c1.408-0.813,2.275-2.315,2.275-3.94v-3.035
		C189.215,200.622,189.425,199.838,189.825,199.146z"/>
	<path style="fill:#E56353;" d="M189.825,268.338l1.517-2.628c0.813-1.408,0.813-3.142,0-4.55l-1.517-2.628
		c-0.399-0.692-0.61-1.476-0.61-2.275v-3.036c0-1.625-0.867-3.127-2.275-3.94l-2.629-1.518c-0.692-0.399-1.266-0.974-1.665-1.665
		l-1.517-2.628c-0.813-1.408-2.315-2.275-3.94-2.275h-3.035c-0.799,0-1.583-0.21-2.275-0.61l-2.629-1.518
		c-1.408-0.813-3.142-0.813-4.55,0l-2.629,1.518c-0.692,0.399-1.476,0.61-2.275,0.61h-3.035c-1.625,0-3.128,0.867-3.94,2.275
		l-1.517,2.628c-0.399,0.692-0.974,1.266-1.666,1.665l-2.628,1.517c-1.408,0.813-2.275,2.315-2.275,3.94v3.035
		c0,0.799-0.21,1.583-0.609,2.275l-1.518,2.629c-0.813,1.408-0.812,3.142,0,4.549l1.518,2.63c0.399,0.692,0.609,1.476,0.609,2.275
		v3.034c0,1.625,0.867,3.127,2.275,3.94l2.627,1.517c0.692,0.399,1.266,0.974,1.665,1.665l1.518,2.63
		c0.813,1.408,2.315,2.275,3.94,2.275h3.037c0.799,0,1.583,0.21,2.275,0.609l2.628,1.517c1.408,0.813,3.142,0.813,4.55,0
		l2.627-1.517c0.692-0.399,1.476-0.61,2.275-0.61h3.036c1.626,0,3.128-0.867,3.94-2.275l1.517-2.628
		c0.399-0.692,0.974-1.266,1.666-1.666l2.628-1.517c1.408-0.813,2.275-2.315,2.275-3.94v-3.035
		C189.215,269.814,189.425,269.029,189.825,268.338z"/>
	<path style="fill:#E56353;" d="M189.825,337.529l1.517-2.628c0.813-1.408,0.813-3.142,0-4.55l-1.517-2.628
		c-0.399-0.692-0.61-1.476-0.61-2.275v-3.036c0-1.625-0.867-3.127-2.275-3.94l-2.629-1.518c-0.692-0.399-1.266-0.974-1.665-1.665
		l-1.517-2.628c-0.813-1.408-2.315-2.275-3.94-2.275h-3.035c-0.799,0-1.583-0.21-2.275-0.61l-2.629-1.518
		c-1.408-0.813-3.142-0.813-4.55,0l-2.629,1.518c-0.692,0.399-1.476,0.61-2.275,0.61h-3.035c-1.625,0-3.128,0.867-3.94,2.275
		l-1.517,2.628c-0.399,0.692-0.974,1.266-1.666,1.665l-2.628,1.517c-1.408,0.813-2.275,2.315-2.275,3.94v3.035
		c0,0.799-0.21,1.583-0.609,2.275l-1.518,2.629c-0.813,1.408-0.812,3.142,0,4.549l1.518,2.63c0.399,0.692,0.609,1.476,0.609,2.275
		v3.034c0,1.625,0.867,3.127,2.275,3.94l2.627,1.517c0.692,0.399,1.266,0.974,1.665,1.665l1.518,2.63
		c0.813,1.408,2.315,2.275,3.94,2.275h3.037c0.799,0,1.583,0.21,2.275,0.609l2.628,1.517c1.408,0.813,3.142,0.813,4.55,0
		l2.627-1.517c0.692-0.399,1.476-0.61,2.275-0.61h3.036c1.626,0,3.128-0.867,3.94-2.275l1.517-2.628
		c0.399-0.692,0.974-1.266,1.666-1.666l2.628-1.517c1.408-0.813,2.275-2.315,2.275-3.94v-3.035
		C189.215,339.005,189.425,338.221,189.825,337.529z"/>
	<path style="fill:#E56353;" d="M320.048,131.296h-99.902c-3.448,0-6.244-2.795-6.244-6.244v0c0-3.448,2.795-6.244,6.244-6.244
		h99.902c3.448,0,6.244,2.795,6.244,6.244v0C326.292,128.5,323.497,131.296,320.048,131.296z"/>
	<path style="fill:#E56353;" d="M320.048,200.487h-99.902c-3.448,0-6.244-2.795-6.244-6.244v0c0-3.448,2.795-6.244,6.244-6.244
		h99.902c3.448,0,6.244,2.795,6.244,6.244v0C326.292,197.692,323.497,200.487,320.048,200.487z"/>
	<path style="fill:#E56353;" d="M320.048,269.679h-99.902c-3.448,0-6.244-2.795-6.244-6.244v0c0-3.448,2.795-6.244,6.244-6.244
		h99.902c3.448,0,6.244,2.796,6.244,6.244v0C326.292,266.883,323.497,269.679,320.048,269.679z"/>
	<path style="fill:#E56353;" d="M320.048,338.87h-99.902c-3.448,0-6.244-2.795-6.244-6.244v0c0-3.448,2.795-6.244,6.244-6.244
		h99.902c3.448,0,6.244,2.796,6.244,6.244v0C326.292,336.075,323.497,338.87,320.048,338.87z"/>
</g>
<g>
</g>
<g>
</g>
<g>
</g>
<g>
</g>
<g>
</g>
<g>
</g>
<g>
</g>
<g>
</g>
<g>
</g>
<g>
</g>
<g>
</g>
<g>
</g>
<g>
</g>
<g>
</g>
<g>
</g>
</svg>
