<?xml version="1.0" encoding="iso-8859-1"?>
<!-- Generator: Adobe Illustrator 19.0.0, SVG Export Plug-In . SVG Version: 6.00 Build 0)  -->
<svg version="1.1" id="Capa_1" xmlns="http://www.w3.org/2000/svg" xmlns:xlink="http://www.w3.org/1999/xlink" x="0px" y="0px"
	 viewBox="0 0 468.293 468.293" style="enable-background:new 0 0 468.293 468.293;" xml:space="preserve">
<polygon style="fill:#44C4A1;" points="449.237,414.205 407.503,430.257 376.839,399.594 405.732,370.7 "/>
<polygon style="fill:#3EA69B;" points="407.503,430.257 449.237,414.206 442.816,407.785 401.082,423.836 "/>
<polygon style="fill:#31978C;" points="418.777,468.293 275.914,468.293 275.914,449.303 415.253,449.303 455.341,433.88 
	462.153,451.608 "/>
<path style="fill:#F6C358;" d="M358.626,241.988l-110.5,110.501L10.754,85.581c-6.421-7.192-6.1-18.043,0.705-24.849L66.871,5.32
	c6.805-6.806,17.657-7.126,24.849-0.706L358.626,241.988z"/>
<path style="fill:#FCD462;" d="M358.626,241.988l-55.282,55.282L65.972,30.362c-6.421-7.191-6.037-18.107,0.705-24.849l0.193-0.193
	c6.806-6.806,17.657-7.126,24.849-0.706L358.626,241.988z"/>
<path style="fill:#3A556A;" d="M352.026,242.389l-51.983,51.984l24.666,29.341l54.32-54.321c3.546-3.546,3.546-9.296,0-12.841
	l-14.162-14.162C361.32,238.842,355.571,238.843,352.026,242.389z"/>
<path style="fill:#64798A;" d="M248.528,345.887c-3.546,3.546-3.547,9.295,0,12.841l14.162,14.162c3.546,3.546,9.296,3.546,12.841,0
	l49.177-49.178l-24.666-29.341L248.528,345.887z"/>
<path style="fill:#3A556A;" d="M378.646,269.776l-51.365,51.365l-51.366,51.367c0,0,67.069-4.536,100.729,31.594
	c3.486,3.742,9.355,3.857,12.971,0.24l10.433-10.433l10.431-10.432c3.616-3.616,3.502-9.485-0.24-12.971
	C374.11,336.845,378.646,269.776,378.646,269.776z"/>
<g>
</g>
<g>
</g>
<g>
</g>
<g>
</g>
<g>
</g>
<g>
</g>
<g>
</g>
<g>
</g>
<g>
</g>
<g>
</g>
<g>
</g>
<g>
</g>
<g>
</g>
<g>
</g>
<g>
</g>
</svg>
