<?xml version="1.0" encoding="iso-8859-1"?>
<!-- Generator: Adobe Illustrator 19.0.0, SVG Export Plug-In . SVG Version: 6.00 Build 0)  -->
<svg version="1.1" id="Capa_1" xmlns="http://www.w3.org/2000/svg" xmlns:xlink="http://www.w3.org/1999/xlink" x="0px" y="0px"
	 viewBox="0 0 468.342 468.342" style="enable-background:new 0 0 468.342 468.342;" xml:space="preserve">
<rect x="135.88" y="284.954" transform="matrix(-0.7071 -0.7071 0.7071 -0.7071 41.2921 645.2371)" style="fill:#D5D6DB;" width="36.801" height="58.224"/>
<path style="fill:#3A556A;" d="M78.771,454.673c-17.837,18.052-47.166,18.323-65.272,0.217c-18.161-18.162-17.89-47.49,0.217-65.272
	c0.488-0.488,1.084-1.084,1.68-1.573l92.157-74.367c3.048-2.499,7.494-2.279,10.281,0.508l36.316,36.316
	c2.786,2.786,3.007,7.23,0.511,10.278l-74.319,92.211C79.855,453.589,79.313,454.131,78.771,454.673z"/>
<ellipse transform="matrix(-0.9569 -0.2905 0.2905 -0.9569 523.5142 427.431)" style="fill:#64798A;" cx="293.485" cy="174.856" rx="174.804" ry="174.81"/>
<ellipse style="fill:#E1E6E9;" cx="293.485" cy="174.856" rx="128.805" ry="128.805"/>
<g>
	<ellipse style="fill:#EBF0F3;" cx="300.83" cy="94.358" rx="46.005" ry="46.005"/>
	<ellipse style="fill:#EBF0F3;" cx="271.452" cy="267.117" rx="31.219" ry="31.219"/>
</g>
<path style="fill:#64798A;" d="M78.771,454.673c-17.837,18.052-47.166,18.323-65.272,0.217c-18.161-18.162-17.89-47.49,0.217-65.272
	L78.771,454.673z"/>
<g>
</g>
<g>
</g>
<g>
</g>
<g>
</g>
<g>
</g>
<g>
</g>
<g>
</g>
<g>
</g>
<g>
</g>
<g>
</g>
<g>
</g>
<g>
</g>
<g>
</g>
<g>
</g>
<g>
</g>
</svg>
