<?xml version="1.0" encoding="iso-8859-1"?>
<!-- Generator: Adobe Illustrator 19.0.0, SVG Export Plug-In . SVG Version: 6.00 Build 0)  -->
<svg version="1.1" id="Capa_1" xmlns="http://www.w3.org/2000/svg" xmlns:xlink="http://www.w3.org/1999/xlink" x="0px" y="0px"
	 viewBox="0 0 468.293 468.293" style="enable-background:new 0 0 468.293 468.293;" xml:space="preserve">
<path style="fill:#44C4A1;" d="M379.094,371.685H11.15c-6.158,0-11.15-4.992-11.15-11.15V57.632c0-6.158,4.992-11.15,11.15-11.15
	h67.948c3.225,0,6.292,1.396,8.409,3.828l22.456,25.793c2.118,2.432,5.184,3.828,8.409,3.828h260.722
	c6.158,0,11.15,4.992,11.15,11.15v269.454C390.244,366.694,385.252,371.685,379.094,371.685z"/>
<path style="fill:#3EA69B;" d="M377.756,371.685H12.488C5.591,371.685,0,366.094,0,359.198V162.12h390.244v197.078
	C390.244,366.094,384.653,371.685,377.756,371.685z"/>
<path style="fill:#D5D6DB;" d="M390.243,188.824c-33.651,0-61.025,27.376-61.025,61.025v32.668h122.049v-32.668
	C451.268,216.2,423.894,188.824,390.243,188.824z M434.543,276.863h-88.6v-27.014c0-24.428,19.872-44.3,44.3-44.3
	c24.428,0,44.3,19.872,44.3,44.3V276.863z"/>
<path style="fill:#E56353;" d="M390.244,421.81L390.244,421.81c-43.105,0-78.049-34.944-78.049-78.049v-55.749
	c0-6.158,4.992-11.15,11.15-11.15h133.798c6.158,0,11.15,4.992,11.15,11.15v55.749C468.293,386.867,433.349,421.81,390.244,421.81z"
	/>
<path style="fill:#EBF0F3;" d="M404.181,340.573c0-8.918-8.375-15.879-17.688-13.448c-4.605,1.202-8.382,4.931-9.645,9.52
	c-1.709,6.21,0.792,11.954,5.237,15.183l-1.76,16.776c-0.618,5.888,3.999,11.014,9.919,11.014l0,0c5.92,0,10.537-5.127,9.919-11.014
	l-1.76-16.776C401.89,349.295,404.181,345.213,404.181,340.573z"/>
<g>
</g>
<g>
</g>
<g>
</g>
<g>
</g>
<g>
</g>
<g>
</g>
<g>
</g>
<g>
</g>
<g>
</g>
<g>
</g>
<g>
</g>
<g>
</g>
<g>
</g>
<g>
</g>
<g>
</g>
</svg>
