<?xml version="1.0" encoding="iso-8859-1"?>
<!-- Generator: Adobe Illustrator 19.0.0, SVG Export Plug-In . SVG Version: 6.00 Build 0)  -->
<svg version="1.1" id="Capa_1" xmlns="http://www.w3.org/2000/svg" xmlns:xlink="http://www.w3.org/1999/xlink" x="0px" y="0px"
	 viewBox="0 0 488.272 488.272" style="enable-background:new 0 0 488.272 488.272;" xml:space="preserve">
<path style="fill:#DC8744;" d="M389.962,488.272H98.311c-10.345,0-18.732-8.386-18.732-18.732V38.711
	c0-10.345,8.386-18.732,18.732-18.732h291.651c10.345,0,18.732,8.386,18.732,18.732v430.829
	C408.693,479.886,400.307,488.272,389.962,488.272z"/>
<rect x="110.804" y="51.2" style="fill:#EBF0F3;" width="266.671" height="405.854"/>
<path style="fill:#F6C358;" d="M137.99,12.488v49.951c0,6.898,5.591,12.488,12.488,12.488V0C143.581,0,137.99,5.591,137.99,12.488z"
	/>
<path style="fill:#FCD462;" d="M150.478,0L150.478,0l-0.001,74.927h0.001c6.897,0,12.487-5.59,12.487-12.488V12.488
	C162.965,5.591,157.375,0,150.478,0z"/>
<path style="fill:#F6C358;" d="M200.429,12.488v49.951c0,6.898,5.591,12.488,12.488,12.488V0C206.02,0,200.429,5.591,200.429,12.488
	z"/>
<path style="fill:#FCD462;" d="M212.917,0L212.917,0l-0.001,74.927h0.001c6.897,0,12.487-5.59,12.487-12.488V12.488
	C225.404,5.591,219.814,0,212.917,0z"/>
<path style="fill:#F6C358;" d="M262.868,12.488v49.951c0,6.898,5.591,12.488,12.488,12.488V0
	C268.459,0,262.868,5.591,262.868,12.488z"/>
<path style="fill:#FCD462;" d="M275.356,0L275.356,0l-0.001,74.927h0.001c6.897,0,12.487-5.59,12.487-12.488V12.488
	C287.843,5.591,282.253,0,275.356,0z"/>
<path style="fill:#F6C358;" d="M325.307,12.488v49.951c0,6.898,5.591,12.488,12.488,12.488V0
	C330.898,0,325.307,5.591,325.307,12.488z"/>
<path style="fill:#FCD462;" d="M337.795,0L337.795,0l-0.001,74.927h0.001c6.897,0,12.487-5.59,12.487-12.488V12.488
	C350.282,5.591,344.692,0,337.795,0z"/>
<g>
	<path style="fill:#D5D6DB;" d="M340.916,144.396H147.355c-5.171,0-9.366,4.195-9.366,9.366s4.195,9.366,9.366,9.366h193.561
		c5.171,0,9.366-4.195,9.366-9.366S346.087,144.396,340.916,144.396z"/>
	<path style="fill:#D5D6DB;" d="M278.477,200.51H147.355c-5.171,0-9.366,4.195-9.366,9.366s4.195,9.366,9.366,9.366h131.122
		c5.171,0,9.366-4.195,9.366-9.366S283.648,200.51,278.477,200.51z"/>
	<path style="fill:#D5D6DB;" d="M340.916,256.623H147.355c-5.171,0-9.366,4.195-9.366,9.366c0,5.171,4.195,9.366,9.366,9.366
		h193.561c5.171,0,9.366-4.195,9.366-9.366C350.282,260.819,346.087,256.623,340.916,256.623z"/>
	<path style="fill:#D5D6DB;" d="M278.477,312.737H147.355c-5.171,0-9.366,4.195-9.366,9.366c0,5.171,4.195,9.366,9.366,9.366
		h131.122c5.171,0,9.366-4.195,9.366-9.366C287.843,316.932,283.648,312.737,278.477,312.737z"/>
	<path style="fill:#D5D6DB;" d="M340.916,368.851H147.355c-5.171,0-9.366,4.195-9.366,9.366c0,5.171,4.195,9.366,9.366,9.366
		h193.561c5.171,0,9.366-4.195,9.366-9.366C350.282,373.046,346.087,368.851,340.916,368.851z"/>
</g>
<g>
</g>
<g>
</g>
<g>
</g>
<g>
</g>
<g>
</g>
<g>
</g>
<g>
</g>
<g>
</g>
<g>
</g>
<g>
</g>
<g>
</g>
<g>
</g>
<g>
</g>
<g>
</g>
<g>
</g>
</svg>
