<?xml version="1.0" encoding="iso-8859-1"?>
<!-- Generator: Adobe Illustrator 19.0.0, SVG Export Plug-In . SVG Version: 6.00 Build 0)  -->
<svg version="1.1" id="Capa_1" xmlns="http://www.w3.org/2000/svg" xmlns:xlink="http://www.w3.org/1999/xlink" x="0px" y="0px"
	 viewBox="0 0 468.293 468.293" style="enable-background:new 0 0 468.293 468.293;" xml:space="preserve">
<path style="fill:#DC8744;" d="M468.293,218.796c0-18.618-12.026-33.711-26.861-33.711H264.607l22.574-70.724
	c7.953-24.911,4.527-51.75-11.278-73.875c-26.72-37.411-62.282-24.989-62.282-24.989v64.254c0,10.36-2.601,20.603-7.635,30.064
	l-42.039,84.847c-4.583,9.251-14.015,15.104-24.339,15.104v222.735l46.633,22.273h205.303c14.836,0,26.861-15.093,26.861-33.711
	s-12.026-33.711-26.861-33.711h15.351c14.836,0,26.861-15.093,26.861-33.711s-12.026-33.711-26.861-33.711h11.511
	c14.836,0,26.864-15.093,26.864-33.711c0-18.618-12.028-33.711-26.864-33.711h23.026
	C456.267,252.507,468.293,237.414,468.293,218.796z"/>
<path style="fill:#64798A;" d="M127.173,451.004H12.488C5.591,451.004,0,445.413,0,438.516v-243.15
	c0-6.897,5.591-12.488,12.488-12.488h114.685c6.897,0,12.488,5.591,12.488,12.488v243.15
	C139.661,445.413,134.07,451.004,127.173,451.004z"/>
<circle style="fill:#E1E6E9;" cx="69.832" cy="404.418" r="24.077"/>
<circle style="fill:#64798A;" cx="69.832" cy="404.418" r="14.448"/>
<g>
</g>
<g>
</g>
<g>
</g>
<g>
</g>
<g>
</g>
<g>
</g>
<g>
</g>
<g>
</g>
<g>
</g>
<g>
</g>
<g>
</g>
<g>
</g>
<g>
</g>
<g>
</g>
<g>
</g>
</svg>
