<?xml version="1.0" encoding="iso-8859-1"?>
<!-- Generator: Adobe Illustrator 19.0.0, SVG Export Plug-In . SVG Version: 6.00 Build 0)  -->
<svg version="1.1" id="Capa_1" xmlns="http://www.w3.org/2000/svg" xmlns:xlink="http://www.w3.org/1999/xlink" x="0px" y="0px"
	 viewBox="0 0 494.356 494.356" style="enable-background:new 0 0 494.356 494.356;" xml:space="preserve">
<polyline style="fill:#D5D6DB;" points="462.333,170.937 462.333,401.232 246.965,494.356 246.965,252.735 462.333,170.937 "/>
<polyline style="fill:#E1E6E9;" points="247.391,494.356 247.391,264.061 32.023,170.937 32.023,412.557 247.391,494.356 "/>
<polygon style="fill:#EBF0F3;" points="247.178,284.158 13.032,186.408 13.032,93.204 247.178,188.681 "/>
<polygon style="fill:#D5D6DB;" points="481.324,93.204 247.178,0 13.032,93.204 247.178,188.681 "/>
<polygon style="fill:#E1E6E9;" points="481.324,93.204 247.178,188.681 247.178,284.158 481.324,188.681 "/>
<polygon style="fill:#EBF0F3;" points="380.483,436.624 328.756,460.209 328.756,155.416 380.483,134.324 "/>
<polyline style="fill:#E1E6E9;" points="380.483,134.324 166.592,32.078 111.33,54.076 328.756,155.416 "/>
<g>
</g>
<g>
</g>
<g>
</g>
<g>
</g>
<g>
</g>
<g>
</g>
<g>
</g>
<g>
</g>
<g>
</g>
<g>
</g>
<g>
</g>
<g>
</g>
<g>
</g>
<g>
</g>
<g>
</g>
</svg>
