<?xml version="1.0" encoding="iso-8859-1"?>
<!-- Generator: Adobe Illustrator 19.0.0, SVG Export Plug-In . SVG Version: 6.00 Build 0)  -->
<svg version="1.1" id="Capa_1" xmlns="http://www.w3.org/2000/svg" xmlns:xlink="http://www.w3.org/1999/xlink" x="0px" y="0px"
	 viewBox="0 0 468.293 468.293" style="enable-background:new 0 0 468.293 468.293;" xml:space="preserve">
<g>
	<path style="fill:#44C4A1;" d="M125.358,468.293H18.732C8.386,468.293,0,459.906,0,449.561V18.732C0,8.386,8.386,0,18.732,0
		h106.627c10.345,0,18.732,8.386,18.732,18.732v430.829C144.09,459.906,135.704,468.293,125.358,468.293z"/>
	<path style="fill:#44C4A1;" d="M287.46,468.293H180.833c-10.345,0-18.732-8.386-18.732-18.732V18.732
		C162.101,8.386,170.488,0,180.833,0H287.46c10.345,0,18.732,8.386,18.732,18.732v430.829
		C306.191,459.906,297.805,468.293,287.46,468.293z"/>
	<path style="fill:#44C4A1;" d="M449.561,468.293H342.934c-10.345,0-18.732-8.386-18.732-18.732V18.732
		C324.203,8.386,332.589,0,342.934,0h106.627c10.345,0,18.732,8.386,18.732,18.732v430.829
		C468.293,459.906,459.906,468.293,449.561,468.293z"/>
</g>
<path style="fill:#E1E6E9;" d="M122.007,57.522v167.274c0,6.93-5.619,12.488-12.488,12.488H34.592
	c-6.931,0-12.488-5.558-12.488-12.488V57.522c0-6.931,5.557-12.488,12.488-12.488h74.927
	C116.388,45.034,122.007,50.591,122.007,57.522z"/>
<g>
	<path style="fill:#D5D6DB;" d="M109.519,45.034H34.592c-5.094,0-9.425,3.014-11.373,7.358c1.566-0.703,3.293-1.114,5.13-1.114
		h74.927c6.869,0,12.488,5.556,12.488,12.488V231.04c0,1.831-0.413,3.555-1.117,5.117c4.323-1.954,7.361-6.277,7.361-11.361V57.522
		C122.007,50.591,116.388,45.034,109.519,45.034z"/>
	<circle style="fill:#D5D6DB;" cx="72.055" cy="376.426" r="46.829"/>
</g>
<path style="fill:#2F4859;" d="M106,376.462c0,18.731-15.186,33.917-33.985,33.917c-10.57,0-20.003-4.817-26.224-12.309
	c0,0-0.067,0-0.067-0.067c-4.817-5.888-7.694-13.38-7.694-21.541c0-18.799,15.253-33.985,33.985-33.985
	c15.989,0,29.302,10.971,32.914,25.757c0,0,0,0.066,0.067,0.066C105.665,370.909,106,373.652,106,376.462z"/>
<path style="fill:#3A556A;" d="M106,376.462c0,18.731-15.186,33.917-33.985,33.917c-10.57,0-20.003-4.817-26.224-12.309
	c0,0-0.067,0-0.067-0.067c-0.669-2.609-1.004-5.352-1.004-8.161c0-18.799,15.253-33.985,33.985-33.985
	c10.57,0,20.003,4.817,26.224,12.377c0,0,0,0.066,0.067,0.066C105.665,370.909,106,373.652,106,376.462z"/>
<path style="fill:#27A2DB;" d="M122.007,200.133v24.664c0,6.93-5.619,12.488-12.488,12.488H34.592
	c-6.931,0-12.488-5.558-12.488-12.488v-24.664H122.007z"/>
<g>
	<path style="fill:#64798A;" d="M103.275,88.065H40.836c-3.448,0-6.244-2.795-6.244-6.244v0c0-3.448,2.795-6.244,6.244-6.244h62.439
		c3.448,0,6.244,2.795,6.244,6.244v0C109.519,85.27,106.724,88.065,103.275,88.065z"/>
	<path style="fill:#64798A;" d="M103.275,115.443H40.836c-3.448,0-6.244-2.795-6.244-6.244v0c0-3.448,2.795-6.244,6.244-6.244
		h62.439c3.448,0,6.244,2.795,6.244,6.244v0C109.519,112.648,106.724,115.443,103.275,115.443z"/>
	<path style="fill:#64798A;" d="M103.275,142.822H40.836c-3.448,0-6.244-2.795-6.244-6.244v0c0-3.448,2.795-6.244,6.244-6.244
		h62.439c3.448,0,6.244,2.795,6.244,6.244v0C109.519,140.026,106.724,142.822,103.275,142.822z"/>
	<path style="fill:#64798A;" d="M103.275,170.2H40.836c-3.448,0-6.244-2.795-6.244-6.244v0c0-3.448,2.795-6.244,6.244-6.244h62.439
		c3.448,0,6.244,2.795,6.244,6.244v0C109.519,167.404,106.724,170.2,103.275,170.2z"/>
</g>
<path style="fill:#E1E6E9;" d="M284.098,57.522v167.274c0,6.93-5.619,12.488-12.488,12.488h-74.927
	c-6.931,0-12.488-5.558-12.488-12.488V57.522c0-6.931,5.557-12.488,12.488-12.488h74.927
	C278.478,45.034,284.098,50.591,284.098,57.522z"/>
<g>
	<path style="fill:#D5D6DB;" d="M271.61,45.034h-74.927c-5.094,0-9.425,3.014-11.373,7.358c1.566-0.703,3.293-1.114,5.13-1.114
		h74.927c6.869,0,12.488,5.556,12.488,12.488V231.04c0,1.831-0.413,3.555-1.117,5.117c4.323-1.954,7.361-6.277,7.361-11.361V57.522
		C284.098,50.591,278.478,45.034,271.61,45.034z"/>
	<circle style="fill:#D5D6DB;" cx="234.134" cy="376.426" r="46.829"/>
</g>
<path style="fill:#2F4859;" d="M268.091,376.462c0,18.731-15.186,33.917-33.985,33.917c-10.57,0-20.003-4.817-26.224-12.309
	c0,0-0.067,0-0.067-0.067c-4.817-5.888-7.694-13.38-7.694-21.541c0-18.799,15.253-33.985,33.985-33.985
	c15.989,0,29.302,10.971,32.914,25.757c0,0,0,0.066,0.067,0.066C267.756,370.909,268.091,373.652,268.091,376.462z"/>
<path style="fill:#3A556A;" d="M268.091,376.462c0,18.731-15.186,33.917-33.985,33.917c-10.57,0-20.003-4.817-26.224-12.309
	c0,0-0.067,0-0.067-0.067c-0.669-2.609-1.004-5.352-1.004-8.161c0-18.799,15.253-33.985,33.985-33.985
	c10.57,0,20.003,4.817,26.224,12.377c0,0,0,0.066,0.067,0.066C267.756,370.909,268.091,373.652,268.091,376.462z"/>
<path style="fill:#27A2DB;" d="M284.098,200.133v24.664c0,6.93-5.619,12.488-12.488,12.488h-74.927
	c-6.931,0-12.488-5.558-12.488-12.488v-24.664H284.098z"/>
<g>
	<path style="fill:#64798A;" d="M265.366,88.065h-62.439c-3.448,0-6.244-2.795-6.244-6.244v0c0-3.448,2.795-6.244,6.244-6.244
		h62.439c3.448,0,6.244,2.795,6.244,6.244v0C271.61,85.27,268.814,88.065,265.366,88.065z"/>
	<path style="fill:#64798A;" d="M265.366,115.443h-62.439c-3.448,0-6.244-2.795-6.244-6.244v0c0-3.448,2.795-6.244,6.244-6.244
		h62.439c3.448,0,6.244,2.795,6.244,6.244v0C271.61,112.648,268.814,115.443,265.366,115.443z"/>
	<path style="fill:#64798A;" d="M265.366,142.822h-62.439c-3.448,0-6.244-2.795-6.244-6.244v0c0-3.448,2.795-6.244,6.244-6.244
		h62.439c3.448,0,6.244,2.795,6.244,6.244v0C271.61,140.026,268.814,142.822,265.366,142.822z"/>
	<path style="fill:#64798A;" d="M265.366,170.2h-62.439c-3.448,0-6.244-2.795-6.244-6.244v0c0-3.448,2.795-6.244,6.244-6.244h62.439
		c3.448,0,6.244,2.795,6.244,6.244v0C271.61,167.404,268.814,170.2,265.366,170.2z"/>
</g>
<path style="fill:#E1E6E9;" d="M446.199,57.522v167.274c0,6.93-5.619,12.488-12.488,12.488h-74.927
	c-6.931,0-12.488-5.558-12.488-12.488V57.522c0-6.931,5.557-12.488,12.488-12.488h74.927
	C440.58,45.034,446.199,50.591,446.199,57.522z"/>
<g>
	<path style="fill:#D5D6DB;" d="M433.711,45.034h-74.927c-5.094,0-9.425,3.014-11.373,7.358c1.566-0.703,3.293-1.114,5.13-1.114
		h74.927c6.869,0,12.488,5.556,12.488,12.488V231.04c0,1.831-0.413,3.555-1.117,5.117c4.323-1.954,7.361-6.277,7.361-11.361V57.522
		C446.199,50.591,440.58,45.034,433.711,45.034z"/>
	<circle style="fill:#D5D6DB;" cx="396.238" cy="376.426" r="46.829"/>
</g>
<path style="fill:#2F4859;" d="M430.192,376.462c0,18.731-15.186,33.917-33.985,33.917c-10.57,0-20.003-4.817-26.224-12.309
	c0,0-0.067,0-0.067-0.067c-4.817-5.888-7.694-13.38-7.694-21.541c0-18.799,15.253-33.985,33.985-33.985
	c15.989,0,29.302,10.971,32.914,25.757c0,0,0,0.066,0.067,0.066C429.857,370.909,430.192,373.652,430.192,376.462z"/>
<path style="fill:#3A556A;" d="M430.192,376.462c0,18.731-15.186,33.917-33.985,33.917c-10.57,0-20.003-4.817-26.224-12.309
	c0,0-0.067,0-0.067-0.067c-0.669-2.609-1.004-5.352-1.004-8.161c0-18.799,15.253-33.985,33.985-33.985
	c10.57,0,20.003,4.817,26.224,12.377c0,0,0,0.066,0.067,0.066C429.857,370.909,430.192,373.652,430.192,376.462z"/>
<path style="fill:#27A2DB;" d="M446.199,200.133v24.664c0,6.93-5.619,12.488-12.488,12.488h-74.927
	c-6.931,0-12.488-5.558-12.488-12.488v-24.664H446.199z"/>
<g>
	<path style="fill:#64798A;" d="M427.467,88.065h-62.439c-3.448,0-6.244-2.795-6.244-6.244v0c0-3.448,2.795-6.244,6.244-6.244
		h62.439c3.448,0,6.244,2.795,6.244,6.244v0C433.711,85.27,430.916,88.065,427.467,88.065z"/>
	<path style="fill:#64798A;" d="M427.467,115.443h-62.439c-3.448,0-6.244-2.795-6.244-6.244v0c0-3.448,2.795-6.244,6.244-6.244
		h62.439c3.448,0,6.244,2.795,6.244,6.244v0C433.711,112.648,430.916,115.443,427.467,115.443z"/>
	<path style="fill:#64798A;" d="M427.467,142.822h-62.439c-3.448,0-6.244-2.795-6.244-6.244v0c0-3.448,2.795-6.244,6.244-6.244
		h62.439c3.448,0,6.244,2.795,6.244,6.244v0C433.711,140.026,430.916,142.822,427.467,142.822z"/>
	<path style="fill:#64798A;" d="M427.467,170.2h-62.439c-3.448,0-6.244-2.795-6.244-6.244v0c0-3.448,2.795-6.244,6.244-6.244h62.439
		c3.448,0,6.244,2.795,6.244,6.244v0C433.711,167.404,430.916,170.2,427.467,170.2z"/>
</g>
<g>
</g>
<g>
</g>
<g>
</g>
<g>
</g>
<g>
</g>
<g>
</g>
<g>
</g>
<g>
</g>
<g>
</g>
<g>
</g>
<g>
</g>
<g>
</g>
<g>
</g>
<g>
</g>
<g>
</g>
</svg>
