<?xml version="1.0" encoding="iso-8859-1"?>
<!-- Generator: Adobe Illustrator 19.0.0, SVG Export Plug-In . SVG Version: 6.00 Build 0)  -->
<svg version="1.1" id="Capa_1" xmlns="http://www.w3.org/2000/svg" xmlns:xlink="http://www.w3.org/1999/xlink" x="0px" y="0px"
	 viewBox="0 0 468.293 468.293" style="enable-background:new 0 0 468.293 468.293;" xml:space="preserve">
<circle style="fill:#E56353;" cx="120.158" cy="50.34" r="48.503"/>
<path style="fill:#D15241;" d="M120.157,110.966c-57.514,0-105.821,39.415-119.383,92.707c-3.925,15.424,7.567,30.475,23.483,30.475
	h191.801c15.916,0,27.408-15.051,23.483-30.475C225.978,150.382,177.671,110.966,120.157,110.966z"/>
<circle style="fill:#27A2DB;" cx="348.16" cy="282.651" r="48.503"/>
<path style="fill:#2D93BA;" d="M348.136,343.273c-57.514,0-105.821,39.415-119.383,92.707c-3.925,15.424,7.567,30.475,23.483,30.475
	h191.801c15.916,0,27.408-15.051,23.483-30.475C453.956,382.688,405.649,343.273,348.136,343.273z"/>
<g>
	<path style="fill:#64798A;" d="M395.176,133.974c-3.659-3.659-9.585-3.659-13.244,0l-12.134,12.134V86.004
		c0-15.494-12.604-28.098-28.098-28.098h-56.463c-5.171,0-9.366,4.195-9.366,9.366s4.195,9.366,9.366,9.366H341.7
		c5.165,0,9.366,4.201,9.366,9.366v60.101l-12.128-12.131c-3.659-3.659-9.585-3.659-13.244,0s-3.659,9.585,0,13.244l28.116,28.122
		c0.43,0.43,0.904,0.816,1.412,1.157c0.148,0.099,0.316,0.164,0.47,0.255c0.37,0.22,0.74,0.442,1.142,0.61
		c0.192,0.08,0.399,0.118,0.597,0.185c0.379,0.129,0.752,0.27,1.15,0.35c0.606,0.122,1.226,0.187,1.852,0.187
		s1.246-0.065,1.852-0.187c0.401-0.08,0.776-0.221,1.157-0.352c0.195-0.067,0.399-0.104,0.59-0.183
		c0.407-0.17,0.783-0.395,1.159-0.618c0.148-0.088,0.309-0.15,0.453-0.246c0.508-0.341,0.981-0.727,1.412-1.158l28.122-28.122
		C398.834,143.559,398.834,137.632,395.176,133.974z"/>
	<path style="fill:#64798A;" d="M73.117,334.323c3.659,3.659,9.585,3.659,13.244,0l12.134-12.134v60.104
		c0,15.494,12.604,28.098,28.098,28.098h56.463c5.171,0,9.366-4.195,9.366-9.366c0-5.171-4.195-9.366-9.366-9.366h-56.463
		c-5.165,0-9.366-4.201-9.366-9.366v-60.101l12.128,12.131c3.659,3.659,9.585,3.659,13.244,0s3.659-9.585,0-13.244l-28.116-28.122
		c-0.43-0.43-0.904-0.816-1.412-1.157c-0.148-0.099-0.316-0.164-0.47-0.255c-0.37-0.22-0.74-0.442-1.142-0.61
		c-0.192-0.08-0.399-0.118-0.597-0.185c-0.379-0.129-0.752-0.27-1.15-0.35c-0.606-0.122-1.226-0.187-1.852-0.187
		s-1.246,0.065-1.852,0.187c-0.401,0.08-0.776,0.221-1.157,0.352c-0.195,0.067-0.399,0.104-0.59,0.183
		c-0.407,0.17-0.783,0.395-1.159,0.618c-0.148,0.088-0.309,0.15-0.453,0.246c-0.508,0.341-0.981,0.727-1.412,1.158l-28.122,28.122
		C69.458,324.738,69.458,330.664,73.117,334.323z"/>
</g>
<g>
</g>
<g>
</g>
<g>
</g>
<g>
</g>
<g>
</g>
<g>
</g>
<g>
</g>
<g>
</g>
<g>
</g>
<g>
</g>
<g>
</g>
<g>
</g>
<g>
</g>
<g>
</g>
<g>
</g>
</svg>
