<?xml version="1.0" encoding="iso-8859-1"?>
<!-- Generator: Adobe Illustrator 19.0.0, SVG Export Plug-In . SVG Version: 6.00 Build 0)  -->
<svg version="1.1" id="Capa_1" xmlns="http://www.w3.org/2000/svg" xmlns:xlink="http://www.w3.org/1999/xlink" x="0px" y="0px"
	 viewBox="0 0 468.293 468.293" style="enable-background:new 0 0 468.293 468.293;" xml:space="preserve">
<path style="fill:#E1E6E9;" d="M87.081,0L5.461,81.62v374.184c0,6.897,5.591,12.488,12.488,12.488h299.707
	c6.897,0,12.488-5.591,12.488-12.488V12.488C330.144,5.591,324.553,0,317.656,0L87.081,0L87.081,0z"/>
<polygon style="fill:#EBF0F3;" points="87.08,81.62 87.08,0 5.46,81.62 "/>
<g>
	<polygon style="fill:#E56353;" points="154.386,322.326 144.991,351.047 141.678,361.127 132.213,390.048 161.708,382.563 
		171.99,379.939 201.28,372.509 398.447,188.263 351.553,138.08 	"/>
	<path style="fill:#E56353;" d="M459.127,131.56c5.039-4.709,4.925-13.02-0.255-18.563l-28.137-30.109
		c-5.179-5.543-13.464-6.219-18.503-1.51l-28.746,26.862l46.894,50.182L459.127,131.56z"/>
	
		<rect x="381.617" y="113.893" transform="matrix(-0.7306 0.6828 -0.6828 -0.7306 777.8602 -10.4066)" style="fill:#E56353;" width="18.732" height="68.683"/>
</g>
<g>
	
		<rect x="396.143" y="103.29" transform="matrix(-0.7306 0.6828 -0.6828 -0.7306 790.3572 -36.5445)" style="fill:#E1E6E9;" width="12.488" height="68.683"/>
	
		<rect x="373.321" y="124.562" transform="matrix(-0.7306 0.6828 -0.6828 -0.7306 765.3845 15.8525)" style="fill:#E1E6E9;" width="12.488" height="68.683"/>
</g>
<polygon style="fill:#EBF0F3;" points="201.508,372.296 201.28,372.509 161.708,382.562 141.678,361.127 154.386,322.326 
	154.614,322.113 "/>
<polygon style="fill:#3A556A;" points="171.989,379.938 161.708,382.562 132.213,390.048 141.678,361.127 144.991,351.047 "/>
<g>
	<rect x="138.046" y="73.154" style="fill:#D5D6DB;" width="158.033" height="12.488"/>
	<rect x="60.841" y="150.359" style="fill:#D5D6DB;" width="158.033" height="12.488"/>
	<rect x="60.841" y="182.016" style="fill:#D5D6DB;" width="142.392" height="12.488"/>
	<rect x="60.841" y="213.679" style="fill:#D5D6DB;" width="124.129" height="12.488"/>
	<rect x="60.841" y="245.342" style="fill:#D5D6DB;" width="100.09" height="12.488"/>
</g>
<g>
</g>
<g>
</g>
<g>
</g>
<g>
</g>
<g>
</g>
<g>
</g>
<g>
</g>
<g>
</g>
<g>
</g>
<g>
</g>
<g>
</g>
<g>
</g>
<g>
</g>
<g>
</g>
<g>
</g>
</svg>
