<?xml version="1.0" encoding="iso-8859-1"?>
<!-- Generator: Adobe Illustrator 19.0.0, SVG Export Plug-In . SVG Version: 6.00 Build 0)  -->
<svg version="1.1" id="Capa_1" xmlns="http://www.w3.org/2000/svg" xmlns:xlink="http://www.w3.org/1999/xlink" x="0px" y="0px"
	 viewBox="0 0 468.293 468.293" style="enable-background:new 0 0 468.293 468.293;" xml:space="preserve">
<path style="fill:#DC8744;" d="M62.839,0v43.205l0,0v169.339l0,0v43.205l0,0v206.3c0,3.448,2.796,6.244,6.244,6.244h30.716
	c3.448,0,6.244-2.796,6.244-6.244v-206.3H362.25v206.3c0,3.448,2.796,6.244,6.244,6.244h30.716c3.448,0,6.244-2.796,6.244-6.244
	v-206.3v-43.205V43.205V0.001L62.839,0z M362.25,212.544H106.043V43.205H362.25V212.544z"/>
<rect x="106.041" y="43.202" style="fill:#E1E6E9;" width="256.187" height="169.335"/>
<rect x="131.041" y="68.184" style="fill:#3EA69B;" width="206.236" height="119.383"/>
<rect x="106.041" y="255.751" style="fill:#E1E6E9;" width="256.187" height="169.335"/>
<rect x="131.035" y="280.726" style="fill:#3EA69B;" width="206.236" height="119.383"/>
<g>
	<path style="fill:#3A556A;" d="M271.612,130.998c-3.451,0-6.244,2.793-6.244,6.244v3.122h-62.439v-3.122
		c0-3.451-2.793-6.244-6.244-6.244c-3.451,0-6.244,2.793-6.244,6.244v18.732c0,3.451,2.793,6.244,6.244,6.244
		c3.451,0,6.244-2.793,6.244-6.244v-3.122h62.439v3.122c0,3.451,2.793,6.244,6.244,6.244c3.451,0,6.244-2.793,6.244-6.244v-18.732
		C277.856,133.79,275.063,130.998,271.612,130.998z"/>
	<path style="fill:#3A556A;" d="M271.612,343.542c-3.451,0-6.244,2.793-6.244,6.244v3.122h-62.439v-3.122
		c0-3.451-2.793-6.244-6.244-6.244c-3.451,0-6.244,2.793-6.244,6.244v18.732c0,3.451,2.793,6.244,6.244,6.244
		c3.451,0,6.244-2.793,6.244-6.244v-3.122h62.439v3.122c0,3.451,2.793,6.244,6.244,6.244c3.451,0,6.244-2.793,6.244-6.244v-18.732
		C277.856,346.334,275.063,343.542,271.612,343.542z"/>
</g>
<g>
</g>
<g>
</g>
<g>
</g>
<g>
</g>
<g>
</g>
<g>
</g>
<g>
</g>
<g>
</g>
<g>
</g>
<g>
</g>
<g>
</g>
<g>
</g>
<g>
</g>
<g>
</g>
<g>
</g>
</svg>
