<?xml version="1.0" encoding="iso-8859-1"?>
<!-- Generator: Adobe Illustrator 19.0.0, SVG Export Plug-In . SVG Version: 6.00 Build 0)  -->
<svg version="1.1" id="Capa_1" xmlns="http://www.w3.org/2000/svg" xmlns:xlink="http://www.w3.org/1999/xlink" x="0px" y="0px"
	 viewBox="0 0 468.293 468.293" style="enable-background:new 0 0 468.293 468.293;" xml:space="preserve">
<rect x="47.454" y="170.471" style="fill:#DC8744;" width="373.404" height="122.106"/>
<circle style="fill:#FCD462;" cx="234.146" cy="231.524" r="18.732"/>
<rect x="47.454" y="28.472" style="fill:#DC8744;" width="373.404" height="122.106"/>
<circle style="fill:#FCD462;" cx="234.146" cy="89.506" r="18.732"/>
<g>
	<path style="fill:#F6C358;" d="M247.392,76.261c7.315,7.315,7.315,19.175,0,26.491c-7.315,7.315-19.175,7.315-26.491,0"/>
	<path style="fill:#F6C358;" d="M247.392,218.28c7.315,7.315,7.315,19.175,0,26.491c-7.315,7.315-19.175,7.315-26.491,0"/>
</g>
<rect x="47.454" y="150.559" style="fill:#E1E6E9;" width="373.404" height="19.918"/>
<rect x="47.454" y="312.745" style="fill:#DC8744;" width="373.404" height="122.106"/>
<circle style="fill:#FCD462;" cx="234.146" cy="373.822" r="18.732"/>
<rect x="47.454" y="292.839" style="fill:#E1E6E9;" width="373.404" height="19.918"/>
<path style="fill:#64798A;" d="M427.983,28.454H40.31c-3.448,0-6.244-2.795-6.244-6.244V6.244C34.066,2.795,36.861,0,40.31,0
	h387.673c3.448,0,6.244,2.795,6.244,6.244V22.21C434.227,25.659,431.431,28.454,427.983,28.454z"/>
<g>
	<path style="fill:#3A556A;" d="M81.589,434.851h27.41v27.197c0,3.448-2.795,6.244-6.244,6.244H87.833
		c-3.448,0-6.244-2.796-6.244-6.244V434.851z"/>
	<path style="fill:#3A556A;" d="M359.294,434.851h27.41v27.197c0,3.448-2.795,6.244-6.244,6.244h-14.922
		c-3.448,0-6.244-2.796-6.244-6.244V434.851z"/>
</g>
<path style="fill:#F6C358;" d="M247.392,360.554l-26.49,26.491c7.315,7.315,19.175,7.315,26.49,0
	C254.707,379.73,254.707,367.869,247.392,360.554z"/>
<g>
</g>
<g>
</g>
<g>
</g>
<g>
</g>
<g>
</g>
<g>
</g>
<g>
</g>
<g>
</g>
<g>
</g>
<g>
</g>
<g>
</g>
<g>
</g>
<g>
</g>
<g>
</g>
<g>
</g>
</svg>
