<?xml version="1.0" encoding="iso-8859-1"?>
<!-- Generator: Adobe Illustrator 19.0.0, SVG Export Plug-In . SVG Version: 6.00 Build 0)  -->
<svg version="1.1" id="Capa_1" xmlns="http://www.w3.org/2000/svg" xmlns:xlink="http://www.w3.org/1999/xlink" x="0px" y="0px"
	 viewBox="0 0 468.293 468.293" style="enable-background:new 0 0 468.293 468.293;" xml:space="preserve">
<path style="fill:#E1E6E9;" d="M124.415,0.001L59.317,65.098v390.708c0,6.897,5.591,12.488,12.488,12.488h324.683
	c6.897,0,12.488-5.591,12.488-12.488V12.489c0-6.897-5.591-12.488-12.488-12.488L124.415,0.001L124.415,0.001z"/>
<polygon style="fill:#EBF0F3;" points="124.415,65.097 124.415,0 59.317,65.097 "/>
<path style="fill:#27A2DB;" d="M234.146,85.29c-34.674,0-63.974,23.013-73.457,54.599c-3.306,11.009,5.143,22.086,16.638,22.086
	h113.639c11.495,0,19.944-11.077,16.638-22.086C298.121,108.303,268.821,85.29,234.146,85.29z"/>
<circle style="fill:#2D93BA;" cx="234.147" cy="56.277" r="30.214"/>
<g>
	<path style="fill:#D5D6DB;" d="M362.147,209.563h-256c-3.448,0-6.244-2.795-6.244-6.244v0c0-3.448,2.795-6.244,6.244-6.244h256
		c3.448,0,6.244,2.795,6.244,6.244v0C368.391,206.767,365.595,209.563,362.147,209.563z"/>
	<path style="fill:#D5D6DB;" d="M237.269,246.835H106.147c-3.448,0-6.244-2.796-6.244-6.244l0,0c0-3.448,2.795-6.244,6.244-6.244
		h131.122c3.448,0,6.244,2.795,6.244,6.244l0,0C243.513,244.039,240.717,246.835,237.269,246.835z"/>
	<path style="fill:#D5D6DB;" d="M362.147,284.107h-256c-3.448,0-6.244-2.795-6.244-6.244l0,0c0-3.448,2.795-6.244,6.244-6.244h256
		c3.448,0,6.244,2.796,6.244,6.244l0,0C368.391,281.311,365.595,284.107,362.147,284.107z"/>
	<path style="fill:#D5D6DB;" d="M237.269,321.378H106.147c-3.448,0-6.244-2.795-6.244-6.244v0c0-3.448,2.795-6.244,6.244-6.244
		h131.122c3.448,0,6.244,2.796,6.244,6.244v0C243.513,318.583,240.717,321.378,237.269,321.378z"/>
	<path style="fill:#D5D6DB;" d="M362.147,358.65h-256c-3.448,0-6.244-2.795-6.244-6.244v0c0-3.448,2.795-6.244,6.244-6.244h256
		c3.448,0,6.244,2.796,6.244,6.244v0C368.391,355.855,365.595,358.65,362.147,358.65z"/>
	<path style="fill:#D5D6DB;" d="M237.269,395.922H106.147c-3.448,0-6.244-2.795-6.244-6.244l0,0c0-3.448,2.795-6.244,6.244-6.244
		h131.122c3.448,0,6.244,2.796,6.244,6.244l0,0C243.513,393.126,240.717,395.922,237.269,395.922z"/>
	<path style="fill:#D5D6DB;" d="M362.147,433.194h-256c-3.448,0-6.244-2.795-6.244-6.244v0c0-3.448,2.795-6.244,6.244-6.244h256
		c3.448,0,6.244,2.796,6.244,6.244v0C368.391,430.398,365.595,433.194,362.147,433.194z"/>
</g>
<g>
</g>
<g>
</g>
<g>
</g>
<g>
</g>
<g>
</g>
<g>
</g>
<g>
</g>
<g>
</g>
<g>
</g>
<g>
</g>
<g>
</g>
<g>
</g>
<g>
</g>
<g>
</g>
<g>
</g>
</svg>
