<?xml version="1.0" encoding="iso-8859-1"?>
<!-- Generator: Adobe Illustrator 19.0.0, SVG Export Plug-In . SVG Version: 6.00 Build 0)  -->
<svg version="1.1" id="Capa_1" xmlns="http://www.w3.org/2000/svg" xmlns:xlink="http://www.w3.org/1999/xlink" x="0px" y="0px"
	 viewBox="0 0 468.293 468.293" style="enable-background:new 0 0 468.293 468.293;" xml:space="preserve">
<path style="fill:#DC8744;" d="M162.418,194.969c-4.99-5.164-13.374-4.913-18.452,0.165l-21.093,21.092
	c-5.14,5.14-5.14,13.474,0,18.614l89.781,89.782c7.407,7.408,19.417,7.408,26.825,0l9.925-9.925c2.389-2.389,2.389-6.262,0-8.651
	l-0.026-0.026c-2.389-2.389-2.389-6.262,0-8.651l167.009-167.008c2.389-2.389,6.262-2.389,8.651,0l0.026,0.026
	c2.389,2.389,6.262,2.389,8.651,0l9.925-9.925c7.408-7.408,7.408-19.417,0-26.825L353.86,3.855c-5.14-5.14-13.474-5.14-18.614,0
	l-21.093,21.093c-5.078,5.078-5.329,13.462-0.165,18.452c5.304,5.125,5.359,13.581,0.165,18.776l-132.96,132.959
	C175.999,200.329,167.543,200.274,162.418,194.969z"/>
<rect x="272.342" y="40.269" transform="matrix(0.7071 0.7071 -0.7071 0.7071 207.1552 -155.5236)" style="fill:#E1E6E9;" width="37.938" height="264.056"/>
<path style="fill:#64798A;" d="M286.361,144.603l32.606,32.606c4.877,4.877,4.877,12.784,0,17.66l-51.755,51.755
	c-4.877,4.877-12.784,4.877-17.66,0l-32.606-32.606c-4.877-4.877-4.877-12.784,0-17.66l51.755-51.755
	C273.578,139.726,281.484,139.726,286.361,144.603z"/>
<path style="fill:#E1E6E9;" d="M19.096,363.498l116.22-116.219l69.007,69.008L53.7,466.908c-2.582,2.582-7.008,1.374-7.913-2.146
	l-2.817-10.663l-3.756-14.217l-11.467-43.523L19.096,363.498z"/>
<g>
	<path style="fill:#D5D6DB;" d="M236.624,200.12l26.825,26.825c1.853,1.853,1.853,4.853,0,6.706c-1.853,1.853-4.853,1.853-6.706,0
		l-26.825-26.825c-1.853-1.853-1.853-4.853,0-6.706C231.772,198.267,234.771,198.267,236.624,200.12z"/>
	<path style="fill:#D5D6DB;" d="M250.806,185.939l26.825,26.825c1.853,1.853,1.853,4.853,0,6.706c-1.853,1.853-4.853,1.853-6.706,0
		L244.1,192.645c-1.853-1.853-1.853-4.853,0-6.706C245.953,184.085,248.953,184.085,250.806,185.939z"/>
	<path style="fill:#D5D6DB;" d="M264.988,171.757l26.825,26.825c1.853,1.853,1.853,4.853,0,6.706c-1.853,1.853-4.853,1.853-6.706,0
		l-26.825-26.825c-1.853-1.853-1.853-4.853,0-6.706C260.135,169.904,263.134,169.904,264.988,171.757z"/>
	<path style="fill:#D5D6DB;" d="M279.169,157.576l26.825,26.825c1.853,1.853,1.853,4.853,0,6.706c-1.853,1.853-4.853,1.853-6.706,0
		l-26.825-26.825c-1.853-1.853-1.853-4.853,0-6.706C274.316,155.722,277.316,155.722,279.169,157.576z"/>
	<path style="fill:#D5D6DB;" d="M42.97,454.099l149.584-149.583l11.769,11.77L53.7,466.908c-2.582,2.582-7.008,1.374-7.913-2.146
		L42.97,454.099z"/>
</g>
<g>
</g>
<g>
</g>
<g>
</g>
<g>
</g>
<g>
</g>
<g>
</g>
<g>
</g>
<g>
</g>
<g>
</g>
<g>
</g>
<g>
</g>
<g>
</g>
<g>
</g>
<g>
</g>
<g>
</g>
</svg>
