<?xml version="1.0" encoding="iso-8859-1"?>
<!-- Generator: Adobe Illustrator 19.0.0, SVG Export Plug-In . SVG Version: 6.00 Build 0)  -->
<svg version="1.1" id="Capa_1" xmlns="http://www.w3.org/2000/svg" xmlns:xlink="http://www.w3.org/1999/xlink" x="0px" y="0px"
	 viewBox="0 0 468.293 468.293" style="enable-background:new 0 0 468.293 468.293;" xml:space="preserve">
<path style="fill:#E1E6E9;" d="M449.755,125.455h-11.127c-0.782-7.201-2.199-14.207-4.169-20.98l10.276-4.257
	c2.743-1.136,4.046-4.281,2.91-7.025l-6.173-14.902c-1.136-2.744-4.281-4.046-7.025-2.91l-10.265,4.252
	c-3.455-6.28-7.452-12.215-11.91-17.767l7.879-7.88c2.1-2.1,2.1-5.504,0-7.603l-11.405-11.405c-2.1-2.1-5.504-2.1-7.604,0
	l-7.88,7.88c-5.551-4.458-11.486-8.456-17.767-11.911l4.252-10.265c1.136-2.743-0.167-5.888-2.91-7.025l-14.902-6.172
	c-2.743-1.136-5.888,0.166-7.025,2.91l-4.256,10.276c-6.773-1.969-13.78-3.387-20.98-4.169V5.376c0-2.97-2.407-5.376-5.376-5.376
	h-16.13c-2.97,0-5.377,2.407-5.377,5.376v11.127c-7.201,0.782-14.206,2.2-20.98,4.169l-4.257-10.276
	c-1.136-2.743-4.281-4.046-7.025-2.91l-14.902,6.172c-2.743,1.136-4.046,4.281-2.909,7.025l4.251,10.265
	c-6.28,3.455-12.215,7.453-17.767,11.911l-7.88-7.88c-2.1-2.1-5.504-2.1-7.603,0l-11.405,11.405c-2.1,2.1-2.1,5.504,0,7.603
	l7.88,7.88c-4.458,5.551-8.455,11.487-11.91,17.767l-10.265-4.252c-2.743-1.136-5.888,0.166-7.024,2.91l-1.026,2.475l27.366,32.004
	l3.655,2.531c10.581-42.825,49.149-74.621,95.242-74.621c54.242,0,98.215,43.972,98.215,98.215c0,44.56-29.698,82.133-70.363,94.147
	l1.234,1.758l23.994,32.449l7.524-3.117c2.743-1.136,4.046-4.281,2.91-7.025l-4.252-10.264c6.28-3.455,12.215-7.453,17.767-11.911
	l7.88,7.88c2.099,2.1,5.504,2.1,7.604,0l11.405-11.405c2.1-2.1,2.1-5.504,0-7.604l-7.879-7.879
	c4.458-5.552,8.455-11.487,11.91-17.767l10.264,4.251c2.744,1.136,5.889-0.166,7.025-2.91l6.173-14.902
	c1.136-2.743-0.167-5.888-2.91-7.025l-10.276-4.257c1.969-6.773,3.387-13.779,4.169-20.98h11.127c2.97,0,5.377-2.407,5.377-5.377
	v-16.129C455.131,127.862,452.724,125.455,449.755,125.455z"/>
<path style="fill:#D5D6DB;" d="M405.673,298.906l0-53.735c0-2.859-1.941-5.352-4.712-6.053l-37.697-9.538
	c-3.536-12.835-8.571-25.021-15.013-36.345l19.887-33.36c1.464-2.455,1.073-5.591-0.948-7.612l-37.995-37.996
	c-2.021-2.021-5.157-2.412-7.612-0.948l-33.361,19.888c-11.323-6.442-23.509-11.477-36.343-15.013l-9.539-37.699
	c-0.701-2.771-3.195-4.712-6.053-4.712h-53.734c-2.859,0-5.352,1.941-6.053,4.712l-9.539,37.699
	c-12.834,3.536-25.021,8.571-36.344,15.013l-33.362-19.888c-2.455-1.464-5.591-1.073-7.612,0.948l-37.997,37.996
	c-2.021,2.021-2.412,5.157-0.948,7.612l19.889,33.363c-6.442,11.322-11.476,23.508-15.012,36.342l-37.699,9.539
	c-2.771,0.701-4.712,3.195-4.712,6.053l0,53.735c0,2.859,1.941,5.352,4.712,6.053l37.7,9.539
	c3.536,12.834,8.571,25.02,15.012,36.342l-19.887,33.361c-1.464,2.455-1.073,5.591,0.948,7.612l37.996,37.996
	c2.021,2.021,5.157,2.412,7.612,0.948l33.361-19.887c11.323,6.441,23.51,11.477,36.344,15.013l9.538,37.696
	c0.701,2.771,3.195,4.712,6.053,4.712h53.734c2.858,0,5.352-1.941,6.053-4.712l9.538-37.696c12.834-3.536,25.02-8.57,36.343-15.012
	l33.36,19.887c2.455,1.464,5.591,1.073,7.612-0.948l37.997-37.996c2.021-2.021,2.412-5.157,0.948-7.612l-19.887-33.359
	c6.442-11.324,11.477-23.51,15.014-36.346l37.697-9.538C403.732,304.258,405.673,301.765,405.673,298.906z M209.417,389.497
	c-64.871,0-117.459-52.589-117.459-117.46c0-64.871,52.589-117.46,117.459-117.46c64.871,0,117.46,52.588,117.46,117.46
	C326.877,336.909,274.289,389.497,209.417,389.497z"/>
<g>
</g>
<g>
</g>
<g>
</g>
<g>
</g>
<g>
</g>
<g>
</g>
<g>
</g>
<g>
</g>
<g>
</g>
<g>
</g>
<g>
</g>
<g>
</g>
<g>
</g>
<g>
</g>
<g>
</g>
</svg>
