<?xml version="1.0" encoding="iso-8859-1"?>
<!-- Generator: Adobe Illustrator 19.0.0, SVG Export Plug-In . SVG Version: 6.00 Build 0)  -->
<svg version="1.1" id="Capa_1" xmlns="http://www.w3.org/2000/svg" xmlns:xlink="http://www.w3.org/1999/xlink" x="0px" y="0px"
	 viewBox="0 0 468.293 468.293" style="enable-background:new 0 0 468.293 468.293;" xml:space="preserve">
<g>
	<rect x="1.561" y="206.648" style="fill:#64798A;" width="465.171" height="23.259"/>
	<rect x="1.561" y="278.853" style="fill:#64798A;" width="465.171" height="17.445"/>
	<path style="fill:#64798A;" d="M24.818,206.648l0,255.401c0,3.448-2.795,6.244-6.244,6.244H7.805c-3.448,0-6.244-2.796-6.244-6.244
		l0-255.401H24.818z"/>
	<path style="fill:#64798A;" d="M154.187,206.648l0,255.401c0,3.448-2.795,6.244-6.244,6.244h-10.77
		c-3.448,0-6.244-2.796-6.244-6.244l0-255.401H154.187z"/>
	<rect x="24.82" y="424.273" style="fill:#64798A;" width="129.367" height="23.259"/>
	<path style="fill:#64798A;" d="M466.707,206.648l0,255.401c0,3.448-2.796,6.244-6.244,6.244h-10.77
		c-3.448,0-6.244-2.796-6.244-6.244l0-255.401H466.707z"/>
	<path style="fill:#64798A;" d="M340.245,206.648l0,255.401c0,3.448-2.796,6.244-6.244,6.244h-10.77
		c-3.448,0-6.244-2.796-6.244-6.244l0-255.401H340.245z"/>
</g>
<rect x="24.82" y="229.9" style="fill:#DC8744;" width="106.109" height="194.06"/>
<circle style="fill:#FCD462;" cx="105.154" cy="326.931" r="11.626"/>
<g>
	<rect x="340.243" y="229.9" style="fill:#DC8744;" width="103.205" height="60.916"/>
	<rect x="340.243" y="290.841" style="fill:#DC8744;" width="103.205" height="60.916"/>
	<rect x="340.243" y="351.744" style="fill:#DC8744;" width="103.205" height="60.915"/>
</g>
<g>
	<rect x="327.162" y="282.1" style="fill:#64798A;" width="129.367" height="17.445"/>
	<rect x="327.162" y="343.04" style="fill:#64798A;" width="129.367" height="17.445"/>
	<rect x="327.162" y="403.918" style="fill:#64798A;" width="129.367" height="17.445"/>
</g>
<g>
	<circle style="fill:#FCD462;" cx="391.855" cy="261.744" r="8.723"/>
	<circle style="fill:#FCD462;" cx="391.855" cy="322.685" r="8.723"/>
	<circle style="fill:#FCD462;" cx="391.855" cy="383.588" r="8.723"/>
</g>
<g>
	<path style="fill:#64798A;" d="M349.561,175.985H118.707c-6.897,0-12.488-5.591-12.488-12.488v-26.62h255.83v26.62
		C362.049,170.394,356.458,175.985,349.561,175.985z"/>
	<path style="fill:#64798A;" d="M362.049,136.877h-255.83V12.488C106.219,5.591,111.81,0,118.707,0h230.855
		c6.897,0,12.488,5.591,12.488,12.488V136.877z"/>
</g>
<g>
	<rect x="119.227" y="13.019" style="fill:#E1E6E9;" width="229.757" height="123.842"/>
	<circle style="fill:#E1E6E9;" cx="234.134" cy="161.854" r="8.723"/>
</g>
<rect x="205.955" y="175.984" style="fill:#D5D6DB;" width="56.382" height="20.642"/>
<path style="fill:#64798A;" d="M199.826,206.648h68.615c2.651,0,4.8-2.149,4.8-4.8v-0.421c0-2.651-2.149-4.8-4.8-4.8h-68.615
	c-2.651,0-4.8,2.149-4.8,4.8v0.421C195.026,204.499,197.175,206.648,199.826,206.648z"/>
<g>
</g>
<g>
</g>
<g>
</g>
<g>
</g>
<g>
</g>
<g>
</g>
<g>
</g>
<g>
</g>
<g>
</g>
<g>
</g>
<g>
</g>
<g>
</g>
<g>
</g>
<g>
</g>
<g>
</g>
</svg>
