<?xml version="1.0" encoding="iso-8859-1"?>
<!-- Generator: Adobe Illustrator 19.0.0, SVG Export Plug-In . SVG Version: 6.00 Build 0)  -->
<svg version="1.1" id="Capa_1" xmlns="http://www.w3.org/2000/svg" xmlns:xlink="http://www.w3.org/1999/xlink" x="0px" y="0px"
	 viewBox="0 0 468.293 468.293" style="enable-background:new 0 0 468.293 468.293;" xml:space="preserve">
<path style="fill:#DC8744;" d="M468.293,39.195l0,389.903c0,6.897-5.591,12.488-12.488,12.488l-196.293,0
	c-6.897,0-12.488-5.591-12.488-12.488l0-389.903c0-6.897,5.591-12.488,12.488-12.488l196.293,0
	C462.702,26.707,468.293,32.298,468.293,39.195z"/>
<path style="fill:#E1E6E9;" d="M396.997,413.926l-78.675,0c0-24.101-19.537-43.638-43.638-43.638l0-272.285
	c24.101,0,43.638-19.537,43.638-43.638l78.675,0c0,24.101,19.538,43.638,43.638,43.638l0,272.285
	C416.534,370.288,396.997,389.826,396.997,413.926z"/>
<circle style="fill:#FCD462;" cx="357.657" cy="234.132" r="66.379"/>
<circle style="fill:#F6C358;" cx="357.657" cy="234.132" r="55.315"/>
<path style="fill:#DC8744;" d="M403.952,236.6h-8.153c-1.041,10.207-5.099,19.368-12.17,27.476l-9.716-8.153
	c5.435-6.253,8.671-12.688,9.716-19.323h-21.668c-2.009,8.416-4.654,14.579-7.93,18.487c-3.277,3.908-8.135,5.862-14.574,5.862
	s-11.707-2.245-15.806-6.753c-4.095-4.508-6.326-10.37-6.699-17.596h-5.585l0-7.144h5.694c0.6-8.189,3.39-15.933,8.38-23.231
	l10.275,7.262c-3.499,4.917-5.658,10.234-6.48,15.969h20.995v-0.336c2.013-8.562,4.731-14.851,8.153-18.869
	c3.427-4.026,8.398-6.035,14.91-6.035c6.517,0,11.825,2.309,15.915,6.926c4.099,4.617,6.33,10.716,6.703,18.314h8.039V236.6z
	 M331.863,244.48c1.672,1.9,3.758,2.845,6.253,2.845c2.495,0,4.467-0.745,5.917-2.236c1.454-1.481,2.849-4.317,4.19-8.489H328.9
	C329.2,239.954,330.186,242.58,331.863,244.48z M380.834,220.967c-1.709-2.081-3.867-3.127-6.476-3.127
	c-2.604,0-4.672,0.818-6.199,2.454c-1.527,1.645-2.958,4.699-4.299,9.162h20.1C383.592,225.884,382.547,223.057,380.834,220.967z"/>
<g>
	<circle style="fill:#E1E6E9;" cx="274.669" cy="413.956" r="16.596"/>
	<circle style="fill:#E1E6E9;" cx="274.669" cy="54.363" r="16.596"/>
	<circle style="fill:#E1E6E9;" cx="440.632" cy="413.956" r="16.596"/>
	<circle style="fill:#E1E6E9;" cx="440.632" cy="54.363" r="16.596"/>
</g>
<path style="fill:#F6C358;" d="M331.902,336.528v38.393c0,8.414-6.197,16.324-17.181,23.277c-1.562,0.958-3.225,1.965-5.038,2.872
	c0,0-0.05,0-0.05,0.05c-1.562,0.857-3.225,1.663-4.988,2.519c-5.895,2.771-12.697,5.341-20.154,7.608
	c-1.663,0.504-3.326,1.007-5.038,1.512h-0.05c-1.612,0.453-3.275,0.907-4.988,1.36c-6.348,1.612-13.05,3.073-20.154,4.283
	c-1.663,0.302-3.326,0.605-5.038,0.857h-0.05c-1.663,0.252-3.275,0.554-4.988,0.755c-6.499,0.957-13.201,1.713-20.154,2.317
	c-1.663,0.151-3.326,0.303-5.038,0.403h-0.05c-1.663,0.151-3.275,0.252-4.988,0.353c-6.55,0.402-13.301,0.654-20.154,0.705
	c-1.663,0.05-3.326,0.05-5.038,0.05h-0.05c-1.713,0-3.325,0-4.988-0.05c-6.852-0.05-13.604-0.303-20.154-0.705
	c-1.713-0.101-3.376-0.202-5.038-0.353h-0.05c-1.713-0.101-3.325-0.252-4.988-0.403c-6.953-0.604-13.654-1.36-20.154-2.317
	c-1.713-0.202-3.376-0.504-5.038-0.755h-0.05c-1.713-0.252-3.325-0.555-4.988-0.857c-7.104-1.21-13.805-2.671-20.154-4.283
	c-1.713-0.454-3.426-0.907-5.038-1.36h-0.05c-1.713-0.504-3.325-1.007-4.988-1.512c-7.457-2.267-14.259-4.837-20.154-7.608
	c-1.764-0.806-3.426-1.662-5.038-2.57c0,0-0.05,0-0.05-0.05c-1.763-0.856-3.426-1.813-4.988-2.821
	c-10.984-6.903-17.231-14.864-17.231-23.277v-38.393H331.902z"/>
<path style="fill:#FCD462;" d="M331.902,336.528c0,8.414-6.197,16.324-17.181,23.177c-1.612,1.058-3.275,2.065-5.089,2.973
	c-1.562,0.907-3.225,1.712-4.988,2.569c-5.895,2.771-12.697,5.291-20.154,7.608c-1.663,0.504-3.326,1.008-5.038,1.511h-0.05
	c-1.612,0.454-3.275,0.908-4.988,1.36c-6.348,1.613-13.05,3.074-20.154,4.283c-1.663,0.303-3.326,0.605-5.038,0.856h-0.05
	c-1.663,0.252-3.275,0.555-4.988,0.756c-6.499,0.958-13.201,1.713-20.154,2.318c-1.663,0.151-3.326,0.302-5.038,0.403h-0.05
	c-1.663,0.151-3.275,0.252-4.988,0.352c-6.55,0.403-13.301,0.656-20.154,0.705c-1.663,0.05-3.326,0.05-5.038,0.05h-0.05
	c-1.713,0-3.325,0-4.988-0.05c-6.852-0.05-13.604-0.302-20.154-0.705c-1.713-0.101-3.376-0.202-5.038-0.352h-0.05
	c-1.713-0.101-3.325-0.252-4.988-0.403c-6.953-0.605-13.654-1.36-20.154-2.318c-1.713-0.201-3.376-0.504-5.038-0.756h-0.05
	c-1.713-0.252-3.325-0.554-4.988-0.856c-7.104-1.209-13.805-2.67-20.154-4.283c-1.713-0.453-3.426-0.907-5.038-1.36h-0.05
	c-1.713-0.503-3.325-1.007-4.988-1.511c-7.457-2.268-14.259-4.837-20.154-7.608c-1.764-0.806-3.426-1.662-5.038-2.569
	c0,0-0.05,0-0.05-0.05c-1.763-0.857-3.426-1.814-4.988-2.822c-10.984-6.903-17.231-14.863-17.231-23.277
	c0-27.006,64.139-48.923,143.191-48.923S331.902,309.523,331.902,336.528z"/>
<path style="fill:#F6C358;" d="M188.313,371.78c-1.422,0-2.777-0.002-4.17-0.044c-6.635-0.051-13.164-0.28-19.73-0.685
	c-1.609-0.096-3.126-0.185-4.642-0.323l-0.619-0.056h-0.254c-1.295-0.082-2.532-0.198-3.796-0.311
	c-7.439-0.65-13.767-1.377-19.768-2.263c-1.395-0.169-2.361-0.329-3.322-0.485l-2.717-0.418c-1.044-0.169-3.589-0.634-3.589-0.634
	c-6.522-1.113-12.763-2.439-19.232-4.083c-1.511-0.401-3.153-0.834-4.697-1.271l-4.777-1.433c-5.679-1.727-10.892-3.623-15.54-5.647
	v-0.053l-7.623-3.705l-2.416-1.36h-0.096c-0.369-0.22-0.741-0.452-1.115-0.692c-8.131-5.109-10.968-9.528-10.968-11.786
	c0-12.427,49.173-35.253,129.52-35.253c80.314,0,129.469,22.825,129.469,35.253c0,2.247-2.815,6.629-10.745,11.575
	c-1.682,1.099-2.859,1.791-3.972,2.35l-0.739,0.398c-1.246,0.723-2.579,1.357-3.983,2.038c-4.995,2.35-11.181,4.679-18.357,6.909
	c-1.311,0.396-4.735,1.406-4.735,1.406c-1.549,0.434-3.144,0.87-4.789,1.306c-6.333,1.609-12.574,2.935-18.947,4.021
	c-1.342,0.245-2.583,0.47-3.832,0.668l-2.788,0.432c-0.903,0.149-1.807,0.3-2.748,0.412c-6.415,0.939-12.741,1.667-19.752,2.276
	c-1.453,0.134-2.846,0.26-4.27,0.352l-0.872,0.056c-1.515,0.138-2.986,0.227-4.546,0.318c-6.611,0.409-13.139,0.639-19.454,0.683
	c-1.707,0.049-3.137,0.051-4.584,0.051C189.001,371.78,188.445,371.78,188.313,371.78z"/>
<g>
	<path style="fill:#DC8744;" d="M72.879,365.247v38.393c-1.764-0.806-3.426-1.662-5.038-2.57c0,0-0.05,0-0.05-0.05
		c-1.763-0.856-3.426-1.813-4.988-2.821v-38.393c1.562,1.007,3.225,1.964,4.988,2.822c0,0.05,0.05,0.05,0.05,0.05
		C69.453,363.585,71.115,364.441,72.879,365.247z"/>
	<path style="fill:#DC8744;" d="M103.109,375.727v38.393c-1.713-0.454-3.426-0.907-5.038-1.36h-0.05
		c-1.713-0.504-3.325-1.007-4.988-1.512v-38.393c1.663,0.504,3.275,1.008,4.988,1.511h0.05
		C99.683,374.82,101.396,375.274,103.109,375.727z"/>
	<path style="fill:#DC8744;" d="M133.339,381.622v38.393c-1.713-0.202-3.376-0.504-5.038-0.755h-0.05
		c-1.713-0.252-3.325-0.555-4.988-0.857V380.01c1.663,0.303,3.275,0.605,4.988,0.856h0.05
		C129.964,381.118,131.626,381.421,133.339,381.622z"/>
	<path style="fill:#DC8744;" d="M163.57,384.695v38.393c-1.713-0.101-3.376-0.202-5.038-0.353h-0.05
		c-1.713-0.101-3.325-0.252-4.988-0.403V383.94c1.663,0.151,3.275,0.302,4.988,0.403h0.05
		C160.194,384.493,161.857,384.594,163.57,384.695z"/>
	<path style="fill:#DC8744;" d="M193.8,385.401v38.393c-1.663,0.05-3.326,0.05-5.038,0.05h-0.05c-1.713,0-3.325,0-4.988-0.05
		v-38.393c1.663,0.05,3.275,0.05,4.988,0.05h0.05C190.475,385.451,192.137,385.451,193.8,385.401z"/>
	<path style="fill:#DC8744;" d="M224.031,383.94v38.392c-1.663,0.151-3.326,0.303-5.038,0.403h-0.05
		c-1.663,0.151-3.275,0.252-4.988,0.353v-38.393c1.713-0.101,3.325-0.202,4.988-0.352h0.05
		C220.705,384.242,222.368,384.091,224.031,383.94z"/>
	<path style="fill:#DC8744;" d="M254.261,380.01v38.393c-1.663,0.302-3.326,0.605-5.038,0.857h-0.05
		c-1.663,0.252-3.275,0.554-4.988,0.755v-38.393c1.713-0.201,3.325-0.504,4.988-0.756h0.05
		C250.935,380.614,252.598,380.312,254.261,380.01z"/>
	<path style="fill:#DC8744;" d="M284.491,372.855v38.393c-1.663,0.504-3.326,1.007-5.038,1.512h-0.05
		c-1.612,0.453-3.275,0.907-4.988,1.36v-38.393c1.713-0.453,3.376-0.907,4.988-1.36h0.05
		C281.166,373.863,282.829,373.359,284.491,372.855z"/>
	<path style="fill:#DC8744;" d="M314.722,359.705v38.493c-1.562,0.958-3.225,1.965-5.038,2.872c0,0-0.05,0-0.05,0.05
		c-1.562,0.857-3.225,1.663-4.988,2.519v-38.393c1.763-0.857,3.426-1.662,4.988-2.569
		C311.447,361.77,313.109,360.763,314.722,359.705z"/>
</g>
<path style="fill:#F6C358;" d="M286.332,278.302v38.393c0,8.414-6.197,16.324-17.181,23.277c-1.562,0.958-3.225,1.965-5.038,2.872
	c0,0-0.05,0-0.05,0.05c-1.562,0.857-3.225,1.663-4.988,2.519c-5.895,2.771-12.697,5.341-20.154,7.608
	c-1.663,0.504-3.326,1.007-5.038,1.512h-0.05c-1.612,0.453-3.275,0.907-4.988,1.36c-6.348,1.612-13.05,3.073-20.154,4.283
	c-1.663,0.302-3.326,0.605-5.038,0.857h-0.05c-1.663,0.252-3.275,0.554-4.988,0.755c-6.499,0.957-13.201,1.714-20.154,2.317
	c-1.663,0.151-3.326,0.303-5.038,0.403h-0.05c-1.663,0.151-3.275,0.252-4.988,0.353c-6.55,0.402-13.301,0.654-20.154,0.705
	c-1.663,0.05-3.326,0.05-5.038,0.05h-0.05c-1.713,0-3.325,0-4.988-0.05c-6.852-0.05-13.604-0.303-20.154-0.705
	c-1.713-0.101-3.376-0.202-5.038-0.353h-0.05c-1.713-0.101-3.325-0.252-4.988-0.403c-6.953-0.604-13.654-1.36-20.154-2.317
	c-1.713-0.202-3.376-0.504-5.038-0.755h-0.05c-1.713-0.252-3.325-0.555-4.988-0.857c-7.104-1.21-13.805-2.671-20.154-4.283
	c-1.713-0.454-3.426-0.907-5.038-1.36h-0.05c-1.713-0.504-3.325-1.007-4.988-1.512c-7.457-2.267-14.259-4.837-20.154-7.608
	c-1.764-0.806-3.426-1.662-5.038-2.57c0,0-0.05,0-0.05-0.05c-1.763-0.856-3.426-1.813-4.988-2.821
	C6.248,333.069,0,325.108,0,316.694v-38.393H286.332z"/>
<path style="fill:#FCD462;" d="M286.332,278.302c0,8.414-6.197,16.324-17.181,23.177c-1.612,1.058-3.275,2.065-5.089,2.973
	c-1.562,0.907-3.225,1.712-4.988,2.569c-5.895,2.771-12.697,5.291-20.154,7.608c-1.663,0.504-3.326,1.008-5.038,1.511h-0.05
	c-1.612,0.454-3.275,0.908-4.988,1.36c-6.348,1.613-13.05,3.074-20.154,4.283c-1.663,0.303-3.326,0.605-5.038,0.856h-0.05
	c-1.663,0.252-3.275,0.555-4.988,0.756c-6.499,0.958-13.201,1.713-20.154,2.318c-1.663,0.151-3.326,0.302-5.038,0.403h-0.05
	c-1.663,0.151-3.275,0.252-4.988,0.352c-6.55,0.404-13.301,0.656-20.154,0.705c-1.663,0.05-3.326,0.05-5.038,0.05h-0.05
	c-1.713,0-3.325,0-4.988-0.05c-6.852-0.05-13.604-0.302-20.154-0.705c-1.713-0.101-3.376-0.202-5.038-0.352h-0.05
	c-1.713-0.101-3.325-0.252-4.988-0.403c-6.953-0.605-13.654-1.36-20.154-2.318c-1.713-0.201-3.376-0.504-5.038-0.756h-0.05
	c-1.713-0.252-3.325-0.554-4.988-0.856c-7.104-1.209-13.805-2.671-20.154-4.283c-1.713-0.453-3.426-0.907-5.038-1.36h-0.05
	c-1.713-0.503-3.325-1.007-4.988-1.511c-7.457-2.268-14.259-4.837-20.154-7.608c-1.764-0.806-3.426-1.662-5.038-2.569
	c0,0-0.05,0-0.05-0.05c-1.763-0.857-3.426-1.814-4.988-2.822C6.248,294.677,0,286.716,0,278.302
	c0-27.006,64.139-48.923,143.191-48.923S286.332,251.296,286.332,278.302z"/>
<path style="fill:#F6C358;" d="M142.76,313.553c-1.435,0-2.799-0.002-4.206-0.042c-6.613-0.053-13.144-0.283-19.717-0.685
	c-1.593-0.096-3.115-0.185-4.637-0.325l-0.619-0.056h-0.254c-1.295-0.082-2.532-0.198-3.796-0.311
	c-7.439-0.65-13.767-1.377-19.768-2.263c-1.382-0.169-2.334-0.325-3.282-0.478l-2.755-0.423c-1.012-0.165-3.585-0.636-3.585-0.636
	c-6.504-1.106-12.746-2.432-19.238-4.083c-1.52-0.401-3.157-0.834-4.702-1.268l-4.766-1.435c-5.679-1.727-10.894-3.62-15.547-5.647
	v-0.053l-7.63-3.709l-2.414-1.355h-0.091c-0.369-0.22-0.739-0.449-1.11-0.688c-8.135-5.116-10.972-9.535-10.972-11.791
	c0-12.427,49.173-35.253,129.52-35.253c80.314,0,129.469,22.825,129.469,35.253c0,2.247-2.815,6.629-10.745,11.58
	c-1.68,1.095-2.862,1.789-3.972,2.345l-0.739,0.398c-1.246,0.723-2.579,1.357-3.983,2.038c-4.995,2.35-11.181,4.679-18.357,6.909
	l-4.735,1.408c-1.544,0.434-3.133,0.868-4.771,1.299c-6.373,1.62-12.614,2.946-18.96,4.025c-1.377,0.249-2.65,0.483-3.925,0.685
	l-2.721,0.418c-0.897,0.147-1.793,0.298-2.726,0.407c-6.415,0.939-12.741,1.667-19.752,2.276c-1.442,0.131-2.841,0.26-4.268,0.352
	l-0.874,0.056c-1.52,0.138-2.997,0.229-4.564,0.323c-6.595,0.405-13.126,0.634-19.441,0.681c-1.693,0.047-3.133,0.049-4.586,0.049
	C143.426,313.553,142.887,313.553,142.76,313.553z"/>
<g>
	<path style="fill:#DC8744;" d="M27.308,307.02v38.393c-1.764-0.806-3.426-1.662-5.038-2.57c0,0-0.05,0-0.05-0.05
		c-1.763-0.856-3.426-1.813-4.988-2.821v-38.393c1.562,1.007,3.225,1.964,4.988,2.822c0,0.05,0.05,0.05,0.05,0.05
		C23.882,305.358,25.544,306.214,27.308,307.02z"/>
	<path style="fill:#DC8744;" d="M57.538,317.5v38.393c-1.713-0.454-3.426-0.907-5.038-1.36h-0.05
		c-1.713-0.504-3.325-1.007-4.988-1.512v-38.393c1.663,0.504,3.275,1.008,4.988,1.511h0.05
		C54.112,316.594,55.825,317.047,57.538,317.5z"/>
	<path style="fill:#DC8744;" d="M87.769,323.395v38.393c-1.713-0.202-3.376-0.504-5.038-0.755h-0.05
		c-1.713-0.252-3.325-0.555-4.988-0.857v-38.393c1.663,0.303,3.275,0.605,4.988,0.856h0.05
		C84.393,322.891,86.056,323.194,87.769,323.395z"/>
	<path style="fill:#DC8744;" d="M117.999,326.469v38.393c-1.713-0.101-3.376-0.202-5.038-0.353h-0.05
		c-1.713-0.101-3.325-0.252-4.988-0.403v-38.392c1.663,0.151,3.275,0.302,4.988,0.403h0.05
		C114.624,326.267,116.286,326.368,117.999,326.469z"/>
	<path style="fill:#DC8744;" d="M148.23,327.174v38.393c-1.663,0.05-3.326,0.05-5.038,0.05h-0.05c-1.713,0-3.325,0-4.988-0.05
		v-38.393c1.663,0.05,3.275,0.05,4.988,0.05h0.05C144.904,327.224,146.567,327.224,148.23,327.174z"/>
	<path style="fill:#DC8744;" d="M178.46,325.713v38.392c-1.663,0.151-3.326,0.303-5.038,0.403h-0.05
		c-1.663,0.151-3.275,0.252-4.988,0.353v-38.393c1.713-0.101,3.325-0.202,4.988-0.352h0.05
		C175.134,326.015,176.797,325.865,178.46,325.713z"/>
	<path style="fill:#DC8744;" d="M208.69,321.783v38.393c-1.663,0.302-3.326,0.605-5.038,0.857h-0.05
		c-1.663,0.252-3.275,0.554-4.988,0.755v-38.393c1.713-0.201,3.325-0.504,4.988-0.756h0.05
		C205.365,322.388,207.028,322.086,208.69,321.783z"/>
	<path style="fill:#DC8744;" d="M238.921,314.628v38.393c-1.663,0.504-3.326,1.007-5.038,1.512h-0.05
		c-1.612,0.453-3.275,0.907-4.988,1.36V317.5c1.713-0.453,3.376-0.907,4.988-1.36h0.05
		C235.595,315.637,237.258,315.132,238.921,314.628z"/>
	<path style="fill:#DC8744;" d="M269.151,301.478v38.493c-1.562,0.958-3.225,1.965-5.038,2.872c0,0-0.05,0-0.05,0.05
		c-1.562,0.857-3.225,1.663-4.988,2.519V307.02c1.763-0.857,3.426-1.662,4.988-2.569
		C265.876,303.544,267.539,302.536,269.151,301.478z"/>
</g>
<path style="fill:#F6C358;" d="M331.902,217.378v38.393c0,8.414-6.197,16.324-17.181,23.277c-1.562,0.958-3.225,1.965-5.038,2.872
	c0,0-0.05,0-0.05,0.05c-1.562,0.857-3.225,1.663-4.988,2.519c-5.895,2.771-12.697,5.341-20.154,7.608
	c-1.663,0.504-3.326,1.007-5.038,1.512h-0.05c-1.612,0.453-3.275,0.907-4.988,1.36c-6.348,1.612-13.05,3.073-20.154,4.283
	c-1.663,0.302-3.326,0.605-5.038,0.857h-0.05c-1.663,0.252-3.275,0.554-4.988,0.755c-6.499,0.957-13.201,1.714-20.154,2.317
	c-1.663,0.151-3.326,0.303-5.038,0.403h-0.05c-1.663,0.151-3.275,0.252-4.988,0.353c-6.55,0.402-13.301,0.654-20.154,0.705
	c-1.663,0.05-3.326,0.05-5.038,0.05h-0.05c-1.713,0-3.325,0-4.988-0.05c-6.852-0.05-13.604-0.303-20.154-0.705
	c-1.713-0.101-3.376-0.202-5.038-0.353h-0.05c-1.713-0.101-3.325-0.252-4.988-0.403c-6.953-0.604-13.654-1.36-20.154-2.317
	c-1.713-0.202-3.376-0.504-5.038-0.755h-0.05c-1.713-0.252-3.325-0.555-4.988-0.857c-7.104-1.21-13.805-2.671-20.154-4.283
	c-1.713-0.454-3.426-0.907-5.038-1.36h-0.05c-1.713-0.504-3.325-1.007-4.988-1.512c-7.457-2.267-14.259-4.837-20.154-7.608
	c-1.764-0.806-3.426-1.662-5.038-2.57c0,0-0.05,0-0.05-0.05c-1.763-0.856-3.426-1.813-4.988-2.821
	c-10.984-6.903-17.231-14.864-17.231-23.277v-38.393H331.902z"/>
<path style="fill:#FCD462;" d="M331.902,217.378c0,8.414-6.197,16.324-17.181,23.176c-1.612,1.058-3.275,2.065-5.089,2.973
	c-1.562,0.907-3.225,1.712-4.988,2.569c-5.895,2.771-12.697,5.291-20.154,7.608c-1.663,0.504-3.326,1.008-5.038,1.511h-0.05
	c-1.612,0.454-3.275,0.908-4.988,1.36c-6.348,1.613-13.05,3.074-20.154,4.283c-1.663,0.303-3.326,0.605-5.038,0.856h-0.05
	c-1.663,0.252-3.275,0.555-4.988,0.756c-6.499,0.958-13.201,1.713-20.154,2.318c-1.663,0.151-3.326,0.302-5.038,0.403h-0.05
	c-1.663,0.151-3.275,0.252-4.988,0.352c-6.55,0.403-13.301,0.656-20.154,0.705c-1.663,0.05-3.326,0.05-5.038,0.05h-0.05
	c-1.713,0-3.325,0-4.988-0.05c-6.852-0.05-13.604-0.302-20.154-0.705c-1.713-0.101-3.376-0.202-5.038-0.352h-0.05
	c-1.713-0.101-3.325-0.252-4.988-0.403c-6.953-0.605-13.654-1.36-20.154-2.318c-1.713-0.201-3.376-0.504-5.038-0.756h-0.05
	c-1.713-0.252-3.325-0.554-4.988-0.856c-7.104-1.209-13.805-2.67-20.154-4.283c-1.713-0.453-3.426-0.907-5.038-1.36h-0.05
	c-1.713-0.503-3.325-1.007-4.988-1.511c-7.457-2.268-14.259-4.837-20.154-7.608c-1.764-0.806-3.426-1.662-5.038-2.569
	c0,0-0.05,0-0.05-0.05c-1.763-0.857-3.426-1.814-4.988-2.822c-10.984-6.903-17.231-14.863-17.231-23.277
	c0-27.006,64.139-48.923,143.191-48.923S331.902,190.372,331.902,217.378z"/>
<path style="fill:#F6C358;" d="M188.313,252.63c-1.422,0-2.777-0.002-4.17-0.045c-6.631-0.053-13.162-0.283-19.735-0.685
	c-1.604-0.096-3.122-0.187-4.637-0.325l-0.619-0.056h-0.254c-1.295-0.082-2.532-0.198-3.796-0.312
	c-7.43-0.65-13.758-1.377-19.772-2.261c-1.357-0.167-2.307-0.325-3.253-0.476l-2.779-0.427c-1.006-0.162-3.591-0.636-3.591-0.636
	c-6.5-1.106-12.741-2.432-19.232-4.083c-1.52-0.401-3.157-0.834-4.697-1.268l-4.793-1.437c-5.656-1.72-10.868-3.616-15.525-5.643
	v-0.056l-7.623-3.705l-2.416-1.36h-0.098c-0.367-0.218-0.734-0.447-1.099-0.683c-8.144-5.118-10.981-9.537-10.981-11.795
	c0-12.427,49.173-35.253,129.52-35.253c80.314,0,129.469,22.825,129.469,35.253c0,2.247-2.815,6.629-10.745,11.58
	c-1.68,1.095-2.862,1.789-3.972,2.345l-0.739,0.398c-1.268,0.737-2.628,1.382-4.059,2.078c-4.915,2.31-11.106,4.639-18.284,6.871
	l-4.733,1.406c-1.544,0.434-3.133,0.868-4.771,1.299c-6.373,1.62-12.614,2.946-18.96,4.025c-1.395,0.254-2.663,0.485-3.934,0.685
	l-2.746,0.423c-0.892,0.147-1.782,0.296-2.71,0.405c-6.404,0.939-12.734,1.664-19.735,2.274c-1.453,0.133-2.846,0.26-4.27,0.352
	l-0.872,0.056c-1.515,0.138-2.986,0.229-4.546,0.32c-6.613,0.407-13.144,0.636-19.459,0.683c-1.702,0.049-3.133,0.051-4.579,0.051
	C189.001,252.63,188.445,252.63,188.313,252.63z"/>
<g>
	<path style="fill:#DC8744;" d="M72.879,246.096v38.393c-1.764-0.806-3.426-1.662-5.038-2.57c0,0-0.05,0-0.05-0.05
		c-1.763-0.856-3.426-1.813-4.988-2.821v-38.393c1.562,1.007,3.225,1.964,4.988,2.822c0,0.05,0.05,0.05,0.05,0.05
		C69.453,244.434,71.115,245.29,72.879,246.096z"/>
	<path style="fill:#DC8744;" d="M103.109,256.576v38.393c-1.713-0.454-3.426-0.907-5.038-1.36h-0.05
		c-1.713-0.504-3.325-1.007-4.988-1.512v-38.393c1.663,0.504,3.275,1.008,4.988,1.511h0.05
		C99.683,255.669,101.396,256.123,103.109,256.576z"/>
	<path style="fill:#DC8744;" d="M133.339,262.471v38.393c-1.713-0.202-3.376-0.504-5.038-0.755h-0.05
		c-1.713-0.252-3.325-0.555-4.988-0.857v-38.393c1.663,0.303,3.275,0.605,4.988,0.856h0.05
		C129.964,261.967,131.626,262.27,133.339,262.471z"/>
	<path style="fill:#DC8744;" d="M163.57,265.545v38.393c-1.713-0.101-3.376-0.202-5.038-0.353h-0.05
		c-1.713-0.101-3.325-0.252-4.988-0.403v-38.392c1.663,0.151,3.275,0.302,4.988,0.403h0.05
		C160.194,265.343,161.857,265.444,163.57,265.545z"/>
	<path style="fill:#DC8744;" d="M193.8,266.25v38.393c-1.663,0.05-3.326,0.05-5.038,0.05h-0.05c-1.713,0-3.325,0-4.988-0.05V266.25
		c1.663,0.05,3.275,0.05,4.988,0.05h0.05C190.475,266.3,192.137,266.3,193.8,266.25z"/>
	<path style="fill:#DC8744;" d="M224.031,264.789v38.392c-1.663,0.151-3.326,0.303-5.038,0.403h-0.05
		c-1.663,0.151-3.275,0.252-4.988,0.353v-38.393c1.713-0.101,3.325-0.202,4.988-0.352h0.05
		C220.705,265.091,222.368,264.941,224.031,264.789z"/>
	<path style="fill:#DC8744;" d="M254.261,260.859v38.393c-1.663,0.302-3.326,0.605-5.038,0.857h-0.05
		c-1.663,0.252-3.275,0.554-4.988,0.755v-38.393c1.713-0.201,3.325-0.504,4.988-0.756h0.05
		C250.935,261.464,252.598,261.162,254.261,260.859z"/>
	<path style="fill:#DC8744;" d="M284.491,253.704v38.393c-1.663,0.504-3.326,1.007-5.038,1.512h-0.05
		c-1.612,0.453-3.275,0.907-4.988,1.36v-38.393c1.713-0.453,3.376-0.907,4.988-1.36h0.05
		C281.166,254.712,282.829,254.208,284.491,253.704z"/>
	<path style="fill:#DC8744;" d="M314.722,240.554v38.493c-1.562,0.958-3.225,1.965-5.038,2.872c0,0-0.05,0-0.05,0.05
		c-1.562,0.857-3.225,1.663-4.988,2.519v-38.393c1.763-0.857,3.426-1.662,4.988-2.569
		C311.447,242.62,313.109,241.612,314.722,240.554z"/>
</g>
<path style="fill:#F6C358;" d="M286.332,166.027v38.393c0,8.414-6.197,16.324-17.181,23.277c-1.562,0.958-3.225,1.965-5.038,2.872
	c0,0-0.05,0-0.05,0.05c-1.562,0.857-3.225,1.663-4.988,2.519c-5.895,2.771-12.697,5.341-20.154,7.608
	c-1.663,0.504-3.326,1.007-5.038,1.512h-0.05c-1.612,0.453-3.275,0.907-4.988,1.36c-6.348,1.612-13.05,3.073-20.154,4.283
	c-1.663,0.302-3.326,0.605-5.038,0.857h-0.05c-1.663,0.252-3.275,0.554-4.988,0.755c-6.499,0.957-13.201,1.714-20.154,2.317
	c-1.663,0.151-3.326,0.303-5.038,0.403h-0.05c-1.663,0.151-3.275,0.252-4.988,0.353c-6.55,0.402-13.301,0.654-20.154,0.705
	c-1.663,0.05-3.326,0.05-5.038,0.05h-0.05c-1.713,0-3.325,0-4.988-0.05c-6.852-0.05-13.604-0.303-20.154-0.705
	c-1.713-0.101-3.376-0.202-5.038-0.353h-0.05c-1.713-0.101-3.325-0.252-4.988-0.403c-6.953-0.604-13.654-1.36-20.154-2.317
	c-1.713-0.202-3.376-0.504-5.038-0.755h-0.05c-1.713-0.252-3.325-0.555-4.988-0.857c-7.104-1.21-13.805-2.671-20.154-4.283
	c-1.713-0.454-3.426-0.907-5.038-1.36h-0.05c-1.713-0.504-3.325-1.007-4.988-1.512c-7.457-2.267-14.259-4.837-20.154-7.608
	c-1.764-0.806-3.426-1.662-5.038-2.57c0,0-0.05,0-0.05-0.05c-1.763-0.856-3.426-1.813-4.988-2.821C6.248,220.795,0,212.834,0,204.42
	v-38.393H286.332z"/>
<path style="fill:#FCD462;" d="M286.332,166.027c0,8.414-6.197,16.324-17.181,23.176c-1.612,1.058-3.275,2.065-5.089,2.973
	c-1.562,0.907-3.225,1.712-4.988,2.569c-5.895,2.771-12.697,5.291-20.154,7.608c-1.663,0.504-3.326,1.008-5.038,1.511h-0.05
	c-1.612,0.454-3.275,0.908-4.988,1.36c-6.348,1.613-13.05,3.074-20.154,4.283c-1.663,0.303-3.326,0.605-5.038,0.856h-0.05
	c-1.663,0.252-3.275,0.555-4.988,0.756c-6.499,0.958-13.201,1.713-20.154,2.318c-1.663,0.151-3.326,0.302-5.038,0.403h-0.05
	c-1.663,0.151-3.275,0.252-4.988,0.352c-6.55,0.403-13.301,0.656-20.154,0.705c-1.663,0.05-3.326,0.05-5.038,0.05h-0.05
	c-1.713,0-3.325,0-4.988-0.05c-6.852-0.05-13.604-0.302-20.154-0.705c-1.713-0.101-3.376-0.202-5.038-0.352h-0.05
	c-1.713-0.101-3.325-0.252-4.988-0.403c-6.953-0.605-13.654-1.36-20.154-2.318c-1.713-0.201-3.376-0.504-5.038-0.756h-0.05
	c-1.713-0.252-3.325-0.554-4.988-0.856c-7.104-1.209-13.805-2.671-20.154-4.283c-1.713-0.453-3.426-0.907-5.038-1.36h-0.05
	c-1.713-0.503-3.325-1.007-4.988-1.511c-7.457-2.268-14.259-4.837-20.154-7.608c-1.764-0.806-3.426-1.662-5.038-2.569
	c0,0-0.05,0-0.05-0.05c-1.763-0.857-3.426-1.814-4.988-2.822C6.248,182.402,0,174.442,0,166.027
	c0-27.006,64.139-48.923,143.191-48.923S286.332,139.022,286.332,166.027z"/>
<path style="fill:#F6C358;" d="M142.76,201.278c-1.435,0-2.799-0.002-4.206-0.042c-6.613-0.053-13.144-0.283-19.717-0.685
	c-1.593-0.096-3.115-0.185-4.637-0.325l-0.619-0.056h-0.254c-1.295-0.082-2.532-0.198-3.796-0.312
	c-7.439-0.65-13.767-1.377-19.768-2.263c-1.382-0.169-2.334-0.325-3.282-0.478l-2.755-0.423c-1.012-0.165-3.585-0.636-3.585-0.636
	c-6.504-1.106-12.746-2.432-19.238-4.083c-1.52-0.401-3.157-0.834-4.702-1.268l-4.766-1.435c-5.679-1.727-10.894-3.62-15.547-5.647
	v-0.053l-7.63-3.709l-2.414-1.355h-0.091c-0.369-0.22-0.739-0.449-1.11-0.688c-8.135-5.116-10.972-9.535-10.972-11.791
	c0-12.427,49.173-35.253,129.52-35.253c80.314,0,129.469,22.825,129.469,35.253c0,2.247-2.815,6.629-10.745,11.58
	c-1.68,1.095-2.862,1.789-3.972,2.345l-0.739,0.398c-1.246,0.723-2.579,1.357-3.983,2.038c-4.995,2.35-11.181,4.679-18.357,6.909
	l-4.735,1.408c-1.544,0.434-3.133,0.868-4.771,1.299c-6.373,1.62-12.614,2.946-18.96,4.025c-1.377,0.249-2.65,0.483-3.925,0.685
	l-2.721,0.418c-0.897,0.147-1.793,0.298-2.726,0.407c-6.415,0.939-12.741,1.667-19.752,2.276c-1.442,0.131-2.841,0.26-4.268,0.352
	l-0.874,0.056c-1.52,0.138-2.997,0.229-4.564,0.323c-6.595,0.405-13.126,0.634-19.441,0.681c-1.693,0.047-3.133,0.049-4.586,0.049
	C143.426,201.278,142.887,201.278,142.76,201.278z"/>
<g>
	<path style="fill:#DC8744;" d="M27.308,194.746v38.393c-1.764-0.806-3.426-1.662-5.038-2.57c0,0-0.05,0-0.05-0.05
		c-1.763-0.856-3.426-1.813-4.988-2.821v-38.393c1.562,1.007,3.225,1.964,4.988,2.822c0,0.05,0.05,0.05,0.05,0.05
		C23.882,193.083,25.544,193.94,27.308,194.746z"/>
	<path style="fill:#DC8744;" d="M57.538,205.226v38.393c-1.713-0.454-3.426-0.907-5.038-1.36h-0.05
		c-1.713-0.504-3.325-1.007-4.988-1.512v-38.393c1.663,0.504,3.275,1.008,4.988,1.511h0.05
		C54.112,204.319,55.825,204.773,57.538,205.226z"/>
	<path style="fill:#DC8744;" d="M87.769,211.121v38.393c-1.713-0.202-3.376-0.504-5.038-0.755h-0.05
		c-1.713-0.252-3.325-0.555-4.988-0.857v-38.393c1.663,0.303,3.275,0.605,4.988,0.856h0.05
		C84.393,210.617,86.056,210.92,87.769,211.121z"/>
	<path style="fill:#DC8744;" d="M117.999,214.194v38.393c-1.713-0.101-3.376-0.202-5.038-0.353h-0.05
		c-1.713-0.101-3.325-0.252-4.988-0.403v-38.392c1.663,0.151,3.275,0.302,4.988,0.403h0.05
		C114.624,213.992,116.286,214.093,117.999,214.194z"/>
	<path style="fill:#DC8744;" d="M148.23,214.9v38.393c-1.663,0.05-3.326,0.05-5.038,0.05h-0.05c-1.713,0-3.325,0-4.988-0.05V214.9
		c1.663,0.05,3.275,0.05,4.988,0.05h0.05C144.904,214.95,146.567,214.95,148.23,214.9z"/>
	<path style="fill:#DC8744;" d="M178.46,213.439v38.392c-1.663,0.151-3.326,0.303-5.038,0.403h-0.05
		c-1.663,0.151-3.275,0.252-4.988,0.353v-38.393c1.713-0.101,3.325-0.202,4.988-0.352h0.05
		C175.134,213.741,176.797,213.59,178.46,213.439z"/>
	<path style="fill:#DC8744;" d="M208.69,209.509v38.393c-1.663,0.302-3.326,0.605-5.038,0.857h-0.05
		c-1.663,0.252-3.275,0.554-4.988,0.755v-38.393c1.713-0.201,3.325-0.504,4.988-0.756h0.05
		C205.365,210.113,207.028,209.811,208.69,209.509z"/>
	<path style="fill:#DC8744;" d="M238.921,202.354v38.393c-1.663,0.504-3.326,1.007-5.038,1.512h-0.05
		c-1.612,0.453-3.275,0.907-4.988,1.36v-38.393c1.713-0.453,3.376-0.907,4.988-1.36h0.05
		C235.595,203.362,237.258,202.858,238.921,202.354z"/>
	<path style="fill:#DC8744;" d="M269.151,189.204v38.493c-1.562,0.958-3.225,1.965-5.038,2.872c0,0-0.05,0-0.05,0.05
		c-1.562,0.857-3.225,1.663-4.988,2.519v-38.393c1.763-0.857,3.426-1.662,4.988-2.569
		C265.876,191.269,267.539,190.262,269.151,189.204z"/>
</g>
<path style="fill:#F6C358;" d="M331.902,98.227v38.393c0,8.414-6.197,16.324-17.181,23.277c-1.562,0.958-3.225,1.965-5.038,2.872
	c0,0-0.05,0-0.05,0.05c-1.562,0.857-3.225,1.663-4.988,2.519c-5.895,2.771-12.697,5.341-20.154,7.608
	c-1.663,0.504-3.326,1.007-5.038,1.512h-0.05c-1.612,0.453-3.275,0.907-4.988,1.36c-6.348,1.612-13.05,3.073-20.154,4.283
	c-1.663,0.302-3.326,0.605-5.038,0.857h-0.05c-1.663,0.252-3.275,0.554-4.988,0.755c-6.499,0.957-13.201,1.714-20.154,2.317
	c-1.663,0.151-3.326,0.303-5.038,0.403h-0.05c-1.663,0.151-3.275,0.252-4.988,0.353c-6.55,0.402-13.301,0.654-20.154,0.705
	c-1.663,0.05-3.326,0.05-5.038,0.05h-0.05c-1.713,0-3.325,0-4.988-0.05c-6.852-0.05-13.604-0.303-20.154-0.705
	c-1.713-0.101-3.376-0.202-5.038-0.353h-0.05c-1.713-0.101-3.325-0.252-4.988-0.403c-6.953-0.604-13.654-1.36-20.154-2.317
	c-1.713-0.202-3.376-0.504-5.038-0.755h-0.05c-1.713-0.252-3.325-0.555-4.988-0.857c-7.104-1.21-13.805-2.671-20.154-4.283
	c-1.713-0.454-3.426-0.907-5.038-1.36h-0.05c-1.713-0.504-3.325-1.007-4.988-1.512c-7.457-2.267-14.259-4.837-20.154-7.608
	c-1.764-0.806-3.426-1.662-5.038-2.57c0,0-0.05,0-0.05-0.05c-1.763-0.856-3.426-1.813-4.988-2.821
	c-10.984-6.903-17.231-14.864-17.231-23.277V98.227H331.902z"/>
<path style="fill:#FCD462;" d="M331.902,98.227c0,8.414-6.197,16.324-17.181,23.176c-1.612,1.058-3.275,2.065-5.089,2.973
	c-1.562,0.907-3.225,1.712-4.988,2.569c-5.895,2.771-12.697,5.291-20.154,7.608c-1.663,0.504-3.326,1.008-5.038,1.511h-0.05
	c-1.612,0.454-3.275,0.908-4.988,1.36c-6.348,1.613-13.05,3.074-20.154,4.283c-1.663,0.303-3.326,0.605-5.038,0.856h-0.05
	c-1.663,0.252-3.275,0.555-4.988,0.756c-6.499,0.958-13.201,1.713-20.154,2.318c-1.663,0.151-3.326,0.302-5.038,0.403h-0.05
	c-1.663,0.151-3.275,0.252-4.988,0.352c-6.55,0.403-13.301,0.656-20.154,0.705c-1.663,0.05-3.326,0.05-5.038,0.05h-0.05
	c-1.713,0-3.325,0-4.988-0.05c-6.852-0.05-13.604-0.302-20.154-0.705c-1.713-0.101-3.376-0.202-5.038-0.352h-0.05
	c-1.713-0.101-3.325-0.252-4.988-0.403c-6.953-0.605-13.654-1.36-20.154-2.318c-1.713-0.201-3.376-0.504-5.038-0.756h-0.05
	c-1.713-0.252-3.325-0.554-4.988-0.856c-7.104-1.209-13.805-2.67-20.154-4.283c-1.713-0.453-3.426-0.907-5.038-1.36h-0.05
	c-1.713-0.503-3.325-1.007-4.988-1.511c-7.457-2.268-14.259-4.837-20.154-7.608c-1.764-0.806-3.426-1.662-5.038-2.569
	c0,0-0.05,0-0.05-0.05c-1.763-0.857-3.426-1.814-4.988-2.822c-10.984-6.903-17.231-14.863-17.231-23.277
	c0-27.006,64.139-48.923,143.191-48.923S331.902,71.221,331.902,98.227z"/>
<path style="fill:#F6C358;" d="M188.313,133.48c-1.422,0-2.777-0.002-4.17-0.045c-6.631-0.053-13.162-0.283-19.735-0.685
	c-1.604-0.096-3.122-0.187-4.637-0.325l-0.619-0.056h-0.254c-1.295-0.082-2.532-0.198-3.796-0.312
	c-7.43-0.65-13.758-1.377-19.772-2.261c-1.357-0.167-2.307-0.325-3.253-0.476l-2.779-0.427c-1.006-0.162-3.591-0.636-3.591-0.636
	c-6.5-1.106-12.741-2.432-19.232-4.083c-1.52-0.401-3.157-0.834-4.697-1.268l-4.793-1.437c-5.656-1.72-10.868-3.616-15.525-5.643
	v-0.056l-7.623-3.705l-2.416-1.36h-0.098c-0.367-0.218-0.734-0.447-1.099-0.683c-8.144-5.118-10.981-9.537-10.981-11.795
	c0-12.427,49.173-35.253,129.52-35.253c80.314,0,129.469,22.825,129.469,35.253c0,2.247-2.815,6.629-10.745,11.58
	c-1.68,1.095-2.862,1.789-3.972,2.345l-0.739,0.398c-1.268,0.737-2.628,1.382-4.059,2.078c-4.915,2.31-11.106,4.639-18.284,6.871
	l-4.733,1.406c-1.544,0.434-3.133,0.868-4.771,1.299c-6.373,1.62-12.614,2.946-18.96,4.025c-1.395,0.254-2.663,0.485-3.934,0.685
	l-2.746,0.423c-0.892,0.147-1.782,0.296-2.71,0.405c-6.404,0.939-12.734,1.664-19.735,2.274c-1.453,0.134-2.846,0.26-4.27,0.352
	l-0.872,0.056c-1.515,0.138-2.986,0.229-4.546,0.32c-6.613,0.407-13.144,0.636-19.459,0.683c-1.702,0.049-3.133,0.051-4.579,0.051
	C189.001,133.48,188.445,133.48,188.313,133.48z"/>
<g>
	<path style="fill:#DC8744;" d="M72.879,126.946v38.393c-1.764-0.806-3.426-1.662-5.038-2.57c0,0-0.05,0-0.05-0.05
		c-1.763-0.856-3.426-1.813-4.988-2.821v-38.393c1.562,1.007,3.225,1.964,4.988,2.822c0,0.05,0.05,0.05,0.05,0.05
		C69.453,125.283,71.115,126.14,72.879,126.946z"/>
	<path style="fill:#DC8744;" d="M103.109,137.425v38.393c-1.713-0.454-3.426-0.907-5.038-1.36h-0.05
		c-1.713-0.504-3.325-1.007-4.988-1.512v-38.393c1.663,0.504,3.275,1.008,4.988,1.511h0.05
		C99.683,136.519,101.396,136.973,103.109,137.425z"/>
	<path style="fill:#DC8744;" d="M133.339,143.321v38.393c-1.713-0.202-3.376-0.504-5.038-0.755h-0.05
		c-1.713-0.252-3.325-0.555-4.988-0.857v-38.393c1.663,0.303,3.275,0.605,4.988,0.856h0.05
		C129.964,142.817,131.626,143.12,133.339,143.321z"/>
	<path style="fill:#DC8744;" d="M163.57,146.394v38.393c-1.713-0.101-3.376-0.202-5.038-0.353h-0.05
		c-1.713-0.101-3.325-0.252-4.988-0.403v-38.392c1.663,0.151,3.275,0.302,4.988,0.403h0.05
		C160.194,146.192,161.857,146.293,163.57,146.394z"/>
	<path style="fill:#DC8744;" d="M193.8,147.099v38.393c-1.663,0.05-3.326,0.05-5.038,0.05h-0.05c-1.713,0-3.325,0-4.988-0.05
		v-38.393c1.663,0.05,3.275,0.05,4.988,0.05h0.05C190.475,147.15,192.137,147.15,193.8,147.099z"/>
	<path style="fill:#DC8744;" d="M224.031,145.639v38.392c-1.663,0.151-3.326,0.303-5.038,0.403h-0.05
		c-1.663,0.151-3.275,0.252-4.988,0.353v-38.393c1.713-0.101,3.325-0.202,4.988-0.352h0.05
		C220.705,145.941,222.368,145.79,224.031,145.639z"/>
	<path style="fill:#DC8744;" d="M254.261,141.709v38.393c-1.663,0.302-3.326,0.605-5.038,0.857h-0.05
		c-1.663,0.252-3.275,0.554-4.988,0.755v-38.393c1.713-0.201,3.325-0.504,4.988-0.756h0.05
		C250.935,142.313,252.598,142.011,254.261,141.709z"/>
	<path style="fill:#DC8744;" d="M284.491,134.554v38.393c-1.663,0.504-3.326,1.007-5.038,1.512h-0.05
		c-1.612,0.453-3.275,0.907-4.988,1.36v-38.393c1.713-0.453,3.376-0.907,4.988-1.36h0.05
		C281.166,135.562,282.829,135.058,284.491,134.554z"/>
	<path style="fill:#DC8744;" d="M314.722,121.404v38.493c-1.562,0.958-3.225,1.965-5.038,2.872c0,0-0.05,0-0.05,0.05
		c-1.562,0.857-3.225,1.663-4.988,2.519v-38.393c1.763-0.857,3.426-1.662,4.988-2.569
		C311.447,123.469,313.109,122.462,314.722,121.404z"/>
</g>
<g>
</g>
<g>
</g>
<g>
</g>
<g>
</g>
<g>
</g>
<g>
</g>
<g>
</g>
<g>
</g>
<g>
</g>
<g>
</g>
<g>
</g>
<g>
</g>
<g>
</g>
<g>
</g>
<g>
</g>
</svg>
