<?xml version="1.0" encoding="iso-8859-1"?>
<!-- Generator: Adobe Illustrator 19.0.0, SVG Export Plug-In . SVG Version: 6.00 Build 0)  -->
<svg version="1.1" id="Capa_1" xmlns="http://www.w3.org/2000/svg" xmlns:xlink="http://www.w3.org/1999/xlink" x="0px" y="0px"
	 viewBox="0 0 468.293 468.293" style="enable-background:new 0 0 468.293 468.293;" xml:space="preserve">
<circle style="fill:#2F4859;" cx="234.146" cy="234.146" r="234.146"/>
<g>
	<circle style="fill:#EBF0F3;" cx="234.146" cy="234.146" r="209.171"/>
	<circle style="fill:#EBF0F3;" cx="234.146" cy="234.146" r="209.171"/>
</g>
<g>
	<path style="fill:#64798A;" d="M234.144,43.652c-5.171,0-9.366,4.192-9.366,9.366v12.598c0,5.174,4.195,9.366,9.366,9.366
		s9.366-4.192,9.366-9.366V53.017C243.51,47.844,239.315,43.652,234.144,43.652z"/>
	<path style="fill:#64798A;" d="M234.144,393.31c-5.171,0-9.366,4.192-9.366,9.366v12.598c0,5.174,4.195,9.366,9.366,9.366
		s9.366-4.192,9.366-9.366v-12.598C243.51,397.502,239.315,393.31,234.144,393.31z"/>
	<path style="fill:#64798A;" d="M368.844,99.446c-3.656-3.656-9.587-3.658-13.245,0l-8.908,8.908c-3.658,3.658-3.656,9.589,0,13.245
		c3.656,3.656,9.587,3.658,13.245,0l8.908-8.908C372.502,109.033,372.5,103.102,368.844,99.446z"/>
	<path style="fill:#64798A;" d="M121.598,346.692c-3.656-3.656-9.587-3.658-13.245,0l-8.908,8.908
		c-3.658,3.658-3.656,9.589,0,13.245c3.656,3.656,9.587,3.658,13.245,0l8.908-8.908
		C125.256,356.279,125.254,350.348,121.598,346.692z"/>
	<path style="fill:#64798A;" d="M424.638,234.146c0-5.171-4.192-9.366-9.366-9.366l-12.598,0c-5.174,0-9.366,4.195-9.366,9.366
		c0,5.171,4.192,9.366,9.366,9.366l12.598,0C420.446,243.512,424.638,239.316,424.638,234.146z"/>
	<path style="fill:#64798A;" d="M74.98,234.145c0-5.171-4.192-9.366-9.366-9.366H53.016c-5.174,0-9.366,4.195-9.366,9.366
		c0,5.171,4.192,9.366,9.366,9.366l12.598,0C70.787,243.511,74.98,239.316,74.98,234.145z"/>
	<path style="fill:#64798A;" d="M368.843,368.845c3.656-3.656,3.658-9.587,0-13.245l-8.908-8.908c-3.658-3.658-9.589-3.656-13.245,0
		c-3.656,3.656-3.658,9.587,0,13.245l8.908,8.908C359.257,372.504,365.187,372.502,368.843,368.845z"/>
	<path style="fill:#64798A;" d="M121.598,121.599c3.656-3.656,3.658-9.587,0-13.245l-8.908-8.908c-3.658-3.658-9.589-3.656-13.245,0
		c-3.656,3.656-3.658,9.587,0,13.245l8.908,8.908C112.011,125.257,117.942,125.255,121.598,121.599z"/>
	<path style="fill:#64798A;" d="M250.334,130.548l-11.702-12.808c-1.183-1.296-2.854-2.034-4.61-2.034
		c-1.756,0-3.427,0.738-4.61,2.03l-11.707,12.808c-2.327,2.546-2.149,6.495,0.397,8.822c2.546,2.326,6.495,2.148,8.821-0.397
		l0.978-1.069v70.757h12.488v-70.479l0.727,0.796c2.327,2.545,6.276,2.723,8.822,0.396
		C252.483,137.043,252.661,133.094,250.334,130.548z"/>
	<path style="fill:#64798A;" d="M141.397,306.763l-0.631,17.337c-0.065,1.753,0.61,3.451,1.862,4.681
		c1.253,1.231,2.961,1.876,4.711,1.783l17.328-0.929c3.444-0.185,6.086-3.126,5.901-6.57c-0.185-3.443-3.127-6.084-6.57-5.9
		l-1.447,0.077l62.085-62.951l-8.907-8.753l-61.89,62.754l0.039-1.077c0.124-3.446-2.568-6.341-6.014-6.466
		C144.418,300.625,141.523,303.317,141.397,306.763z"/>
</g>
<circle style="fill:#FCD462;" cx="234.146" cy="234.146" r="28.098"/>
<circle style="fill:#3A556A;" cx="234.146" cy="234.146" r="15.61"/>
<g>
</g>
<g>
</g>
<g>
</g>
<g>
</g>
<g>
</g>
<g>
</g>
<g>
</g>
<g>
</g>
<g>
</g>
<g>
</g>
<g>
</g>
<g>
</g>
<g>
</g>
<g>
</g>
<g>
</g>
</svg>
