<?xml version="1.0" encoding="iso-8859-1"?>
<!-- Generator: Adobe Illustrator 19.0.0, SVG Export Plug-In . SVG Version: 6.00 Build 0)  -->
<svg version="1.1" id="Capa_1" xmlns="http://www.w3.org/2000/svg" xmlns:xlink="http://www.w3.org/1999/xlink" x="0px" y="0px"
	 viewBox="0 0 468.293 468.293" style="enable-background:new 0 0 468.293 468.293;" xml:space="preserve">
<path style="fill:#DC8744;" d="M369.908,468.293H98.385c-13.794,0-24.976-11.182-24.976-24.976V91.425
	c0-13.794,11.182-24.976,24.976-24.976h271.523c13.794,0,24.976,11.182,24.976,24.976v351.892
	C394.884,457.111,383.702,468.293,369.908,468.293z"/>
<polygon style="fill:#E1E6E9;" points="372.052,87.35 96.241,87.35 96.241,447.392 311.985,447.392 372.052,387.326 "/>
<polygon style="fill:#EBF0F3;" points="311.985,447.392 372.052,387.326 311.985,387.326 "/>
<path style="fill:#64798A;" d="M264.998,47.87l0-15.588c0-16.97-13.074-31.834-30.038-32.271
	c-17.411-0.448-31.665,13.532-31.665,30.841V47.87h-43.503c-9.24,0-16.73,7.49-16.73,16.73v33.022h182.169V64.599
	c0-9.24-7.49-16.73-16.73-16.73H264.998z"/>
<path style="fill:#3A556A;" d="M234.146,46.754L234.146,46.754c-9.129,0-16.598-7.469-16.598-16.598v0
	c0-9.129,7.469-16.598,16.598-16.598h0c9.129,0,16.598,7.469,16.598,16.598v0C250.745,39.284,243.275,46.754,234.146,46.754z"/>
<g>
	<path style="fill:#D5D6DB;" d="M221.058,146.294h-96.442c-2.959,0-5.358,2.399-5.358,5.358c0,2.959,2.399,5.358,5.358,5.358h96.442
		c2.959,0,5.358-2.399,5.358-5.358C226.416,148.693,224.017,146.294,221.058,146.294z"/>
	<path style="fill:#D5D6DB;" d="M328.216,189.709H124.616c-2.959,0-5.358,2.399-5.358,5.358c0,2.959,2.399,5.358,5.358,5.358
		h203.601c2.959,0,5.358-2.399,5.358-5.358C333.574,192.108,331.175,189.709,328.216,189.709z"/>
	<path style="fill:#D5D6DB;" d="M221.058,233.123h-96.442c-2.959,0-5.358,2.399-5.358,5.358c0,2.959,2.399,5.358,5.358,5.358h96.442
		c2.959,0,5.358-2.399,5.358-5.358C226.416,235.522,224.017,233.123,221.058,233.123z"/>
	<path style="fill:#D5D6DB;" d="M328.216,276.538H124.616c-2.959,0-5.358,2.399-5.358,5.358c0,2.959,2.399,5.358,5.358,5.358
		h203.601c2.959,0,5.358-2.399,5.358-5.358C333.574,278.937,331.175,276.538,328.216,276.538z"/>
	<path style="fill:#D5D6DB;" d="M221.058,319.953h-96.442c-2.959,0-5.358,2.399-5.358,5.358c0,2.959,2.399,5.358,5.358,5.358h96.442
		c2.959,0,5.358-2.399,5.358-5.358C226.416,322.352,224.017,319.953,221.058,319.953z"/>
	<path style="fill:#D5D6DB;" d="M279.995,363.367H124.616c-2.959,0-5.358,2.399-5.358,5.358s2.399,5.358,5.358,5.358h155.379
		c2.959,0,5.358-2.399,5.358-5.358S282.954,363.367,279.995,363.367z"/>
</g>
<g>
</g>
<g>
</g>
<g>
</g>
<g>
</g>
<g>
</g>
<g>
</g>
<g>
</g>
<g>
</g>
<g>
</g>
<g>
</g>
<g>
</g>
<g>
</g>
<g>
</g>
<g>
</g>
<g>
</g>
</svg>
