<?xml version="1.0" encoding="iso-8859-1"?>
<!-- Generator: Adobe Illustrator 19.0.0, SVG Export Plug-In . SVG Version: 6.00 Build 0)  -->
<svg version="1.1" id="Capa_1" xmlns="http://www.w3.org/2000/svg" xmlns:xlink="http://www.w3.org/1999/xlink" x="0px" y="0px"
	 viewBox="0 0 468.293 468.293" style="enable-background:new 0 0 468.293 468.293;" xml:space="preserve">
<path style="fill:#D5D6DB;" d="M363.475,468.293H104.818c-10.345,0-18.732-8.386-18.732-18.732V75.747
	c0-10.345,8.386-18.732,18.732-18.732h258.657c10.345,0,18.732,8.386,18.732,18.732v373.814
	C382.206,459.906,373.82,468.293,363.475,468.293z"/>
<path style="fill:#64798A;" d="M302.233,67.603l-11.762-27.06c-1.953-4.492-6.385-7.398-11.284-7.398h-16.61V28.43
	c0-15.702-12.729-28.43-28.431-28.43c-15.702,0-28.43,12.729-28.43,28.43v4.715h-16.611c-4.898,0-9.331,2.906-11.283,7.398
	l-11.763,27.06c-1.766,4.063,1.212,8.604,5.643,8.604h124.89C301.022,76.208,303.999,71.666,302.233,67.603z"/>
<g>
	<path style="fill:#EBF0F3;" d="M340.501,442.979h-212.71c-6.897,0-12.488-5.591-12.488-12.488V114.009
		c0-6.897,5.591-12.488,12.488-12.488h212.71c6.897,0,12.488,5.591,12.488,12.488v316.482
		C352.989,437.388,347.398,442.979,340.501,442.979z"/>
	<circle style="fill:#EBF0F3;" cx="234.146" cy="26.149" r="13.712"/>
</g>
<g>
	<path style="fill:#64798A;" d="M175.937,179.322c-1.504,0-3.013-0.447-4.325-1.364l-16.5-11.551
		c-3.416-2.391-4.247-7.1-1.853-10.516c2.389-3.419,7.107-4.239,10.514-1.856l11.261,7.887c7.535-7.483,22.31-21.315,32.067-25.011
		c3.893-1.465,8.258,0.484,9.732,4.387c1.479,3.898-0.487,8.258-4.384,9.735c-7.245,2.745-22.88,17.368-31.035,25.943
		C179.943,178.523,177.947,179.322,175.937,179.322z"/>
	<path style="fill:#64798A;" d="M308.852,150.323h-63.387c-4.168,0-7.55,3.379-7.55,7.55c0,4.171,3.382,7.55,7.55,7.55h63.387
		c4.168,0,7.55-3.379,7.55-7.55C316.402,153.702,313.02,150.323,308.852,150.323z"/>
	<path style="fill:#64798A;" d="M175.937,236.511c-1.504,0-3.013-0.447-4.325-1.364l-16.5-11.551
		c-3.416-2.391-4.247-7.1-1.853-10.516c2.389-3.419,7.107-4.239,10.514-1.855l11.261,7.887c7.535-7.483,22.31-21.315,32.067-25.011
		c3.893-1.465,8.258,0.484,9.732,4.387c1.479,3.898-0.487,8.258-4.384,9.735c-7.245,2.745-22.88,17.368-31.035,25.943
		C179.943,235.712,177.947,236.511,175.937,236.511z"/>
	<path style="fill:#64798A;" d="M308.852,207.512h-63.387c-4.168,0-7.55,3.379-7.55,7.55c0,4.171,3.382,7.55,7.55,7.55h63.387
		c4.168,0,7.55-3.379,7.55-7.55C316.402,210.891,313.02,207.512,308.852,207.512z"/>
	<path style="fill:#64798A;" d="M175.937,293.699c-1.504,0-3.013-0.447-4.325-1.364l-16.5-11.551
		c-3.416-2.391-4.247-7.1-1.853-10.516c2.389-3.419,7.107-4.239,10.514-1.855l11.261,7.887c7.535-7.483,22.31-21.315,32.067-25.011
		c3.893-1.465,8.258,0.484,9.732,4.387c1.479,3.898-0.487,8.258-4.384,9.735c-7.245,2.745-22.88,17.368-31.035,25.943
		C179.943,292.9,177.947,293.699,175.937,293.699z"/>
	<path style="fill:#64798A;" d="M308.852,264.7h-63.387c-4.168,0-7.55,3.379-7.55,7.55c0,4.171,3.382,7.55,7.55,7.55h63.387
		c4.168,0,7.55-3.379,7.55-7.55C316.402,268.08,313.02,264.7,308.852,264.7z"/>
	<path style="fill:#64798A;" d="M175.937,350.888c-1.504,0-3.013-0.447-4.325-1.364l-16.5-11.551
		c-3.416-2.391-4.247-7.1-1.853-10.516c2.389-3.419,7.107-4.239,10.514-1.856l11.261,7.887c7.535-7.483,22.31-21.315,32.067-25.011
		c3.893-1.465,8.258,0.484,9.732,4.387c1.479,3.898-0.487,8.258-4.384,9.735c-7.245,2.745-22.88,17.368-31.035,25.943
		C179.943,350.089,177.947,350.888,175.937,350.888z"/>
	<path style="fill:#64798A;" d="M308.852,321.889h-63.387c-4.168,0-7.55,3.379-7.55,7.55s3.382,7.55,7.55,7.55h63.387
		c4.168,0,7.55-3.379,7.55-7.55S313.02,321.889,308.852,321.889z"/>
	<path style="fill:#64798A;" d="M175.937,408.076c-1.504,0-3.013-0.447-4.325-1.364l-16.5-11.551
		c-3.416-2.391-4.247-7.1-1.853-10.516c2.389-3.419,7.107-4.239,10.514-1.855l11.261,7.887c7.535-7.483,22.31-21.315,32.067-25.011
		c3.893-1.465,8.258,0.484,9.732,4.387c1.479,3.898-0.487,8.258-4.384,9.735c-7.245,2.745-22.88,17.368-31.035,25.943
		C179.943,407.278,177.947,408.076,175.937,408.076z"/>
	<path style="fill:#64798A;" d="M308.852,379.078h-63.387c-4.168,0-7.55,3.379-7.55,7.55c0,4.171,3.382,7.55,7.55,7.55h63.387
		c4.168,0,7.55-3.379,7.55-7.55C316.402,382.457,313.02,379.078,308.852,379.078z"/>
</g>
<g>
</g>
<g>
</g>
<g>
</g>
<g>
</g>
<g>
</g>
<g>
</g>
<g>
</g>
<g>
</g>
<g>
</g>
<g>
</g>
<g>
</g>
<g>
</g>
<g>
</g>
<g>
</g>
<g>
</g>
</svg>
