<?xml version="1.0" encoding="iso-8859-1"?>
<!-- Generator: Adobe Illustrator 19.0.0, SVG Export Plug-In . SVG Version: 6.00 Build 0)  -->
<svg version="1.1" id="Capa_1" xmlns="http://www.w3.org/2000/svg" xmlns:xlink="http://www.w3.org/1999/xlink" x="0px" y="0px"
	 viewBox="0 0 468.274 468.274" style="enable-background:new 0 0 468.274 468.274;" xml:space="preserve">
<path style="fill:#2D93BA;" d="M297.837,233.537h-127.4c-16.094,0-29.755-11.798-32.099-27.721L113.521,37.168
	C110.638,17.58,125.82,0,145.619,0h177.036c19.799,0,34.981,17.58,32.099,37.168l-24.818,168.648
	C327.593,221.739,313.931,233.537,297.837,233.537z"/>
<path style="fill:#1C75A1;" d="M132.366,233.537h203.542c6.897,0,12.488,5.591,12.488,12.488v20.446
	c0,6.897-5.591,12.488-12.488,12.488H132.366c-6.897,0-12.488-5.591-12.488-12.488v-20.446
	C119.878,239.128,125.469,233.537,132.366,233.537z"/>
<path style="fill:#64798A;" d="M380.903,129.745v113.526c0,2.688-2.179,4.867-4.867,4.867h-27.641v16.222h27.641
	c11.647,0,21.089-9.442,21.089-21.089V116.767h-3.244C386.714,116.767,380.903,122.578,380.903,129.745z"/>
<path style="fill:#1C75A1;" d="M381.059,129.746v17.994h31.146c8.678,0,16.522-3.569,22.145-9.32
	c7.847-8.025,1.548-21.652-9.676-21.652l-30.638,0C386.87,116.768,381.059,122.579,381.059,129.746z"/>
<path style="fill:#64798A;" d="M87.371,129.745v113.526c0,2.688,2.179,4.867,4.867,4.867h27.641v16.222H92.237
	c-11.647,0-21.089-9.442-21.089-21.089V116.767h3.244C81.56,116.767,87.371,122.578,87.371,129.745z"/>
<path style="fill:#1C75A1;" d="M87.215,129.746v17.994H56.069c-8.678,0-16.522-3.569-22.145-9.32
	c-7.847-8.025-1.548-21.652,9.676-21.652l30.638,0C81.404,116.768,87.215,122.579,87.215,129.746z"/>
<path style="fill:#64798A;" d="M324.984,360.78h-74.623v-81.822h-32.444v81.822h-74.621c-17.889,0-32.444,14.556-32.444,32.444
	v34.979c0,7.167,5.811,12.978,12.978,12.978c7.167,0,12.978-5.811,12.978-12.978v-34.979c0-3.577,2.912-6.489,6.489-6.489h74.621
	v41.466h32.444v-41.466h74.623c3.577,0,6.489,2.912,6.489,6.489v34.979c0,7.167,5.811,12.978,12.978,12.978
	c7.167,0,12.978-5.811,12.978-12.978v-34.979C357.429,375.336,342.873,360.78,324.984,360.78z"/>
<g>
	<circle style="fill:#2F4859;" cx="122.621" cy="442.318" r="25.956"/>
	<circle style="fill:#2F4859;" cx="345.634" cy="442.318" r="25.956"/>
</g>
<circle style="fill:#64798A;" cx="345.634" cy="442.318" r="12.975"/>
<circle style="fill:#2F4859;" cx="234.137" cy="430.704" r="25.956"/>
<g>
	<circle style="fill:#64798A;" cx="234.137" cy="430.704" r="12.975"/>
	<circle style="fill:#64798A;" cx="122.621" cy="442.318" r="12.975"/>
</g>
<g>
</g>
<g>
</g>
<g>
</g>
<g>
</g>
<g>
</g>
<g>
</g>
<g>
</g>
<g>
</g>
<g>
</g>
<g>
</g>
<g>
</g>
<g>
</g>
<g>
</g>
<g>
</g>
<g>
</g>
</svg>
