<?xml version="1.0" encoding="iso-8859-1"?>
<!-- Generator: Adobe Illustrator 19.0.0, SVG Export Plug-In . SVG Version: 6.00 Build 0)  -->
<svg version="1.1" id="Capa_1" xmlns="http://www.w3.org/2000/svg" xmlns:xlink="http://www.w3.org/1999/xlink" x="0px" y="0px"
	 viewBox="0 0 468.293 468.293" style="enable-background:new 0 0 468.293 468.293;" xml:space="preserve">
<rect y="44.007" style="fill:#FCD462;" width="468.293" height="312.195"/>
<g>
	<rect x="18.363" y="64.743" style="fill:#DC8744;" width="37.463" height="12.488"/>
	<rect x="67.628" y="64.743" style="fill:#DC8744;" width="37.463" height="12.488"/>
	<rect x="116.886" y="64.743" style="fill:#DC8744;" width="37.463" height="12.488"/>
	<rect x="166.15" y="64.743" style="fill:#DC8744;" width="37.463" height="12.488"/>
	<rect x="215.415" y="64.743" style="fill:#DC8744;" width="37.463" height="12.488"/>
	<rect x="264.679" y="64.743" style="fill:#DC8744;" width="37.463" height="12.488"/>
	<rect x="313.937" y="64.743" style="fill:#DC8744;" width="37.463" height="12.488"/>
	<rect x="363.208" y="64.743" style="fill:#DC8744;" width="37.463" height="12.488"/>
	<rect x="412.472" y="64.743" style="fill:#DC8744;" width="37.463" height="12.488"/>
	<rect x="18.376" y="276.561" style="fill:#DC8744;" width="12.488" height="35.909"/>
	<rect x="18.363" y="229.37" style="fill:#DC8744;" width="12.488" height="35.909"/>
	<rect x="18.345" y="182.147" style="fill:#DC8744;" width="12.488" height="35.909"/>
	<rect x="18.363" y="134.931" style="fill:#DC8744;" width="12.488" height="35.909"/>
	<rect x="18.37" y="87.715" style="fill:#DC8744;" width="12.488" height="35.909"/>
	<rect x="437.442" y="276.599" style="fill:#DC8744;" width="12.488" height="35.909"/>
	<rect x="437.442" y="229.395" style="fill:#DC8744;" width="12.488" height="35.909"/>
	<rect x="437.435" y="182.191" style="fill:#DC8744;" width="12.488" height="35.909"/>
	<rect x="437.442" y="134.925" style="fill:#DC8744;" width="12.488" height="35.909"/>
	<rect x="437.473" y="87.721" style="fill:#DC8744;" width="12.488" height="35.909"/>
	<rect x="18.363" y="322.997" style="fill:#DC8744;" width="37.463" height="12.488"/>
	<rect x="67.628" y="322.997" style="fill:#DC8744;" width="37.463" height="12.488"/>
	<rect x="116.886" y="322.997" style="fill:#DC8744;" width="37.463" height="12.488"/>
	<rect x="166.15" y="322.997" style="fill:#DC8744;" width="37.463" height="12.488"/>
	<rect x="215.415" y="322.997" style="fill:#DC8744;" width="37.463" height="12.488"/>
	<rect x="313.937" y="322.997" style="fill:#DC8744;" width="37.463" height="12.488"/>
	<rect x="412.472" y="322.997" style="fill:#DC8744;" width="37.463" height="12.488"/>
</g>
<path style="fill:#27A2DB;" d="M95.539,194.987v-7.666c-9.597-0.979-18.212-4.794-25.835-11.443l7.666-9.136
	c5.88,5.111,11.931,8.153,18.169,9.136v-20.374c-7.914-1.889-13.708-4.376-17.383-7.457c-3.675-3.081-5.512-7.649-5.512-13.704
	c0-6.055,2.111-11.008,6.35-14.862c4.239-3.85,9.751-5.948,16.546-6.299v-5.252h6.717v5.354c7.7,0.564,14.982,3.188,21.844,7.88
	l-6.828,9.662c-4.624-3.29-9.623-5.32-15.016-6.093v19.742h0.316c8.051,1.893,13.965,4.448,17.742,7.666
	c3.786,3.222,5.675,7.897,5.675,14.02c0,6.128-2.171,11.119-6.512,14.964c-4.341,3.854-10.076,5.952-17.221,6.303v7.559H95.539z
	 M88.129,127.203c-1.786,1.572-2.675,3.534-2.675,5.88c0,2.346,0.701,4.2,2.102,5.564c1.393,1.367,4.059,2.679,7.982,3.94v-18.169
	C92.385,124.698,89.916,125.626,88.129,127.203z M110.239,173.25c1.957-1.607,2.94-3.636,2.94-6.089
	c0-2.448-0.769-4.393-2.307-5.829c-1.547-1.436-4.418-2.782-8.615-4.042v18.9C105.615,175.843,108.273,174.861,110.239,173.25z"/>
<g>
	<rect x="144.628" y="107.932" style="fill:#E1E6E9;" width="270.236" height="12.488"/>
	<rect x="144.628" y="150.897" style="fill:#E1E6E9;" width="126.62" height="12.488"/>
	<rect x="144.628" y="193.861" style="fill:#E1E6E9;" width="82.913" height="12.488"/>
	<rect x="69.701" y="236.831" style="fill:#E1E6E9;" width="139.108" height="12.488"/>
	<rect x="69.701" y="279.789" style="fill:#E1E6E9;" width="164.09" height="12.488"/>
</g>
<path style="fill:#E56353;" d="M353.961,422.812l-19.16-19.16c-1.951-1.951-5.113-1.951-7.064,0l-19.16,19.16
	c-3.147,3.147-8.527,0.918-8.527-3.532V304.099h62.439V419.28C362.488,423.73,357.108,425.959,353.961,422.812z"/>
<path style="fill:#EBF0F3;" d="M410.64,268.676l6.21-10.755c2.445-4.235,2.445-9.453,0-13.688l-6.21-10.755
	c-1.201-2.081-1.834-4.441-1.834-6.844v-12.42c0-4.89-2.609-9.409-6.844-11.854l-10.756-6.21c-2.081-1.201-3.809-2.929-5.01-5.01
	l-6.209-10.755c-2.445-4.235-6.964-6.844-11.854-6.844h-12.419c-2.403,0-4.763-0.632-6.844-1.834l-10.756-6.21
	c-4.235-2.445-9.453-2.445-13.688,0l-10.756,6.21c-2.081,1.201-4.441,1.834-6.844,1.834h-12.419c-4.89,0-9.409,2.609-11.854,6.844
	l-6.209,10.755c-1.201,2.081-2.929,3.809-5.01,5.01l-10.755,6.209c-4.235,2.445-6.844,6.964-6.844,11.854v12.419
	c0,2.403-0.632,4.763-1.834,6.844l-6.21,10.757c-2.445,4.235-2.445,9.453,0,13.688l6.21,10.757c1.201,2.081,1.834,4.441,1.834,6.844
	v12.418c0,4.89,2.609,9.409,6.844,11.854l10.754,6.209c2.081,1.201,3.809,2.929,5.01,5.01l6.211,10.757
	c2.445,4.235,6.964,6.844,11.854,6.844h12.421c2.403,0,4.763,0.632,6.844,1.834l10.755,6.209c4.235,2.445,9.453,2.445,13.688,0
	l10.754-6.209c2.081-1.201,4.441-1.834,6.844-1.834h12.42c4.89,0,9.409-2.609,11.854-6.844l6.21-10.756
	c1.201-2.081,2.929-3.809,5.01-5.01l10.756-6.21c4.235-2.445,6.844-6.964,6.844-11.854v-12.42
	C408.806,273.118,409.438,270.757,410.64,268.676z"/>
<circle style="fill:#D5D6DB;" cx="331.239" cy="251.074" r="56.195"/>
<g>
</g>
<g>
</g>
<g>
</g>
<g>
</g>
<g>
</g>
<g>
</g>
<g>
</g>
<g>
</g>
<g>
</g>
<g>
</g>
<g>
</g>
<g>
</g>
<g>
</g>
<g>
</g>
<g>
</g>
</svg>
