<?xml version="1.0" encoding="iso-8859-1"?>
<!-- Generator: Adobe Illustrator 19.0.0, SVG Export Plug-In . SVG Version: 6.00 Build 0)  -->
<svg version="1.1" id="Capa_1" xmlns="http://www.w3.org/2000/svg" xmlns:xlink="http://www.w3.org/1999/xlink" x="0px" y="0px"
	 viewBox="0 0 468.293 468.293" style="enable-background:new 0 0 468.293 468.293;" xml:space="preserve">
<g>
	<circle style="fill:#3A556A;" cx="192.687" cy="420.59" r="34.31"/>
	<circle style="fill:#3A556A;" cx="372.761" cy="420.59" r="34.31"/>
</g>
<g>
	<circle style="fill:#E1E6E9;" cx="372.761" cy="420.59" r="18.132"/>
	<circle style="fill:#E1E6E9;" cx="192.687" cy="420.59" r="18.132"/>
</g>
<path style="fill:#D15241;" d="M409.375,49.653H167.637V25.88c0-6.897,5.591-12.488,12.488-12.488h216.763
	c6.897,0,12.488,5.591,12.488,12.488V49.653z"/>
<rect x="184.882" y="49.653" style="fill:#E56353;" width="207.235" height="156.066"/>
<rect x="273.42" y="13.394" style="fill:#FCD462;" width="30.214" height="90"/>
<path style="fill:#E1E6E9;" d="M419.053,322.47c6.164,0,11.444-4.408,12.544-10.468l36.49-200.712
	c0.677-3.719-0.332-7.546-2.752-10.448c-2.424-2.906-6.01-4.582-9.792-4.582H103.221L92.779,42.191
	C91.621,36.193,86.37,31.86,80.26,31.86H12.751C5.707,31.86,0,37.567,0,44.611s5.707,12.751,12.751,12.751h56.986l18.854,97.621
	l10.397,55.255c0.07,1.011,0.257,1.98,0.548,2.913l18.615,98.926c0.285,1.514,0.833,2.92,1.587,4.182l11.679,60.471
	c1.158,5.998,6.409,10.331,12.519,10.331h275.116c7.044,0,12.751-5.707,12.751-12.751s-5.707-12.751-12.751-12.751H154.46
	l-7.549-39.088H419.053z M286.983,296.968v-74.852h53.668l-12.681,74.852H286.983z M286.983,196.614v-74.852h70.67l-12.681,74.852
	H286.983z M261.48,196.614h-57.989l-12.681-74.852h70.67V196.614z M261.48,222.116v74.852h-40.987l-12.681-74.852H261.48z
	 M408.41,296.968h-54.573l12.681-74.852h55.5L408.41,296.968z M426.655,196.614h-55.816l12.681-74.852h56.744L426.655,196.614z
	 M108.29,121.762h56.652l12.681,74.852h-55.021l-8.86-45.877L108.29,121.762z M127.529,222.116h54.416l12.681,74.852h-52.641
	L127.529,222.116z"/>
<g>
</g>
<g>
</g>
<g>
</g>
<g>
</g>
<g>
</g>
<g>
</g>
<g>
</g>
<g>
</g>
<g>
</g>
<g>
</g>
<g>
</g>
<g>
</g>
<g>
</g>
<g>
</g>
<g>
</g>
</svg>
