<?xml version="1.0" encoding="iso-8859-1"?>
<!-- Generator: Adobe Illustrator 19.0.0, SVG Export Plug-In . SVG Version: 6.00 Build 0)  -->
<svg version="1.1" id="Capa_1" xmlns="http://www.w3.org/2000/svg" xmlns:xlink="http://www.w3.org/1999/xlink" x="0px" y="0px"
	 viewBox="0 0 468.293 468.293" style="enable-background:new 0 0 468.293 468.293;" xml:space="preserve">
<path style="fill:#1C75A1;" d="M468.293,149.336H0V93.141c0-10.345,8.386-18.732,18.732-18.732h430.829
	c10.345,0,18.732,8.386,18.732,18.732V149.336z"/>
<path style="fill:#E1E6E9;" d="M449.561,433.532H18.732C8.386,433.532,0,425.146,0,414.801V149.336h468.293v265.464
	C468.293,425.146,459.906,433.532,449.561,433.532z"/>
<g>
	<path style="fill:#D5D6DB;" d="M137.407,103.443L137.407,103.443c-8.621,0-15.61-6.989-15.61-15.61V50.37
		c0-8.621,6.989-15.61,15.61-15.61h0c8.621,0,15.61,6.989,15.61,15.61v37.463C153.016,96.455,146.028,103.443,137.407,103.443z"/>
	<path style="fill:#D5D6DB;" d="M330.886,103.443L330.886,103.443c-8.621,0-15.61-6.989-15.61-15.61V50.37
		c0-8.621,6.989-15.61,15.61-15.61h0c8.621,0,15.61,6.989,15.61,15.61v37.463C346.496,96.455,339.507,103.443,330.886,103.443z"/>
	<path style="fill:#D5D6DB;" d="M388.93,103.443L388.93,103.443c-8.621,0-15.61-6.989-15.61-15.61V50.37
		c0-8.621,6.989-15.61,15.61-15.61h0c8.621,0,15.61,6.989,15.61,15.61v37.463C404.54,96.455,397.551,103.443,388.93,103.443z"/>
</g>
<g>
	<path style="fill:#E1E6E9;" d="M63.753,50.37v37.463c0,8.621,6.988,15.61,15.61,15.61V34.76
		C70.741,34.76,63.753,41.749,63.753,50.37z"/>
	<path style="fill:#E1E6E9;" d="M121.797,50.37v37.463c0,8.621,6.988,15.61,15.61,15.61V34.76
		C128.785,34.76,121.797,41.749,121.797,50.37z"/>
	<path style="fill:#E1E6E9;" d="M315.276,50.37v37.463c0,8.621,6.988,15.61,15.61,15.61V34.76
		C322.264,34.76,315.276,41.749,315.276,50.37z"/>
	<path style="fill:#E1E6E9;" d="M373.32,50.37v37.463c0,8.621,6.988,15.61,15.61,15.61V34.76
		C380.308,34.76,373.32,41.749,373.32,50.37z"/>
</g>
<path style="fill:#D5D6DB;" d="M79.363,34.76v68.683c8.62,0,15.61-6.989,15.61-15.61V50.37C94.973,41.749,87.984,34.76,79.363,34.76
	z"/>
<g>
	<rect x="53.073" y="200.492" style="fill:#E56353;" width="47.235" height="47.235"/>
	<rect x="116.074" y="200.492" style="fill:#E56353;" width="47.235" height="47.235"/>
</g>
<g>
	<rect x="179.013" y="200.492" style="fill:#44C4A1;" width="47.235" height="47.235"/>
	<rect x="242.014" y="200.492" style="fill:#44C4A1;" width="47.235" height="47.235"/>
	<rect x="305.015" y="200.492" style="fill:#44C4A1;" width="47.235" height="47.235"/>
	<rect x="367.953" y="200.492" style="fill:#44C4A1;" width="47.235" height="47.235"/>
	<rect x="53.073" y="266.49" style="fill:#44C4A1;" width="47.235" height="47.235"/>
	<rect x="116.074" y="266.49" style="fill:#44C4A1;" width="47.235" height="47.235"/>
	<rect x="179.013" y="266.49" style="fill:#44C4A1;" width="47.235" height="47.235"/>
	<rect x="242.014" y="266.49" style="fill:#44C4A1;" width="47.235" height="47.235"/>
	<rect x="305.015" y="266.49" style="fill:#44C4A1;" width="47.235" height="47.235"/>
	<rect x="367.953" y="266.49" style="fill:#44C4A1;" width="47.235" height="47.235"/>
</g>
<g>
	<rect x="53.073" y="335.173" style="fill:#27A2DB;" width="47.235" height="47.235"/>
	<rect x="116.074" y="335.173" style="fill:#27A2DB;" width="47.235" height="47.235"/>
	<rect x="179.013" y="335.173" style="fill:#27A2DB;" width="47.235" height="47.235"/>
	<rect x="242.014" y="335.173" style="fill:#27A2DB;" width="47.235" height="47.235"/>
	<rect x="305.015" y="335.173" style="fill:#27A2DB;" width="47.235" height="47.235"/>
	<rect x="367.953" y="335.173" style="fill:#27A2DB;" width="47.235" height="47.235"/>
</g>
<g>
</g>
<g>
</g>
<g>
</g>
<g>
</g>
<g>
</g>
<g>
</g>
<g>
</g>
<g>
</g>
<g>
</g>
<g>
</g>
<g>
</g>
<g>
</g>
<g>
</g>
<g>
</g>
<g>
</g>
</svg>
