<?xml version="1.0" encoding="iso-8859-1"?>
<!-- Generator: Adobe Illustrator 19.0.0, SVG Export Plug-In . SVG Version: 6.00 Build 0)  -->
<svg version="1.1" id="Capa_1" xmlns="http://www.w3.org/2000/svg" xmlns:xlink="http://www.w3.org/1999/xlink" x="0px" y="0px"
	 viewBox="0 0 468.295 468.295" style="enable-background:new 0 0 468.295 468.295;" xml:space="preserve">
<g>
	<path style="fill:#DC8744;" d="M291.046,126.995c5.812,21.432-34.425,27.619-56.662,27.619c-22.523,0-62.472-6.349-57.233-28.246
		c0.199-0.832,0.949-0.423,1.282-0.512c20.212-5.446,36.421-19.352,36.421-19.352v-16.97c-5.488-3.417-9.409-7.403-12.26-11.446
		c-0.427,0.341-0.927,0.683-1.425,0.74c-3.136,0.513-6.914-4.1-8.553-10.25c-1.568-6.15-0.356-11.56,2.709-12.073h0.285
		c-0.071-3.36,0.284-5.467,0.284-5.467c-4.133-3.702-4.632-20.9-4.632-20.9c6.129-41.856,59.014-27.904,59.014-27.904
		s30.22,2.449,25.658,18.053c0,0,3.065,23.747-3.635,29.897c0,0,0.213,2.506,0.071,6.321c0.356-0.057,0.713-0.057,1.069,0
		c3.064,0.513,4.276,5.923,2.708,12.073c-1.639,6.15-5.417,10.763-8.552,10.25c-0.357-0.057-0.713-0.227-1.068-0.398
		c-2.495,4.499-6.059,8.77-11.119,11.959v16.116c0,0,5.912,12.425,32.287,19.352C288.552,126.08,290.471,124.875,291.046,126.995z"
		/>
	<path style="fill:#DC8744;" d="M291.046,341.3c5.812-21.432-34.425-27.619-56.662-27.619c-22.523,0-62.472,6.349-57.233,28.246
		c0.199,0.832,0.949,0.423,1.282,0.512c20.212,5.446,36.421,19.352,36.421,19.352v16.97c-5.488,3.417-9.409,7.403-12.26,11.446
		c-0.427-0.341-0.927-0.683-1.425-0.74c-3.136-0.513-6.914,4.1-8.553,10.25c-1.568,6.15-0.356,11.56,2.709,12.073h0.285
		c-0.071,3.36,0.284,5.467,0.284,5.467c-4.133,3.702-4.632,20.9-4.632,20.9c6.129,41.856,59.014,27.904,59.014,27.904
		s30.22-2.449,25.658-18.053c0,0,3.065-23.747-3.635-29.897c0,0,0.213-2.506,0.071-6.321c0.356,0.057,0.713,0.057,1.069,0
		c3.064-0.513,4.276-5.923,2.708-12.073c-1.639-6.15-5.417-10.763-8.552-10.25c-0.357,0.057-0.713,0.227-1.068,0.398
		c-2.495-4.499-6.059-8.77-11.119-11.959v-16.116c0,0,5.912-12.425,32.287-19.352C288.552,342.214,290.471,343.419,291.046,341.3z"
		/>
</g>
<g>
	<path style="fill:#27A2DB;" d="M350.148,198.613c-11.046,19.264-43.872-4.813-59.595-20.537
		c-15.926-15.926-39.685-48.664-20.496-60.442c0.729-0.447,0.97,0.372,1.269,0.545c18.143,10.441,39.437,12.07,39.437,12.07l12-12
		c-1.464-6.297-1.418-11.888-0.575-16.763c-0.543-0.061-1.138-0.172-1.531-0.485c-2.581-1.855-1.99-7.788,1.2-13.296
		c3.24-5.457,7.922-8.426,10.453-6.621l0.201,0.201c2.326-2.427,4.067-3.664,4.067-3.664c-0.305-5.54,11.503-18.054,11.503-18.054
		c33.931-25.263,61.46,21.998,61.46,21.998s19.637,23.1,5.378,30.908c0,0-14.625,18.959-23.711,18.57c0,0-1.621,1.923-4.419,4.52
		c0.292,0.211,0.544,0.464,0.756,0.756c1.804,2.53-1.164,7.212-6.622,10.451c-5.508,3.19-11.441,3.78-13.295,1.2
		c-0.212-0.293-0.343-0.665-0.474-1.037c-4.946,1.417-10.486,1.917-16.318,0.594l-11.396,11.396c0,0-4.605,12.966,9.146,36.514
		C349.031,196.202,351.24,196.708,350.148,198.613z"/>
	<path style="fill:#27A2DB;" d="M198.611,350.15c19.264-11.045-4.813-43.872-20.536-59.595
		c-15.926-15.926-48.663-39.685-60.442-20.497c-0.447,0.729,0.372,0.97,0.545,1.269c10.441,18.143,12.07,39.438,12.07,39.438l-12,12
		c-6.297-1.464-11.888-1.418-16.763-0.575c-0.061-0.543-0.172-1.138-0.485-1.531c-1.855-2.581-7.788-1.99-13.296,1.2
		c-5.457,3.24-8.426,7.922-6.621,10.453l0.201,0.201c-2.427,2.326-3.664,4.067-3.664,4.067c-5.54-0.305-18.054,11.503-18.054,11.503
		c-25.263,33.931,21.998,61.461,21.998,61.461s23.1,19.637,30.908,5.378c0,0,18.959-14.624,18.57-23.711c0,0,1.923-1.621,4.52-4.419
		c0.211,0.292,0.464,0.544,0.756,0.756c2.529,1.804,7.212-1.164,10.451-6.622c3.19-5.508,3.78-11.441,1.201-13.295
		c-0.293-0.212-0.665-0.343-1.037-0.474c1.417-4.946,1.917-10.486,0.594-16.319l11.396-11.396c0,0,12.966-4.605,36.514,9.147
		C196.201,349.033,196.706,351.242,198.611,350.15z"/>
</g>
<g>
	<path style="fill:#44C4A1;" d="M341.3,291.045c-21.432,5.812-27.618-34.426-27.618-56.662c0-22.523,6.349-62.472,28.246-57.233
		c0.832,0.199,0.423,0.949,0.512,1.282c5.446,20.212,19.352,36.421,19.352,36.421l16.97,0c3.417-5.488,7.403-9.409,11.447-12.26
		c-0.341-0.427-0.683-0.927-0.74-1.425c-0.513-3.136,4.1-6.914,10.25-8.553c6.15-1.568,11.56-0.356,12.073,2.709v0.285
		c3.36-0.071,5.467,0.285,5.467,0.285c3.702-4.133,20.9-4.632,20.9-4.632c41.856,6.129,27.904,59.015,27.904,59.015
		s-2.449,30.22-18.053,25.658c0,0-23.747,3.065-29.897-3.635c0,0-2.506,0.213-6.321,0.071c0.057,0.356,0.057,0.713,0,1.069
		c-0.513,3.064-5.923,4.276-12.073,2.708c-6.15-1.639-10.763-5.417-10.25-8.552c0.057-0.357,0.227-0.713,0.398-1.068
		c-4.499-2.495-8.77-6.059-11.959-11.119l-16.117,0c0,0-12.425,5.912-19.352,32.287C342.214,288.551,343.419,290.471,341.3,291.045z
		"/>
	<path style="fill:#44C4A1;" d="M126.994,291.045c21.432,5.812,27.619-34.425,27.619-56.662c0-22.523-6.348-62.472-28.245-57.233
		c-0.832,0.199-0.423,0.949-0.512,1.282c-5.446,20.212-19.352,36.421-19.352,36.421l-16.97,0c-3.417-5.488-7.403-9.409-11.446-12.26
		c0.341-0.427,0.683-0.927,0.74-1.425c0.513-3.136-4.1-6.914-10.25-8.553c-6.15-1.568-11.56-0.356-12.073,2.709v0.284
		c-3.36-0.071-5.467,0.284-5.467,0.284c-3.702-4.133-20.9-4.632-20.9-4.632c-41.856,6.129-27.905,59.014-27.905,59.014
		s2.449,30.22,18.052,25.658c0,0,23.747,3.065,29.897-3.635c0,0,2.506,0.213,6.321,0.071c-0.057,0.356-0.057,0.713,0,1.069
		c0.513,3.064,5.923,4.276,12.073,2.708c6.15-1.639,10.763-5.417,10.25-8.552c-0.057-0.357-0.227-0.713-0.398-1.068
		c4.499-2.495,8.77-6.059,11.959-11.119l16.117,0c0,0,12.425,5.912,19.352,32.287C126.079,288.551,124.875,290.47,126.994,291.045z"
		/>
</g>
<g>
	<path style="fill:#E56353;" d="M269.683,350.149c-19.264-11.046,4.813-43.872,20.537-59.595
		c15.926-15.926,48.664-39.685,60.443-20.497c0.447,0.729-0.372,0.97-0.545,1.269c-10.442,18.143-12.07,39.438-12.07,39.438l12,12
		c6.297-1.464,11.888-1.418,16.763-0.575c0.061-0.543,0.172-1.138,0.485-1.531c1.855-2.581,7.788-1.99,13.296,1.2
		c5.457,3.24,8.426,7.922,6.621,10.453l-0.201,0.201c2.427,2.326,3.664,4.067,3.664,4.067c5.54-0.305,18.054,11.503,18.054,11.503
		c25.263,33.931-21.998,61.461-21.998,61.461s-23.101,19.637-30.908,5.378c0,0-18.959-14.625-18.57-23.711
		c0,0-1.923-1.621-4.52-4.419c-0.211,0.292-0.464,0.544-0.756,0.756c-2.53,1.804-7.212-1.164-10.451-6.622
		c-3.19-5.508-3.78-11.441-1.2-13.295c0.293-0.212,0.665-0.343,1.037-0.474c-1.417-4.946-1.917-10.486-0.594-16.319l-11.396-11.396
		c0,0-12.966-4.605-36.514,9.146C272.094,349.032,271.588,351.241,269.683,350.149z"/>
	<path style="fill:#E56353;" d="M118.146,198.611c11.045,19.265,43.872-4.813,59.596-20.536
		c15.926-15.926,39.685-48.663,20.497-60.442c-0.729-0.447-0.97,0.372-1.269,0.545c-18.143,10.441-39.438,12.07-39.438,12.07l-12-12
		c1.464-6.297,1.418-11.888,0.575-16.763c0.543-0.061,1.138-0.172,1.531-0.485c2.581-1.855,1.99-7.788-1.2-13.296
		c-3.24-5.457-7.922-8.426-10.453-6.621l-0.201,0.201c-2.326-2.427-4.067-3.664-4.067-3.664c0.305-5.54-11.503-18.054-11.503-18.054
		C86.284,34.302,58.754,81.563,58.754,81.563s-19.637,23.1-5.378,30.908c0,0,14.624,18.959,23.711,18.57c0,0,1.621,1.923,4.419,4.52
		c-0.292,0.211-0.544,0.464-0.756,0.756c-1.804,2.53,1.164,7.212,6.622,10.451c5.508,3.19,11.441,3.78,13.295,1.201
		c0.212-0.293,0.343-0.665,0.474-1.037c4.946,1.417,10.486,1.917,16.319,0.594l11.396,11.396c0,0,4.605,12.966-9.147,36.514
		C119.263,196.2,117.054,196.706,118.146,198.611z"/>
</g>
<circle style="fill:#E1E6E9;" cx="234.147" cy="234.147" r="106.146"/>
<g>
</g>
<g>
</g>
<g>
</g>
<g>
</g>
<g>
</g>
<g>
</g>
<g>
</g>
<g>
</g>
<g>
</g>
<g>
</g>
<g>
</g>
<g>
</g>
<g>
</g>
<g>
</g>
<g>
</g>
</svg>
