<?xml version="1.0" encoding="iso-8859-1"?>
<!-- Generator: Adobe Illustrator 19.0.0, SVG Export Plug-In . SVG Version: 6.00 Build 0)  -->
<svg version="1.1" id="Capa_1" xmlns="http://www.w3.org/2000/svg" xmlns:xlink="http://www.w3.org/1999/xlink" x="0px" y="0px"
	 viewBox="0 0 468.293 468.293" style="enable-background:new 0 0 468.293 468.293;" xml:space="preserve">
<path style="fill:#1C75A1;" d="M408.976,468.293H59.317c-10.345,0-18.732-8.386-18.732-18.732V18.732
	C40.585,8.386,48.972,0,59.317,0h349.659c10.345,0,18.732,8.386,18.732,18.732v430.829
	C427.707,459.906,419.321,468.293,408.976,468.293z"/>
<rect x="71.805" y="367.641" style="fill:#D5D6DB;" width="237.893" height="64.343"/>
<rect x="332.144" y="367.641" style="fill:#44C4A1;" width="64.343" height="64.343"/>
<g>
	<rect x="71.805" y="278.353" style="fill:#D5D6DB;" width="64.343" height="64.343"/>
	<rect x="158.583" y="278.353" style="fill:#D5D6DB;" width="64.343" height="64.343"/>
	<rect x="245.36" y="278.353" style="fill:#D5D6DB;" width="64.343" height="64.343"/>
</g>
<rect x="332.144" y="278.353" style="fill:#E56353;" width="64.343" height="64.343"/>
<path style="fill:#3EA69B;" d="M71.805,48.763v73.425c0,6.897,5.591,12.488,12.488,12.488h38.293l180.93-98.401H84.293
	C77.396,36.275,71.805,41.866,71.805,48.763z"/>
<path style="fill:#44C4A1;" d="M384,36.275h-80.484l-180.93,98.401H384c6.897,0,12.488-5.591,12.488-12.488V48.763
	C396.488,41.866,390.897,36.275,384,36.275z"/>
<g>
	<rect x="71.805" y="189.028" style="fill:#D5D6DB;" width="64.343" height="64.343"/>
	<rect x="158.583" y="189.028" style="fill:#D5D6DB;" width="64.343" height="64.343"/>
	<rect x="245.36" y="189.028" style="fill:#D5D6DB;" width="64.343" height="64.343"/>
</g>
<rect x="332.144" y="189.028" style="fill:#FCD462;" width="64.343" height="64.343"/>
<g>
	<rect x="71.805" y="241.452" style="fill:#E1E6E9;" width="64.343" height="11.913"/>
	<rect x="158.583" y="241.452" style="fill:#E1E6E9;" width="64.343" height="11.913"/>
	<rect x="245.36" y="241.452" style="fill:#E1E6E9;" width="64.343" height="11.913"/>
</g>
<rect x="332.144" y="241.452" style="fill:#F6C358;" width="64.343" height="11.913"/>
<g>
	<rect x="71.805" y="330.802" style="fill:#E1E6E9;" width="64.343" height="11.913"/>
	<rect x="158.583" y="330.802" style="fill:#E1E6E9;" width="64.343" height="11.913"/>
	<rect x="245.36" y="330.802" style="fill:#E1E6E9;" width="64.343" height="11.913"/>
</g>
<rect x="332.144" y="330.802" style="fill:#D15241;" width="64.343" height="11.913"/>
<rect x="71.805" y="420.102" style="fill:#27A2DB;" width="237.893" height="11.913"/>
<rect x="332.144" y="420.102" style="fill:#3EA69B;" width="64.343" height="11.913"/>
<g>
</g>
<g>
</g>
<g>
</g>
<g>
</g>
<g>
</g>
<g>
</g>
<g>
</g>
<g>
</g>
<g>
</g>
<g>
</g>
<g>
</g>
<g>
</g>
<g>
</g>
<g>
</g>
<g>
</g>
</svg>
