<?xml version="1.0" encoding="iso-8859-1"?>
<!-- Generator: Adobe Illustrator 19.0.0, SVG Export Plug-In . SVG Version: 6.00 Build 0)  -->
<svg version="1.1" id="Capa_1" xmlns="http://www.w3.org/2000/svg" xmlns:xlink="http://www.w3.org/1999/xlink" x="0px" y="0px"
	 viewBox="0 0 468.293 468.293" style="enable-background:new 0 0 468.293 468.293;" xml:space="preserve">
<path style="fill:#2F4859;" d="M296.585,126.005H171.707c-5.171,0-9.366-4.192-9.366-9.366V85.605
	c0-15.494,12.604-28.098,28.098-28.098h87.415c15.494,0,28.098,12.604,28.098,28.098v31.034
	C305.951,121.813,301.756,126.005,296.585,126.005z M181.073,107.273H287.22V85.605c0-5.165-4.201-9.366-9.366-9.366h-87.415
	c-5.165,0-9.366,4.201-9.366,9.366V107.273z"/>
<path style="fill:#64798A;" d="M443.317,419.31H24.976C11.182,419.31,0,408.128,0,394.334V132.09
	c0-13.794,11.182-24.976,24.976-24.976h418.341c13.794,0,24.976,11.182,24.976,24.976v262.244
	C468.293,408.128,457.111,419.31,443.317,419.31z"/>
<g>
	<polygon style="fill:#3A556A;" points="116.962,345.754 95.108,370.73 73.255,345.754 73.255,107.115 116.962,107.115 	"/>
	<polygon style="fill:#3A556A;" points="395.038,345.754 373.184,370.73 351.331,345.754 351.331,107.115 395.038,107.115 	"/>
</g>
<path style="fill:#D5D6DB;" d="M95.108,238.752c-3.451,0-6.244,2.796-6.244,6.244v38.256c0,3.448,2.793,6.244,6.244,6.244
	c3.451,0,6.244-2.796,6.244-6.244v-38.256C101.352,241.547,98.559,238.752,95.108,238.752z"/>
<polygon style="fill:#E1E6E9;" points="60.767,238.752 60.767,308.663 73.255,308.663 73.255,308.662 73.255,302.866 
	73.255,251.239 116.962,251.239 116.962,302.866 116.962,308.662 116.962,308.663 129.45,308.663 129.45,238.752 "/>
<path style="fill:#D5D6DB;" d="M373.184,238.752c-3.451,0-6.244,2.796-6.244,6.244v38.256c0,3.448,2.793,6.244,6.244,6.244
	c3.451,0,6.244-2.796,6.244-6.244v-38.256C379.428,241.547,376.636,238.752,373.184,238.752z"/>
<polygon style="fill:#E1E6E9;" points="338.843,238.752 338.843,308.663 351.331,308.663 351.331,308.662 351.331,302.866 
	351.331,251.239 395.038,251.239 395.038,302.866 395.038,308.662 395.038,308.663 407.526,308.663 407.526,238.752 "/>
<path style="fill:#2F4859;" d="M262.754,48.983c-5.932,0-11.157,2.978-14.304,7.506c-3.147-4.529-8.372-7.506-14.304-7.506
	s-11.156,2.978-14.304,7.506c-3.146-4.529-8.371-7.506-14.303-7.506c-9.624,0-17.426,7.802-17.426,17.426
	c0,9.624,7.802,17.426,17.426,17.426c5.932,0,11.157-2.978,14.303-7.506c3.148,4.529,8.372,7.506,14.304,7.506
	s11.157-2.978,14.304-7.506c3.147,4.529,8.372,7.506,14.304,7.506c9.624,0,17.426-7.802,17.426-17.426
	C280.18,56.785,272.378,48.983,262.754,48.983z"/>
<g>
</g>
<g>
</g>
<g>
</g>
<g>
</g>
<g>
</g>
<g>
</g>
<g>
</g>
<g>
</g>
<g>
</g>
<g>
</g>
<g>
</g>
<g>
</g>
<g>
</g>
<g>
</g>
<g>
</g>
</svg>
