<?xml version="1.0" encoding="iso-8859-1"?>
<!-- Generator: Adobe Illustrator 19.0.0, SVG Export Plug-In . SVG Version: 6.00 Build 0)  -->
<svg version="1.1" id="Capa_1" xmlns="http://www.w3.org/2000/svg" xmlns:xlink="http://www.w3.org/1999/xlink" x="0px" y="0px"
	 viewBox="0 0 468.293 468.293" style="enable-background:new 0 0 468.293 468.293;" xml:space="preserve">
<path style="fill:#1C75A1;" d="M468.293,64.838H0v347.917h196.28c4.134,0,7.799,2.253,10.106,5.659
	c6.003,8.863,16.193,14.697,27.761,14.697s21.757-5.833,27.76-14.697c2.307-3.406,5.972-5.659,10.106-5.659h196.281V64.838z"/>
<g>
	<path style="fill:#EBF0F3;" d="M234.167,67.523v312.155H25.05V35.182h176.776c10.543,0,19.987,5.11,25.873,12.936
		C231.774,53.487,234.167,60.214,234.167,67.523z"/>
	<path style="fill:#EBF0F3;" d="M443.284,35.182v344.495H234.167V67.523c0-7.309,2.393-14.036,6.468-19.405
		c5.885-7.827,15.33-12.936,25.873-12.936H443.284z"/>
</g>
<g>
	<path style="fill:#D5D6DB;" d="M277.769,105.373h121.872c3.575,0,6.468-2.893,6.468-6.468c0-3.575-2.893-6.468-6.468-6.468H277.769
		c-3.575,0-6.468,2.893-6.468,6.468C271.301,102.48,274.194,105.373,277.769,105.373z"/>
	<path style="fill:#D5D6DB;" d="M399.641,132.667h-95.999c-3.575,0-6.468,2.893-6.468,6.468c0,3.575,2.893,6.468,6.468,6.468h95.999
		c3.575,0,6.468-2.893,6.468-6.468C406.109,135.56,403.216,132.667,399.641,132.667z"/>
	<path style="fill:#D5D6DB;" d="M399.641,172.898H277.769c-3.575,0-6.468,2.893-6.468,6.468s2.893,6.468,6.468,6.468h121.872
		c3.575,0,6.468-2.893,6.468-6.468S403.216,172.898,399.641,172.898z"/>
	<path style="fill:#D5D6DB;" d="M399.641,213.128h-95.999c-3.575,0-6.468,2.893-6.468,6.468s2.893,6.468,6.468,6.468h95.999
		c3.575,0,6.468-2.893,6.468-6.468S403.216,213.128,399.641,213.128z"/>
	<path style="fill:#D5D6DB;" d="M399.641,253.358H277.769c-3.575,0-6.468,2.893-6.468,6.468c0,3.575,2.893,6.468,6.468,6.468
		h121.872c3.575,0,6.468-2.893,6.468-6.468C406.109,256.251,403.216,253.358,399.641,253.358z"/>
	<path style="fill:#D5D6DB;" d="M399.641,293.589h-95.999c-3.575,0-6.468,2.893-6.468,6.468c0,3.575,2.893,6.468,6.468,6.468h95.999
		c3.575,0,6.468-2.893,6.468-6.468C406.109,296.482,403.216,293.589,399.641,293.589z"/>
	<path style="fill:#D5D6DB;" d="M399.641,333.819H277.769c-3.575,0-6.468,2.893-6.468,6.468s2.893,6.468,6.468,6.468h121.872
		c3.575,0,6.468-2.893,6.468-6.468S403.216,333.819,399.641,333.819z"/>
	<path style="fill:#D5D6DB;" d="M190.524,105.373H68.652c-3.575,0-6.468-2.893-6.468-6.468c0-3.575,2.893-6.468,6.468-6.468h121.872
		c3.575,0,6.468,2.893,6.468,6.468C196.992,102.48,194.099,105.373,190.524,105.373z"/>
	<path style="fill:#D5D6DB;" d="M68.652,132.667h95.999c3.575,0,6.468,2.893,6.468,6.468c0,3.575-2.893,6.468-6.468,6.468H68.652
		c-3.575,0-6.468-2.893-6.468-6.468C62.183,135.56,65.076,132.667,68.652,132.667z"/>
	<path style="fill:#D5D6DB;" d="M68.652,172.898h121.872c3.575,0,6.468,2.893,6.468,6.468s-2.893,6.468-6.468,6.468H68.652
		c-3.575,0-6.468-2.893-6.468-6.468S65.076,172.898,68.652,172.898z"/>
	<path style="fill:#D5D6DB;" d="M68.652,213.128h95.999c3.575,0,6.468,2.893,6.468,6.468s-2.893,6.468-6.468,6.468H68.652
		c-3.575,0-6.468-2.893-6.468-6.468S65.076,213.128,68.652,213.128z"/>
	<path style="fill:#D5D6DB;" d="M68.652,253.358h121.872c3.575,0,6.468,2.893,6.468,6.468c0,3.575-2.893,6.468-6.468,6.468H68.652
		c-3.575,0-6.468-2.893-6.468-6.468C62.183,256.251,65.076,253.358,68.652,253.358z"/>
	<path style="fill:#D5D6DB;" d="M68.652,293.589h95.999c3.575,0,6.468,2.893,6.468,6.468c0,3.575-2.893,6.468-6.468,6.468H68.652
		c-3.575,0-6.468-2.893-6.468-6.468C62.183,296.482,65.076,293.589,68.652,293.589z"/>
	<path style="fill:#D5D6DB;" d="M68.652,333.819h121.872c3.575,0,6.468,2.893,6.468,6.468s-2.893,6.468-6.468,6.468H68.652
		c-3.575,0-6.468-2.893-6.468-6.468S65.076,333.819,68.652,333.819z"/>
</g>
<path style="fill:#E1E6E9;" d="M240.635,48.118v331.559h-12.936V48.118c4.075,5.369,6.468,12.095,6.468,19.405
	C234.167,60.214,236.56,53.487,240.635,48.118z"/>
<g>
</g>
<g>
</g>
<g>
</g>
<g>
</g>
<g>
</g>
<g>
</g>
<g>
</g>
<g>
</g>
<g>
</g>
<g>
</g>
<g>
</g>
<g>
</g>
<g>
</g>
<g>
</g>
<g>
</g>
</svg>
