<?xml version="1.0" encoding="iso-8859-1"?>
<!-- Generator: Adobe Illustrator 19.0.0, SVG Export Plug-In . SVG Version: 6.00 Build 0)  -->
<svg version="1.1" id="Capa_1" xmlns="http://www.w3.org/2000/svg" xmlns:xlink="http://www.w3.org/1999/xlink" x="0px" y="0px"
	 viewBox="0 0 468.293 468.293" style="enable-background:new 0 0 468.293 468.293;" xml:space="preserve">
<g>
	<path style="fill:#2F4859;" d="M234.146,323.399c-7.362,0-13.329,5.967-13.329,13.329v80.91c0,7.362,5.967,13.329,13.329,13.329
		s13.329-5.967,13.329-13.329v-80.91C247.475,329.366,241.508,323.399,234.146,323.399z"/>
	<path style="fill:#2F4859;" d="M352.929,449.481l-53.315-118.231c-3.03-6.716-10.939-9.7-17.629-6.675
		c-6.711,3.03-9.7,10.918-6.675,17.629l53.315,118.231c2.228,4.936,7.081,7.857,12.157,7.857c1.833,0,3.697-0.38,5.472-1.182
		C352.965,464.081,355.954,456.193,352.929,449.481z"/>
	<path style="fill:#2F4859;" d="M186.308,324.576c-6.696-3.025-14.604-0.042-17.629,6.675l-53.315,118.231
		c-3.025,6.711-0.036,14.599,6.675,17.629c1.775,0.802,3.639,1.182,5.472,1.182c5.076,0,9.934-2.921,12.157-7.857l53.315-118.231
		C196.008,335.494,193.02,327.606,186.308,324.576z"/>
</g>
<path style="fill:#64798A;" d="M31.548,317.996V56.894c0-10.345,8.386-18.732,18.732-18.732h367.733
	c10.345,0,18.732,8.386,18.732,18.732v261.102c0,10.345-8.386,18.732-18.732,18.732H50.28
	C39.935,336.728,31.548,328.341,31.548,317.996z"/>
<path style="fill:#E1E6E9;" d="M262.629,38.162h-56.965V6.244c0-3.448,2.795-6.244,6.244-6.244h44.478
	c3.448,0,6.244,2.795,6.244,6.244V38.162z"/>
<g>
	<rect x="223.969" style="fill:#D5D6DB;" width="20.355" height="38.163"/>
	<path style="fill:#D5D6DB;" d="M74.199,64.817c-8.834,0-15.995,7.162-15.995,15.995v137.334L291.966,64.817H74.199z"/>
</g>
<path style="fill:#E1E6E9;" d="M394.091,64.817H291.966L58.205,218.146v75.927c0,8.834,7.161,15.995,15.995,15.995h319.892
	c8.833,0,15.995-7.16,15.995-15.995V80.812C410.085,71.979,402.924,64.817,394.091,64.817z"/>
<g>
</g>
<g>
</g>
<g>
</g>
<g>
</g>
<g>
</g>
<g>
</g>
<g>
</g>
<g>
</g>
<g>
</g>
<g>
</g>
<g>
</g>
<g>
</g>
<g>
</g>
<g>
</g>
<g>
</g>
</svg>
