<?xml version="1.0" encoding="iso-8859-1"?>
<!-- Generator: Adobe Illustrator 19.0.0, SVG Export Plug-In . SVG Version: 6.00 Build 0)  -->
<svg version="1.1" id="Capa_1" xmlns="http://www.w3.org/2000/svg" xmlns:xlink="http://www.w3.org/1999/xlink" x="0px" y="0px"
	 viewBox="0 0 468.293 468.293" style="enable-background:new 0 0 468.293 468.293;" xml:space="preserve">
<path style="fill:#64798A;" d="M146.278,468.293H77.595c-10.345,0-18.732-8.386-18.732-18.732V18.732C58.863,8.386,67.25,0,77.595,0
	h68.683V468.293z"/>
<path style="fill:#E1E6E9;" d="M421.918,468.293h-275.64V0h275.64c10.345,0,18.732,8.386,18.732,18.732v430.829
	C440.649,459.906,432.263,468.293,421.918,468.293z"/>
<g>
	<path style="fill:#D5D6DB;" d="M77.595,150.643H40.131c-6.897,0-12.488-5.591-12.488-12.488v0c0-6.897,5.591-12.488,12.488-12.488
		h37.463c6.897,0,12.488,5.591,12.488,12.488v0C90.083,145.052,84.492,150.643,77.595,150.643z"/>
	<path style="fill:#D5D6DB;" d="M77.595,214.637H40.131c-6.897,0-12.488-5.591-12.488-12.488v0c0-6.897,5.591-12.488,12.488-12.488
		h37.463c6.897,0,12.488,5.591,12.488,12.488v0C90.083,209.046,84.492,214.637,77.595,214.637z"/>
	<path style="fill:#D5D6DB;" d="M77.595,278.631H40.131c-6.897,0-12.488-5.591-12.488-12.488v0c0-6.897,5.591-12.488,12.488-12.488
		h37.463c6.897,0,12.488,5.591,12.488,12.488v0C90.083,273.04,84.492,278.631,77.595,278.631z"/>
	<path style="fill:#D5D6DB;" d="M77.595,342.626H40.131c-6.897,0-12.488-5.591-12.488-12.488l0,0
		c0-6.897,5.591-12.488,12.488-12.488h37.463c6.897,0,12.488,5.591,12.488,12.488l0,0C90.083,337.035,84.492,342.626,77.595,342.626
		z"/>
	<path style="fill:#D5D6DB;" d="M77.595,406.62H40.131c-6.897,0-12.488-5.591-12.488-12.488v0c0-6.897,5.591-12.488,12.488-12.488
		h37.463c6.897,0,12.488,5.591,12.488,12.488v0C90.083,401.029,84.492,406.62,77.595,406.62z"/>
	<path style="fill:#D5D6DB;" d="M380.878,214.581H206.049c-6.897,0-12.488-5.591-12.488-12.488v-87.415
		c0-6.897,5.591-12.488,12.488-12.488h174.829c6.897,0,12.488,5.591,12.488,12.488v87.415
		C393.366,208.99,387.775,214.581,380.878,214.581z"/>
	<path style="fill:#D5D6DB;" d="M40.131,86.648h37.463c6.897,0,12.488-5.591,12.488-12.488H27.643
		C27.643,81.057,33.235,86.648,40.131,86.648z"/>
</g>
<g>
	<path style="fill:#E1E6E9;" d="M77.595,61.673H40.131c-6.896,0-12.488,5.591-12.488,12.488h62.439
		C90.082,67.264,84.492,61.673,77.595,61.673z"/>
	<path style="fill:#E1E6E9;" d="M77.595,125.667H40.131c-6.896,0-12.488,5.591-12.488,12.488h62.439
		C90.082,131.258,84.492,125.667,77.595,125.667z"/>
	<path style="fill:#E1E6E9;" d="M77.595,189.661H40.131c-6.896,0-12.488,5.591-12.488,12.488h62.439
		C90.082,195.252,84.492,189.661,77.595,189.661z"/>
	<path style="fill:#E1E6E9;" d="M77.595,253.656H40.131c-6.896,0-12.488,5.591-12.488,12.488h62.439
		C90.082,259.247,84.492,253.656,77.595,253.656z"/>
	<path style="fill:#E1E6E9;" d="M77.595,317.65H40.131c-6.896,0-12.488,5.591-12.488,12.488h62.439
		C90.082,323.241,84.492,317.65,77.595,317.65z"/>
	<path style="fill:#E1E6E9;" d="M77.595,381.644H40.131c-6.896,0-12.488,5.591-12.488,12.488h62.439
		C90.082,387.235,84.492,381.644,77.595,381.644z"/>
</g>
<g>
</g>
<g>
</g>
<g>
</g>
<g>
</g>
<g>
</g>
<g>
</g>
<g>
</g>
<g>
</g>
<g>
</g>
<g>
</g>
<g>
</g>
<g>
</g>
<g>
</g>
<g>
</g>
<g>
</g>
</svg>
