<?xml version="1.0" encoding="iso-8859-1"?>
<!-- Generator: Adobe Illustrator 19.0.0, SVG Export Plug-In . SVG Version: 6.00 Build 0)  -->
<svg version="1.1" id="Capa_1" xmlns="http://www.w3.org/2000/svg" xmlns:xlink="http://www.w3.org/1999/xlink" x="0px" y="0px"
	 viewBox="0 0 468.293 468.293" style="enable-background:new 0 0 468.293 468.293;" xml:space="preserve">
<polygon style="fill:#E1E6E9;" points="234.134,0 221.194,40.109 221.194,105.24 234.134,105.24 234.146,105.24 234.146,0.039 "/>
<polygon style="fill:#D5D6DB;" points="247.073,40.109 234.146,0.039 234.146,105.24 247.073,105.24 "/>
<path style="fill:#E56353;" d="M311.783,242.197V451.04c0,9.532-7.721,17.253-17.253,17.253H173.762
	c-9.532,0-17.253-7.721-17.253-17.253V242.197c0-42.873,34.764-77.637,77.637-77.637c21.436,0,40.846,8.67,54.907,22.73
	C303.114,201.35,311.783,220.76,311.783,242.197z"/>
<path style="fill:#27A2DB;" d="M267.66,155.488h-67.053c-6.897,0-12.488-5.591-12.488-12.488v-25.205
	c0-6.897,5.591-12.488,12.488-12.488h67.053c6.897,0,12.488,5.591,12.488,12.488V143
	C280.148,149.897,274.557,155.488,267.66,155.488z"/>
<g>
	<rect x="198.244" y="155.554" style="fill:#E1E6E9;" width="71.749" height="17.851"/>
	<path style="fill:#E1E6E9;" d="M267.444,323.499c-5.65-22.773-18.417-38.689-33.298-38.689c-14.88,0-27.691,15.916-33.341,38.689
		h-44.296v52.406h44.296c5.65,22.773,18.46,38.689,33.341,38.689c14.88,0,27.647-15.916,33.298-38.689h44.34v-52.406H267.444z"/>
</g>
<ellipse style="fill:#1C75A1;" cx="234.146" cy="349.721" rx="22.284" ry="40.18"/>
<g>
</g>
<g>
</g>
<g>
</g>
<g>
</g>
<g>
</g>
<g>
</g>
<g>
</g>
<g>
</g>
<g>
</g>
<g>
</g>
<g>
</g>
<g>
</g>
<g>
</g>
<g>
</g>
<g>
</g>
</svg>
