<?xml version="1.0" encoding="iso-8859-1"?>
<!-- Generator: Adobe Illustrator 19.0.0, SVG Export Plug-In . SVG Version: 6.00 Build 0)  -->
<svg version="1.1" id="Capa_1" xmlns="http://www.w3.org/2000/svg" xmlns:xlink="http://www.w3.org/1999/xlink" x="0px" y="0px"
	 viewBox="0 0 468.293 468.293" style="enable-background:new 0 0 468.293 468.293;" xml:space="preserve">
<g>
	<path style="fill:#44C4A1;" d="M422.062,421.727c-54.729,62.088-321.102,62.088-375.831,0
		C-11.565,356.159,173.797,116.19,173.797,116.19h120.698C294.495,116.19,479.858,356.159,422.062,421.727z"/>
	<path style="fill:#44C4A1;" d="M294.495,116.19H173.797l-38.603-98.115c-2.398-6.095,4.397-11.702,9.926-8.191l0.153,0.097
		c2.215,1.407,5.042,1.407,7.257,0l14.054-8.926c2.214-1.407,5.042-1.407,7.257,0l14.054,8.926c2.214,1.407,5.042,1.407,7.257,0
		l14.054-8.926c2.214-1.407,5.042-1.407,7.257,0l14.054,8.926c2.214,1.407,5.042,1.407,7.257,0l14.054-8.926
		c2.214-1.407,5.042-1.407,7.257,0l14.054,8.926c2.215,1.407,5.042,1.407,7.257,0l14.054-8.926c2.215-1.407,5.042-1.407,7.257,0
		l14.054,8.926c2.215,1.407,5.042,1.407,7.257,0l0.153-0.097c5.529-3.512,12.324,2.096,9.926,8.191L294.495,116.19z"/>
</g>
<circle style="fill:#FCD462;" cx="234.146" cy="299.02" r="104.941"/>
<path style="fill:#DC8744;" d="M230.267,372.192v-12.889c-16.136-1.645-30.619-8.061-43.436-19.24l12.889-15.36
	c9.886,8.592,20.059,13.708,30.548,15.36v-34.255c-13.305-3.175-23.047-7.357-29.226-12.537c-6.178-5.18-9.268-12.86-9.268-23.04
	c0-10.18,3.549-18.507,10.676-24.987c7.127-6.473,16.395-10.001,27.818-10.59v-8.83h11.294v9.002
	c12.946,0.948,25.188,5.359,36.726,13.248l-11.48,16.244c-7.773-5.532-16.179-8.944-25.246-10.245v33.191h0.532
	c13.535,3.183,23.478,7.479,29.829,12.889c6.365,5.417,9.541,13.277,9.541,23.572c0,10.302-3.65,18.694-10.949,25.159
	c-7.299,6.48-16.941,10.008-28.953,10.597v12.709H230.267z M217.809,258.227c-3.003,2.644-4.497,5.941-4.497,9.886
	c0,3.944,1.178,7.062,3.535,9.354c2.342,2.299,6.825,4.505,13.42,6.624v-30.548C224.965,254.017,220.812,255.576,217.809,258.227z
	 M254.981,335.645c3.29-2.701,4.943-6.114,4.943-10.238c0-4.117-1.293-7.385-3.88-9.799c-2.601-2.414-7.429-4.677-14.484-6.796
	v31.776C247.207,340.006,251.676,338.354,254.981,335.645z"/>
<path style="fill:#3EA69B;" d="M334.038,130.881H170.836c-7.475,0-13.535-6.06-13.535-13.535V103.81
	c0-7.475,6.06-13.535,13.535-13.535h163.203c2.703,0,4.315,3.012,2.816,5.261l-8.777,13.165c-0.758,1.137-0.758,2.617,0,3.754
	l8.777,13.165C338.353,127.868,336.741,130.881,334.038,130.881z"/>
<path style="fill:#44C4A1;" d="M328.077,112.454c-0.758-1.137-0.758-2.618,0-3.755l8.777-13.164
	c1.499-2.249-0.113-5.261-2.815-5.261h-6.768c2.703,0,4.315,3.012,2.815,5.261l-8.777,13.164c-0.758,1.137-0.758,2.618,0,3.755
	l8.777,13.164c1.499,2.249-0.113,5.262-2.815,5.262h6.768c2.703,0,4.315-3.013,2.815-5.262L328.077,112.454z"/>
<g>
</g>
<g>
</g>
<g>
</g>
<g>
</g>
<g>
</g>
<g>
</g>
<g>
</g>
<g>
</g>
<g>
</g>
<g>
</g>
<g>
</g>
<g>
</g>
<g>
</g>
<g>
</g>
<g>
</g>
</svg>
