<?xml version="1.0" encoding="iso-8859-1"?>
<!-- Generator: Adobe Illustrator 19.0.0, SVG Export Plug-In . SVG Version: 6.00 Build 0)  -->
<svg version="1.1" id="Capa_1" xmlns="http://www.w3.org/2000/svg" xmlns:xlink="http://www.w3.org/1999/xlink" x="0px" y="0px"
	 viewBox="0 0 468.293 468.293" style="enable-background:new 0 0 468.293 468.293;" xml:space="preserve">
<path style="fill:#64798A;" d="M421.372,421.248H46.921V236.944c0-13.794,11.182-24.976,24.976-24.976h324.501
	c13.794,0,24.976,11.182,24.976,24.976V421.248z"/>
<path style="fill:#D5D6DB;" d="M398.964,439.971H69.331l137.183-302.706c0.414-1.847-0.811-3.498-2.334-4.221
	c-24.275-11.519-39.962-36.296-39.962-63.122c0-19.868,8.496-38.865,23.306-52.124c14.798-13.244,34.69-19.582,54.595-17.364
	c32.198,3.578,58.081,29.562,61.543,61.784c3.218,29.903-12.902,58.472-40.115,71.09c-1.383,0.643-2.115,2.42-1.725,4.083
	L398.964,439.971z M98.756,421.249h270.783l-125.36-277.53c-3.657-10.885,1.28-22.663,11.494-27.395
	c19.929-9.239,31.735-30.18,29.376-52.106c-2.529-23.559-21.459-42.559-45.003-45.176c-14.804-1.655-29.035,2.861-40.035,12.707
	c-10.848,9.712-17.071,23.626-17.071,38.173c0,19.634,11.488,37.771,29.266,46.209c10.416,4.943,15.553,16.745,11.958,27.45
	l-0.396,0.981L98.756,421.249z"/>
<path style="fill:#3A556A;" d="M433.854,421.249H34.439c-6.893,0-12.482,5.588-12.482,12.482v22.081
	c0,6.893,5.588,12.482,12.482,12.482H56.68c5.005,0,9.873-2.689,11.825-7.297c2.844-6.715,9.496-11.426,17.247-11.426
	s14.403,4.711,17.247,11.426c1.952,4.608,6.82,7.297,11.825,7.297h90.251c5.005,0,9.873-2.689,11.825-7.297
	c2.845-6.715,9.496-11.426,17.247-11.426c7.752,0,14.403,4.711,17.247,11.426c1.952,4.608,6.82,7.297,11.825,7.297h90.251
	c5.005,0,9.873-2.689,11.825-7.297c2.844-6.715,9.496-11.426,17.247-11.426c7.752,0,14.403,4.711,17.247,11.426
	c1.952,4.608,6.82,7.297,11.825,7.297h22.241c6.893,0,12.482-5.588,12.482-12.482V433.73
	C446.336,426.837,440.747,421.249,433.854,421.249z"/>
<g>
</g>
<g>
</g>
<g>
</g>
<g>
</g>
<g>
</g>
<g>
</g>
<g>
</g>
<g>
</g>
<g>
</g>
<g>
</g>
<g>
</g>
<g>
</g>
<g>
</g>
<g>
</g>
<g>
</g>
</svg>
