<?xml version="1.0" encoding="iso-8859-1"?>
<!-- Generator: Adobe Illustrator 19.0.0, SVG Export Plug-In . SVG Version: 6.00 Build 0)  -->
<svg version="1.1" id="Capa_1" xmlns="http://www.w3.org/2000/svg" xmlns:xlink="http://www.w3.org/1999/xlink" x="0px" y="0px"
	 viewBox="0 0 468.293 468.293" style="enable-background:new 0 0 468.293 468.293;" xml:space="preserve">
<g>
	<path style="fill:#2D93BA;" d="M463.06,154.109c-6.977-6.977-18.285-6.977-25.262,0L192.087,399.82
		c-35.724,35.724-93.855,35.725-129.582,0l-25.262,25.262c49.656,49.653,130.451,49.655,180.106,0L463.06,179.371
		C470.037,172.394,470.037,161.085,463.06,154.109z"/>
	<path style="fill:#2D93BA;" d="M358.649,144.495L174.367,328.778c-10.783,10.783-28.329,10.783-39.109,0.003
		c-0.294-0.294-0.492-0.64-0.769-0.943l-25.305,25.305c0.282,0.293,0.524,0.611,0.813,0.9c24.71,24.709,64.922,24.709,89.634-0.003
		l184.282-184.282c29.639-29.639,35.703-73.968,18.387-109.73l-27.766,27.766C379.252,107.507,374.003,129.141,358.649,144.495z"/>
</g>
<path style="fill:#27A2DB;" d="M62.503,399.817c-35.722-35.722-35.722-93.854,0.002-129.579L273.448,59.295
	c23.488-23.488,61.707-23.488,85.198,0.002c8.136,8.136,13.385,18.051,15.886,28.496l27.766-27.766
	c-4.545-9.386-10.61-18.213-18.389-25.992c-37.42-37.419-98.305-37.419-135.722-0.002L37.243,244.976
	c-49.656,49.656-49.658,130.447-0.002,180.103l0.002,0.002l25.262-25.262L62.503,399.817z"/>
<path style="fill:#2D93BA;" d="M135.255,289.666l170.887-170.887c6.977-6.977,6.977-18.285,0-25.262
	c-6.977-6.977-18.285-6.977-25.262,0L109.993,264.404c-24.423,24.423-24.664,63.96-0.81,88.739l25.305-25.305
	C124.566,316.997,124.764,300.156,135.255,289.666z"/>
<g>
</g>
<g>
</g>
<g>
</g>
<g>
</g>
<g>
</g>
<g>
</g>
<g>
</g>
<g>
</g>
<g>
</g>
<g>
</g>
<g>
</g>
<g>
</g>
<g>
</g>
<g>
</g>
<g>
</g>
</svg>
