<?xml version="1.0" encoding="iso-8859-1"?>
<!-- Generator: Adobe Illustrator 19.0.0, SVG Export Plug-In . SVG Version: 6.00 Build 0)  -->
<svg version="1.1" id="Capa_1" xmlns="http://www.w3.org/2000/svg" xmlns:xlink="http://www.w3.org/1999/xlink" x="0px" y="0px"
	 viewBox="0 0 465.786 465.786" style="enable-background:new 0 0 465.786 465.786;" xml:space="preserve">
<rect x="4.507" y="229.386" style="fill:#27A2DB;" width="62.439" height="236.4"/>
<rect x="102.879" y="312.998" style="fill:#FCD462;" width="62.439" height="152.763"/>
<rect x="201.508" y="250.852" style="fill:#44C4A1;" width="62.439" height="214.909"/>
<rect x="300.155" y="184.117" style="fill:#E56353;" width="62.439" height="281.662"/>
<rect x="398.84" y="82.442" style="fill:#27A2DB;" width="62.439" height="383.313"/>
<path style="fill:#64798A;" d="M350.457,15.607C350.457,6.988,343.47,0,334.848,0h-55.585c-8.622,0-15.61,6.988-15.61,15.61
	s6.988,15.61,15.61,15.61h17.905L119.518,208.872c-6.098,6.095-6.098,15.979,0,22.073c3.049,3.049,7.043,4.573,11.037,4.573
	c3.994,0,7.988-1.524,11.037-4.573L319.241,53.293l0.003,17.905c0,8.619,6.988,15.607,15.61,15.607
	c8.622,0,15.61-6.991,15.61-15.613L350.457,15.607z"/>
<g>
</g>
<g>
</g>
<g>
</g>
<g>
</g>
<g>
</g>
<g>
</g>
<g>
</g>
<g>
</g>
<g>
</g>
<g>
</g>
<g>
</g>
<g>
</g>
<g>
</g>
<g>
</g>
<g>
</g>
</svg>
