<?xml version="1.0" encoding="iso-8859-1"?>
<!-- Generator: Adobe Illustrator 19.0.0, SVG Export Plug-In . SVG Version: 6.00 Build 0)  -->
<svg version="1.1" id="Capa_1" xmlns="http://www.w3.org/2000/svg" xmlns:xlink="http://www.w3.org/1999/xlink" x="0px" y="0px"
	 viewBox="0 0 468.293 468.293" style="enable-background:new 0 0 468.293 468.293;" xml:space="preserve">
<path style="fill:#FCD462;" d="M386.868,63.536c-38.253-38.253-91.097-61.912-149.47-61.912l0.001,211.382L386.868,63.536z"/>
<path style="fill:#44C4A1;" d="M256.911,226.16h211.381c0-58.371-23.66-111.217-61.912-149.47L256.911,226.16L256.911,226.16z"/>
<path style="fill:#27A2DB;" d="M217.887,213.005L217.887,213.005L217.886,1.623l0,0c-58.371,0-111.217,23.66-149.47,61.912
	L217.887,213.005L217.887,213.005z"/>
<path style="fill:#DC8744;" d="M237.398,466.67c58.371,0,111.216-23.66,149.469-61.912l-149.469-149.47V466.67z"/>
<path style="fill:#27A2DB;" d="M468.293,245.526H256.911l0,0l149.469,149.47C444.633,356.743,468.293,303.897,468.293,245.526
	L468.293,245.526z"/>
<path style="fill:#E56353;" d="M211.382,232.517L61.912,83.048C23.66,121.3,0,174.145,0,232.517
	c0,58.371,23.66,111.217,61.912,149.47s91.098,61.912,149.47,61.912h0.001L211.382,232.517L211.382,232.517z"/>
<g>
</g>
<g>
</g>
<g>
</g>
<g>
</g>
<g>
</g>
<g>
</g>
<g>
</g>
<g>
</g>
<g>
</g>
<g>
</g>
<g>
</g>
<g>
</g>
<g>
</g>
<g>
</g>
<g>
</g>
</svg>
