<?xml version="1.0" encoding="iso-8859-1"?>
<!-- Generator: Adobe Illustrator 19.0.0, SVG Export Plug-In . SVG Version: 6.00 Build 0)  -->
<svg version="1.1" id="Capa_1" xmlns="http://www.w3.org/2000/svg" xmlns:xlink="http://www.w3.org/1999/xlink" x="0px" y="0px"
	 viewBox="0 0 468.293 468.293" style="enable-background:new 0 0 468.293 468.293;" xml:space="preserve">
<path style="fill:#D5D6DB;" d="M249.752,94.461H218.54V12.488C218.54,5.591,224.131,0,231.028,0h6.236
	c6.897,0,12.488,5.591,12.488,12.488V94.461z"/>
<path style="fill:#E1E6E9;" d="M401.352,320.392H66.941V83.186c0-6.897,5.591-12.488,12.488-12.488h309.435
	c6.897,0,12.488,5.591,12.488,12.488V320.392z"/>
<path style="fill:#EBF0F3;" d="M401.352,320.392H234.146V70.698h154.718c6.897,0,12.488,5.591,12.488,12.488V320.392z"/>
<path style="fill:#64798A;" d="M266.226,70.28h-64.159V58.849c0-6.897,5.591-12.488,12.488-12.488h39.183
	c6.897,0,12.488,5.591,12.488,12.488V70.28z"/>
<path style="fill:#D5D6DB;" d="M54.308,320.704h359.678v15.751c0,6.897-5.591,12.488-12.488,12.488H66.795
	c-6.897,0-12.488-5.591-12.488-12.488V320.704z"/>
<g>
	<path style="fill:#64798A;" d="M216.699,345.968h34.894v87.002c0,3.448-2.795,6.244-6.244,6.244h-22.407
		c-3.448,0-6.244-2.795-6.244-6.244V345.968z"/>
	<path style="fill:#64798A;" d="M141.543,345.968h34.894l-28.16,117.625c-0.534,2.73-2.926,4.7-5.708,4.7h-23.043
		c-3.66,0-6.41-3.34-5.708-6.932L141.543,345.968z"/>
	<path style="fill:#64798A;" d="M326.75,345.968h-34.894l28.16,117.625c0.534,2.73,2.926,4.7,5.708,4.7h23.043
		c3.66,0,6.41-3.34,5.708-6.932L326.75,345.968z"/>
</g>
<path style="fill:#E56353;" d="M299.44,120.885c-16.71-16.71-39.795-27.045-65.294-27.045c-25.499,0-48.584,10.336-65.294,27.046
	l65.294,65.293L299.44,120.885z"/>
<path style="fill:#27A2DB;" d="M326.486,204.911c0-25.499-10.336-48.584-27.046-65.294l-65.294,65.294l65.294,65.294
	C316.15,253.494,326.486,230.41,326.486,204.911z"/>
<path style="fill:#44C4A1;" d="M168.852,139.618c-16.71,16.71-27.045,39.794-27.045,65.293c0,25.499,10.336,48.583,27.046,65.294
	s39.795,27.046,65.294,27.046c25.498,0,48.584-10.336,65.294-27.046l-65.294-65.294L168.852,139.618z"/>
<g>
</g>
<g>
</g>
<g>
</g>
<g>
</g>
<g>
</g>
<g>
</g>
<g>
</g>
<g>
</g>
<g>
</g>
<g>
</g>
<g>
</g>
<g>
</g>
<g>
</g>
<g>
</g>
<g>
</g>
</svg>
