<?xml version="1.0" encoding="iso-8859-1"?>
<!-- Generator: Adobe Illustrator 19.0.0, SVG Export Plug-In . SVG Version: 6.00 Build 0)  -->
<svg version="1.1" id="Capa_1" xmlns="http://www.w3.org/2000/svg" xmlns:xlink="http://www.w3.org/1999/xlink" x="0px" y="0px"
	 viewBox="0 0 468.293 468.293" style="enable-background:new 0 0 468.293 468.293;" xml:space="preserve">
<path style="fill:#27A2DB;" d="M295.823,137.039L322.721,22.54C325.426,11.027,316.689,0,304.862,0H163.43
	c-11.827,0-20.563,11.027-17.859,22.54l26.899,114.498c1.821,7.753-1.658,15.653-8.405,19.883
	c-33.705,21.131-57.23,56.974-61.4,98.579c-0.715,7.136,5.055,13.3,12.226,13.3h238.51c7.172,0,12.942-6.164,12.226-13.3
	c-4.17-41.605-27.695-77.448-61.4-98.579C297.48,152.692,294.001,144.792,295.823,137.039z"/>
<g>
	<polygon style="fill:#EBF0F3;" points="220.913,125.778 205.189,125.778 199.293,36.094 226.81,36.094 	"/>
	<path style="fill:#EBF0F3;" d="M203.481,183.241c0,0-22.564,11.675-24.687,45.637h36.786c0,0-11.38-26.533,0-45.637H203.481z"/>
</g>
<path style="fill:#2D93BA;" d="M136.309,268.801h195.675v19.422c0,3.448-2.796,6.244-6.244,6.244H142.553
	c-3.448,0-6.244-2.795-6.244-6.244V268.801z"/>
<path style="fill:#D5D6DB;" d="M230.248,465.462l-15.647-170.995h39.091l-15.647,170.995
	C237.687,469.236,230.606,469.236,230.248,465.462z"/>
<g>
</g>
<g>
</g>
<g>
</g>
<g>
</g>
<g>
</g>
<g>
</g>
<g>
</g>
<g>
</g>
<g>
</g>
<g>
</g>
<g>
</g>
<g>
</g>
<g>
</g>
<g>
</g>
<g>
</g>
</svg>
