<?xml version="1.0" encoding="iso-8859-1"?>
<!-- Generator: Adobe Illustrator 19.0.0, SVG Export Plug-In . SVG Version: 6.00 Build 0)  -->
<svg version="1.1" id="Capa_1" xmlns="http://www.w3.org/2000/svg" xmlns:xlink="http://www.w3.org/1999/xlink" x="0px" y="0px"
	 viewBox="0 0 468.293 468.293" style="enable-background:new 0 0 468.293 468.293;" xml:space="preserve">
<polygon style="fill:#E1E6E9;" points="148.62,303.442 0,318.98 20.442,330.004 20.06,343.96 39.78,353.029 40.243,366.898 
	58.784,375.658 59.189,389.711 75.21,395.47 75.597,409.202 91.471,427.895 278.248,412.357 "/>
<circle style="fill:#3EA69B;" cx="228.652" cy="190.313" r="149.916"/>
<circle style="fill:#44C4A1;" cx="294.531" cy="248.869" r="173.762"/>
<circle style="fill:#D5D6DB;" cx="294.531" cy="248.869" r="112.103"/>
<circle style="fill:#EBF0F3;" cx="294.531" cy="248.869" r="95.288"/>
<path style="fill:#64798A;" d="M347.238,169.504c5.684,12.208,8.949,25.77,8.949,40.124c0,52.626-42.662,95.289-95.289,95.289
	c-19.497,0-37.609-5.88-52.708-15.928c15.156,32.55,48.067,55.165,86.339,55.165c52.627,0,95.289-42.663,95.289-95.289
	C389.819,215.735,372.895,186.578,347.238,169.504z"/>
<g>
</g>
<g>
</g>
<g>
</g>
<g>
</g>
<g>
</g>
<g>
</g>
<g>
</g>
<g>
</g>
<g>
</g>
<g>
</g>
<g>
</g>
<g>
</g>
<g>
</g>
<g>
</g>
<g>
</g>
</svg>
