<?xml version="1.0" encoding="iso-8859-1"?>
<!-- Generator: Adobe Illustrator 19.0.0, SVG Export Plug-In . SVG Version: 6.00 Build 0)  -->
<svg version="1.1" id="Capa_1" xmlns="http://www.w3.org/2000/svg" xmlns:xlink="http://www.w3.org/1999/xlink" x="0px" y="0px"
	 viewBox="0 0 468.293 468.293" style="enable-background:new 0 0 468.293 468.293;" xml:space="preserve">
<rect x="104.086" y="70.968" style="fill:#E1E6E9;" width="260.165" height="121.344"/>
<polygon style="fill:#D5D6DB;" points="351.74,48.074 116.553,48.074 104.065,70.968 364.228,70.968 "/>
<rect x="72.848" y="117.541" style="fill:#E1E6E9;" width="322.604" height="127.588"/>
<polygon style="fill:#D5D6DB;" points="382.959,94.645 85.333,94.645 72.846,117.539 395.447,117.539 "/>
<rect x="41.628" y="167.337" style="fill:#E1E6E9;" width="385.061" height="146.32"/>
<polygon style="fill:#D5D6DB;" points="414.179,144.44 54.114,144.44 41.626,167.335 426.667,167.335 "/>
<path style="fill:#DC8744;" d="M350.907,213.33v39.246c0,13.794-11.182,24.976-24.976,24.976h-183.57
	c-13.794,0-24.976-11.182-24.976-24.976V213.33c0-3.448-2.795-6.244-6.244-6.244H6.244c-3.448,0-6.244,2.795-6.244,6.244v181.913
	c0,13.794,11.182,24.976,24.976,24.976h418.341c13.794,0,24.976-11.182,24.976-24.976V213.33c0-3.448-2.796-6.244-6.244-6.244
	H357.151C353.702,207.087,350.907,209.882,350.907,213.33z"/>
<path style="fill:#F6C358;" d="M332.343,319.691c-4.518-2.5-10.226-0.869-12.732,3.662l-17.872,32.299H166.556l-17.872-32.299
	c-2.506-4.53-8.207-6.162-12.732-3.662c-4.524,2.503-6.165,8.204-3.659,12.729l20.543,37.131c1.646,2.982,4.787,4.832,8.195,4.832
	h146.232c3.409,0,6.549-1.851,8.195-4.832l20.543-37.131C338.508,327.896,336.867,322.194,332.343,319.691z"/>
<g>
</g>
<g>
</g>
<g>
</g>
<g>
</g>
<g>
</g>
<g>
</g>
<g>
</g>
<g>
</g>
<g>
</g>
<g>
</g>
<g>
</g>
<g>
</g>
<g>
</g>
<g>
</g>
<g>
</g>
</svg>
