<?xml version="1.0" encoding="iso-8859-1"?>
<!-- Generator: Adobe Illustrator 19.0.0, SVG Export Plug-In . SVG Version: 6.00 Build 0)  -->
<svg version="1.1" id="Capa_1" xmlns="http://www.w3.org/2000/svg" xmlns:xlink="http://www.w3.org/1999/xlink" x="0px" y="0px"
	 viewBox="0 0 468.293 468.293" style="enable-background:new 0 0 468.293 468.293;" xml:space="preserve">
<path style="fill:#FCD462;" d="M0,134.811v281.797c0,6.156,4.99,11.146,11.146,11.146h395.667c6.156,0,11.146-4.99,11.146-11.146
	V134.811c0-9.233-7.485-16.718-16.718-16.718H16.718C7.485,118.093,0,125.578,0,134.811z"/>
<path style="fill:#E1E6E9;" d="M324.838,40.538H107.8c-6.156,0-11.146,4.99-11.146,11.146v248.01h278.639v-208.7L324.838,40.538z"/>
<g>
	<polygon style="fill:#EBF0F3;" points="324.838,90.994 375.294,90.994 324.838,40.539 	"/>
	<path style="fill:#EBF0F3;" d="M285.829,85.121H68.791c-6.156,0-11.146,4.99-11.146,11.146v248.01h278.639v-208.7L285.829,85.121z"
		/>
</g>
<polygon style="fill:#D5D6DB;" points="285.829,135.576 336.284,135.576 285.829,85.121 "/>
<path style="fill:#F6C358;" d="M417.958,427.754H10.066c-2.985,0-5.127-2.877-4.271-5.737l53.513-178.745
	c2.118-7.076,8.63-11.923,16.016-11.923h376.24c11.095,0,19.112,10.609,16.083,21.282L417.958,427.754z"/>
<g>
	<path style="fill:#D5D6DB;" d="M205.878,135.576H90.631c-3.448,0-6.244,2.796-6.244,6.244c0,3.448,2.796,6.244,6.244,6.244h115.247
		c3.448,0,6.244-2.796,6.244-6.244C212.122,138.372,209.326,135.576,205.878,135.576z"/>
	<path style="fill:#D5D6DB;" d="M307.934,181.556H90.631c-3.448,0-6.244,2.796-6.244,6.244s2.796,6.244,6.244,6.244h217.303
		c3.448,0,6.244-2.796,6.244-6.244S311.383,181.556,307.934,181.556z"/>
</g>
<g>
</g>
<g>
</g>
<g>
</g>
<g>
</g>
<g>
</g>
<g>
</g>
<g>
</g>
<g>
</g>
<g>
</g>
<g>
</g>
<g>
</g>
<g>
</g>
<g>
</g>
<g>
</g>
<g>
</g>
</svg>
