<?xml version="1.0" encoding="iso-8859-1"?>
<!-- Generator: Adobe Illustrator 19.0.0, SVG Export Plug-In . SVG Version: 6.00 Build 0)  -->
<svg version="1.1" id="Capa_1" xmlns="http://www.w3.org/2000/svg" xmlns:xlink="http://www.w3.org/1999/xlink" x="0px" y="0px"
	 viewBox="0 0 468.293 468.293" style="enable-background:new 0 0 468.293 468.293;" xml:space="preserve">
<path style="fill:#D15241;" d="M338.929,353.59H24.976C11.182,353.59,0,342.408,0,328.615v-220.5
	c0-13.794,11.182-24.976,24.976-24.976h338.929v245.476C363.905,342.408,352.723,353.59,338.929,353.59z"/>
<path style="fill:#E56353;" d="M344.496,353.59H19.408C8.689,353.59,0,344.901,0,334.182V151.068
	c0-8.039,6.517-14.556,14.556-14.556h165.808c6.3,0,11.885-4.053,13.838-10.042l20.357-62.402
	c1.954-5.989,7.539-10.042,13.838-10.042h120.95c8.039,0,14.556,6.517,14.556,14.556v265.599
	C363.905,344.901,355.215,353.59,344.496,353.59z"/>
<path style="fill:#D5D6DB;" d="M468.293,319.368V300.39c0-2.157-1.589-3.985-3.725-4.285l-16.173-2.27
	c-1.775-0.249-3.17-1.581-3.586-3.324c-2.065-8.647-5.483-16.764-10.013-24.128c-0.94-1.528-0.892-3.455,0.188-4.887l9.842-13.056
	c1.299-1.723,1.13-4.139-0.395-5.664l-13.419-13.42c-1.525-1.526-3.941-1.694-5.664-0.396l-13.057,9.842
	c-1.433,1.08-3.359,1.128-4.887,0.188c-7.363-4.53-15.48-7.948-24.126-10.012c-1.743-0.416-3.075-1.811-3.324-3.586l-2.271-16.176
	c-0.3-2.136-2.128-3.725-4.285-3.725h-18.979c-2.157,0-3.985,1.589-4.285,3.725l-2.271,16.176c-0.249,1.775-1.581,3.17-3.324,3.586
	c-8.646,2.064-16.762,5.482-24.125,10.011c-1.528,0.94-3.455,0.892-4.887-0.188l-13.06-9.845c-1.723-1.299-4.139-1.13-5.664,0.395
	l-13.421,13.419c-1.526,1.525-1.694,3.942-0.396,5.664l9.845,13.06c1.08,1.433,1.128,3.359,0.188,4.887
	c-4.529,7.363-7.948,15.479-10.012,24.125c-0.416,1.743-1.811,3.075-3.586,3.324l-16.18,2.271c-2.136,0.3-3.726,2.128-3.726,4.285
	v18.978c0,2.157,1.589,3.985,3.725,4.285l16.179,2.271c1.775,0.249,3.17,1.581,3.586,3.324c2.064,8.646,5.482,16.763,10.012,24.126
	c0.94,1.528,0.892,3.455-0.188,4.887l-9.844,13.058c-1.299,1.723-1.13,4.139,0.395,5.664l13.419,13.42
	c1.525,1.526,3.942,1.694,5.664,0.396l13.058-9.844c1.433-1.08,3.359-1.128,4.887-0.188c7.364,4.53,15.481,7.949,24.128,10.013
	c1.743,0.416,3.075,1.811,3.324,3.586l2.271,16.176c0.3,2.136,2.128,3.725,4.285,3.725h18.978c2.157,0,3.985-1.589,4.285-3.725
	l2.271-16.176c0.249-1.775,1.581-3.17,3.324-3.586c8.646-2.064,16.762-5.482,24.125-10.011c1.528-0.94,3.455-0.892,4.887,0.188
	l13.052,9.84c1.723,1.299,4.139,1.13,5.664-0.395l13.421-13.419c1.526-1.525,1.694-3.941,0.396-5.664l-9.839-13.053
	c-1.08-1.433-1.128-3.359-0.188-4.887c4.53-7.364,7.949-15.482,10.013-24.13c0.416-1.743,1.811-3.075,3.586-3.324l16.173-2.27
	C466.703,323.353,468.293,321.525,468.293,319.368z"/>
<circle style="fill:#FFFFFF;" cx="363.907" cy="309.885" r="57.063"/>
<g>
</g>
<g>
</g>
<g>
</g>
<g>
</g>
<g>
</g>
<g>
</g>
<g>
</g>
<g>
</g>
<g>
</g>
<g>
</g>
<g>
</g>
<g>
</g>
<g>
</g>
<g>
</g>
<g>
</g>
</svg>
