<?xml version="1.0" encoding="iso-8859-1"?>
<!-- Generator: Adobe Illustrator 19.0.0, SVG Export Plug-In . SVG Version: 6.00 Build 0)  -->
<svg version="1.1" id="Capa_1" xmlns="http://www.w3.org/2000/svg" xmlns:xlink="http://www.w3.org/1999/xlink" x="0px" y="0px"
	 viewBox="0 0 468.293 468.293" style="enable-background:new 0 0 468.293 468.293;" xml:space="preserve">
<path style="fill:#EBF0F3;" d="M94.812,9.333c-23.8,0-43.096,19.295-43.096,43.096v320.162h261.431v43.273
	c0,23.801,19.294,43.096,43.096,43.096l0,0c23.8,0,43.096-19.295,43.096-43.096V43.818l34.477-34.485H94.812z"/>
<path style="fill:#E1E6E9;" d="M313.146,415.864v-43.273H0v43.273c0,23.801,19.297,43.096,43.096,43.096h313.146
	C332.441,458.96,313.146,439.665,313.146,415.864z"/>
<g>
	<path style="fill:#D5D6DB;" d="M433.816,9.333L433.816,9.333c-19.042,0-34.477,15.436-34.477,34.477v68.954h68.954V43.81
		C468.293,24.769,452.855,9.333,433.816,9.333z"/>
	<path style="fill:#D5D6DB;" d="M105.397,72.348h237.268c3.451,0,6.244-2.796,6.244-6.244c0-3.448-2.793-6.244-6.244-6.244H105.397
		c-3.451,0-6.244,2.796-6.244,6.244C99.153,69.552,101.946,72.348,105.397,72.348z"/>
	<path style="fill:#D5D6DB;" d="M143.031,96.781c-3.451,0-6.244,2.796-6.244,6.244c0,3.448,2.793,6.244,6.244,6.244h162.006
		c3.451,0,6.244-2.796,6.244-6.244c0-3.448-2.793-6.244-6.244-6.244H143.031z"/>
	<path style="fill:#D5D6DB;" d="M342.665,133.701H105.397c-3.451,0-6.244,2.796-6.244,6.244c0,3.448,2.793,6.244,6.244,6.244
		h237.268c3.451,0,6.244-2.796,6.244-6.244C348.909,136.497,346.116,133.701,342.665,133.701z"/>
	<path style="fill:#D5D6DB;" d="M305.037,183.11c3.451,0,6.244-2.796,6.244-6.244c0-3.448-2.793-6.244-6.244-6.244H143.031
		c-3.451,0-6.244,2.796-6.244,6.244c0,3.448,2.793,6.244,6.244,6.244H305.037z"/>
	<path style="fill:#D5D6DB;" d="M342.665,207.543H105.397c-3.451,0-6.244,2.796-6.244,6.244s2.793,6.244,6.244,6.244h237.268
		c3.451,0,6.244-2.796,6.244-6.244S346.116,207.543,342.665,207.543z"/>
	<path style="fill:#D5D6DB;" d="M305.037,256.954c3.451,0,6.244-2.796,6.244-6.244c0-3.448-2.793-6.244-6.244-6.244H143.031
		c-3.451,0-6.244,2.796-6.244,6.244c0,3.448,2.793,6.244,6.244,6.244H305.037z"/>
	<path style="fill:#D5D6DB;" d="M342.665,281.387H105.397c-3.451,0-6.244,2.796-6.244,6.244c0,3.448,2.793,6.244,6.244,6.244
		h237.268c3.451,0,6.244-2.796,6.244-6.244C348.909,284.183,346.116,281.387,342.665,281.387z"/>
	<path style="fill:#D5D6DB;" d="M305.037,318.308H143.031c-3.451,0-6.244,2.796-6.244,6.244c0,3.448,2.793,6.244,6.244,6.244
		h162.006c3.451,0,6.244-2.796,6.244-6.244C311.281,321.104,308.488,318.308,305.037,318.308z"/>
</g>
<g>
</g>
<g>
</g>
<g>
</g>
<g>
</g>
<g>
</g>
<g>
</g>
<g>
</g>
<g>
</g>
<g>
</g>
<g>
</g>
<g>
</g>
<g>
</g>
<g>
</g>
<g>
</g>
<g>
</g>
</svg>
