<?xml version="1.0" encoding="iso-8859-1"?>
<!-- Generator: Adobe Illustrator 19.0.0, SVG Export Plug-In . SVG Version: 6.00 Build 0)  -->
<svg version="1.1" id="Capa_1" xmlns="http://www.w3.org/2000/svg" xmlns:xlink="http://www.w3.org/1999/xlink" x="0px" y="0px"
	 viewBox="0 0 468.293 468.293" style="enable-background:new 0 0 468.293 468.293;" xml:space="preserve">
<polygon style="fill:#3B566A;" points="274.553,177.254 196.779,313.915 115.035,127.208 31.962,272.086 42.791,278.3 
	113.535,154.922 195.328,341.726 281.809,189.742 427.285,189.742 427.285,177.254 "/>
<ellipse style="fill:#FCD462;" cx="40.399" cy="275.237" rx="40.392" ry="40.392"/>
<path style="fill:#F6C358;" d="M11.837,246.676c-15.773,15.773-15.773,41.347,0.001,57.121l57.12-57.121
	C53.184,230.903,27.61,230.903,11.837,246.676z"/>
<ellipse style="fill:#E56353;" cx="114.276" cy="141.054" rx="40.392" ry="40.392"/>
<path style="fill:#D15241;" d="M85.724,112.505c-15.773,15.773-15.773,41.347,0.002,57.12l57.12-57.12
	C127.071,96.732,101.498,96.732,85.724,112.505z"/>
<ellipse style="fill:#44C4A1;" cx="199.858" cy="327.235" rx="40.392" ry="40.392"/>
<path style="fill:#3EA69B;" d="M171.295,298.668c-15.773,15.773-15.773,41.348,0,57.121l57.12-57.121
	C212.642,282.895,187.068,282.894,171.295,298.668z"/>
<ellipse style="fill:#27A2DB;" cx="278.662" cy="186.325" rx="40.392" ry="40.392"/>
<path style="fill:#2D93BA;" d="M250.082,157.789c-15.774,15.774-15.773,41.348,0,57.121l57.122-57.121
	C291.431,142.015,265.856,142.015,250.082,157.789z"/>
<circle style="fill:#3A556A;" cx="427.901" cy="186.319" r="40.392"/>
<path style="fill:#64798A;" d="M399.348,157.788c-15.774,15.774-15.773,41.348,0,57.121l57.121-57.121
	C440.696,142.015,415.121,142.015,399.348,157.788z"/>
<g>
</g>
<g>
</g>
<g>
</g>
<g>
</g>
<g>
</g>
<g>
</g>
<g>
</g>
<g>
</g>
<g>
</g>
<g>
</g>
<g>
</g>
<g>
</g>
<g>
</g>
<g>
</g>
<g>
</g>
</svg>
