<?xml version="1.0" encoding="iso-8859-1"?>
<!-- Generator: Adobe Illustrator 19.0.0, SVG Export Plug-In . SVG Version: 6.00 Build 0)  -->
<svg version="1.1" id="Capa_1" xmlns="http://www.w3.org/2000/svg" xmlns:xlink="http://www.w3.org/1999/xlink" x="0px" y="0px"
	 viewBox="0 0 468.293 468.293" style="enable-background:new 0 0 468.293 468.293;" xml:space="preserve">
<path style="fill:#1C75A1;" d="M249.399,53.738h-30.506V6.244c0-3.448,2.796-6.244,6.244-6.244h18.018
	c3.448,0,6.244,2.795,6.244,6.244V53.738z"/>
<rect x="6.693" y="59.817" style="fill:#E1E6E9;" width="454.906" height="310.978"/>
<g>
	<rect x="6.693" y="53.76" style="fill:#64798A;" width="454.906" height="26.143"/>
	<rect x="6.693" y="344.638" style="fill:#64798A;" width="454.906" height="26.143"/>
</g>
<rect x="48.478" y="212.261" style="fill:#FCD462;" width="36.389" height="132.371"/>
<rect x="115.462" y="163.347" style="fill:#E56353;" width="36.389" height="181.323"/>
<rect x="182.453" y="242.513" style="fill:#27A2DB;" width="36.389" height="102.094"/>
<rect x="249.444" y="135.742" style="fill:#DC8744;" width="36.389" height="208.884"/>
<rect x="316.441" y="268.688" style="fill:#FCD462;" width="36.389" height="75.945"/>
<rect x="383.426" y="237.162" style="fill:#E56353;" width="36.389" height="107.476"/>
<path style="fill:#D5D6DB;" d="M272.21,53.738h-76.127v-8.576c0-6.897,5.591-12.488,12.488-12.488h51.151
	c6.897,0,12.488,5.591,12.488,12.488V53.738z"/>
<g>
	<path style="fill:#3A556A;" d="M126.907,468.293h-16.931c-4.441,0-7.377-4.617-5.493-8.639l44.476-88.874h30.327L132.4,464.8
		C131.402,466.931,129.261,468.293,126.907,468.293z"/>
	<path style="fill:#3A556A;" d="M319.333,370.78h-30.327l46.887,94.02c0.998,2.131,3.139,3.492,5.493,3.492h16.931
		c4.441,0,7.377-4.617,5.493-8.639L319.333,370.78z"/>
	<rect x="144.971" y="405.354" style="fill:#3A556A;" width="178.357" height="18.195"/>
</g>
<g>
</g>
<g>
</g>
<g>
</g>
<g>
</g>
<g>
</g>
<g>
</g>
<g>
</g>
<g>
</g>
<g>
</g>
<g>
</g>
<g>
</g>
<g>
</g>
<g>
</g>
<g>
</g>
<g>
</g>
</svg>
