<?xml version="1.0" encoding="iso-8859-1"?>
<!-- Generator: Adobe Illustrator 19.0.0, SVG Export Plug-In . SVG Version: 6.00 Build 0)  -->
<svg version="1.1" id="Capa_1" xmlns="http://www.w3.org/2000/svg" xmlns:xlink="http://www.w3.org/1999/xlink" x="0px" y="0px"
	 viewBox="0 0 468.293 468.293" style="enable-background:new 0 0 468.293 468.293;" xml:space="preserve">
<path style="fill:#FCD462;" d="M442.974,69.091H213.649V56.434c0-6.99-5.666-12.656-12.656-12.656H56.959
	c-6.99,0-12.656,5.666-12.656,12.656v12.656H25.319c-6.99,0-12.656,18.154-12.656,25.144v63.281H455.63V81.747
	C455.63,74.757,449.964,69.091,442.974,69.091z"/>
<rect x="72.492" y="89.687" style="fill:#D5D6DB;" width="323.328" height="81.171"/>
<rect x="47.141" y="109.087" style="fill:#E1E6E9;" width="373.979" height="74.271"/>
<path style="fill:#F6C358;" d="M455.635,124.377H12.657c-7.465,0-13.308,6.427-12.599,13.858l25.653,268.886
	c0.827,9.833,9.05,17.393,18.918,17.393h379.034c9.868,0,18.091-7.56,18.918-17.393l25.654-268.886
	C468.943,130.804,463.1,124.377,455.635,124.377z"/>
<g>
</g>
<g>
</g>
<g>
</g>
<g>
</g>
<g>
</g>
<g>
</g>
<g>
</g>
<g>
</g>
<g>
</g>
<g>
</g>
<g>
</g>
<g>
</g>
<g>
</g>
<g>
</g>
<g>
</g>
</svg>
