<?xml version="1.0" encoding="iso-8859-1"?>
<!-- Generator: Adobe Illustrator 19.0.0, SVG Export Plug-In . SVG Version: 6.00 Build 0)  -->
<svg version="1.1" id="Capa_1" xmlns="http://www.w3.org/2000/svg" xmlns:xlink="http://www.w3.org/1999/xlink" x="0px" y="0px"
	 viewBox="0 0 468.293 468.293" style="enable-background:new 0 0 468.293 468.293;" xml:space="preserve">
<g>
	<path style="fill:#D5D6DB;" d="M69.16,154.883L20.631,20.48C17.032,10.515,24.415,0,35.01,0h404.072
		c10.84,0,18.237,10.969,14.174,21.019l-54.123,133.864H69.16z"/>
	<polygon style="fill:#D5D6DB;" points="399.132,154.883 69.16,154.883 2.911,431.346 465.381,431.346 	"/>
</g>
<g>
	<polygon style="fill:#E1E6E9;" points="399.973,30.577 75.005,30.577 117.949,154.885 357.029,154.885 	"/>
	<path style="fill:#E1E6E9;" d="M452.894,468.293H15.399c-6.897,0-12.488-5.591-12.488-12.488v-24.459h462.47v24.459
		C465.381,462.702,459.79,468.293,452.894,468.293z"/>
</g>
<polygon style="fill:#64798A;" points="360.204,182.249 104.548,182.249 83.344,293.115 381.408,293.115 "/>
<polygon style="fill:#3A556A;" points="83.344,293.115 64.779,390.182 399.973,390.182 381.408,293.115 "/>
<g>
	<path style="fill:#64798A;" d="M183.089,162.529h-42.314c-4.222,0-7.644-3.422-7.644-7.644l0,0c0-4.222,3.422-7.644,7.644-7.644
		h42.314c4.222,0,7.644,3.422,7.644,7.644l0,0C190.733,159.106,187.311,162.529,183.089,162.529z"/>
	<path style="fill:#64798A;" d="M334.203,162.529h-42.314c-4.222,0-7.644-3.422-7.644-7.644l0,0c0-4.222,3.422-7.644,7.644-7.644
		h42.314c4.222,0,7.644,3.422,7.644,7.644l0,0C341.847,159.106,338.425,162.529,334.203,162.529z"/>
</g>
<g>
</g>
<g>
</g>
<g>
</g>
<g>
</g>
<g>
</g>
<g>
</g>
<g>
</g>
<g>
</g>
<g>
</g>
<g>
</g>
<g>
</g>
<g>
</g>
<g>
</g>
<g>
</g>
<g>
</g>
</svg>
