<?xml version="1.0" encoding="iso-8859-1"?>
<!-- Generator: Adobe Illustrator 19.0.0, SVG Export Plug-In . SVG Version: 6.00 Build 0)  -->
<svg version="1.1" id="Capa_1" xmlns="http://www.w3.org/2000/svg" xmlns:xlink="http://www.w3.org/1999/xlink" x="0px" y="0px"
	 viewBox="0 0 468.293 468.293" style="enable-background:new 0 0 468.293 468.293;" xml:space="preserve">
<path style="fill:#2F4859;" d="M362.232,276.452c-3.45-3.45-4.057-8.983-1.182-13.141l71.158-89.491l-30.832-30.832
	c-4.024-4.024-4.024-10.554,0-14.579c4.024-4.024,10.554-4.024,14.579,0l36.911,36.911c3.521,3.521,4.024,9.055,1.191,13.15
	l-76.046,96.562c-3.237,4.679-9.657,5.861-14.341,2.62C363.148,277.292,362.669,276.889,362.232,276.452z"/>
<path style="fill:#E56353;" d="M219.059,384.431L88.721,254.094L385.177,7.897c5.468-4.401,13.374-3.975,18.337,0.988l60.753,60.753
	c4.963,4.963,5.389,12.869,0.988,18.337L219.059,384.431z"/>
<rect x="50.643" y="314.675" transform="matrix(-0.7071 -0.7071 0.7071 -0.7071 10.1945 664.9176)" style="fill:#3A556A;" width="184.327" height="31.345"/>
<rect x="64.137" y="282.087" transform="matrix(-0.7071 -0.7071 0.7071 -0.7071 -22.3955 586.2425)" style="fill:#64798A;" width="92.16" height="31.345"/>
<path style="fill:#3A556A;" d="M132.805,342.39l-2.041-2.041L66.615,276.2c0,0,24.247,60.979-38.482,133.919l16.43,16.43
	l2.041,2.041l16.43,16.43c72.939-62.731,133.918-38.483,133.918-38.483L132.805,342.39z"/>
<polygon style="fill:#44C4A1;" points="32.378,414.364 58.788,440.775 36.129,463.434 0,446.742 "/>
<path style="fill:#3A556A;" d="M400.788,168.366l-96.002-96.002c-5.752-5.752-5.278-15.214,1.021-20.362l23.23-18.985
	c5.465-4.467,13.426-4.068,18.417,0.924l91.757,91.757c4.991,4.991,5.39,12.951,0.924,18.417l-18.985,23.23
	C416.002,173.644,406.54,174.118,400.788,168.366z"/>
<g>
</g>
<g>
</g>
<g>
</g>
<g>
</g>
<g>
</g>
<g>
</g>
<g>
</g>
<g>
</g>
<g>
</g>
<g>
</g>
<g>
</g>
<g>
</g>
<g>
</g>
<g>
</g>
<g>
</g>
</svg>
