<?xml version="1.0" encoding="iso-8859-1"?>
<!-- Generator: Adobe Illustrator 19.0.0, SVG Export Plug-In . SVG Version: 6.00 Build 0)  -->
<svg version="1.1" id="Capa_1" xmlns="http://www.w3.org/2000/svg" xmlns:xlink="http://www.w3.org/1999/xlink" x="0px" y="0px"
	 viewBox="0 0 468.293 468.293" style="enable-background:new 0 0 468.293 468.293;" xml:space="preserve">
<path style="fill:#FCD462;" d="M437.178,227.921H25.179V74.802c0-10.345,8.386-18.732,18.732-18.732h374.536
	c10.345,0,18.732,8.386,18.732,18.732V227.921z"/>
<path style="fill:#F6C358;" d="M18.731,146.274h62.255c4.034,0,7.961-1.303,11.195-3.714l42.441-31.646
	c3.234-2.412,7.16-3.714,11.195-3.714h303.745c11.463,0,20.236,10.206,18.515,21.54l-38.229,251.655
	c-2.78,18.303-18.516,31.829-37.03,31.829H69.539c-18.513,0-34.249-13.526-37.03-31.829L0.216,167.814
	C-1.505,156.48,7.268,146.274,18.731,146.274z"/>
<g>
	<path style="fill:#FCD462;" d="M317.058,213.416c1.699,2.523,3.278,5.134,4.746,7.815
		C320.35,218.571,318.773,215.962,317.058,213.416z"/>
	<path style="fill:#FCD462;" d="M139.003,238.716c0.877-2.739,1.852-5.432,2.952-8.064
		C140.849,233.305,139.871,235.996,139.003,238.716z"/>
	<path style="fill:#FCD462;" d="M156.932,332.534c-1.882-2.291-3.654-4.674-5.33-7.127
		C153.264,327.84,155.03,330.223,156.932,332.534z"/>
	<path style="fill:#FCD462;" d="M146.153,316.464c-1.365-2.533-2.609-5.138-3.755-7.796
		C143.533,311.307,144.778,313.91,146.153,316.464z"/>
	<path style="fill:#FCD462;" d="M151.169,324.785c-1.637-2.436-3.158-4.956-4.58-7.538
		C147.998,319.809,149.517,322.328,151.169,324.785z"/>
	<path style="fill:#FCD462;" d="M332.079,249.423c0.595,2.969,1.054,5.986,1.38,9.044
		C333.135,255.436,332.679,252.418,332.079,249.423z"/>
	<path style="fill:#FCD462;" d="M326.315,230.592c1.122,2.678,2.117,5.422,3.006,8.212
		C328.44,236.033,327.444,233.293,326.315,230.592z"/>
	<path style="fill:#FCD462;" d="M329.665,239.87c0.847,2.77,1.566,5.594,2.174,8.459
		C331.236,245.485,330.519,242.663,329.665,239.87z"/>
	<path style="fill:#FCD462;" d="M322.085,221.734c1.415,2.617,2.704,5.313,3.884,8.064
		C324.8,227.066,323.51,224.373,322.085,221.734z"/>
	<path style="fill:#FCD462;" d="M134.851,258.35c0.322-2.997,0.771-5.955,1.352-8.866
		C135.617,252.421,135.171,255.381,134.851,258.35z"/>
	<path style="fill:#FCD462;" d="M134.248,269.085c0.003-3.331,0.177-6.62,0.498-9.868
		C134.421,262.499,134.25,265.792,134.248,269.085z"/>
	<path style="fill:#FCD462;" d="M134.745,279.075c-0.32-3.241-0.494-6.522-0.497-9.846
		C134.251,272.517,134.42,275.802,134.745,279.075z"/>
	<path style="fill:#FCD462;" d="M136.479,248.224c0.599-2.807,1.303-5.578,2.133-8.293
		C137.776,242.668,137.073,245.436,136.479,248.224z"/>
	<path style="fill:#FCD462;" d="M151.519,213.012c1.712-2.515,3.529-4.955,5.457-7.298
		C155.028,208.079,153.217,210.519,151.519,213.012z"/>
	<path style="fill:#FCD462;" d="M142.363,229.712c1.163-2.703,2.429-5.352,3.818-7.926
		C144.782,224.381,143.515,227.027,142.363,229.712z"/>
	<path style="fill:#FCD462;" d="M146.534,221.152c1.448-2.636,3.002-5.207,4.673-7.692
		C149.52,215.967,147.969,218.536,146.534,221.152z"/>
	<path style="fill:#FCD462;" d="M136.199,288.798c-0.577-2.891-1.023-5.829-1.344-8.805
		C135.176,282.942,135.617,285.882,136.199,288.798z"/>
	<path style="fill:#FCD462;" d="M138.6,298.336c-0.82-2.688-1.517-5.429-2.11-8.208C137.08,292.887,137.775,295.626,138.6,298.336z"
		/>
	<path style="fill:#FCD462;" d="M141.937,307.607c-1.083-2.595-2.046-5.251-2.911-7.951
		C139.883,302.337,140.846,304.991,141.937,307.607z"/>
	<path style="fill:#FCD462;" d="M311.286,205.677c1.961,2.379,3.807,4.855,5.543,7.412
		C315.107,210.555,313.267,208.079,311.286,205.677z"/>
	<polyline style="fill:#FCD462;" points="163.506,198.509 163.506,198.509 163.508,198.51 	"/>
	<path style="fill:#FCD462;" d="M163.508,198.51l-0.002-0.002c-2.209,2.209-4.275,4.505-6.233,6.86
		C159.249,202.99,161.323,200.695,163.508,198.51z"/>
	<path style="fill:#FCD462;" d="M311.094,205.453c-1.978-2.385-4.07-4.709-6.305-6.944l-0.002-0.002l-0.004,0.004
		C306.996,200.722,309.098,203.042,311.094,205.453z"/>
	<path style="fill:#FCD462;" d="M289.799,352.117c-2.452,1.648-4.987,3.178-7.586,4.608
		C284.792,355.308,287.326,353.779,289.799,352.117z"/>
	<path style="fill:#FCD462;" d="M263.327,364.7c-2.682,0.818-5.416,1.512-8.189,2.106
		C257.889,366.217,260.623,365.522,263.327,364.7z"/>
	<path style="fill:#FCD462;" d="M272.607,361.36c-2.597,1.085-5.257,2.048-7.959,2.913
		C267.332,363.416,269.988,362.451,272.607,361.36z"/>
	<path style="fill:#FCD462;" d="M281.47,357.14c-2.541,1.37-5.156,2.619-7.824,3.769C276.296,359.769,278.908,358.519,281.47,357.14
		z"/>
	<path style="fill:#FCD462;" d="M334.047,269.154c0,3.368-0.179,6.696-0.504,9.978c0.331-3.318,0.506-6.649,0.506-9.98h-0.002
		V269.154z"/>
	<path style="fill:#FCD462;" d="M334.049,269.152c0.001-3.335-0.174-6.669-0.506-9.991c0.327,3.287,0.505,6.619,0.505,9.991H334.049
		z"/>
	<path style="fill:#FCD462;" d="M138.612,239.931c0.124-0.406,0.262-0.809,0.391-1.215
		C138.874,239.122,138.736,239.524,138.612,239.931z"/>
	<path style="fill:#FCD462;" d="M273.646,360.909c-0.346,0.148-0.691,0.306-1.039,0.451
		C272.956,361.215,273.299,361.058,273.646,360.909z"/>
	<path style="fill:#FCD462;" d="M282.213,356.725c-0.248,0.136-0.493,0.28-0.743,0.414
		C281.721,357.004,281.964,356.862,282.213,356.725z"/>
	<path style="fill:#FCD462;" d="M134.746,259.218c0.029-0.29,0.074-0.578,0.105-0.867
		C134.819,258.64,134.776,258.926,134.746,259.218z"/>
	<path style="fill:#FCD462;" d="M264.647,364.273c-0.44,0.141-0.879,0.292-1.321,0.426
		C263.771,364.564,264.206,364.414,264.647,364.273z"/>
	<path style="fill:#FCD462;" d="M136.203,249.484c0.084-0.422,0.186-0.839,0.276-1.261
		C136.389,248.645,136.288,249.061,136.203,249.484z"/>
	<path style="fill:#FCD462;" d="M134.855,279.993c-0.034-0.306-0.08-0.612-0.111-0.917
		C134.776,279.383,134.822,279.685,134.855,279.993z"/>
	<path style="fill:#FCD462;" d="M142.398,308.667c-0.154-0.353-0.313-0.705-0.461-1.06
		C142.085,307.963,142.245,308.313,142.398,308.667z"/>
	<path style="fill:#FCD462;" d="M151.602,325.407c-0.142-0.208-0.293-0.413-0.433-0.622
		C151.31,324.995,151.46,325.197,151.602,325.407z"/>
	<path style="fill:#FCD462;" d="M146.589,317.247c-0.144-0.262-0.295-0.521-0.436-0.783
		C146.295,316.727,146.445,316.985,146.589,317.247z"/>
	<path style="fill:#FCD462;" d="M157.393,333.071c-0.151-0.181-0.311-0.356-0.461-0.536
		C157.082,332.717,157.241,332.889,157.393,333.071z"/>
	<path style="fill:#FCD462;" d="M255.137,366.805c-0.453,0.097-0.904,0.206-1.358,0.297
		C254.236,367.011,254.683,366.902,255.137,366.805z"/>
	<path style="fill:#FCD462;" d="M136.49,290.129c-0.094-0.443-0.202-0.886-0.29-1.331
		C136.288,289.245,136.395,289.684,136.49,290.129z"/>
	<path style="fill:#FCD462;" d="M139.026,299.656c-0.141-0.44-0.291-0.878-0.426-1.32
		C138.736,298.779,138.885,299.214,139.026,299.656z"/>
	<path style="fill:#FCD462;" d="M290.358,351.728c-0.187,0.128-0.37,0.263-0.559,0.39
		C289.988,351.99,290.17,351.855,290.358,351.728z"/>
	<path style="fill:#FCD462;" d="M333.543,279.132c-0.025,0.246-0.062,0.491-0.089,0.738
		C333.481,279.623,333.519,279.379,333.543,279.132z"/>
	<path style="fill:#FCD462;" d="M329.322,238.804c0.113,0.356,0.234,0.709,0.343,1.066
		C329.555,239.513,329.435,239.16,329.322,238.804z"/>
	<path style="fill:#FCD462;" d="M333.459,258.467c0.025,0.231,0.06,0.463,0.084,0.694
		C333.519,258.929,333.484,258.7,333.459,258.467z"/>
	<path style="fill:#FCD462;" d="M325.97,229.798c0.114,0.265,0.234,0.528,0.346,0.794
		C326.203,230.325,326.085,230.064,325.97,229.798z"/>
	<path style="fill:#FCD462;" d="M331.839,248.329c0.078,0.365,0.166,0.728,0.24,1.094
		C332.006,249.055,331.918,248.694,331.839,248.329z"/>
	<polygon style="fill:#FCD462;" points="134.246,269.147 134.245,269.147 134.244,269.154 134.248,269.23 	"/>
	<path style="fill:#FCD462;" d="M321.805,221.231c0.092,0.167,0.19,0.334,0.28,0.503
		C321.994,221.564,321.898,221.399,321.805,221.231z"/>
	<polygon style="fill:#FCD462;" points="134.248,269.085 134.245,269.125 134.246,269.147 	"/>
	<path style="fill:#FCD462;" d="M141.954,230.652c0.131-0.314,0.274-0.626,0.409-0.94
		C142.228,230.027,142.087,230.336,141.954,230.652z"/>
	<path style="fill:#FCD462;" d="M316.829,213.088c0.075,0.11,0.154,0.217,0.229,0.327
		C316.983,213.305,316.905,213.199,316.829,213.088z"/>
	<path style="fill:#FCD462;" d="M146.181,221.786c0.114-0.213,0.237-0.421,0.353-0.634
		C146.418,221.365,146.296,221.573,146.181,221.786z"/>
	<path style="fill:#FCD462;" d="M151.207,213.46c0.101-0.151,0.211-0.298,0.313-0.448
		C151.416,213.163,151.309,213.309,151.207,213.46z"/>
	<path style="fill:#FCD462;" d="M156.976,205.715c0.096-0.116,0.2-0.229,0.297-0.346
		C157.175,205.486,157.073,205.598,156.976,205.715z"/>
	<path style="fill:#FCD462;" d="M311.094,205.453c0.063,0.075,0.13,0.148,0.192,0.224
		C311.224,205.601,311.157,205.528,311.094,205.453z"/>
	<polygon style="fill:#FCD462;" points="234.141,269.149 234.142,269.149 234.142,269.149 	"/>
</g>
<g>
	<path style="fill:#27A2DB;" d="M304.784,198.51l-70.642,70.639l0,0l99.905,0.003c0-3.373-0.178-6.704-0.505-9.991
		c-0.024-0.231-0.058-0.462-0.084-0.694c-0.326-3.058-0.785-6.076-1.38-9.044c-0.074-0.366-0.162-0.729-0.24-1.094
		c-0.608-2.865-1.327-5.689-2.174-8.459c-0.109-0.356-0.23-0.71-0.343-1.066c-0.89-2.79-1.885-5.534-3.006-8.212
		c-0.111-0.267-0.231-0.529-0.346-0.794c-1.181-2.751-2.469-5.447-3.884-8.064c-0.091-0.169-0.188-0.336-0.28-0.503
		c-1.468-2.681-3.047-5.292-4.746-7.815c-0.075-0.11-0.154-0.217-0.229-0.327c-1.736-2.557-3.582-5.033-5.543-7.412
		c-0.062-0.076-0.129-0.149-0.192-0.224C309.098,203.042,306.996,200.722,304.784,198.51z"/>
	<path style="fill:#27A2DB;" d="M234.142,269.149L234.142,269.149L234.142,269.149l-70.635-70.639
		c-2.185,2.185-4.259,4.48-6.235,6.858c-0.097,0.117-0.201,0.23-0.297,0.346c-1.928,2.343-3.745,4.783-5.457,7.298
		c-0.102,0.15-0.211,0.297-0.313,0.448c-1.671,2.485-3.224,5.056-4.673,7.692c-0.116,0.213-0.238,0.421-0.353,0.634
		c-1.389,2.574-2.655,5.223-3.818,7.926c-0.134,0.314-0.277,0.626-0.409,0.94c-1.099,2.631-2.075,5.325-2.952,8.064
		c-0.129,0.406-0.267,0.808-0.391,1.215c-0.83,2.715-1.533,5.486-2.133,8.293c-0.09,0.422-0.192,0.839-0.276,1.261
		c-0.582,2.911-1.03,5.869-1.352,8.866c-0.032,0.29-0.076,0.577-0.105,0.867c-0.32,3.248-0.495,6.537-0.498,9.868l-0.002,0.042
		L234.142,269.149z"/>
</g>
<path style="fill:#44C4A1;" d="M297.841,173.319c-0.074-0.06-0.144-0.125-0.217-0.186c-2.383-1.964-4.864-3.813-7.425-5.552
	c-0.104-0.071-0.206-0.146-0.31-0.217c-2.531-1.705-5.15-3.289-7.838-4.762c-0.159-0.087-0.316-0.179-0.475-0.264
	c-2.628-1.421-5.334-2.716-8.098-3.901c-0.252-0.109-0.502-0.223-0.755-0.328c-2.692-1.129-5.451-2.13-8.257-3.023
	c-0.34-0.108-0.678-0.224-1.018-0.328c-2.787-0.854-5.631-1.579-8.516-2.19c-0.345-0.073-0.688-0.156-1.032-0.225
	c-2.993-0.601-6.036-1.066-9.119-1.392c-0.207-0.022-0.413-0.053-0.618-0.075c-3.33-0.333-6.673-0.509-10.018-0.509
	c-3.34,0-6.681,0.177-10.008,0.509c-0.214,0.022-0.427,0.054-0.641,0.077c-3.073,0.326-6.105,0.789-9.09,1.388
	c-0.357,0.071-0.713,0.158-1.069,0.234c-2.87,0.609-5.699,1.329-8.472,2.178c-0.358,0.109-0.714,0.231-1.07,0.345
	c-2.786,0.888-5.525,1.881-8.199,3.001c-0.275,0.115-0.547,0.24-0.821,0.356c-2.74,1.178-5.425,2.461-8.032,3.869
	c-0.183,0.098-0.363,0.204-0.545,0.304c-2.664,1.461-5.257,3.029-7.766,4.717c-0.132,0.089-0.261,0.184-0.393,0.274
	c-2.531,1.721-4.984,3.549-7.34,5.489c-0.109,0.089-0.214,0.186-0.322,0.276c-2.383,1.979-4.682,4.057-6.87,6.245l70.634,70.638
	l0.001,0.001l70.642-70.639C302.573,177.418,300.252,175.316,297.841,173.319z"/>
<path style="fill:#E56353;" d="M234.146,269.15h-0.004l-99.896-0.003c0,0,0,0.055,0,0.082c0.004,3.325,0.178,6.605,0.497,9.846
	c0.032,0.306,0.078,0.611,0.111,0.918c0.322,2.976,0.767,5.913,1.344,8.805c0.088,0.444,0.197,0.889,0.29,1.331
	c0.594,2.779,1.29,5.52,2.111,8.207c0.133,0.442,0.284,0.88,0.424,1.32c0.867,2.7,1.829,5.357,2.912,7.951
	c0.148,0.355,0.306,0.707,0.461,1.059c1.146,2.657,2.39,5.264,3.755,7.797c0.142,0.262,0.293,0.52,0.436,0.782
	c1.422,2.582,2.944,5.102,4.581,7.538c0.14,0.21,0.291,0.415,0.433,0.622c1.675,2.454,3.447,4.837,5.329,7.128
	c0.15,0.18,0.309,0.355,0.461,0.537c1.903,2.282,3.895,4.488,5.99,6.591c0.041,0.04,0.076,0.085,0.116,0.125
	c0.044,0.047,0.096,0.085,0.142,0.131c2.1,2.095,4.303,4.082,6.584,5.983c0.184,0.154,0.361,0.316,0.544,0.468
	c2.287,1.878,4.665,3.646,7.114,5.32c0.214,0.146,0.424,0.302,0.639,0.445c2.431,1.631,4.943,3.148,7.516,4.566
	c0.271,0.148,0.538,0.306,0.813,0.453c2.521,1.358,5.115,2.596,7.761,3.738c0.367,0.159,0.73,0.326,1.098,0.479
	c2.582,1.076,5.223,2.034,7.908,2.895c0.456,0.145,0.909,0.3,1.367,0.441c2.668,0.813,5.39,1.503,8.149,2.095
	c0.463,0.101,0.925,0.21,1.392,0.305c2.867,0.572,5.78,1.012,8.732,1.332c0.331,0.037,0.66,0.087,0.994,0.119
	c3.208,0.317,6.459,0.488,9.75,0.492c0.046,0,0.091,0.008,0.138,0.008h0.008h0.001c0.047,0,0.094-0.008,0.142-0.006
	c3.294-0.006,6.547-0.178,9.761-0.494c0.325-0.032,0.648-0.081,0.974-0.117c2.959-0.32,5.88-0.762,8.756-1.337
	c0.456-0.091,0.905-0.2,1.358-0.296c2.773-0.595,5.508-1.288,8.189-2.107c0.442-0.134,0.88-0.285,1.322-0.427
	c2.701-0.864,5.361-1.826,7.958-2.912c0.349-0.146,0.693-0.303,1.04-0.451c2.668-1.149,5.284-2.399,7.823-3.77
	c0.25-0.134,0.495-0.277,0.744-0.413c2.599-1.43,5.133-2.96,7.585-4.61c0.188-0.125,0.37-0.262,0.559-0.389
	c2.478-1.691,4.883-3.479,7.195-5.38c0.151-0.125,0.298-0.261,0.449-0.387c2.335-1.942,4.589-3.977,6.737-6.122
	c0.015-0.015,0.031-0.027,0.046-0.043c0.014-0.014,0.026-0.029,0.04-0.043c2.175-2.178,4.211-4.441,6.143-6.761
	c0.12-0.142,0.247-0.282,0.364-0.425c1.913-2.325,3.714-4.744,5.413-7.238c0.116-0.168,0.237-0.334,0.351-0.503
	c1.664-2.474,3.211-5.034,4.652-7.659c0.121-0.22,0.247-0.434,0.366-0.654c1.389-2.576,2.656-5.227,3.82-7.931
	c0.131-0.308,0.27-0.613,0.398-0.921c1.105-2.64,2.088-5.348,2.966-8.099c0.125-0.389,0.256-0.776,0.377-1.168
	c0.837-2.741,1.549-5.535,2.152-8.372c0.082-0.387,0.177-0.776,0.255-1.166c0.591-2.951,1.049-5.95,1.372-8.988
	c0.027-0.247,0.064-0.491,0.088-0.738c0.326-3.284,0.505-6.611,0.505-9.979v-0.002L234.146,269.15z"/>
<g>
</g>
<g>
</g>
<g>
</g>
<g>
</g>
<g>
</g>
<g>
</g>
<g>
</g>
<g>
</g>
<g>
</g>
<g>
</g>
<g>
</g>
<g>
</g>
<g>
</g>
<g>
</g>
<g>
</g>
</svg>
