<?xml version="1.0" encoding="iso-8859-1"?>
<!-- Generator: Adobe Illustrator 19.0.0, SVG Export Plug-In . SVG Version: 6.00 Build 0)  -->
<svg version="1.1" id="Capa_1" xmlns="http://www.w3.org/2000/svg" xmlns:xlink="http://www.w3.org/1999/xlink" x="0px" y="0px"
	 viewBox="0 0 468.293 468.293" style="enable-background:new 0 0 468.293 468.293;" xml:space="preserve">
<path style="fill:#D5D6DB;" d="M412.24,336.897h-87.078l0,0c20.155-29.366,20.155-68.109,0-97.476l0,0h87.078v0
	C432.394,268.788,432.394,307.531,412.24,336.897L412.24,336.897z"/>
<polygon style="fill:#E1E6E9;" points="64.256,156.513 46.102,213.628 304.6,278.637 317.8,237.109 "/>
<path style="fill:#27A2DB;" d="M455.805,354.418h-24.992v-35.623H310.549c0,0,0.333,31.436-27.321,35.623H12.488
	C5.591,354.418,0,360.008,0,366.906v12.46c0,6.898,5.591,12.488,12.488,12.488h443.317c6.896,0,12.488-5.59,12.488-12.488v-12.46
	C468.293,360.008,462.701,354.418,455.805,354.418z"/>
<path style="fill:#1C75A1;" d="M392.089,275.349L29.124,159.97c-13.145-4.179-20.414-18.222-16.236-31.368l11.045-34.747
	c4.179-13.146,18.223-20.415,31.368-16.236l362.966,115.379c13.145,4.179,20.414,18.222,16.236,31.368l-11.045,34.747
	C419.279,272.259,405.235,279.528,392.089,275.349z"/>
<circle style="fill:#E56353;" cx="379.38" cy="225.973" r="27.18"/>
<circle style="fill:#FCD462;" cx="379.38" cy="225.973" r="12.55"/>
<g>
</g>
<g>
</g>
<g>
</g>
<g>
</g>
<g>
</g>
<g>
</g>
<g>
</g>
<g>
</g>
<g>
</g>
<g>
</g>
<g>
</g>
<g>
</g>
<g>
</g>
<g>
</g>
<g>
</g>
</svg>
