<?xml version="1.0" encoding="iso-8859-1"?>
<!-- Generator: Adobe Illustrator 19.0.0, SVG Export Plug-In . SVG Version: 6.00 Build 0)  -->
<svg version="1.1" id="Capa_1" xmlns="http://www.w3.org/2000/svg" xmlns:xlink="http://www.w3.org/1999/xlink" x="0px" y="0px"
	 viewBox="0 0 468.296 468.296" style="enable-background:new 0 0 468.296 468.296;" xml:space="preserve">
<rect x="127.963" y="92.811" transform="matrix(-0.7071 0.7071 -0.7071 -0.7071 456.436 189.058)" style="fill:#2D93BA;" width="122.199" height="192.499"/>
<rect x="142.293" y="127.345" transform="matrix(-0.7071 0.7071 -0.7071 -0.7071 421.8846 272.4369)" style="fill:#1C75A1;" width="24.451" height="192.499"/>
<g>
	<path style="fill:#27A2DB;" d="M0.002,146.975c40.586,40.586,100.628,34.825,141.213-5.761
		C181.801,100.628,187.561,40.586,146.975,0L0.002,146.975z"/>
	<path style="fill:#27A2DB;" d="M219.114,465.227c-58.855-58.855-51.472-161.66,16.49-229.623
		c67.962-67.963,170.766-75.346,229.621-16.491L219.114,465.227z"/>
</g>
<g>
	<path style="fill:#E1E6E9;" d="M201.561,367.384c-1.397,35.463,21.543,65.16,27.173,65.382c5.63,0.222-8.026-26.372-6.629-61.835
		c1.397-35.463,17.317-66.367,11.687-66.588C228.162,304.121,202.957,331.921,201.561,367.384z"/>
	<path style="fill:#E1E6E9;" d="M159.966,73.235c2.063-23.131-11.965-43.283-15.637-43.611c-3.672-0.328,4.39,17.495,2.326,40.626
		s-13.47,42.81-9.798,43.138S157.903,96.366,159.966,73.235z"/>
	<polygon style="fill:#E1E6E9;" points="330.648,353.69 433.732,456.775 468.294,468.296 342.169,342.169 	"/>
</g>
<polygon style="fill:#D5D6DB;" points="342.169,342.169 468.294,468.296 456.773,433.733 353.689,330.649 "/>
<g>
</g>
<g>
</g>
<g>
</g>
<g>
</g>
<g>
</g>
<g>
</g>
<g>
</g>
<g>
</g>
<g>
</g>
<g>
</g>
<g>
</g>
<g>
</g>
<g>
</g>
<g>
</g>
<g>
</g>
</svg>
