<?xml version="1.0" encoding="iso-8859-1"?>
<!-- Generator: Adobe Illustrator 19.0.0, SVG Export Plug-In . SVG Version: 6.00 Build 0)  -->
<svg version="1.1" id="Capa_1" xmlns="http://www.w3.org/2000/svg" xmlns:xlink="http://www.w3.org/1999/xlink" x="0px" y="0px"
	 viewBox="0 0 468.293 468.293" style="enable-background:new 0 0 468.293 468.293;" xml:space="preserve">
<path style="fill:#64798A;" d="M376.434,468.293H91.859c-6.897,0-12.488-5.591-12.488-12.488V47.41
	c0-6.897,5.591-12.488,12.488-12.488h284.574c6.897,0,12.488,5.591,12.488,12.488v408.394
	C388.921,462.702,383.33,468.293,376.434,468.293z"/>
<rect x="104.161" y="59.685" style="fill:#EBF0F3;" width="260.021" height="383.813"/>
<path style="fill:#E56353;" d="M264.451,24.764c-3.008,0-5.454-2.191-6.074-5.135C256.013,8.416,246.063,0,234.146,0
	c-11.916,0-21.867,8.416-24.231,19.629c-0.621,2.944-3.066,5.135-6.074,5.135l-35.3,0c-3.419,0-6.191,2.772-6.191,6.191v32.699
	c0,3.419,2.772,6.191,6.191,6.191h131.21c3.419,0,6.191-2.772,6.191-6.191V30.955c0-3.419-2.772-6.191-6.191-6.191L264.451,24.764z"
	/>
<circle style="fill:#EBF0F3;" cx="234.146" cy="25.269" r="16.097"/>
<path style="fill:#27A2DB;" d="M264.845,247.975c9.508-9.639,14.527-23.715,11.609-38.856
	c-3.248-16.855-16.811-30.453-33.662-33.724c-27.614-5.36-51.781,15.645-51.781,42.295c0,11.806,4.752,22.495,12.436,30.285
	c-29.175,9.839-52.104,33.254-61.19,62.75c-4.328,14.051,6.291,28.278,20.993,28.278h141.792c14.702,0,25.322-14.228,20.993-28.278
	C316.949,281.229,294.02,257.814,264.845,247.975z"/>
<path style="fill:#1C75A1;" d="M326.035,310.724c-9.086-29.496-32.015-52.911-61.19-62.749c9.508-9.639,14.527-23.715,11.609-38.857
	c-3.249-16.854-16.811-30.452-33.662-33.724c-5.187-1.007-10.252-1.081-15.058-0.364c0.892,0.119,1.776,0.19,2.676,0.364
	c16.851,3.272,30.414,16.87,33.662,33.724c2.918,15.142-2.101,29.218-11.609,38.857c29.175,9.838,52.104,33.252,61.19,62.749
	c4.328,14.051-6.291,28.278-20.993,28.278h12.382C319.744,339.002,330.364,324.775,326.035,310.724z"/>
<g>
</g>
<g>
</g>
<g>
</g>
<g>
</g>
<g>
</g>
<g>
</g>
<g>
</g>
<g>
</g>
<g>
</g>
<g>
</g>
<g>
</g>
<g>
</g>
<g>
</g>
<g>
</g>
<g>
</g>
</svg>
