<?xml version="1.0" encoding="iso-8859-1"?>
<!-- Generator: Adobe Illustrator 19.0.0, SVG Export Plug-In . SVG Version: 6.00 Build 0)  -->
<svg version="1.1" id="Capa_1" xmlns="http://www.w3.org/2000/svg" xmlns:xlink="http://www.w3.org/1999/xlink" x="0px" y="0px"
	 viewBox="0 0 468.293 468.293" style="enable-background:new 0 0 468.293 468.293;" xml:space="preserve">
<path style="fill:#64798A;" d="M464.003,240.506L325.213,101.71c-5.717-5.717-14.978-5.717-20.694,0
	c-5.717,5.711-5.717,14.978,0,20.694l134.062,134.074l-10.244,143.684l-143.678,10.244L30.843,156.596
	c-2.121-2.121-2.121-5.568,0-7.689l89.884-89.884c1.383-1.383,3.001-1.589,3.842-1.589c0.846,0,2.464,0.206,3.847,1.589
	l215.354,215.36l4.579,45.676l-45.339-4.842l-121.76-121.749c-5.717-5.717-14.978-5.717-20.694,0
	c-5.717,5.717-5.717,14.983,0,20.694l125.413,125.407c2.367,2.367,5.471,3.847,8.792,4.207l68.389,7.3
	c4.408,0.423,8.747-1.069,11.868-4.173c3.127-3.104,4.688-7.455,4.248-11.839l-6.894-68.795c-0.337-3.361-1.824-6.5-4.213-8.889
	L149.11,38.329c-13.526-13.543-35.552-13.531-49.078,0l-89.884,89.884c-13.531,13.531-13.531,35.546,0,49.078l258.538,258.538
	c2.755,2.755,6.477,4.288,10.347,4.288c0.343,0,0.692-0.011,1.04-0.034l163-11.622c7.26-0.52,13.04-6.3,13.56-13.56l11.622-163.006
	C468.554,247.663,467.005,243.507,464.003,240.506z"/>
<g>
</g>
<g>
</g>
<g>
</g>
<g>
</g>
<g>
</g>
<g>
</g>
<g>
</g>
<g>
</g>
<g>
</g>
<g>
</g>
<g>
</g>
<g>
</g>
<g>
</g>
<g>
</g>
<g>
</g>
</svg>
