<?xml version="1.0" encoding="iso-8859-1"?>
<!-- Generator: Adobe Illustrator 19.0.0, SVG Export Plug-In . SVG Version: 6.00 Build 0)  -->
<svg version="1.1" id="Capa_1" xmlns="http://www.w3.org/2000/svg" xmlns:xlink="http://www.w3.org/1999/xlink" x="0px" y="0px"
	 viewBox="0 0 468.293 468.293" style="enable-background:new 0 0 468.293 468.293;" xml:space="preserve">
<rect x="80.915" y="73.616" style="fill:#64798A;" width="306.451" height="369.764"/>
<path style="fill:#1C75A1;" d="M346.698,36.809H121.595c-3.448,0-6.244,2.795-6.244,6.244v30.565h237.591V43.053
	C352.942,39.604,350.146,36.809,346.698,36.809z"/>
<path style="fill:#2D93BA;" d="M323.503,0H144.79c-3.448,0-6.244,2.795-6.244,6.244v24.321c0,3.448,2.795,6.244,6.244,6.244h178.713
	c3.448,0,6.244-2.795,6.244-6.244V6.244C329.747,2.795,326.951,0,323.503,0z"/>
<path style="fill:#3A556A;" d="M56.669,443.358h354.955c3.448,0,6.244,2.795,6.244,6.244v12.447c0,3.448-2.796,6.244-6.244,6.244
	H56.669c-3.448,0-6.244-2.796-6.244-6.244v-12.447C50.425,446.153,53.22,443.358,56.669,443.358z"/>
<g>
	<rect x="128" y="108.85" style="fill:#E1E6E9;" width="49.951" height="49.951"/>
	<rect x="209.171" y="108.85" style="fill:#E1E6E9;" width="49.951" height="49.951"/>
	<rect x="290.341" y="108.85" style="fill:#E1E6E9;" width="49.951" height="49.951"/>
</g>
<g>
	<rect x="209.171" y="150.216" style="fill:#D5D6DB;" width="49.951" height="8.585"/>
	<rect x="290.341" y="150.216" style="fill:#D5D6DB;" width="49.951" height="8.585"/>
	<rect x="128" y="150.216" style="fill:#D5D6DB;" width="49.951" height="8.585"/>
</g>
<g>
	<rect x="128" y="183.777" style="fill:#E1E6E9;" width="49.951" height="49.951"/>
	<rect x="209.171" y="183.777" style="fill:#E1E6E9;" width="49.951" height="49.951"/>
	<rect x="290.341" y="183.777" style="fill:#E1E6E9;" width="49.951" height="49.951"/>
</g>
<g>
	<rect x="209.171" y="225.143" style="fill:#D5D6DB;" width="49.951" height="8.585"/>
	<rect x="290.341" y="225.143" style="fill:#D5D6DB;" width="49.951" height="8.585"/>
	<rect x="128" y="225.143" style="fill:#D5D6DB;" width="49.951" height="8.585"/>
</g>
<g>
	<rect x="128" y="258.704" style="fill:#E1E6E9;" width="49.951" height="49.951"/>
	<rect x="209.171" y="258.704" style="fill:#E1E6E9;" width="49.951" height="49.951"/>
	<rect x="290.341" y="258.704" style="fill:#E1E6E9;" width="49.951" height="49.951"/>
</g>
<g>
	<rect x="209.171" y="300.082" style="fill:#D5D6DB;" width="49.951" height="8.585"/>
	<rect x="290.341" y="300.082" style="fill:#D5D6DB;" width="49.951" height="8.585"/>
	<rect x="128" y="300.082" style="fill:#D5D6DB;" width="49.951" height="8.585"/>
</g>
<rect x="184.819" y="333.749" style="fill:#E1E6E9;" width="98.691" height="109.612"/>
<polygon style="fill:#D5D6DB;" points="191.046,339.993 283.491,339.993 283.491,333.749 184.802,333.749 184.802,443.357 
	191.046,443.357 "/>
<g>
</g>
<g>
</g>
<g>
</g>
<g>
</g>
<g>
</g>
<g>
</g>
<g>
</g>
<g>
</g>
<g>
</g>
<g>
</g>
<g>
</g>
<g>
</g>
<g>
</g>
<g>
</g>
<g>
</g>
</svg>
