<?xml version="1.0" encoding="iso-8859-1"?>
<!-- Generator: Adobe Illustrator 19.0.0, SVG Export Plug-In . SVG Version: 6.00 Build 0)  -->
<svg version="1.1" id="Capa_1" xmlns="http://www.w3.org/2000/svg" xmlns:xlink="http://www.w3.org/1999/xlink" x="0px" y="0px"
	 viewBox="0 0 468.293 468.293" style="enable-background:new 0 0 468.293 468.293;" xml:space="preserve">
<path style="fill:#DC8744;" d="M456.995,153.716H11.297V54.388c0-10.345,8.386-18.732,18.732-18.732h408.235
	c10.345,0,18.732,8.386,18.732,18.732V153.716z"/>
<path style="fill:#E1E6E9;" d="M456.995,153.715H11.297v296.749c0,9.846,7.982,17.828,17.828,17.828h338.407l89.464-89.465V153.715z
	"/>
<polygon style="fill:#D5D6DB;" points="367.532,468.293 456.996,378.828 367.532,378.828 "/>
<g>
	<path style="fill:#FCD462;" d="M52.828,59.426L52.828,59.426c-8.203,0-14.852-6.65-14.852-14.852V14.852
		C37.976,6.65,44.625,0,52.828,0h0C61.031,0,67.68,6.65,67.68,14.852v29.722C67.68,52.777,61.031,59.426,52.828,59.426z"/>
	<path style="fill:#FCD462;" d="M106.303,59.426L106.303,59.426c-8.203,0-14.852-6.65-14.852-14.852V14.852
		C91.451,6.65,98.101,0,106.303,0h0c8.203,0,14.852,6.65,14.852,14.852v29.722C121.156,52.777,114.506,59.426,106.303,59.426z"/>
	<path style="fill:#FCD462;" d="M361.989,59.426L361.989,59.426c-8.203,0-14.852-6.65-14.852-14.852V14.852
		C347.137,6.65,353.786,0,361.989,0h0c8.203,0,14.852,6.65,14.852,14.852v29.722C376.841,52.777,370.192,59.426,361.989,59.426z"/>
	<path style="fill:#FCD462;" d="M415.464,59.426L415.464,59.426c-8.203,0-14.852-6.65-14.852-14.852V14.852
		C400.612,6.65,407.262,0,415.464,0h0c8.203,0,14.852,6.65,14.852,14.852v29.722C430.317,52.777,423.667,59.426,415.464,59.426z"/>
</g>
<g>
	<path style="fill:#EBF0F3;" d="M108.068,131.816h-8.415V81.97h13.121l15.048,31.303l15.042-31.303h13.052v49.845h-8.415V92.881
		l-17.398,34.582h-4.707l-17.329-34.582V131.816z"/>
	<path style="fill:#EBF0F3;" d="M176.809,120.476l-4.991,11.34h-8.984L184.8,81.97h8.984l21.966,49.845h-8.989l-4.991-11.34H176.809
		z M198.345,112.705l-9.053-20.538l-9.059,20.538H198.345z"/>
	<path style="fill:#EBF0F3;" d="M262.461,98.156c0,8.223-3.592,13.406-10.771,15.547l13.052,18.112h-10.696l-11.909-16.76h-11.055
		v16.76h-8.415V81.97h18.542c7.602,0,13.052,1.283,16.331,3.848C260.818,88.389,262.461,92.498,262.461,98.156z M251.26,105.219
		c1.712-1.474,2.571-3.842,2.571-7.098c0-3.256-0.882-5.49-2.641-6.703c-1.758-1.213-4.898-1.816-9.413-1.816h-10.696v17.828h10.481
		C246.316,107.43,249.554,106.693,251.26,105.219z"/>
	<path style="fill:#EBF0F3;" d="M297.327,124.184c2.896,0,5.391-0.487,7.486-1.462c2.089-0.975,4.277-2.53,6.564-4.672l5.415,5.565
		c-5.275,5.844-11.682,8.769-19.215,8.769c-7.539,0-13.789-2.42-18.756-7.272s-7.452-10.98-7.452-18.397
		c0-7.417,2.53-13.597,7.597-18.542c5.061-4.944,11.456-7.417,19.18-7.417c7.724,0,14.178,2.849,19.36,8.554l-5.345,5.85
		c-2.379-2.281-4.625-3.877-6.743-4.776c-2.112-0.905-4.596-1.358-7.452-1.358c-5.037,0-9.268,1.631-12.692,4.886
		c-3.424,3.256-5.136,7.417-5.136,12.477c0,5.066,1.7,9.297,5.101,12.698C288.64,122.484,292.667,124.184,297.327,124.184z"/>
	<path style="fill:#EBF0F3;" d="M327.064,131.816V81.97h8.415v21.606h24.746V81.97h8.415v49.845h-8.415v-20.393h-24.746v20.393
		H327.064z"/>
</g>
<path style="fill:#E56353;" d="M300.347,191.14v36.235H200.46v58.251c9.92-5.428,21.217-8.129,33.865-8.129
	c22.127,0,41.195,6.668,57.204,19.977c16.037,13.309,24.055,31.385,24.055,54.173c0,22.788-8.349,41.691-25.047,56.708
	c-16.726,15.017-37.254,22.512-61.64,22.512c-31.826,0-57.204-10.609-76.189-31.826l21.355-29.126
	c1.791,1.819,4.216,3.968,7.274,6.448c3.031,2.48,9.314,5.814,18.792,9.975c9.479,4.188,19.84,6.283,31.137,6.283
	c11.298,0,21.548-3.389,30.806-10.168c9.258-6.779,13.888-16.643,13.888-29.621c0-12.978-4.905-23.036-14.714-30.145
	c-9.837-7.109-22.237-10.664-37.254-10.664s-29.291,3.72-42.82,11.187l-16.946-18.296V191.14H300.347z"/>
<g>
</g>
<g>
</g>
<g>
</g>
<g>
</g>
<g>
</g>
<g>
</g>
<g>
</g>
<g>
</g>
<g>
</g>
<g>
</g>
<g>
</g>
<g>
</g>
<g>
</g>
<g>
</g>
<g>
</g>
</svg>
