<?xml version="1.0" encoding="iso-8859-1"?>
<!-- Generator: Adobe Illustrator 19.0.0, SVG Export Plug-In . SVG Version: 6.00 Build 0)  -->
<svg version="1.1" id="Capa_1" xmlns="http://www.w3.org/2000/svg" xmlns:xlink="http://www.w3.org/1999/xlink" x="0px" y="0px"
	 viewBox="0 0 468.293 468.293" style="enable-background:new 0 0 468.293 468.293;" xml:space="preserve">
<rect x="3.81" y="74.783" style="fill:#D5D6DB;" width="460.675" height="76.494"/>
<g>
	<path style="fill:#E1E6E9;" d="M445.269,151.274H23.001v298.287c0,10.345,8.386,18.732,18.732,18.732h384.805
		c10.345,0,18.732-8.386,18.732-18.732V151.274z"/>
	<polygon style="fill:#E1E6E9;" points="387.963,0 80.308,0 3.807,74.78 464.463,74.78 	"/>
</g>
<path style="fill:#3A556A;" d="M312.354,235.939c0,28.161-35.032,50.999-78.23,50.999c-26.667,0-50.284-8.723-64.453-22.067
	c-8.659-8.211-13.776-18.155-13.776-28.932c0-28.161,35.031-50.999,78.23-50.999c16.531,0,31.784,3.336,44.379,8.98
	C298.971,203.158,312.354,218.555,312.354,235.939z"/>
<path style="fill:#64798A;" d="M292.279,222.853c0,28.161-35.031,50.999-78.23,50.999c-16.531,0-31.784-3.336-44.379-8.98
	c-8.659-8.211-13.776-18.155-13.776-28.932c0-28.161,35.031-50.999,78.23-50.999c16.531,0,31.784,3.336,44.379,8.98
	C287.162,202.132,292.279,212.076,292.279,222.853z"/>
<g>
</g>
<g>
</g>
<g>
</g>
<g>
</g>
<g>
</g>
<g>
</g>
<g>
</g>
<g>
</g>
<g>
</g>
<g>
</g>
<g>
</g>
<g>
</g>
<g>
</g>
<g>
</g>
<g>
</g>
</svg>
