<?xml version="1.0" encoding="iso-8859-1"?>
<!-- Generator: Adobe Illustrator 19.0.0, SVG Export Plug-In . SVG Version: 6.00 Build 0)  -->
<svg version="1.1" id="Capa_1" xmlns="http://www.w3.org/2000/svg" xmlns:xlink="http://www.w3.org/1999/xlink" x="0px" y="0px"
	 viewBox="0 0 468.293 468.293" style="enable-background:new 0 0 468.293 468.293;" xml:space="preserve">
<path style="fill:#3A556A;" d="M443.317,444.534H24.976C11.182,444.534,0,433.352,0,419.559V156.23
	c0-13.794,11.182-24.976,24.976-24.976h418.341c13.794,0,24.976,11.182,24.976,24.976v263.329
	C468.293,433.352,457.111,444.534,443.317,444.534z"/>
<path style="fill:#1C75A1;" d="M62.439,97.245c-10.345,0-18.732,8.387-18.732,18.732v266.119c0,10.345,8.386,18.732,18.732,18.732
	h32.098V97.245H62.439z"/>
<path style="fill:#2D93BA;" d="M126.634,97.245H94.536v303.582h32.097c10.345,0,18.732-8.387,18.732-18.732V115.976
	C145.365,105.632,136.979,97.245,126.634,97.245z"/>
<rect x="220.472" y="168.454" style="fill:#2F4859;" width="199.805" height="18.732"/>
<path style="fill:#E1E6E9;" d="M370.896,23.758H245.511c-6.897,0-12.488,5.591-12.488,12.488v132.209h174.707V60.594L370.896,23.758
	z"/>
<polygon style="fill:#EBF0F3;" points="370.896,60.594 407.731,60.594 370.896,23.758 "/>
<g>
	<path style="fill:#E1E6E9;" d="M250.162,269.089L250.162,269.089c-12.948,0-23.443-10.496-23.443-23.443v0
		c0-12.947,10.496-23.443,23.443-23.443h0c12.947,0,23.443,10.496,23.443,23.443v0C273.606,258.593,263.11,269.089,250.162,269.089z
		"/>
	<path style="fill:#E1E6E9;" d="M320.377,269.089L320.377,269.089c-12.948,0-23.443-10.496-23.443-23.443v0
		c0-12.947,10.496-23.443,23.443-23.443h0c12.947,0,23.443,10.496,23.443,23.443v0C343.821,258.593,333.325,269.089,320.377,269.089
		z"/>
	<path style="fill:#E1E6E9;" d="M390.592,269.089L390.592,269.089c-12.947,0-23.443-10.496-23.443-23.443v0
		c0-12.947,10.496-23.443,23.443-23.443h0c12.947,0,23.443,10.496,23.443,23.443v0C414.036,258.593,403.54,269.089,390.592,269.089z
		"/>
</g>
<g>
	<path style="fill:#D5D6DB;" d="M403.974,226.432c2.651,3.797,4.23,8.398,4.23,13.381l0,0c0,12.947-10.496,23.444-23.443,23.444
		c-4.983,0-9.583-1.579-13.382-4.23c4.237,6.071,11.249,10.062,19.214,10.062c12.947,0,23.443-10.497,23.443-23.444l0,0
		C414.036,237.68,410.044,230.668,403.974,226.432z"/>
	<path style="fill:#D5D6DB;" d="M333.759,226.432c2.651,3.797,4.23,8.398,4.23,13.381l0,0c0,12.947-10.496,23.444-23.443,23.444
		c-4.983,0-9.583-1.579-13.382-4.23c4.237,6.071,11.249,10.062,19.214,10.062c12.947,0,23.443-10.497,23.443-23.444l0,0
		C343.821,237.68,339.829,230.668,333.759,226.432z"/>
	<path style="fill:#D5D6DB;" d="M263.544,226.432c2.651,3.797,4.23,8.398,4.23,13.381l0,0c0,12.947-10.496,23.444-23.443,23.444
		c-4.983,0-9.583-1.579-13.382-4.23c4.237,6.071,11.249,10.062,19.214,10.062c12.947,0,23.443-10.497,23.443-23.444l0,0
		C273.606,237.68,269.614,230.668,263.544,226.432z"/>
</g>
<g>
	<path style="fill:#E1E6E9;" d="M250.162,339.304L250.162,339.304c-12.948,0-23.443-10.496-23.443-23.443v0
		c0-12.947,10.496-23.443,23.443-23.443h0c12.947,0,23.443,10.496,23.443,23.443v0C273.606,328.808,263.11,339.304,250.162,339.304z
		"/>
	<path style="fill:#E1E6E9;" d="M320.377,339.304L320.377,339.304c-12.948,0-23.443-10.496-23.443-23.443v0
		c0-12.947,10.496-23.443,23.443-23.443h0c12.947,0,23.443,10.496,23.443,23.443v0C343.821,328.808,333.325,339.304,320.377,339.304
		z"/>
	<path style="fill:#E1E6E9;" d="M390.592,339.304L390.592,339.304c-12.947,0-23.443-10.496-23.443-23.443v0
		c0-12.947,10.496-23.443,23.443-23.443h0c12.947,0,23.443,10.496,23.443,23.443v0C414.036,328.808,403.54,339.304,390.592,339.304z
		"/>
</g>
<g>
	<path style="fill:#D5D6DB;" d="M403.974,296.647c2.651,3.797,4.23,8.398,4.23,13.381l0,0c0,12.947-10.496,23.444-23.443,23.444
		c-4.983,0-9.583-1.579-13.382-4.23c4.237,6.071,11.249,10.062,19.214,10.062c12.947,0,23.443-10.497,23.443-23.444l0,0
		C414.036,307.895,410.044,300.883,403.974,296.647z"/>
	<path style="fill:#D5D6DB;" d="M333.759,296.647c2.651,3.797,4.23,8.398,4.23,13.381l0,0c0,12.947-10.496,23.444-23.443,23.444
		c-4.983,0-9.583-1.579-13.382-4.23c4.237,6.071,11.249,10.062,19.214,10.062c12.947,0,23.443-10.497,23.443-23.444l0,0
		C343.821,307.895,339.829,300.883,333.759,296.647z"/>
	<path style="fill:#D5D6DB;" d="M263.544,296.647c2.651,3.797,4.23,8.398,4.23,13.381l0,0c0,12.947-10.496,23.444-23.443,23.444
		c-4.983,0-9.583-1.579-13.382-4.23c4.237,6.071,11.249,10.062,19.214,10.062c12.947,0,23.443-10.497,23.443-23.444l0,0
		C273.606,307.895,269.614,300.883,263.544,296.647z"/>
</g>
<g>
	<path style="fill:#E1E6E9;" d="M250.162,409.519L250.162,409.519c-12.948,0-23.443-10.496-23.443-23.443v0
		c0-12.947,10.496-23.443,23.443-23.443h0c12.947,0,23.443,10.496,23.443,23.443v0C273.606,399.023,263.11,409.519,250.162,409.519z
		"/>
	<path style="fill:#E1E6E9;" d="M320.377,409.519L320.377,409.519c-12.948,0-23.443-10.496-23.443-23.443v0
		c0-12.947,10.496-23.443,23.443-23.443h0c12.947,0,23.443,10.496,23.443,23.443v0C343.821,399.023,333.325,409.519,320.377,409.519
		z"/>
	<path style="fill:#E1E6E9;" d="M390.592,409.519L390.592,409.519c-12.947,0-23.443-10.496-23.443-23.443v0
		c0-12.947,10.496-23.443,23.443-23.443h0c12.947,0,23.443,10.496,23.443,23.443v0C414.036,399.023,403.54,409.519,390.592,409.519z
		"/>
</g>
<g>
	<path style="fill:#D5D6DB;" d="M403.974,366.862c2.651,3.797,4.23,8.398,4.23,13.381l0,0c0,12.947-10.496,23.444-23.443,23.444
		c-4.983,0-9.583-1.579-13.382-4.23c4.237,6.071,11.249,10.062,19.214,10.062c12.947,0,23.443-10.497,23.443-23.444l0,0
		C414.036,378.11,410.044,371.098,403.974,366.862z"/>
	<path style="fill:#D5D6DB;" d="M333.759,366.862c2.651,3.797,4.23,8.398,4.23,13.381l0,0c0,12.947-10.496,23.444-23.443,23.444
		c-4.983,0-9.583-1.579-13.382-4.23c4.237,6.071,11.249,10.062,19.214,10.062c12.947,0,23.443-10.497,23.443-23.444l0,0
		C343.821,378.11,339.829,371.098,333.759,366.862z"/>
	<path style="fill:#D5D6DB;" d="M263.544,366.862c2.651,3.797,4.23,8.398,4.23,13.381l0,0c0,12.947-10.496,23.444-23.443,23.444
		c-4.983,0-9.583-1.579-13.382-4.23c4.237,6.071,11.249,10.062,19.214,10.062c12.947,0,23.443-10.497,23.443-23.444l0,0
		C273.606,378.11,269.614,371.098,263.544,366.862z"/>
	<path style="fill:#D5D6DB;" d="M376.572,118.099h-112.39c-3.451,0-6.244,2.793-6.244,6.244c0,3.451,2.793,6.244,6.244,6.244h112.39
		c3.451,0,6.244-2.793,6.244-6.244C382.816,120.892,380.024,118.099,376.572,118.099z"/>
	<path style="fill:#D5D6DB;" d="M376.572,83.582h-112.39c-3.451,0-6.244,2.793-6.244,6.244c0,3.451,2.793,6.244,6.244,6.244h112.39
		c3.451,0,6.244-2.793,6.244-6.244C382.816,86.375,380.024,83.582,376.572,83.582z"/>
	<path style="fill:#D5D6DB;" d="M314.133,49.065h-49.951c-3.451,0-6.244,2.793-6.244,6.244c0,3.451,2.793,6.244,6.244,6.244h49.951
		c3.451,0,6.244-2.793,6.244-6.244C320.377,51.858,317.585,49.065,314.133,49.065z"/>
</g>
<g>
</g>
<g>
</g>
<g>
</g>
<g>
</g>
<g>
</g>
<g>
</g>
<g>
</g>
<g>
</g>
<g>
</g>
<g>
</g>
<g>
</g>
<g>
</g>
<g>
</g>
<g>
</g>
<g>
</g>
</svg>
