<?xml version="1.0" encoding="iso-8859-1"?>
<!-- Generator: Adobe Illustrator 19.0.0, SVG Export Plug-In . SVG Version: 6.00 Build 0)  -->
<svg version="1.1" id="Capa_1" xmlns="http://www.w3.org/2000/svg" xmlns:xlink="http://www.w3.org/1999/xlink" x="0px" y="0px"
	 viewBox="0 0 468.293 468.293" style="enable-background:new 0 0 468.293 468.293;" xml:space="preserve">
<g>
	<rect x="109.262" y="317.501" style="fill:#E1E6E9;" width="24.976" height="132.246"/>
	<rect x="146.725" y="317.501" style="fill:#E1E6E9;" width="24.976" height="107.27"/>
	<rect x="184.189" y="317.501" style="fill:#E1E6E9;" width="24.976" height="132.246"/>
	<rect x="221.652" y="317.501" style="fill:#E1E6E9;" width="24.976" height="107.27"/>
	<rect x="259.116" y="317.501" style="fill:#E1E6E9;" width="24.976" height="132.246"/>
	<rect x="296.579" y="317.501" style="fill:#E1E6E9;" width="24.976" height="107.27"/>
	<rect x="334.043" y="317.501" style="fill:#E1E6E9;" width="24.976" height="132.246"/>
</g>
<path style="fill:#27A2DB;" d="M468.293,205.79v146.107c0,6.868-5.62,12.488-12.488,12.488h-51.95
	c-6.867,0-12.488-5.62-12.488-12.488v-5.745c0-13.799-11.177-24.976-24.976-24.976H101.9c-13.8,0-24.976,11.177-24.976,24.976v5.745
	c0,6.868-5.62,12.488-12.488,12.488H12.488C5.556,364.385,0,358.766,0,351.898V205.79c0-13.799,11.176-24.976,24.976-24.976h418.341
	C457.116,180.814,468.293,191.991,468.293,205.79z"/>
<path style="fill:#E1E6E9;" d="M160.511,18.548l-51.252,51.252v111.035h249.756V31.036c0-6.897-5.591-12.488-12.488-12.488H160.511z
	"/>
<polygon style="fill:#EBF0F3;" points="160.511,69.799 160.509,18.546 109.261,69.801 "/>
<path style="fill:#2D93BA;" d="M468.293,205.79v35.278H0V205.79c0-13.799,11.176-24.976,24.976-24.976h418.341
	C457.116,180.814,468.293,191.991,468.293,205.79z"/>
<circle style="fill:#FCD462;" cx="55.82" cy="241.075" r="21.854"/>
<circle style="fill:#1C75A1;" cx="55.82" cy="241.075" r="9.366"/>
<circle style="fill:#44C4A1;" cx="118.26" cy="241.075" r="21.854"/>
<circle style="fill:#1C75A1;" cx="118.26" cy="241.075" r="9.366"/>
<g>
</g>
<g>
</g>
<g>
</g>
<g>
</g>
<g>
</g>
<g>
</g>
<g>
</g>
<g>
</g>
<g>
</g>
<g>
</g>
<g>
</g>
<g>
</g>
<g>
</g>
<g>
</g>
<g>
</g>
</svg>
