<?xml version="1.0" encoding="iso-8859-1"?>
<!-- Generator: Adobe Illustrator 19.0.0, SVG Export Plug-In . SVG Version: 6.00 Build 0)  -->
<svg version="1.1" id="Capa_1" xmlns="http://www.w3.org/2000/svg" xmlns:xlink="http://www.w3.org/1999/xlink" x="0px" y="0px"
	 viewBox="0 0 468.293 468.293" style="enable-background:new 0 0 468.293 468.293;" xml:space="preserve">
<polygon style="fill:#2D93BA;" points="360.266,228.232 108.027,228.232 159.238,33.986 309.054,33.986 "/>
<g>
	<path style="fill:#E56353;" d="M334.538,45.001H133.755c-6.897,0-12.488-5.591-12.488-12.488V12.488
		C121.267,5.591,126.858,0,133.755,0h200.782c6.897,0,12.488,5.591,12.488,12.488v20.025
		C347.025,39.41,341.434,45.001,334.538,45.001z"/>
	<path style="fill:#E56353;" d="M367.558,288.938H100.735c-10.345,0-18.732-8.386-18.732-18.732v-23.243
		c0-10.345,8.386-18.732,18.732-18.732h266.823c10.345,0,18.732,8.386,18.732,18.732v23.243
		C386.289,280.551,377.903,288.938,367.558,288.938z"/>
</g>
<path style="fill:#E1E6E9;" d="M226.335,461.246l-15.747-172.308h47.117l-15.747,172.308
	C240.988,470.642,227.305,470.642,226.335,461.246z"/>
<g>
</g>
<g>
</g>
<g>
</g>
<g>
</g>
<g>
</g>
<g>
</g>
<g>
</g>
<g>
</g>
<g>
</g>
<g>
</g>
<g>
</g>
<g>
</g>
<g>
</g>
<g>
</g>
<g>
</g>
</svg>
