<?xml version="1.0" encoding="iso-8859-1"?>
<!-- Generator: Adobe Illustrator 19.0.0, SVG Export Plug-In . SVG Version: 6.00 Build 0)  -->
<svg version="1.1" id="Capa_1" xmlns="http://www.w3.org/2000/svg" xmlns:xlink="http://www.w3.org/1999/xlink" x="0px" y="0px"
	 viewBox="0 0 468.293 468.293" style="enable-background:new 0 0 468.293 468.293;" xml:space="preserve">
<path style="fill:#E1E6E9;" d="M455.723,68.597C347.975-26.633,183.379-22.702,80.339,80.338S-26.633,347.975,68.597,455.723
	c3.725,4.345,7.656,8.484,11.743,12.57L468.293,80.339C464.206,76.253,460.068,72.321,455.723,68.597z M132.066,132.066
	c60.211-60.21,149.336-74.228,223.048-42.002l-265.05,265.05C57.838,281.402,71.855,192.276,132.066,132.066z"/>
<g>
	<path style="fill:#3A556A;" d="M97.418,385.1c-1.43,1.43-1.43,3.743,0,5.173l18.312,18.312c1.43,1.43,3.743,1.43,5.173,0
		c1.43-1.43,1.43-3.743,0-5.173L102.591,385.1C101.161,383.67,98.848,383.67,97.418,385.1z"/>
	<path style="fill:#3A556A;" d="M131.738,371.471c-1.43,1.43-1.43,3.743,0,5.173l7.966,7.966c1.43,1.43,3.743,1.43,5.173,0
		c1.43-1.43,1.43-3.743,0-5.173l-7.966-7.966C135.481,370.042,133.167,370.042,131.738,371.471z"/>
	<path style="fill:#3A556A;" d="M145.367,337.151c-1.43,1.43-1.43,3.743,0,5.173l18.312,18.312c1.43,1.43,3.743,1.43,5.173,0
		c1.43-1.43,1.43-3.743,0-5.173l-18.312-18.312C149.11,335.722,146.796,335.722,145.367,337.151z"/>
	<path style="fill:#3A556A;" d="M179.681,323.528c-1.43,1.43-1.43,3.743,0,5.173l7.966,7.966c1.43,1.43,3.743,1.43,5.173,0
		c1.43-1.43,1.43-3.743,0-5.173l-7.966-7.966C183.425,322.098,181.111,322.098,179.681,323.528z"/>
	<path style="fill:#3A556A;" d="M193.31,289.208c-1.43,1.43-1.43,3.743,0,5.173l18.312,18.312c1.43,1.43,3.743,1.43,5.173,0
		c1.43-1.43,1.43-3.743,0-5.173l-18.312-18.312C197.053,287.778,194.74,287.778,193.31,289.208z"/>
	<path style="fill:#3A556A;" d="M227.63,275.579c-1.43,1.43-1.43,3.743,0,5.173l7.966,7.966c1.43,1.43,3.743,1.43,5.173,0
		c1.43-1.43,1.43-3.743,0-5.173l-7.966-7.966C231.373,274.149,229.06,274.149,227.63,275.579z"/>
	<path style="fill:#3A556A;" d="M241.259,241.259c-1.43,1.43-1.43,3.743,0,5.173l18.312,18.312c1.43,1.43,3.743,1.43,5.173,0
		s1.43-3.743,0-5.173l-18.312-18.312C245.002,239.83,242.689,239.83,241.259,241.259z"/>
	<path style="fill:#3A556A;" d="M275.579,227.63c-1.43,1.43-1.43,3.743,0,5.173l7.966,7.966c1.43,1.43,3.743,1.43,5.173,0
		c1.43-1.43,1.43-3.743,0-5.173l-7.966-7.966C279.322,226.201,277.008,226.201,275.579,227.63z"/>
	<path style="fill:#3A556A;" d="M289.208,193.31c-1.43,1.43-1.43,3.743,0,5.173l18.312,18.312c1.43,1.43,3.743,1.43,5.173,0
		s1.43-3.743,0-5.173L294.38,193.31C292.951,191.881,290.637,191.881,289.208,193.31z"/>
	<path style="fill:#3A556A;" d="M323.527,179.682c-1.43,1.43-1.43,3.743,0,5.173l7.966,7.966c1.43,1.43,3.743,1.43,5.173,0
		s1.43-3.743,0-5.173l-7.966-7.966C327.271,178.252,324.957,178.252,323.527,179.682z"/>
	<path style="fill:#3A556A;" d="M337.151,145.367c-1.43,1.43-1.43,3.743,0,5.173l18.312,18.312c1.43,1.43,3.743,1.43,5.173,0
		s1.43-3.743,0-5.173l-18.312-18.312C340.894,143.937,338.581,143.937,337.151,145.367z"/>
	<path style="fill:#3A556A;" d="M371.471,131.738c-1.43,1.43-1.43,3.743,0,5.173l7.966,7.966c1.43,1.43,3.743,1.43,5.173,0
		c1.43-1.43,1.43-3.743,0-5.173l-7.966-7.966C375.214,130.308,372.901,130.308,371.471,131.738z"/>
	<path style="fill:#3A556A;" d="M385.1,97.418c-1.43,1.43-1.43,3.743,0,5.173l18.312,18.312c1.43,1.43,3.743,1.43,5.173,0
		c1.43-1.43,1.43-3.743,0-5.173l-18.312-18.312C388.843,95.989,386.529,95.989,385.1,97.418z"/>
</g>
<path style="fill:#D5D6DB;" d="M468.293,80.339L80.339,468.293c-4.087-4.087-8.018-8.225-11.743-12.57L455.723,68.597
	C460.068,72.321,464.206,76.253,468.293,80.339z"/>
<g>
</g>
<g>
</g>
<g>
</g>
<g>
</g>
<g>
</g>
<g>
</g>
<g>
</g>
<g>
</g>
<g>
</g>
<g>
</g>
<g>
</g>
<g>
</g>
<g>
</g>
<g>
</g>
<g>
</g>
</svg>
