<?xml version="1.0" encoding="iso-8859-1"?>
<!-- Generator: Adobe Illustrator 19.0.0, SVG Export Plug-In . SVG Version: 6.00 Build 0)  -->
<svg version="1.1" id="Capa_1" xmlns="http://www.w3.org/2000/svg" xmlns:xlink="http://www.w3.org/1999/xlink" x="0px" y="0px"
	 viewBox="0 0 468.293 468.293" style="enable-background:new 0 0 468.293 468.293;" xml:space="preserve">
<path style="fill:#64798A;" d="M316.624,384.705l-64.355-35.012V135.105h-36.245v214.589l-64.359,35.012
	c-2.914,1.587-4.731,4.637-4.731,7.958v37.076c0,5.003,4.059,9.061,9.061,9.061s9.061-4.059,9.061-9.061v-31.69l69.091-37.588
	l69.085,37.588v31.69c0,5.003,4.059,9.061,9.061,9.061s9.061-4.059,9.061-9.061v-37.076
	C321.355,389.342,319.538,386.292,316.624,384.705z"/>
<path style="fill:#44C4A1;" d="M300.973,159.327H167.319c-13.794,0-24.976-11.182-24.976-24.976V24.976
	C142.344,11.182,153.526,0,167.319,0h133.654c13.794,0,24.976,11.182,24.976,24.976v109.376
	C325.949,148.145,314.767,159.327,300.973,159.327z"/>
<path style="fill:#DC8744;" d="M460.675,211.626H7.617V187.87c0-6.897,5.591-12.488,12.488-12.488h428.082
	c6.897,0,12.488,5.591,12.488,12.488V211.626z"/>
<rect x="7.618" y="211.606" style="fill:#F6C358;" width="453.058" height="20.374"/>
<g>
	<rect x="32.468" y="232.005" style="fill:#DC8744;" width="40.635" height="236.288"/>
	<rect x="395.183" y="232.005" style="fill:#DC8744;" width="40.635" height="236.288"/>
</g>
<path style="fill:#3EA69B;" d="M155.035,257.132h158.224c10.345,0,18.732,8.386,18.732,18.732v19.059
	c0,10.345-8.387,18.732-18.732,18.732H155.035c-10.345,0-18.732-8.386-18.732-18.732v-19.059
	C136.303,265.518,144.689,257.132,155.035,257.132z"/>
<circle style="fill:#D5D6DB;" cx="155.998" cy="438.821" r="21.142"/>
<circle style="fill:#64798A;" cx="155.998" cy="438.821" r="12.082"/>
<circle style="fill:#D5D6DB;" cx="310.821" cy="438.821" r="21.142"/>
<circle style="fill:#64798A;" cx="310.821" cy="438.821" r="12.082"/>
<g>
</g>
<g>
</g>
<g>
</g>
<g>
</g>
<g>
</g>
<g>
</g>
<g>
</g>
<g>
</g>
<g>
</g>
<g>
</g>
<g>
</g>
<g>
</g>
<g>
</g>
<g>
</g>
<g>
</g>
</svg>
