<?xml version="1.0" encoding="iso-8859-1"?>
<!-- Generator: Adobe Illustrator 19.0.0, SVG Export Plug-In . SVG Version: 6.00 Build 0)  -->
<svg version="1.1" id="Capa_1" xmlns="http://www.w3.org/2000/svg" xmlns:xlink="http://www.w3.org/1999/xlink" x="0px" y="0px"
	 viewBox="0 0 468.293 468.293" style="enable-background:new 0 0 468.293 468.293;" xml:space="preserve">
<path style="fill:#E1E6E9;" d="M396.488,12.488v394.053c-24.165,24.163-37.651,37.651-61.753,61.752H84.293
	c-6.897,0-12.488-5.591-12.488-12.488V61.753C95.84,37.716,109.265,24.23,133.237,0.257c0.179-0.075,0.431-0.182,0.61-0.257L384,0
	C390.897,0,396.488,5.591,396.488,12.488z"/>
<g>
	<path style="fill:#EBF0F3;" d="M133.461,0.467v61.628H72.022V61.97C96.06,37.93,109.485,24.444,133.461,0.467z"/>
	<path style="fill:#EBF0F3;" d="M335.049,468.293v-61.628h61.439v0.125C372.45,430.829,359.024,444.316,335.049,468.293z"/>
</g>
<g>
	<path style="fill:#D5D6DB;" d="M240.84,89.995H115.962c-3.451,0-6.244,2.793-6.244,6.244c0,3.451,2.793,6.244,6.244,6.244H240.84
		c3.451,0,6.244-2.793,6.244-6.244C247.084,92.788,244.291,89.995,240.84,89.995z"/>
	<path style="fill:#D5D6DB;" d="M184.645,138.124h-68.683c-3.451,0-6.244,2.793-6.244,6.244c0,3.451,2.793,6.244,6.244,6.244h68.683
		c3.451,0,6.244-2.793,6.244-6.244C190.889,140.916,188.096,138.124,184.645,138.124z"/>
	<path style="fill:#D5D6DB;" d="M352.331,138.124h-143.61c-3.451,0-6.244,2.793-6.244,6.244c0,3.451,2.793,6.244,6.244,6.244h143.61
		c3.451,0,6.244-2.793,6.244-6.244C358.575,140.916,355.782,138.124,352.331,138.124z"/>
	<path style="fill:#D5D6DB;" d="M352.331,234.38h-143.61c-3.451,0-6.244,2.793-6.244,6.244s2.793,6.244,6.244,6.244h143.61
		c3.451,0,6.244-2.793,6.244-6.244S355.782,234.38,352.331,234.38z"/>
	<path style="fill:#D5D6DB;" d="M352.331,330.636h-143.61c-3.451,0-6.244,2.793-6.244,6.244c0,3.451,2.793,6.244,6.244,6.244h143.61
		c3.451,0,6.244-2.793,6.244-6.244C358.575,333.429,355.782,330.636,352.331,330.636z"/>
	<path style="fill:#D5D6DB;" d="M240.84,186.252H115.962c-3.451,0-6.244,2.793-6.244,6.244s2.793,6.244,6.244,6.244H240.84
		c3.451,0,6.244-2.793,6.244-6.244S244.291,186.252,240.84,186.252z"/>
	<path style="fill:#D5D6DB;" d="M184.645,234.38h-68.683c-3.451,0-6.244,2.793-6.244,6.244s2.793,6.244,6.244,6.244h68.683
		c3.451,0,6.244-2.793,6.244-6.244S188.096,234.38,184.645,234.38z"/>
	<path style="fill:#D5D6DB;" d="M240.84,282.508H115.962c-3.451,0-6.244,2.793-6.244,6.244c0,3.451,2.793,6.244,6.244,6.244H240.84
		c3.451,0,6.244-2.793,6.244-6.244C247.084,285.301,244.291,282.508,240.84,282.508z"/>
	<path style="fill:#D5D6DB;" d="M184.645,330.636h-68.683c-3.451,0-6.244,2.793-6.244,6.244c0,3.451,2.793,6.244,6.244,6.244h68.683
		c3.451,0,6.244-2.793,6.244-6.244C190.889,333.429,188.096,330.636,184.645,330.636z"/>
	<path style="fill:#D5D6DB;" d="M240.84,378.764H115.962c-3.451,0-6.244,2.793-6.244,6.244c0,3.451,2.793,6.244,6.244,6.244H240.84
		c3.451,0,6.244-2.793,6.244-6.244C247.084,381.557,244.291,378.764,240.84,378.764z"/>
</g>
<g>
</g>
<g>
</g>
<g>
</g>
<g>
</g>
<g>
</g>
<g>
</g>
<g>
</g>
<g>
</g>
<g>
</g>
<g>
</g>
<g>
</g>
<g>
</g>
<g>
</g>
<g>
</g>
<g>
</g>
</svg>
