<?xml version="1.0" encoding="iso-8859-1"?>
<!-- Generator: Adobe Illustrator 19.0.0, SVG Export Plug-In . SVG Version: 6.00 Build 0)  -->
<svg version="1.1" id="Capa_1" xmlns="http://www.w3.org/2000/svg" xmlns:xlink="http://www.w3.org/1999/xlink" x="0px" y="0px"
	 viewBox="0 0 468.274 468.274" style="enable-background:new 0 0 468.274 468.274;" xml:space="preserve">
<path style="fill:#F6C358;" d="M210.945,29.506V15.461C210.945,6.922,204.023,0,195.484,0H56.331C47.792,0,40.87,6.922,40.87,15.461
	v91h386.534V55.275c0-8.539-6.922-15.461-15.461-15.461h-190.69C215.56,39.814,210.945,35.199,210.945,29.506z"/>
<path style="fill:#FCD462;" d="M406.789,325.74H61.485c-11.385,0-20.615-9.23-20.615-20.615V102.783h170.652
	c4.348,0,8.496-1.831,11.425-5.044l18.995-20.834c2.93-3.213,7.077-5.044,11.425-5.044h174.036v233.264
	C427.404,316.51,418.174,325.74,406.789,325.74z"/>
<path style="fill:#64798A;" d="M357.674,414.543H247.024v-88.801h-25.769v88.801H116.937c-7.116,0-12.884,5.769-12.884,12.884l0,0
	c0,7.116,5.769,12.884,12.884,12.884h240.737c7.116,0,12.884-5.769,12.884-12.884l0,0
	C370.559,420.312,364.79,414.543,357.674,414.543z"/>
<circle style="fill:#44C4A1;" cx="234.137" cy="423.899" r="44.375"/>
<polygon style="fill:#E56353;" points="305.547,291.156 163.858,291.156 163.858,209.124 234.135,151.953 305.547,209.124 "/>
<path style="fill:#27A2DB;" d="M324.588,195.798l-83.179-64.122c-4.29-3.303-10.254-3.303-14.544,0l-83.179,64.122
	c-5.211,4.015-6.179,11.492-2.159,16.703c4.011,5.206,11.483,6.179,16.703,2.159l75.907-58.516l75.907,58.516
	c2.168,1.67,4.722,2.48,7.263,2.48c3.569,0,7.095-1.596,9.44-4.639C330.767,207.29,329.799,199.813,324.588,195.798z"/>
<path style="fill:#E1E6E9;" d="M258.489,291.156h-47.573v-39.309c0-6.897,5.591-12.488,12.488-12.488h22.597
	c6.897,0,12.488,5.591,12.488,12.488V291.156z"/>
<path style="fill:#D5D6DB;" d="M248.532,239.36h-28.515c-3.866,0-7.178,2.312-8.672,5.621c1.195-0.54,2.511-0.857,3.908-0.857
	h28.515c5.263,0,9.529,4.266,9.529,9.529v37.504h4.764v-42.268C258.061,243.626,253.795,239.36,248.532,239.36z"/>
<g>
</g>
<g>
</g>
<g>
</g>
<g>
</g>
<g>
</g>
<g>
</g>
<g>
</g>
<g>
</g>
<g>
</g>
<g>
</g>
<g>
</g>
<g>
</g>
<g>
</g>
<g>
</g>
<g>
</g>
</svg>
