<?xml version="1.0" encoding="iso-8859-1"?>
<!-- Generator: Adobe Illustrator 19.0.0, SVG Export Plug-In . SVG Version: 6.00 Build 0)  -->
<svg version="1.1" id="Capa_1" xmlns="http://www.w3.org/2000/svg" xmlns:xlink="http://www.w3.org/1999/xlink" x="0px" y="0px"
	 viewBox="0 0 468.293 468.293" style="enable-background:new 0 0 468.293 468.293;" xml:space="preserve">
<path style="fill:#DC8744;" d="M384.578,451.163H83.714c-6.897,0-12.488-5.591-12.488-12.488V12.488C71.226,5.591,76.817,0,83.714,0
	h300.864c6.897,0,12.488,5.591,12.488,12.488v426.187C397.066,445.572,391.475,451.163,384.578,451.163z"/>
<g>
	<rect x="102.556" y="31.332" style="fill:#E1E6E9;" width="263.18" height="112.765"/>
	<rect x="102.569" y="169.185" style="fill:#E1E6E9;" width="263.181" height="112.765"/>
	<rect x="102.575" y="307.044" style="fill:#E1E6E9;" width="263.18" height="112.765"/>
</g>
<g>
	<path style="fill:#2D93BA;" d="M284.943,85.24c-3.095,0-5.599,2.504-5.599,5.599v15.119h-90.394V90.839
		c0-3.095-2.504-5.599-5.599-5.599s-5.599,2.504-5.599,5.599v20.718c0,3.095,2.504,5.599,5.599,5.599h101.593
		c3.095,0,5.599-2.504,5.599-5.599V90.839C290.542,87.744,288.037,85.24,284.943,85.24z"/>
	<path style="fill:#2D93BA;" d="M284.943,223.095c-3.095,0-5.599,2.504-5.599,5.599v15.119h-90.394v-15.119
		c0-3.095-2.504-5.599-5.599-5.599s-5.599,2.504-5.599,5.599v20.718c0,3.095,2.504,5.599,5.599,5.599h101.593
		c3.095,0,5.599-2.504,5.599-5.599v-20.718C290.542,225.599,288.037,223.095,284.943,223.095z"/>
	<path style="fill:#2D93BA;" d="M284.943,361.201c-3.095,0-5.599,2.504-5.599,5.599v15.119h-90.394V366.8
		c0-3.095-2.504-5.599-5.599-5.599s-5.599,2.504-5.599,5.599v20.718c0,3.095,2.504,5.599,5.599,5.599h101.593
		c3.095,0,5.599-2.504,5.599-5.599V366.8C290.542,363.705,288.037,361.201,284.943,361.201z"/>
</g>
<g>
	<path style="fill:#3A556A;" d="M94.691,451.163h37.747v10.886c0,3.448-2.795,6.244-6.244,6.244h-25.259
		c-3.448,0-6.244-2.796-6.244-6.244V451.163z"/>
	<path style="fill:#3A556A;" d="M335.854,451.163h37.747v10.886c0,3.448-2.796,6.244-6.244,6.244h-25.259
		c-3.448,0-6.244-2.796-6.244-6.244V451.163z"/>
</g>
<g>
</g>
<g>
</g>
<g>
</g>
<g>
</g>
<g>
</g>
<g>
</g>
<g>
</g>
<g>
</g>
<g>
</g>
<g>
</g>
<g>
</g>
<g>
</g>
<g>
</g>
<g>
</g>
<g>
</g>
</svg>
