<?xml version="1.0" encoding="iso-8859-1"?>
<!-- Generator: Adobe Illustrator 19.0.0, SVG Export Plug-In . SVG Version: 6.00 Build 0)  -->
<svg version="1.1" id="Capa_1" xmlns="http://www.w3.org/2000/svg" xmlns:xlink="http://www.w3.org/1999/xlink" x="0px" y="0px"
	 viewBox="0 0 468.293 468.293" style="enable-background:new 0 0 468.293 468.293;" xml:space="preserve">
<path style="fill:#44C4A1;" d="M133.097,468.293H89.39c-10.345,0-18.732-8.386-18.732-18.732V18.732C70.658,8.386,79.044,0,89.39,0
	h43.707V468.293z"/>
<path style="fill:#27A2DB;" d="M403.879,468.293H133.097V0h270.782c10.345,0,18.732,8.386,18.732,18.732v430.829
	C422.61,459.906,414.224,468.293,403.879,468.293z"/>
<g>
	<path style="fill:#E1E6E9;" d="M83.146,66.769H58.17c-6.897,0-12.488-5.591-12.488-12.488v0c0-6.897,5.591-12.488,12.488-12.488
		h24.976c6.897,0,12.488,5.591,12.488,12.488v0C95.633,61.178,90.042,66.769,83.146,66.769z"/>
	<path style="fill:#E1E6E9;" d="M83.146,126.724H58.17c-6.897,0-12.488-5.591-12.488-12.488v0c0-6.897,5.591-12.488,12.488-12.488
		h24.976c6.897,0,12.488,5.591,12.488,12.488v0C95.633,121.133,90.042,126.724,83.146,126.724z"/>
	<path style="fill:#E1E6E9;" d="M83.146,186.679H58.17c-6.897,0-12.488-5.591-12.488-12.488v0c0-6.897,5.591-12.488,12.488-12.488
		h24.976c6.897,0,12.488,5.591,12.488,12.488v0C95.633,181.088,90.042,186.679,83.146,186.679z"/>
	<path style="fill:#E1E6E9;" d="M83.146,246.634H58.17c-6.897,0-12.488-5.591-12.488-12.488v0c0-6.897,5.591-12.488,12.488-12.488
		h24.976c6.897,0,12.488,5.591,12.488,12.488v0C95.633,241.043,90.042,246.634,83.146,246.634z"/>
	<path style="fill:#E1E6E9;" d="M83.146,306.589H58.17c-6.897,0-12.488-5.591-12.488-12.488l0,0c0-6.897,5.591-12.488,12.488-12.488
		h24.976c6.897,0,12.488,5.591,12.488,12.488l0,0C95.633,300.998,90.042,306.589,83.146,306.589z"/>
	<path style="fill:#E1E6E9;" d="M83.146,366.544H58.17c-6.897,0-12.488-5.591-12.488-12.488v0c0-6.897,5.591-12.488,12.488-12.488
		h24.976c6.897,0,12.488,5.591,12.488,12.488v0C95.633,360.953,90.042,366.544,83.146,366.544z"/>
	<path style="fill:#E1E6E9;" d="M83.146,426.499H58.17c-6.897,0-12.488-5.591-12.488-12.488v0c0-6.897,5.591-12.488,12.488-12.488
		h24.976c6.897,0,12.488,5.591,12.488,12.488v0C95.633,420.908,90.042,426.499,83.146,426.499z"/>
	<rect x="180.012" y="101.751" style="fill:#E1E6E9;" width="195.684" height="87.415"/>
</g>
<g>
	<polygon style="fill:#D5D6DB;" points="369.441,101.748 369.441,182.919 180.022,182.919 180.022,189.163 375.685,189.163 
		375.685,101.748 	"/>
	<path style="fill:#D5D6DB;" d="M338.883,122.043h-99.902c-2.585,0-4.683,2.098-4.683,4.683c0,2.585,2.098,4.683,4.683,4.683h99.902
		c2.585,0,4.683-2.098,4.683-4.683C343.566,124.141,341.469,122.043,338.883,122.043z"/>
	<path style="fill:#D5D6DB;" d="M338.883,152.338h-99.902c-2.585,0-4.683,2.098-4.683,4.683c0,2.585,2.098,4.683,4.683,4.683h99.902
		c2.585,0,4.683-2.098,4.683-4.683C343.566,154.435,341.469,152.338,338.883,152.338z"/>
</g>
<g>
</g>
<g>
</g>
<g>
</g>
<g>
</g>
<g>
</g>
<g>
</g>
<g>
</g>
<g>
</g>
<g>
</g>
<g>
</g>
<g>
</g>
<g>
</g>
<g>
</g>
<g>
</g>
<g>
</g>
</svg>
