<?xml version="1.0" encoding="iso-8859-1"?>
<!-- Generator: Adobe Illustrator 19.0.0, SVG Export Plug-In . SVG Version: 6.00 Build 0)  -->
<svg version="1.1" id="Capa_1" xmlns="http://www.w3.org/2000/svg" xmlns:xlink="http://www.w3.org/1999/xlink" x="0px" y="0px"
	 viewBox="0 0 468.294 468.294" style="enable-background:new 0 0 468.294 468.294;" xml:space="preserve">
<path style="fill:#FCD462;" d="M418.693,346.226l6.07,6.07l27.266,62.956l15.173,35.11c4.603,10.65-6.191,21.444-16.841,16.842
	l-35.109-15.173l-62.956-27.266l-6.07-6.07L418.693,346.226z"/>
<polygon style="fill:#E56353;" points="351.903,424.373 371.739,424.28 370.167,412.744 388.73,417.72 388.289,403.679 
	410.023,410.026 403.676,388.292 417.717,388.732 412.74,370.168 424.277,371.74 424.369,351.904 150.446,77.981 77.98,150.45 "/>
<g>
	<path style="fill:#3A556A;" d="M452.029,415.252l15.173,35.11c4.603,10.65-6.191,21.444-16.841,16.842l-35.109-15.173
		L452.029,415.252z"/>
	
		<rect x="47.718" y="77.452" transform="matrix(-0.7071 0.7071 -0.7071 -0.7071 238.9324 99.0033)" style="fill:#3A556A;" width="102.487" height="43.07"/>
</g>
<path style="fill:#EBF0F3;" d="M5.628,50.92c-7.504,7.504-7.504,19.671,0,27.176l41.895,41.895l36.232-36.233L28.273,28.275
	L5.628,50.92z"/>
<path style="fill:#E1E6E9;" d="M78.094,5.628c-7.504-7.504-19.671-7.504-27.175,0L28.273,28.275l55.483,55.483l36.233-36.234
	L78.094,5.628z"/>
<g>
</g>
<g>
</g>
<g>
</g>
<g>
</g>
<g>
</g>
<g>
</g>
<g>
</g>
<g>
</g>
<g>
</g>
<g>
</g>
<g>
</g>
<g>
</g>
<g>
</g>
<g>
</g>
<g>
</g>
</svg>
