<?xml version="1.0" encoding="iso-8859-1"?>
<!-- Generator: Adobe Illustrator 19.0.0, SVG Export Plug-In . SVG Version: 6.00 Build 0)  -->
<svg version="1.1" id="Capa_1" xmlns="http://www.w3.org/2000/svg" xmlns:xlink="http://www.w3.org/1999/xlink" x="0px" y="0px"
	 viewBox="0 0 468.293 468.293" style="enable-background:new 0 0 468.293 468.293;" xml:space="preserve">
<path style="fill:#DC8744;" d="M366.895,286.398H101.398c-9.997,0-14.522-10.011-10.333-21.725l18.516-27.639
	c3.01-8.417,11.751-14.948,19.652-14.948h209.826c7.901,0,16.642,6.531,19.652,14.948l18.516,27.639
	C381.416,276.387,376.892,286.398,366.895,286.398z"/>
<g>
	<rect x="153.225" y="70.363" style="fill:#64798A;" width="38.743" height="151.727"/>
	<path style="fill:#64798A;" d="M143.969,468.293h-13.766c-6.897,0-12.488-5.591-12.488-12.488V286.398h38.742v169.407
		C156.456,462.702,150.865,468.293,143.969,468.293z"/>
	<path style="fill:#64798A;" d="M338.09,468.293h-13.766c-6.897,0-12.488-5.591-12.488-12.488V286.398h38.742v169.407
		C350.578,462.702,344.987,468.293,338.09,468.293z"/>
	<rect x="276.299" y="70.363" style="fill:#64798A;" width="38.743" height="151.727"/>
</g>
<path style="fill:#DC8744;" d="M346.051,116.737H122.242c-13.794,0-24.976-11.182-24.976-24.976V24.976
	C97.266,11.182,108.448,0,122.242,0h223.809c13.794,0,24.976,11.182,24.976,24.976v66.786
	C371.026,105.555,359.844,116.737,346.051,116.737z"/>
<g>
</g>
<g>
</g>
<g>
</g>
<g>
</g>
<g>
</g>
<g>
</g>
<g>
</g>
<g>
</g>
<g>
</g>
<g>
</g>
<g>
</g>
<g>
</g>
<g>
</g>
<g>
</g>
<g>
</g>
</svg>
