<?xml version="1.0" encoding="iso-8859-1"?>
<!-- Generator: Adobe Illustrator 19.0.0, SVG Export Plug-In . SVG Version: 6.00 Build 0)  -->
<svg version="1.1" id="Capa_1" xmlns="http://www.w3.org/2000/svg" xmlns:xlink="http://www.w3.org/1999/xlink" x="0px" y="0px"
	 viewBox="0 0 468.293 468.293" style="enable-background:new 0 0 468.293 468.293;" xml:space="preserve">
<path style="fill:#E1E6E9;" d="M143.428,0L61.914,81.512v368.049c0,10.345,8.386,18.732,18.732,18.732h307.001
	c10.345,0,18.732-8.386,18.732-18.732V18.732C406.379,8.387,397.992,0,387.647,0C387.647,0,143.428,0,143.428,0z"/>
<polygon style="fill:#EBF0F3;" points="143.428,81.512 143.428,0 61.914,81.512 "/>
<g>
	<circle style="fill:#D5D6DB;" cx="127.569" cy="240.765" r="24.976"/>
	<circle style="fill:#D5D6DB;" cx="127.569" cy="164.396" r="24.976"/>
</g>
<path style="fill:#EBF0F3;" d="M102.593,240.793c0,13.793,11.182,24.976,24.976,24.976v-49.951
	C113.775,215.817,102.593,226.999,102.593,240.793z"/>
<g>
	<circle style="fill:#D5D6DB;" cx="127.569" cy="317.19" r="24.976"/>
	<circle style="fill:#D5D6DB;" cx="127.569" cy="393.553" r="24.976"/>
</g>
<g>
	<path style="fill:#EBF0F3;" d="M102.593,164.398c0,13.794,11.182,24.976,24.976,24.976v-49.951
		C113.775,139.422,102.593,150.604,102.593,164.398z"/>
	<path style="fill:#EBF0F3;" d="M102.593,317.187c0,13.794,11.182,24.976,24.976,24.976v-49.951
		C113.775,292.212,102.593,303.393,102.593,317.187z"/>
	<path style="fill:#EBF0F3;" d="M102.593,393.582c0,13.794,11.182,24.976,24.976,24.976v-49.951
		C113.775,368.607,102.593,379.788,102.593,393.582z"/>
</g>
<g>
	<path style="fill:#D5D6DB;" d="M359.456,170.642H186.07c-3.448,0-6.244-2.795-6.244-6.244v0c0-3.448,2.796-6.244,6.244-6.244
		h173.386c3.448,0,6.244,2.795,6.244,6.244v0C365.7,167.846,362.904,170.642,359.456,170.642z"/>
	<path style="fill:#D5D6DB;" d="M359.456,247.037H186.07c-3.448,0-6.244-2.796-6.244-6.244l0,0c0-3.448,2.796-6.244,6.244-6.244
		h173.386c3.448,0,6.244,2.796,6.244,6.244l0,0C365.7,244.241,362.904,247.037,359.456,247.037z"/>
	<path style="fill:#D5D6DB;" d="M359.456,323.431H186.07c-3.448,0-6.244-2.796-6.244-6.244l0,0c0-3.448,2.796-6.244,6.244-6.244
		h173.386c3.448,0,6.244,2.796,6.244,6.244l0,0C365.7,320.636,362.904,323.431,359.456,323.431z"/>
	<path style="fill:#D5D6DB;" d="M359.456,399.826H186.07c-3.448,0-6.244-2.796-6.244-6.244l0,0c0-3.448,2.796-6.244,6.244-6.244
		h173.386c3.448,0,6.244,2.795,6.244,6.244l0,0C365.7,397.031,362.904,399.826,359.456,399.826z"/>
</g>
<g>
</g>
<g>
</g>
<g>
</g>
<g>
</g>
<g>
</g>
<g>
</g>
<g>
</g>
<g>
</g>
<g>
</g>
<g>
</g>
<g>
</g>
<g>
</g>
<g>
</g>
<g>
</g>
<g>
</g>
</svg>
