<?xml version="1.0" encoding="iso-8859-1"?>
<!-- Generator: Adobe Illustrator 19.0.0, SVG Export Plug-In . SVG Version: 6.00 Build 0)  -->
<svg version="1.1" id="Capa_1" xmlns="http://www.w3.org/2000/svg" xmlns:xlink="http://www.w3.org/1999/xlink" x="0px" y="0px"
	 viewBox="0 0 468.293 468.293" style="enable-background:new 0 0 468.293 468.293;" xml:space="preserve">
<rect x="138.309" y="103.399" style="fill:#27A2DB;" width="28.391" height="192.437"/>
<rect x="166.712" y="103.399" style="fill:#2D93BA;" width="28.391" height="192.437"/>
<path style="fill:#E56353;" d="M195.079,103.369l-56.778,0.006l-0.005-74.984C138.295,12.712,151.004,0.002,166.682,0h0
	c15.679-0.002,28.391,12.708,28.392,28.387L195.079,103.369z"/>
<path style="fill:#3A556A;" d="M138.314,295.813l56.778-0.006v0.001c0.001,7.91-6.411,14.323-14.321,14.323l-28.133,0.003
	C144.727,310.135,138.314,303.723,138.314,295.813L138.314,295.813z"/>
<path style="fill:#44C4A1;" d="M177.048,82.41c-0.001-12.192,1.185-23.288,3.123-31.756l-0.001-9.741
	c0-7.448-6.038-13.486-13.485-13.485h0c-7.447,0.001-13.484,6.04-13.484,13.488l0.001,9.741c1.94,8.467,3.127,19.563,3.128,31.756
	s-1.185,23.288-3.124,31.756l0.001,23.228l26.969-0.003l-0.001-23.228C178.236,105.698,177.048,94.602,177.048,82.41z"/>
<polygon style="fill:#3EA69B;" points="153.207,137.397 166.693,155.528 180.177,137.394 "/>
<g>
	<path style="fill:#3A556A;" d="M291.429,28.23l-41.969,0l0-15.742C249.459,5.591,255.05,0,261.947,0l16.993,0
		c6.897,0,12.488,5.591,12.488,12.488L291.429,28.23z"/>
	<path style="fill:#3A556A;" d="M270.439,360.891L270.439,360.891c-2.594,0-4.697-2.103-4.697-4.697l0-18.971h9.395l0,18.971
		C275.137,358.788,273.034,360.891,270.439,360.891z"/>
</g>
<g>
	<polyline style="fill:#27A2DB;" points="239.124,294.629 265.451,340.701 275.428,340.701 301.755,294.629 	"/>
	<path style="fill:#27A2DB;" d="M301.76,36.907l0.001,257.728l-62.631,0l-0.001-257.728c0-8.651,5.598-15.658,12.526-15.658
		l37.579,0C296.162,21.249,301.76,28.256,301.76,36.907z"/>
</g>
<path style="fill:#E56353;" d="M312.381,49.785l-73.258,0l0,11.743l73.258,0c3.238,0,5.872,2.634,5.872,5.872l0,87.097
	c0,3.244,2.63,5.872,5.872,5.872c3.242,0,5.872-2.628,5.872-5.872l0-87.097C329.996,57.687,322.094,49.785,312.381,49.785z"/>
<g>
	<rect x="239.129" y="203.177" style="fill:#E1E6E9;" width="62.626" height="7.83"/>
	<rect x="239.129" y="222.907" style="fill:#E1E6E9;" width="62.626" height="7.83"/>
	<rect x="239.129" y="242.7" style="fill:#E1E6E9;" width="62.626" height="7.83"/>
</g>
<path style="fill:#F6C358;" d="M367.312,155.066v285.966c0,15.039-12.222,27.261-27.261,27.261H128.236
	c-15.039,0-27.261-12.222-27.261-27.261V155.066H367.312z"/>
<g>
	<path style="fill:#E1E6E9;" d="M134.414,387.51c0,12.54-10.177,22.717-22.717,22.717c-3.907,0-7.542-0.954-10.722-2.68v-40.074
		c3.18-1.726,6.815-2.68,10.722-2.68C124.237,364.793,134.414,374.925,134.414,387.51z"/>
	<circle style="fill:#E1E6E9;" cx="193.324" cy="387.497" r="22.715"/>
	<circle style="fill:#E1E6E9;" cx="274.969" cy="387.497" r="22.715"/>
	<path style="fill:#E1E6E9;" d="M367.312,367.473v40.074c-3.18,1.727-6.815,2.68-10.677,2.68c-12.585,0-22.717-10.177-22.717-22.717
		c0-12.585,10.132-22.717,22.717-22.717C360.497,364.793,364.132,365.747,367.312,367.473z"/>
	<path style="fill:#E1E6E9;" d="M134.414,235.849c0,12.54-10.177,22.717-22.717,22.717c-3.907,0-7.542-0.954-10.722-2.68v-40.073
		c3.18-1.727,6.815-2.681,10.722-2.681C124.237,213.132,134.414,223.309,134.414,235.849z"/>
	<circle style="fill:#E1E6E9;" cx="193.324" cy="235.832" r="22.715"/>
	<circle style="fill:#E1E6E9;" cx="274.969" cy="235.832" r="22.715"/>
	<path style="fill:#E1E6E9;" d="M367.312,215.813v40.073c-3.18,1.727-6.815,2.68-10.677,2.68c-12.585,0-22.717-10.177-22.717-22.717
		s10.132-22.717,22.717-22.717C360.497,213.132,364.132,214.086,367.312,215.813z"/>
	<path style="fill:#E1E6E9;" d="M175.214,463.295c0,1.726-0.181,3.362-0.545,4.998h-44.344c-0.364-1.636-0.546-3.272-0.546-4.998
		c0-12.54,10.177-22.717,22.717-22.717C165.037,440.578,175.214,450.755,175.214,463.295z"/>
	<circle style="fill:#E1E6E9;" cx="152.501" cy="160.031" r="22.715"/>
	<circle style="fill:#E1E6E9;" cx="234.146" cy="160.031" r="22.715"/>
	<circle style="fill:#E1E6E9;" cx="315.817" cy="160.031" r="22.715"/>
	<path style="fill:#E1E6E9;" d="M256.861,463.295c0,1.726-0.182,3.362-0.545,4.998h-44.344c-0.364-1.636-0.545-3.272-0.545-4.998
		c0-12.54,10.177-22.717,22.717-22.717S256.861,450.755,256.861,463.295z"/>
	<path style="fill:#E1E6E9;" d="M338.506,463.295c0,1.726-0.181,3.362-0.545,4.998h-44.344c-0.363-1.636-0.545-3.272-0.545-4.998
		c0-12.54,10.177-22.717,22.717-22.717S338.506,450.755,338.506,463.295z"/>
	<circle style="fill:#E1E6E9;" cx="152.501" cy="311.696" r="22.715"/>
	<circle style="fill:#E1E6E9;" cx="234.146" cy="311.696" r="22.715"/>
	<circle style="fill:#E1E6E9;" cx="315.817" cy="311.696" r="22.715"/>
</g>
<path style="fill:#DC8744;" d="M370.888,155.067H97.404c-6.897,0-12.488-5.591-12.488-12.488v-2.575
	c0-6.897,5.591-12.488,12.488-12.488h273.484c6.897,0,12.488,5.591,12.488,12.488v2.575
	C383.376,149.476,377.785,155.067,370.888,155.067z"/>
<g>
</g>
<g>
</g>
<g>
</g>
<g>
</g>
<g>
</g>
<g>
</g>
<g>
</g>
<g>
</g>
<g>
</g>
<g>
</g>
<g>
</g>
<g>
</g>
<g>
</g>
<g>
</g>
<g>
</g>
</svg>
