<?xml version="1.0" encoding="iso-8859-1"?>
<!-- Generator: Adobe Illustrator 19.0.0, SVG Export Plug-In . SVG Version: 6.00 Build 0)  -->
<svg version="1.1" id="Capa_1" xmlns="http://www.w3.org/2000/svg" xmlns:xlink="http://www.w3.org/1999/xlink" x="0px" y="0px"
	 viewBox="0 0 468.293 468.293" style="enable-background:new 0 0 468.293 468.293;" xml:space="preserve">
<path style="fill:#27A2DB;" d="M388.861,126.182h-227.6v-21.398c0-16.115-13.064-29.179-29.179-29.179H29.179
	C13.064,75.605,0,88.669,0,104.784v21.398v237.327c0,16.116,13.064,29.179,29.179,29.179h359.681
	c16.115,0,29.179-13.064,29.179-29.179V155.362C418.04,139.247,404.976,126.182,388.861,126.182z"/>
<path style="fill:#2D93BA;" d="M400.722,392.688H27.901c-15.664,0-26.883-15.122-22.34-30.113l44.211-157.569
	c2.983-9.843,12.056-16.574,22.34-16.574h372.821c15.664,0,26.883,15.122,22.34,30.113l-44.211,157.569
	C420.08,385.957,411.007,392.688,400.722,392.688z"/>
<g>
</g>
<g>
</g>
<g>
</g>
<g>
</g>
<g>
</g>
<g>
</g>
<g>
</g>
<g>
</g>
<g>
</g>
<g>
</g>
<g>
</g>
<g>
</g>
<g>
</g>
<g>
</g>
<g>
</g>
</svg>
