<?xml version="1.0" encoding="iso-8859-1"?>
<!-- Generator: Adobe Illustrator 19.0.0, SVG Export Plug-In . SVG Version: 6.00 Build 0)  -->
<svg version="1.1" id="Capa_1" xmlns="http://www.w3.org/2000/svg" xmlns:xlink="http://www.w3.org/1999/xlink" x="0px" y="0px"
	 viewBox="0 0 468.293 468.293" style="enable-background:new 0 0 468.293 468.293;" xml:space="preserve">
<path style="fill:#44C4A1;" d="M137.366,459.287H18.732C8.386,459.287,0,450.901,0,440.555V27.737
	C0,17.392,8.386,9.006,18.732,9.006h118.634c10.345,0,18.732,8.386,18.732,18.732v412.818
	C156.098,450.901,147.711,459.287,137.366,459.287z"/>
<path style="fill:#E1E6E9;" d="M113.591,426.598H42.507c-6.897,0-12.488-5.591-12.488-12.488V271.858
	c0-6.897,5.591-12.488,12.488-12.488h71.084c6.897,0,12.488,5.591,12.488,12.488V414.11
	C126.079,421.007,120.488,426.598,113.591,426.598z"/>
<rect x="54.06" y="283.379" style="fill:#D5D6DB;" width="48.028" height="119.196"/>
<g>
	<rect x="42.028" y="41.697" style="fill:#3EA69B;" width="72.042" height="18.014"/>
	<rect x="42.028" y="77.818" style="fill:#3EA69B;" width="72.042" height="18.014"/>
	<rect x="42.028" y="113.939" style="fill:#3EA69B;" width="72.042" height="18.014"/>
	<rect x="42.028" y="150.06" style="fill:#3EA69B;" width="72.042" height="18.014"/>
</g>
<path style="fill:#FCD462;" d="M293.463,459.287H174.829c-10.345,0-18.732-8.386-18.732-18.732V27.737
	c0-10.345,8.386-18.732,18.732-18.732h118.634c10.345,0,18.732,8.386,18.732,18.732v412.818
	C312.195,450.901,303.809,459.287,293.463,459.287z"/>
<path style="fill:#E1E6E9;" d="M269.689,426.598h-71.084c-6.897,0-12.488-5.591-12.488-12.488V271.858
	c0-6.897,5.591-12.488,12.488-12.488h71.084c6.897,0,12.488,5.591,12.488,12.488V414.11
	C282.176,421.007,276.585,426.598,269.689,426.598z"/>
<rect x="210.157" y="283.386" style="fill:#D5D6DB;" width="48.028" height="119.196"/>
<g>
	<rect x="198.119" y="41.697" style="fill:#F6C358;" width="72.042" height="18.014"/>
	<rect x="198.119" y="77.818" style="fill:#F6C358;" width="72.042" height="18.014"/>
	<rect x="198.119" y="113.939" style="fill:#F6C358;" width="72.042" height="18.014"/>
	<rect x="198.119" y="150.06" style="fill:#F6C358;" width="72.042" height="18.014"/>
</g>
<path style="fill:#27A2DB;" d="M449.561,459.287H330.927c-10.345,0-18.732-8.386-18.732-18.732V27.737
	c0-10.345,8.387-18.732,18.732-18.732h118.634c10.345,0,18.732,8.386,18.732,18.732v412.818
	C468.293,450.901,459.906,459.287,449.561,459.287z"/>
<path style="fill:#E1E6E9;" d="M425.786,426.598h-71.084c-6.897,0-12.488-5.591-12.488-12.488V271.858
	c0-6.897,5.591-12.488,12.488-12.488h71.084c6.897,0,12.488,5.591,12.488,12.488V414.11
	C438.274,421.007,432.683,426.598,425.786,426.598z"/>
<rect x="366.255" y="283.417" style="fill:#D5D6DB;" width="48.028" height="119.196"/>
<g>
	<rect x="354.217" y="41.697" style="fill:#2D93BA;" width="72.042" height="18.014"/>
	<rect x="354.217" y="77.818" style="fill:#2D93BA;" width="72.042" height="18.014"/>
	<rect x="354.217" y="113.939" style="fill:#2D93BA;" width="72.042" height="18.014"/>
	<rect x="354.217" y="150.06" style="fill:#2D93BA;" width="72.042" height="18.014"/>
</g>
<g>
</g>
<g>
</g>
<g>
</g>
<g>
</g>
<g>
</g>
<g>
</g>
<g>
</g>
<g>
</g>
<g>
</g>
<g>
</g>
<g>
</g>
<g>
</g>
<g>
</g>
<g>
</g>
<g>
</g>
</svg>
