<?xml version="1.0" encoding="iso-8859-1"?>
<!-- Generator: Adobe Illustrator 19.0.0, SVG Export Plug-In . SVG Version: 6.00 Build 0)  -->
<svg version="1.1" id="Capa_1" xmlns="http://www.w3.org/2000/svg" xmlns:xlink="http://www.w3.org/1999/xlink" x="0px" y="0px"
	 viewBox="0 0 468.274 468.274" style="enable-background:new 0 0 468.274 468.274;" xml:space="preserve">
<rect x="21.91" y="16.215" style="fill:#44C4A1;" width="322.916" height="452.059"/>
<rect x="41.303" y="35.584" style="fill:#E1E6E9;" width="284.166" height="413.346"/>
<g>
	<path style="fill:#27A2DB;" d="M87.913,58.262H68.109c-3.448,0-6.244-2.795-6.244-6.244V6.244C61.865,2.795,64.661,0,68.109,0
		h19.803c3.448,0,6.244,2.795,6.244,6.244v45.775C94.157,55.467,91.361,58.262,87.913,58.262z"/>
	<path style="fill:#27A2DB;" d="M140.593,58.262H120.79c-3.448,0-6.244-2.795-6.244-6.244V6.244c0-3.448,2.795-6.244,6.244-6.244
		h19.803c3.448,0,6.244,2.795,6.244,6.244v45.775C146.837,55.467,144.042,58.262,140.593,58.262z"/>
	<path style="fill:#27A2DB;" d="M193.274,58.262H173.47c-3.448,0-6.244-2.795-6.244-6.244V6.244c0-3.448,2.795-6.244,6.244-6.244
		h19.803c3.448,0,6.244,2.795,6.244,6.244v45.775C199.517,55.467,196.722,58.262,193.274,58.262z"/>
	<path style="fill:#27A2DB;" d="M245.954,58.262H226.15c-3.448,0-6.244-2.795-6.244-6.244V6.244c0-3.448,2.795-6.244,6.244-6.244
		h19.803c3.448,0,6.244,2.795,6.244,6.244v45.775C252.198,55.467,249.402,58.262,245.954,58.262z"/>
	<path style="fill:#27A2DB;" d="M298.634,58.262h-19.803c-3.448,0-6.244-2.795-6.244-6.244V6.244c0-3.448,2.796-6.244,6.244-6.244
		h19.803c3.448,0,6.244,2.795,6.244,6.244v45.775C304.878,55.467,302.083,58.262,298.634,58.262z"/>
</g>
<g>
	<path style="fill:#1C75A1;" d="M298.42,0h-19.375c-3.202,0-5.74,2.371-6.251,5.429c0.989-0.616,2.091-1.066,3.342-1.066h19.375
		c3.567,0,6.458,2.891,6.458,6.458v45.345c0,0.366-0.15,0.681-0.208,1.03c1.831-1.14,3.116-3.076,3.116-5.392V6.458
		C304.878,2.891,301.987,0,298.42,0z"/>
	<path style="fill:#1C75A1;" d="M245.74,0h-19.375c-3.202,0-5.74,2.371-6.251,5.429c0.989-0.616,2.091-1.066,3.342-1.066h19.375
		c3.567,0,6.458,2.891,6.458,6.458v45.345c0,0.366-0.15,0.681-0.208,1.03c1.831-1.14,3.116-3.076,3.116-5.392V6.458
		C252.198,2.891,249.307,0,245.74,0z"/>
	<path style="fill:#1C75A1;" d="M193.059,0h-19.375c-3.202,0-5.74,2.371-6.251,5.429c0.989-0.616,2.091-1.066,3.342-1.066h19.375
		c3.567,0,6.458,2.891,6.458,6.458v45.345c0,0.366-0.15,0.681-0.208,1.03c1.831-1.14,3.116-3.076,3.116-5.392V6.458
		C199.517,2.891,196.626,0,193.059,0z"/>
	<path style="fill:#1C75A1;" d="M140.379,0h-19.375c-3.202,0-5.74,2.371-6.251,5.429c0.989-0.616,2.091-1.066,3.342-1.066h19.375
		c3.567,0,6.458,2.891,6.458,6.458v45.345c0,0.366-0.15,0.681-0.208,1.03c1.831-1.14,3.116-3.076,3.116-5.392V6.458
		C146.837,2.891,143.946,0,140.379,0z"/>
	<path style="fill:#1C75A1;" d="M87.698,0H68.324c-3.202,0-5.74,2.371-6.251,5.429c0.989-0.616,2.091-1.066,3.342-1.066H84.79
		c3.567,0,6.458,2.891,6.458,6.458v45.345c0,0.366-0.15,0.681-0.208,1.03c1.831-1.14,3.116-3.076,3.116-5.392V6.458
		C94.157,2.891,91.265,0,87.698,0z"/>
</g>
<g>
	<path style="fill:#D5D6DB;" d="M212.224,130.072H74.784c-3.57,0-6.458,2.889-6.458,6.458s2.889,6.458,6.458,6.458h137.44
		c3.57,0,6.458-2.889,6.458-6.458S215.794,130.072,212.224,130.072z"/>
	<path style="fill:#D5D6DB;" d="M173.475,172.051h-98.69c-3.57,0-6.458,2.889-6.458,6.458s2.889,6.458,6.458,6.458h98.69
		c3.57,0,6.458-2.889,6.458-6.458S177.044,172.051,173.475,172.051z"/>
	<path style="fill:#D5D6DB;" d="M212.224,214.029H74.784c-3.57,0-6.458,2.889-6.458,6.458c0,3.57,2.889,6.458,6.458,6.458h137.44
		c3.57,0,6.458-2.889,6.458-6.458C218.682,216.918,215.794,214.029,212.224,214.029z"/>
	<path style="fill:#D5D6DB;" d="M173.475,256.008h-98.69c-3.57,0-6.458,2.889-6.458,6.458s2.889,6.458,6.458,6.458h98.69
		c3.57,0,6.458-2.889,6.458-6.458S177.044,256.008,173.475,256.008z"/>
	<path style="fill:#D5D6DB;" d="M212.224,297.987H74.784c-3.57,0-6.458,2.889-6.458,6.458s2.889,6.458,6.458,6.458h137.44
		c3.57,0,6.458-2.889,6.458-6.458S215.794,297.987,212.224,297.987z"/>
	<path style="fill:#D5D6DB;" d="M173.475,339.965h-98.69c-3.57,0-6.458,2.889-6.458,6.458s2.889,6.458,6.458,6.458h98.69
		c3.57,0,6.458-2.889,6.458-6.458S177.044,339.965,173.475,339.965z"/>
	<path style="fill:#D5D6DB;" d="M212.224,381.944H74.784c-3.57,0-6.458,2.889-6.458,6.458s2.889,6.458,6.458,6.458h137.44
		c3.57,0,6.458-2.889,6.458-6.458S215.794,381.944,212.224,381.944z"/>
</g>
<rect x="291.945" y="81.979" transform="matrix(-0.8642 -0.5032 0.5032 -0.8642 491.081 579.5527)" style="fill:#F6C358;" width="63.632" height="283.036"/>
<path style="fill:#E1E6E9;" d="M280.065,361.786l-22.727,12.848l-22.537,12.703c-4.302,2.425-9.622-0.679-9.629-5.617l-0.037-25.838
	l-0.043-26.107L280.065,361.786z"/>
<path style="fill:#E56353;" d="M440.158,62.033L406.75,42.579c-5.96-3.47-13.605-1.452-17.075,4.508l-22.188,38.104l54.991,32.021
	l22.188-38.104C448.137,73.148,446.118,65.503,440.158,62.033z"/>
<path style="fill:#64798A;" d="M257.338,374.635l-22.537,12.703c-4.302,2.425-9.622-0.679-9.629-5.617l-0.037-25.838
	L257.338,374.635z"/>
<rect x="182.265" y="213.811" transform="matrix(-0.5032 0.8642 -0.8642 -0.5032 679.851 56.1589)" style="fill:#FCD462;" width="283.036" height="19.375"/>
<g>
</g>
<g>
</g>
<g>
</g>
<g>
</g>
<g>
</g>
<g>
</g>
<g>
</g>
<g>
</g>
<g>
</g>
<g>
</g>
<g>
</g>
<g>
</g>
<g>
</g>
<g>
</g>
<g>
</g>
</svg>
