<?xml version="1.0" encoding="iso-8859-1"?>
<!-- Generator: Adobe Illustrator 19.0.0, SVG Export Plug-In . SVG Version: 6.00 Build 0)  -->
<svg version="1.1" id="Capa_1" xmlns="http://www.w3.org/2000/svg" xmlns:xlink="http://www.w3.org/1999/xlink" x="0px" y="0px"
	 viewBox="0 0 468.293 468.293" style="enable-background:new 0 0 468.293 468.293;" xml:space="preserve">
<path style="fill:#E1E6E9;" d="M154.53,0L71.805,82.726v366.835c0,10.345,8.386,18.732,18.732,18.732h287.22
	c10.345,0,18.732-8.387,18.732-18.732V18.732C396.488,8.386,388.101,0,377.756,0L154.53,0L154.53,0z"/>
<polygon style="fill:#EBF0F3;" points="154.531,82.726 154.53,0 71.805,82.726 "/>
<path style="fill:#64798A;" d="M142.321,193.543l19.87-64.067h13.495l19.87,64.067l22.42-64.067h16.17l-31.075,89.027h-14.905
	l-18.72-61.01h-1.016l-18.73,61.01h-14.895l-31.085-89.027h16.18L142.321,193.543z"/>
<g>
	<rect x="270.473" y="129.499" style="fill:#3A556A;" width="102.206" height="12.488"/>
	<rect x="270.473" y="167.742" style="fill:#3A556A;" width="102.206" height="12.488"/>
	<rect x="270.473" y="206.018" style="fill:#3A556A;" width="102.206" height="12.488"/>
	<rect x="108.113" y="244.286" style="fill:#3A556A;" width="252.066" height="12.488"/>
	<rect x="108.113" y="282.555" style="fill:#3A556A;" width="183.377" height="12.488"/>
	<rect x="108.113" y="320.824" style="fill:#3A556A;" width="252.066" height="12.488"/>
	<rect x="108.113" y="359.087" style="fill:#3A556A;" width="183.377" height="12.488"/>
	<rect x="108.113" y="397.362" style="fill:#3A556A;" width="252.066" height="12.488"/>
</g>
<g>
</g>
<g>
</g>
<g>
</g>
<g>
</g>
<g>
</g>
<g>
</g>
<g>
</g>
<g>
</g>
<g>
</g>
<g>
</g>
<g>
</g>
<g>
</g>
<g>
</g>
<g>
</g>
<g>
</g>
</svg>
