<?xml version="1.0" encoding="iso-8859-1"?>
<!-- Generator: Adobe Illustrator 19.0.0, SVG Export Plug-In . SVG Version: 6.00 Build 0)  -->
<svg version="1.1" id="Capa_1" xmlns="http://www.w3.org/2000/svg" xmlns:xlink="http://www.w3.org/1999/xlink" x="0px" y="0px"
	 viewBox="0 0 468.293 468.293" style="enable-background:new 0 0 468.293 468.293;" xml:space="preserve">
<path style="fill:#E1E6E9;" d="M335.649,0H130.41c-6.548,0-11.856,5.308-11.856,11.856v391.232c0,6.548,5.308,11.856,11.856,11.856
	h260.821c6.548,0,11.855-5.308,11.855-11.856V67.438L335.649,0z"/>
<polygon style="fill:#EBF0F3;" points="335.65,67.438 403.088,67.438 335.65,0.001 "/>
<polygon style="fill:#D5D6DB;" points="361.593,414.943 361.593,108.932 294.155,41.494 118.555,41.494 118.555,414.943 "/>
<path style="fill:#E1E6E9;" d="M282.3,53.35H77.06c-6.548,0-11.856,5.308-11.856,11.856v391.232c0,6.548,5.308,11.855,11.856,11.855
	h260.821c6.548,0,11.855-5.308,11.855-11.855v-335.65L282.3,53.35z"/>
<polygon style="fill:#EBF0F3;" points="282.3,120.788 349.738,120.788 282.3,53.351 "/>
<g>
	<path style="fill:#D5D6DB;" d="M110.021,212.396h106.282c1.835,0,3.321-2.651,3.321-5.928c0-3.276-1.486-5.928-3.321-5.928H110.021
		c-1.836,0-3.321,2.651-3.321,5.928C106.699,209.744,108.185,212.396,110.021,212.396z"/>
	<path style="fill:#D5D6DB;" d="M110.021,256.433h106.282c1.835,0,3.321-2.651,3.321-5.928c0-3.276-1.486-5.928-3.321-5.928H110.021
		c-1.836,0-3.321,2.651-3.321,5.928C106.699,253.781,108.185,256.433,110.021,256.433z"/>
	<path style="fill:#D5D6DB;" d="M302.315,288.613H112.627c-3.276,0-5.928,2.651-5.928,5.928c0,3.276,2.651,5.928,5.928,5.928
		h189.688c3.276,0,5.928-2.651,5.928-5.928C308.243,291.264,305.592,288.613,302.315,288.613z"/>
	<path style="fill:#D5D6DB;" d="M112.627,168.36h189.688c3.276,0,5.928-2.651,5.928-5.928s-2.651-5.928-5.928-5.928H112.627
		c-3.276,0-5.928,2.651-5.928,5.928S109.351,168.36,112.627,168.36z"/>
	<path style="fill:#D5D6DB;" d="M302.315,332.648H112.627c-3.276,0-5.928,2.651-5.928,5.928c0,3.276,2.651,5.928,5.928,5.928
		h189.688c3.276,0,5.928-2.651,5.928-5.928C308.243,335.299,305.592,332.648,302.315,332.648z"/>
	<path style="fill:#D5D6DB;" d="M216.303,376.685H110.021c-1.836,0-3.321,2.651-3.321,5.928c0,3.276,1.486,5.928,3.321,5.928
		h106.282c1.835,0,3.321-2.651,3.321-5.928C219.624,379.336,218.138,376.685,216.303,376.685z"/>
	<path style="fill:#D5D6DB;" d="M216.303,420.721H110.021c-1.836,0-3.321,2.651-3.321,5.928c0,3.276,1.486,5.928,3.321,5.928
		h106.282c1.835,0,3.321-2.651,3.321-5.928C219.624,423.372,218.138,420.721,216.303,420.721z"/>
</g>
<g>
</g>
<g>
</g>
<g>
</g>
<g>
</g>
<g>
</g>
<g>
</g>
<g>
</g>
<g>
</g>
<g>
</g>
<g>
</g>
<g>
</g>
<g>
</g>
<g>
</g>
<g>
</g>
<g>
</g>
</svg>
