<?xml version="1.0" encoding="iso-8859-1"?>
<!-- Generator: Adobe Illustrator 19.0.0, SVG Export Plug-In . SVG Version: 6.00 Build 0)  -->
<svg version="1.1" id="Capa_1" xmlns="http://www.w3.org/2000/svg" xmlns:xlink="http://www.w3.org/1999/xlink" x="0px" y="0px"
	 viewBox="0 0 468.293 468.293" style="enable-background:new 0 0 468.293 468.293;" xml:space="preserve">
<path style="fill:#DC8744;" d="M439.159,448.121H29.133c-3.448,0-6.244-2.795-6.244-6.244V6.244C22.889,2.795,25.685,0,29.133,0
	h410.026c3.448,0,6.244,2.795,6.244,6.244v435.633C445.403,445.325,442.608,448.121,439.159,448.121z"/>
<g>
	<rect x="51.725" y="303.16" style="fill:#F6C358;" width="364.894" height="112.952"/>
	<rect x="51.675" y="167.574" style="fill:#F6C358;" width="364.894" height="112.952"/>
	<rect x="51.7" y="32.006" style="fill:#F6C358;" width="364.894" height="112.952"/>
</g>
<g>
	<polygon style="fill:#FCD462;" points="51.697,144.98 416.596,32.009 416.596,144.98 	"/>
	<polygon style="fill:#FCD462;" points="51.697,280.546 416.596,167.575 416.596,280.546 	"/>
	<polygon style="fill:#FCD462;" points="51.697,416.112 416.596,303.141 416.596,416.112 	"/>
</g>
<g>
	<path style="fill:#3A556A;" d="M58.363,448.121h45.078v13.928c0,3.448-2.795,6.244-6.244,6.244h-32.59
		c-3.448,0-6.244-2.796-6.244-6.244V448.121z"/>
	<path style="fill:#3A556A;" d="M364.852,448.121h45.078v13.928c0,3.448-2.795,6.244-6.244,6.244h-32.59
		c-3.448,0-6.244-2.796-6.244-6.244V448.121z"/>
</g>
<path style="fill:#2D93BA;" d="M234.146,63.519c-13.794,0-24.976,11.182-24.976,24.976c0,4.468,1.27,8.601,3.325,12.231
	l34.802-33.383C243.469,64.958,238.989,63.519,234.146,63.519z"/>
<path style="fill:#1C75A1;" d="M247.297,67.343l-34.802,33.383c4.29,7.573,12.325,12.745,21.651,12.745
	c13.794,0,24.976-11.182,24.976-24.976C259.122,79.543,254.373,71.753,247.297,67.343z"/>
<path style="fill:#2D93BA;" d="M234.146,199.085c-13.794,0-24.976,11.182-24.976,24.976c0,4.468,1.27,8.601,3.325,12.231
	l34.802-33.383C243.469,200.524,238.989,199.085,234.146,199.085z"/>
<path style="fill:#1C75A1;" d="M247.297,202.909l-34.802,33.383c4.29,7.573,12.325,12.745,21.651,12.745
	c13.794,0,24.976-11.182,24.976-24.976C259.122,215.109,254.373,207.319,247.297,202.909z"/>
<path style="fill:#2D93BA;" d="M235.809,334.651c-13.794,0-24.976,11.182-24.976,24.976c0,4.468,1.27,8.601,3.325,12.231
	l34.802-33.383C245.132,336.09,240.652,334.651,235.809,334.651z"/>
<path style="fill:#1C75A1;" d="M248.96,338.475l-34.802,33.383c4.29,7.573,12.325,12.745,21.651,12.745
	c13.794,0,24.976-11.182,24.976-24.976C260.784,350.675,256.036,342.885,248.96,338.475z"/>
<g>
</g>
<g>
</g>
<g>
</g>
<g>
</g>
<g>
</g>
<g>
</g>
<g>
</g>
<g>
</g>
<g>
</g>
<g>
</g>
<g>
</g>
<g>
</g>
<g>
</g>
<g>
</g>
<g>
</g>
</svg>
