<?xml version="1.0" encoding="iso-8859-1"?>
<!-- Generator: Adobe Illustrator 19.0.0, SVG Export Plug-In . SVG Version: 6.00 Build 0)  -->
<svg version="1.1" id="Capa_1" xmlns="http://www.w3.org/2000/svg" xmlns:xlink="http://www.w3.org/1999/xlink" x="0px" y="0px"
	 viewBox="0 0 468.293 468.293" style="enable-background:new 0 0 468.293 468.293;" xml:space="preserve">
<path style="fill:#FCD462;" d="M436.147,168.621H32.146V56.044c0-10.955,8.881-19.836,19.836-19.836h72.578
	c6.256,0,12.145,2.951,15.89,7.963l17.744,23.747c3.745,5.011,9.634,7.963,15.89,7.963H416.31c10.955,0,19.836,8.881,19.836,19.836
	V168.621z"/>
<path style="fill:#F6C358;" d="M392.492,432.085H75.801c-9.387,0-17.489-6.58-19.414-15.767L0.429,168.072
	c-2.583-12.324,6.822-23.905,19.414-23.905h428.606c12.592,0,21.998,11.581,19.414,23.905l-55.958,248.246
	C409.98,425.505,401.878,432.085,392.492,432.085z"/>
<circle style="fill:#E1E6E9;" cx="234.146" cy="288.125" r="112.39"/>
<path style="fill:#64798A;" d="M281.994,260.294l-38.167-38.174c-5.134-5.134-14.227-5.134-19.361,0l-38.167,38.174
	c-5.348,5.348-5.348,14.019,0,19.361c5.348,5.348,14.013,5.348,19.361,0l14.795-14.795v79.429c0,7.561,6.131,13.692,13.692,13.692
	s13.692-6.131,13.692-13.692V264.86l14.795,14.795c2.674,2.674,6.177,4.011,9.68,4.011s7.006-1.337,9.68-4.011
	C287.342,274.313,287.342,265.642,281.994,260.294z"/>
<g>
</g>
<g>
</g>
<g>
</g>
<g>
</g>
<g>
</g>
<g>
</g>
<g>
</g>
<g>
</g>
<g>
</g>
<g>
</g>
<g>
</g>
<g>
</g>
<g>
</g>
<g>
</g>
<g>
</g>
</svg>
