<?xml version="1.0" encoding="iso-8859-1"?>
<!-- Generator: Adobe Illustrator 19.0.0, SVG Export Plug-In . SVG Version: 6.00 Build 0)  -->
<svg version="1.1" id="Capa_1" xmlns="http://www.w3.org/2000/svg" xmlns:xlink="http://www.w3.org/1999/xlink" x="0px" y="0px"
	 viewBox="0 0 468.293 468.293" style="enable-background:new 0 0 468.293 468.293;" xml:space="preserve">
<rect x="98.085" y="45.868" style="fill:#D5D6DB;" width="272.116" height="412.909"/>
<g>
	<path style="fill:#E1E6E9;" d="M0,458.791h98.088V185.009H18.732C8.386,185.009,0,193.395,0,203.74V458.791z"/>
	<path style="fill:#E1E6E9;" d="M370.204,458.791h98.088V203.74c0-10.345-8.386-18.732-18.732-18.732h-79.357V458.791z"/>
</g>
<g>
	<path style="fill:#64798A;" d="M281.637,458.791h-94.982V347.404c0-6.897,5.591-12.488,12.488-12.488h70.007
		c6.897,0,12.488,5.591,12.488,12.488V458.791z"/>
	<path style="fill:#64798A;" d="M376.746,45.87H91.547c-6.897,0-12.488-5.591-12.488-12.488V21.99
		c0-6.897,5.591-12.488,12.488-12.488h285.199c6.897,0,12.488,5.591,12.488,12.488v11.393
		C389.234,40.279,383.643,45.87,376.746,45.87z"/>
</g>
<g>
	<rect x="129.124" y="85.479" style="fill:#1C75A1;" width="37.463" height="37.463"/>
	<rect x="186.655" y="85.479" style="fill:#1C75A1;" width="37.463" height="37.463"/>
	<rect x="244.174" y="85.479" style="fill:#1C75A1;" width="37.463" height="37.463"/>
	<rect x="301.693" y="85.479" style="fill:#1C75A1;" width="37.463" height="37.463"/>
	<rect x="129.124" y="140.925" style="fill:#1C75A1;" width="37.463" height="37.463"/>
	<rect x="186.655" y="140.925" style="fill:#1C75A1;" width="37.463" height="37.463"/>
	<rect x="244.174" y="140.925" style="fill:#1C75A1;" width="37.463" height="37.463"/>
	<rect x="301.693" y="140.925" style="fill:#1C75A1;" width="37.463" height="37.463"/>
	<rect x="129.124" y="196.333" style="fill:#1C75A1;" width="37.463" height="37.463"/>
	<rect x="186.655" y="196.333" style="fill:#1C75A1;" width="37.463" height="37.463"/>
	<rect x="244.174" y="196.333" style="fill:#1C75A1;" width="37.463" height="37.463"/>
	<rect x="301.693" y="196.333" style="fill:#1C75A1;" width="37.463" height="37.463"/>
	<rect x="129.124" y="251.76" style="fill:#1C75A1;" width="37.463" height="37.463"/>
	<rect x="186.655" y="251.76" style="fill:#1C75A1;" width="37.463" height="37.463"/>
	<rect x="244.174" y="251.76" style="fill:#1C75A1;" width="37.463" height="37.463"/>
	<rect x="301.693" y="251.76" style="fill:#1C75A1;" width="37.463" height="37.463"/>
	<rect x="400.546" y="219.785" style="fill:#1C75A1;" width="37.463" height="37.463"/>
	<rect x="400.546" y="275.375" style="fill:#1C75A1;" width="37.463" height="37.463"/>
	<rect x="400.546" y="330.989" style="fill:#1C75A1;" width="37.463" height="37.463"/>
	<rect x="400.546" y="386.56" style="fill:#1C75A1;" width="37.463" height="37.463"/>
	<rect x="30.314" y="219.785" style="fill:#1C75A1;" width="37.463" height="37.463"/>
	<rect x="30.314" y="275.375" style="fill:#1C75A1;" width="37.463" height="37.463"/>
	<rect x="30.314" y="330.989" style="fill:#1C75A1;" width="37.463" height="37.463"/>
	<rect x="30.314" y="386.56" style="fill:#1C75A1;" width="37.463" height="37.463"/>
</g>
<g>
</g>
<g>
</g>
<g>
</g>
<g>
</g>
<g>
</g>
<g>
</g>
<g>
</g>
<g>
</g>
<g>
</g>
<g>
</g>
<g>
</g>
<g>
</g>
<g>
</g>
<g>
</g>
<g>
</g>
</svg>
