<?xml version="1.0" encoding="iso-8859-1"?>
<!-- Generator: Adobe Illustrator 19.0.0, SVG Export Plug-In . SVG Version: 6.00 Build 0)  -->
<svg version="1.1" id="Capa_1" xmlns="http://www.w3.org/2000/svg" xmlns:xlink="http://www.w3.org/1999/xlink" x="0px" y="0px"
	 viewBox="0 0 468.293 468.293" style="enable-background:new 0 0 468.293 468.293;" xml:space="preserve">
<path style="fill:#27A2DB;" d="M468.293,143.513v262.244c0,6.93-5.558,12.488-12.488,12.488H12.488
	C5.619,418.244,0,412.687,0,405.757V143.513c0-6.869,5.619-12.488,12.488-12.488h443.317
	C462.735,131.025,468.293,136.644,468.293,143.513z"/>
<path style="fill:#64798A;" d="M277.874,168.317h-87.415c-3.448,0-6.244-2.795-6.244-6.244v0c0-3.448,2.795-6.244,6.244-6.244
	h87.415c3.448,0,6.244,2.796,6.244,6.244v0C284.118,165.522,281.322,168.317,277.874,168.317z"/>
<path style="fill:#E1E6E9;" d="M271.63,155.829h-74.927V75.327c0-13.961,11.318-25.279,25.279-25.279h24.369
	c13.961,0,25.279,11.318,25.279,25.279V155.829z"/>
<circle style="fill:#64798A;" cx="234.146" cy="93.59" r="21.854"/>
<g>
	<circle style="fill:#E1E6E9;" cx="234.146" cy="93.59" r="12.238"/>
	<path style="fill:#E1E6E9;" d="M168.246,274.635c0,26.537-7.761,50.575-20.427,68.309c-13.264,18.669-32.033,30.282-52.724,30.282
		c-20.957,0-39.925-11.925-53.255-30.97c-12.336-17.67-19.896-41.459-19.896-67.621c0-54.447,32.762-98.591,73.151-98.591
		C135.483,176.044,168.246,220.188,168.246,274.635z"/>
</g>
<path style="fill:#64798A;" d="M147.819,342.944c-13.264,18.669-32.033,30.282-52.724,30.282c-20.957,0-39.925-11.925-53.255-30.97
	c0.729-0.375,1.193-0.562,1.193-0.562c19.101-4.496,33.89-17.795,33.89-17.795v-18.607c-5.107-3.747-8.755-8.117-11.408-12.55
	c-0.398,0.374-0.862,0.748-1.326,0.811c-2.919,0.563-6.434-4.495-7.959-11.239c-1.459-6.743-0.331-12.675,2.521-13.237h0.265
	c-0.066-3.684,0.265-5.994,0.265-5.994c-3.845-4.059-4.31-22.915-4.31-22.915c5.703-45.893,54.913-30.595,54.913-30.595
	s28.12,2.685,23.875,19.793c0,0,2.852,26.037-3.382,32.78c0,0,0.198,2.748,0.066,6.931c0.331-0.063,0.663-0.063,0.995,0
	c2.851,0.563,3.979,6.494,2.519,13.237c-1.525,6.743-5.04,11.801-7.958,11.239c-0.332-0.063-0.663-0.249-0.994-0.437
	c-2.322,4.933-5.638,9.616-10.346,13.112V323.9c0,0,5.24,11.489,30.043,17.795C144.702,341.695,145.895,342.131,147.819,342.944z"/>
<g>
	<path style="fill:#E1E6E9;" d="M305.972,241.949h-87.415c-3.448,0-6.244-2.795-6.244-6.244v0c0-3.448,2.796-6.244,6.244-6.244
		h87.415c3.448,0,6.244,2.795,6.244,6.244v0C312.215,239.154,309.42,241.949,305.972,241.949z"/>
	<path style="fill:#E1E6E9;" d="M432.545,275.921H218.557c-3.448,0-6.244-2.796-6.244-6.244v0c0-3.448,2.796-6.244,6.244-6.244
		h213.988c3.448,0,6.244,2.795,6.244,6.244v0C438.789,273.125,435.993,275.921,432.545,275.921z"/>
	<path style="fill:#E1E6E9;" d="M432.545,309.892H218.557c-3.448,0-6.244-2.796-6.244-6.244l0,0c0-3.448,2.796-6.244,6.244-6.244
		h213.988c3.448,0,6.244,2.795,6.244,6.244l0,0C438.789,307.097,435.993,309.892,432.545,309.892z"/>
	<path style="fill:#E1E6E9;" d="M432.545,343.864H218.557c-3.448,0-6.244-2.795-6.244-6.244l0,0c0-3.448,2.796-6.244,6.244-6.244
		h213.988c3.448,0,6.244,2.796,6.244,6.244l0,0C438.789,341.069,435.993,343.864,432.545,343.864z"/>
</g>
<path style="fill:#2D93BA;" d="M468.293,396.952v8.805c0,6.93-5.558,12.488-12.488,12.488H12.488C5.619,418.244,0,412.687,0,405.757
	v-8.805H468.293z"/>
<g>
</g>
<g>
</g>
<g>
</g>
<g>
</g>
<g>
</g>
<g>
</g>
<g>
</g>
<g>
</g>
<g>
</g>
<g>
</g>
<g>
</g>
<g>
</g>
<g>
</g>
<g>
</g>
<g>
</g>
</svg>
