<?xml version="1.0" encoding="iso-8859-1"?>
<!-- Generator: Adobe Illustrator 19.0.0, SVG Export Plug-In . SVG Version: 6.00 Build 0)  -->
<svg version="1.1" id="Capa_1" xmlns="http://www.w3.org/2000/svg" xmlns:xlink="http://www.w3.org/1999/xlink" x="0px" y="0px"
	 viewBox="0 0 468.293 468.293" style="enable-background:new 0 0 468.293 468.293;" xml:space="preserve">
<path style="fill:#E1E6E9;" d="M386.319,207.791c-39.396-31.357-62.349-78.962-62.349-129.313V57.772H144.322v20.706
	c0,50.35-22.953,97.955-62.349,129.312c-39.396,31.356-62.348,78.962-62.348,129.312v93.017c0,21.082,17.09,38.173,38.173,38.173
	h352.698c21.083,0,38.173-17.091,38.173-38.173v-93.017C448.669,286.752,425.715,239.147,386.319,207.791z"/>
<path style="fill:#3A556A;" d="M325.813,0H142.479c-8.432,0-15.269,6.836-15.269,15.269v82.772c0,4.216,3.418,7.635,7.635,7.635
	h198.604c4.216,0,7.635-3.418,7.635-7.635V15.269C341.083,6.836,334.246,0,325.813,0z"/>
<g>
	<path style="fill:#D5D6DB;" d="M151.992,11.295c-3.451,0-6.244,2.793-6.244,6.244v62.439c0,3.451,2.793,6.244,6.244,6.244
		s6.244-2.793,6.244-6.244V17.538C158.236,14.087,155.443,11.295,151.992,11.295z"/>
	<path style="fill:#D5D6DB;" d="M179.377,11.295c-3.451,0-6.244,2.793-6.244,6.244v62.439c0,3.451,2.793,6.244,6.244,6.244
		s6.244-2.793,6.244-6.244V17.538C185.621,14.087,182.828,11.295,179.377,11.295z"/>
	<path style="fill:#D5D6DB;" d="M206.762,11.295c-3.451,0-6.244,2.793-6.244,6.244v62.439c0,3.451,2.793,6.244,6.244,6.244
		c3.451,0,6.244-2.793,6.244-6.244V17.538C213.006,14.087,210.213,11.295,206.762,11.295z"/>
	<path style="fill:#D5D6DB;" d="M234.146,11.295c-3.451,0-6.244,2.793-6.244,6.244v62.439c0,3.451,2.793,6.244,6.244,6.244
		s6.244-2.793,6.244-6.244V17.538C240.39,14.087,237.598,11.295,234.146,11.295z"/>
	<path style="fill:#D5D6DB;" d="M261.531,11.295c-3.451,0-6.244,2.793-6.244,6.244v62.439c0,3.451,2.793,6.244,6.244,6.244
		c3.451,0,6.244-2.793,6.244-6.244V17.538C267.775,14.087,264.982,11.295,261.531,11.295z"/>
	<path style="fill:#D5D6DB;" d="M288.916,11.295c-3.451,0-6.244,2.793-6.244,6.244v62.439c0,3.451,2.793,6.244,6.244,6.244
		c3.451,0,6.244-2.793,6.244-6.244V17.538C295.16,14.087,292.367,11.295,288.916,11.295z"/>
	<path style="fill:#D5D6DB;" d="M316.3,11.295c-3.451,0-6.244,2.793-6.244,6.244v62.439c0,3.451,2.793,6.244,6.244,6.244
		c3.451,0,6.244-2.793,6.244-6.244V17.538C322.544,14.087,319.752,11.295,316.3,11.295z"/>
</g>
<path style="fill:#64798A;" d="M369.421,434.66H98.871c-13.794,0-24.976-11.182-24.976-24.976V302.967
	c0-13.794,11.182-24.976,24.976-24.976h270.55c13.794,0,24.976,11.182,24.976,24.976v106.717
	C394.397,423.478,383.215,434.66,369.421,434.66z"/>
<g>
	<path style="fill:#EBF0F3;" d="M127.21,313.368h14.504v85.915H127.21V313.368z"/>
	<path style="fill:#EBF0F3;" d="M229.97,313.368h14.504v85.915H228.74l-48.674-62.688v62.688h-14.504v-85.915h14.504l49.905,64.159
		V313.368z"/>
	<path style="fill:#EBF0F3;" d="M268.321,313.368h14.504v41.912l39.332-41.912h18.435l-34.54,37.611l35.03,48.304h-17.205
		l-28.518-37.611l-12.534,13.524v24.087h-14.504V313.368z"/>
</g>
<g>
</g>
<g>
</g>
<g>
</g>
<g>
</g>
<g>
</g>
<g>
</g>
<g>
</g>
<g>
</g>
<g>
</g>
<g>
</g>
<g>
</g>
<g>
</g>
<g>
</g>
<g>
</g>
<g>
</g>
</svg>
