<?xml version="1.0" encoding="iso-8859-1"?>
<!-- Generator: Adobe Illustrator 19.0.0, SVG Export Plug-In . SVG Version: 6.00 Build 0)  -->
<svg version="1.1" id="Capa_1" xmlns="http://www.w3.org/2000/svg" xmlns:xlink="http://www.w3.org/1999/xlink" x="0px" y="0px"
	 viewBox="0 0 468.293 468.293" style="enable-background:new 0 0 468.293 468.293;" xml:space="preserve">
<rect x="232.155" y="31.47" style="fill:#E1E6E9;" width="141.905" height="255.376"/>
<rect x="99.64" y="137.473" style="fill:#E56353;" width="70.943" height="205.449"/>
<rect x="99.653" y="108.582" style="fill:#27A2DB;" width="70.943" height="28.891"/>
<path style="fill:#FCD462;" d="M170.59,108.578l-70.94,0.001l0-38.066c0-10.345,8.386-18.731,18.731-18.731l33.476-0.001
	c10.346,0,18.733,8.387,18.732,18.732L170.59,108.578z"/>
<polygon style="fill:#D5D6DB;" points="438.311,276.142 438.311,419.068 204.294,436.823 204.294,211.137 "/>
<polygon style="fill:#E1E6E9;" points="204.294,436.823 204.294,211.137 38.55,245.186 38.55,420.214 "/>
<g>
	<polygon style="fill:#2D93BA;" points="204.294,211.137 29.353,225.226 0,279.235 156.155,279.235 	"/>
	<polygon style="fill:#2D93BA;" points="438.271,227.45 204.294,211.137 259.341,293.532 468.293,288.957 	"/>
</g>
<g>
	<polygon style="fill:#D5D6DB;" points="232.154,43.991 232.154,49.313 232.154,54.634 264.748,54.634 264.748,49.313 
		264.748,43.991 	"/>
	<polygon style="fill:#D5D6DB;" points="232.154,73.333 232.154,78.655 232.154,83.976 250.558,83.976 250.558,78.655 
		250.558,73.333 	"/>
	<polygon style="fill:#D5D6DB;" points="232.154,102.675 232.154,107.996 232.154,113.318 264.748,113.318 264.748,107.996 
		264.748,102.675 	"/>
	<polygon style="fill:#D5D6DB;" points="232.154,132.017 232.154,137.338 232.154,142.66 250.558,142.66 250.558,137.338 
		250.558,132.017 	"/>
	<polygon style="fill:#D5D6DB;" points="232.154,161.358 232.154,166.68 232.154,172.001 264.748,172.001 264.748,166.68 
		264.748,161.358 	"/>
	<polygon style="fill:#D5D6DB;" points="232.154,190.7 232.154,196.022 232.154,201.343 250.558,201.343 250.558,196.022 
		250.558,190.7 	"/>
</g>
<g>
</g>
<g>
</g>
<g>
</g>
<g>
</g>
<g>
</g>
<g>
</g>
<g>
</g>
<g>
</g>
<g>
</g>
<g>
</g>
<g>
</g>
<g>
</g>
<g>
</g>
<g>
</g>
<g>
</g>
</svg>
