<?xml version="1.0" encoding="iso-8859-1"?>
<!-- Generator: Adobe Illustrator 19.0.0, SVG Export Plug-In . SVG Version: 6.00 Build 0)  -->
<svg version="1.1" id="Capa_1" xmlns="http://www.w3.org/2000/svg" xmlns:xlink="http://www.w3.org/1999/xlink" x="0px" y="0px"
	 viewBox="0 0 468.293 468.293" style="enable-background:new 0 0 468.293 468.293;" xml:space="preserve">
<path style="fill:#64798A;" d="M418.751,467.076H40.747c-3.448,0-6.244-2.796-6.244-6.244v-38.711h390.492v38.711
	C424.995,464.281,422.2,467.076,418.751,467.076z"/>
<path style="fill:#D5D6DB;" d="M433.79,1.216H251.398h-34.503H34.503H0V35.72V404.87v34.503h34.503h182.392h34.503H433.79h34.503
	V404.87V35.72V1.216H433.79z M34.503,404.87V35.72h182.392V404.87H34.503z M433.79,404.87H251.398V35.72H433.79V404.87z"/>
<g>
	<rect x="34.529" y="35.721" style="fill:#DC8744;" width="182.384" height="369.139"/>
	<rect x="251.398" y="35.721" style="fill:#DC8744;" width="182.384" height="369.139"/>
</g>
<path style="fill:#FCD462;" d="M320.834,213.922c0,6.869-2.81,13.112-7.305,17.67c-4.558,4.495-10.802,7.305-17.67,7.305
	c-11.176,0-20.73-7.493-23.914-17.67c-0.687-2.31-1.061-4.745-1.061-7.305c0-6.868,2.81-13.112,7.305-17.67
	c4.558-4.495,10.802-7.305,17.67-7.305c5.245,0,10.178,1.686,14.236,4.433c1.249,0.874,2.373,1.811,3.434,2.872
	C318.024,200.81,320.834,207.054,320.834,213.922z"/>
<path style="fill:#F6C358;" d="M311.156,200.685c0,6.869-2.81,13.112-7.368,17.67c-4.496,4.495-10.74,7.305-17.608,7.305
	c-5.308,0-10.24-1.686-14.236-4.433c-0.687-2.31-1.061-4.745-1.061-7.305c0-6.868,2.81-13.112,7.305-17.67
	c4.558-4.495,10.802-7.305,17.67-7.305c5.245,0,10.178,1.686,14.236,4.433C310.782,195.69,311.156,198.125,311.156,200.685z"/>
<path style="fill:#FCD462;" d="M197.41,213.922c0,6.869-2.81,13.112-7.305,17.67c-4.558,4.495-10.802,7.305-17.67,7.305
	c-11.176,0-20.73-7.493-23.914-17.67c-0.687-2.31-1.061-4.745-1.061-7.305c0-6.868,2.81-13.112,7.305-17.67
	c4.558-4.495,10.802-7.305,17.67-7.305c5.245,0,10.178,1.686,14.236,4.433c1.249,0.874,2.373,1.811,3.434,2.872
	C194.6,200.81,197.41,207.054,197.41,213.922z"/>
<path style="fill:#F6C358;" d="M187.732,200.685c0,6.869-2.81,13.112-7.368,17.67c-4.496,4.495-10.74,7.305-17.608,7.305
	c-5.308,0-10.24-1.686-14.236-4.433c-0.687-2.31-1.061-4.745-1.061-7.305c0-6.868,2.81-13.112,7.305-17.67
	c4.558-4.495,10.802-7.305,17.67-7.305c5.245,0,10.178,1.686,14.236,4.433C187.357,195.69,187.732,198.125,187.732,200.685z"/>
<g>
</g>
<g>
</g>
<g>
</g>
<g>
</g>
<g>
</g>
<g>
</g>
<g>
</g>
<g>
</g>
<g>
</g>
<g>
</g>
<g>
</g>
<g>
</g>
<g>
</g>
<g>
</g>
<g>
</g>
</svg>
