<?xml version="1.0" encoding="iso-8859-1"?>
<!-- Generator: Adobe Illustrator 19.0.0, SVG Export Plug-In . SVG Version: 6.00 Build 0)  -->
<svg version="1.1" id="Capa_1" xmlns="http://www.w3.org/2000/svg" xmlns:xlink="http://www.w3.org/1999/xlink" x="0px" y="0px"
	 viewBox="0 0 468.293 468.293" style="enable-background:new 0 0 468.293 468.293;" xml:space="preserve">
<path style="fill:#D5D6DB;" d="M85.52,179.367L32.068,272.77l50.22,184.609c2.145,7.884,10.274,12.536,18.158,10.391l352.204-95.812
	c7.883-2.145,12.536-10.274,10.391-18.158l-66.312-243.763c-2.145-7.884-10.274-12.536-18.158-10.391L85.52,179.367z"/>
<path style="fill:#E1E6E9;" d="M58.182,162.487L4.729,255.889l50.22,184.609c2.145,7.884,10.274,12.536,18.158,10.391
	l352.204-95.812c7.883-2.145,12.536-10.274,10.391-18.158L369.39,93.158c-2.145-7.884-10.274-12.536-18.158-10.391L58.182,162.487z"
	/>
<polygon style="fill:#EBF0F3;" points="78.157,235.915 58.182,162.487 4.73,255.89 "/>
<g>
	<path style="fill:#E56353;" d="M295.002,19.829h-79.109c-4.621,0-8.367-3.746-8.367-8.367V8.367c0-4.621,3.746-8.367,8.367-8.367
		h79.109c4.621,0,8.367,3.746,8.367,8.367v3.096C303.369,16.084,299.623,19.829,295.002,19.829z"/>
	<path style="fill:#E56353;" d="M278.678,73.145h-46.462c-3.448,0-6.244-2.795-6.244-6.244V19.829h58.949v47.072
		C284.922,70.35,282.127,73.145,278.678,73.145z"/>
</g>
<path style="fill:#DC8744;" d="M277.637,73.145h-44.379v8.926c0,1.724,1.398,3.122,3.122,3.122h38.135
	c1.724,0,3.122-1.398,3.122-3.122V73.145z"/>
<g>
	<path style="fill:#D5D6DB;" d="M256.6,144.365h-2.305c-3.448,0-6.244-2.795-6.244-6.244V85.193h14.793v52.929
		C262.844,141.57,260.049,144.365,256.6,144.365z"/>
	<path style="fill:#D5D6DB;" d="M348.946,233.533c-0.896-3.329-4.317-5.311-7.659-4.39l-233.896,63.329
		c-3.329,0.896-5.293,4.329-4.39,7.659c0.75,2.78,3.268,4.61,6.018,4.61c0.543,0,1.091-0.067,1.64-0.22l233.896-63.329
		C347.885,240.295,349.848,236.862,348.946,233.533z"/>
	<path style="fill:#D5D6DB;" d="M367.769,175.893c-0.896-3.329-4.317-5.311-7.659-4.39l-233.896,63.329
		c-3.329,0.896-5.293,4.329-4.39,7.659c0.75,2.78,3.268,4.61,6.018,4.61c0.543,0,1.091-0.067,1.64-0.22l233.896-63.329
		C366.708,182.655,368.672,179.222,367.769,175.893z"/>
	<path style="fill:#D5D6DB;" d="M324.321,288.324c-0.896-3.329-4.317-5.311-7.659-4.39L82.766,347.263
		c-3.329,0.896-5.293,4.329-4.39,7.659c0.75,2.78,3.268,4.61,6.018,4.61c0.543,0,1.091-0.067,1.64-0.22l233.896-63.329
		C323.26,295.087,325.224,291.654,324.321,288.324z"/>
</g>
<g>
</g>
<g>
</g>
<g>
</g>
<g>
</g>
<g>
</g>
<g>
</g>
<g>
</g>
<g>
</g>
<g>
</g>
<g>
</g>
<g>
</g>
<g>
</g>
<g>
</g>
<g>
</g>
<g>
</g>
</svg>
