<?xml version="1.0" encoding="iso-8859-1"?>
<!-- Generator: Adobe Illustrator 19.0.0, SVG Export Plug-In . SVG Version: 6.00 Build 0)  -->
<svg version="1.1" id="Capa_1" xmlns="http://www.w3.org/2000/svg" xmlns:xlink="http://www.w3.org/1999/xlink" x="0px" y="0px"
	 viewBox="0 0 468.293 468.293" style="enable-background:new 0 0 468.293 468.293;" xml:space="preserve">
<path style="fill:#2F4859;" d="M170.043,101.042v-22.38c0-5.165,4.201-9.366,9.366-9.366h109.476c5.165,0,9.366,4.201,9.366,9.366
	v22.38h18.732v-22.38c0-15.494-12.604-28.098-28.098-28.098H179.408c-15.494,0-28.098,12.604-28.098,28.098v22.38H170.043z"/>
<path style="fill:#E56353;" d="M443.317,417.728H24.976C11.182,417.728,0,406.546,0,392.752V139.445
	c0-13.794,11.182-24.976,24.976-24.976h418.341c13.794,0,24.976,11.182,24.976,24.976v253.308
	C468.293,406.546,457.111,417.728,443.317,417.728z"/>
<g>
	<path style="fill:#1C75A1;" d="M182.245,114.469h-42.347v-7.183c0-3.448,2.795-6.244,6.244-6.244h29.859
		c3.448,0,6.244,2.795,6.244,6.244V114.469z"/>
	<path style="fill:#1C75A1;" d="M328.395,114.469h-42.347v-7.183c0-3.448,2.796-6.244,6.244-6.244h29.859
		c3.448,0,6.244,2.795,6.244,6.244V114.469z"/>
</g>
<g>
	<rect x="78.798" y="234.958" style="fill:#EBF0F3;" width="37.463" height="182.759"/>
	<rect x="352" y="234.958" style="fill:#EBF0F3;" width="37.463" height="182.759"/>
</g>
<rect y="234.958" style="fill:#E1E6E9;" width="468.293" height="40.735"/>
<path style="fill:#D5D6DB;" d="M234.146,314.704L234.146,314.704c-23.277,0-42.146-18.87-42.146-42.146v-73.366h84.293v73.366
	C276.293,295.834,257.423,314.704,234.146,314.704z"/>
<path style="fill:#64798A;" d="M234.145,295.972c-12.909,0-23.415-10.506-23.415-23.415v-54.634h46.829v54.634
	C257.56,285.466,247.054,295.972,234.145,295.972z"/>
<g>
</g>
<g>
</g>
<g>
</g>
<g>
</g>
<g>
</g>
<g>
</g>
<g>
</g>
<g>
</g>
<g>
</g>
<g>
</g>
<g>
</g>
<g>
</g>
<g>
</g>
<g>
</g>
<g>
</g>
</svg>
