<?xml version="1.0" encoding="iso-8859-1"?>
<!-- Generator: Adobe Illustrator 19.0.0, SVG Export Plug-In . SVG Version: 6.00 Build 0)  -->
<svg version="1.1" id="Capa_1" xmlns="http://www.w3.org/2000/svg" xmlns:xlink="http://www.w3.org/1999/xlink" x="0px" y="0px"
	 viewBox="0 0 468.293 468.293" style="enable-background:new 0 0 468.293 468.293;" xml:space="preserve">
<path style="fill:#E1E6E9;" d="M387.042,247.679v-46.177H78.474H27.078v102.31h0.024v0.006l124.14,0.002
	c4.846,0,8.774-3.928,8.774-8.774v-7.593c0-4.846-3.928-8.774-8.774-8.774l-36.692-0.001c-10.872,0-19.685-8.814-19.685-19.685v0
	c0-6.248,5.065-11.313,11.313-11.313H387.042z"/>
<path style="fill:#D5D6DB;" d="M397.982,273.705h-4.209c-3.718,0-6.731-3.014-6.731-6.731v-65.472h17.671v65.472
	C404.713,270.692,401.699,273.705,397.982,273.705z"/>
<g>
	<path style="fill:#2D93BA;" d="M421.11,119.403H57.934C25.938,119.403,0,145.341,0,177.337v24.165h468.293v-34.916
		c0-7.907-3.141-15.491-8.733-21.082l-17.367-17.367C436.601,122.545,429.018,119.403,421.11,119.403z"/>
	<path style="fill:#2D93BA;" d="M462.049,303.82H5.682c-3.138,0-5.682,2.544-5.682,5.682v10.765
		c0,15.808,12.815,28.622,28.622,28.622h424.181c8.555,0,15.49-6.935,15.49-15.49v-23.336
		C468.293,306.615,465.497,303.82,462.049,303.82z"/>
</g>
<circle style="fill:#3A556A;" cx="64.331" cy="230.025" r="16.39"/>
<g>
</g>
<g>
</g>
<g>
</g>
<g>
</g>
<g>
</g>
<g>
</g>
<g>
</g>
<g>
</g>
<g>
</g>
<g>
</g>
<g>
</g>
<g>
</g>
<g>
</g>
<g>
</g>
<g>
</g>
</svg>
