<?xml version="1.0" encoding="iso-8859-1"?>
<!-- Generator: Adobe Illustrator 19.0.0, SVG Export Plug-In . SVG Version: 6.00 Build 0)  -->
<svg version="1.1" id="Capa_1" xmlns="http://www.w3.org/2000/svg" xmlns:xlink="http://www.w3.org/1999/xlink" x="0px" y="0px"
	 viewBox="0 0 468.293 468.293" style="enable-background:new 0 0 468.293 468.293;" xml:space="preserve">
<path style="fill:#E1E6E9;" d="M453.701,362.578v13.748l-23.082,57.224l-11.439,28.39c-3.414,8.472-15.408,8.472-18.822,0
	l-11.439-28.39l-23.031-57.224v-13.748H453.701z"/>
<polygon style="fill:#2D93BA;" points="453.65,59.972 453.65,376.427 439.04,366.281 429.451,372.927 424.429,376.427 
	409.768,366.281 395.158,376.427 390.085,372.927 380.497,366.281 365.887,376.427 365.887,59.972 "/>
<polygon style="fill:#27A2DB;" points="429.451,59.972 429.451,372.927 424.429,376.427 409.768,366.281 395.158,376.427 
	390.085,372.927 390.085,59.972 "/>
<path style="fill:#DC8744;" d="M441.178,0h-62.802c-6.897,0-12.488,5.591-12.488,12.488v47.508h87.778V12.488
	C453.666,5.591,448.075,0,441.178,0z"/>
<path style="fill:#3A556A;" d="M430.618,433.549l-11.439,28.39c-3.414,8.472-15.408,8.472-18.822,0l-11.439-28.39H430.618z"/>
<rect x="365.893" y="59.942" style="fill:#FCD462;" width="87.789" height="23.458"/>
<path style="fill:#E1E6E9;" d="M82.059,0L14.594,67.465v388.34c0,6.897,5.591,12.488,12.488,12.488h274.732
	c6.897,0,12.488-5.591,12.488-12.488V12.488C314.301,5.591,308.71,0,301.813,0L82.059,0L82.059,0z"/>
<polygon style="fill:#EBF0F3;" points="82.059,67.466 82.057,0 14.592,67.465 "/>
<g>
	<path style="fill:#44C4A1;" d="M87.294,170.983c-1.677,0-3.312-0.601-4.593-1.718L59.57,149.155
		c-2.916-2.533-3.226-6.957-0.688-9.873c2.533-2.911,6.944-3.23,9.873-0.688l17.24,14.99c7.618-10.393,24.289-30.85,47.662-46.682
		c3.194-2.15,7.549-1.335,9.718,1.873c2.164,3.198,1.33,7.549-1.873,9.718c-29.524,19.997-48.117,48.951-48.299,49.243
		c-1.093,1.718-2.884,2.879-4.898,3.171C87.968,170.956,87.626,170.983,87.294,170.983z"/>
	<path style="fill:#44C4A1;" d="M87.294,259.889c-1.677,0-3.312-0.601-4.593-1.718L59.57,238.061
		c-2.916-2.533-3.226-6.957-0.688-9.873c2.533-2.911,6.944-3.23,9.873-0.688l17.24,14.99c7.618-10.393,24.289-30.85,47.662-46.682
		c3.194-2.15,7.549-1.335,9.718,1.873c2.164,3.198,1.33,7.549-1.873,9.718c-29.524,19.997-48.117,48.951-48.299,49.243
		c-1.093,1.718-2.884,2.879-4.898,3.171C87.968,259.862,87.626,259.889,87.294,259.889z"/>
	<path style="fill:#44C4A1;" d="M87.294,348.795c-1.677,0-3.312-0.601-4.593-1.718L59.57,326.967
		c-2.916-2.533-3.226-6.957-0.688-9.873c2.533-2.911,6.944-3.23,9.873-0.688l17.24,14.99c7.618-10.393,24.289-30.85,47.662-46.682
		c3.194-2.151,7.549-1.335,9.718,1.873c2.164,3.198,1.33,7.549-1.873,9.718c-29.524,19.997-48.117,48.951-48.299,49.243
		c-1.093,1.718-2.884,2.879-4.898,3.171C87.968,348.768,87.626,348.795,87.294,348.795z"/>
	<path style="fill:#44C4A1;" d="M87.294,437.701c-1.677,0-3.312-0.601-4.593-1.718L59.57,415.872
		c-2.916-2.533-3.226-6.957-0.688-9.873c2.533-2.911,6.944-3.23,9.873-0.688l17.24,14.99c7.618-10.393,24.289-30.85,47.662-46.682
		c3.194-2.15,7.549-1.335,9.718,1.873c2.164,3.198,1.33,7.549-1.873,9.718c-29.524,19.997-48.117,48.951-48.299,49.243
		c-1.093,1.718-2.884,2.879-4.898,3.171C87.968,437.673,87.626,437.701,87.294,437.701z"/>
</g>
<g>
	<path style="fill:#D5D6DB;" d="M172.024,157.075h93.463c3.451,0,6.244-2.793,6.244-6.244s-2.793-6.244-6.244-6.244h-93.463
		c-3.451,0-6.244,2.793-6.244,6.244S168.572,157.075,172.024,157.075z"/>
	<path style="fill:#D5D6DB;" d="M172.024,132.099h43.512c3.451,0,6.244-2.793,6.244-6.244c0-3.451-2.793-6.244-6.244-6.244h-43.512
		c-3.451,0-6.244,2.793-6.244,6.244C165.78,129.306,168.572,132.099,172.024,132.099z"/>
	<path style="fill:#D5D6DB;" d="M265.487,233.493h-93.463c-3.451,0-6.244,2.793-6.244,6.244c0,3.451,2.793,6.244,6.244,6.244h93.463
		c3.451,0,6.244-2.793,6.244-6.244C271.731,236.286,268.938,233.493,265.487,233.493z"/>
	<path style="fill:#D5D6DB;" d="M215.536,208.517h-43.512c-3.451,0-6.244,2.793-6.244,6.244s2.793,6.244,6.244,6.244h43.512
		c3.451,0,6.244-2.793,6.244-6.244S218.987,208.517,215.536,208.517z"/>
	<path style="fill:#D5D6DB;" d="M265.487,322.399h-93.463c-3.451,0-6.244,2.793-6.244,6.244c0,3.451,2.793,6.244,6.244,6.244h93.463
		c3.451,0,6.244-2.793,6.244-6.244C271.731,325.191,268.938,322.399,265.487,322.399z"/>
	<path style="fill:#D5D6DB;" d="M215.536,297.423h-43.512c-3.451,0-6.244,2.793-6.244,6.244c0,3.451,2.793,6.244,6.244,6.244h43.512
		c3.451,0,6.244-2.793,6.244-6.244C221.78,300.216,218.987,297.423,215.536,297.423z"/>
	<path style="fill:#D5D6DB;" d="M265.487,411.305h-93.463c-3.451,0-6.244,2.793-6.244,6.244c0,3.451,2.793,6.244,6.244,6.244h93.463
		c3.451,0,6.244-2.793,6.244-6.244C271.731,414.097,268.938,411.305,265.487,411.305z"/>
	<path style="fill:#D5D6DB;" d="M215.536,386.329h-43.512c-3.451,0-6.244,2.793-6.244,6.244c0,3.451,2.793,6.244,6.244,6.244h43.512
		c3.451,0,6.244-2.793,6.244-6.244C221.78,389.122,218.987,386.329,215.536,386.329z"/>
</g>
<g>
</g>
<g>
</g>
<g>
</g>
<g>
</g>
<g>
</g>
<g>
</g>
<g>
</g>
<g>
</g>
<g>
</g>
<g>
</g>
<g>
</g>
<g>
</g>
<g>
</g>
<g>
</g>
<g>
</g>
</svg>
