<?xml version="1.0" encoding="iso-8859-1"?>
<!-- Generator: Adobe Illustrator 19.0.0, SVG Export Plug-In . SVG Version: 6.00 Build 0)  -->
<svg version="1.1" id="Capa_1" xmlns="http://www.w3.org/2000/svg" xmlns:xlink="http://www.w3.org/1999/xlink" x="0px" y="0px"
	 viewBox="0 0 468.293 468.293" style="enable-background:new 0 0 468.293 468.293;" xml:space="preserve">
<path style="fill:#64798A;" d="M233.61,175.76c-3.448,0-6.244-2.796-6.244-6.244v-84.21c0-4.994,1.939-9.692,5.463-13.223
	l21.299-21.378c3.546-3.555,8.259-5.512,13.271-5.512h27.442c3.448,0,6.244,2.796,6.244,6.244s-2.796,6.244-6.244,6.244H267.4
	c-1.646,0-3.262,0.671-4.427,1.838l-21.299,21.378c-1.174,1.18-1.82,2.744-1.82,4.409v84.21
	C239.854,172.965,237.058,175.76,233.61,175.76z"/>
<path style="fill:#44C4A1;" d="M462.049,233.164H6.244c-3.448,0-6.244-2.796-6.244-6.244v-14.14c0-3.448,2.795-6.244,6.244-6.244
	h455.805c3.448,0,6.244,2.796,6.244,6.244v14.14C468.293,230.368,465.497,233.164,462.049,233.164z"/>
<g>
	<rect x="30.146" y="233.166" style="fill:#DC8744;" width="137.678" height="62.501"/>
	<rect x="30.146" y="295.661" style="fill:#DC8744;" width="137.678" height="62.501"/>
</g>
<g>
	<path style="fill:#FCD462;" d="M118.143,274.358H79.839c-2.658,0-4.813-2.155-4.813-4.813l0,0c0-2.658,2.155-4.813,4.813-4.813
		h38.304c2.658,0,4.813,2.155,4.813,4.813l0,0C122.956,272.203,120.801,274.358,118.143,274.358z"/>
	<path style="fill:#FCD462;" d="M118.143,336.855H79.839c-2.658,0-4.813-2.155-4.813-4.813v0c0-2.658,2.155-4.813,4.813-4.813
		h38.304c2.658,0,4.813,2.155,4.813,4.813v0C122.956,334.7,120.801,336.855,118.143,336.855z"/>
	<polygon style="fill:#FCD462;" points="167.835,233.164 167.835,290.335 30.147,290.335 30.147,233.164 14.17,233.164 
		14.17,430.211 30.147,430.211 30.147,300.986 167.835,300.986 167.835,430.211 183.812,430.211 183.812,233.164 	"/>
</g>
<g>
	<rect x="300.457" y="233.166" style="fill:#DC8744;" width="137.678" height="62.501"/>
	<rect x="300.457" y="295.661" style="fill:#DC8744;" width="137.678" height="62.501"/>
</g>
<g>
	<path style="fill:#FCD462;" d="M388.454,274.358H350.15c-2.658,0-4.813-2.155-4.813-4.813l0,0c0-2.658,2.155-4.813,4.813-4.813
		h38.304c2.658,0,4.813,2.155,4.813,4.813l0,0C393.267,272.203,391.112,274.358,388.454,274.358z"/>
	<path style="fill:#FCD462;" d="M388.454,336.855H350.15c-2.658,0-4.813-2.155-4.813-4.813v0c0-2.658,2.155-4.813,4.813-4.813
		h38.304c2.658,0,4.813,2.155,4.813,4.813v0C393.267,334.7,391.112,336.855,388.454,336.855z"/>
	<polygon style="fill:#FCD462;" points="438.146,233.164 438.146,290.335 300.458,290.335 300.458,233.164 284.481,233.164 
		284.481,430.211 300.458,430.211 300.458,300.986 438.146,300.986 438.146,430.211 454.122,430.211 454.122,233.164 	"/>
</g>
<path style="fill:#2D93BA;" d="M284.098,206.536h-99.902l23.263-35.548c3.434-7.091,10.62-11.596,18.499-11.596h16.379
	c7.879,0,15.065,4.504,18.499,11.596L284.098,206.536z"/>
<path style="fill:#E56353;" d="M369.947,51.207l-27.693,59.049c-2.006,4.277-7.695,5.182-10.929,1.737l-1.677-1.786l-41.164-44.094
	c-3.729-3.994-4.653-9.856-2.332-14.804l2.595-5.533c2.32-4.948,7.417-7.986,12.873-7.673l60.223,3.455l2.418,0.133
	C368.993,41.952,371.959,46.917,369.947,51.207z"/>
<path style="fill:#D15241;" d="M369.947,51.207l-27.693,59.049c-2.006,4.277-7.695,5.182-10.929,1.737l-1.677-1.786l32.194-68.648
	l2.418,0.133C368.993,41.952,371.959,46.917,369.947,51.207z"/>
<g>
</g>
<g>
</g>
<g>
</g>
<g>
</g>
<g>
</g>
<g>
</g>
<g>
</g>
<g>
</g>
<g>
</g>
<g>
</g>
<g>
</g>
<g>
</g>
<g>
</g>
<g>
</g>
<g>
</g>
</svg>
