<?xml version="1.0" encoding="iso-8859-1"?>
<!-- Generator: Adobe Illustrator 19.0.0, SVG Export Plug-In . SVG Version: 6.00 Build 0)  -->
<svg version="1.1" id="Capa_1" xmlns="http://www.w3.org/2000/svg" xmlns:xlink="http://www.w3.org/1999/xlink" x="0px" y="0px"
	 viewBox="0 0 468.274 468.274" style="enable-background:new 0 0 468.274 468.274;" xml:space="preserve">
<path style="fill:#DC8744;" d="M347.761,259.718H120.513V112.109C120.513,50.193,170.706,0,232.622,0h3.03
	c61.916,0,112.109,50.193,112.109,112.109V259.718z"/>
<path style="fill:#F6C358;" d="M319.882,113.005v146.69H148.386v-146.69c0.063-7.531,1.076-14.808,3.037-21.769
	c1.835-7.024,4.62-13.669,8.164-19.871c4.62-8.227,10.631-15.568,17.592-21.769c15.188-13.479,35.185-21.706,56.955-21.706
	c21.833,0,41.83,8.227,57.018,21.706c6.961,6.265,12.91,13.606,17.529,21.769c3.544,6.202,6.328,12.846,8.227,19.871
	C318.806,98.197,319.818,105.474,319.882,113.005z"/>
<path style="fill:#FCD462;" d="M120.513,259.718h227.249l21.538,31.827c2.373,8.852-4.297,17.546-13.462,17.546H112.436
	c-9.165,0-15.835-8.694-13.462-17.546L120.513,259.718z"/>
<g>
	<rect x="118.025" y="309.073" style="fill:#DC8744;" width="28.247" height="159.201"/>
	<rect x="321.989" y="309.073" style="fill:#DC8744;" width="28.247" height="159.201"/>
	<rect x="146.267" y="396.325" style="fill:#DC8744;" width="175.766" height="18.582"/>
</g>
<g>
	<rect x="148.408" y="216.226" style="fill:#FCD462;" width="171.495" height="21.766"/>
	<rect x="148.408" y="174.579" style="fill:#FCD462;" width="171.495" height="21.766"/>
	<rect x="148.408" y="132.939" style="fill:#FCD462;" width="171.495" height="21.704"/>
	<path style="fill:#FCD462;" d="M319.882,113.005H148.386c0.063-7.531,1.076-14.808,3.037-21.769h165.485
		C318.806,98.197,319.818,105.474,319.882,113.005z"/>
	<path style="fill:#FCD462;" d="M308.681,71.365H159.587c4.62-8.227,10.631-15.568,17.592-21.769h113.972
		C298.113,55.861,304.061,63.201,308.681,71.365z"/>
</g>
<g>
</g>
<g>
</g>
<g>
</g>
<g>
</g>
<g>
</g>
<g>
</g>
<g>
</g>
<g>
</g>
<g>
</g>
<g>
</g>
<g>
</g>
<g>
</g>
<g>
</g>
<g>
</g>
<g>
</g>
</svg>
