<?xml version="1.0" encoding="iso-8859-1"?>
<!-- Generator: Adobe Illustrator 19.0.0, SVG Export Plug-In . SVG Version: 6.00 Build 0)  -->
<svg version="1.1" id="Capa_1" xmlns="http://www.w3.org/2000/svg" xmlns:xlink="http://www.w3.org/1999/xlink" x="0px" y="0px"
	 viewBox="0 0 467.849 467.849" style="enable-background:new 0 0 467.849 467.849;" xml:space="preserve">
<path style="fill:#64798A;" d="M166.516,57.862l0.003,0.003l-26.177,26.177l21.265,21.265l18.111-18.112
	c4.455-4.455,11.677-4.455,16.131,0l91.094,91.095c-4.428,6.685-2.63,16.277,5.401,20.596c4.106,2.208,9.262,2.122,13.316-0.181
	c8.416-4.781,9.626-15.39,3.811-21.963l0.061-0.061L199.882,67.032l0.001-0.001L186.682,53.83
	c-4.454-4.454-11.674-4.455-16.129-0.002L166.516,57.862z"/>
<g>
	<path style="fill:#3A556A;" d="M74.596,35.878L35.879,74.594L3.66,42.374c-4.877-4.877-4.877-12.784,0-17.66L24.716,3.658
		c4.877-4.877,12.784-4.877,17.66,0L74.596,35.878z"/>
	<path style="fill:#3A556A;" d="M463.671,463.673L463.671,463.673c-5.568,5.568-14.596,5.568-20.164,0l-24.897-24.897l20.164-20.164
		l24.897,24.897C469.239,449.077,469.239,458.105,463.671,463.673z"/>
</g>
<polygon style="fill:#DC8744;" points="432.177,370.453 370.452,432.179 79.961,160.618 160.618,79.96 "/>
<g>
	<path style="fill:#F6C358;" d="M432.177,370.453l-61.725,61.726l26.61,24.876c4.493,4.2,11.506,4.082,15.855-0.267l43.869-43.869
		c4.349-4.349,4.467-11.363,0.267-15.855L432.177,370.453z"/>
	<path style="fill:#F6C358;" d="M160.618,79.96l-80.657,80.658L28.154,108.81c-7.315-7.315-7.315-19.175,0-26.491l54.167-54.167
		c7.315-7.315,19.175-7.315,26.49,0L160.618,79.96z"/>
</g>
<g>
</g>
<g>
</g>
<g>
</g>
<g>
</g>
<g>
</g>
<g>
</g>
<g>
</g>
<g>
</g>
<g>
</g>
<g>
</g>
<g>
</g>
<g>
</g>
<g>
</g>
<g>
</g>
<g>
</g>
</svg>
