<?xml version="1.0" encoding="iso-8859-1"?>
<!-- Generator: Adobe Illustrator 19.0.0, SVG Export Plug-In . SVG Version: 6.00 Build 0)  -->
<svg version="1.1" id="Capa_1" xmlns="http://www.w3.org/2000/svg" xmlns:xlink="http://www.w3.org/1999/xlink" x="0px" y="0px"
	 viewBox="0 0 468.261 468.261" style="enable-background:new 0 0 468.261 468.261;" xml:space="preserve">
<path style="fill:#FCD462;" d="M374.283,146.026H11.37V54.922c0-6.085,4.933-11.019,11.019-11.019h73.631l41.044,27.547h226.202
	c6.085,0,11.019,4.933,11.019,11.019V146.026z"/>
<rect x="56.239" y="90.902" style="fill:#EBF0F3;" width="273.183" height="80.996"/>
<path style="fill:#F6C358;" d="M354.433,341.731H31.22c-17.242,0-31.22-13.977-31.22-31.22V130.967
	c0-6.897,5.591-12.488,12.488-12.488h360.677c6.897,0,12.488,5.591,12.488,12.488v179.544
	C385.653,327.753,371.675,341.731,354.433,341.731z"/>
<circle style="fill:#44C4A1;" cx="385.623" cy="341.72" r="82.638"/>
<polygon style="fill:#FFFFFF;" points="437.991,325.203 402.181,325.203 402.181,289.392 369.125,289.392 369.125,325.203 
	333.314,325.203 333.314,358.259 369.125,358.259 369.125,394.069 402.181,394.069 402.181,358.259 437.991,358.259 "/>
<g>
</g>
<g>
</g>
<g>
</g>
<g>
</g>
<g>
</g>
<g>
</g>
<g>
</g>
<g>
</g>
<g>
</g>
<g>
</g>
<g>
</g>
<g>
</g>
<g>
</g>
<g>
</g>
<g>
</g>
</svg>
