<?xml version="1.0" encoding="iso-8859-1"?>
<!-- Generator: Adobe Illustrator 19.0.0, SVG Export Plug-In . SVG Version: 6.00 Build 0)  -->
<svg version="1.1" id="Capa_1" xmlns="http://www.w3.org/2000/svg" xmlns:xlink="http://www.w3.org/1999/xlink" x="0px" y="0px"
	 viewBox="0 0 468.293 468.293" style="enable-background:new 0 0 468.293 468.293;" xml:space="preserve">
<path style="fill:#FCD462;" d="M468.293,132.416H0V63.733c0-10.345,8.386-18.732,18.732-18.732h430.829
	c10.345,0,18.732,8.386,18.732,18.732V132.416z"/>
<circle style="fill:#3A556A;" cx="89.307" cy="83.831" r="18.732"/>
<path style="fill:#1C75A1;" d="M136.168,38.242c-4.151-8.933-11.538-15.712-20.789-19.082c-19.111-6.962-40.33,4.597-47.306,23.706
	c-0.261,0.713-0.364,1.446-0.329,2.16h11.472c5.49-12.286,19.563-20.168,32.388-15.505c6.482,2.361,11.656,7.11,14.568,13.37
	c2.907,6.262,3.202,13.286,0.833,19.779c-4.898,13.405-19.778,20.338-33.18,15.467c-2.86-1.052-6.021,0.434-7.068,3.293
	c-1.041,2.862,0.434,6.027,3.298,7.067c5.161,1.881,10.479,2.532,15.63,2.099c13.903-1.164,26.58-10.198,31.677-24.141
	C140.742,57.195,140.32,47.175,136.168,38.242z"/>
<circle style="fill:#3A556A;" cx="176.284" cy="83.831" r="18.732"/>
<path style="fill:#1C75A1;" d="M223.146,38.242c-4.151-8.933-11.538-15.712-20.789-19.082c-19.111-6.962-40.33,4.597-47.306,23.706
	c-0.261,0.713-0.364,1.446-0.329,2.16h11.472c5.49-12.286,19.563-20.168,32.388-15.505c6.482,2.361,11.656,7.11,14.568,13.37
	c2.907,6.262,3.202,13.286,0.833,19.779c-4.898,13.405-19.778,20.338-33.18,15.467c-2.86-1.052-6.021,0.434-7.068,3.293
	c-1.041,2.862,0.434,6.027,3.298,7.067c5.161,1.881,10.479,2.532,15.63,2.099c13.903-1.164,26.58-10.198,31.677-24.141
	C227.72,57.195,227.298,47.175,223.146,38.242z"/>
<circle style="fill:#3A556A;" cx="263.262" cy="83.831" r="18.732"/>
<path style="fill:#1C75A1;" d="M310.124,38.242c-4.151-8.933-11.538-15.712-20.789-19.082c-19.111-6.962-40.33,4.597-47.306,23.706
	c-0.261,0.713-0.364,1.446-0.329,2.16h11.472c5.49-12.286,19.563-20.168,32.388-15.505c6.482,2.361,11.656,7.11,14.568,13.37
	c2.907,6.262,3.202,13.286,0.833,19.779c-4.898,13.405-19.778,20.338-33.18,15.467c-2.86-1.052-6.021,0.434-7.068,3.293
	c-1.041,2.862,0.434,6.027,3.298,7.067c5.161,1.881,10.479,2.532,15.63,2.099c13.903-1.164,26.58-10.198,31.677-24.141
	C314.698,57.195,314.276,47.175,310.124,38.242z"/>
<circle style="fill:#3A556A;" cx="350.221" cy="83.831" r="18.732"/>
<path style="fill:#1C75A1;" d="M397.102,38.242c-4.151-8.933-11.538-15.712-20.789-19.082c-19.111-6.962-40.33,4.597-47.306,23.706
	c-0.261,0.713-0.364,1.446-0.329,2.16h11.472c5.49-12.286,19.563-20.168,32.388-15.505c6.482,2.361,11.656,7.11,14.568,13.37
	c2.907,6.262,3.202,13.286,0.833,19.779c-4.898,13.405-19.778,20.338-33.18,15.467c-2.86-1.052-6.021,0.434-7.068,3.293
	c-1.041,2.862,0.434,6.027,3.298,7.067c5.161,1.881,10.479,2.532,15.63,2.099c13.903-1.164,26.58-10.198,31.677-24.141
	C401.676,57.195,401.254,47.175,397.102,38.242z"/>
<path style="fill:#E1E6E9;" d="M468.293,132.416H0v300.027c0,10.345,8.386,18.732,18.732,18.732h381.359l68.202-68.201V132.416z"/>
<polygon style="fill:#EBF0F3;" points="400.091,451.175 468.292,382.974 400.091,382.974 "/>
<g>
	<rect x="71.518" y="229.339" style="fill:#44C4A1;" width="49.951" height="49.951"/>
	<rect x="139.764" y="229.339" style="fill:#44C4A1;" width="49.951" height="49.951"/>
	<rect x="209.058" y="229.339" style="fill:#44C4A1;" width="49.951" height="49.951"/>
	<rect x="277.741" y="229.339" style="fill:#44C4A1;" width="49.951" height="49.951"/>
	<rect x="346.849" y="229.339" style="fill:#44C4A1;" width="49.951" height="49.951"/>
</g>
<rect x="71.518" y="166.9" style="fill:#E56353;" width="49.951" height="49.951"/>
<g>
	<rect x="139.764" y="166.9" style="fill:#44C4A1;" width="49.951" height="49.951"/>
	<rect x="209.058" y="166.9" style="fill:#44C4A1;" width="49.951" height="49.951"/>
	<rect x="277.741" y="166.9" style="fill:#44C4A1;" width="49.951" height="49.951"/>
	<rect x="346.849" y="166.9" style="fill:#44C4A1;" width="49.951" height="49.951"/>
	<rect x="71.518" y="298.022" style="fill:#44C4A1;" width="49.951" height="49.951"/>
	<rect x="139.764" y="298.022" style="fill:#44C4A1;" width="49.951" height="49.951"/>
</g>
<rect x="209.058" y="298.022" style="fill:#E56353;" width="49.951" height="49.951"/>
<g>
	<rect x="277.741" y="298.022" style="fill:#44C4A1;" width="49.951" height="49.951"/>
	<rect x="346.849" y="298.022" style="fill:#44C4A1;" width="49.951" height="49.951"/>
</g>
<rect x="71.518" y="366.704" style="fill:#E56353;" width="49.951" height="49.951"/>
<g>
	<rect x="139.764" y="366.704" style="fill:#44C4A1;" width="49.951" height="49.951"/>
	<rect x="209.058" y="366.704" style="fill:#44C4A1;" width="49.951" height="49.951"/>
</g>
<g>
</g>
<g>
</g>
<g>
</g>
<g>
</g>
<g>
</g>
<g>
</g>
<g>
</g>
<g>
</g>
<g>
</g>
<g>
</g>
<g>
</g>
<g>
</g>
<g>
</g>
<g>
</g>
<g>
</g>
</svg>
