<?xml version="1.0" encoding="iso-8859-1"?>
<!-- Generator: Adobe Illustrator 19.0.0, SVG Export Plug-In . SVG Version: 6.00 Build 0)  -->
<svg version="1.1" id="Capa_1" xmlns="http://www.w3.org/2000/svg" xmlns:xlink="http://www.w3.org/1999/xlink" x="0px" y="0px"
	 viewBox="0 0 468.293 468.293" style="enable-background:new 0 0 468.293 468.293;" xml:space="preserve">
<rect x="49.733" y="37.089" style="fill:#64798A;" width="368.827" height="23.415"/>
<polygon style="fill:#D5D6DB;" points="319.922,0 148.346,0 49.733,37.086 418.535,37.086 "/>
<rect x="76.076" y="60.503" style="fill:#E1E6E9;" width="316.116" height="407.789"/>
<g>
	<rect x="104.76" y="98.554" style="fill:#27A2DB;" width="46.829" height="70.2"/>
	<rect x="175.397" y="98.554" style="fill:#27A2DB;" width="46.829" height="70.2"/>
	<rect x="246.035" y="98.554" style="fill:#27A2DB;" width="46.829" height="70.2"/>
	<rect x="316.678" y="98.554" style="fill:#27A2DB;" width="46.829" height="70.2"/>
	<rect x="104.76" y="192.187" style="fill:#27A2DB;" width="46.829" height="70.2"/>
	<rect x="175.397" y="192.187" style="fill:#27A2DB;" width="46.829" height="70.2"/>
	<rect x="246.035" y="192.187" style="fill:#27A2DB;" width="46.829" height="70.2"/>
	<rect x="316.678" y="192.187" style="fill:#27A2DB;" width="46.829" height="70.2"/>
	<rect x="104.76" y="285.783" style="fill:#27A2DB;" width="46.829" height="70.2"/>
	<rect x="175.397" y="285.783" style="fill:#27A2DB;" width="46.829" height="70.2"/>
	<rect x="246.035" y="285.783" style="fill:#27A2DB;" width="46.829" height="70.2"/>
	<rect x="316.678" y="285.783" style="fill:#27A2DB;" width="46.829" height="70.2"/>
	<rect x="316.678" y="380.129" style="fill:#27A2DB;" width="46.829" height="70.2"/>
	<rect x="104.76" y="380.129" style="fill:#27A2DB;" width="46.829" height="70.2"/>
</g>
<rect x="175.397" y="380.129" style="fill:#1C75A1;" width="117.473" height="88.164"/>
<rect x="175.397" y="380.129" style="fill:#2D93BA;" width="117.473" height="18.114"/>
<g>
</g>
<g>
</g>
<g>
</g>
<g>
</g>
<g>
</g>
<g>
</g>
<g>
</g>
<g>
</g>
<g>
</g>
<g>
</g>
<g>
</g>
<g>
</g>
<g>
</g>
<g>
</g>
<g>
</g>
</svg>
