<?xml version="1.0" encoding="iso-8859-1"?>
<!-- Generator: Adobe Illustrator 19.0.0, SVG Export Plug-In . SVG Version: 6.00 Build 0)  -->
<svg version="1.1" id="Capa_1" xmlns="http://www.w3.org/2000/svg" xmlns:xlink="http://www.w3.org/1999/xlink" x="0px" y="0px"
	 viewBox="0 0 468.293 468.293" style="enable-background:new 0 0 468.293 468.293;" xml:space="preserve">
<path style="fill:#64798A;" d="M448.433,324.312H19.86c-10.345,0-18.732-8.387-18.732-18.732V195.193h466.036V305.58
	C467.164,315.926,458.778,324.312,448.433,324.312z"/>
<rect x="29.09" y="195.191" style="fill:#2F4859;" width="410.1" height="37.282"/>
<circle style="fill:#44C4A1;" cx="58.405" cy="278.416" r="21.748"/>
<circle style="fill:#FCD462;" cx="114.326" cy="278.416" r="21.748"/>
<circle style="fill:#E56353;" cx="170.252" cy="278.416" r="21.748"/>
<polygon style="fill:#E1E6E9;" points="111.329,0 66.373,44.956 66.373,232.476 401.919,232.476 401.919,0 "/>
<polygon style="fill:#EBF0F3;" points="111.329,44.956 111.329,0 66.373,44.956 "/>
<rect x="47.516" y="324.308" style="fill:#D5D6DB;" width="24.857" height="143.984"/>
<rect x="97.342" y="324.308" style="fill:#E1E6E9;" width="24.857" height="100.464"/>
<rect x="147.044" y="324.308" style="fill:#D5D6DB;" width="24.857" height="143.984"/>
<rect x="196.87" y="324.308" style="fill:#E1E6E9;" width="24.857" height="100.464"/>
<rect x="246.572" y="324.308" style="fill:#D5D6DB;" width="24.857" height="143.984"/>
<rect x="296.386" y="324.308" style="fill:#E1E6E9;" width="24.857" height="100.464"/>
<rect x="346.093" y="324.308" style="fill:#D5D6DB;" width="24.857" height="143.984"/>
<rect x="395.907" y="324.308" style="fill:#E1E6E9;" width="24.857" height="100.464"/>
<g>
</g>
<g>
</g>
<g>
</g>
<g>
</g>
<g>
</g>
<g>
</g>
<g>
</g>
<g>
</g>
<g>
</g>
<g>
</g>
<g>
</g>
<g>
</g>
<g>
</g>
<g>
</g>
<g>
</g>
</svg>
