<?xml version="1.0" encoding="iso-8859-1"?>
<!-- Generator: Adobe Illustrator 19.0.0, SVG Export Plug-In . SVG Version: 6.00 Build 0)  -->
<svg version="1.1" id="Capa_1" xmlns="http://www.w3.org/2000/svg" xmlns:xlink="http://www.w3.org/1999/xlink" x="0px" y="0px"
	 viewBox="0 0 468.293 468.293" style="enable-background:new 0 0 468.293 468.293;" xml:space="preserve">
<path style="fill:#44C4A1;" d="M450.258,263.42H18.035v-80.153c0-10.345,8.386-18.732,18.732-18.732h394.76
	c10.345,0,18.732,8.386,18.732,18.732V263.42z"/>
<path style="fill:#E1E6E9;" d="M102.871,0L48.274,54.598v239.588H420.02V15.489C420.02,6.935,413.085,0,404.53,0H102.871z"/>
<path style="fill:#3EA69B;" d="M49.014,468.293h370.265c17.109,0,30.979-13.87,30.979-30.979V162.919
	c0-12.832-10.402-23.234-23.234-23.234H265.938c-6.714,0-13.1,2.905-17.513,7.966l-19.871,38.282
	c-4.412,5.061-10.798,7.966-17.513,7.966H18.035v243.416C18.035,454.423,31.905,468.293,49.014,468.293z"/>
<polygon style="fill:#EBF0F3;" points="102.871,54.598 102.872,0 48.273,54.597 "/>
<path style="fill:#44C4A1;" d="M346.537,394.542h-224.78c-10.345,0-18.732-8.386-18.732-18.732v-74.927
	c0-10.345,8.386-18.732,18.732-18.732h224.78c10.345,0,18.732,8.386,18.732,18.732v74.927
	C365.268,386.155,356.882,394.542,346.537,394.542z"/>
<g>
</g>
<g>
</g>
<g>
</g>
<g>
</g>
<g>
</g>
<g>
</g>
<g>
</g>
<g>
</g>
<g>
</g>
<g>
</g>
<g>
</g>
<g>
</g>
<g>
</g>
<g>
</g>
<g>
</g>
</svg>
