<?xml version="1.0" encoding="iso-8859-1"?>
<!-- Generator: Adobe Illustrator 19.0.0, SVG Export Plug-In . SVG Version: 6.00 Build 0)  -->
<svg version="1.1" id="Capa_1" xmlns="http://www.w3.org/2000/svg" xmlns:xlink="http://www.w3.org/1999/xlink" x="0px" y="0px"
	 viewBox="0 0 468.293 468.293" style="enable-background:new 0 0 468.293 468.293;" xml:space="preserve">
<path style="fill:#E56353;" d="M468.293,147.078H0V69.896c0-10.345,8.386-18.732,18.732-18.732h430.829
	c10.345,0,18.732,8.386,18.732,18.732V147.078z"/>
<path style="fill:#E1E6E9;" d="M443.317,455.284H24.976C11.182,455.284,0,444.102,0,430.308v-283.23h468.293v283.23
	C468.293,444.102,457.111,455.284,443.317,455.284z"/>
<circle style="fill:#D15241;" cx="92.416" cy="97.28" r="27.305"/>
<path style="fill:#D5D6DB;" d="M92.419,104.853L92.419,104.853c-10.345,0-18.732-8.386-18.732-18.732V31.741
	c0-10.345,8.386-18.732,18.732-18.732h0c10.345,0,18.732,8.386,18.732,18.732v54.381C111.15,96.467,102.764,104.853,92.419,104.853z
	"/>
<circle style="fill:#D15241;" cx="375.877" cy="97.28" r="27.305"/>
<path style="fill:#D5D6DB;" d="M375.874,104.853L375.874,104.853c-10.345,0-18.732-8.386-18.732-18.732V31.741
	c0-10.345,8.386-18.732,18.732-18.732h0c10.345,0,18.732,8.386,18.732,18.732v54.381
	C394.606,96.467,386.219,104.853,375.874,104.853z"/>
<g>
	<path style="fill:#64798A;" d="M169.525,280.883c5.976-8.163,8.94-16.422,8.94-24.78c0-8.357-3.182-15.475-9.547-21.342
		c-6.365-5.867-14.43-8.806-24.172-8.806c-17.127,0-31.339,8.758-42.684,26.261l-28.375-16.41
		c9.159-13.738,19.265-24.087,30.318-31.047c11.029-6.972,25.265-10.446,42.684-10.446s32.675,5.515,45.818,16.568
		c13.143,11.041,19.702,26.116,19.702,45.223c0,10.75-2.794,21.002-8.357,30.744c-5.563,9.754-15.815,22.289-30.756,37.619
		l-48.952,49.851h94.624v33.732H76.092v-29.857l63.285-63.576C153.491,300.282,163.549,289.046,169.525,280.883z"/>
	<path style="fill:#64798A;" d="M345.363,280.883c5.976-8.163,8.94-16.422,8.94-24.78c0-8.357-3.182-15.475-9.547-21.342
		c-6.365-5.867-14.43-8.806-24.172-8.806c-17.127,0-31.339,8.758-42.684,26.261l-28.375-16.41
		c9.159-13.738,19.265-24.087,30.318-31.047c11.029-6.972,25.265-10.446,42.684-10.446c17.419,0,32.675,5.515,45.818,16.568
		c13.143,11.041,19.702,26.116,19.702,45.223c0,10.75-2.794,21.002-8.357,30.744c-5.563,9.754-15.815,22.289-30.756,37.619
		l-48.952,49.851h94.624v33.732H251.929v-29.857l63.285-63.576C329.329,300.282,339.386,289.046,345.363,280.883z"/>
</g>
<g>
</g>
<g>
</g>
<g>
</g>
<g>
</g>
<g>
</g>
<g>
</g>
<g>
</g>
<g>
</g>
<g>
</g>
<g>
</g>
<g>
</g>
<g>
</g>
<g>
</g>
<g>
</g>
<g>
</g>
</svg>
