<?xml version="1.0" encoding="iso-8859-1"?>
<!-- Generator: Adobe Illustrator 19.0.0, SVG Export Plug-In . SVG Version: 6.00 Build 0)  -->
<svg version="1.1" id="Capa_1" xmlns="http://www.w3.org/2000/svg" xmlns:xlink="http://www.w3.org/1999/xlink" x="0px" y="0px"
	 viewBox="0 0 468.293 468.293" style="enable-background:new 0 0 468.293 468.293;" xml:space="preserve">
<path style="fill:#FCD462;" d="M443.317,441.997H24.976C11.182,441.997,0,430.815,0,417.022V51.271
	c0-13.794,11.182-24.976,24.976-24.976h104.048c17.701,0,34.025,9.548,42.702,24.976l0,0c8.677,15.428,25.002,24.976,42.702,24.976
	h228.889c13.794,0,24.976,11.182,24.976,24.976v315.8C468.293,430.815,457.111,441.997,443.317,441.997z"/>
<rect x="53.073" y="104.51" style="fill:#E1E6E9;" width="362.146" height="206.049"/>
<path style="fill:#F6C358;" d="M24.976,441.997h418.341c13.794,0,24.976-11.182,24.976-24.976V198.167
	c0-13.794-11.182-24.976-24.976-24.976H262.782c-9.023,0-17.345,4.867-21.769,12.732l-13.773,24.487
	c-4.423,7.865-12.745,12.732-21.769,12.732H24.976C11.182,223.142,0,234.324,0,248.118v168.904
	C0,430.815,11.182,441.997,24.976,441.997z"/>
<g>
	<path style="fill:#D5D6DB;" d="M91.084,132.606h286.125c2.585,0,4.683-2.098,4.683-4.683c0-2.585-2.098-4.683-4.683-4.683H91.084
		c-2.585,0-4.683,2.098-4.683,4.683C86.401,130.508,88.499,132.606,91.084,132.606z"/>
	<path style="fill:#D5D6DB;" d="M377.209,148.216H91.084c-2.585,0-4.683,2.098-4.683,4.683c0,2.585,2.098,4.683,4.683,4.683h286.125
		c2.585,0,4.683-2.098,4.683-4.683C381.892,150.313,379.794,148.216,377.209,148.216z"/>
	<path style="fill:#D5D6DB;" d="M189.892,173.191H91.084c-2.585,0-4.683,2.098-4.683,4.683c0,2.585,2.098,4.683,4.683,4.683h98.808
		c2.585,0,4.683-2.098,4.683-4.683C194.575,175.289,192.477,173.191,189.892,173.191z"/>
</g>
<g>
</g>
<g>
</g>
<g>
</g>
<g>
</g>
<g>
</g>
<g>
</g>
<g>
</g>
<g>
</g>
<g>
</g>
<g>
</g>
<g>
</g>
<g>
</g>
<g>
</g>
<g>
</g>
<g>
</g>
</svg>
