<?xml version="1.0" encoding="iso-8859-1"?>
<!-- Generator: Adobe Illustrator 19.0.0, SVG Export Plug-In . SVG Version: 6.00 Build 0)  -->
<svg version="1.1" id="Capa_1" xmlns="http://www.w3.org/2000/svg" xmlns:xlink="http://www.w3.org/1999/xlink" x="0px" y="0px"
	 viewBox="0 0 468.318 468.318" style="enable-background:new 0 0 468.318 468.318;" xml:space="preserve">
<rect x="155.336" style="fill:#E1E6E9;" width="157.659" height="468.293"/>
<rect x="69.276" y="177.327" style="fill:#D5D6DB;" width="86.06" height="290.991"/>
<rect x="0.012" y="229.588" style="fill:#E1E6E9;" width="69.245" height="238.704"/>
<rect x="312.982" y="177.302" style="fill:#D5D6DB;" width="86.06" height="290.991"/>
<rect x="399.06" y="229.588" style="fill:#E1E6E9;" width="69.245" height="238.704"/>
<g>
	<rect x="177.964" y="26.761" style="fill:#64798A;" width="24.976" height="24.976"/>
	<rect x="221.671" y="26.761" style="fill:#64798A;" width="24.976" height="24.976"/>
	<rect x="265.378" y="26.761" style="fill:#64798A;" width="24.976" height="24.976"/>
	<rect x="343.552" y="223.594" style="fill:#64798A;" width="24.976" height="24.976"/>
	<rect x="343.552" y="265.928" style="fill:#64798A;" width="24.976" height="24.976"/>
	<rect x="343.552" y="309.635" style="fill:#64798A;" width="24.976" height="24.976"/>
	<rect x="343.552" y="353.342" style="fill:#64798A;" width="24.976" height="24.976"/>
	<rect x="343.552" y="397.05" style="fill:#64798A;" width="24.976" height="24.976"/>
	<rect x="421.189" y="249.706" style="fill:#64798A;" width="24.976" height="24.976"/>
	<rect x="421.189" y="292.09" style="fill:#64798A;" width="24.976" height="24.976"/>
	<rect x="421.189" y="335.797" style="fill:#64798A;" width="24.976" height="24.976"/>
	<rect x="421.189" y="379.504" style="fill:#64798A;" width="24.976" height="24.976"/>
	<rect x="421.189" y="423.212" style="fill:#64798A;" width="24.976" height="24.976"/>
	<rect x="22.178" y="249.706" style="fill:#64798A;" width="24.976" height="24.976"/>
	<rect x="22.178" y="292.09" style="fill:#64798A;" width="24.976" height="24.976"/>
	<rect x="22.178" y="335.797" style="fill:#64798A;" width="24.976" height="24.976"/>
	<rect x="22.178" y="379.504" style="fill:#64798A;" width="24.976" height="24.976"/>
	<rect x="22.178" y="423.212" style="fill:#64798A;" width="24.976" height="24.976"/>
	<rect x="99.815" y="223.594" style="fill:#64798A;" width="24.976" height="24.976"/>
	<rect x="99.815" y="265.928" style="fill:#64798A;" width="24.976" height="24.976"/>
	<rect x="99.815" y="309.635" style="fill:#64798A;" width="24.976" height="24.976"/>
	<rect x="99.815" y="353.342" style="fill:#64798A;" width="24.976" height="24.976"/>
	<rect x="99.815" y="397.05" style="fill:#64798A;" width="24.976" height="24.976"/>
	<rect x="177.964" y="70.469" style="fill:#64798A;" width="24.976" height="24.976"/>
	<rect x="221.671" y="70.469" style="fill:#64798A;" width="24.976" height="24.976"/>
	<rect x="265.378" y="70.469" style="fill:#64798A;" width="24.976" height="24.976"/>
	<rect x="177.964" y="114.176" style="fill:#64798A;" width="24.976" height="24.976"/>
	<rect x="221.671" y="114.176" style="fill:#64798A;" width="24.976" height="24.976"/>
	<rect x="265.378" y="114.176" style="fill:#64798A;" width="24.976" height="24.976"/>
	<rect x="177.964" y="157.883" style="fill:#64798A;" width="24.976" height="24.976"/>
	<rect x="221.671" y="157.883" style="fill:#64798A;" width="24.976" height="24.976"/>
	<rect x="265.378" y="157.883" style="fill:#64798A;" width="24.976" height="24.976"/>
	<rect x="177.964" y="201.591" style="fill:#64798A;" width="24.976" height="24.976"/>
	<rect x="221.671" y="201.591" style="fill:#64798A;" width="24.976" height="24.976"/>
	<rect x="265.378" y="201.591" style="fill:#64798A;" width="24.976" height="24.976"/>
	<rect x="177.964" y="245.298" style="fill:#64798A;" width="24.976" height="24.976"/>
	<rect x="221.671" y="245.298" style="fill:#64798A;" width="24.976" height="24.976"/>
	<rect x="265.378" y="245.298" style="fill:#64798A;" width="24.976" height="24.976"/>
	<rect x="177.964" y="289.005" style="fill:#64798A;" width="24.976" height="24.976"/>
	<rect x="221.671" y="289.005" style="fill:#64798A;" width="24.976" height="24.976"/>
	<rect x="265.378" y="289.005" style="fill:#64798A;" width="24.976" height="24.976"/>
	<path style="fill:#64798A;" d="M271.622,468.293h-74.927v-99.087c0-6.897,5.591-12.488,12.488-12.488h49.951
		c6.897,0,12.488,5.591,12.488,12.488V468.293z"/>
</g>
<g>
</g>
<g>
</g>
<g>
</g>
<g>
</g>
<g>
</g>
<g>
</g>
<g>
</g>
<g>
</g>
<g>
</g>
<g>
</g>
<g>
</g>
<g>
</g>
<g>
</g>
<g>
</g>
<g>
</g>
</svg>
