<?xml version="1.0" encoding="iso-8859-1"?>
<!-- Generator: Adobe Illustrator 19.0.0, SVG Export Plug-In . SVG Version: 6.00 Build 0)  -->
<svg version="1.1" id="Capa_1" xmlns="http://www.w3.org/2000/svg" xmlns:xlink="http://www.w3.org/1999/xlink" x="0px" y="0px"
	 viewBox="0 0 468.293 468.293" style="enable-background:new 0 0 468.293 468.293;" xml:space="preserve">
<path style="fill:#2D93BA;" d="M371.949,468.293H96.344c-10.345,0-18.732-8.386-18.732-18.732V60.114
	c0-10.345,8.386-18.732,18.732-18.732h275.605c10.345,0,18.732,8.386,18.732,18.732v389.447
	C390.68,459.906,382.294,468.293,371.949,468.293z"/>
<rect x="100.352" y="64.15" style="fill:#EBF0F3;" width="267.532" height="381.378"/>
<path style="fill:#1C75A1;" d="M300.499,64.531L288.504,33.92c-1.709-4.362-5.916-7.231-10.6-7.231h-17.069
	c0-14.74-11.948-26.69-26.689-26.69s-26.69,11.949-26.69,26.69h-17.073c-4.684,0-8.89,2.869-10.6,7.231l-11.994,30.611
	c-2.927,7.467,2.579,15.538,10.599,15.538h111.511C297.919,80.069,303.425,71.998,300.499,64.531z M234.144,38.324
	c-7.859,0-14.23-6.371-14.23-14.23s6.371-14.23,14.23-14.23c7.859,0,14.23,6.371,14.23,14.23S242.003,38.324,234.144,38.324z"/>
<path style="fill:#44C4A1;" d="M329.117,130.655c-2.027-2.407-5.618-2.714-8.023-0.693l-37.743,31.74l-11.488-11.486
	c-2.223-2.223-5.825-2.223-8.049,0c-2.223,2.222-2.223,5.827,0,8.049l15.179,15.179c1.104,1.106,2.564,1.668,4.024,1.668
	c1.301,0,2.601-0.441,3.665-1.336l41.742-35.101C330.829,136.651,331.14,133.06,329.117,130.655z"/>
<path style="fill:#DC8744;" d="M329.117,204.765c-2.027-2.407-5.618-2.714-8.023-0.693l-37.743,31.74l-11.488-11.486
	c-2.223-2.223-5.825-2.223-8.049,0c-2.223,2.222-2.223,5.827,0,8.049l15.179,15.179c1.104,1.106,2.564,1.668,4.024,1.668
	c1.301,0,2.601-0.441,3.665-1.336l41.742-35.101C330.829,210.761,331.14,207.17,329.117,204.765z"/>
<path style="fill:#E56353;" d="M304.348,300.089l13.052-13.052c2.223-2.224,2.223-5.826,0-8.049s-5.826-2.223-8.049,0
	l-13.052,13.052l-13.052-13.052c-2.224-2.223-5.826-2.223-8.049,0c-2.224,2.223-2.224,5.826,0,8.049l13.052,13.052l-13.052,13.052
	c-2.224,2.224-2.224,5.826,0,8.049c1.112,1.112,2.568,1.668,4.025,1.668s2.913-0.556,4.025-1.668l13.052-13.052l13.052,13.052
	c1.112,1.112,2.568,1.668,4.025,1.668s2.913-0.556,4.025-1.668c2.223-2.224,2.223-5.826,0-8.049L304.348,300.089z"/>
<path style="fill:#27A2DB;" d="M304.348,374.199l13.052-13.052c2.223-2.224,2.223-5.826,0-8.049s-5.826-2.224-8.049,0
	l-13.052,13.052l-13.052-13.052c-2.224-2.224-5.826-2.224-8.049,0c-2.224,2.224-2.224,5.826,0,8.049l13.052,13.052l-13.052,13.052
	c-2.224,2.224-2.224,5.826,0,8.049c1.112,1.112,2.568,1.668,4.025,1.668s2.913-0.556,4.025-1.668l13.052-13.052l13.052,13.052
	c1.112,1.112,2.568,1.668,4.025,1.668s2.913-0.556,4.025-1.668c2.223-2.224,2.223-5.826,0-8.049L304.348,374.199z"/>
<path style="fill:#44C4A1;" d="M223.218,166.021h-79.69c-3.146,0-5.692-2.549-5.692-5.692c0-3.143,2.546-5.692,5.692-5.692h79.69
	c3.146,0,5.692,2.549,5.692,5.692C228.91,163.472,226.364,166.021,223.218,166.021z"/>
<path style="fill:#DC8744;" d="M223.218,231.671h-79.69c-3.146,0-5.692-2.549-5.692-5.692c0-3.143,2.546-5.692,5.692-5.692h79.69
	c3.146,0,5.692,2.549,5.692,5.692C228.91,229.123,226.364,231.671,223.218,231.671z"/>
<g>
	<path style="fill:#E56353;" d="M223.218,305.781h-79.69c-3.146,0-5.692-2.549-5.692-5.692c0-3.143,2.546-5.692,5.692-5.692h79.69
		c3.146,0,5.692,2.549,5.692,5.692C228.91,303.232,226.364,305.781,223.218,305.781z"/>
	<path style="fill:#E56353;" d="M223.218,379.891h-79.69c-3.146,0-5.692-2.549-5.692-5.692s2.546-5.692,5.692-5.692h79.69
		c3.146,0,5.692,2.549,5.692,5.692S226.364,379.891,223.218,379.891z"/>
</g>
<g>
</g>
<g>
</g>
<g>
</g>
<g>
</g>
<g>
</g>
<g>
</g>
<g>
</g>
<g>
</g>
<g>
</g>
<g>
</g>
<g>
</g>
<g>
</g>
<g>
</g>
<g>
</g>
<g>
</g>
</svg>
