<?xml version="1.0" encoding="iso-8859-1"?>
<!-- Generator: Adobe Illustrator 19.0.0, SVG Export Plug-In . SVG Version: 6.00 Build 0)  -->
<svg version="1.1" id="Capa_1" xmlns="http://www.w3.org/2000/svg" xmlns:xlink="http://www.w3.org/1999/xlink" x="0px" y="0px"
	 viewBox="0 0 468.293 468.293" style="enable-background:new 0 0 468.293 468.293;" xml:space="preserve">
<rect x="376.18" y="333.98" transform="matrix(-0.7071 0.7071 -0.7071 -0.7071 911.6993 329.9412)" style="fill:#D5D6DB;" width="22.672" height="39.624"/>
<path style="fill:#E56353;" d="M362.132,347.798H12.19c-6.732,0-12.19-5.458-12.19-12.19V45.918c0-6.732,5.458-12.19,12.19-12.19
	h73.862c3.684,0,7.17,1.666,9.484,4.532l22.212,27.507c2.314,2.866,5.8,4.532,9.484,4.532h234.9c6.732,0,12.19,5.458,12.19,12.19
	v253.119C374.322,342.34,368.864,347.798,362.132,347.798z"/>
<path style="fill:#D15241;" d="M361.834,347.798H12.488C5.591,347.798,0,342.207,0,335.31V142.995h374.322V335.31
	C374.322,342.207,368.731,347.798,361.834,347.798z"/>
<rect y="133.851" style="fill:#E1E6E9;" width="374.322" height="18.282"/>
<ellipse style="fill:#64798A;" cx="315.751" cy="282.004" rx="91.26" ry="91.26"/>
<ellipse style="fill:#E1E6E9;" cx="315.75" cy="282.007" rx="74.453" ry="74.453"/>
<path style="fill:#EBF0F3;" d="M368.397,229.388c29.075,29.075,29.075,76.215,0,105.29c-29.075,29.075-76.214,29.075-105.289,0"/>
<path style="fill:#2D93BA;" d="M386.8,370.127c-2.896,2.896-3.034,7.546-0.317,10.61l43.97,49.922
	c4.436,5,12.167,5.232,16.895,0.505l8.772-8.772l-60.793-60.793L386.8,370.127z"/>
<path style="fill:#1C75A1;" d="M414.464,352.756c-3.063-2.718-7.713-2.58-10.61,0.317l-8.527,8.527l60.793,60.793l8.772-8.772
	c4.726-4.726,4.495-12.458-0.505-16.895L414.464,352.756z"/>
<g>
</g>
<g>
</g>
<g>
</g>
<g>
</g>
<g>
</g>
<g>
</g>
<g>
</g>
<g>
</g>
<g>
</g>
<g>
</g>
<g>
</g>
<g>
</g>
<g>
</g>
<g>
</g>
<g>
</g>
</svg>
