<?xml version="1.0" encoding="iso-8859-1"?>
<!-- Generator: Adobe Illustrator 19.0.0, SVG Export Plug-In . SVG Version: 6.00 Build 0)  -->
<svg version="1.1" id="Capa_1" xmlns="http://www.w3.org/2000/svg" xmlns:xlink="http://www.w3.org/1999/xlink" x="0px" y="0px"
	 viewBox="0 0 468.293 468.293" style="enable-background:new 0 0 468.293 468.293;" xml:space="preserve">
<path style="fill:#27A2DB;" d="M121.756,468.293H18.732C8.386,468.293,0,459.906,0,449.561V18.732C0,8.386,8.386,0,18.732,0h103.024
	c10.345,0,18.732,8.386,18.732,18.732v430.829C140.488,459.906,132.101,468.293,121.756,468.293z"/>
<path style="fill:#EBF0F3;" d="M110.829,255.564H29.659c-3.448,0-6.244-2.796-6.244-6.244V68.787c0-3.448,2.795-6.244,6.244-6.244
	h81.171c3.448,0,6.244,2.795,6.244,6.244V249.32C117.073,252.768,114.278,255.564,110.829,255.564z"/>
<rect x="41.603" y="84.855" style="fill:#E56353;" width="57.282" height="38.6"/>
<g>
	<rect x="41.603" y="192.312" style="fill:#64798A;" width="57.282" height="11.707"/>
	<rect x="41.603" y="163.028" style="fill:#64798A;" width="57.282" height="11.707"/>
	<rect x="41.603" y="221.565" style="fill:#64798A;" width="57.282" height="11.707"/>
</g>
<circle style="fill:#D5D6DB;" cx="70.244" cy="358.918" r="46.829"/>
<circle style="fill:#64798A;" cx="70.244" cy="358.918" r="35.122"/>
<path style="fill:#E1E6E9;" d="M98.166,337.678c0.855,3.036,1.346,6.226,1.346,9.536c0,19.397-15.725,35.122-35.122,35.122
	c-11.403,0-21.507-5.458-27.923-13.879c4.159,14.757,17.689,25.586,33.776,25.586c19.397,0,35.122-15.725,35.122-35.122
	C105.365,350.927,102.664,343.58,98.166,337.678z"/>
<path style="fill:#FCD462;" d="M285.659,468.293H182.634c-10.345,0-18.732-8.386-18.732-18.732V18.732
	C163.902,8.386,172.289,0,182.634,0h103.024c10.345,0,18.732,8.386,18.732,18.732v430.829
	C304.39,459.906,296.004,468.293,285.659,468.293z"/>
<path style="fill:#EBF0F3;" d="M274.732,255.564h-81.171c-3.448,0-6.244-2.796-6.244-6.244V68.787c0-3.448,2.796-6.244,6.244-6.244
	h81.171c3.448,0,6.244,2.795,6.244,6.244V249.32C280.976,252.768,278.18,255.564,274.732,255.564z"/>
<rect x="205.506" y="84.855" style="fill:#E56353;" width="57.282" height="38.6"/>
<g>
	<rect x="205.506" y="192.312" style="fill:#64798A;" width="57.282" height="11.707"/>
	<rect x="205.506" y="163.028" style="fill:#64798A;" width="57.282" height="11.707"/>
	<rect x="205.506" y="221.565" style="fill:#64798A;" width="57.282" height="11.707"/>
</g>
<circle style="fill:#D5D6DB;" cx="234.146" cy="358.918" r="46.829"/>
<circle style="fill:#64798A;" cx="234.146" cy="358.918" r="35.122"/>
<path style="fill:#E1E6E9;" d="M262.069,337.678c0.855,3.036,1.346,6.226,1.346,9.536c0,19.397-15.725,35.122-35.122,35.122
	c-11.403,0-21.507-5.458-27.923-13.879c4.159,14.757,17.689,25.586,33.776,25.586c19.397,0,35.122-15.725,35.122-35.122
	C269.268,350.927,266.567,343.58,262.069,337.678z"/>
<path style="fill:#44C4A1;" d="M449.561,468.293H346.537c-10.345,0-18.732-8.386-18.732-18.732V18.732
	C327.805,8.386,336.191,0,346.537,0h103.024c10.345,0,18.732,8.386,18.732,18.732v430.829
	C468.293,459.906,459.906,468.293,449.561,468.293z"/>
<path style="fill:#EBF0F3;" d="M438.634,255.564h-81.171c-3.448,0-6.244-2.796-6.244-6.244V68.787c0-3.448,2.795-6.244,6.244-6.244
	h81.171c3.448,0,6.244,2.795,6.244,6.244V249.32C444.878,252.768,442.083,255.564,438.634,255.564z"/>
<rect x="369.389" y="84.855" style="fill:#E56353;" width="57.282" height="38.6"/>
<g>
	<rect x="369.389" y="192.312" style="fill:#64798A;" width="57.282" height="11.707"/>
	<rect x="369.389" y="163.028" style="fill:#64798A;" width="57.282" height="11.707"/>
	<rect x="369.389" y="221.565" style="fill:#64798A;" width="57.282" height="11.707"/>
</g>
<circle style="fill:#D5D6DB;" cx="398.049" cy="358.918" r="46.829"/>
<circle style="fill:#64798A;" cx="398.049" cy="358.918" r="35.122"/>
<path style="fill:#E1E6E9;" d="M425.971,337.678c0.855,3.036,1.346,6.226,1.346,9.536c0,19.397-15.725,35.122-35.122,35.122
	c-11.403,0-21.507-5.458-27.923-13.879c4.159,14.757,17.689,25.586,33.776,25.586c19.397,0,35.122-15.725,35.122-35.122
	C433.17,350.927,430.469,343.58,425.971,337.678z"/>
<g>
</g>
<g>
</g>
<g>
</g>
<g>
</g>
<g>
</g>
<g>
</g>
<g>
</g>
<g>
</g>
<g>
</g>
<g>
</g>
<g>
</g>
<g>
</g>
<g>
</g>
<g>
</g>
<g>
</g>
</svg>
