<?xml version="1.0" encoding="iso-8859-1"?>
<!-- Generator: Adobe Illustrator 19.0.0, SVG Export Plug-In . SVG Version: 6.00 Build 0)  -->
<svg version="1.1" id="Capa_1" xmlns="http://www.w3.org/2000/svg" xmlns:xlink="http://www.w3.org/1999/xlink" x="0px" y="0px"
	 viewBox="0 0 468.293 468.293" style="enable-background:new 0 0 468.293 468.293;" xml:space="preserve">
<path style="fill:#EBF0F3;" d="M154.689,0L80.024,74.664v352.134c0,9.821,7.962,17.783,17.783,17.783h296.388
	c9.821,0,17.783-7.962,17.783-17.783V17.783C411.979,7.962,404.018,0,394.196,0H154.689z"/>
<path style="fill:#E1E6E9;" d="M130.978,23.711L56.313,98.375v352.134c0,9.821,7.962,17.783,17.783,17.783h296.388
	c9.821,0,17.783-7.962,17.783-17.783V41.494c0-9.821-7.962-17.783-17.783-17.783H130.978z"/>
<polygon style="fill:#D5D6DB;" points="130.977,98.375 130.977,23.711 56.313,98.375 "/>
<path style="fill:#FCD462;" d="M171.682,185.173h-34.934c-3.448,0-6.244-2.796-6.244-6.244v-34.934c0-3.448,2.795-6.244,6.244-6.244
	h34.934c3.448,0,6.244,2.795,6.244,6.244v34.934C177.926,182.377,175.13,185.173,171.682,185.173z"/>
<path style="fill:#44C4A1;" d="M171.682,266.421h-34.934c-3.448,0-6.244-2.796-6.244-6.244v-34.934c0-3.448,2.795-6.244,6.244-6.244
	h34.934c3.448,0,6.244,2.795,6.244,6.244v34.934C177.926,263.625,175.13,266.421,171.682,266.421z"/>
<path style="fill:#E56353;" d="M171.682,347.669h-34.934c-3.448,0-6.244-2.795-6.244-6.244v-34.934c0-3.448,2.795-6.244,6.244-6.244
	h34.934c3.448,0,6.244,2.796,6.244,6.244v34.934C177.926,344.874,175.13,347.669,171.682,347.669z"/>
<path style="fill:#27A2DB;" d="M171.682,428.917h-34.934c-3.448,0-6.244-2.796-6.244-6.244v-34.934c0-3.448,2.795-6.244,6.244-6.244
	h34.934c3.448,0,6.244,2.796,6.244,6.244v34.934C177.926,426.122,175.13,428.917,171.682,428.917z"/>
<g>
	<path style="fill:#D5D6DB;" d="M349.867,155.534H207.601c-3.276,0-5.928,2.654-5.928,5.928s2.651,5.928,5.928,5.928h142.266
		c3.276,0,5.928-2.654,5.928-5.928S353.144,155.534,349.867,155.534z"/>
	<path style="fill:#D5D6DB;" d="M349.867,86.52H207.601c-3.276,0-5.928,2.654-5.928,5.928c0,3.274,2.651,5.928,5.928,5.928h142.266
		c3.276,0,5.928-2.654,5.928-5.928C355.795,89.174,353.144,86.52,349.867,86.52z"/>
	<path style="fill:#D5D6DB;" d="M349.867,236.782H207.601c-3.276,0-5.928,2.654-5.928,5.928c0,3.274,2.651,5.928,5.928,5.928
		h142.266c3.276,0,5.928-2.654,5.928-5.928C355.795,239.436,353.144,236.782,349.867,236.782z"/>
	<path style="fill:#D5D6DB;" d="M349.867,318.03H207.601c-3.276,0-5.928,2.654-5.928,5.928c0,3.274,2.651,5.928,5.928,5.928h142.266
		c3.276,0,5.928-2.654,5.928-5.928C355.795,320.684,353.144,318.03,349.867,318.03z"/>
	<path style="fill:#D5D6DB;" d="M349.867,399.278H207.601c-3.276,0-5.928,2.654-5.928,5.928s2.651,5.928,5.928,5.928h142.266
		c3.276,0,5.928-2.654,5.928-5.928S353.144,399.278,349.867,399.278z"/>
</g>
<path style="fill:#F6C358;" d="M136.432,185.173h35.567c3.274,0,5.928-2.654,5.928-5.928v-3.022h-47.422v3.022
	C130.504,182.519,133.158,185.173,136.432,185.173z"/>
<path style="fill:#3EA69B;" d="M136.432,266.421h35.567c3.274,0,5.928-2.654,5.928-5.928v-3.022h-47.422v3.022
	C130.504,263.767,133.158,266.421,136.432,266.421z"/>
<path style="fill:#D15241;" d="M136.432,347.669h35.567c3.274,0,5.928-2.654,5.928-5.928v-3.023h-47.422v3.023
	C130.504,345.015,133.158,347.669,136.432,347.669z"/>
<path style="fill:#2D93BA;" d="M136.432,428.917h35.567c3.274,0,5.928-2.654,5.928-5.928v-3.022h-47.422v3.022
	C130.504,426.263,133.158,428.917,136.432,428.917z"/>
<g>
</g>
<g>
</g>
<g>
</g>
<g>
</g>
<g>
</g>
<g>
</g>
<g>
</g>
<g>
</g>
<g>
</g>
<g>
</g>
<g>
</g>
<g>
</g>
<g>
</g>
<g>
</g>
<g>
</g>
</svg>
