<?xml version="1.0" encoding="iso-8859-1"?>
<!-- Generator: Adobe Illustrator 19.0.0, SVG Export Plug-In . SVG Version: 6.00 Build 0)  -->
<svg version="1.1" id="Capa_1" xmlns="http://www.w3.org/2000/svg" xmlns:xlink="http://www.w3.org/1999/xlink" x="0px" y="0px"
	 viewBox="0 0 468.303 468.303" style="enable-background:new 0 0 468.303 468.303;" xml:space="preserve">
<path style="fill:#FCD462;" d="M468.293,168.123H0V49.604c0-10.345,8.386-18.732,18.732-18.732h74.536
	c6.184,0,11.969,3.052,15.46,8.155l23.014,33.641c3.491,5.104,9.277,8.155,15.46,8.155h302.359c10.345,0,18.732,8.386,18.732,18.732
	L468.293,168.123L468.293,168.123z"/>
<path style="fill:#F6C358;" d="M468.301,157.204v255.251c0,13.799-11.177,24.976-24.976,24.976H24.984
	c-13.8,0-24.976-11.177-24.976-24.976V157.204H468.301z"/>
<path style="fill:#E1E6E9;" d="M377.756,378.863H90.537c-6.897,0-12.488-5.591-12.488-12.488v-112.39
	c0-6.897,5.591-12.488,12.488-12.488h287.22c6.897,0,12.488,5.591,12.488,12.488v112.39
	C390.244,373.272,384.653,378.863,377.756,378.863z"/>
<g>
	<path style="fill:#D5D6DB;" d="M334.049,303.936H134.244c-3.451,0-6.244,2.796-6.244,6.244c0,3.448,2.793,6.244,6.244,6.244
		h199.805c3.451,0,6.244-2.796,6.244-6.244C340.293,306.732,337.5,303.936,334.049,303.936z"/>
	<path style="fill:#D5D6DB;" d="M296.585,335.156H171.707c-3.451,0-6.244,2.796-6.244,6.244s2.793,6.244,6.244,6.244h124.878
		c3.451,0,6.244-2.796,6.244-6.244S300.037,335.156,296.585,335.156z"/>
	<path style="fill:#D5D6DB;" d="M296.585,272.717H171.707c-3.451,0-6.244,2.796-6.244,6.244c0,3.448,2.793,6.244,6.244,6.244
		h124.878c3.451,0,6.244-2.796,6.244-6.244C302.829,275.512,300.037,272.717,296.585,272.717z"/>
</g>
<rect x="0.01" y="157.202" style="fill:#DC8744;" width="468.293" height="25.725"/>
<g>
</g>
<g>
</g>
<g>
</g>
<g>
</g>
<g>
</g>
<g>
</g>
<g>
</g>
<g>
</g>
<g>
</g>
<g>
</g>
<g>
</g>
<g>
</g>
<g>
</g>
<g>
</g>
<g>
</g>
</svg>
