<?xml version="1.0" encoding="iso-8859-1"?>
<!-- Generator: Adobe Illustrator 19.0.0, SVG Export Plug-In . SVG Version: 6.00 Build 0)  -->
<svg version="1.1" id="Capa_1" xmlns="http://www.w3.org/2000/svg" xmlns:xlink="http://www.w3.org/1999/xlink" x="0px" y="0px"
	 viewBox="0 0 468.293 468.293" style="enable-background:new 0 0 468.293 468.293;" xml:space="preserve">
<g>
	<rect x="146.732" style="fill:#E1E6E9;" width="96.169" height="157.471"/>
	<path style="fill:#E1E6E9;" d="M336.443,280.762V49.543l-19.176-29.639L304.386,0l-12.881,19.904l-19.176,29.639v231.219
		c0,8.043,6.528,14.571,14.571,14.571h34.971C329.915,295.333,336.443,288.805,336.443,280.762z"/>
</g>
<path style="fill:#FCD462;" d="M272.329,49.543l10.686,10.686L293.7,49.543l10.686,10.686l10.686-10.686l10.686,10.686
	l10.686-10.686v231.219c0,8.043-6.528,14.571-14.571,14.571H286.9c-8.043,0-14.571-6.528-14.571-14.571V49.543z"/>
<polygon style="fill:#3A556A;" points="317.267,19.904 304.386,0 291.505,19.904 "/>
<g>
	<rect x="146.732" y="25.625" style="fill:#64798A;" width="23.964" height="8.017"/>
	<rect x="146.732" y="45.655" style="fill:#64798A;" width="13.281" height="8.017"/>
	<rect x="146.732" y="65.686" style="fill:#64798A;" width="23.964" height="8.017"/>
	<rect x="146.732" y="85.71" style="fill:#64798A;" width="13.281" height="8.017"/>
	<rect x="146.732" y="105.74" style="fill:#64798A;" width="23.964" height="8.017"/>
	<rect x="146.732" y="125.771" style="fill:#64798A;" width="13.281" height="8.017"/>
</g>
<path style="fill:#44C4A1;" d="M360.511,154.24c6.517,0,11.516,5.784,10.573,12.232l-3.821,26.13L332.001,433.19l-3.153,21.371
	c-1.122,7.854-7.907,13.731-15.868,13.731H155.259c-7.961,0-14.693-5.877-15.868-13.731l-3.153-21.371l-35.209-240.589l-3.821-26.13
	c-0.943-6.448,4.056-12.232,10.573-12.232H360.511z"/>
<g>
	<path style="fill:#3EA69B;" d="M332.001,433.19l-3.153,21.371c-1.122,7.854-7.907,13.731-15.868,13.731H155.259
		c-7.961,0-14.693-5.877-15.868-13.731l-3.153-21.371H332.001z"/>
	<path style="fill:#3EA69B;" d="M371.085,166.472l-3.821,26.13H101.029l-3.821-26.13c-0.943-6.448,4.056-12.232,10.573-12.232
		h252.73C367.028,154.24,372.028,160.023,371.085,166.472z"/>
</g>
<path style="fill:#F6C358;" d="M270.681,311.266c21.134,0,38.266-17.132,38.266-38.265c0-21.133-17.132-38.265-38.266-38.265
	c-17.159,0-31.68,11.296-36.534,26.856c-0.007-0.022-0.019-0.041-0.026-0.063v99.474c0.007-0.022,0.018-0.041,0.026-0.063
	c4.854,15.561,19.374,26.857,36.534,26.857c21.134,0,38.266-17.132,38.266-38.265v0
	C308.947,328.398,291.814,311.266,270.681,311.266z"/>
<path style="fill:#FCD462;" d="M197.612,234.735c-21.133,0-38.265,17.132-38.265,38.265c0,21.134,17.132,38.265,38.265,38.265
	c-21.133,0-38.265,17.132-38.265,38.265v0c0,21.133,17.132,38.265,38.265,38.265c17.136,0,31.634-11.266,36.509-26.794v-99.474
	C229.246,246.001,214.748,234.735,197.612,234.735z"/>
<g>
</g>
<g>
</g>
<g>
</g>
<g>
</g>
<g>
</g>
<g>
</g>
<g>
</g>
<g>
</g>
<g>
</g>
<g>
</g>
<g>
</g>
<g>
</g>
<g>
</g>
<g>
</g>
<g>
</g>
</svg>
