<?xml version="1.0" encoding="iso-8859-1"?>
<!-- Generator: Adobe Illustrator 19.0.0, SVG Export Plug-In . SVG Version: 6.00 Build 0)  -->
<svg version="1.1" id="Capa_1" xmlns="http://www.w3.org/2000/svg" xmlns:xlink="http://www.w3.org/1999/xlink" x="0px" y="0px"
	 viewBox="0 0 512 512" style="enable-background:new 0 0 512 512;" xml:space="preserve">
<path style="fill:#E6E6E6;" d="M361.931,476.69V512H8.827V35.31h114.759h123.586h114.759v211.862V476.69z"/>
<path style="fill:#8C6239;" d="M247.172,35.31v26.483c0,4.873-3.955,8.828-8.828,8.828H132.413c-4.873,0-8.828-3.955-8.828-8.828
	V8.828c0-4.873,3.955-8.828,8.828-8.828h105.931c4.873,0,8.828,3.955,8.828,8.828V35.31z"/>
<path style="fill:#06AAE9;" d="M334.415,260.687c-55.967,29.74-77.233,99.213-47.501,155.189
	c29.731,55.976,99.213,77.233,155.189,47.501c21.116-11.22,38.206-28.76,48.87-50.167l-102.559-51.279L334.415,260.687z"/>
<path style="fill:#39B54A;" d="M497.973,327.698c-18.909-60.495-83.279-94.208-143.766-75.299
	c-6.841,2.136-13.462,4.908-19.791,8.289l53.998,101.244L497.973,327.698z"/>
<path style="fill:#ED1C24;" d="M497.973,327.698l-109.559,34.233l102.559,51.279C504.311,386.692,506.818,356.034,497.973,327.698
	L497.973,327.698z"/>
<path style="fill:#F8CF26;" d="M126.746,151.534c-4.97-6.471-12.659-10.275-20.815-10.293v-35.31
	c19.068,0,37.058,8.819,48.728,23.887L126.746,151.534z"/>
<path style="fill:#ED1C24;" d="M126.746,151.534c3.655,4.608,5.65,10.311,5.667,16.19h35.31c0-13.736-4.599-27.083-13.065-37.906
	L126.746,151.534z"/>
<path style="fill:#39B54A;" d="M84.427,152.364c4.943-6.965,12.959-11.114,21.504-11.123v-35.31
	c-19.95,0-38.674,9.649-50.238,25.909L84.427,152.364z"/>
<path style="fill:#06AAE9;" d="M84.427,152.364c-8.536,11.873-5.826,28.425,6.047,36.961s28.425,5.826,36.961-6.047
	c3.257-4.529,4.996-9.975,4.979-15.554h35.31c0.053,34.127-27.569,61.837-61.696,61.89c-34.127,0.053-61.837-27.569-61.89-61.696
	c-0.018-12.941,4.025-25.556,11.555-36.078L84.427,152.364z"/>
<g>
	<path style="fill:#29485A;" d="M211.862,105.931H326.62v17.655H211.862V105.931z"/>
	<path style="fill:#29485A;" d="M211.862,141.241H326.62v17.655H211.862V141.241z"/>
	<path style="fill:#29485A;" d="M211.862,176.552H326.62v17.655H211.862V176.552z"/>
	<path style="fill:#29485A;" d="M211.862,211.862h61.793v17.655h-61.793V211.862z"/>
</g>
<path style="fill:#ED1C24;" d="M44.138,432.552H70.62v44.138H44.138V432.552z"/>
<g>
	<path style="fill:#0071BC;" d="M97.103,397.241h26.483v79.448H97.103V397.241z"/>
	<path style="fill:#0071BC;" d="M150.069,353.103h26.483V476.69h-26.483V353.103z"/>
	<path style="fill:#0071BC;" d="M203.034,308.966h26.483V476.69h-26.483V308.966z"/>
</g>
<g>
	<path style="fill:#29485A;" d="M35.31,256h70.621v17.655H35.31V256z"/>
	<path style="fill:#29485A;" d="M35.31,282.483h70.621v17.655H35.31V282.483z"/>
	<path style="fill:#29485A;" d="M35.31,308.966h35.31v17.655H35.31V308.966z"/>
</g>
<g>
</g>
<g>
</g>
<g>
</g>
<g>
</g>
<g>
</g>
<g>
</g>
<g>
</g>
<g>
</g>
<g>
</g>
<g>
</g>
<g>
</g>
<g>
</g>
<g>
</g>
<g>
</g>
<g>
</g>
</svg>
