<?xml version="1.0" encoding="iso-8859-1"?>
<!-- Generator: Adobe Illustrator 19.0.0, SVG Export Plug-In . SVG Version: 6.00 Build 0)  -->
<svg version="1.1" id="Capa_1" xmlns="http://www.w3.org/2000/svg" xmlns:xlink="http://www.w3.org/1999/xlink" x="0px" y="0px"
	 viewBox="0 0 409.6 409.6" style="enable-background:new 0 0 409.6 409.6;" xml:space="preserve">
<circle style="fill:#45B39C;" cx="204.8" cy="204.8" r="204.8"/>
<path style="opacity:0.1;enable-background:new    ;" d="M406.29,241.312L296.009,131.031l-0.005,0.004
	c-21.509-26.567-54.372-43.562-91.224-43.562c-64.768,0-117.333,52.522-117.333,117.333c0,30.135,11.375,57.604,30.047,78.381
	l-0.004,0.005l0.06,0.059c2.772,3.08,5.704,6.013,8.784,8.784L240.696,406.4C324.811,391.52,391.159,325.339,406.29,241.312z"/>
<circle style="fill:#E56353;" cx="204.8" cy="204.8" r="117.33"/>
<circle style="fill:#D5D6DB;" cx="204.8" cy="204.8" r="91.99"/>
<path style="fill:#E56353;" d="M220.294,236.95h-33.589v-16.57c0-6.039,0.773-10.571,2.32-13.591s4.823-7.106,9.835-12.264
	l15.026-15.469c2.209-2.651,3.313-6.076,3.313-10.274s-1.182-7.697-3.536-10.497c-2.357-2.797-5.451-4.198-9.281-4.198
	c-3.833,0-7.035,1.658-9.612,4.972c-2.577,3.313-4.164,7.7-4.749,13.148h-35.135c1.618-14.729,6.995-26.297,16.131-34.693
	c9.133-8.396,20.586-12.595,34.362-12.595c13.77,0,24.969,3.756,33.585,11.267c8.619,7.515,12.929,17.9,12.929,31.157
	c0,5.894-0.739,10.277-2.212,13.148c-1.473,2.874-2.506,4.938-3.094,6.187c-0.588,1.253-1.952,3.131-4.087,5.637
	c-2.138,2.506-3.573,4.124-4.31,4.86c-3.533,3.536-6.887,6.849-10.055,9.943c-3.168,3.094-5.269,5.634-6.296,7.623
	c-1.033,1.989-1.547,4.972-1.547,8.95v13.259H220.294z M190.13,279.046c-3.756-3.756-5.634-8.359-5.634-13.81
	c0-5.448,1.878-10.055,5.634-13.81c3.759-3.756,8.359-5.634,13.81-5.634c5.448,0,10.055,1.878,13.81,5.634
	c3.759,3.756,5.637,8.362,5.637,13.81c0,5.451-1.878,10.055-5.637,13.81c-3.756,3.756-8.362,5.634-13.81,5.634
	C198.49,284.68,193.889,282.802,190.13,279.046z"/>
<g>
</g>
<g>
</g>
<g>
</g>
<g>
</g>
<g>
</g>
<g>
</g>
<g>
</g>
<g>
</g>
<g>
</g>
<g>
</g>
<g>
</g>
<g>
</g>
<g>
</g>
<g>
</g>
<g>
</g>
</svg>
