<?xml version="1.0" encoding="iso-8859-1"?>
<!-- Generator: Adobe Illustrator 19.0.0, SVG Export Plug-In . SVG Version: 6.00 Build 0)  -->
<svg version="1.1" id="Capa_1" xmlns="http://www.w3.org/2000/svg" xmlns:xlink="http://www.w3.org/1999/xlink" x="0px" y="0px"
	 viewBox="0 0 512 512" style="enable-background:new 0 0 512 512;" xml:space="preserve">
<path style="fill:#E0E0D1;" d="M498.268,404.433H13.732C6.148,404.433,0,398.285,0,390.701V63.641
	c0-7.584,6.148-13.732,13.732-13.732h484.536c7.584,0,13.732,6.148,13.732,13.732V390.7
	C512,398.285,505.852,404.433,498.268,404.433z"/>
<path style="fill:#CECEC0;" d="M498.268,49.909h-32.264v321.203c0,7.584-6.148,13.732-13.732,13.732H0v5.857
	c0,7.584,6.148,13.732,13.732,13.732h484.536c7.584,0,13.732-6.148,13.732-13.732V63.641C512,56.057,505.852,49.909,498.268,49.909z
	"/>
<path style="fill:#FFFFFF;" d="M473.088,328.867c0.006,0,0.012,0,0.019,0c1.003,0.001,1.823-0.796,1.823-1.799V127.274
	c0-1.003-0.82-1.8-1.823-1.799c-0.006,0-0.012,0-0.019,0c-19.85,0-36.045-15.644-36.929-35.276c-0.043-0.95-0.842-1.691-1.793-1.691
	H75.793c-0.951,0-1.75,0.741-1.793,1.691c-0.859,19.071-16.167,34.379-35.238,35.238c-0.95,0.043-1.691,0.842-1.691,1.793v199.881
	c0,0.951,0.741,1.75,1.691,1.793c19.071,0.859,34.379,16.167,35.238,35.238c0.043,0.95,0.842,1.691,1.793,1.691h358.573
	c0.951,0,1.75-0.741,1.793-1.691C437.043,344.511,453.239,328.867,473.088,328.867z"/>
<path style="fill:#F2F2F2;" d="M473.107,125.475c-0.006,0-0.012,0-0.019,0c-19.849,0-36.045-15.644-36.929-35.276
	c-0.043-0.95-0.842-1.691-1.793-1.691h-46.394c0.951,0,1.75,0.741,1.793,1.691c0.884,19.631,17.079,35.276,36.929,35.276
	c0.006,0,0.013,0,0.019,0c1.003-0.001,1.823,0.796,1.823,1.799v199.793c0,1.003-0.82,1.8-1.823,1.799c-0.006,0-0.012,0-0.019,0
	c-19.849,0-36.045,15.644-36.929,35.276c-0.043,0.95-0.842,1.691-1.793,1.691h46.394c0.951,0,1.75-0.741,1.793-1.691
	c0.884-19.631,17.079-35.276,36.929-35.276c0.006,0,0.013,0,0.019,0c1.003,0,1.823-0.796,1.823-1.799V127.274
	C474.929,126.271,474.11,125.475,473.107,125.475z"/>
<path style="fill:#61AFF6;" d="M376.481,461.394l-14.128-23.191c-0.307-0.504-0.889-0.772-1.471-0.678l-25.557,4.109
	c-1.156,0.186-2.046-1.003-1.542-2.06l38.163-79.969l45.286,21.612l-38.2,80.047C378.535,462.305,377.081,462.379,376.481,461.394z"
	/>
<path style="fill:#49A0E8;" d="M437.008,461.394l14.128-23.191c0.307-0.504,0.888-0.772,1.471-0.678l25.557,4.109
	c1.156,0.186,2.046-1.003,1.542-2.06l-38.163-79.969l-45.286,21.612l38.2,80.047C434.953,462.305,436.408,462.379,437.008,461.394z"
	/>
<path style="fill:#FF4C4C;" d="M418.222,266.775L418.222,266.775c3.875,2.755,8.611,4.024,13.344,3.576l0,0
	c8.394-0.794,16.371,3.811,19.88,11.478l0,0c1.979,4.323,5.446,7.79,9.769,9.769l0,0c7.667,3.509,12.272,11.486,11.478,19.88l0,0
	c-0.448,4.733,0.821,9.469,3.576,13.344l0,0c4.885,6.872,4.885,16.083,0,22.956l0,0c-2.754,3.875-4.024,8.611-3.576,13.344l0,0
	c0.794,8.394-3.811,16.371-11.478,19.88l0,0c-4.323,1.979-7.79,5.446-9.769,9.769l0,0c-3.509,7.667-11.486,12.272-19.88,11.478l0,0
	c-4.733-0.448-9.469,0.821-13.344,3.576l0,0c-6.872,4.885-16.083,4.885-22.956,0l0,0c-3.875-2.755-8.611-4.024-13.344-3.576l0,0
	c-8.394,0.794-16.371-3.811-19.88-11.478l0,0c-1.979-4.323-5.446-7.79-9.769-9.769l0,0c-7.667-3.509-12.272-11.486-11.478-19.88l0,0
	c0.448-4.733-0.821-9.469-3.576-13.344l0,0c-4.885-6.872-4.885-16.083,0-22.956l0,0c2.754-3.875,4.024-8.611,3.576-13.344l0,0
	c-0.794-8.394,3.811-16.371,11.478-19.88l0,0c4.323-1.979,7.79-5.446,9.769-9.769l0,0c3.509-7.667,11.486-12.272,19.88-11.478l0,0
	c4.733,0.448,9.469-0.821,13.344-3.576l0,0C402.139,261.89,411.35,261.89,418.222,266.775z"/>
<g>
	<path style="fill:#EA2828;" d="M381.187,402.289c0.245-0.014,0.489-0.017,0.735-0.04l0,0c0.542-0.051,1.084-0.074,1.625-0.081
		C382.756,402.159,381.969,402.205,381.187,402.289z"/>
	<path style="fill:#EA2828;" d="M383.547,270.432c-0.541-0.007-1.083-0.029-1.625-0.081l0,0c-0.246-0.023-0.49-0.026-0.735-0.04
		C381.969,270.395,382.756,270.441,383.547,270.432z"/>
	<path style="fill:#EA2828;" d="M476.269,324.822c-2.755-3.875-4.024-8.611-3.576-13.344c0.794-8.394-3.811-16.371-11.478-19.88
		c-4.323-1.979-7.79-5.446-9.769-9.769l0,0c-3.509-7.667-11.486-12.272-19.88-11.478c-4.733,0.448-9.47-0.821-13.344-3.576
		c-6.872-4.885-16.083-4.885-22.956,0l0,0c-2.782,1.977-6.01,3.174-9.359,3.535c8.121-0.466,15.739,4.076,19.145,11.518l0,0
		c1.978,4.323,5.446,7.79,9.769,9.769c7.667,3.509,12.272,11.486,11.478,19.88c-0.448,4.733,0.821,9.469,3.576,13.344
		c4.885,6.872,4.885,16.083,0,22.956c-2.755,3.875-4.024,8.611-3.576,13.345c0.794,8.394-3.811,16.371-11.478,19.88
		c-4.323,1.979-7.79,5.446-9.769,9.769l0,0c-3.406,7.442-11.024,11.984-19.145,11.518c3.349,0.361,6.578,1.558,9.359,3.535l0,0
		c6.872,4.885,16.083,4.885,22.956,0l0,0c3.875-2.755,8.611-4.024,13.344-3.576c8.394,0.794,16.371-3.811,19.88-11.478l0,0
		c1.978-4.323,5.446-7.79,9.769-9.769c7.667-3.509,12.272-11.486,11.478-19.88c-0.448-4.733,0.821-9.47,3.576-13.345
		C481.154,340.905,481.154,331.694,476.269,324.822z"/>
</g>
<circle style="fill:#FFB125;" cx="406.18" cy="336.3" r="40.31"/>
<path style="fill:#FF901D;" d="M406.18,295.99c-9.545,0-18.309,3.325-25.214,8.87c9.2,7.388,15.095,18.723,15.095,31.44
	c0,12.718-5.895,24.052-15.095,31.44c6.905,5.545,15.669,8.87,25.214,8.87c22.263,0,40.31-18.048,40.31-40.31
	C446.49,314.037,428.442,295.99,406.18,295.99z"/>
<g>
	<path style="fill:#61AFF6;" d="M406.18,175.478H105.82c-4.271,0-7.732,3.462-7.732,7.732s3.461,7.732,7.732,7.732h300.36
		c4.271,0,7.732-3.462,7.732-7.732S410.451,175.478,406.18,175.478z"/>
	<path style="fill:#61AFF6;" d="M406.18,133.551H105.82c-4.271,0-7.732,3.462-7.732,7.732c0,4.27,3.461,7.732,7.732,7.732h300.36
		c4.271,0,7.732-3.462,7.732-7.732C413.913,137.013,410.451,133.551,406.18,133.551z"/>
	<path style="fill:#61AFF6;" d="M406.18,217.748H105.82c-4.271,0-7.732,3.462-7.732,7.732c0,4.27,3.461,7.732,7.732,7.732h300.36
		c4.271,0,7.732-3.462,7.732-7.732C413.913,221.21,410.451,217.748,406.18,217.748z"/>
	<path style="fill:#61AFF6;" d="M307.709,272.39H204.291c-4.271,0-7.732,3.462-7.732,7.732s3.461,7.732,7.732,7.732H307.71
		c4.271,0,7.732-3.462,7.732-7.732S311.98,272.39,307.709,272.39z"/>
</g>
<g>
</g>
<g>
</g>
<g>
</g>
<g>
</g>
<g>
</g>
<g>
</g>
<g>
</g>
<g>
</g>
<g>
</g>
<g>
</g>
<g>
</g>
<g>
</g>
<g>
</g>
<g>
</g>
<g>
</g>
</svg>
