<?xml version="1.0" encoding="iso-8859-1"?>
<!-- Generator: Adobe Illustrator 19.0.0, SVG Export Plug-In . SVG Version: 6.00 Build 0)  -->
<svg version="1.1" id="Layer_1" xmlns="http://www.w3.org/2000/svg" xmlns:xlink="http://www.w3.org/1999/xlink" x="0px" y="0px"
	 viewBox="0 0 512 512" style="enable-background:new 0 0 512 512;" xml:space="preserve">
<circle style="fill:#21D0C3;" cx="256" cy="256" r="256"/>
<g>
	<path style="fill:#666666;" d="M270.251,267.525v25.828h-16.555v-25.828c2.742,0.06,5.5,0.094,8.279,0.094
		C264.753,267.619,267.51,267.585,270.251,267.525z"/>
	<path style="fill:#666666;" d="M261.975,37.398c63.846,0,115.609,51.763,115.609,115.61c0,63.846-51.763,115.606-115.609,115.606
		c-63.847,0-115.608-51.76-115.608-115.606C146.367,89.161,198.127,37.398,261.975,37.398z"/>
</g>
<path style="fill:#21D0C3;" d="M261.975,52.378c55.574,0,100.629,45.054,100.629,100.629S317.55,253.636,261.975,253.636
	s-100.629-45.054-100.629-100.629S206.4,52.378,261.975,52.378z"/>
<circle style="fill:#FEFEFE;" cx="261.978" cy="153.011" r="63.65"/>
<path style="fill:#666666;" d="M249.297,467.739h25.349c3.526,0,6.41-2.958,6.41-6.569V306.041c0-3.612-2.901-6.57-6.41-6.57
	h-25.348c-3.507,0-6.407,2.975-6.407,6.57V461.17C242.89,464.764,245.774,467.739,249.297,467.739z"/>
<path style="fill:#FEFEFE;" d="M281.055,311.209v-11.287c0-3.608-2.888-6.569-6.408-6.569h-25.35c-3.518,0-6.408,2.963-6.408,6.569
	v11.287H281.055z"/>
<path style="fill:#ECF0F1;" d="M281.055,311.209v-11.285c0-3.456-2.646-6.315-5.964-6.553v17.838L281.055,311.209L281.055,311.209z
	 M248.851,293.371c-3.314,0.239-5.962,3.098-5.962,6.553v11.285h5.962V293.371z"/>
<path style="fill:#FED298;" d="M164.885,436.925l-66.769,3.199L54.67,359.648l109.757-6.034
	c16.41-22.686,27.606-44.539,78.463-42.683l-0.04,10.661l55.179-0.587c19.001-0.903,21.827,30.366,1.24,31.342l-2.83,0.246
	l-0.454,2.576l7.753-0.566c15.791-1.412,18.127,28.596,0.162,30.2l-13.492,1.867l-0.316,2.196l8.678-1.121
	c14.533-1.316,14.87,28.326-0.519,30.085l-10.369,1.711l0.028,1.596l4.243-0.045c14.429-0.599,12.524,25.904-1.076,27.352
	c-16.527,1.766-18.24,1.658-35.184,2.864C231.906,452.147,175.334,457.707,164.885,436.925L164.885,436.925z"/>
<path style="fill:#F0B97D;" d="M164.288,437.085l-86.13,3.038c-1.804-1.744-3.581-3.515-5.334-5.311l93.418-2.419
	c2.46-0.371,3.823,1.423,4.816,2.322c11.301,26.383,104.827,10.463,125.635,10.805l0.569,0.002
	c-1.667,1.582-3.736,2.659-6.185,2.918l-0.056,0.007C264,451.034,180.618,463.534,164.288,437.085z"/>
<path style="fill:#FFFFFF;" d="M146.271,349.155l1.892,94.311l-22.108,0.102l-1.887-95.096L146.271,349.155z"/>
<path style="fill:#0F7986;" d="M132.963,345.1l1.407,101.826l-47.943,0.838c-35.358-31.29-61.99-72.206-75.812-118.641
	L132.963,345.1L132.963,345.1z"/>
<g>
	<path style="fill:#FAD24D;" d="M121.353,436.771c0.034,3.251-2.511,5.909-5.677,5.942c-3.168,0.032-5.762-2.579-5.786-5.826
		c-0.033-3.247,2.509-5.91,5.675-5.943C118.734,430.915,121.326,433.522,121.353,436.771z"/>
	<path style="fill:#FAD24D;" d="M105.717,437.283c0.034,3.251-2.511,5.909-5.677,5.942c-3.168,0.032-5.762-2.579-5.786-5.826
		c-0.033-3.247,2.509-5.91,5.675-5.943C103.098,431.426,105.69,434.034,105.717,437.283z"/>
</g>
<g>
	<path style="fill:#ECF0F1;" d="M252.417,251.967c-50.419-3.071-90.39-46.199-90.39-98.96s39.972-95.89,90.39-98.96
		c-5.311,1.302-10.452,3.049-15.391,5.197c-37.74,13.384-64.863,50.304-64.863,93.763s27.123,80.379,64.863,93.763
		C241.965,248.917,247.107,250.664,252.417,251.967z"/>
	<path style="fill:#ECF0F1;" d="M276.788,245.082c44.615-2.856,79.985-42.984,79.985-92.076s-35.37-89.22-79.985-92.076
		c1.029,0.266,2.051,0.551,3.066,0.854c40.99,6.622,72.436,44.934,72.436,91.222s-31.446,84.6-72.436,91.222
		C278.839,244.532,277.817,244.817,276.788,245.082z"/>
</g>
<path style="fill:#FF5B62;" d="M250.701,111.492h22.547v30.241h30.241v22.547h-30.241v30.241h-22.547V164.28H220.46v-22.547h30.241
	L250.701,111.492L250.701,111.492z"/>
<g>
</g>
<g>
</g>
<g>
</g>
<g>
</g>
<g>
</g>
<g>
</g>
<g>
</g>
<g>
</g>
<g>
</g>
<g>
</g>
<g>
</g>
<g>
</g>
<g>
</g>
<g>
</g>
<g>
</g>
</svg>
