<?xml version="1.0" encoding="iso-8859-1"?>
<!-- Generator: Adobe Illustrator 21.0.0, SVG Export Plug-In . SVG Version: 6.00 Build 0)  -->
<svg version="1.1" id="Capa_1" xmlns="http://www.w3.org/2000/svg" xmlns:xlink="http://www.w3.org/1999/xlink" x="0px" y="0px"
	 viewBox="0 0 512 512" style="enable-background:new 0 0 512 512;" xml:space="preserve">
<g>
	<path style="fill:#D1D4D1;" d="M512,52.966V476.69c0,19.501-15.809,35.31-35.31,35.31H35.31C15.809,512,0,496.191,0,476.69V52.966
		H512z"/>
	<path style="fill:#955BA5;" d="M512,35.31v35.31H0V35.31C0,15.809,15.809,0,35.31,0H476.69C496.191,0,512,15.809,512,35.31z"/>
	<path style="fill:#FF5364;" d="M52.966,26.483h-8.828c-4.875,0-8.828,3.952-8.828,8.828s3.952,8.828,8.828,8.828h8.828
		c4.875,0,8.828-3.952,8.828-8.828S57.841,26.483,52.966,26.483z"/>
	<path style="fill:#F0C419;" d="M91.63,27.189c-2.131-0.972-4.578-0.972-6.709,0c-1.069,0.448-2.055,1.075-2.913,1.854
		c-3.414,3.481-3.414,9.054,0,12.535c0.859,0.779,1.844,1.406,2.913,1.854c2.137,0.941,4.572,0.941,6.709,0
		c1.069-0.448,2.055-1.075,2.913-1.854c3.414-3.481,3.414-9.054,0-12.535C93.685,28.264,92.7,27.637,91.63,27.189z"/>
	<path style="fill:#65DDB9;" d="M117.319,29.043c-0.779,0.859-1.406,1.844-1.854,2.913c-0.942,2.137-0.942,4.572,0,6.709
		c0.448,1.069,1.075,2.055,1.854,2.913c3.481,3.414,9.054,3.414,12.535,0c0.779-0.859,1.406-1.844,1.854-2.913
		c0.495-1.047,0.737-2.196,0.706-3.354c0.021-3.586-2.13-6.829-5.442-8.204C123.659,25.731,119.844,26.496,117.319,29.043z"/>
	<path style="fill:#804169;" d="M467.862,26.483H167.724c-4.875,0-8.828,3.952-8.828,8.828s3.952,8.828,8.828,8.828h300.138
		c4.875,0,8.828-3.952,8.828-8.828S472.737,26.483,467.862,26.483z"/>
	<path style="fill:#24AE5F;" d="M52.312,114.759h89.582c4.515,0,8.174,3.66,8.174,8.174v89.582c0,4.515-3.66,8.174-8.174,8.174
		H52.312c-4.515,0-8.174-3.66-8.174-8.174v-89.582C44.138,118.418,47.798,114.759,52.312,114.759z"/>
	<path style="fill:#F29C1F;" d="M211.209,114.759h89.582c4.515,0,8.174,3.66,8.174,8.174v89.582c0,4.515-3.66,8.174-8.174,8.174
		h-89.582c-4.515,0-8.174-3.66-8.174-8.174v-89.582C203.034,118.418,206.694,114.759,211.209,114.759z"/>
	<path style="fill:#FF5364;" d="M370.105,114.759h89.582c4.515,0,8.174,3.66,8.174,8.174v89.582c0,4.515-3.66,8.174-8.174,8.174
		h-89.582c-4.515,0-8.174-3.66-8.174-8.174v-89.582C361.931,118.418,365.591,114.759,370.105,114.759z"/>
	<g>
		<path style="fill:#41767F;" d="M141.241,247.172H52.966c-4.875,0-8.828,3.952-8.828,8.828s3.952,8.828,8.828,8.828h88.276
			c4.875,0,8.828-3.952,8.828-8.828S146.117,247.172,141.241,247.172z"/>
		<path style="fill:#41767F;" d="M141.241,282.483H52.966c-4.875,0-8.828,3.952-8.828,8.828s3.952,8.828,8.828,8.828h88.276
			c4.875,0,8.828-3.952,8.828-8.828S146.117,282.483,141.241,282.483z"/>
		<path style="fill:#41767F;" d="M141.241,317.793H52.966c-4.875,0-8.828,3.952-8.828,8.828s3.952,8.828,8.828,8.828h88.276
			c4.875,0,8.828-3.952,8.828-8.828S146.117,317.793,141.241,317.793z"/>
		<path style="fill:#41767F;" d="M300.138,247.172h-88.276c-4.875,0-8.828,3.952-8.828,8.828s3.952,8.828,8.828,8.828h88.276
			c4.875,0,8.828-3.952,8.828-8.828S305.013,247.172,300.138,247.172z"/>
		<path style="fill:#41767F;" d="M300.138,282.483h-88.276c-4.875,0-8.828,3.952-8.828,8.828s3.952,8.828,8.828,8.828h88.276
			c4.875,0,8.828-3.952,8.828-8.828S305.013,282.483,300.138,282.483z"/>
		<path style="fill:#41767F;" d="M300.138,317.793h-88.276c-4.875,0-8.828,3.952-8.828,8.828s3.952,8.828,8.828,8.828h88.276
			c4.875,0,8.828-3.952,8.828-8.828S305.013,317.793,300.138,317.793z"/>
		<path style="fill:#41767F;" d="M370.759,264.828h88.276c4.875,0,8.828-3.952,8.828-8.828s-3.952-8.828-8.828-8.828h-88.276
			c-4.875,0-8.828,3.952-8.828,8.828S365.883,264.828,370.759,264.828z"/>
		<path style="fill:#41767F;" d="M459.034,282.483h-88.276c-4.875,0-8.828,3.952-8.828,8.828s3.952,8.828,8.828,8.828h88.276
			c4.875,0,8.828-3.952,8.828-8.828S463.91,282.483,459.034,282.483z"/>
		<path style="fill:#41767F;" d="M459.034,317.793h-88.276c-4.875,0-8.828,3.952-8.828,8.828s3.952,8.828,8.828,8.828h88.276
			c4.875,0,8.828-3.952,8.828-8.828S463.91,317.793,459.034,317.793z"/>
	</g>
	<rect x="158.897" y="379.586" style="fill:#F29C1F;" width="229.517" height="70.621"/>
	<path style="fill:#FF5364;" d="M388.414,379.586h44.138c19.501,0,35.31,15.809,35.31,35.31s-15.809,35.31-35.31,35.31h-44.138
		V379.586z"/>
	<path style="fill:#2C2F38;" d="M88.276,423.724H70.621c-4.875,0-8.828-3.952-8.828-8.828s3.952-8.828,8.828-8.828h17.655
		c4.875,0,8.828,3.952,8.828,8.828S93.151,423.724,88.276,423.724z"/>
	<polygon style="fill:#AF8066;" points="158.897,379.586 88.276,406.069 88.276,423.724 158.897,450.207 	"/>
</g>
<g>
</g>
<g>
</g>
<g>
</g>
<g>
</g>
<g>
</g>
<g>
</g>
<g>
</g>
<g>
</g>
<g>
</g>
<g>
</g>
<g>
</g>
<g>
</g>
<g>
</g>
<g>
</g>
<g>
</g>
</svg>
