<?xml version="1.0" encoding="iso-8859-1"?>
<!-- Generator: Adobe Illustrator 19.0.0, SVG Export Plug-In . SVG Version: 6.00 Build 0)  -->
<svg version="1.1" id="Capa_1" xmlns="http://www.w3.org/2000/svg" xmlns:xlink="http://www.w3.org/1999/xlink" x="0px" y="0px"
	 viewBox="0 0 512 512" style="enable-background:new 0 0 512 512;" xml:space="preserve">
<g>
	<path style="fill:#2A60A0;" d="M248,95.52V32.792c-24.728,4.76-41.456,30.568-51.976,54.888
		C212.912,92.368,230.424,94.896,248,95.52z"/>
	<path style="fill:#2A60A0;" d="M180.648,82.944c8.24-19.464,17.96-34.848,28.936-45.936c-0.952,0.2-1.92,0.352-2.864,0.56
		c-2.176,0.488-4.328,1.056-6.488,1.608c-2.896,0.736-5.784,1.504-8.648,2.36c-2.176,0.648-4.328,1.352-6.472,2.064
		c-2.8,0.928-5.576,1.904-8.336,2.944c-2.12,0.8-4.232,1.632-6.328,2.496c-2.736,1.128-5.448,2.336-8.144,3.576
		c-2.032,0.936-4.064,1.88-6.072,2.872c-2.72,1.36-5.4,2.808-8.072,4.28c-1.896,1.04-3.792,2.064-5.664,3.16
		c-0.616,0.36-1.2,0.768-1.808,1.136C150.12,69.752,159.8,74.648,169.6,78.68C173.304,80.232,176.984,81.632,180.648,82.944z"/>
	<path style="fill:#2A60A0;" d="M112,168c0-35.792,25.936-65.456,60.432-71c-2.992-1.12-5.992-2.288-8.976-3.544
		c-12.728-5.232-25.288-11.92-37.408-19.76C111.64,84.016,98.432,95.904,86.84,109.24C53.224,147.872,34.008,196.872,32.184,248H112
		V168z"/>
	<path style="fill:#2A60A0;" d="M264,95.52c17.592-0.616,35.096-3.152,51.976-7.848C305.456,63.328,288.68,37.424,264,32.752V95.52z
		"/>
	<path style="fill:#2A60A0;" d="M342.328,78.704c9.848-4.048,19.544-8.952,28.984-14.64c-0.6-0.36-1.184-0.768-1.784-1.12
		c-1.888-1.112-3.816-2.152-5.736-3.208c-2.648-1.456-5.304-2.896-8-4.24c-2.016-1-4.048-1.944-6.088-2.888
		c-2.688-1.24-5.392-2.44-8.128-3.568c-2.08-0.864-4.184-1.688-6.288-2.488c-2.768-1.048-5.552-2.024-8.36-2.96
		c-2.128-0.712-4.256-1.408-6.408-2.048c-2.872-0.856-5.768-1.632-8.672-2.376c-2.128-0.544-4.248-1.104-6.392-1.584
		c-1.008-0.224-2.024-0.384-3.032-0.6c10.96,11.088,20.688,26.488,28.928,45.96C335.008,81.632,338.68,80.24,342.328,78.704z"/>
	<path style="fill:#2A60A0;" d="M339.632,96.976C373.944,102.4,400,132.128,400,168v80h79.816
		c-1.824-51.128-21.048-100.128-54.648-138.752c-11.592-13.344-24.808-25.232-39.216-35.56c-12.12,7.84-24.688,14.528-37.48,19.784
		C345.552,94.712,342.592,95.872,339.632,96.976z"/>
	<path style="fill:#2A60A0;" d="M330.008,399.952C360.448,398.656,384,374.088,384,344V168c0-30.088-23.552-54.656-53.616-55.928
		c-0.248-0.016-0.424-0.024-0.64-0.032c-0.576-0.032-1.2-0.04-1.744-0.04H184c-0.624,0-1.352-0.008-2.008,0.048
		C151.552,113.344,128,137.912,128,168v176c0,30.088,23.552,54.656,53.616,55.928c0.176,0.016,0.304,0.016,0.464,0.024
		C182.712,400,183.4,400,184,400h144C328.624,400,329.352,400.008,330.008,399.952z"/>
	<path style="fill:#2A60A0;" d="M248,416.48c-17.592,0.616-35.096,3.152-51.976,7.848c10.528,24.344,27.296,50.248,51.976,54.92
		V416.48z"/>
	<path style="fill:#2A60A0;" d="M331.352,429.056c-8.24,19.464-17.96,34.848-28.936,45.936c0.952-0.2,1.92-0.352,2.872-0.56
		c2.176-0.488,4.328-1.056,6.48-1.6c2.896-0.736,5.784-1.504,8.648-2.36c2.168-0.648,4.32-1.352,6.472-2.064
		c2.8-0.928,5.584-1.912,8.344-2.952c2.12-0.8,4.224-1.632,6.32-2.496c2.744-1.136,5.464-2.336,8.16-3.584
		c2.024-0.936,4.048-1.872,6.048-2.864c2.728-1.36,5.416-2.816,8.096-4.288c1.888-1.04,3.792-2.056,5.648-3.152
		c0.616-0.36,1.2-0.768,1.808-1.136c-9.432-5.688-19.112-10.584-28.912-14.616C338.696,431.768,335.016,430.368,331.352,429.056z"/>
	<path style="fill:#2A60A0;" d="M264,416.48v62.728c24.728-4.76,41.456-30.568,51.976-54.888
		C299.08,419.632,281.576,417.104,264,416.48z"/>
	<path style="fill:#2A60A0;" d="M172.368,415.024C138.056,409.6,112,379.872,112,344v-80H32.184
		c1.824,51.128,21.048,100.128,54.648,138.752c11.592,13.344,24.808,25.232,39.216,35.56c12.12-7.84,24.688-14.528,37.48-19.784
		C166.448,417.288,169.408,416.128,172.368,415.024z"/>
	<path style="fill:#2A60A0;" d="M400,344c0,35.792-25.936,65.456-60.432,71c2.992,1.12,5.992,2.288,8.976,3.544
		c12.728,5.232,25.288,11.92,37.408,19.76c14.408-10.32,27.616-22.208,39.208-35.544c33.608-38.632,52.832-87.632,54.656-138.76H400
		V344z"/>
	<path style="fill:#2A60A0;" d="M169.672,433.296c-9.848,4.048-19.544,8.952-28.984,14.64c0.6,0.36,1.184,0.768,1.784,1.12
		c1.888,1.112,3.816,2.144,5.736,3.2c2.648,1.456,5.304,2.896,8.008,4.248c2.008,1,4.048,1.944,6.088,2.888
		c2.688,1.24,5.392,2.44,8.12,3.568c2.088,0.864,4.184,1.688,6.296,2.488c2.768,1.048,5.552,2.024,8.352,2.96
		c2.128,0.712,4.256,1.408,6.408,2.048c2.872,0.856,5.768,1.632,8.672,2.376c2.128,0.544,4.248,1.104,6.392,1.584
		c1.008,0.224,2.032,0.384,3.04,0.6c-10.96-11.088-20.688-26.488-28.928-45.96C176.992,430.368,173.32,431.76,169.672,433.296z"/>
	<path style="fill:#2A60A0;" d="M256,0C114.616,0,0,114.616,0,256s114.616,256,256,256s256-114.616,256-256S397.384,0,256,0z
		 M390.76,454.608c-0.008,0-0.008,0.008-0.016,0.016c-28.2,19.192-59.928,31.88-93.264,37.672
		c-6.872,1.192-13.792,2.184-20.784,2.784c-5.72,0.488-11.472,0.752-17.248,0.832c-0.008,0-0.024,0-0.032,0c-0.024,0-0.056,0-0.08,0
		c-0.096,0-0.184,0.016-0.28,0.016C258.44,495.992,257.264,496,256,496c-1.168,0-2.44-0.008-3.608-0.104
		c-46.72-0.536-92.256-14.832-131.136-41.28c-17.232-11.768-32.872-25.688-46.496-41.376C36.864,369.712,16,313.864,16,256
		S36.864,142.288,74.768,98.752c13.616-15.68,29.256-29.6,46.48-41.352c0.008,0,0.008-0.008,0.016-0.016
		C160.032,31,205.432,16.736,252.56,16.096c0.008,0,0.016,0,0.032,0c0.048-0.008,0.12,0,0.168-0.008
		c0.064,0,0.128-0.008,0.192-0.008c0.64-0.072,1.744-0.112,2.968-0.112c0.128,0,0.248,0.008,0.384,0.008
		c1.12,0.008,2.304,0.048,3.312,0.128c46.72,0.536,92.256,14.832,131.136,41.28c17.232,11.768,32.872,25.688,46.496,41.376
		C475.136,142.288,496,198.136,496,256s-20.864,113.712-58.768,157.248C423.616,428.928,407.984,442.848,390.76,454.608z"/>
</g>
<path style="fill:#EFC062;" d="M328,416H184c-39.768,0-72-32.232-72-72V168c0-39.768,32.232-72,72-72h144c39.768,0,72,32.232,72,72
	v176C400,383.768,367.768,416,328,416z"/>
<g>
	<path style="fill:#FFFFFF;" d="M272,264v-12c0-11.048,8.952-20,20-20l0,0c11.048,0,20,8.952,20,20v12"/>
	<path style="fill:#FFFFFF;" d="M232,264v-12c0-11.048,8.952-20,20-20l0,0c11.048,0,20,8.952,20,20v12"/>
	<path style="fill:#FFFFFF;" d="M192,280V156c0-11.048,8.952-20,20-20l0,0c11.048,0,20,8.952,20,20v108"/>
	<path style="fill:#FFFFFF;" d="M312,264v-12c0-11.048,8.952-20,20-20l0,0c11.048,0,20,8.952,20,20v92c0,17.672-14.328,32-32,32H192
		v-24l-32-32v-40l32-32"/>
</g>
<g>
</g>
<g>
</g>
<g>
</g>
<g>
</g>
<g>
</g>
<g>
</g>
<g>
</g>
<g>
</g>
<g>
</g>
<g>
</g>
<g>
</g>
<g>
</g>
<g>
</g>
<g>
</g>
<g>
</g>
</svg>
