<?xml version="1.0" encoding="windows-1252"?>
<!-- Generator: Adobe Illustrator 19.0.0, SVG Export Plug-In . SVG Version: 6.00 Build 0)  -->
<svg version="1.1" id="Layer_1" xmlns="http://www.w3.org/2000/svg" xmlns:xlink="http://www.w3.org/1999/xlink" x="0px" y="0px" viewBox="0 0 264.148 264.148" style="enable-background:new 0 0 264.148 264.148;" xml:space="preserve">
<g>
	<path style="fill:#FFFFFF;" d="M197.283,198.339l-24.136,17.535l-7.218-28.946L207.24,73.424c1.367-3.755,3.943-6.717,7.127-8.615   V25.296c0-9.829-7.968-17.796-17.796-17.796H42.32c-9.829,0-17.796,7.968-17.796,17.796v213.556   c0,9.829,7.968,17.796,17.796,17.796h154.25c9.829,0,17.796-7.968,17.796-17.796V151.4L197.283,198.339z"/>
	<g>
		<path style="fill:#FFD155;" d="M228.623,63.453c-8.658-3.151-18.232,1.313-21.383,9.971l-41.311,113.502l7.218,28.946    l24.136-17.534l41.311-113.502C241.746,76.178,237.281,66.605,228.623,63.453z"/>
		<g>
			<path style="fill:#E87E04;" d="M52.14,55.775h134.611c4.142,0,7.5-3.358,7.5-7.5s-3.358-7.5-7.5-7.5H52.14     c-4.142,0-7.5,3.358-7.5,7.5S47.998,55.775,52.14,55.775z"/>
			<path style="fill:#E87E04;" d="M114.996,166.474H52.14c-4.142,0-7.5,3.358-7.5,7.5s3.358,7.5,7.5,7.5h62.856     c4.142,0,7.5-3.358,7.5-7.5S119.138,166.474,114.996,166.474z"/>
			<path style="fill:#E87E04;" d="M114.996,208.373H52.14c-4.142,0-7.5,3.358-7.5,7.5s3.358,7.5,7.5,7.5h62.856     c4.142,0,7.5-3.358,7.5-7.5S119.138,208.373,114.996,208.373z"/>
			<path style="fill:#E87E04;" d="M221.867,54.974V25.296C221.867,11.348,210.519,0,196.571,0H42.32     C28.372,0,17.024,11.348,17.024,25.296v213.556c0,13.948,11.348,25.296,25.296,25.296h154.251     c13.948,0,25.296-11.348,25.296-25.296v-86.13l23.775-65.321C251.554,71.154,238.998,54.206,221.867,54.974z M206.867,238.852     c0,5.677-4.619,10.296-10.296,10.296H42.32c-5.677,0-10.296-4.619-10.296-10.296V25.296C32.024,19.619,36.643,15,42.32,15     h154.251c5.677,0,10.296,4.619,10.296,10.296v35.751c-5.955,5.267-6.657,9.764-12.929,26.994     c-0.92-3.102-3.787-5.367-7.188-5.367H52.14c-4.142,0-7.5,3.358-7.5,7.5c0,4.142,3.358,7.5,7.5,7.5h134.611     c1.529,0,2.949-0.46,4.135-1.245l-10.244,28.145H52.14c-4.142,0-7.5,3.358-7.5,7.5c0,4.142,3.358,7.5,7.5,7.5h123.042     l-16.301,44.788c-0.511,1.404-0.591,2.929-0.229,4.379l7.218,28.946c1.286,5.155,7.393,7.37,11.686,4.253l24.136-17.535     c2.375-1.726,2.578-3.332,5.176-10.472V238.852z M231.546,82.271l-24.227,66.563l0,0.001l-16.3,44.783l-13.286,9.652     l-3.973-15.934L214.288,75.99c1.725-4.742,7.007-7.222,11.77-5.489C230.827,72.236,233.283,77.501,231.546,82.271z"/>
		</g>
	</g>
</g>
<g>
</g>
<g>
</g>
<g>
</g>
<g>
</g>
<g>
</g>
<g>
</g>
<g>
</g>
<g>
</g>
<g>
</g>
<g>
</g>
<g>
</g>
<g>
</g>
<g>
</g>
<g>
</g>
<g>
</g>
<style xmlns="" type="text/css" id="igtranslator-color"/></svg>